<?xml version="1.0" encoding="UTF-8"?>
<svg width="335px" height="167px" viewBox="0 0 335 167" version="1.1" xmlns="http://www.w3.org/2000/svg" xmlns:xlink="http://www.w3.org/1999/xlink">
    <!-- Generator: Sketch 46.2 (44496) - http://www.bohemiancoding.com/sketch -->
    <title>Group 2</title>
    <desc>Created with Sketch.</desc>
    <defs>
        <polygon id="path-1" points="0.540752221 70.5830675 6.12823439 70.5830675 6.12823439 0.149701762 0.540752221 0.149701762 0.540752221 70.5830675"></polygon>
        <polygon id="path-3" points="0.540752221 70.5830675 6.12823439 70.5830675 6.12823439 0.149701762 0.540752221 0.149701762 0.540752221 70.5830675"></polygon>
        <polygon id="path-5" points="0.361744589 45.809587 4.09957749 45.809587 4.09957749 0.0971589381 0.361744589 0.0971589381 0.361744589 45.809587"></polygon>
        <polygon id="path-7" points="0.000239609187 0.442094801 79.4019319 0.442094801 79.4019319 77.8475106 0.000239609187 77.8475106 0.000239609187 0.442094801"></polygon>
        <polygon id="path-9" points="0.000239609187 0.442094801 79.4019319 0.442094801 79.4019319 77.8475106 0.000239609187 77.8475106 0.000239609187 0.442094801"></polygon>
        <polygon id="path-11" points="0.000160290284 0.286926893 53.1171545 0.286926893 53.1171545 50.5243316 0.000160290284 50.5243316 0.000160290284 0.286926893"></polygon>
        <polygon id="path-13" points="93.5379532 0.0576538405 93.5379532 96.3435058 1.59587048e-05 96.3435058 1.59587048e-05 0.0576538405 93.5379532 0.0576538405"></polygon>
        <polygon id="path-15" points="93.5379532 0.0576538405 93.5379532 96.3435058 1.59587048e-05 96.3435058 1.59587048e-05 0.0576538405 93.5379532 0.0576538405"></polygon>
        <polygon id="path-17" points="62.5736653 0.0374183032 62.5736653 62.5285407 1.06758237e-05 62.5285407 1.06758237e-05 0.0374183032 62.5736653 0.0374183032"></polygon>
    </defs>
    <g id="Energy" stroke="none" stroke-width="1" fill="none" fill-rule="evenodd">
        <g id="PROFIL-Copy-3" transform="translate(-543.000000, -3181.000000)">
            <g id="Group-2" transform="translate(542.570398, 3180.374832)">
                <g id="Page-1" style="mix-blend-mode: screen;" transform="translate(158.401535, 56.630601)">
                    <g id="Group-3" transform="translate(0.000000, 0.703368)" fill="#FFFFFF">
                        <path d="M34.4749862,26.1333808 C34.9797372,26.6184342 35.1307521,27.2955392 35.0166702,28.0432272 C34.9707091,28.351823 34.9846616,28.6144577 35.2907951,28.8130751 C35.971183,29.2529882 36.2157616,29.9776957 36.4570572,30.6966581 C38.7280263,37.4791985 40.9957126,44.2633803 43.2699647,51.0459207 C43.8740244,52.8498925 44.4936781,54.64894 45.1075866,56.449629 C45.149444,56.5743805 45.238904,56.6991319 45.2306966,56.8197797 C45.2183856,57.0233216 45.1453404,57.2235805 45.0977378,57.4246602 C44.9352326,57.2974465 44.746464,57.1907512 44.6159674,57.0339911 C44.4944988,56.8879006 44.4296609,56.6909246 44.3475876,56.5128255 C41.0703993,49.3543892 37.7874659,42.199236 34.5225887,35.0358753 C33.9390473,33.7555313 33.4154194,32.4472824 32.8958952,31.1390334 C32.782634,30.8525975 32.6784009,30.6958374 32.351749,30.7196387 C31.736199,30.7655997 31.1904113,30.5513883 30.6946884,30.2033974 C30.4714489,30.0466373 30.2654448,29.9128578 29.9814711,30.087674 C29.3183186,30.4955785 28.5878659,30.4217125 27.8746486,30.309272 C20.7769467,29.1930747 13.6808862,28.0637456 6.58400495,26.9401616 C4.7045256,26.6430562 2.82340477,26.3557995 0.943104685,26.0652599 C0.747770149,26.0348928 0.532738013,26.0562318 0.362846211,25.9758 C0.215114209,25.9060376 0.119088408,25.726297 8.20733338e-05,25.5958004 C0.125654275,25.5079819 0.240556943,25.3840512 0.380902345,25.3421938 C0.53191728,25.2962327 0.705092015,25.3167511 0.869238684,25.3249584 C8.53652958,25.7107031 16.2046412,26.086599 23.8711114,26.4961449 C25.6693381,26.5929914 27.460999,26.7981748 29.2551221,26.9713495 C29.5514068,27.0000752 29.7861366,26.9746324 29.9026807,26.6824514 C30.1612117,26.0283269 30.6347748,25.6097529 31.2872579,25.3832305 C31.5720523,25.2847425 31.7214258,25.1041811 31.7025489,24.7980476 C31.6574086,24.0257375 32.0259179,23.4052631 32.4559821,22.8184388 C36.5867331,17.1783592 40.7240498,11.5432041 44.8556215,5.90394531 C46.1170886,4.18204675 47.3637826,2.45194086 48.6186839,0.726759376 C48.7532841,0.54127364 48.8846015,0.346759838 49.0503896,0.193282702 C49.1242556,0.124341102 49.3113828,0.0923325011 49.3926354,0.139935035 C49.4747087,0.187537569 49.5518577,0.372202571 49.5223113,0.461662506 C49.4410587,0.707882509 49.3163072,0.942612245 49.1858106,1.16913465 C45.1174354,8.17901813 41.0556261,15.1913638 36.9691948,22.1905778 C36.1968847,23.5152414 35.331011,24.7857366 34.4749862,26.1333808" id="Fill-1"></path>
                    </g>
                    <g id="Group-6" transform="translate(29.546400, 29.429035)">
                        <mask id="mask-2" fill="white">
                            <use xlink:href="#path-1"></use>
                        </mask>
                        <g id="Clip-5"></g>
                        <path d="M4.59438318,29.0772692 C4.65922112,34.3266796 4.72323832,39.5769108 4.78971772,44.8263213 C4.83896172,48.6985412 4.89723379,52.5699404 4.93580825,56.4421603 C4.94155339,56.9945139 4.97274125,57.4853124 5.54971679,57.763541 C5.8895004,57.9268669 5.93464073,58.2461322 5.94038587,58.5965853 C5.99373353,61.9427152 6.0495434,65.2896658 6.12751307,68.6349749 C6.1455692,69.391691 5.82466246,69.899725 5.16233066,70.1943682 C3.72850951,70.8328988 2.36034702,70.6703936 1.05702247,69.8151894 C0.692616868,69.576356 0.538319,69.2538078 0.5407812,68.8221021 C0.5604788,65.4094928 0.5703276,61.9960629 0.595770334,58.5834536 C0.597411801,58.3717044 0.644193601,58.0754197 0.784539003,57.9654414 C1.24989481,57.603498 1.22609354,57.1258312 1.22773501,56.6301083 C1.24907408,53.4464836 1.28518634,50.2636797 1.29667661,47.0816965 C1.34920354,33.3656009 1.39270241,19.6495053 1.44276714,5.93340963 C1.44769154,4.52421048 1.47970014,3.11583206 1.50103921,1.70663291 C1.50350141,1.54330698 1.51417095,1.37833958 1.53058561,1.21583437 C1.61183821,0.390997365 1.89334975,0.244086096 2.71326236,0.149701762 C3.84587437,0.185814029 4.28907038,0.372941231 4.29645698,1.71730245 C4.32518265,6.63759884 4.34488025,11.5578952 4.39576571,16.4773709 C4.43926458,20.6787049 4.51969645,24.8775767 4.58371365,29.0772692 L4.59438318,29.0772692 Z" id="Fill-4" fill="#FFFFFF" mask="url(#mask-2)"></path>
                    </g>
                </g>
                <g id="Page-1-Copy" style="mix-blend-mode: screen;" transform="translate(284.794470, 56.630601)">
                    <g id="Group-3" transform="translate(0.000000, 0.703368)" fill="#FFFFFF">
                        <path d="M34.4749862,26.1333808 C34.9797372,26.6184342 35.1307521,27.2955392 35.0166702,28.0432272 C34.9707091,28.351823 34.9846616,28.6144577 35.2907951,28.8130751 C35.971183,29.2529882 36.2157616,29.9776957 36.4570572,30.6966581 C38.7280263,37.4791985 40.9957126,44.2633803 43.2699647,51.0459207 C43.8740244,52.8498925 44.4936781,54.64894 45.1075866,56.449629 C45.149444,56.5743805 45.238904,56.6991319 45.2306966,56.8197797 C45.2183856,57.0233216 45.1453404,57.2235805 45.0977378,57.4246602 C44.9352326,57.2974465 44.746464,57.1907512 44.6159674,57.0339911 C44.4944988,56.8879006 44.4296609,56.6909246 44.3475876,56.5128255 C41.0703993,49.3543892 37.7874659,42.199236 34.5225887,35.0358753 C33.9390473,33.7555313 33.4154194,32.4472824 32.8958952,31.1390334 C32.782634,30.8525975 32.6784009,30.6958374 32.351749,30.7196387 C31.736199,30.7655997 31.1904113,30.5513883 30.6946884,30.2033974 C30.4714489,30.0466373 30.2654448,29.9128578 29.9814711,30.087674 C29.3183186,30.4955785 28.5878659,30.4217125 27.8746486,30.309272 C20.7769467,29.1930747 13.6808862,28.0637456 6.58400495,26.9401616 C4.7045256,26.6430562 2.82340477,26.3557995 0.943104685,26.0652599 C0.747770149,26.0348928 0.532738013,26.0562318 0.362846211,25.9758 C0.215114209,25.9060376 0.119088408,25.726297 8.20733338e-05,25.5958004 C0.125654275,25.5079819 0.240556943,25.3840512 0.380902345,25.3421938 C0.53191728,25.2962327 0.705092015,25.3167511 0.869238684,25.3249584 C8.53652958,25.7107031 16.2046412,26.086599 23.8711114,26.4961449 C25.6693381,26.5929914 27.460999,26.7981748 29.2551221,26.9713495 C29.5514068,27.0000752 29.7861366,26.9746324 29.9026807,26.6824514 C30.1612117,26.0283269 30.6347748,25.6097529 31.2872579,25.3832305 C31.5720523,25.2847425 31.7214258,25.1041811 31.7025489,24.7980476 C31.6574086,24.0257375 32.0259179,23.4052631 32.4559821,22.8184388 C36.5867331,17.1783592 40.7240498,11.5432041 44.8556215,5.90394531 C46.1170886,4.18204675 47.3637826,2.45194086 48.6186839,0.726759376 C48.7532841,0.54127364 48.8846015,0.346759838 49.0503896,0.193282702 C49.1242556,0.124341102 49.3113828,0.0923325011 49.3926354,0.139935035 C49.4747087,0.187537569 49.5518577,0.372202571 49.5223113,0.461662506 C49.4410587,0.707882509 49.3163072,0.942612245 49.1858106,1.16913465 C45.1174354,8.17901813 41.0556261,15.1913638 36.9691948,22.1905778 C36.1968847,23.5152414 35.331011,24.7857366 34.4749862,26.1333808" id="Fill-1"></path>
                    </g>
                    <g id="Group-6" transform="translate(29.546400, 29.429035)">
                        <mask id="mask-4" fill="white">
                            <use xlink:href="#path-3"></use>
                        </mask>
                        <g id="Clip-5"></g>
                        <path d="M4.59438318,29.0772692 C4.65922112,34.3266796 4.72323832,39.5769108 4.78971772,44.8263213 C4.83896172,48.6985412 4.89723379,52.5699404 4.93580825,56.4421603 C4.94155339,56.9945139 4.97274125,57.4853124 5.54971679,57.763541 C5.8895004,57.9268669 5.93464073,58.2461322 5.94038587,58.5965853 C5.99373353,61.9427152 6.0495434,65.2896658 6.12751307,68.6349749 C6.1455692,69.391691 5.82466246,69.899725 5.16233066,70.1943682 C3.72850951,70.8328988 2.36034702,70.6703936 1.05702247,69.8151894 C0.692616868,69.576356 0.538319,69.2538078 0.5407812,68.8221021 C0.5604788,65.4094928 0.5703276,61.9960629 0.595770334,58.5834536 C0.597411801,58.3717044 0.644193601,58.0754197 0.784539003,57.9654414 C1.24989481,57.603498 1.22609354,57.1258312 1.22773501,56.6301083 C1.24907408,53.4464836 1.28518634,50.2636797 1.29667661,47.0816965 C1.34920354,33.3656009 1.39270241,19.6495053 1.44276714,5.93340963 C1.44769154,4.52421048 1.47970014,3.11583206 1.50103921,1.70663291 C1.50350141,1.54330698 1.51417095,1.37833958 1.53058561,1.21583437 C1.61183821,0.390997365 1.89334975,0.244086096 2.71326236,0.149701762 C3.84587437,0.185814029 4.28907038,0.372941231 4.29645698,1.71730245 C4.32518265,6.63759884 4.34488025,11.5578952 4.39576571,16.4773709 C4.43926458,20.6787049 4.51969645,24.8775767 4.58371365,29.0772692 L4.59438318,29.0772692 Z" id="Fill-4" fill="#FFFFFF" mask="url(#mask-4)"></path>
                    </g>
                </g>
                <g id="Page-1-Copy-4" style="mix-blend-mode: screen;" transform="translate(46.416716, 84.535534)">
                    <g id="Group-3" transform="translate(0.000000, 0.456498)" fill="#FFFFFF">
                        <path d="M23.062577,16.9609996 C23.400238,17.2758073 23.5012618,17.7152598 23.4249449,18.2005218 C23.3941985,18.4008056 23.4035322,18.5712598 23.608325,18.7001659 C24.0634811,18.9856768 24.2270957,19.4560241 24.3885141,19.9226427 C25.9077142,24.3246244 27.4247181,28.7276714 28.9461143,33.1296531 C29.3502094,34.300461 29.7647364,35.4680728 30.17542,36.6367499 C30.2034212,36.7177157 30.2632668,36.7986815 30.2577764,36.8769839 C30.2495407,37.009086 30.200676,37.1390573 30.1688315,37.2695614 C30.0601211,37.1869976 29.9338414,37.1177506 29.8465437,37.0160107 C29.7652854,36.9211955 29.7219111,36.7933548 29.6670068,36.6777655 C27.4746809,32.0318211 25.2785117,27.3880073 23.0944214,22.7388669 C22.7040523,21.9079023 22.3537633,21.058827 22.0062196,20.2097516 C21.9304517,20.0238499 21.8607233,19.92211 21.6422045,19.9375574 C21.2304228,19.9673869 20.8653096,19.8283601 20.5336881,19.6025082 C20.3843486,19.5007683 20.246539,19.4139432 20.0565703,19.5274018 C19.6129441,19.7921386 19.1242965,19.7441983 18.6471787,19.6712226 C13.8990609,18.9467919 9.1520411,18.2138385 4.40447228,17.4846138 C3.1471654,17.2917874 1.88876044,17.1053531 0.630904513,16.916788 C0.500232445,16.8970792 0.356383361,16.9109287 0.242731603,16.858727 C0.143903988,16.8134501 0.0796660385,16.6967955 5.49042302e-05,16.612101 C0.084058377,16.5551053 0.1609243,16.4746722 0.254810534,16.4475061 C0.355834318,16.4176766 0.471682245,16.4309933 0.581490706,16.43632 C5.71064392,16.6866747 10.8403462,16.9306374 15.9689504,17.1964396 C17.1719021,17.2592946 18.3704614,17.392462 19.5706679,17.5048553 C19.7688722,17.5234987 19.9258983,17.506986 20.0038623,17.3173556 C20.1768106,16.8928179 20.493608,16.6211564 20.9300966,16.4741396 C21.1206143,16.4102192 21.22054,16.2930319 21.207912,16.0943461 C21.1777147,15.593104 21.4242347,15.1904058 21.7119329,14.809547 C24.4752628,11.1490414 27.2429851,7.49173182 30.006864,3.83175889 C30.8507421,2.71421803 31.6847373,1.59135048 32.524223,0.471678945 C32.6142659,0.351295612 32.7021127,0.225052913 32.8130193,0.125443695 C32.8624331,0.0806994469 32.9876147,0.0599253319 33.0419699,0.0908201696 C33.0968741,0.121715007 33.1484841,0.241565671 33.1287186,0.299626659 C33.0743634,0.459427544 32.990909,0.611771055 32.9036112,0.758787869 C30.1820085,5.30831906 27.4647982,9.85944827 24.7311165,14.4020548 C24.2144677,15.2617835 23.6352281,16.0863561 23.062577,16.9609996" id="Fill-1"></path>
                    </g>
                    <g id="Group-6" transform="translate(19.765523, 19.099934)">
                        <mask id="mask-6" fill="white">
                            <use xlink:href="#path-5"></use>
                        </mask>
                        <g id="Clip-5"></g>
                        <path d="M3.07348392,18.8716322 C3.11685826,22.2785871 3.15968356,25.6860746 3.20415599,29.0930295 C3.23709853,31.6061648 3.27608053,34.1187674 3.30188552,36.6319026 C3.30572882,36.9903893 3.32659243,37.3089257 3.71256917,37.4895007 C3.93987268,37.5955019 3.97007001,37.8027104 3.9739133,38.0301603 C4.00960105,40.2018544 4.04693593,42.3740811 4.09909495,44.5452424 C4.11117388,45.0363638 3.89649834,45.3660863 3.4534212,45.5573147 C2.49424429,45.9717317 1.57899077,45.8662631 0.707111585,45.3112213 C0.463336802,45.1562145 0.360116848,44.9468753 0.361763975,44.6666911 C0.37494099,42.4518508 0.381529498,40.2364779 0.39854981,38.0216376 C0.399647894,37.8842089 0.430943306,37.6919151 0.52482954,37.6205374 C0.836136527,37.3856301 0.8202143,37.0756164 0.821312385,36.7538839 C0.835587485,34.6876585 0.859745346,32.6219657 0.867431939,30.5568056 C0.902570646,21.654831 0.931669888,12.7528564 0.965161469,3.85088173 C0.968455723,2.93628799 0.989868373,2.02222693 1.00414347,1.1076332 C1.0057906,1.00163195 1.01292815,0.894565354 1.023909,0.78909677 C1.07826418,0.253763805 1.26658569,0.158415944 1.81507896,0.0971589381 C2.57275734,0.120596401 2.86924018,0.242045074 2.87418157,1.11455791 C2.89339805,4.30791226 2.90657506,7.50126661 2.94061568,10.6940883 C2.96971493,13.4208241 3.02352107,16.1459618 3.06634637,18.8716322 L3.07348392,18.8716322 Z" id="Fill-4" fill="#FFFFFF" mask="url(#mask-6)"></path>
                    </g>
                </g>
                <g id="Page-1" style="mix-blend-mode: screen;" transform="translate(128.855135, 12.311000)">
                    <g id="Group-3" transform="translate(0.000000, 0.100752)">
                        <mask id="mask-8" fill="white">
                            <use xlink:href="#path-7"></use>
                        </mask>
                        <g id="Clip-2"></g>
                        <path d="M36.1392952,42.7263387 C37.1624264,42.7047489 38.0142371,43.2492919 38.6695682,44.1392719 C38.9403266,44.5062986 39.2266596,44.7629775 39.7478096,44.6514301 C40.9039239,44.4031473 41.9042922,44.8985135 42.8950762,45.3938797 C52.2398345,50.0560794 61.5833947,54.7218774 70.9305491,59.3804787 C73.4164944,60.6206934 75.9132222,61.8393183 78.4063557,63.0663392 C78.5776763,63.151499 78.7993148,63.1886815 78.9155253,63.3206192 C79.1120048,63.5437139 79.2437899,63.8267803 79.4019319,64.0846586 C79.1024204,64.1194422 78.7969187,64.2058014 78.5033975,64.1782144 C78.2254508,64.1530263 77.9546924,64.0162909 77.6863301,63.9167379 C66.9146992,59.9070302 56.1406721,55.9045192 45.3774274,51.8756207 C43.4533656,51.1559603 41.5628491,50.345143 39.6759268,49.5295279 C39.263799,49.3508123 38.9942387,49.2968377 38.6815487,49.6590668 C38.0933081,50.3427441 37.3097861,50.6845828 36.4388067,50.8381103 C36.0470457,50.9064781 35.6960182,50.980843 35.5822038,51.4558188 C35.3186337,52.5628963 34.4883879,53.2405765 33.6365772,53.8618833 C25.1580062,60.0425663 16.6674546,66.2088561 8.18409138,72.3823425 C5.93655721,74.0171709 3.69860741,75.6627943 1.45706346,77.3072182 C1.22464255,77.4763384 1.02337084,77.7210229 0.766989007,77.8133793 C0.541756371,77.8937414 0.257819485,77.8085816 0.000239609187,77.7965872 C0.0385770791,77.574692 0.0301907575,77.3276086 0.130826616,77.1404969 C0.23865075,76.9365931 0.439922467,76.7782678 0.617233265,76.6175437 C8.930474,69.0934947 17.2329323,61.5574513 25.5689359,54.0585904 C27.5241469,52.3002203 29.5847859,50.6593947 31.6166718,48.9861843 C31.9521247,48.7091151 32.168971,48.4404419 31.98567,48.0182412 C31.5783343,47.0742867 31.6346425,46.1531214 32.0743254,45.2439505 C32.2672107,44.8481373 32.2336655,44.5074981 31.8994106,44.2100385 C31.0559863,43.4591928 30.7948123,42.4384746 30.6330761,41.386571 C29.0756164,31.2885368 27.5301371,21.1905026 25.9738755,11.0924683 C25.4982512,8.01232202 24.9986661,4.93457457 24.5146555,1.85442825 C24.4619415,1.52338448 24.3948509,1.18874242 24.4080294,0.857698656 C24.4140196,0.710168283 24.5745578,0.484674705 24.7063429,0.448691688 C24.840524,0.41270867 25.1112824,0.524256025 25.1735808,0.646598285 C25.3425052,0.986038086 25.4575177,1.3578626 25.5545594,1.72608882 C28.5916058,13.1734862 31.6370386,24.6184847 34.6441339,36.0742781 C35.2144037,38.2416552 35.6313237,40.4486137 36.1392952,42.7263387" id="Fill-1" fill="#FFFFFF" mask="url(#mask-8)"></path>
                    </g>
                    <path d="M38.1692642,89.9160275 C38.2639099,97.5876068 38.3573574,105.260386 38.4543992,112.931965 C38.5262819,118.589695 38.6125412,124.248624 38.6688494,129.906354 C38.6760377,130.714772 38.7227615,131.430834 39.5649877,131.838642 C40.0609788,132.077329 40.1268713,132.54271 40.1352576,133.056067 C40.2131306,137.94616 40.2933997,142.836252 40.407214,147.726344 C40.433571,148.832222 39.9651351,149.573472 38.9995101,150.005268 C36.9065238,150.937228 34.9093812,150.69974 33.0056863,149.45113 C32.4737539,149.100895 32.2497193,148.629518 32.2533134,147.999815 C32.2820665,143.012568 32.295245,138.024123 32.3335825,133.035677 C32.3359786,132.726223 32.4042672,132.293227 32.607935,132.133703 C33.2872271,131.603553 33.2524837,130.906682 33.2560779,130.181024 C33.286029,125.52962 33.3399411,120.878215 33.3567137,116.228009 C33.4321906,96.1830697 33.495687,76.13813 33.5687678,56.0931902 C33.5771542,54.0337621 33.623878,51.9743341 33.6550272,49.9161055 C33.6586213,49.6762187 33.6741959,49.4363319 33.6981568,49.1976446 C33.8167634,47.9922135 34.2264951,47.7787142 35.423343,47.6407793 C37.0766463,47.6935544 37.7235911,47.9658259 37.7355716,49.9316981 C37.7763052,57.1223045 37.8050583,64.3129109 37.8793371,71.5023178 C37.9428336,77.6410207 38.0602421,83.7785241 38.1536896,89.9160275 L38.1692642,89.9160275 Z" id="Fill-4" fill="#FFFFFF"></path>
                </g>
                <g id="Page-1-Copy-2" style="mix-blend-mode: screen;" transform="translate(255.248070, 12.311000)">
                    <g id="Group-3" transform="translate(0.000000, 0.100752)">
                        <mask id="mask-10" fill="white">
                            <use xlink:href="#path-9"></use>
                        </mask>
                        <g id="Clip-2"></g>
                        <path d="M36.1392952,42.7263387 C37.1624264,42.7047489 38.0142371,43.2492919 38.6695682,44.1392719 C38.9403266,44.5062986 39.2266596,44.7629775 39.7478096,44.6514301 C40.9039239,44.4031473 41.9042922,44.8985135 42.8950762,45.3938797 C52.2398345,50.0560794 61.5833947,54.7218774 70.9305491,59.3804787 C73.4164944,60.6206934 75.9132222,61.8393183 78.4063557,63.0663392 C78.5776763,63.151499 78.7993148,63.1886815 78.9155253,63.3206192 C79.1120048,63.5437139 79.2437899,63.8267803 79.4019319,64.0846586 C79.1024204,64.1194422 78.7969187,64.2058014 78.5033975,64.1782144 C78.2254508,64.1530263 77.9546924,64.0162909 77.6863301,63.9167379 C66.9146992,59.9070302 56.1406721,55.9045192 45.3774274,51.8756207 C43.4533656,51.1559603 41.5628491,50.345143 39.6759268,49.5295279 C39.263799,49.3508123 38.9942387,49.2968377 38.6815487,49.6590668 C38.0933081,50.3427441 37.3097861,50.6845828 36.4388067,50.8381103 C36.0470457,50.9064781 35.6960182,50.980843 35.5822038,51.4558188 C35.3186337,52.5628963 34.4883879,53.2405765 33.6365772,53.8618833 C25.1580062,60.0425663 16.6674546,66.2088561 8.18409138,72.3823425 C5.93655721,74.0171709 3.69860741,75.6627943 1.45706346,77.3072182 C1.22464255,77.4763384 1.02337084,77.7210229 0.766989007,77.8133793 C0.541756371,77.8937414 0.257819485,77.8085816 0.000239609187,77.7965872 C0.0385770791,77.574692 0.0301907575,77.3276086 0.130826616,77.1404969 C0.23865075,76.9365931 0.439922467,76.7782678 0.617233265,76.6175437 C8.930474,69.0934947 17.2329323,61.5574513 25.5689359,54.0585904 C27.5241469,52.3002203 29.5847859,50.6593947 31.6166718,48.9861843 C31.9521247,48.7091151 32.168971,48.4404419 31.98567,48.0182412 C31.5783343,47.0742867 31.6346425,46.1531214 32.0743254,45.2439505 C32.2672107,44.8481373 32.2336655,44.5074981 31.8994106,44.2100385 C31.0559863,43.4591928 30.7948123,42.4384746 30.6330761,41.386571 C29.0756164,31.2885368 27.5301371,21.1905026 25.9738755,11.0924683 C25.4982512,8.01232202 24.9986661,4.93457457 24.5146555,1.85442825 C24.4619415,1.52338448 24.3948509,1.18874242 24.4080294,0.857698656 C24.4140196,0.710168283 24.5745578,0.484674705 24.7063429,0.448691688 C24.840524,0.41270867 25.1112824,0.524256025 25.1735808,0.646598285 C25.3425052,0.986038086 25.4575177,1.3578626 25.5545594,1.72608882 C28.5916058,13.1734862 31.6370386,24.6184847 34.6441339,36.0742781 C35.2144037,38.2416552 35.6313237,40.4486137 36.1392952,42.7263387" id="Fill-1" fill="#FFFFFF" mask="url(#mask-10)"></path>
                    </g>
                    <path d="M38.1692642,89.9160275 C38.2639099,97.5876068 38.3573574,105.260386 38.4543992,112.931965 C38.5262819,118.589695 38.6125412,124.248624 38.6688494,129.906354 C38.6760377,130.714772 38.7227615,131.430834 39.5649877,131.838642 C40.0609788,132.077329 40.1268713,132.54271 40.1352576,133.056067 C40.2131306,137.94616 40.2933997,142.836252 40.407214,147.726344 C40.433571,148.832222 39.9651351,149.573472 38.9995101,150.005268 C36.9065238,150.937228 34.9093812,150.69974 33.0056863,149.45113 C32.4737539,149.100895 32.2497193,148.629518 32.2533134,147.999815 C32.2820665,143.012568 32.295245,138.024123 32.3335825,133.035677 C32.3359786,132.726223 32.4042672,132.293227 32.607935,132.133703 C33.2872271,131.603553 33.2524837,130.906682 33.2560779,130.181024 C33.286029,125.52962 33.3399411,120.878215 33.3567137,116.228009 C33.4321906,96.1830697 33.495687,76.13813 33.5687678,56.0931902 C33.5771542,54.0337621 33.623878,51.9743341 33.6550272,49.9161055 C33.6586213,49.6762187 33.6741959,49.4363319 33.6981568,49.1976446 C33.8167634,47.9922135 34.2264951,47.7787142 35.423343,47.6407793 C37.0766463,47.6935544 37.7235911,47.9658259 37.7355716,49.9316981 C37.7763052,57.1223045 37.8050583,64.3129109 37.8793371,71.5023178 C37.9428336,77.6410207 38.0602421,83.7785241 38.1536896,89.9160275 L38.1692642,89.9160275 Z" id="Fill-4" fill="#FFFFFF"></path>
                </g>
                <g id="Page-1-Copy-5" style="mix-blend-mode: screen;" transform="translate(26.719115, 54.989134)">
                    <g id="Group-3" transform="translate(0.000000, 0.065390)">
                        <mask id="mask-12" fill="white">
                            <use xlink:href="#path-11"></use>
                        </mask>
                        <g id="Clip-2"></g>
                        <path d="M24.1759423,27.7301058 C24.8603818,27.7160937 25.4302138,28.0695111 25.8686077,28.647123 C26.0497357,28.8853295 26.2412826,29.0519183 26.589914,28.9795222 C27.3633146,28.8183825 28.0325265,29.1398835 28.6953269,29.4613844 C34.9466479,32.4872297 41.1971675,35.5154103 47.4500915,38.5389202 C49.1131032,39.3438402 50.7833279,40.1347481 52.4511483,40.9311051 C52.5657559,40.9863752 52.7140244,41.0105072 52.7917652,41.096137 C52.9232032,41.2409292 53.0113629,41.424644 53.1171545,41.5920113 C52.9167916,41.6145865 52.7124215,41.6706351 52.5160659,41.6527306 C52.3301292,41.6363831 52.1490011,41.5476395 51.969476,41.483028 C44.7636263,38.8806609 37.5561737,36.2829646 30.3559342,33.6681423 C29.0688032,33.2010707 27.8041129,32.6748368 26.5418269,32.145489 C26.2661276,32.0294995 26.085801,31.9944692 25.8766222,32.2295619 C25.4831096,32.6732798 24.9589603,32.8951388 24.3763052,32.9947808 C24.1142305,33.0391526 23.8794053,33.0874166 23.8032674,33.3956839 C23.6269481,34.1141956 23.0715423,34.5540213 22.5017103,34.9572598 C16.8298386,38.9686261 11.1499524,42.9706509 5.47487493,46.9773465 C3.97135207,48.0383774 2.47424082,49.1064143 0.974725214,50.1736729 C0.819243639,50.2834347 0.684599801,50.442239 0.513089198,50.5021799 C0.362416331,50.5543362 0.172472345,50.499066 0.000160290284,50.4912815 C0.0258067357,50.3472678 0.0201965757,50.1869066 0.0875184948,50.0654679 C0.159649122,49.933131 0.294292961,49.8303753 0.41290777,49.7260626 C5.97417916,44.8428294 11.5282375,39.9518117 17.1047364,35.084926 C18.4127052,33.9437145 19.7912016,32.8787913 21.1504632,31.79285 C21.3748696,31.6130274 21.5199323,31.438654 21.3973102,31.1646387 C21.1248168,30.5519965 21.162485,29.9541449 21.4566176,29.3640778 C21.5856513,29.1071885 21.5632107,28.8861079 21.3396057,28.6930517 C20.7753839,28.2057403 20.6006675,27.5432772 20.4924716,26.8605742 C19.4505847,20.3067818 18.4167124,13.7529893 17.375627,7.1991968 C17.0574508,5.20013051 16.7232456,3.20262113 16.3994592,1.20355484 C16.3641953,0.988701916 16.3193141,0.77151364 16.32813,0.556660721 C16.3321373,0.46091105 16.4395318,0.31456196 16.5276914,0.291208382 C16.617454,0.267854804 16.798582,0.340250896 16.8402575,0.419653062 C16.9532621,0.639955149 17.0302015,0.881275457 17.095119,1.12026041 C19.1267984,8.54981207 21.1640879,15.9778068 23.1757309,23.4128077 C23.5572218,24.8194715 23.8361269,26.2518243 24.1759423,27.7301058" id="Fill-1" fill="#FFFFFF" mask="url(#mask-12)"></path>
                    </g>
                    <path d="M25.5339216,58.3570002 C25.5972363,63.335983 25.6597495,68.3157444 25.724667,73.2947272 C25.7727541,76.9666882 25.8304586,80.6394275 25.8681268,84.3113885 C25.8729355,84.8360655 25.9041921,85.3008017 26.4676125,85.5654756 C26.7994134,85.7203877 26.8434932,86.0224273 26.8491034,86.355605 C26.9011977,89.5293563 26.954895,92.7031076 27.0310328,95.8768588 C27.0486648,96.5945921 26.7352973,97.0756759 26.0893274,97.3559188 C24.6891918,97.9607765 23.3531723,97.8066428 22.079666,96.9962737 C21.7238216,96.7689655 21.5739501,96.4630337 21.5763545,96.054346 C21.5955893,92.8175401 21.6044053,89.5799557 21.6300517,86.3423713 C21.6316546,86.1415306 21.6773374,85.8605092 21.8135841,85.756975 C22.2680071,85.4128989 22.244765,84.960618 22.2471693,84.4896541 C22.2672056,81.4708149 22.3032709,78.4519757 22.3144912,75.433915 C22.3649827,62.424415 22.4074596,49.4149151 22.4563481,36.4054152 C22.4619583,35.068812 22.4932149,33.7322089 22.5140526,32.3963843 C22.516457,32.2406937 22.5268759,32.0850032 22.5429049,31.9300911 C22.6222486,31.1477463 22.896345,31.0091817 23.6969949,30.9196597 C24.8029979,30.9539116 25.2357817,31.1306203 25.2437962,32.4065041 C25.2710455,37.0733275 25.2902804,41.7401509 25.3399703,46.4061958 C25.3824473,50.3903162 25.4609895,54.3736582 25.5235027,58.3570002 L25.5339216,58.3570002 Z" id="Fill-4" fill="#FFFFFF"></path>
                </g>
                <g id="Page-1" style="mix-blend-mode: screen;" transform="translate(89.459934, 0.000000)">
                    <g id="Group-3" transform="translate(0.000000, 0.563783)">
                        <mask id="mask-14" fill="white">
                            <use xlink:href="#path-13"></use>
                        </mask>
                        <g id="Clip-2"></g>
                        <path d="M35.7245322,38.8318366 C36.8003084,38.2392152 38.0082227,38.3430321 39.1974653,38.9255602 C39.6886742,39.1663577 40.1353583,39.2817098 40.6265672,38.8722098 C41.7181426,37.9623702 43.0553224,37.9320903 44.3824482,37.907578 C56.896785,37.6638967 69.4125582,37.425983 81.9283313,37.1794179 C85.2576361,37.1145323 88.5869409,37.0208088 91.9162457,36.9400623 C92.1446148,36.9342947 92.4017095,36.8492225 92.597044,36.9256433 C92.9302617,37.0539725 93.2261361,37.2817929 93.5392459,37.4677981 C93.2390627,37.6725481 92.9632963,37.9335322 92.6358237,38.0690709 C92.3255865,38.1974001 91.9622068,38.2017258 91.6218076,38.2449828 C77.9541352,39.978148 64.2878992,41.7214065 50.6159179,43.4300594 C48.1728,43.7357424 45.7138829,43.9260734 43.2578383,44.1091948 C42.7192321,44.1481261 42.4018135,44.2404078 42.272548,44.7998654 C42.0269435,45.856779 41.3820523,46.658476 40.5418265,47.3073315 C40.164084,47.6000375 39.8323025,47.8739987 39.9759309,48.4421077 C40.3091486,49.7686568 39.8035769,50.9538995 39.2434264,52.0915595 C33.6620293,63.4032741 28.0633968,74.7048952 22.4719457,86.0137259 C20.9925738,89.0071127 19.5275648,92.0105928 18.0568107,95.0097472 C17.9060009,95.319756 17.8284416,95.6932084 17.6058177,95.9354477 C17.4119194,96.1459653 17.0614663,96.2122928 16.781391,96.3435058 C16.6995229,96.0854055 16.553022,95.8273052 16.5558946,95.5720887 C16.5587671,95.2938017 16.6837238,95.012631 16.7828273,94.7429955 C21.4421305,82.0931967 26.082762,69.4361885 30.7808449,56.7993668 C31.8824742,53.834818 33.1636389,50.9380386 34.3916612,48.0239564 C34.5956134,47.5409195 34.6760453,47.1328615 34.2494692,46.7853633 C33.2929044,46.0067367 32.8404752,44.9930802 32.8045681,43.7804413 C32.7873327,43.2512636 32.5647088,42.9080911 32.0433379,42.7768781 C30.7291387,42.4466828 29.8889129,41.5051213 29.1319916,40.474162 C21.8758881,30.584162 14.6312749,20.6869526 7.37804395,10.7969526 C5.1647313,7.77905348 2.92700184,4.77989909 0.70219893,1.7677676 C0.463775894,1.44478174 0.206681174,1.12467968 0.0371997388,0.765646299 C-0.0389232788,0.605595272 0.00703778842,0.273958008 0.12768559,0.16293162 C0.251205958,0.05046333 0.600222812,0.0187415047 0.733797164,0.11390698 C1.1014857,0.380658693 1.42895831,0.712295957 1.73775923,1.05114273 C11.3134603,11.5553926 20.8977791,22.050991 30.4461908,32.5783113 C32.2544716,34.5695768 33.9219966,36.6891715 35.7245322,38.8318366" id="Fill-1" fill="#FFFFFF" mask="url(#mask-14)"></path>
                    </g>
                    <g id="Group-6" transform="translate(33.034517, 43.000084)" fill="#FFFFFF">
                        <path d="M7.47858378,51.0835297 C7.59205016,60.3059294 7.70408027,69.531213 7.82041922,78.7536127 C7.90659622,85.5550604 8.00857234,92.35795 8.07607765,99.1593977 C8.08613164,100.131239 8.14214669,100.992054 9.15185388,101.480859 C9.74647519,101.769239 9.82403449,102.328696 9.83408848,102.944388 C9.92744689,108.824461 10.0251142,114.703092 10.1615611,120.581723 C10.1931593,121.909714 9.63157252,122.802251 8.47249186,123.321335 C5.96330484,124.441692 3.5690205,124.156196 1.28820254,122.655177 C0.65049273,122.234142 0.38047146,121.667475 0.38478031,120.910477 C0.41925111,114.915052 0.43648651,108.916743 0.481011294,102.921318 C0.483883861,102.549307 0.565752012,102.028781 0.811356465,101.835566 C1.62572912,101.199688 1.58407691,100.361943 1.58838576,99.4895931 C1.62429284,93.8979004 1.68892559,88.3062078 1.70759728,82.7145151 C1.79951941,58.6189051 1.87564243,34.5218531 1.96325571,10.4248011 C1.97187341,7.94905684 2.02788846,5.47331257 2.06523183,2.9990102 C2.06954068,2.71062997 2.08821236,2.42224974 2.11837431,2.13531141 C2.26056637,0.686200756 2.75177527,0.429542352 4.18662234,0.26372372 C6.16869336,0.32716737 6.94428637,0.654478931 6.95864921,3.01775491 C7.00748284,11.6605104 7.04195364,20.3061497 7.13100321,28.9489052 C7.20712623,36.3285552 7.347882,43.7067634 7.4599121,51.0835297 L7.47858378,51.0835297 Z" id="Fill-4"></path>
                    </g>
                </g>
                <g id="Page-1-Copy-3" style="mix-blend-mode: screen;" transform="translate(215.852869, 0.000000)">
                    <g id="Group-3" transform="translate(0.000000, 0.563783)">
                        <mask id="mask-16" fill="white">
                            <use xlink:href="#path-15"></use>
                        </mask>
                        <g id="Clip-2"></g>
                        <path d="M35.7245322,38.8318366 C36.8003084,38.2392152 38.0082227,38.3430321 39.1974653,38.9255602 C39.6886742,39.1663577 40.1353583,39.2817098 40.6265672,38.8722098 C41.7181426,37.9623702 43.0553224,37.9320903 44.3824482,37.907578 C56.896785,37.6638967 69.4125582,37.425983 81.9283313,37.1794179 C85.2576361,37.1145323 88.5869409,37.0208088 91.9162457,36.9400623 C92.1446148,36.9342947 92.4017095,36.8492225 92.597044,36.9256433 C92.9302617,37.0539725 93.2261361,37.2817929 93.5392459,37.4677981 C93.2390627,37.6725481 92.9632963,37.9335322 92.6358237,38.0690709 C92.3255865,38.1974001 91.9622068,38.2017258 91.6218076,38.2449828 C77.9541352,39.978148 64.2878992,41.7214065 50.6159179,43.4300594 C48.1728,43.7357424 45.7138829,43.9260734 43.2578383,44.1091948 C42.7192321,44.1481261 42.4018135,44.2404078 42.272548,44.7998654 C42.0269435,45.856779 41.3820523,46.658476 40.5418265,47.3073315 C40.164084,47.6000375 39.8323025,47.8739987 39.9759309,48.4421077 C40.3091486,49.7686568 39.8035769,50.9538995 39.2434264,52.0915595 C33.6620293,63.4032741 28.0633968,74.7048952 22.4719457,86.0137259 C20.9925738,89.0071127 19.5275648,92.0105928 18.0568107,95.0097472 C17.9060009,95.319756 17.8284416,95.6932084 17.6058177,95.9354477 C17.4119194,96.1459653 17.0614663,96.2122928 16.781391,96.3435058 C16.6995229,96.0854055 16.553022,95.8273052 16.5558946,95.5720887 C16.5587671,95.2938017 16.6837238,95.012631 16.7828273,94.7429955 C21.4421305,82.0931967 26.082762,69.4361885 30.7808449,56.7993668 C31.8824742,53.834818 33.1636389,50.9380386 34.3916612,48.0239564 C34.5956134,47.5409195 34.6760453,47.1328615 34.2494692,46.7853633 C33.2929044,46.0067367 32.8404752,44.9930802 32.8045681,43.7804413 C32.7873327,43.2512636 32.5647088,42.9080911 32.0433379,42.7768781 C30.7291387,42.4466828 29.8889129,41.5051213 29.1319916,40.474162 C21.8758881,30.584162 14.6312749,20.6869526 7.37804395,10.7969526 C5.1647313,7.77905348 2.92700184,4.77989909 0.70219893,1.7677676 C0.463775894,1.44478174 0.206681174,1.12467968 0.0371997388,0.765646299 C-0.0389232788,0.605595272 0.00703778842,0.273958008 0.12768559,0.16293162 C0.251205958,0.05046333 0.600222812,0.0187415047 0.733797164,0.11390698 C1.1014857,0.380658693 1.42895831,0.712295957 1.73775923,1.05114273 C11.3134603,11.5553926 20.8977791,22.050991 30.4461908,32.5783113 C32.2544716,34.5695768 33.9219966,36.6891715 35.7245322,38.8318366" id="Fill-1" fill="#FFFFFF" mask="url(#mask-16)"></path>
                    </g>
                    <g id="Group-6" transform="translate(33.034517, 43.000084)" fill="#FFFFFF">
                        <path d="M7.47858378,51.0835297 C7.59205016,60.3059294 7.70408027,69.531213 7.82041922,78.7536127 C7.90659622,85.5550604 8.00857234,92.35795 8.07607765,99.1593977 C8.08613164,100.131239 8.14214669,100.992054 9.15185388,101.480859 C9.74647519,101.769239 9.82403449,102.328696 9.83408848,102.944388 C9.92744689,108.824461 10.0251142,114.703092 10.1615611,120.581723 C10.1931593,121.909714 9.63157252,122.802251 8.47249186,123.321335 C5.96330484,124.441692 3.5690205,124.156196 1.28820254,122.655177 C0.65049273,122.234142 0.38047146,121.667475 0.38478031,120.910477 C0.41925111,114.915052 0.43648651,108.916743 0.481011294,102.921318 C0.483883861,102.549307 0.565752012,102.028781 0.811356465,101.835566 C1.62572912,101.199688 1.58407691,100.361943 1.58838576,99.4895931 C1.62429284,93.8979004 1.68892559,88.3062078 1.70759728,82.7145151 C1.79951941,58.6189051 1.87564243,34.5218531 1.96325571,10.4248011 C1.97187341,7.94905684 2.02788846,5.47331257 2.06523183,2.9990102 C2.06954068,2.71062997 2.08821236,2.42224974 2.11837431,2.13531141 C2.26056637,0.686200756 2.75177527,0.429542352 4.18662234,0.26372372 C6.16869336,0.32716737 6.94428637,0.654478931 6.95864921,3.01775491 C7.00748284,11.6605104 7.04195364,20.3061497 7.13100321,28.9489052 C7.20712623,36.3285552 7.347882,43.7067634 7.4599121,51.0835297 L7.47858378,51.0835297 Z" id="Fill-4"></path>
                    </g>
                </g>
                <g id="Page-1-Copy-6" style="mix-blend-mode: screen;" transform="translate(0.455649, 47.602534)">
                    <g id="Group-3" transform="translate(0.000000, 0.365905)">
                        <mask id="mask-18" fill="white">
                            <use xlink:href="#path-17"></use>
                        </mask>
                        <g id="Clip-2"></g>
                        <path d="M23.8984801,25.202509 C24.6181373,24.8178879 25.4261903,24.8852668 26.2217527,25.2633372 C26.5503545,25.4196188 26.8491707,25.4944842 27.1777726,25.2287119 C27.9079988,24.6382109 28.802526,24.6185587 29.6903274,24.6026498 C38.0619872,24.4444966 46.4346079,24.2900866 54.8072285,24.1300618 C57.0344186,24.08795 59.2616087,24.0271218 61.4887988,23.974716 C61.6415699,23.9709727 61.8135574,23.9157595 61.9442294,23.9653578 C62.1671406,24.0486456 62.3650704,24.1965048 62.57453,24.3172253 C62.3737178,24.4501115 62.1892396,24.6194945 61.9701717,24.7074614 C61.7626337,24.7907492 61.5195452,24.7935566 61.2918299,24.8216312 C52.1486284,25.9464843 43.0063877,27.0778881 33.8603037,28.1868322 C32.225942,28.3852256 30.5810113,28.5087536 28.9380022,28.6276025 C28.5776932,28.6528695 28.3653511,28.7127619 28.2788769,29.0758592 C28.114576,29.7618137 27.683166,30.2821285 27.1210839,30.7032465 C26.8683872,30.8932175 26.6464369,31.0710229 26.7425193,31.4397352 C26.9654305,32.3006876 26.6272204,33.0699299 26.252499,33.8082902 C22.5187368,41.1497814 18.7734447,48.4847219 15.0329568,55.8243415 C14.043308,57.7670994 13.0632675,59.716408 12.0793837,61.6629092 C11.9784972,61.86411 11.9266127,62.1064869 11.7776849,62.2637043 C11.6479737,62.4003337 11.4135326,62.4433813 11.2261719,62.5285407 C11.171405,62.3610293 11.0734009,62.1935179 11.0753226,62.0278782 C11.0772442,61.8472653 11.1608359,61.6647808 11.2271328,61.4897829 C14.3440459,53.2798527 17.4484684,45.0652434 20.5913238,36.8637356 C21.3282758,34.939694 22.1853309,33.0596359 23.0068354,31.168348 C23.1432724,30.854849 23.1970786,30.5900125 22.9117139,30.3644804 C22.271805,29.8591388 21.9691455,29.2012588 21.9451249,28.414236 C21.933595,28.0707908 21.7846673,27.8480662 21.4358881,27.7629067 C20.5567341,27.5486045 19.9946521,26.9375154 19.4882978,26.2684056 C14.6342148,19.8496308 9.78781836,13.4261769 4.93565698,7.00740215 C3.45502715,5.04873534 1.9580633,3.10223416 0.469746871,1.14731063 C0.310250081,0.937687425 0.138262579,0.729935857 0.0248853425,0.496917207 C-0.0260383313,0.393041423 0.00470803777,0.177803312 0.0854172567,0.105745336 C0.168048124,0.0327515421 0.401528364,0.0121635489 0.490884999,0.0739275285 C0.736855952,0.247053835 0.955923832,0.462291946 1.162501,0.682209146 C7.56831484,7.49964235 13.9798936,14.3114606 20.3674518,21.1438669 C21.5771293,22.4362314 22.692646,23.8118837 23.8984801,25.202509" id="Fill-1" fill="#FFFFFF" mask="url(#mask-18)"></path>
                    </g>
                    <g id="Group-6" transform="translate(22.098953, 27.907771)" fill="#FFFFFF">
                        <path d="M5.00291467,33.154062 C5.07881977,39.1395531 5.15376404,45.1269159 5.23159079,51.112407 C5.28924023,55.5266599 5.35745874,59.9418486 5.40261747,64.3561015 C5.40934323,64.9868428 5.44681537,65.545526 6.12227467,65.8627683 C6.52005582,66.0499319 6.57194032,66.4130292 6.57866608,66.8126234 C6.64111965,70.6288887 6.70645568,74.4442182 6.79773396,78.2595477 C6.81887209,79.1214359 6.44318989,79.7007072 5.6678049,80.0376016 C3.98924531,80.7647321 2.38755164,80.5794402 0.861763077,79.6052538 C0.435157205,79.3319949 0.254522287,78.9642185 0.257404759,78.4729141 C0.280464536,74.5817834 0.291994424,70.6887811 0.321779969,66.7976504 C0.323701617,66.5562093 0.378468587,66.2183791 0.542769497,66.0929795 C1.08755672,65.6802838 1.05969283,65.1365736 1.0625753,64.5704038 C1.0865959,60.9413021 1.12983298,57.3122004 1.14232369,53.6830987 C1.20381643,38.0446462 1.25474011,22.4052579 1.31335037,6.76586964 C1.31911532,5.15907035 1.35658745,3.55227106 1.38156888,1.94640759 C1.38445135,1.75924402 1.39694206,1.57208044 1.41711937,1.38585269 C1.51224095,0.445355726 1.84084277,0.278780144 2.80070598,0.171161089 C4.12664315,0.212337075 4.64548813,0.424767732 4.65509637,1.95857323 C4.68776438,7.56786555 4.71082416,13.1790295 4.77039525,18.7883218 C4.82131892,23.5778377 4.91547968,28.3664178 4.99042395,33.154062 L5.00291467,33.154062 Z" id="Fill-4"></path>
                    </g>
                </g>
            </g>
        </g>
    </g>
</svg>