<?xml version="1.0" encoding="UTF-8" standalone="no"?>
<svg width="1441px" height="726px" viewBox="0 0 1441 726" version="1.1" xmlns="http://www.w3.org/2000/svg" xmlns:xlink="http://www.w3.org/1999/xlink">
    <!-- Generator: Sketch 45.2 (43514) - http://www.bohemiancoding.com/sketch -->
    <title>Group 20</title>
    <desc>Created with Sketch.</desc>
    <defs>
        <linearGradient x1="38.5068208%" y1="0%" x2="38.5068208%" y2="104.629647%" id="linearGradient-1">
            <stop stop-color="#ADDA87" offset="0%"></stop>
            <stop stop-color="#84AF5F" offset="100%"></stop>
        </linearGradient>
        <polygon id="path-2" points="15.6915019 14.1678977 0.120799516 14.1678977 0.120799516 0.431817537 15.6915019 0.431817537"></polygon>
        <polygon id="path-4" points="0.106587809 51.7788483 0.106587809 0.519251666 314.538847 0.519251666 314.538847 26.14905 314.538847 51.7788483 0.106587809 51.7788483"></polygon>
        <polygon id="path-6" points="0.0159315478 11.8589229 0.0159315478 0.497839226 8.54295624 6.17570452"></polygon>
    </defs>
    <g id="Energy" stroke="none" stroke-width="1" fill="none" fill-rule="evenodd">
        <g id="Group-20">
            <path d="M0,0 L0,725.842369 L1052.74873,502.457897 L1052.74873,502.457897 C1078.64944,496.961984 1105.67258,501.962334 1127.89176,516.362329 L1440.96576,719.26199 L1440.96576,0 L0,0 Z" id="Path-2" fill="url(#linearGradient-1)"></path>
            <g id="GWE_Logo_4c" transform="translate(564.000000, 342.000000)">
                <g transform="translate(157.500000, 38.000000) rotate(-360.000000) translate(-157.500000, -38.000000) ">
                    <path d="M258.99594,69.7884945 C260.296311,69.7884945 261.225401,69.2424773 261.795646,68.1611491 L263.378475,68.1611491 C263.0445,69.0354904 262.511561,69.747454 261.784987,70.2916869 C261.06019,70.8341353 260.118665,71.1071439 258.978175,71.1071439 C257.523252,71.1071439 256.33835,70.6182266 255.425248,69.6528824 C254.538793,68.7089507 254.096454,67.524129 254.096454,66.1019861 C254.096454,64.669137 254.517475,63.4878841 255.366625,62.5528742 C256.269068,61.5875301 257.439758,61.1003971 258.882246,61.1003971 C260.322958,61.1003971 261.493647,61.5875301 262.394314,62.5528742 C263.241687,63.4878841 263.666262,64.669137 263.666262,66.1019861 L263.666262,66.6836907 L255.583353,66.6836907 C255.684612,67.5758757 256.038128,68.3110362 256.640349,68.8963095 C257.260335,69.4887204 258.043755,69.7884945 258.99594,69.7884945 M258.882246,62.4172621 C257.994014,62.4172621 257.246123,62.6991926 256.640349,63.2541316 C256.075434,63.7840895 255.729023,64.4746407 255.601118,65.3275696 L262.161598,65.3275696 C262.033692,64.4746407 261.687282,63.7840895 261.12059,63.2541316 C260.514816,62.6991926 259.768701,62.4172621 258.882246,62.4172621" id="Fill-1" fill="#FFFFFF"></path>
                    <path d="M267.171225,61.2574216 L267.171225,62.7652143 C267.517635,62.3030624 267.943986,61.9087167 268.444949,61.5875301 C268.945912,61.2645591 269.516156,61.1003971 270.166342,61.1003971 C270.807645,61.1003971 271.360126,61.1913999 271.822006,61.3716213 C272.28744,61.553627 272.690697,61.8248513 273.038884,62.1870784 C273.836516,62.9739855 274.23622,64.0160576 274.23622,65.3079415 L274.23622,70.9501194 L272.788402,70.9501194 L272.788402,65.348982 C272.788402,64.4532283 272.539697,63.7448334 272.031629,63.2148755 C271.530666,62.6813489 270.884033,62.4172621 270.086401,62.4172621 C269.276334,62.4172621 268.587066,62.6884863 268.020374,63.2327192 C267.453682,63.791227 267.171225,64.5014063 267.171225,65.3668257 L267.171225,70.9501194 L265.723407,70.9501194 L265.723407,61.2574216 L267.171225,61.2574216" id="Fill-2" fill="#FFFFFF"></path>
                    <path d="M281.178639,69.7884945 C282.47901,69.7884945 283.41343,69.2424773 283.980122,68.1611491 L285.561175,68.1611491 C285.227199,69.0354904 284.692484,69.747454 283.967687,70.2916869 C283.239337,70.8341353 282.304917,71.1071439 281.160875,71.1071439 C279.707727,71.1071439 278.522826,70.6182266 277.607948,69.6528824 C276.719716,68.7089507 276.277376,67.524129 276.277376,66.1019861 C276.277376,64.669137 276.698398,63.4878841 277.551101,62.5528742 C278.451768,61.5875301 279.624234,61.1003971 281.063169,61.1003971 C282.503881,61.1003971 283.672794,61.5875301 284.577014,62.5528742 C285.42261,63.4878841 285.854291,64.669137 285.854291,66.1019861 L285.854291,66.6836907 L277.764276,66.6836907 C277.867311,67.5758757 278.220828,68.3110362 278.824825,68.8963095 C279.441258,69.4887204 280.226455,69.7884945 281.178639,69.7884945 M281.063169,62.4172621 C280.174937,62.4172621 279.428823,62.6991926 278.824825,63.2541316 C278.256357,63.7840895 277.911723,64.4746407 277.782041,65.3275696 L284.342521,65.3275696 C284.216392,64.4746407 283.868205,63.7840895 283.30329,63.2541316 C282.697515,62.6991926 281.949624,62.4172621 281.063169,62.4172621" id="Fill-3" fill="#FFFFFF"></path>
                    <g id="Group-7" transform="translate(287.787083, 60.668580)">
                        <mask id="mask-3" fill="white">
                            <use xlink:href="#path-2"></use>
                        </mask>
                        <g id="Clip-5"></g>
                        <path d="M5.21392031,0.431817537 L5.21392031,1.88429471 L5.03982689,1.88429471 C3.99704282,1.88429471 3.14966975,2.30540602 2.49593119,3.14584429 C1.87594543,3.94881078 1.56684079,4.90344872 1.56684079,6.01511122 L1.56684079,10.2815399 L0.120799516,10.2815399 L0.120799516,0.588842095 L1.56684079,0.588842095 L1.56684079,2.97454477 C1.87594543,1.96459135 2.5438957,1.2187247 3.57424452,0.740513544 C3.99704282,0.535310996 4.51221723,0.431817537 5.11799128,0.431817537 L5.21392031,0.431817537" id="Fill-4" fill="#FFFFFF" mask="url(#mask-3)"></path>
                        <path d="M14.2472371,2.13945961 L14.2472371,0.588842095 L15.6915019,0.588842095 L15.6915019,9.99247192 C15.6915019,11.3860649 15.2989035,12.4495494 14.5048243,13.1847098 C13.714298,13.909164 12.6501964,14.2749599 11.3125194,14.2749599 C9.97306596,14.2749599 8.92850544,14.0162262 8.17350846,13.4969746 C7.42206441,12.9812916 6.91044293,12.2996623 6.64219694,11.4449491 L8.24279054,11.4449491 C8.6531536,12.4531181 9.59645571,12.9580948 11.0602616,12.9580948 C12.1794336,12.9580948 12.9930539,12.6993612 13.4940166,12.1801095 C13.9949793,11.6644266 14.2472371,10.9007162 14.2472371,9.89433157 L14.2472371,8.55605408 C13.4602638,9.70518835 12.307339,10.2851086 10.7902392,10.2851086 C9.40104472,10.2851086 8.26766102,9.8033287 7.39541746,8.84869076 C6.54271499,7.91368089 6.12169314,6.7538404 6.12169314,5.36024744 C6.12169314,3.96308574 6.54271499,2.79789214 7.39541746,1.86645101 C8.26766102,0.908244323 9.43657399,0.431817537 10.8950505,0.431817537 C12.3570799,0.431817537 13.472699,0.999247192 14.2472371,2.13945961 M10.9838737,8.96289044 C11.5097069,8.96289044 11.9804697,8.8701032 12.3908328,8.68452872 C12.8047487,8.49716987 13.1600414,8.23843623 13.4531579,7.91368089 C14.032285,7.24275777 14.3271779,6.39161329 14.3271779,5.36024744 C14.3271779,4.32531285 14.032285,3.47059962 13.4531579,2.79789214 C12.8242898,2.10020347 11.9964579,1.75225133 10.9838737,1.75225133 C9.94108962,1.75225133 9.10437532,2.10020347 8.47195432,2.79789214 C7.86973321,3.48130584 7.56595795,4.33601907 7.56595795,5.36024744 C7.56595795,6.38090707 7.86973321,7.23205155 8.47195432,7.91368089 C9.10437532,8.61493829 9.94108962,8.96289044 10.9838737,8.96289044" id="Fill-6" fill="#FFFFFF" mask="url(#mask-3)"></path>
                    </g>
                    <polyline id="Fill-8" fill="#FFFFFF" points="308.823964 74.7900836 307.260676 74.7900836 309.019375 70.8145073 305.080955 61.2574216 306.685102 61.2574216 309.792136 69.2067899 312.956018 61.2574216 314.538847 61.2574216 308.823964 74.7900836"></polyline>
                    <path d="M82.9928207,53.0778696 C80.1913378,53.0778696 77.2797142,52.5586179 74.0927387,51.4951334 L73.8919983,51.425543 L75.1763814,46.5078193 L75.3948864,46.5720566 C77.7931121,47.2304892 80.2748316,47.9121185 82.7707628,47.9121185 C85.5100695,47.9121185 91.882244,47.1002301 91.882244,39.6005231 L91.882244,27.0260678 C91.882244,20.757576 87.7199901,17.477904 83.6092536,17.477904 C77.3347846,17.477904 75.1088758,22.7096768 75.1088758,27.1937986 C75.1088758,32.1846814 78.7204261,35.669556 83.8863819,35.669556 C86.0749849,35.669556 88.133906,34.6346214 90.0364984,33.5122527 L90.3704736,33.3177564 L90.3704736,38.9492281 L90.2550034,39.011681 C88.2955642,40.0858717 85.653963,40.8388759 83.833088,40.8388759 C75.8016966,40.8388759 69.7457326,34.8505302 69.7457326,26.9154369 C69.7457326,18.4539544 75.6702383,12.3121529 83.833088,12.3121529 C92.2304308,12.3121529 97.2471637,19.2230179 97.2471637,25.9054835 L97.2471637,37.9178622 C97.2471637,47.2679609 91.786315,53.0778696 82.9928207,53.0778696" id="Fill-9" fill="#FFFFFF"></path>
                    <path d="M106.866713,40.2732306 L101.501794,40.2732306 L101.501794,12.8742294 L106.644655,12.8742294 L106.644655,15.6239436 C108.268343,13.3381656 110.499581,12.3121529 113.80025,12.3121529 L115.137927,12.3121529 L115.137927,17.477904 L114.191072,17.477904 C109.261386,17.477904 106.866713,20.7468698 106.866713,27.4721603 L106.866713,40.2732306" id="Fill-10" fill="#FFFFFF"></path>
                    <path d="M129.996268,40.8870539 C127.46836,40.8870539 124.890712,40.1697371 122.547557,38.8136159 C119.300181,36.9346743 116.953473,33.9512077 115.937336,30.4181552 C114.882117,26.7512748 115.395515,22.8274452 117.378048,19.3675518 C119.964579,14.849527 124.514102,12.153344 129.53794,12.153344 C132.039201,12.153344 134.52092,12.8242671 136.718406,14.0929541 C141.893244,17.087127 144.28614,21.8335511 143.827813,28.2055364 L143.813601,28.4143077 L122.654144,28.0895523 L122.885085,23.2253597 L123.101813,23.2324972 L137.965483,23.4412685 C137.365038,21.3250057 136.558524,19.9635314 134.151416,18.5681541 C132.763998,17.766972 131.307298,17.36192 129.822174,17.36192 C126.74001,17.36192 123.974057,19.1123869 122.220687,22.1690127 C120.934528,24.4101814 120.517059,26.8636901 121.055327,29.0727402 C121.58116,31.2621622 123.025425,33.1286132 125.110993,34.338416 C126.720469,35.2698571 128.200263,35.7230871 129.640975,35.7230871 C132.058742,35.7230871 134.341498,34.4115752 136.817888,31.5958393 L136.954675,31.4388148 L141.294576,34.7220556 L141.172,34.8969238 C138.57481,38.7047694 134.501379,40.8870539 129.996268,40.8870539" id="Fill-11" fill="#FFFFFF"></path>
                    <path d="M161.006214,40.8870539 C158.47653,40.8870539 155.897105,40.1697371 153.555727,38.8136159 C150.308351,36.9346743 147.961643,33.9512077 146.941953,30.4181552 C145.890287,26.7512748 146.403685,22.8274452 148.386218,19.3675518 C150.976302,14.849527 155.522272,12.153344 160.55144,12.153344 C163.050924,12.153344 165.530867,12.8242671 167.730129,14.0929541 C172.901414,17.087127 175.29431,21.8335511 174.837759,28.2055364 L174.819994,28.4143077 L153.662314,28.0895523 L153.893255,23.2253597 L154.11176,23.2324972 L168.977206,23.4412685 C168.374985,21.3250057 167.564918,19.9635314 165.161362,18.5681541 C163.772168,17.766972 162.319021,17.36192 160.832121,17.36192 C157.74818,17.36192 154.978674,19.1123869 153.228857,22.1690127 C151.940921,24.4101814 151.523452,26.8636901 152.063497,29.0727402 C152.591107,31.2621622 154.037148,33.1286132 156.124493,34.338416 C157.730416,35.2698571 159.211986,35.7230871 160.649145,35.7230871 C163.068688,35.7230871 165.351444,34.4115752 167.826058,31.5958393 L167.962845,31.4388148 L172.308075,34.7220556 L172.185499,34.8969238 C169.588309,38.7047694 165.513102,40.8870539 161.006214,40.8870539" id="Fill-12" fill="#FFFFFF"></path>
                    <path d="M201.639263,40.2732306 L196.274344,40.2732306 L196.274344,24.3298848 C196.274344,20.4845674 193.501284,17.477904 189.959016,17.477904 C186.416748,17.477904 183.641912,20.4845674 183.641912,24.3298848 L183.641912,40.2732306 L178.276992,40.2732306 L178.276992,24.3298848 C178.276992,17.2548578 183.078773,12.3121529 189.959016,12.3121529 C196.835706,12.3121529 201.639263,17.2548578 201.639263,24.3298848 L201.639263,40.2732306" id="Fill-13" fill="#FFFFFF"></path>
                    <path d="M232.952985,40.8388759 C229.751798,40.8388759 226.850833,39.4756172 225.125887,37.1755643 C223.399165,39.4756172 220.4982,40.8388759 217.300565,40.8388759 C211.784646,40.8388759 207.460734,36.6937844 207.460734,31.4049118 L207.460734,12.8742294 L212.823878,12.8742294 L212.823878,30.282543 C212.823878,33.5550776 214.625211,35.669556 217.40893,35.669556 C220.748681,35.669556 222.441651,33.5925494 222.441651,29.4938515 L222.441651,12.8742294 L227.8119,12.8742294 L227.8119,29.4938515 C227.8119,33.6514336 229.458682,35.669556 232.844621,35.669556 C235.624786,35.669556 237.42612,33.5550776 237.42612,30.282543 L237.42612,12.8742294 L242.79104,12.8742294 L242.79104,31.4049118 C242.79104,36.6937844 238.468904,40.8388759 232.952985,40.8388759" id="Fill-14" fill="#C0C0C0"></path>
                    <path d="M248.616064,40.2732306 L253.98276,40.2732306 L253.98276,12.8742294 L248.616064,12.8742294 L248.616064,40.2732306 Z M251.3003,10.2922461 C249.207626,10.2922461 248.111548,8.68095998 248.111548,7.08930195 C248.111548,5.50299704 249.207626,3.89349531 251.3003,3.89349531 C253.391198,3.89349531 254.483723,5.50299704 254.483723,7.08930195 C254.483723,8.68095998 253.391198,10.2922461 251.3003,10.2922461 L251.3003,10.2922461 Z" id="Fill-15" fill="#C0C0C0"></path>
                    <path d="M283.173608,40.2732306 L277.805135,40.2732306 L277.805135,24.3298848 C277.805135,20.4845674 275.032076,17.477904 271.489807,17.477904 C267.947539,17.477904 265.172703,20.4845674 265.172703,24.3298848 L265.172703,40.2732306 L259.806007,40.2732306 L259.806007,24.3298848 C259.806007,17.2548578 264.611341,12.3121529 271.489807,12.3121529 C278.37005,12.3121529 283.173608,17.2548578 283.173608,24.3298848 L283.173608,40.2732306" id="Fill-16" fill="#C0C0C0"></path>
                    <g id="Group-20">
                        <mask id="mask-5" fill="white">
                            <use xlink:href="#path-4"></use>
                        </mask>
                        <g id="Clip-18"></g>
                        <path d="M300.787243,40.8388759 C292.492935,40.8388759 286.696335,34.6970744 286.696335,25.9054835 C286.696335,18.4111295 292.588864,12.3121529 299.836835,12.3121529 C302.714706,12.3121529 305.310119,12.9652323 307.548463,14.2499787 L307.662157,14.3160004 L307.662157,20.0366906 L307.312193,19.7958006 C305.635212,18.6413132 302.936764,17.477904 300.675326,17.477904 C295.523582,17.477904 292.064807,21.1090969 292.064807,26.5175224 C292.064807,31.9098885 295.651487,35.669556 300.787243,35.669556 C305.880364,35.669556 309.173927,31.4388148 309.173927,24.8901769 L309.173927,0.519251666 L314.538847,0.519251666 L314.538847,25.7894994 C314.538847,34.6488964 308.882587,40.8388759 300.787243,40.8388759" id="Fill-17" fill="#C0C0C0" mask="url(#mask-5)"></path>
                        <path d="M48.9451217,41.008391 C48.9451217,46.9574806 44.1451174,51.7788483 38.2241646,51.7788483 L10.7227336,51.7788483 C4.80178078,51.7788483 0,46.9574806 0,41.008391 L0,13.3863436 C0,7.4372541 4.80178078,2.61767077 10.7227336,2.61767077 L38.2241646,2.61767077 C44.1451174,2.61767077 48.9451217,7.4372541 48.9451217,13.3863436 L48.9451217,41.008391" id="Fill-19" fill="#84AF5F" mask="url(#mask-5)"></path>
                    </g>
                    <polyline id="Fill-21" fill="#FFFFFE" points="21.6781838 30.0380843 21.6781838 41.399168 30.2052085 35.7195184 21.6781838 30.0380843"></polyline>
                    <polyline id="Fill-22" fill="#FFFFFE" points="30.2052085 24.360219 30.2052085 35.7230871 38.7322332 30.0380843 30.2052085 24.360219"></polyline>
                    <polyline id="Fill-23" fill="#FFFFFE" points="30.2052085 35.7248715 30.2052085 47.0913083 38.7322332 41.4098743 30.2052085 35.7248715"></polyline>
                    <g id="Group-26" transform="translate(13.135228, 12.490590)">
                        <mask id="mask-7" fill="white">
                            <use xlink:href="#path-6"></use>
                        </mask>
                        <g id="Clip-25"></g>
                        <polygon id="Fill-24" fill="#B1CA94" mask="url(#mask-7)" points="0.0159315478 11.8589229 8.54295624 11.8589229 8.54295624 0.497839226 0.0159315478 0.497839226"></polygon>
                    </g>
                    <polyline id="Fill-27" fill="#B1CA94" points="21.6781838 18.6698632 21.6781838 7.30521072 30.2052085 12.9884291 21.6781838 18.6698632"></polyline>
                    <polyline id="Fill-28" fill="#B1CA94" points="21.6781838 30.0380843 21.6781838 18.6770006 30.2052085 24.3566503 21.6781838 30.0380843"></polyline>
                    <polyline id="Fill-29" fill="#CBDAB1" points="4.62413443 41.399168 4.62413443 30.0380843 13.1511591 35.7195184 4.62413443 41.399168"></polyline>
                    <polyline id="Fill-30" fill="#CBDAB1" points="13.1511591 35.7230871 13.1511591 24.360219 21.6781838 30.0380843 13.1511591 35.7230871"></polyline>
                    <polyline id="Fill-31" fill="#CBDAB1" points="13.1511591 47.0913083 13.1511591 35.7248715 21.6781838 41.4098743 13.1511591 47.0913083"></polyline>
                </g>
            </g>
        </g>
    </g>
</svg>