<?xml version="1.0" encoding="UTF-8"?>
<svg width="236px" height="127px" viewBox="0 0 236 127" version="1.1" xmlns="http://www.w3.org/2000/svg" xmlns:xlink="http://www.w3.org/1999/xlink">
    <!-- Generator: Sketch 55.2 (78181) - https://sketchapp.com -->
    <title>Group 6</title>
    <desc>Created with Sketch.</desc>
    <defs>
        <rect id="path-1" x="2.28971199" y="3.75813294" width="215" height="102" rx="8"></rect>
        <filter x="-6.7%" y="-12.3%" width="113.5%" height="128.4%" filterUnits="objectBoundingBox" id="filter-2">
            <feOffset dx="0" dy="2" in="SourceAlpha" result="shadowOffsetOuter1"></feOffset>
            <feGaussianBlur stdDeviation="4.5" in="shadowOffsetOuter1" result="shadowBlurOuter1"></feGaussianBlur>
            <feColorMatrix values="0 0 0 0 0   0 0 0 0 0   0 0 0 0 0  0 0 0 0.31602382 0" type="matrix" in="shadowBlurOuter1"></feColorMatrix>
        </filter>
    </defs>
    <g id="Auswahl" stroke="none" stroke-width="1" fill="none" fill-rule="evenodd">
        <g id="GW_popup_HUSUM_800x280" transform="translate(-21.000000, -74.000000)">
            <g id="Group-6" transform="translate(29.234000, 80.580000)">
                <g id="Group-3">
                    <g id="Rectangle" transform="translate(109.789712, 54.758133) rotate(-2.000000) translate(-109.789712, -54.758133) ">
                        <use fill="black" fill-opacity="1" filter="url(#filter-2)" xlink:href="#path-1"></use>
                        <use fill="#95B654" fill-rule="evenodd" xlink:href="#path-1"></use>
                    </g>
                    <path d="M44.8863504,21.7329216 L44.8863504,38.9449216 L42.9363504,38.9449216 L42.9363504,31.2749216 L32.9263504,31.2749216 L32.9263504,38.9449216 L30.9763504,38.9449216 L30.9763504,21.7329216 L32.9263504,21.7329216 L32.9263504,29.3769216 L42.9363504,29.3769216 L42.9363504,21.7329216 L44.8863504,21.7329216 Z M63.297136,21.7329216 L63.297136,31.5349216 C63.297136,33.822933 62.6168095,35.6645813 61.256136,37.0599216 C59.8954626,38.4552619 58.1318135,39.1529216 55.965136,39.1529216 C53.8157919,39.1529216 52.0608095,38.4552619 50.700136,37.0599216 C49.3394626,35.6645813 48.659136,33.822933 48.659136,31.5349216 L48.659136,21.7329216 L50.609136,21.7329216 L50.609136,31.5869216 C50.609136,33.4415975 51.1637971,34.8889164 52.273136,35.9289216 C53.2264741,36.812926 54.4571285,37.2549216 55.965136,37.2549216 C57.4731436,37.2549216 58.7124645,36.812926 59.683136,35.9289216 C60.7924749,34.9062498 61.347136,33.4589309 61.347136,31.5869216 L61.347136,21.7329216 L63.297136,21.7329216 Z M69.0459217,24.3849216 C68.7165867,24.6622563 68.4955889,24.9742532 68.3829217,25.3209216 C68.2702545,25.66759 68.2139217,26.0359196 68.2139217,26.4259216 C68.2139217,26.8159235 68.38292,27.1755866 68.7209217,27.5049216 C69.0589234,27.8342566 69.5052523,28.1115871 70.0599217,28.3369216 C70.6145911,28.562256 71.2472515,28.7615874 71.9579217,28.9349216 C72.6685919,29.1082558 73.3922513,29.2859207 74.1289217,29.4679216 C74.865592,29.6499225 75.5892515,29.8579204 76.2999217,30.0919216 C77.0105919,30.3259228 77.6432523,30.6249198 78.1979217,30.9889216 C79.4285945,31.7689255 80.0439217,32.8349148 80.0439217,34.1869216 C80.0439217,35.7989296 79.4415944,37.029584 78.2369217,37.8789216 C77.032249,38.7282592 75.3639324,39.1529216 73.2319217,39.1529216 C70.8225763,39.1529216 68.9852614,38.6502599 67.7199217,37.6449216 C66.5932494,36.7435837 65.9519225,35.4609299 65.7959217,33.7969216 L67.8239217,33.7969216 C67.8932554,34.9755941 68.4652497,35.8769185 69.5399217,36.5009216 C70.4759264,37.0382576 71.7152473,37.3069216 73.2579217,37.3069216 C76.4819378,37.3069216 78.0939217,36.2929317 78.0939217,34.2649216 C78.0939217,33.5715848 77.8035913,33.0255902 77.2229217,32.6269216 C76.6422521,32.2282529 75.9142594,31.8989229 75.0389217,31.6389216 C74.163584,31.3789203 73.2189268,31.136256 72.2049217,30.9109216 C71.1909166,30.6855871 70.2462594,30.3952567 69.3709217,30.0399216 C68.495584,29.6845865 67.7675913,29.2165912 67.1869217,28.6359216 C66.6062521,28.055252 66.3159217,27.2709265 66.3159217,26.2829216 C66.3159217,24.8789146 66.8532497,23.734926 67.9279217,22.8509216 C69.0025937,21.9669172 70.6232442,21.5249216 72.7899217,21.5249216 C74.9739326,21.5249216 76.6639157,22.0275832 77.8599217,23.0329216 C78.9519272,23.916926 79.532588,25.052248 79.6019217,26.4389216 L77.5999217,26.4389216 C77.4265875,25.0175811 76.50793,24.0729239 74.8439217,23.6049216 C74.2545854,23.4315874 73.5222594,23.3449216 72.6469217,23.3449216 C71.771584,23.3449216 71.0349247,23.4445873 70.4369217,23.6439216 C69.8389187,23.8432559 69.3752567,24.0902534 69.0459217,24.3849216 Z M97.2587074,21.7329216 L97.2587074,31.5349216 C97.2587074,33.822933 96.5783808,35.6645813 95.2177074,37.0599216 C93.8570339,38.4552619 92.0933849,39.1529216 89.9267074,39.1529216 C87.7773633,39.1529216 86.0223808,38.4552619 84.6617074,37.0599216 C83.3010339,35.6645813 82.6207074,33.822933 82.6207074,31.5349216 L82.6207074,21.7329216 L84.5707074,21.7329216 L84.5707074,31.5869216 C84.5707074,33.4415975 85.1253685,34.8889164 86.2347074,35.9289216 C87.1880455,36.812926 88.4186998,37.2549216 89.9267074,37.2549216 C91.4347149,37.2549216 92.6740358,36.812926 93.6447074,35.9289216 C94.7540462,34.9062498 95.3087074,33.4589309 95.3087074,31.5869216 L95.3087074,21.7329216 L97.2587074,21.7329216 Z M117.775493,21.7329216 L117.775493,38.9449216 L115.825493,38.9449216 L115.825493,24.6969216 L109.455493,32.8869216 L102.981493,24.6969216 L102.981493,38.9449216 L101.031493,38.9449216 L101.031493,21.7329216 L103.293493,21.7329216 L109.455493,29.8969216 L115.513493,21.7329216 L117.775493,21.7329216 Z M36.6703504,64.9449216 L34.4603504,64.9449216 L29.1043504,47.7329216 L31.1583504,47.7329216 L35.5783504,62.1889216 L40.2063504,47.7329216 L42.4423504,47.7329216 L47.0703504,62.1889216 L51.4903504,47.7329216 L53.5443504,47.7329216 L48.1883504,64.9449216 L45.9783504,64.9449216 L41.3243504,50.4889216 L36.6703504,64.9449216 Z M55.237136,51.9449216 L57.187136,51.9449216 L57.187136,64.9449216 L55.237136,64.9449216 L55.237136,51.9449216 Z M57.265136,47.2129216 L57.265136,49.7609216 L55.159136,49.7609216 L55.159136,47.2129216 L57.265136,47.2129216 Z M62.2859217,51.9449216 L62.2859217,53.9729216 C62.753924,53.3489185 63.3259183,52.8202571 64.0019217,52.3869216 C64.6779251,51.9535861 65.4492507,51.7369216 66.3159217,51.7369216 C67.1825927,51.7369216 67.9279186,51.8582537 68.5519217,52.1009216 C69.1759248,52.3435895 69.7219194,52.7075858 70.1899217,53.1929216 C71.2645937,54.2502602 71.8019217,55.6455796 71.8019217,57.3789216 L71.8019217,64.9449216 L69.8519217,64.9449216 L69.8519217,57.4309216 C69.8519217,56.2349156 69.5139251,55.2815918 68.8379217,54.5709216 C68.1619183,53.8602514 67.2865937,53.5049216 66.2119217,53.5049216 C65.1199162,53.5049216 64.1925922,53.8689179 63.4299217,54.5969216 C62.6672512,55.3422586 62.2859217,56.2955824 62.2859217,57.4569216 L62.2859217,64.9449216 L60.3359217,64.9449216 L60.3359217,51.9449216 L62.2859217,51.9449216 Z M84.9607074,62.8649216 C83.9207022,64.3902625 82.3693843,65.1529216 80.3067074,65.1529216 C78.434698,65.1529216 76.9093799,64.5029281 75.7307074,63.2029216 C74.5867016,61.9202485 74.0147074,60.3342644 74.0147074,58.4449216 C74.0147074,56.5555788 74.5867016,54.9695947 75.7307074,53.6869216 C76.9093799,52.3869151 78.4780309,51.7369216 80.4367074,51.7369216 C82.3953838,51.7369216 83.9033687,52.5082472 84.9607074,54.0509216 L84.9607074,46.7449216 L86.9107074,46.7449216 L86.9107074,64.9449216 L84.9607074,64.9449216 L84.9607074,62.8649216 Z M80.5667074,63.3849216 C81.9707144,63.3849216 83.0800366,62.8995931 83.8947074,61.9289216 C84.6747113,61.0102503 85.0647074,59.8489286 85.0647074,58.4449216 C85.0647074,57.0409146 84.6747113,55.8795928 83.8947074,54.9609216 C83.0800366,53.9902501 81.9707144,53.5049216 80.5667074,53.5049216 C79.1800338,53.5049216 78.0533784,53.9902501 77.1867074,54.9609216 C76.3720366,55.8795928 75.9647074,57.0409146 75.9647074,58.4449216 C75.9647074,59.8489286 76.3720366,61.0102503 77.1867074,61.9289216 C78.0533784,62.8995931 79.1800338,63.3849216 80.5667074,63.3849216 Z M106.650279,52.6729216 C106.650279,53.4182586 106.429281,54.1375848 105.987279,54.8309216 C105.545276,55.5242584 104.986282,56.1742519 104.310279,56.7809216 C103.634275,57.3875913 102.901949,57.9595856 102.113279,58.4969216 C101.324608,59.0342576 100.583616,59.5585857 99.8902787,60.0699216 C99.1969419,60.5812575 98.6119478,61.0839191 98.1352787,61.5779216 C97.6586097,62.0719241 97.394279,62.5702524 97.3422787,63.0729216 L106.598279,63.0729216 L106.598279,64.9449216 L95.0282787,64.9449216 L95.0282787,63.8789216 C95.0282787,63.029584 95.2666097,62.2539251 95.7432787,61.5519216 C96.2199478,60.8499181 96.8179418,60.191258 97.5372787,59.5759216 C98.2566156,58.9605852 99.0322745,58.3799243 99.8642787,57.8339216 C100.696283,57.2879189 101.471942,56.737591 102.191279,56.1829216 C102.910616,55.6282521 103.50861,55.0649244 103.985279,54.4929216 C104.461948,53.9209187 104.700279,53.3055915 104.700279,52.6469216 C104.700279,51.6415832 104.366615,50.8529244 103.699279,50.2809216 C103.031942,49.7089187 102.100285,49.4229216 100.904279,49.4229216 C99.7082727,49.4229216 98.7506156,49.6785857 98.0312787,50.1899216 C97.3119418,50.7012575 96.8829461,51.4422501 96.7442787,52.4129216 L94.7942787,52.4129216 C94.9329461,50.9569143 95.5656064,49.7782594 96.6922787,48.8769216 C97.818951,47.9755837 99.1796041,47.5249216 100.774279,47.5249216 C102.594288,47.5249216 104.041607,48.0102501 105.116279,48.9809216 C106.13895,49.9169263 106.650279,51.1475806 106.650279,52.6729216 Z M108.863064,56.3389216 C108.863064,50.4628922 110.873711,47.5249216 114.895064,47.5249216 C117.079075,47.5595884 118.682393,48.4782459 119.705064,50.2809216 C120.519735,51.7369289 120.927064,53.756242 120.927064,56.3389216 C120.927064,62.214951 118.916418,65.1529216 114.895064,65.1529216 C110.873711,65.1529216 108.863064,62.214951 108.863064,56.3389216 Z M114.895064,63.2549216 C117.183076,63.2029213 118.491729,61.703603 118.821064,58.7569216 C118.925065,57.9422508 118.977064,57.1362589 118.977064,56.3389216 C118.977064,54.0162433 118.656401,52.2829273 118.015064,51.1389216 C117.373728,49.9949159 116.333738,49.4229216 114.895064,49.4229216 C113.456391,49.4229216 112.416401,49.9949159 111.775064,51.1389216 C111.133728,52.2829273 110.813064,54.0162433 110.813064,56.3389216 C110.813064,58.6615999 111.133728,60.3949159 111.775064,61.5389216 C112.416401,62.6829273 113.456391,63.2549216 114.895064,63.2549216 Z M130.91385,47.7329216 L130.91385,64.9449216 L128.96385,64.9449216 L128.96385,49.6049216 L125.32385,49.6049216 L125.32385,47.7329216 L130.91385,47.7329216 Z M139.444636,60.9409216 C139.929971,62.483596 140.961294,63.2549216 142.538636,63.2549216 C144.063977,63.2549216 145.225298,62.5702618 146.022636,61.2009216 C146.750639,59.9875822 147.114636,58.340932 147.114636,56.2609216 C146.698634,56.9889252 146.08764,57.5782527 145.281636,58.0289216 C144.475632,58.4795905 143.626307,58.7049216 142.733636,58.7049216 C141.840965,58.7049216 141.039306,58.5662563 140.328636,58.2889216 C139.617965,58.0115869 139.002638,57.6302573 138.482636,57.1449216 C137.33863,56.0702495 136.766636,54.7269296 136.766636,53.1149216 C136.766636,51.5375804 137.347297,50.202927 138.508636,49.1109216 C139.635308,48.053583 141.030627,47.5249216 142.694636,47.5249216 C144.79198,47.5249216 146.377964,48.2832473 147.452636,49.7999216 C148.527308,51.3165958 149.064636,53.4962407 149.064636,56.3389216 C149.064636,60.5856095 147.842648,63.3155822 145.398636,64.5289216 C144.583965,64.9449237 143.695641,65.1529216 142.733636,65.1529216 C141.771631,65.1529216 140.987305,65.0315895 140.380636,64.7889216 C139.773966,64.5462537 139.262638,64.2255902 138.846636,63.8269216 C138.014632,63.0642511 137.48597,62.1022607 137.260636,60.9409216 L139.444636,60.9409216 Z M142.694636,56.8589216 C143.231972,56.8589216 143.7433,56.7722558 144.228636,56.5989216 C144.713971,56.4255874 145.138634,56.1742566 145.502636,55.8449216 C146.28264,55.1689182 146.672636,54.3022602 146.672636,53.2449216 C146.672636,52.1355827 146.28264,51.2169252 145.502636,50.4889216 C144.774632,49.7782514 143.838641,49.4229216 142.694636,49.4229216 C141.585297,49.4229216 140.649306,49.7695848 139.886636,50.4629216 C139.106632,51.1735918 138.716636,52.057583 138.716636,53.1149216 C138.716636,54.1722602 139.106632,55.0649179 139.886636,55.7929216 C140.66664,56.5035918 141.60263,56.8589216 142.694636,56.8589216 Z" id="HUSUMWind2019" fill="#FFFFFF" fill-rule="nonzero" transform="translate(89.084493, 43.338922) rotate(-2.000000) translate(-89.084493, -43.338922) "></path>
                    <path d="M36.9710465,76.8032461 L36.9710465,89.3812461 L35.5460465,89.3812461 L35.5460465,78.1712461 L32.8860465,78.1712461 L32.8860465,76.8032461 L36.9710465,76.8032461 Z M41.4190822,83.0922461 C41.4190822,78.7982246 42.8884008,76.6512461 45.8270822,76.6512461 C47.4230901,76.6765796 48.5947451,77.3479062 49.3420822,78.6652461 C49.9374185,79.7292514 50.2350822,81.2049033 50.2350822,83.0922461 C50.2350822,87.3862676 48.7657635,89.5332461 45.8270822,89.5332461 C42.8884008,89.5332461 41.4190822,87.3862676 41.4190822,83.0922461 Z M45.8270822,88.1462461 C47.4990905,88.1082459 48.4554143,87.0125902 48.6960822,84.8592461 C48.7720825,84.2639098 48.8100822,83.6749157 48.8100822,83.0922461 C48.8100822,81.3949043 48.5757512,80.1282503 48.1070822,79.2922461 C47.6384131,78.4562419 46.8784207,78.0382461 45.8270822,78.0382461 C44.7757436,78.0382461 44.0157512,78.4562419 43.5470822,79.2922461 C43.0784131,80.1282503 42.8440822,81.3949043 42.8440822,83.0922461 C42.8440822,84.7895879 43.0784131,86.0562419 43.5470822,86.8922461 C44.0157512,87.7282503 44.7757436,88.1462461 45.8270822,88.1462461 Z M55.7681535,83.0732461 L60.5181535,83.0732461 L60.5181535,84.4602461 L55.7681535,84.4602461 L55.7681535,83.0732461 Z M68.0061892,76.8032461 L68.0061892,89.3812461 L66.5811892,89.3812461 L66.5811892,78.1712461 L63.9211892,78.1712461 L63.9211892,76.8032461 L68.0061892,76.8032461 Z M78.8572249,82.6742461 C79.5918952,82.9529142 80.1618895,83.3677434 80.5672249,83.9187461 C80.9725602,84.4697489 81.1752249,85.0555763 81.1752249,85.6762461 C81.1752249,86.2969159 81.0643926,86.8384105 80.8427249,87.3007461 C80.6210571,87.7630818 80.3138935,88.1589111 79.9212249,88.4882461 C79.1105542,89.1849163 78.1035642,89.5332461 76.9002249,89.5332461 C75.7095523,89.5332461 74.6898958,89.1975828 73.8412249,88.5262461 C72.992554,87.8422427 72.5175587,87.0189176 72.4162249,86.0562461 L73.8602249,86.0562461 C73.9615587,86.6389157 74.297222,87.1329108 74.8672249,87.5382461 C75.4498945,87.9435815 76.1275543,88.1462461 76.9002249,88.1462461 C77.7742292,88.1462461 78.4772222,87.9182484 79.0092249,87.4622461 C79.5032273,87.0315773 79.7502249,86.4805828 79.7502249,85.8092461 C79.7502249,85.1505762 79.4968941,84.5932484 78.9902249,84.1372461 C78.4582222,83.6559104 77.8058954,83.4152461 77.0332249,83.4152461 L75.5892249,83.4152461 L75.5892249,82.1042461 L76.8622249,82.1042461 C77.5208948,82.1042461 78.0972224,81.914248 78.5912249,81.5342461 C79.0852273,81.1542442 79.3322249,80.6602492 79.3322249,80.0522461 C79.3322249,79.4442431 79.123227,78.9565813 78.7052249,78.5892461 C78.2872228,78.2219109 77.6760622,78.0382461 76.8717249,78.0382461 C76.0673875,78.0382461 75.4340605,78.2155777 74.9717249,78.5702461 C74.5093892,78.9249146 74.233892,79.3429104 74.1452249,79.8242461 L72.7582249,79.8242461 C72.846892,78.9882419 73.2332215,78.2662492 73.9172249,77.6582461 C74.6772287,76.9869094 75.6335524,76.6512461 76.7862249,76.6512461 C78.002231,76.6512461 78.9712213,76.9679096 79.6932249,77.6012461 C80.4025618,78.2092492 80.7572249,79.0072412 80.7572249,79.9952461 C80.7572249,80.5779157 80.5418937,81.14791 80.1112249,81.7052461 C79.731223,82.224582 79.3132272,82.5475788 78.8572249,82.6742461 Z M88.7792962,78.7412461 C88.5386284,78.9439138 88.37713,79.1719115 88.2947962,79.4252461 C88.2124625,79.6785807 88.1712962,79.9477447 88.1712962,80.2327461 C88.1712962,80.5177475 88.294795,80.7805782 88.5417962,81.0212461 C88.7887975,81.261914 89.1149609,81.4645786 89.5202962,81.6292461 C89.9256316,81.7939136 90.3879603,81.9395788 90.9072962,82.0662461 C91.4266322,82.1929134 91.9554602,82.3227455 92.4937962,82.4557461 C93.0321323,82.5887468 93.5609603,82.7407453 94.0802962,82.9117461 C94.5996322,83.082747 95.0619609,83.3012448 95.4672962,83.5672461 C96.3666341,84.137249 96.8162962,84.9162412 96.8162962,85.9042461 C96.8162962,87.082252 96.376134,87.9815763 95.4957962,88.6022461 C94.6154585,89.2229159 93.396304,89.5332461 91.8382962,89.5332461 C90.0776208,89.5332461 88.7349675,89.1659165 87.8102962,88.4312461 C86.9869588,87.7725762 86.5182968,86.8352522 86.4042962,85.6192461 L87.8862962,85.6192461 C87.9369632,86.4805838 88.354959,87.1392438 89.1402962,87.5952461 C89.8242997,87.9879147 90.7299573,88.1842461 91.8572962,88.1842461 C94.213308,88.1842461 95.3912962,87.4432535 95.3912962,85.9612461 C95.3912962,85.4545769 95.1791317,85.0555809 94.7547962,84.7642461 C94.3304608,84.4729113 93.7984661,84.2322471 93.1587962,84.0422461 C92.5191264,83.8522452 91.8287999,83.6749136 91.0877962,83.5102461 C90.3467925,83.3455786 89.6564661,83.1334141 89.0167962,82.8737461 C88.3771264,82.6140782 87.8451317,82.2720816 87.4207962,81.8477461 C86.9964608,81.4234107 86.7842962,80.8502497 86.7842962,80.1282461 C86.7842962,79.102241 87.176959,78.2662493 87.9622962,77.6202461 C88.7476335,76.9742429 89.931955,76.6512461 91.5152962,76.6512461 C93.1113042,76.6512461 94.3462919,77.0185758 95.2202962,77.7532461 C96.0183002,78.3992493 96.4426293,79.2289077 96.4932962,80.2422461 L95.0302962,80.2422461 C94.9036289,79.2035743 94.2323023,78.5132478 93.0162962,78.1712461 C92.5856274,78.0445788 92.0504661,77.9812461 91.4107962,77.9812461 C90.7711264,77.9812461 90.2327984,78.0540787 89.7957962,78.1997461 C89.358794,78.3454135 89.0199641,78.5259117 88.7792962,78.7412461 Z M102.784332,88.2412461 C104.063672,88.2412461 104.981996,87.7092514 105.539332,86.6452461 L107.097332,86.6452461 C106.767997,87.5065838 106.245502,88.2032435 105.529832,88.7352461 C104.814162,89.2672488 103.892671,89.5332461 102.765332,89.5332461 C101.333991,89.5332461 100.16867,89.0582509 99.2693319,88.1082461 C98.3953275,87.1835748 97.9583319,86.0245864 97.9583319,84.6312461 C97.9583319,83.2252391 98.3763277,82.0662507 99.2123319,81.1542461 C100.099003,80.2042414 101.251658,79.7292461 102.670332,79.7292461 C104.089006,79.7292461 105.241661,80.2042414 106.128332,81.1542461 C106.964336,82.0662507 107.382332,83.2252391 107.382332,84.6312461 L107.382332,85.2012461 L99.4213319,85.2012461 C99.5226658,86.0752505 99.8709956,86.7972433 100.466332,87.3672461 C101.074335,87.9499157 101.846994,88.2412461 102.784332,88.2412461 Z M102.670332,81.0212461 C101.796328,81.0212461 101.061668,81.2935767 100.466332,81.8382461 C99.9089958,82.357582 99.5669992,83.0352419 99.4403319,83.8712461 L105.900332,83.8712461 C105.773665,83.0352419 105.431668,82.357582 104.874332,81.8382461 C104.278996,81.2935767 103.544336,81.0212461 102.670332,81.0212461 Z M110.386368,81.4012461 C111.146371,80.2865739 112.280027,79.7292461 113.787368,79.7292461 C115.155374,79.7292461 116.263697,80.2042414 117.112368,81.1542461 C117.961039,82.0915841 118.385368,83.2505725 118.385368,84.6312461 C118.385368,86.0119197 117.961039,87.1709081 117.112368,88.1082461 C116.263697,89.0582509 115.123708,89.5332461 113.692368,89.5332461 C112.261027,89.5332461 111.159038,88.9695851 110.386368,87.8422461 L110.386368,93.1432461 L108.961368,93.1432461 L108.961368,79.8812461 L110.386368,79.8812461 L110.386368,81.4012461 Z M113.597368,81.0212461 C112.571362,81.0212461 111.760704,81.3759092 111.165368,82.0852461 C110.595365,82.7565828 110.310368,83.605241 110.310368,84.6312461 C110.310368,85.6572512 110.595365,86.5059094 111.165368,87.1772461 C111.760704,87.886583 112.571362,88.2412461 113.597368,88.2412461 C114.610706,88.2412461 115.434031,87.886583 116.067368,87.1772461 C116.662704,86.5059094 116.960368,85.6572512 116.960368,84.6312461 C116.960368,83.605241 116.662704,82.7565828 116.067368,82.0852461 C115.434031,81.3759092 114.610706,81.0212461 113.597368,81.0212461 Z M120.933403,89.3812461 L120.933403,81.1352461 L118.995403,81.1352461 L118.995403,79.8812461 L120.933403,79.8812461 L120.933403,76.4802461 L122.358403,76.4802461 L122.358403,79.8812461 L124.543403,79.8812461 L124.543403,81.1352461 L122.358403,81.1352461 L122.358403,89.3812461 L120.933403,89.3812461 Z M129.979439,88.2412461 C131.258779,88.2412461 132.177103,87.7092514 132.734439,86.6452461 L134.292439,86.6452461 C133.963104,87.5065838 133.440609,88.2032435 132.724939,88.7352461 C132.009269,89.2672488 131.087778,89.5332461 129.960439,89.5332461 C128.529098,89.5332461 127.363777,89.0582509 126.464439,88.1082461 C125.590435,87.1835748 125.153439,86.0245864 125.153439,84.6312461 C125.153439,83.2252391 125.571435,82.0662507 126.407439,81.1542461 C127.29411,80.2042414 128.446765,79.7292461 129.865439,79.7292461 C131.284113,79.7292461 132.436768,80.2042414 133.323439,81.1542461 C134.159443,82.0662507 134.577439,83.2252391 134.577439,84.6312461 L134.577439,85.2012461 L126.616439,85.2012461 C126.717773,86.0752505 127.066103,86.7972433 127.661439,87.3672461 C128.269442,87.9499157 129.042101,88.2412461 129.979439,88.2412461 Z M129.865439,81.0212461 C128.991435,81.0212461 128.256775,81.2935767 127.661439,81.8382461 C127.104103,82.357582 126.762106,83.0352419 126.635439,83.8712461 L133.095439,83.8712461 C132.968772,83.0352419 132.626775,82.357582 132.069439,81.8382461 C131.474103,81.2935767 130.739443,81.0212461 129.865439,81.0212461 Z M137.581475,81.3252461 C138.214811,80.2612408 139.177468,79.7292461 140.469475,79.7292461 C141.102811,79.7292461 141.688639,79.8970778 142.226975,80.2327461 C142.765311,80.5684145 143.186473,81.0402431 143.490475,81.6482461 C143.921143,80.8502421 144.59247,80.2802478 145.504475,79.9382461 C145.87181,79.7989121 146.286639,79.7292461 146.748975,79.7292461 C147.21131,79.7292461 147.654639,79.8210785 148.078975,80.0047461 C148.50331,80.1884137 148.88014,80.4512444 149.209475,80.7932461 C149.918812,81.5532499 150.273475,82.5032404 150.273475,83.6432461 L150.273475,89.3812461 L148.848475,89.3812461 L148.848475,83.6812461 C148.848475,82.8959089 148.62681,82.2499153 148.183475,81.7432461 C147.740139,81.2619104 147.176478,81.0212461 146.492475,81.0212461 C145.770471,81.0212461 145.16881,81.2555771 144.687475,81.7242461 C144.180805,82.2055819 143.927475,82.8642419 143.927475,83.7002461 L143.927475,89.3812461 L142.502475,89.3812461 L142.502475,83.6812461 C142.502475,82.8959089 142.28081,82.2499153 141.837475,81.7432461 C141.394139,81.2619104 140.830478,81.0212461 140.146475,81.0212461 C139.424471,81.0212461 138.82281,81.2555771 138.341475,81.7242461 C137.834805,82.2055819 137.581475,82.8642419 137.581475,83.7002461 L137.581475,89.3812461 L136.156475,89.3812461 L136.156475,79.8812461 L137.581475,79.8812461 L137.581475,81.3252461 Z M153.90451,81.4202461 C154.677181,80.2929071 155.810836,79.7292461 157.30551,79.7292461 C158.673517,79.7292461 159.781839,80.2042414 160.63051,81.1542461 C161.479181,82.0915841 161.90351,83.2505725 161.90351,84.6312461 C161.90351,86.0119197 161.479181,87.1709081 160.63051,88.1082461 C159.781839,89.0582509 158.638684,89.5332461 157.20101,89.5332461 C155.763336,89.5332461 154.664514,88.9759184 153.90451,87.8612461 L153.90451,89.3812461 L152.47951,89.3812461 L152.47951,76.0812461 L153.90451,76.0812461 L153.90451,81.4202461 Z M157.11551,88.2412461 C158.128849,88.2412461 158.952174,87.886583 159.58551,87.1772461 C160.180847,86.5059094 160.47851,85.6572512 160.47851,84.6312461 C160.47851,83.605241 160.180847,82.7565828 159.58551,82.0852461 C158.952174,81.3759092 158.128849,81.0212461 157.11551,81.0212461 C156.089505,81.0212461 155.278847,81.3759092 154.68351,82.0852461 C154.113507,82.7565828 153.82851,83.605241 153.82851,84.6312461 C153.82851,85.6572512 154.113507,86.5059094 154.68351,87.1772461 C155.278847,87.886583 156.089505,88.2412461 157.11551,88.2412461 Z M167.833546,88.2412461 C169.112886,88.2412461 170.03121,87.7092514 170.588546,86.6452461 L172.146546,86.6452461 C171.817211,87.5065838 171.294716,88.2032435 170.579046,88.7352461 C169.863376,89.2672488 168.941885,89.5332461 167.814546,89.5332461 C166.383206,89.5332461 165.217884,89.0582509 164.318546,88.1082461 C163.444542,87.1835748 163.007546,86.0245864 163.007546,84.6312461 C163.007546,83.2252391 163.425542,82.0662507 164.261546,81.1542461 C165.148217,80.2042414 166.300872,79.7292461 167.719546,79.7292461 C169.13822,79.7292461 170.290875,80.2042414 171.177546,81.1542461 C172.01355,82.0662507 172.431546,83.2252391 172.431546,84.6312461 L172.431546,85.2012461 L164.470546,85.2012461 C164.57188,86.0752505 164.92021,86.7972433 165.515546,87.3672461 C166.123549,87.9499157 166.896208,88.2412461 167.833546,88.2412461 Z M167.719546,81.0212461 C166.845542,81.0212461 166.110882,81.2935767 165.515546,81.8382461 C164.95821,82.357582 164.616213,83.0352419 164.489546,83.8712461 L170.949546,83.8712461 C170.822879,83.0352419 170.480882,82.357582 169.923546,81.8382461 C169.32821,81.2935767 168.59355,81.0212461 167.719546,81.0212461 Z M179.026582,79.7292461 L179.026582,81.1542461 L178.855582,81.1542461 C177.829577,81.1542461 176.993585,81.5659087 176.347582,82.3892461 C175.739579,83.1745834 175.435582,84.1119073 175.435582,85.2012461 L175.435582,89.3812461 L174.010582,89.3812461 L174.010582,79.8812461 L175.435582,79.8812461 L175.435582,82.2182461 C175.739583,81.2302412 176.398243,80.5019151 177.411582,80.0332461 C177.829584,79.8305784 178.336245,79.7292461 178.931582,79.7292461 L179.026582,79.7292461 Z" id="10-13September" fill="#FFFFFF" fill-rule="nonzero" transform="translate(105.956314, 84.612246) rotate(-2.000000) translate(-105.956314, -84.612246) "></path>
                </g>
                <g id="Group" transform="translate(103.853940, 56.937759) rotate(-2.000000) translate(-103.853940, -56.937759) translate(29.353940, 20.437759)"></g>
            </g>
        </g>
    </g>
</svg>