<?xml version="1.0" encoding="utf-8"?>
<!-- Generator: Adobe Illustrator 17.0.0, SVG Export Plug-In . SVG Version: 6.00 Build 0)  -->
<!DOCTYPE svg PUBLIC "-//W3C//DTD SVG 1.1//EN" "http://www.w3.org/Graphics/SVG/1.1/DTD/svg11.dtd">
<svg version="1.1" id="Layer_1" xmlns="http://www.w3.org/2000/svg" xmlns:xlink="http://www.w3.org/1999/xlink" x="0px" y="0px"
	 width="170.079px" height="170.08px" viewBox="0 0 170.079 170.08" enable-background="new 0 0 170.079 170.08"
	 xml:space="preserve">
<g>
	<path fill="#FFFFFF" d="M0.288,85.04c0-11.328,9.184-20.512,20.512-20.512l128.479,0c11.329,0,20.512,9.184,20.512,20.512l0,0
		c0,11.328-9.184,20.512-20.512,20.512l-128.479,0C9.471,105.552,0.288,96.368,0.288,85.04L0.288,85.04z"/>
	<path fill="#FFFFFF" d="M85.039,0.289c11.328,0,20.512,9.184,20.512,20.512l0,128.479c0,11.328-9.184,20.512-20.512,20.512l0,0
		c-11.328,0-20.512-9.184-20.512-20.512l0-128.479C64.527,9.472,73.711,0.289,85.039,0.289L85.039,0.289z"/>
</g>
</svg>
