
<svg width="378px" height="90px" viewBox="0 0 378 90" version="1.1" xmlns="http://www.w3.org/2000/svg" xmlns:xlink="http://www.w3.org/1999/xlink">
    <!-- Generator: Sketch 46.2 (44496) - http://www.bohemiancoding.com/sketch -->
    <desc>Created with Sketch.</desc>
    <defs>
        <polygon id="path-1" points="0.0444619202 70.7601606 0.0444619202 0.70960117 342.382593 0.70960117 342.382593 35.7348809 342.382593 70.7601606 0.0444619202 70.7601606"></polygon>
    </defs>
    <g id="Energy" stroke="none" stroke-width="1" fill="none" fill-rule="evenodd">
        <g id="01-copy-25" transform="translate(-138.000000, -306.000000)">
            <g id="GWE_Logo_4c-Copy-3" transform="translate(307.294819, 342.500000) rotate(-360.000000) translate(-307.294819, -342.500000) translate(135.794819, 306.000000)">
                <path d="M20.6303242,72.5353828 C16.7374331,72.5353828 12.6914923,71.8257816 8.26292743,70.3724404 L7.98398215,70.2773392 L9.76873821,63.5568553 L10.0723689,63.644641 C13.404901,64.5444445 16.8534545,65.4759485 20.3217564,65.4759485 C24.1282486,65.4759485 32.9829098,64.3664346 32.9829098,54.1174528 L32.9829098,36.9333997 C32.9829098,28.3669773 27.1991152,23.8850291 21.4869084,23.8850291 C12.7680171,23.8850291 9.67493361,31.0346876 9.67493361,37.162618 C9.67493361,43.9830801 14.6934801,48.7454549 21.872001,48.7454549 C24.9132451,48.7454549 27.7742856,47.3311296 30.4180943,45.7973181 L30.8821803,45.5315225 L30.8821803,53.2274032 L30.721725,53.3127504 C27.9989229,54.7807226 24.3282005,55.8097662 21.7979447,55.8097662 C10.6376651,55.8097662 2.22240448,47.6261871 2.22240448,36.7822132 C2.22240448,25.2188842 10.454993,16.8255947 21.7979447,16.8255947 C33.466744,16.8255947 40.4379074,26.2698742 40.4379074,35.4020267 L40.4379074,51.8179548 C40.4379074,64.5956529 32.8496085,72.5353828 20.6303242,72.5353828" id="Fill-9" fill="#777776"></path>
                <path d="M53.8050638,55.0367643 L46.3500662,55.0367643 L46.3500662,17.5937197 L53.4964961,17.5937197 L53.4964961,21.3514359 C55.7527437,18.2277276 58.8532328,16.8255947 63.4397843,16.8255947 L65.2985967,16.8255947 L65.2985967,23.8850291 L63.9828636,23.8850291 C57.1326588,23.8850291 53.8050638,28.3523464 53.8050638,37.5430227 L53.8050638,55.0367643" id="Fill-10" fill="#777776"></path>
                <path d="M85.9454843,55.8756055 C82.4327486,55.8756055 78.8508938,54.8953317 75.5948865,53.0420778 C71.0823912,50.4743458 67.8214469,46.3971871 66.4094407,41.568973 C64.9431266,36.557872 65.6565353,31.1956281 68.4114285,26.4673921 C72.005626,20.2931304 78.3275628,16.608569 85.3086003,16.608569 C88.7843079,16.608569 92.2328614,17.5254419 95.2864482,19.2592098 C102.477312,23.3509993 105.802438,29.837388 105.165554,38.5452429 L105.145806,38.8305465 L75.742999,38.3867409 L76.0639095,31.7394118 L76.3650717,31.7491657 L97.0193649,32.0344693 C96.1849976,29.1424178 95.0642794,27.2818484 91.7194046,25.3749477 C89.7914731,24.2800648 87.7672685,23.7265271 85.7035671,23.7265271 C81.4206463,23.7265271 77.5771259,26.1186877 75.1406747,30.2958245 C73.3534501,33.3585705 72.7733427,36.7114969 73.521311,39.73035 C74.2519995,42.7223797 76.2589244,45.2730423 79.156993,46.9263399 C81.3934923,48.1992327 83.449788,48.8186097 85.4517758,48.8186097 C88.8114618,48.8186097 91.9835387,47.0263181 95.4246866,43.1783777 L95.6147643,42.9637904 L101.645413,47.4506157 L101.475084,47.6895879 C97.8660749,52.8933298 92.2057075,55.8756055 85.9454843,55.8756055" id="Fill-11" fill="#777776"></path>
                <path d="M129.036358,55.8756055 C125.521154,55.8756055 121.936831,54.8953317 118.683292,53.0420778 C114.170797,50.4743458 110.909852,46.3971871 109.492909,41.568973 C108.031532,36.557872 108.744941,31.1956281 111.499834,26.4673921 C115.098969,20.2931304 121.415968,16.608569 128.404411,16.608569 C131.87765,16.608569 135.323735,17.5254419 138.379791,19.2592098 C145.565717,23.3509993 148.890844,29.837388 148.256428,38.5452429 L148.231743,38.8305465 L118.831404,38.3867409 L119.152315,31.7394118 L119.455946,31.7491657 L140.112707,32.0344693 C139.275872,29.1424178 138.150216,27.2818484 134.810279,25.3749477 C132.879879,24.2800648 130.860611,23.7265271 128.794441,23.7265271 C124.509052,23.7265271 120.660594,26.1186877 118.22908,30.2958245 C116.439387,33.3585705 115.85928,36.7114969 116.609716,39.73035 C117.342873,42.7223797 119.352267,45.2730423 122.252804,46.9263399 C124.484366,48.1992327 126.54313,48.8186097 128.540181,48.8186097 C131.902336,48.8186097 135.074413,47.0263181 138.513092,43.1783777 L138.70317,42.9637904 L144.741224,47.4506157 L144.570895,47.6895879 C140.961886,52.8933298 135.29905,55.8756055 129.036358,55.8756055" id="Fill-12" fill="#777776"></path>
                <path d="M185.499326,55.0367643 L178.044328,55.0367643 L178.044328,33.2488383 C178.044328,27.9938881 174.190933,23.8850291 169.26866,23.8850291 C164.346387,23.8850291 160.490524,27.9938881 160.490524,33.2488383 L160.490524,55.0367643 L153.035526,55.0367643 L153.035526,33.2488383 C153.035526,23.5802176 159.707996,16.8255947 169.26866,16.8255947 C178.824387,16.8255947 185.499326,23.5802176 185.499326,33.2488383 L185.499326,55.0367643" id="Fill-13" fill="#777776"></path>
                <path d="M229.01232,55.8097662 C224.564007,55.8097662 220.532878,53.9467583 218.135923,50.8035422 C215.7365,53.9467583 211.70537,55.8097662 207.261994,55.8097662 C199.597171,55.8097662 193.588739,50.1451493 193.588739,42.9174591 L193.588739,17.5937197 L201.041268,17.5937197 L201.041268,41.3836476 C201.041268,45.8558419 203.54437,48.7454549 207.412575,48.7454549 C212.053435,48.7454549 214.405956,45.9070502 214.405956,40.3058341 L214.405956,17.5937197 L221.868359,17.5937197 L221.868359,40.3058341 C221.868359,45.9875205 224.156698,48.7454549 228.861739,48.7454549 C232.725008,48.7454549 235.22811,45.8558419 235.22811,41.3836476 L235.22811,17.5937197 L242.683107,17.5937197 L242.683107,42.9174591 C242.683107,50.1451493 236.677144,55.8097662 229.01232,55.8097662" id="Fill-14" fill="#4D4E4C"></path>
                <path d="M250.777458,55.0367643 L258.234924,55.0367643 L258.234924,17.5937197 L250.777458,17.5937197 L250.777458,55.0367643 Z M254.507425,14.0652218 C251.599482,14.0652218 250.076392,11.8632635 250.076392,9.68812869 C250.076392,7.5203093 251.599482,5.32078953 254.507425,5.32078953 C257.412899,5.32078953 258.931053,7.5203093 258.931053,9.68812869 C258.931053,11.8632635 257.412899,14.0652218 254.507425,14.0652218 L254.507425,14.0652218 Z" id="Fill-15" fill="#4D4E4C"></path>
                <path d="M298.79801,55.0367643 L291.338076,55.0367643 L291.338076,33.2488383 C291.338076,27.9938881 287.484681,23.8850291 282.562408,23.8850291 C277.640135,23.8850291 273.784272,27.9938881 273.784272,33.2488383 L273.784272,55.0367643 L266.326805,55.0367643 L266.326805,33.2488383 C266.326805,23.5802176 273.004212,16.8255947 282.562408,16.8255947 C292.123072,16.8255947 298.79801,23.5802176 298.79801,33.2488383 L298.79801,55.0367643" id="Fill-16" fill="#4D4E4C"></path>
                <g id="Group-20">
                    <mask id="mask-2" fill="white">
                        <use xlink:href="#path-1"></use>
                    </mask>
                    <g id="Clip-18"></g>
                    <path d="M323.273607,55.8097662 C311.747983,55.8097662 303.69313,47.4164768 303.69313,35.4020267 C303.69313,25.1603604 311.881284,16.8255947 321.952937,16.8255947 C325.951975,16.8255947 329.558516,17.7180828 332.668879,19.4737971 L332.826866,19.5640213 L332.826866,27.3818266 L332.340563,27.0526302 C330.010259,25.4749258 326.260543,23.8850291 323.118089,23.8850291 C315.959316,23.8850291 311.153064,28.8473603 311.153064,36.2384295 C311.153064,43.6075523 316.137051,48.7454549 323.273607,48.7454549 C330.350918,48.7454549 334.927595,42.9637904 334.927595,34.0145248 L334.927595,0.70960117 L342.382593,0.70960117 L342.382593,35.2435248 C342.382593,47.3506375 334.522754,55.8097662 323.273607,55.8097662" id="Fill-17" fill="#4D4E4C" mask="url(#mask-2)"></path>
                </g>
            </g>
            <text id="Mit-der-Kraft-des-Wi" stroke="#5C5C5C" font-family="Raleway-Regular, Raleway" font-size="24" font-weight="normal" letter-spacing="0.719999909" fill="#5C5C5C">
                <tspan x="226" y="395">Mit der Kraft des Windes</tspan>
            </text>
        </g>
    </g>
</svg>
