<?xml version="1.0" encoding="UTF-8" standalone="no"?>
<svg width="56px" height="78px" viewBox="0 0 56 78" version="1.1" xmlns="http://www.w3.org/2000/svg" xmlns:xlink="http://www.w3.org/1999/xlink">
    <!-- Generator: Sketch 45.2 (43514) - http://www.bohemiancoding.com/sketch -->
    <title>Group 5</title>
    <desc>Created with Sketch.</desc>
    <defs>
        <polygon id="path-1" points="0.101967729 49.3149927 0.101967729 0.494543486 23.5137583 0.494543486 46.9255489 0.494543486 46.9255489 49.3149927 0.101967729 49.3149927"></polygon>
    </defs>
    <g id="Energy" stroke="none" stroke-width="1" fill="none" fill-rule="evenodd">
        <g id="01-copy-25" transform="translate(-402.000000, -438.000000)">
            <g id="Group-5" transform="translate(402.000000, 436.000000)">
                <g id="GW_Offshore_4c-Copy-2" transform="translate(4.000000, 0.000000)">
                    <g id="Group-12">
                        <mask id="mask-2" fill="white">
                            <use xlink:href="#path-1"></use>
                        </mask>
                        <g id="Clip-10"></g>
                        <path d="M46.8235812,39.0570391 C46.8235812,44.723046 42.2316344,49.3149927 36.5673271,49.3149927 L10.2579535,49.3149927 C4.59364619,49.3149927 0,44.723046 0,39.0570391 L0,12.7493651 C0,7.08335824 4.59364619,2.49311098 10.2579535,2.49311098 L36.5673271,2.49311098 C42.2316344,2.49311098 46.8235812,7.08335824 46.8235812,12.7493651 L46.8235812,39.0570391" id="Fill-11" fill="#286AA6" mask="url(#mask-2)"></path>
                    </g>
                    <polyline id="Fill-13" fill="#FFFFFE" points="20.7385366 28.6087458 20.7385366 39.4292214 28.8959549 34.0198333 20.7385366 28.6087458"></polyline>
                    <polyline id="Fill-14" fill="#FFFFFE" points="28.8959549 23.2010573 28.8959549 34.0232323 37.0533733 28.6087458 28.8959549 23.2010573"></polyline>
                    <polyline id="Fill-15" fill="#FFFFFE" points="28.8959549 34.0249317 28.8959549 44.8505056 37.0533733 39.4394181 28.8959549 34.0249317"></polyline>
                    <polyline id="Fill-16" fill="#7896C0" points="12.5811183 23.1908605 12.5811183 12.370385 20.7385366 17.7780736 12.5811183 23.1908605"></polyline>
                    <polyline id="Fill-17" fill="#7896C0" points="20.7385366 17.7814725 20.7385366 6.95759804 28.8959549 12.370385 20.7385366 17.7814725"></polyline>
                    <polyline id="Fill-18" fill="#7896C0" points="20.7385366 28.6087458 20.7385366 17.7882703 28.8959549 23.1976584 20.7385366 28.6087458"></polyline>
                    <polyline id="Fill-19" fill="#A0B2D1" points="4.42369998 39.4292214 4.42369998 28.6087458 12.5811183 34.0198333 4.42369998 39.4292214"></polyline>
                    <polyline id="Fill-20" fill="#A0B2D1" points="12.5811183 34.0232323 12.5811183 23.2010573 20.7385366 28.6087458 12.5811183 34.0232323"></polyline>
                    <polyline id="Fill-21" fill="#A0B2D1" points="12.5811183 44.8505056 12.5811183 34.0249317 20.7385366 39.4394181 12.5811183 44.8505056"></polyline>
                </g>
                <path d="M3.968,71.2 C5.16267264,71.2 6.1333296,71.599996 6.88,72.4 C7.58400352,73.1680038 7.936,74.1439941 7.936,75.328 C7.936,76.5120059 7.58400352,77.4879962 6.88,78.256 C6.1333296,79.056004 5.16267264,79.456 3.968,79.456 C2.77332736,79.456 1.8026704,79.056004 1.056,78.256 C0.35199648,77.4879962 0,76.5120059 0,75.328 C0,74.1439941 0.35199648,73.1680038 1.056,72.4 C1.8026704,71.599996 2.77332736,71.2 3.968,71.2 Z M3.968,78.368 C4.83200432,78.368 5.51466416,78.0693363 6.016,77.472 C6.4960024,76.9066638 6.736,76.1920043 6.736,75.328 C6.736,74.4639957 6.4960024,73.7493362 6.016,73.184 C5.51466416,72.5866637 4.83200432,72.288 3.968,72.288 C3.10399568,72.288 2.42133584,72.5866637 1.92,73.184 C1.4399976,73.7493362 1.2,74.4639957 1.2,75.328 C1.2,76.1920043 1.4399976,76.9066638 1.92,77.472 C2.42133584,78.0693363 3.10399568,78.368 3.968,78.368 Z M12.5563076,69.136 C11.9909714,69.136 11.5669757,69.2613321 11.2843076,69.512 C11.0016395,69.7626679 10.8603076,70.1653306 10.8603076,70.72 L10.8603076,71.328 L12.7163076,71.328 L12.7163076,72.384 L10.8603076,72.384 L10.8603076,79.328 L9.66030759,79.328 L9.66030759,72.384 L8.28430759,72.384 L8.28430759,71.328 L9.66030759,71.328 L9.66030759,70.624 C9.66030759,69.749329 9.92163831,69.0933355 10.4443076,68.656 C10.9669769,68.2186645 11.692303,68 12.6203076,68 L12.7163076,68 L12.7163076,69.136 L12.5563076,69.136 Z M17.1606152,69.136 C16.595279,69.136 16.1712833,69.2613321 15.8886152,69.512 C15.6059471,69.7626679 15.4646152,70.1653306 15.4646152,70.72 L15.4646152,71.328 L17.3206152,71.328 L17.3206152,72.384 L15.4646152,72.384 L15.4646152,79.328 L14.2646152,79.328 L14.2646152,72.384 L12.8886152,72.384 L12.8886152,71.328 L14.2646152,71.328 L14.2646152,70.624 C14.2646152,69.749329 14.5259459,69.0933355 15.0486152,68.656 C15.5712845,68.2186645 16.2966105,68 17.2246152,68 L17.3206152,68 L17.3206152,69.136 L17.1606152,69.136 Z M23.0289228,73.472 C22.9222556,72.6399958 22.2529289,72.224 21.0209228,72.224 C19.7889166,72.224 19.1729228,72.6079962 19.1729228,73.376 C19.1729228,73.6960016 19.3035881,73.9386658 19.5649228,74.104 C19.8262574,74.2693342 20.1542541,74.4053328 20.5489228,74.512 C20.9435914,74.6186672 21.3729205,74.7173329 21.8369228,74.808 C22.3009251,74.8986671 22.7302541,75.0266658 23.1249228,75.192 C23.5195914,75.3573342 23.8475881,75.5839986 24.1089228,75.872 C24.3702574,76.1600014 24.5009228,76.5546642 24.5009228,77.056 C24.5009228,77.8346706 24.2075924,78.4293313 23.6209228,78.84 C23.0342532,79.2506687 22.2395945,79.456 21.2369228,79.456 C20.1702508,79.456 19.3222593,79.189336 18.6929228,78.656 C18.1169199,78.1866643 17.8075897,77.5733371 17.7649228,76.816 L19.0129228,76.816 C19.0875898,77.5520037 19.5035857,78.0479987 20.2609228,78.304 C20.5382575,78.3893338 20.8129214,78.432 21.0849228,78.432 C21.3569241,78.432 21.6102549,78.4160002 21.8449228,78.384 C22.0795906,78.3519998 22.3089217,78.2933338 22.5329228,78.208 C23.0449253,78.0053323 23.3009228,77.6586691 23.3009228,77.168 C23.3009228,76.8373317 23.1702574,76.5840009 22.9089228,76.408 C22.6475881,76.2319991 22.3195914,76.0880006 21.9249228,75.976 C21.5302541,75.8639994 21.1009251,75.7626671 20.6369228,75.672 C20.1729205,75.5813329 19.7435914,75.4560008 19.3489228,75.296 C18.9542541,75.1359992 18.6262574,74.9173347 18.3649228,74.64 C18.1035881,74.3626653 17.9729228,73.9786691 17.9729228,73.488 C17.9729228,72.762663 18.2369201,72.200002 18.7649228,71.8 C19.2929254,71.399998 20.0742509,71.2 21.1089228,71.2 C22.090261,71.2 22.8635866,71.4346643 23.4289228,71.904 C23.8982585,72.2986686 24.1702557,72.8213301 24.2449228,73.472 L23.0289228,73.472 Z M26.9292304,68.128 L26.9292304,72.576 C27.2172318,72.1919981 27.5692283,71.866668 27.9852304,71.6 C28.4012324,71.333332 28.8758944,71.2 29.4092304,71.2 C29.9425664,71.2 30.4012284,71.2746659 30.7852304,71.424 C31.1692323,71.5733341 31.5052289,71.7973318 31.7932304,72.096 C32.454567,72.7466699 32.7852304,73.605328 32.7852304,74.672 L32.7852304,79.328 L31.5852304,79.328 L31.5852304,74.704 C31.5852304,73.9679963 31.3772324,73.3813355 30.9612304,72.944 C30.5452283,72.5066645 30.006567,72.288 29.3452304,72.288 C28.673227,72.288 28.102566,72.5119978 27.6332304,72.96 C27.1638947,73.418669 26.9292304,74.0053298 26.9292304,74.72 L26.9292304,79.328 L25.7292304,79.328 L25.7292304,68.128 L26.9292304,68.128 Z M37.949538,71.2 C39.1442106,71.2 40.1148676,71.599996 40.861538,72.4 C41.5655415,73.1680038 41.917538,74.1439941 41.917538,75.328 C41.917538,76.5120059 41.5655415,77.4879962 40.861538,78.256 C40.1148676,79.056004 39.1442106,79.456 37.949538,79.456 C36.7548653,79.456 35.7842084,79.056004 35.037538,78.256 C34.3335344,77.4879962 33.981538,76.5120059 33.981538,75.328 C33.981538,74.1439941 34.3335344,73.1680038 35.037538,72.4 C35.7842084,71.599996 36.7548653,71.2 37.949538,71.2 Z M37.949538,78.368 C38.8135423,78.368 39.4962021,78.0693363 39.997538,77.472 C40.4775404,76.9066638 40.717538,76.1920043 40.717538,75.328 C40.717538,74.4639957 40.4775404,73.7493362 39.997538,73.184 C39.4962021,72.5866637 38.8135423,72.288 37.949538,72.288 C37.0855336,72.288 36.4028738,72.5866637 35.901538,73.184 C35.4215356,73.7493362 35.181538,74.4639957 35.181538,75.328 C35.181538,76.1920043 35.4215356,76.9066638 35.901538,77.472 C36.4028738,78.0693363 37.0855336,78.368 37.949538,78.368 Z M47.4178455,71.2 L47.4178455,72.4 L47.2738455,72.4 C46.4098412,72.4 45.7058483,72.7466632 45.1618455,73.44 C44.649843,74.1013366 44.3938455,74.8906621 44.3938455,75.808 L44.3938455,79.328 L43.1938455,79.328 L43.1938455,71.328 L44.3938455,71.328 L44.3938455,73.296 C44.6498468,72.4639958 45.2045079,71.8506686 46.0578455,71.456 C46.4098473,71.2853325 46.8365097,71.2 47.3378455,71.2 L47.4178455,71.2 Z M51.7661531,78.368 C52.8434919,78.368 53.6168175,77.9200045 54.0861531,77.024 L55.3981531,77.024 C55.1208184,77.749337 54.6808228,78.3359978 54.0781531,78.784 C53.4754835,79.2320022 52.6994912,79.456 51.7501531,79.456 C50.5448138,79.456 49.5634903,79.056004 48.8061531,78.256 C48.0701495,77.4773294 47.7021531,76.5013392 47.7021531,75.328 C47.7021531,74.1439941 48.0541496,73.1680038 48.7581531,72.4 C49.5048235,71.599996 50.4754805,71.2 51.6701531,71.2 C52.8648258,71.2 53.8354827,71.599996 54.5821531,72.4 C55.2861567,73.1680038 55.6381531,74.1439941 55.6381531,75.328 L55.6381531,75.808 L48.9341531,75.808 C49.0194869,76.5440037 49.3128173,77.1519976 49.8141531,77.632 C50.3261557,78.1226691 50.9768159,78.368 51.7661531,78.368 Z M51.6701531,72.288 C50.9341495,72.288 50.315489,72.517331 49.8141531,72.976 C49.3448175,73.4133355 49.0568203,73.9839965 48.9501531,74.688 L54.3901531,74.688 C54.2834859,73.9839965 53.9954888,73.4133355 53.5261531,72.976 C53.0248173,72.517331 52.4061568,72.288 51.6701531,72.288 Z" id="offshore" fill="#777776"></path>
            </g>
        </g>
    </g>
</svg>