<?xml version="1.0" encoding="UTF-8" standalone="no"?>
<svg width="241px" height="22px" viewBox="0 0 241 22" version="1.1" xmlns="http://www.w3.org/2000/svg" xmlns:xlink="http://www.w3.org/1999/xlink">
    <!-- Generator: Sketch 45.2 (43514) - http://www.bohemiancoding.com/sketch -->
    <title>Mit der Kraft des Wi Copy</title>
    <desc>Created with Sketch.</desc>
    <defs></defs>
    <g id="Energy" stroke="none" stroke-width="1" fill="none" fill-rule="evenodd">
        <g id="Mobile-Copy-6" transform="translate(-39.000000, -344.000000)" stroke="#5C5C5C" fill="#5C5C5C">
            <path d="M51.7201506,348.123047 C51.6628586,348.094401 51.5733413,348.273436 51.4515959,348.660156 C51.3298505,349.046877 51.1758807,349.548174 50.9896818,350.164062 C50.803483,350.779951 50.5993834,351.474606 50.3773771,352.248047 C50.1553708,353.021488 49.919045,353.787757 49.6683927,354.546875 C49.4177404,355.305993 49.1635112,356.014971 48.9056974,356.673828 C48.6478836,357.332686 48.3936544,357.855467 48.1430021,358.242188 C47.8923498,358.628908 47.6560241,358.840169 47.4340177,358.875977 C47.2120114,358.911784 47.0079119,358.6862 46.8217131,358.199219 C46.5925452,357.855467 46.3347353,357.382816 46.0482756,356.78125 C45.7618158,356.179684 45.4574569,355.527998 45.1351896,354.826172 C44.8129224,354.124345 44.4763372,353.397465 44.125424,352.645508 C43.7745108,351.893551 43.4200221,351.195316 43.0619474,350.550781 C42.7038727,349.906247 42.3529648,349.344078 42.0092131,348.864258 C41.6654613,348.384438 41.3360375,348.051433 41.0209318,347.865234 C41.0209318,348.982427 41.0853843,350.207025 41.2142912,351.539062 C41.3431981,352.8711 41.4828451,354.221022 41.6332365,355.588867 C41.7836279,356.956713 41.9232749,358.306634 42.0521818,359.638672 C42.1810887,360.97071 42.2455412,362.202468 42.2455412,363.333984 C42.3171561,363.477214 42.3207368,363.620442 42.2562834,363.763672 C42.1918299,363.906902 42.0951512,364.014323 41.9662443,364.085938 C41.8373374,364.157552 41.6869483,364.171875 41.5150724,364.128906 C41.3431966,364.085937 41.1856461,363.957032 41.0424162,363.742188 C40.8418943,362.309889 40.6986666,360.848966 40.6127287,359.359375 C40.5267908,357.869784 40.4408541,356.373054 40.3549162,354.869141 C40.2689783,353.365227 40.1651381,351.868497 40.0433927,350.378906 C39.9216473,348.889315 39.739032,347.421231 39.4955412,345.974609 C39.4812182,345.68815 39.5313479,345.509115 39.6459318,345.4375 C39.7605157,345.365885 39.9037434,345.330078 40.0756193,345.330078 C40.7201538,345.516277 41.3002261,345.856443 41.8158537,346.350586 C42.3314813,346.844729 42.8005521,347.424801 43.2230802,348.09082 C43.6456084,348.756839 44.0323233,349.48372 44.3832365,350.271484 C44.7341497,351.059249 45.081477,351.843421 45.4252287,352.624023 C45.7689804,353.404626 46.112727,354.149411 46.4564787,354.858398 C46.8002304,355.567386 47.1797839,356.179685 47.5951506,356.695312 C47.6524425,356.695312 47.7061529,356.670248 47.7562834,356.620117 C47.8064138,356.569987 47.874447,356.43392 47.9603849,356.211914 C48.0463229,355.989908 48.1680664,355.649742 48.3256193,355.191406 C48.4831722,354.733071 48.6944331,354.095707 48.9594084,353.279297 C49.2243837,352.462887 49.5573881,351.435228 49.9584318,350.196289 C50.3594755,348.957351 50.8464498,347.449879 51.4193693,345.673828 C51.4480153,345.58789 51.5196292,345.512696 51.6342131,345.448242 C51.748797,345.383789 51.8741212,345.351562 52.0101896,345.351562 C52.146258,345.351562 52.2715823,345.398112 52.3861662,345.491211 C52.5007501,345.58431 52.5795253,345.745442 52.6224943,345.974609 C52.7657242,347.292324 52.8982098,348.685214 53.0199552,350.15332 C53.1417006,351.621427 53.2741863,353.121737 53.4174162,354.654297 C53.5606461,356.186857 53.725358,357.737297 53.9115568,359.305664 C54.0977557,360.874031 54.32692,362.41731 54.5990568,363.935547 C54.5704108,364.136069 54.5059583,364.275716 54.4056974,364.354492 C54.3054365,364.433269 54.1836929,364.465495 54.0404631,364.451172 C53.8972332,364.436849 53.7432634,364.3903 53.578549,364.311523 C53.4138346,364.232747 53.2598648,364.136068 53.1166349,364.021484 L51.7201506,348.123047 Z M56.3977286,350.808594 C56.4836666,350.765625 56.583926,350.729818 56.6985099,350.701172 C56.8130938,350.672526 56.9240953,350.658203 57.0315177,350.658203 C57.1389401,350.658203 57.2427802,350.679687 57.3430411,350.722656 C57.4433021,350.765625 57.5220773,350.8444 57.5793693,350.958984 C57.5793693,351.889979 57.5901114,352.896153 57.6115958,353.977539 C57.6330803,355.058925 57.6617259,356.154617 57.6975333,357.264648 C57.7333408,358.37468 57.765567,359.466792 57.794213,360.541016 C57.822859,361.61524 57.8515045,362.610673 57.8801505,363.527344 C57.8944735,363.742189 57.8371824,363.9069 57.7082755,364.021484 C57.5793686,364.136068 57.4397216,364.193359 57.2893302,364.193359 C57.1389388,364.193359 56.9992918,364.139649 56.8703849,364.032227 C56.741478,363.924804 56.6770255,363.756512 56.6770255,363.527344 L56.3977286,350.808594 Z M56.1399161,346.425781 C56.1399161,346.239582 56.2043686,346.114258 56.3332755,346.049805 C56.4621824,345.985351 56.6054102,345.953125 56.762963,345.953125 C57.0780688,345.953125 57.2750069,346.056965 57.3537833,346.264648 C57.4325598,346.472332 57.4719474,346.712238 57.4719474,346.984375 C57.3860095,347.156251 57.2714273,347.277994 57.1281974,347.349609 C56.9849675,347.421224 56.8381591,347.435547 56.6877677,347.392578 C56.5373763,347.349609 56.4084714,347.24935 56.301049,347.091797 C56.1936265,346.934244 56.1399161,346.712241 56.1399161,346.425781 Z M61.6339005,353.794922 L59.657338,354.460938 C59.4997851,354.417969 59.3672995,354.339193 59.2598771,354.224609 C59.1524546,354.110025 59.0772601,353.988282 59.0342911,353.859375 C58.9913222,353.730468 58.9805801,353.608725 59.0020646,353.494141 C59.023549,353.379557 59.0844208,353.29362 59.1846817,353.236328 L61.6339005,352.3125 L61.5909317,346.232422 C61.6339007,346.046223 61.7269987,345.910157 61.8702286,345.824219 C62.0134585,345.738281 62.1602669,345.698893 62.3106583,345.706055 C62.4610497,345.713216 62.6006967,345.763346 62.7296036,345.856445 C62.8585105,345.949545 62.9444472,346.067708 62.9874161,346.210938 C62.9587701,346.65495 62.937286,347.124021 62.922963,347.618164 C62.90864,348.112307 62.8978979,348.606443 62.8907364,349.100586 C62.8835749,349.594729 62.8871556,350.074542 62.9014786,350.540039 C62.9158016,351.005536 62.9444472,351.431639 62.9874161,351.818359 L66.3174942,350.464844 C66.5180161,350.407552 66.6755666,350.425455 66.7901505,350.518555 C66.9047344,350.611654 66.979929,350.733398 67.0157364,350.883789 C67.0515439,351.03418 67.0408018,351.180989 66.9835099,351.324219 C66.9262179,351.467449 66.8259585,351.567708 66.6827286,351.625 L62.9874161,353.300781 C62.9874161,353.444011 62.9945775,353.784177 63.0089005,354.321289 C63.0232235,354.858401 63.0375463,355.492184 63.0518692,356.222656 C63.0661922,356.953129 63.080515,357.73372 63.094838,358.564453 C63.109161,359.395186 63.1199031,360.175778 63.1270646,360.90625 C63.134226,361.636722 63.1413874,362.270505 63.1485489,362.807617 C63.1557104,363.344729 63.1592911,363.684895 63.1592911,363.828125 C63.1306451,364.300784 62.9945788,364.537109 62.751088,364.537109 C62.5075972,364.537109 62.2426259,364.422527 61.9561661,364.193359 L61.6339005,353.794922 Z M84.244916,359.875 C84.0873632,360.233075 83.8510374,360.648435 83.5359317,361.121094 C83.2208259,361.593752 82.8555952,362.037758 82.4402285,362.453125 C82.0248619,362.868492 81.5701138,363.22298 81.0759707,363.516602 C80.5818276,363.810223 80.0697885,363.957031 79.5398379,363.957031 C79.3106701,363.957031 79.1280547,363.928386 78.9919864,363.871094 C78.855918,363.813802 78.7341744,363.731446 78.626752,363.624023 C78.5193296,363.516601 78.4226509,363.384115 78.3367129,363.226562 C78.250775,363.06901 78.1433542,362.889975 78.0144473,362.689453 C77.8855404,361.973304 77.8175072,361.17839 77.8103457,360.304688 C77.8031842,359.430985 77.8747981,358.550135 78.0251895,357.662109 C78.1755809,356.774084 78.4047452,355.92546 78.7126895,355.116211 C79.0206337,354.306962 79.4216714,353.615888 79.9158145,353.042969 C80.4099576,352.470049 81.0043527,352.058269 81.6990176,351.807617 C82.3936825,351.556965 83.1993385,351.539061 84.1160098,351.753906 C84.2019477,350.851558 84.2091091,349.945643 84.1374942,349.036133 C84.0658792,348.126623 84.0085881,347.177739 83.9656192,346.189453 C83.9656192,346.046223 84.0300717,345.942383 84.1589785,345.87793 C84.2878854,345.813476 84.4346939,345.770508 84.5994082,345.749023 C84.7641226,345.727539 84.9216731,345.723958 85.0720645,345.738281 C85.2224559,345.752604 85.3191346,345.78125 85.3621035,345.824219 C85.3477806,347.113288 85.3370385,348.294917 85.329877,349.369141 C85.3227155,350.443365 85.3191348,351.456701 85.3191348,352.40918 L85.3191348,355.169922 C85.3191348,356.057947 85.3227155,356.967443 85.329877,357.898438 C85.3370385,358.829432 85.3441999,359.810542 85.3513614,360.841797 C85.3585229,361.873052 85.3621035,363.004551 85.3621035,364.236328 C85.4337185,364.465496 85.415815,364.658853 85.3083926,364.816406 C85.2009702,364.973959 85.0684845,365.074219 84.9109317,365.117188 C84.7533788,365.160156 84.5922476,365.138672 84.4275332,365.052734 C84.2628189,364.966796 84.1589788,364.802085 84.1160098,364.558594 L84.244916,359.875 Z M83.213666,352.935547 C82.6693925,352.849609 82.1573533,352.996417 81.6775332,353.375977 C81.1977131,353.755536 80.7716106,354.271156 80.3992129,354.922852 C80.0268152,355.574548 79.7188756,356.305009 79.4753848,357.114258 C79.231894,357.923507 79.0779242,358.704098 79.0134707,359.456055 C78.9490173,360.208012 78.9812435,360.884763 79.1101504,361.486328 C79.2390573,362.087894 79.4897059,362.503254 79.8621035,362.732422 C80.2201783,362.732422 80.5710862,362.607098 80.9148379,362.356445 C81.2585896,362.105793 81.5844327,361.787111 81.892377,361.400391 C82.2003212,361.01367 82.4867767,360.580406 82.751752,360.100586 C83.0167273,359.620766 83.2494723,359.151695 83.4499942,358.693359 C83.650516,358.235024 83.8044858,357.816083 83.9119082,357.436523 C84.0193306,357.056964 84.073041,356.766928 84.073041,356.566406 L84.073041,355.728516 C84.073041,355.327472 84.0479762,354.919273 83.9978457,354.503906 C83.9477153,354.08854 83.8617786,353.723309 83.7400332,353.408203 C83.6182878,353.093097 83.4428339,352.935547 83.213666,352.935547 Z M87.9556973,358.263672 C87.8554363,358.34961 87.6799824,358.381836 87.4293301,358.360352 C87.1786778,358.338867 86.9495134,358.285157 86.7418301,358.199219 C86.5341467,358.113281 86.3944997,357.995118 86.3228848,357.844727 C86.2512698,357.694335 86.3372065,357.518881 86.5806973,357.318359 C86.6809582,357.232421 86.7919597,357.17155 86.9137051,357.135742 L87.2789395,357.02832 C87.4006849,356.992513 87.5009443,356.938802 87.5797207,356.867188 C87.6584971,356.795573 87.7050462,356.68099 87.7193691,356.523438 C87.7336921,355.878903 87.7874025,355.220055 87.880502,354.546875 C87.9736014,353.873695 88.1490554,353.272138 88.4068691,352.742188 C88.6646829,352.212237 89.0334943,351.789715 89.5133145,351.474609 C89.9931346,351.159504 90.6269173,351.03776 91.4146816,351.109375 C91.7011414,351.109375 92.0234038,351.177408 92.3814785,351.313477 C92.7395532,351.449545 93.0832998,351.62858 93.4127285,351.850586 C93.7421572,352.072592 94.0286127,352.337564 94.2721035,352.645508 C94.5155943,352.953452 94.6659834,353.286457 94.7232754,353.644531 C94.8235363,353.787761 94.7662452,353.966796 94.5514004,354.181641 C94.3365556,354.396485 94.0357773,354.636392 93.6490566,354.901367 C93.262336,355.166342 92.8254914,355.434894 92.3385098,355.707031 C91.8515282,355.979168 91.3824573,356.236978 90.9312832,356.480469 C90.4801091,356.72396 90.0826521,356.938801 89.7389004,357.125 C89.3951487,357.311199 89.1731457,357.440104 89.0728848,357.511719 C89.1588227,358.070315 89.2519207,358.657549 89.3521816,359.273438 C89.4524426,359.889326 89.5956703,360.455076 89.7818691,360.970703 C89.968068,361.486331 90.2008131,361.912433 90.4801113,362.249023 C90.7594096,362.585614 91.1138982,362.753906 91.5435879,362.753906 C92.1737994,362.796875 92.7144841,362.703777 93.1656582,362.474609 C93.6168323,362.245442 93.9928051,361.944663 94.2935879,361.572266 C94.5943706,361.199868 94.8342771,360.791669 95.0133145,360.347656 C95.1923518,359.903644 95.3284182,359.481122 95.4215176,359.080078 C95.514617,358.679034 95.5790695,358.338869 95.614877,358.05957 C95.6506844,357.780272 95.6829107,357.626302 95.7115566,357.597656 C95.8691095,357.511718 96.0481442,357.508138 96.248666,357.586914 C96.4491879,357.66569 96.56377,357.876951 96.592416,358.220703 C96.606739,358.7793 96.4849954,359.416663 96.2271816,360.132812 C95.9693679,360.848962 95.6148792,361.507809 95.1637051,362.109375 C94.7125309,362.710941 94.1754269,363.194334 93.552377,363.55957 C92.929327,363.924807 92.2668987,364.050131 91.5650723,363.935547 C90.8345999,363.921224 90.2545275,363.709963 89.8248379,363.301758 C89.3951482,362.893553 89.0549824,362.399417 88.8043301,361.819336 C88.5536778,361.239255 88.3710624,360.626956 88.2564785,359.982422 C88.1418946,359.337887 88.0416352,358.764976 87.9556973,358.263672 Z M93.5846035,353.644531 C93.1262679,353.01432 92.6607778,352.613282 92.1881191,352.441406 C91.7154605,352.26953 91.2284862,352.219401 90.7271816,352.291016 C90.4263989,352.333985 90.1614276,352.473632 89.9322598,352.709961 C89.703092,352.94629 89.5168959,353.247068 89.373666,353.612305 C89.2304361,353.977541 89.1301767,354.38574 89.0728848,354.836914 C89.0155928,355.288088 89.0084314,355.749998 89.0514004,356.222656 L93.5846035,353.644531 Z M98.1332754,363.591797 C98.0903064,361.615224 98.0544995,359.93946 98.0258535,358.564453 C97.9972075,357.189446 97.9757233,356.050786 97.9614004,355.148438 C97.9470774,354.246089 97.9363353,353.540693 97.9291738,353.032227 C97.9220123,352.52376 97.9148509,352.147788 97.9076894,351.904297 C97.9005279,351.660806 97.8969472,351.513998 97.8969472,351.463867 L97.8969472,351.367188 C97.9112702,351.238281 97.9757227,351.13086 98.0903066,351.044922 C98.2048905,350.958984 98.3302148,350.905274 98.4662832,350.883789 C98.6023516,350.862305 98.7348372,350.880208 98.8637441,350.9375 C98.992651,350.994792 99.085749,351.08789 99.143041,351.216797 L99.2074941,356.158203 C99.4223389,355.169917 99.7696662,354.346357 100.249486,353.6875 C100.729306,353.028643 101.269991,352.509442 101.871557,352.129883 C102.473122,351.750324 103.099743,351.503256 103.751439,351.388672 C104.403135,351.274088 105.008273,351.266927 105.566869,351.367188 C105.753068,351.410156 105.892715,351.488932 105.985814,351.603516 C106.078914,351.7181 106.129044,351.843424 106.136205,351.979492 C106.143367,352.115561 106.10756,352.244466 106.028783,352.366211 C105.950007,352.487956 105.846167,352.577474 105.71726,352.634766 C105.072725,352.591797 104.467588,352.645507 103.90183,352.795898 C103.336072,352.94629 102.820452,353.168293 102.354955,353.461914 C101.889458,353.755535 101.481259,354.102863 101.130346,354.503906 C100.779432,354.90495 100.503719,355.327472 100.303197,355.771484 C100.002414,356.416019 99.798315,357.09277 99.6908925,357.801758 C99.5834701,358.510746 99.5190177,359.216142 99.4975332,359.917969 C99.4760487,360.619795 99.4760487,361.285804 99.4975332,361.916016 C99.5190177,362.546227 99.5225983,363.097654 99.5082754,363.570312 C99.4939524,363.727865 99.4259192,363.846028 99.3041738,363.924805 C99.1824284,364.003581 99.046362,364.046549 98.8959707,364.053711 C98.7455793,364.060872 98.5951902,364.025065 98.4447988,363.946289 C98.2944074,363.867513 98.1905673,363.74935 98.1332754,363.591797 Z M119.089994,346.662109 C119.104317,346.490234 119.147285,346.332683 119.2189,346.189453 C119.290515,346.046223 119.380033,345.935222 119.487455,345.856445 C119.594877,345.777669 119.705879,345.741862 119.820463,345.749023 C119.935047,345.756185 120.049629,345.824218 120.164213,345.953125 C120.221505,345.953125 120.268054,346.006835 120.303861,346.114258 C120.339669,346.22168 120.364734,346.415038 120.379057,346.694336 C120.39338,346.973634 120.404122,347.356768 120.411283,347.84375 C120.418445,348.330732 120.422025,348.953772 120.422025,349.712891 C120.422025,350.472009 120.425606,351.385086 120.432767,352.452148 C120.439929,353.519211 120.450671,354.768873 120.464994,356.201172 C120.522286,356.100911 120.676256,355.846682 120.926908,355.438477 C121.17756,355.030271 121.496242,354.528974 121.882963,353.93457 C122.269683,353.340166 122.702947,352.695641 123.182767,352.000977 C123.662588,351.306312 124.156723,350.615238 124.665189,349.927734 C125.173655,349.240231 125.682114,348.595706 126.19058,347.994141 C126.699046,347.392575 127.168117,346.90202 127.597807,346.522461 C128.027496,346.142902 128.41063,345.899415 128.747221,345.791992 C129.083811,345.68457 129.330879,345.781248 129.488432,346.082031 C128.242332,347.686206 127.139478,349.082676 126.179838,350.271484 C125.220198,351.460292 124.393057,352.53092 123.698392,353.483398 C123.003728,354.435877 122.423655,355.313147 121.958158,356.115234 C121.492661,356.917322 121.12385,357.73372 120.851713,358.564453 L129.853666,362.904297 C129.82502,363.147788 129.742664,363.376952 129.606596,363.591797 C129.470527,363.806642 129.244944,363.89974 128.929838,363.871094 L120.572416,359.982422 C120.615385,360.21159 120.633288,360.487303 120.626127,360.80957 C120.618965,361.131838 120.604643,361.464842 120.583158,361.808594 C120.561674,362.152345 120.529447,362.481769 120.486478,362.796875 C120.443509,363.111981 120.414864,363.369791 120.400541,363.570312 C120.429187,363.871095 120.325347,364.071614 120.089017,364.171875 C119.852688,364.272136 119.619943,364.222006 119.390775,364.021484 L119.089994,346.662109 Z M131.244135,363.591797 C131.201166,361.615224 131.165359,359.93946 131.136713,358.564453 C131.108067,357.189446 131.086583,356.050786 131.07226,355.148438 C131.057937,354.246089 131.047195,353.540693 131.040033,353.032227 C131.032872,352.52376 131.02571,352.147788 131.018549,351.904297 C131.011387,351.660806 131.007807,351.513998 131.007807,351.463867 L131.007807,351.367188 C131.022129,351.238281 131.086582,351.13086 131.201166,351.044922 C131.31575,350.958984 131.441074,350.905274 131.577142,350.883789 C131.713211,350.862305 131.845696,350.880208 131.974603,350.9375 C132.10351,350.994792 132.196608,351.08789 132.2539,351.216797 L132.318353,356.158203 C132.533198,355.169917 132.880525,354.346357 133.360346,353.6875 C133.840166,353.028643 134.38085,352.509442 134.982416,352.129883 C135.583981,351.750324 136.210603,351.503256 136.862299,351.388672 C137.513995,351.274088 138.119132,351.266927 138.677728,351.367188 C138.863927,351.410156 139.003574,351.488932 139.096674,351.603516 C139.189773,351.7181 139.239903,351.843424 139.247064,351.979492 C139.254226,352.115561 139.218419,352.244466 139.139642,352.366211 C139.060866,352.487956 138.957026,352.577474 138.828119,352.634766 C138.183585,352.591797 137.578447,352.645507 137.012689,352.795898 C136.446931,352.94629 135.931311,353.168293 135.465814,353.461914 C135.000317,353.755535 134.592118,354.102863 134.241205,354.503906 C133.890292,354.90495 133.614578,355.327472 133.414057,355.771484 C133.113274,356.416019 132.909174,357.09277 132.801752,357.801758 C132.694329,358.510746 132.629877,359.216142 132.608392,359.917969 C132.586908,360.619795 132.586908,361.285804 132.608392,361.916016 C132.629877,362.546227 132.633458,363.097654 132.619135,363.570312 C132.604812,363.727865 132.536778,363.846028 132.415033,363.924805 C132.293288,364.003581 132.157221,364.046549 132.00683,364.053711 C131.856439,364.060872 131.706049,364.025065 131.555658,363.946289 C131.405267,363.867513 131.301427,363.74935 131.244135,363.591797 Z M145.933431,363.785156 C145.73291,363.484373 145.607585,363.090497 145.557455,362.603516 C145.507324,362.116534 145.478679,361.604495 145.471517,361.067383 C145.464356,360.530271 145.464356,360.000328 145.471517,359.477539 C145.478679,358.95475 145.439291,358.507163 145.353353,358.134766 C144.680173,359.610033 144.04639,360.759436 143.451986,361.583008 C142.857582,362.40658 142.313317,362.993813 141.819174,363.344727 C141.325031,363.69564 140.877444,363.85319 140.4764,363.817383 C140.075357,363.781575 139.735191,363.638348 139.455892,363.387695 C139.176594,363.137043 138.958172,362.829103 138.800619,362.463867 C138.643066,362.098631 138.557129,361.751304 138.542806,361.421875 C138.442546,360.877601 138.438965,360.222335 138.532064,359.456055 C138.625164,358.689775 138.789876,357.898442 139.026205,357.082031 C139.262534,356.265621 139.563312,355.467126 139.928549,354.686523 C140.293785,353.905921 140.709145,353.22917 141.174642,352.65625 C141.64014,352.08333 142.137856,351.657228 142.667806,351.37793 C143.197757,351.098631 143.749184,351.052082 144.322103,351.238281 C144.608563,351.209635 144.84847,351.220377 145.04183,351.270508 C145.23519,351.320638 145.396321,351.424478 145.525228,351.582031 C145.654135,351.739584 145.747233,351.958006 145.804525,352.237305 C145.861817,352.516603 145.904785,352.871092 145.933431,353.300781 C145.904785,354.690111 145.944173,355.87174 146.051596,356.845703 C146.159018,357.819666 146.284342,358.679033 146.427572,359.423828 C146.570802,360.168624 146.710449,360.841794 146.846517,361.443359 C146.982586,362.044925 147.064942,362.667966 147.093588,363.3125 C147.093588,363.541668 147.036297,363.717122 146.921713,363.838867 C146.807129,363.960613 146.678224,364.039388 146.534994,364.075195 C146.391764,364.111003 146.259278,364.100261 146.137533,364.042969 C146.015788,363.985677 145.947754,363.89974 145.933431,363.785156 Z M144.687338,352.935547 C144.343586,352.477211 143.971194,352.283854 143.57015,352.355469 C143.169107,352.427084 142.77165,352.674152 142.377767,353.09668 C141.983885,353.519208 141.607912,354.070635 141.249838,354.750977 C140.891763,355.431319 140.583823,356.158199 140.32601,356.931641 C140.068196,357.705082 139.878419,358.474931 139.756674,359.241211 C139.634928,360.007491 139.609863,360.684242 139.681478,361.271484 C139.882,361.916019 140.125487,362.302734 140.411947,362.431641 C140.698407,362.560548 141.006346,362.513999 141.335775,362.291992 C141.665204,362.069986 142.001789,361.715497 142.345541,361.228516 C142.689293,360.741534 143.018716,360.215172 143.333822,359.649414 C143.648928,359.083656 143.931803,358.517906 144.182455,357.952148 C144.433107,357.38639 144.637207,356.910158 144.79476,356.523438 L144.687338,352.935547 Z M148.54851,355.664062 C148.26205,355.678385 148.061531,355.64974 147.946947,355.578125 C147.832363,355.50651 147.767911,355.416993 147.753588,355.30957 C147.739265,355.202148 147.760749,355.087566 147.818041,354.96582 C147.875333,354.844075 147.939785,354.733073 148.0114,354.632812 L150.61101,353.472656 C150.525072,352.48437 150.478523,351.496099 150.471361,350.507812 C150.4642,349.519526 150.546556,348.635095 150.718431,347.854492 C150.890307,347.073889 151.173182,346.45801 151.567064,346.006836 C151.960946,345.555662 152.515954,345.373046 153.232103,345.458984 C153.575855,345.458984 153.898117,345.569986 154.1989,345.791992 C154.499683,346.013999 154.761074,346.289712 154.98308,346.619141 C155.205086,346.948569 155.384121,347.306639 155.520189,347.693359 C155.656258,348.08008 155.724291,348.430988 155.724291,348.746094 C155.709968,348.889324 155.659838,349.000325 155.5739,349.079102 C155.487962,349.157878 155.394864,349.208008 155.294603,349.229492 C155.194342,349.250977 155.090502,349.250977 154.98308,349.229492 C154.875657,349.208008 154.793302,349.16862 154.73601,349.111328 C154.678718,348.595701 154.5892,348.173179 154.467455,347.84375 C154.345709,347.514321 154.209643,347.252931 154.059252,347.05957 C153.90886,346.86621 153.754891,346.733724 153.597338,346.662109 C153.439785,346.590494 153.303718,346.554688 153.189135,346.554688 C152.730799,346.56901 152.390633,346.733722 152.168627,347.048828 C151.94662,347.363934 151.792651,347.804359 151.706713,348.370117 C151.620775,348.935875 151.588549,349.616207 151.610033,350.411133 C151.631517,351.206059 151.663744,352.09049 151.706713,353.064453 L156.347338,351.388672 C156.504891,351.488933 156.612311,351.614257 156.669603,351.764648 C156.726895,351.91504 156.655281,352.140623 156.45476,352.441406 L151.79265,354.353516 L152.437181,363.699219 C152.408535,363.813803 152.336922,363.910481 152.222338,363.989258 C152.107754,364.068034 151.978849,364.118164 151.835619,364.139648 C151.692389,364.161133 151.559903,364.139649 151.438158,364.075195 C151.316413,364.010742 151.241218,363.885418 151.212572,363.699219 L150.718431,354.740234 L148.54851,355.664062 Z M159.456556,353.794922 L157.479994,354.460938 C157.322441,354.417969 157.189955,354.339193 157.082533,354.224609 C156.975111,354.110025 156.899916,353.988282 156.856947,353.859375 C156.813978,353.730468 156.803236,353.608725 156.82472,353.494141 C156.846205,353.379557 156.907077,353.29362 157.007338,353.236328 L159.456556,352.3125 L159.413588,346.232422 C159.456557,346.046223 159.549655,345.910157 159.692885,345.824219 C159.836114,345.738281 159.982923,345.698893 160.133314,345.706055 C160.283706,345.713216 160.423353,345.763346 160.55226,345.856445 C160.681166,345.949545 160.767103,346.067708 160.810072,346.210938 C160.781426,346.65495 160.759942,347.124021 160.745619,347.618164 C160.731296,348.112307 160.720554,348.606443 160.713392,349.100586 C160.706231,349.594729 160.709812,350.074542 160.724135,350.540039 C160.738458,351.005536 160.767103,351.431639 160.810072,351.818359 L164.14015,350.464844 C164.340672,350.407552 164.498222,350.425455 164.612806,350.518555 C164.72739,350.611654 164.802585,350.733398 164.838392,350.883789 C164.8742,351.03418 164.863458,351.180989 164.806166,351.324219 C164.748874,351.467449 164.648614,351.567708 164.505385,351.625 L160.810072,353.300781 C160.810072,353.444011 160.817233,353.784177 160.831556,354.321289 C160.845879,354.858401 160.860202,355.492184 160.874525,356.222656 C160.888848,356.953129 160.903171,357.73372 160.917494,358.564453 C160.931817,359.395186 160.942559,360.175778 160.94972,360.90625 C160.956882,361.636722 160.964043,362.270505 160.971205,362.807617 C160.978366,363.344729 160.981947,363.684895 160.981947,363.828125 C160.953301,364.300784 160.817235,364.537109 160.573744,364.537109 C160.330253,364.537109 160.065282,364.422527 159.778822,364.193359 L159.456556,353.794922 Z M182.067572,359.875 C181.910019,360.233075 181.673693,360.648435 181.358588,361.121094 C181.043482,361.593752 180.678251,362.037758 180.262884,362.453125 C179.847518,362.868492 179.39277,363.22298 178.898627,363.516602 C178.404484,363.810223 177.892444,363.957031 177.362494,363.957031 C177.133326,363.957031 176.950711,363.928386 176.814642,363.871094 C176.678574,363.813802 176.55683,363.731446 176.449408,363.624023 C176.341985,363.516601 176.245307,363.384115 176.159369,363.226562 C176.073431,363.06901 175.96601,362.889975 175.837103,362.689453 C175.708196,361.973304 175.640163,361.17839 175.633002,360.304688 C175.62584,359.430985 175.697454,358.550135 175.847845,357.662109 C175.998237,356.774084 176.227401,355.92546 176.535345,355.116211 C176.84329,354.306962 177.244327,353.615888 177.73847,353.042969 C178.232613,352.470049 178.827009,352.058269 179.521674,351.807617 C180.216338,351.556965 181.021994,351.539061 181.938666,351.753906 C182.024604,350.851558 182.031765,349.945643 181.96015,349.036133 C181.888535,348.126623 181.831244,347.177739 181.788275,346.189453 C181.788275,346.046223 181.852728,345.942383 181.981634,345.87793 C182.110541,345.813476 182.25735,345.770508 182.422064,345.749023 C182.586779,345.727539 182.744329,345.723958 182.89472,345.738281 C183.045112,345.752604 183.14179,345.78125 183.184759,345.824219 C183.170436,347.113288 183.159694,348.294917 183.152533,349.369141 C183.145371,350.443365 183.141791,351.456701 183.141791,352.40918 L183.141791,355.169922 C183.141791,356.057947 183.145371,356.967443 183.152533,357.898438 C183.159694,358.829432 183.166856,359.810542 183.174017,360.841797 C183.181179,361.873052 183.184759,363.004551 183.184759,364.236328 C183.256374,364.465496 183.238471,364.658853 183.131049,364.816406 C183.023626,364.973959 182.89114,365.074219 182.733588,365.117188 C182.576035,365.160156 182.414904,365.138672 182.250189,365.052734 C182.085475,364.966796 181.981635,364.802085 181.938666,364.558594 L182.067572,359.875 Z M181.036322,352.935547 C180.492048,352.849609 179.980009,352.996417 179.500189,353.375977 C179.020369,353.755536 178.594267,354.271156 178.221869,354.922852 C177.849471,355.574548 177.541532,356.305009 177.298041,357.114258 C177.05455,357.923507 176.90058,358.704098 176.836127,359.456055 C176.771673,360.208012 176.803899,360.884763 176.932806,361.486328 C177.061713,362.087894 177.312362,362.503254 177.684759,362.732422 C178.042834,362.732422 178.393742,362.607098 178.737494,362.356445 C179.081246,362.105793 179.407089,361.787111 179.715033,361.400391 C180.022977,361.01367 180.309433,360.580406 180.574408,360.100586 C180.839383,359.620766 181.072128,359.151695 181.27265,358.693359 C181.473172,358.235024 181.627142,357.816083 181.734564,357.436523 C181.841987,357.056964 181.895697,356.766928 181.895697,356.566406 L181.895697,355.728516 C181.895697,355.327472 181.870632,354.919273 181.820502,354.503906 C181.770371,354.08854 181.684435,353.723309 181.562689,353.408203 C181.440944,353.093097 181.26549,352.935547 181.036322,352.935547 Z M185.778353,358.263672 C185.678092,358.34961 185.502638,358.381836 185.251986,358.360352 C185.001334,358.338867 184.772169,358.285157 184.564486,358.199219 C184.356803,358.113281 184.217156,357.995118 184.145541,357.844727 C184.073926,357.694335 184.159862,357.518881 184.403353,357.318359 C184.503614,357.232421 184.614616,357.17155 184.736361,357.135742 L185.101595,357.02832 C185.223341,356.992513 185.3236,356.938802 185.402377,356.867188 C185.481153,356.795573 185.527702,356.68099 185.542025,356.523438 C185.556348,355.878903 185.610058,355.220055 185.703158,354.546875 C185.796257,353.873695 185.971711,353.272138 186.229525,352.742188 C186.487339,352.212237 186.85615,351.789715 187.33597,351.474609 C187.81579,351.159504 188.449573,351.03776 189.237338,351.109375 C189.523797,351.109375 189.84606,351.177408 190.204134,351.313477 C190.562209,351.449545 190.905956,351.62858 191.235384,351.850586 C191.564813,352.072592 191.851269,352.337564 192.094759,352.645508 C192.33825,352.953452 192.488639,353.286457 192.545931,353.644531 C192.646192,353.787761 192.588901,353.966796 192.374056,354.181641 C192.159211,354.396485 191.858433,354.636392 191.471713,354.901367 C191.084992,355.166342 190.648147,355.434894 190.161166,355.707031 C189.674184,355.979168 189.205113,356.236978 188.753939,356.480469 C188.302765,356.72396 187.905308,356.938801 187.561556,357.125 C187.217805,357.311199 186.995802,357.440104 186.895541,357.511719 C186.981479,358.070315 187.074577,358.657549 187.174838,359.273438 C187.275098,359.889326 187.418326,360.455076 187.604525,360.970703 C187.790724,361.486331 188.023469,361.912433 188.302767,362.249023 C188.582066,362.585614 188.936554,362.753906 189.366244,362.753906 C189.996455,362.796875 190.53714,362.703777 190.988314,362.474609 C191.439488,362.245442 191.815461,361.944663 192.116244,361.572266 C192.417027,361.199868 192.656933,360.791669 192.83597,360.347656 C193.015008,359.903644 193.151074,359.481122 193.244173,359.080078 C193.337273,358.679034 193.401725,358.338869 193.437533,358.05957 C193.47334,357.780272 193.505567,357.626302 193.534213,357.597656 C193.691765,357.511718 193.8708,357.508138 194.071322,357.586914 C194.271844,357.66569 194.386426,357.876951 194.415072,358.220703 C194.429395,358.7793 194.307651,359.416663 194.049838,360.132812 C193.792024,360.848962 193.437535,361.507809 192.986361,362.109375 C192.535187,362.710941 191.998083,363.194334 191.375033,363.55957 C190.751983,363.924807 190.089555,364.050131 189.387728,363.935547 C188.657256,363.921224 188.077183,363.709963 187.647494,363.301758 C187.217804,362.893553 186.877638,362.399417 186.626986,361.819336 C186.376334,361.239255 186.193718,360.626956 186.079134,359.982422 C185.964551,359.337887 185.864291,358.764976 185.778353,358.263672 Z M191.407259,353.644531 C190.948924,353.01432 190.483434,352.613282 190.010775,352.441406 C189.538116,352.26953 189.051142,352.219401 188.549838,352.291016 C188.249055,352.333985 187.984083,352.473632 187.754916,352.709961 C187.525748,352.94629 187.339552,353.247068 187.196322,353.612305 C187.053092,353.977541 186.952833,354.38574 186.895541,354.836914 C186.838249,355.288088 186.831087,355.749998 186.874056,356.222656 L191.407259,353.644531 Z M195.934447,362.453125 C196.206584,362.66797 196.539588,362.782552 196.93347,362.796875 C197.327353,362.811198 197.742713,362.757488 198.179564,362.635742 C198.616415,362.513997 199.060421,362.334962 199.511595,362.098633 C199.962769,361.862304 200.37813,361.600913 200.757689,361.314453 C201.137248,361.027993 201.466672,360.723634 201.74597,360.401367 C202.025269,360.0791 202.215045,359.77116 202.315306,359.477539 C202.415567,359.183918 202.408406,358.915366 202.293822,358.671875 C202.179238,358.428384 201.921428,358.235027 201.520384,358.091797 C200.789912,358.263673 200.059451,358.399739 199.328978,358.5 C198.598506,358.600261 197.943239,358.600261 197.363158,358.5 C196.783077,358.399739 196.314006,358.163413 195.955931,357.791016 C195.597857,357.418618 195.433145,356.845707 195.461791,356.072266 C195.50476,355.32747 195.708859,354.629235 196.074095,353.977539 C196.439332,353.325843 196.904822,352.770836 197.47058,352.3125 C198.036338,351.854164 198.66654,351.503256 199.361205,351.259766 C200.05587,351.016275 200.761266,350.916015 201.477416,350.958984 C201.620646,350.973307 201.753131,350.984049 201.874877,350.991211 C201.996622,350.998372 202.107623,351.023437 202.207884,351.066406 C202.308145,351.109375 202.38334,351.173828 202.43347,351.259766 C202.483601,351.345704 202.501504,351.474609 202.487181,351.646484 C202.472858,351.861329 202.394083,352.033202 202.250853,352.162109 C202.107623,352.291016 201.914266,352.341146 201.670775,352.3125 C200.825719,352.140624 200.066612,352.176431 199.393431,352.419922 C198.720251,352.663413 198.161663,353.003579 197.71765,353.44043 C197.273637,353.877281 196.958536,354.367836 196.772338,354.912109 C196.586139,355.456383 196.557493,355.950519 196.6864,356.394531 C196.958537,356.910159 197.313025,357.236002 197.749877,357.37207 C198.186728,357.508139 198.652218,357.554688 199.146361,357.511719 C199.640504,357.46875 200.145382,357.393555 200.661009,357.286133 C201.176637,357.17871 201.642127,357.142903 202.057494,357.178711 C202.47286,357.214518 202.816607,357.372069 203.088744,357.651367 C203.360881,357.930665 203.51127,358.442705 203.539916,359.1875 C203.525593,359.660159 203.368042,360.114907 203.067259,360.551758 C202.766477,360.988609 202.383342,361.396808 201.917845,361.776367 C201.452348,362.155926 200.933148,362.499673 200.360228,362.807617 C199.787309,363.115561 199.217978,363.369791 198.65222,363.570312 C198.086462,363.770834 197.55652,363.906901 197.062377,363.978516 C196.568233,364.050131 196.170777,364.042969 195.869994,363.957031 C195.540565,363.670571 195.368692,363.387697 195.354369,363.108398 C195.340046,362.8291 195.533403,362.610678 195.934447,362.453125 Z M216.439994,346.339844 C216.439994,346.124999 216.479381,345.971029 216.558158,345.87793 C216.636934,345.78483 216.737194,345.727539 216.858939,345.706055 C216.980684,345.68457 217.109589,345.688151 217.245658,345.716797 C217.381726,345.745443 217.50705,345.78125 217.621634,345.824219 L221.3814,362.367188 C221.438692,362.309896 221.556855,362.037763 221.735892,361.550781 C221.914929,361.0638 222.12261,360.451501 222.358939,359.713867 C222.595268,358.976233 222.856659,358.156255 223.143119,357.253906 C223.429578,356.351558 223.712453,355.445643 223.991752,354.536133 C224.27105,353.626623 224.53244,352.763676 224.775931,351.947266 C225.019422,351.130855 225.227102,350.436201 225.398978,349.863281 C225.499239,349.648436 225.624563,349.487305 225.774955,349.379883 C225.925346,349.27246 226.086477,349.21875 226.258353,349.21875 C226.430229,349.21875 226.594941,349.261718 226.752494,349.347656 C226.910047,349.433594 227.038952,349.562499 227.139212,349.734375 L231.393119,362.152344 L234.615775,346.039062 C234.68739,345.910156 234.784069,345.806315 234.905814,345.727539 C235.027559,345.648763 235.145722,345.609375 235.260306,345.609375 C235.37489,345.609375 235.485892,345.663085 235.593314,345.770508 C235.700736,345.87793 235.783092,346.067707 235.840384,346.339844 L232.209525,363.527344 C232.180879,363.584636 232.112846,363.65983 232.005423,363.75293 C231.898001,363.846029 231.769096,363.906901 231.618705,363.935547 C231.468313,363.964193 231.307182,363.935547 231.135306,363.849609 C230.96343,363.763671 230.813041,363.570314 230.684134,363.269531 L226.258353,351.066406 L222.262259,363.699219 C222.133352,363.871095 221.968641,363.974935 221.768119,364.010742 C221.567597,364.04655 221.374239,364.042969 221.188041,364 C221.001842,363.957031 220.83713,363.896159 220.6939,363.817383 C220.55067,363.738606 220.471895,363.677735 220.457572,363.634766 L216.439994,346.339844 Z M237.51015,350.808594 C237.596088,350.765625 237.696347,350.729818 237.810931,350.701172 C237.925515,350.672526 238.036517,350.658203 238.143939,350.658203 C238.251361,350.658203 238.355202,350.679687 238.455462,350.722656 C238.555723,350.765625 238.634499,350.8444 238.691791,350.958984 C238.691791,351.889979 238.702533,352.896153 238.724017,353.977539 C238.745502,355.058925 238.774147,356.154617 238.809955,357.264648 C238.845762,358.37468 238.877988,359.466792 238.906634,360.541016 C238.93528,361.61524 238.963926,362.610673 238.992572,363.527344 C239.006895,363.742189 238.949604,363.9069 238.820697,364.021484 C238.69179,364.136068 238.552143,364.193359 238.401751,364.193359 C238.25136,364.193359 238.111713,364.139649 237.982806,364.032227 C237.853899,363.924804 237.789447,363.756512 237.789447,363.527344 L237.51015,350.808594 Z M237.252337,346.425781 C237.252337,346.239582 237.31679,346.114258 237.445697,346.049805 C237.574604,345.985351 237.717831,345.953125 237.875384,345.953125 C238.19049,345.953125 238.387428,346.056965 238.466205,346.264648 C238.544981,346.472332 238.584369,346.712238 238.584369,346.984375 C238.498431,347.156251 238.383849,347.277994 238.240619,347.349609 C238.097389,347.421224 237.95058,347.435547 237.800189,347.392578 C237.649798,347.349609 237.520893,347.24935 237.41347,347.091797 C237.306048,346.934244 237.252337,346.712241 237.252337,346.425781 Z M240.597884,351.195312 C240.612207,351.052083 240.669498,350.9375 240.769759,350.851562 C240.87002,350.765625 240.984602,350.711914 241.113509,350.69043 C241.242416,350.668945 241.371321,350.683268 241.500228,350.733398 C241.629135,350.783529 241.736556,350.858723 241.822494,350.958984 L241.758041,359.552734 C242.030177,358.521479 242.277245,357.500982 242.499251,356.491211 C242.721258,355.48144 242.996971,354.564783 243.3264,353.741211 C243.655829,352.917639 244.071189,352.237307 244.572494,351.700195 C245.073798,351.163083 245.739807,350.858724 246.570541,350.787109 C247.014553,350.74414 247.401268,350.876626 247.730697,351.18457 C248.060125,351.492515 248.343,351.911456 248.57933,352.441406 C248.815659,352.971357 249.012597,353.590817 249.17015,354.299805 C249.327703,355.008793 249.453027,355.746415 249.546126,356.512695 C249.639226,357.278975 249.707259,358.048824 249.750228,358.822266 C249.793197,359.595707 249.821843,360.311846 249.836166,360.970703 C249.850489,361.629561 249.854069,362.209633 249.846908,362.710938 C249.839746,363.212242 249.829004,363.577473 249.814681,363.806641 C249.71442,364.050131 249.538966,364.211263 249.288314,364.290039 C249.037662,364.368815 248.812078,364.264975 248.611556,363.978516 C248.597233,363.706379 248.590072,363.237308 248.590072,362.571289 C248.590072,361.90527 248.57933,361.142582 248.557845,360.283203 C248.536361,359.423824 248.493392,358.52507 248.428939,357.586914 C248.364486,356.648758 248.257065,355.782231 248.106673,354.987305 C247.956282,354.192379 247.748602,353.52637 247.483626,352.989258 C247.218651,352.452146 246.878485,352.147787 246.463119,352.076172 C246.105044,352.01888 245.757717,352.212237 245.421126,352.65625 C245.084536,353.100263 244.762274,353.687496 244.45433,354.417969 C244.146385,355.148441 243.85993,355.972001 243.594955,356.888672 C243.329979,357.805343 243.093654,358.707678 242.88597,359.595703 C242.678287,360.483728 242.502833,361.300126 242.359603,362.044922 C242.216373,362.789717 242.123275,363.362628 242.080306,363.763672 C242.037337,363.878256 241.951401,363.971354 241.822494,364.042969 C241.693587,364.114584 241.55394,364.153971 241.403548,364.161133 C241.253157,364.168294 241.102768,364.143229 240.952376,364.085938 C240.801985,364.028646 240.690984,363.921225 240.619369,363.763672 L240.597884,351.195312 Z M257.607494,359.875 C257.449941,360.233075 257.213615,360.648435 256.898509,361.121094 C256.583403,361.593752 256.218173,362.037758 255.802806,362.453125 C255.387439,362.868492 254.932691,363.22298 254.438548,363.516602 C253.944405,363.810223 253.432366,363.957031 252.902415,363.957031 C252.673248,363.957031 252.490632,363.928386 252.354564,363.871094 C252.218496,363.813802 252.096752,363.731446 251.98933,363.624023 C251.881907,363.516601 251.785228,363.384115 251.69929,363.226562 C251.613353,363.06901 251.505932,362.889975 251.377025,362.689453 C251.248118,361.973304 251.180085,361.17839 251.172923,360.304688 C251.165762,359.430985 251.237376,358.550135 251.387767,357.662109 C251.538158,356.774084 251.767323,355.92546 252.075267,355.116211 C252.383211,354.306962 252.784249,353.615888 253.278392,353.042969 C253.772535,352.470049 254.36693,352.058269 255.061595,351.807617 C255.75626,351.556965 256.561916,351.539061 257.478587,351.753906 C257.564525,350.851558 257.571687,349.945643 257.500072,349.036133 C257.428457,348.126623 257.371166,347.177739 257.328197,346.189453 C257.328197,346.046223 257.392649,345.942383 257.521556,345.87793 C257.650463,345.813476 257.797271,345.770508 257.961986,345.749023 C258.1267,345.727539 258.284251,345.723958 258.434642,345.738281 C258.585033,345.752604 258.681712,345.78125 258.724681,345.824219 C258.710358,347.113288 258.699616,348.294917 258.692455,349.369141 C258.685293,350.443365 258.681712,351.456701 258.681712,352.40918 L258.681712,355.169922 C258.681712,356.057947 258.685293,356.967443 258.692455,357.898438 C258.699616,358.829432 258.706777,359.810542 258.713939,360.841797 C258.7211,361.873052 258.724681,363.004551 258.724681,364.236328 C258.796296,364.465496 258.778393,364.658853 258.67097,364.816406 C258.563548,364.973959 258.431062,365.074219 258.273509,365.117188 C258.115956,365.160156 257.954825,365.138672 257.790111,365.052734 C257.625396,364.966796 257.521556,364.802085 257.478587,364.558594 L257.607494,359.875 Z M256.576244,352.935547 C256.03197,352.849609 255.519931,352.996417 255.040111,353.375977 C254.560291,353.755536 254.134188,354.271156 253.76179,354.922852 C253.389393,355.574548 253.081453,356.305009 252.837962,357.114258 C252.594472,357.923507 252.440502,358.704098 252.376048,359.456055 C252.311595,360.208012 252.343821,360.884763 252.472728,361.486328 C252.601635,362.087894 252.852283,362.503254 253.224681,362.732422 C253.582756,362.732422 253.933664,362.607098 254.277415,362.356445 C254.621167,362.105793 254.94701,361.787111 255.254955,361.400391 C255.562899,361.01367 255.849354,360.580406 256.11433,360.100586 C256.379305,359.620766 256.61205,359.151695 256.812572,358.693359 C257.013094,358.235024 257.167063,357.816083 257.274486,357.436523 C257.381908,357.056964 257.435619,356.766928 257.435619,356.566406 L257.435619,355.728516 C257.435619,355.327472 257.410554,354.919273 257.360423,354.503906 C257.310293,354.08854 257.224356,353.723309 257.102611,353.408203 C256.980865,353.093097 256.805411,352.935547 256.576244,352.935547 Z M261.318275,358.263672 C261.218014,358.34961 261.04256,358.381836 260.791908,358.360352 C260.541255,358.338867 260.312091,358.285157 260.104408,358.199219 C259.896724,358.113281 259.757077,357.995118 259.685462,357.844727 C259.613847,357.694335 259.699784,357.518881 259.943275,357.318359 C260.043536,357.232421 260.154537,357.17155 260.276283,357.135742 L260.641517,357.02832 C260.763262,356.992513 260.863522,356.938802 260.942298,356.867188 C261.021075,356.795573 261.067624,356.68099 261.081947,356.523438 C261.09627,355.878903 261.14998,355.220055 261.24308,354.546875 C261.336179,353.873695 261.511633,353.272138 261.769447,352.742188 C262.02726,352.212237 262.396072,351.789715 262.875892,351.474609 C263.355712,351.159504 263.989495,351.03776 264.777259,351.109375 C265.063719,351.109375 265.385981,351.177408 265.744056,351.313477 C266.102131,351.449545 266.445877,351.62858 266.775306,351.850586 C267.104735,352.072592 267.39119,352.337564 267.634681,352.645508 C267.878172,352.953452 268.028561,353.286457 268.085853,353.644531 C268.186114,353.787761 268.128823,353.966796 267.913978,354.181641 C267.699133,354.396485 267.398355,354.636392 267.011634,354.901367 C266.624914,355.166342 266.188069,355.434894 265.701087,355.707031 C265.214106,355.979168 264.745035,356.236978 264.293861,356.480469 C263.842687,356.72396 263.44523,356.938801 263.101478,357.125 C262.757726,357.311199 262.535723,357.440104 262.435462,357.511719 C262.5214,358.070315 262.614498,358.657549 262.714759,359.273438 C262.81502,359.889326 262.958248,360.455076 263.144447,360.970703 C263.330646,361.486331 263.563391,361.912433 263.842689,362.249023 C264.121987,362.585614 264.476476,362.753906 264.906165,362.753906 C265.536377,362.796875 266.077062,362.703777 266.528236,362.474609 C266.97941,362.245442 267.355383,361.944663 267.656165,361.572266 C267.956948,361.199868 268.196855,360.791669 268.375892,360.347656 C268.554929,359.903644 268.690996,359.481122 268.784095,359.080078 C268.877195,358.679034 268.941647,358.338869 268.977455,358.05957 C269.013262,357.780272 269.045488,357.626302 269.074134,357.597656 C269.231687,357.511718 269.410722,357.508138 269.611244,357.586914 C269.811765,357.66569 269.926348,357.876951 269.954994,358.220703 C269.969317,358.7793 269.847573,359.416663 269.589759,360.132812 C269.331945,360.848962 268.977457,361.507809 268.526283,362.109375 C268.075109,362.710941 267.538005,363.194334 266.914955,363.55957 C266.291905,363.924807 265.629476,364.050131 264.92765,363.935547 C264.197177,363.921224 263.617105,363.709963 263.187415,363.301758 C262.757726,362.893553 262.41756,362.399417 262.166908,361.819336 C261.916255,361.239255 261.73364,360.626956 261.619056,359.982422 C261.504472,359.337887 261.404213,358.764976 261.318275,358.263672 Z M266.947181,353.644531 C266.488845,353.01432 266.023355,352.613282 265.550697,352.441406 C265.078038,352.26953 264.591064,352.219401 264.089759,352.291016 C263.788976,352.333985 263.524005,352.473632 263.294837,352.709961 C263.06567,352.94629 262.879473,353.247068 262.736244,353.612305 C262.593014,353.977541 262.492754,354.38574 262.435462,354.836914 C262.37817,355.288088 262.371009,355.749998 262.413978,356.222656 L266.947181,353.644531 Z M271.474369,362.453125 C271.746505,362.66797 272.07951,362.782552 272.473392,362.796875 C272.867274,362.811198 273.282635,362.757488 273.719486,362.635742 C274.156337,362.513997 274.600343,362.334962 275.051517,362.098633 C275.502691,361.862304 275.918052,361.600913 276.297611,361.314453 C276.67717,361.027993 277.006594,360.723634 277.285892,360.401367 C277.56519,360.0791 277.754967,359.77116 277.855228,359.477539 C277.955489,359.183918 277.948327,358.915366 277.833744,358.671875 C277.71916,358.428384 277.46135,358.235027 277.060306,358.091797 C276.329834,358.263673 275.599372,358.399739 274.8689,358.5 C274.138427,358.600261 273.483161,358.600261 272.903079,358.5 C272.322998,358.399739 271.853928,358.163413 271.495853,357.791016 C271.137778,357.418618 270.973066,356.845707 271.001712,356.072266 C271.044681,355.32747 271.248781,354.629235 271.614017,353.977539 C271.979253,353.325843 272.444743,352.770836 273.010501,352.3125 C273.576259,351.854164 274.206461,351.503256 274.901126,351.259766 C275.595791,351.016275 276.301188,350.916015 277.017337,350.958984 C277.160567,350.973307 277.293053,350.984049 277.414798,350.991211 C277.536544,350.998372 277.647545,351.023437 277.747806,351.066406 C277.848067,351.109375 277.923262,351.173828 277.973392,351.259766 C278.023522,351.345704 278.041426,351.474609 278.027103,351.646484 C278.01278,351.861329 277.934005,352.033202 277.790775,352.162109 C277.647545,352.291016 277.454187,352.341146 277.210697,352.3125 C276.36564,352.140624 275.606533,352.176431 274.933353,352.419922 C274.260172,352.663413 273.701584,353.003579 273.257572,353.44043 C272.813559,353.877281 272.498458,354.367836 272.312259,354.912109 C272.12606,355.456383 272.097415,355.950519 272.226322,356.394531 C272.498458,356.910159 272.852947,357.236002 273.289798,357.37207 C273.726649,357.508139 274.19214,357.554688 274.686283,357.511719 C275.180426,357.46875 275.685303,357.393555 276.200931,357.286133 C276.716559,357.17871 277.182049,357.142903 277.597415,357.178711 C278.012782,357.214518 278.356529,357.372069 278.628665,357.651367 C278.900802,357.930665 279.051191,358.442705 279.079837,359.1875 C279.065514,359.660159 278.907964,360.114907 278.607181,360.551758 C278.306398,360.988609 277.923264,361.396808 277.457767,361.776367 C276.99227,362.155926 276.473069,362.499673 275.90015,362.807617 C275.32723,363.115561 274.7579,363.369791 274.192142,363.570312 C273.626384,363.770834 273.096441,363.906901 272.602298,363.978516 C272.108155,364.050131 271.710698,364.042969 271.409915,363.957031 C271.080487,363.670571 270.908613,363.387697 270.89429,363.108398 C270.879967,362.8291 271.073325,362.610678 271.474369,362.453125 Z" id="Mit-der-Kraft-des-Wi-Copy"></path>
        </g>
    </g>
</svg>