<?xml version="1.0" encoding="UTF-8"?>
<svg width="346px" height="120px" viewBox="0 0 346 97" version="1.1" xmlns="http://www.w3.org/2000/svg" xmlns:xlink="http://www.w3.org/1999/xlink">
    <!-- Generator: Sketch 46.2 (44496) - http://www.bohemiancoding.com/sketch -->
    <title>Group 8</title>
    <desc>Created with Sketch.</desc>
    <defs>
        <polygon id="path-1" points="0.0444619202 70.7601606 0.0444619202 0.70960117 342.382593 0.70960117 342.382593 35.7348809 342.382593 70.7601606 0.0444619202 70.7601606"></polygon>
    </defs>
    <g id="Energy" stroke="none" stroke-width="1" fill="none" fill-rule="evenodd">
        <g id="01-copy-26" transform="translate(-138.000000, -187.000000)">
            <g id="Group-8" transform="translate(135.000000, 188.000000)">
                <g id="Group-6-Copy-2">
                    <g id="GWE_Logo_4c-Copy-3" transform="translate(172.294819, 36.500000) rotate(-360.000000) translate(-172.294819, -36.500000) translate(0.794819, 0.000000)">
                        <path d="M20.6303242,72.5353828 C16.7374331,72.5353828 12.6914923,71.8257816 8.26292743,70.3724404 L7.98398215,70.2773392 L9.76873821,63.5568553 L10.0723689,63.644641 C13.404901,64.5444445 16.8534545,65.4759485 20.3217564,65.4759485 C24.1282486,65.4759485 32.9829098,64.3664346 32.9829098,54.1174528 L32.9829098,36.9333997 C32.9829098,28.3669773 27.1991152,23.8850291 21.4869084,23.8850291 C12.7680171,23.8850291 9.67493361,31.0346876 9.67493361,37.162618 C9.67493361,43.9830801 14.6934801,48.7454549 21.872001,48.7454549 C24.9132451,48.7454549 27.7742856,47.3311296 30.4180943,45.7973181 L30.8821803,45.5315225 L30.8821803,53.2274032 L30.721725,53.3127504 C27.9989229,54.7807226 24.3282005,55.8097662 21.7979447,55.8097662 C10.6376651,55.8097662 2.22240448,47.6261871 2.22240448,36.7822132 C2.22240448,25.2188842 10.454993,16.8255947 21.7979447,16.8255947 C33.466744,16.8255947 40.4379074,26.2698742 40.4379074,35.4020267 L40.4379074,51.8179548 C40.4379074,64.5956529 32.8496085,72.5353828 20.6303242,72.5353828" id="Fill-9" fill="#777776"></path>
                        <path d="M53.8050638,55.0367643 L46.3500662,55.0367643 L46.3500662,17.5937197 L53.4964961,17.5937197 L53.4964961,21.3514359 C55.7527437,18.2277276 58.8532328,16.8255947 63.4397843,16.8255947 L65.2985967,16.8255947 L65.2985967,23.8850291 L63.9828636,23.8850291 C57.1326588,23.8850291 53.8050638,28.3523464 53.8050638,37.5430227 L53.8050638,55.0367643" id="Fill-10" fill="#777776"></path>
                        <path d="M85.9454843,55.8756055 C82.4327486,55.8756055 78.8508938,54.8953317 75.5948865,53.0420778 C71.0823912,50.4743458 67.8214469,46.3971871 66.4094407,41.568973 C64.9431266,36.557872 65.6565353,31.1956281 68.4114285,26.4673921 C72.005626,20.2931304 78.3275628,16.608569 85.3086003,16.608569 C88.7843079,16.608569 92.2328614,17.5254419 95.2864482,19.2592098 C102.477312,23.3509993 105.802438,29.837388 105.165554,38.5452429 L105.145806,38.8305465 L75.742999,38.3867409 L76.0639095,31.7394118 L76.3650717,31.7491657 L97.0193649,32.0344693 C96.1849976,29.1424178 95.0642794,27.2818484 91.7194046,25.3749477 C89.7914731,24.2800648 87.7672685,23.7265271 85.7035671,23.7265271 C81.4206463,23.7265271 77.5771259,26.1186877 75.1406747,30.2958245 C73.3534501,33.3585705 72.7733427,36.7114969 73.521311,39.73035 C74.2519995,42.7223797 76.2589244,45.2730423 79.156993,46.9263399 C81.3934923,48.1992327 83.449788,48.8186097 85.4517758,48.8186097 C88.8114618,48.8186097 91.9835387,47.0263181 95.4246866,43.1783777 L95.6147643,42.9637904 L101.645413,47.4506157 L101.475084,47.6895879 C97.8660749,52.8933298 92.2057075,55.8756055 85.9454843,55.8756055" id="Fill-11" fill="#777776"></path>
                        <path d="M129.036358,55.8756055 C125.521154,55.8756055 121.936831,54.8953317 118.683292,53.0420778 C114.170797,50.4743458 110.909852,46.3971871 109.492909,41.568973 C108.031532,36.557872 108.744941,31.1956281 111.499834,26.4673921 C115.098969,20.2931304 121.415968,16.608569 128.404411,16.608569 C131.87765,16.608569 135.323735,17.5254419 138.379791,19.2592098 C145.565717,23.3509993 148.890844,29.837388 148.256428,38.5452429 L148.231743,38.8305465 L118.831404,38.3867409 L119.152315,31.7394118 L119.455946,31.7491657 L140.112707,32.0344693 C139.275872,29.1424178 138.150216,27.2818484 134.810279,25.3749477 C132.879879,24.2800648 130.860611,23.7265271 128.794441,23.7265271 C124.509052,23.7265271 120.660594,26.1186877 118.22908,30.2958245 C116.439387,33.3585705 115.85928,36.7114969 116.609716,39.73035 C117.342873,42.7223797 119.352267,45.2730423 122.252804,46.9263399 C124.484366,48.1992327 126.54313,48.8186097 128.540181,48.8186097 C131.902336,48.8186097 135.074413,47.0263181 138.513092,43.1783777 L138.70317,42.9637904 L144.741224,47.4506157 L144.570895,47.6895879 C140.961886,52.8933298 135.29905,55.8756055 129.036358,55.8756055" id="Fill-12" fill="#777776"></path>
                        <path d="M185.499326,55.0367643 L178.044328,55.0367643 L178.044328,33.2488383 C178.044328,27.9938881 174.190933,23.8850291 169.26866,23.8850291 C164.346387,23.8850291 160.490524,27.9938881 160.490524,33.2488383 L160.490524,55.0367643 L153.035526,55.0367643 L153.035526,33.2488383 C153.035526,23.5802176 159.707996,16.8255947 169.26866,16.8255947 C178.824387,16.8255947 185.499326,23.5802176 185.499326,33.2488383 L185.499326,55.0367643" id="Fill-13" fill="#777776"></path>
                        <path d="M229.01232,55.8097662 C224.564007,55.8097662 220.532878,53.9467583 218.135923,50.8035422 C215.7365,53.9467583 211.70537,55.8097662 207.261994,55.8097662 C199.597171,55.8097662 193.588739,50.1451493 193.588739,42.9174591 L193.588739,17.5937197 L201.041268,17.5937197 L201.041268,41.3836476 C201.041268,45.8558419 203.54437,48.7454549 207.412575,48.7454549 C212.053435,48.7454549 214.405956,45.9070502 214.405956,40.3058341 L214.405956,17.5937197 L221.868359,17.5937197 L221.868359,40.3058341 C221.868359,45.9875205 224.156698,48.7454549 228.861739,48.7454549 C232.725008,48.7454549 235.22811,45.8558419 235.22811,41.3836476 L235.22811,17.5937197 L242.683107,17.5937197 L242.683107,42.9174591 C242.683107,50.1451493 236.677144,55.8097662 229.01232,55.8097662" id="Fill-14" fill="#4D4E4C"></path>
                        <path d="M250.777458,55.0367643 L258.234924,55.0367643 L258.234924,17.5937197 L250.777458,17.5937197 L250.777458,55.0367643 Z M254.507425,14.0652218 C251.599482,14.0652218 250.076392,11.8632635 250.076392,9.68812869 C250.076392,7.5203093 251.599482,5.32078953 254.507425,5.32078953 C257.412899,5.32078953 258.931053,7.5203093 258.931053,9.68812869 C258.931053,11.8632635 257.412899,14.0652218 254.507425,14.0652218 L254.507425,14.0652218 Z" id="Fill-15" fill="#4D4E4C"></path>
                        <path d="M298.79801,55.0367643 L291.338076,55.0367643 L291.338076,33.2488383 C291.338076,27.9938881 287.484681,23.8850291 282.562408,23.8850291 C277.640135,23.8850291 273.784272,27.9938881 273.784272,33.2488383 L273.784272,55.0367643 L266.326805,55.0367643 L266.326805,33.2488383 C266.326805,23.5802176 273.004212,16.8255947 282.562408,16.8255947 C292.123072,16.8255947 298.79801,23.5802176 298.79801,33.2488383 L298.79801,55.0367643" id="Fill-16" fill="#4D4E4C"></path>
                        <g id="Group-20">
                            <mask id="mask-2" fill="white">
                                <use xlink:href="#path-1"></use>
                            </mask>
                            <g id="Clip-18"></g>
                            <path d="M323.273607,55.8097662 C311.747983,55.8097662 303.69313,47.4164768 303.69313,35.4020267 C303.69313,25.1603604 311.881284,16.8255947 321.952937,16.8255947 C325.951975,16.8255947 329.558516,17.7180828 332.668879,19.4737971 L332.826866,19.5640213 L332.826866,27.3818266 L332.340563,27.0526302 C330.010259,25.4749258 326.260543,23.8850291 323.118089,23.8850291 C315.959316,23.8850291 311.153064,28.8473603 311.153064,36.2384295 C311.153064,43.6075523 316.137051,48.7454549 323.273607,48.7454549 C330.350918,48.7454549 334.927595,42.9637904 334.927595,34.0145248 L334.927595,0.70960117 L342.382593,0.70960117 L342.382593,35.2435248 C342.382593,47.3506375 334.522754,55.8097662 323.273607,55.8097662" id="Fill-17" fill="#4D4E4C" mask="url(#mask-2)"></path>
                        </g>
                    </g>
                </g>
                <path d="M182.097007,77.6796875 C182.034506,77.6484373 181.936851,77.8437479 181.804038,78.265625 C181.671225,78.6875021 181.503258,79.2343716 181.300132,79.90625 C181.097006,80.5781284 180.874352,81.3359333 180.632163,82.1796875 C180.389974,83.0234417 180.132164,83.8593709 179.858725,84.6875 C179.585286,85.5156291 179.307945,86.2890589 179.026694,87.0078125 C178.745443,87.7265661 178.468102,88.2968729 178.194663,88.71875 C177.921224,89.1406271 177.663414,89.3710936 177.421225,89.4101562 C177.179037,89.4492189 176.956383,89.2031277 176.753257,88.671875 C176.503255,88.2968731 176.222008,87.7812533 175.909507,87.125 C175.597005,86.4687467 175.264977,85.7578163 174.913413,84.9921875 C174.561849,84.2265587 174.194665,83.4335979 173.81185,82.6132812 C173.429036,81.7929646 173.042321,81.0312535 172.651694,80.328125 C172.261067,79.6249965 171.878258,79.0117214 171.503257,78.4882812 C171.128255,77.9648411 170.768883,77.6015635 170.425132,77.3984375 C170.425132,78.6171936 170.495443,79.9531177 170.636069,81.40625 C170.776695,82.8593823 170.929037,84.3320238 171.0931,85.8242188 C171.257164,87.3164137 171.409506,88.7890552 171.550132,90.2421875 C171.690757,91.6953198 171.761069,93.0390563 171.761069,94.2734375 C171.839194,94.4296883 171.843101,94.5859367 171.772788,94.7421875 C171.702475,94.8984383 171.597007,95.0156246 171.456382,95.09375 C171.315756,95.1718754 171.151695,95.1875002 170.964194,95.140625 C170.776693,95.0937498 170.60482,94.9531262 170.448569,94.71875 C170.229818,93.1562422 170.07357,91.5625081 169.979819,89.9375 C169.886069,88.3124919 169.79232,86.6796957 169.698569,85.0390625 C169.604819,83.3984293 169.491538,81.7656331 169.358725,80.140625 C169.225912,78.5156169 169.026695,76.9140704 168.761069,75.3359375 C168.745444,75.0234359 168.800131,74.8281254 168.925132,74.75 C169.050132,74.6718746 169.206381,74.6328125 169.393882,74.6328125 C170.09701,74.8359385 170.729816,75.2070286 171.292319,75.7460938 C171.854822,76.2851589 172.366536,76.9179651 172.827475,77.6445312 C173.288415,78.3710974 173.710286,79.1640582 174.0931,80.0234375 C174.475915,80.8828168 174.854817,81.738277 175.229819,82.5898438 C175.604821,83.4414105 175.979817,84.2539024 176.354819,85.0273438 C176.729821,85.8007851 177.143879,86.4687472 177.597007,87.03125 C177.659507,87.03125 177.7181,87.0039065 177.772788,86.9492188 C177.827476,86.894531 177.901694,86.746095 177.995444,86.5039062 C178.089195,86.2617175 178.222006,85.8906275 178.393882,85.390625 C178.565757,84.8906225 178.796224,84.195317 179.085288,83.3046875 C179.374352,82.414058 179.737629,81.2929755 180.175132,79.9414062 C180.612634,78.589837 181.143878,76.9453222 181.768882,75.0078125 C181.800132,74.914062 181.878256,74.8320316 182.003257,74.7617188 C182.128257,74.6914059 182.264975,74.65625 182.413413,74.65625 C182.561851,74.65625 182.698568,74.7070307 182.823569,74.8085938 C182.94857,74.9101568 183.034506,75.0859362 183.081382,75.3359375 C183.237632,76.7734447 183.382162,78.2929607 183.514975,79.8945312 C183.647788,81.4961018 183.792318,83.1328041 183.948569,84.8046875 C184.10482,86.4765709 184.284506,88.1679602 184.487632,89.8789062 C184.690758,91.5898523 184.940755,93.2734292 185.237632,94.9296875 C185.206381,95.1484386 185.13607,95.3007808 185.026694,95.3867188 C184.917319,95.4726567 184.784507,95.5078126 184.628257,95.4921875 C184.472006,95.4765624 184.304039,95.4257817 184.12435,95.3398438 C183.944662,95.2539058 183.776695,95.1484381 183.620444,95.0234375 L182.097007,77.6796875 Z M187.550733,88.7421875 C187.441357,88.835938 187.249953,88.8710939 186.976514,88.8476562 C186.703075,88.8242186 186.453077,88.7656255 186.226514,88.671875 C185.99995,88.5781245 185.847608,88.4492196 185.769483,88.2851562 C185.691357,88.1210929 185.785106,87.9296886 186.050733,87.7109375 C186.160108,87.617187 186.281201,87.5507814 186.414014,87.5117188 L186.812451,87.3945312 C186.945264,87.3554686 187.054638,87.2968754 187.140576,87.21875 C187.226514,87.1406246 187.277295,87.0156259 187.29292,86.84375 C187.308545,86.1406215 187.367138,85.4218787 187.468701,84.6875 C187.570264,83.9531213 187.761669,83.2968779 188.04292,82.71875 C188.324171,82.1406221 188.726511,81.6796892 189.249951,81.3359375 C189.773391,80.9921858 190.464791,80.8593746 191.32417,80.9375 C191.636672,80.9375 191.988231,81.011718 192.378858,81.1601562 C192.769484,81.3085945 193.144481,81.503905 193.503858,81.7460938 C193.863234,81.9882825 194.175731,82.2773421 194.441358,82.6132812 C194.706984,82.9492204 194.871045,83.312498 194.933545,83.703125 C195.042921,83.8593758 194.980421,84.0546863 194.746045,84.2890625 C194.511669,84.5234387 194.183547,84.7851548 193.76167,85.0742188 C193.339793,85.3632827 192.863235,85.6562485 192.331983,85.953125 C191.80073,86.2500015 191.289016,86.5312487 190.796826,86.796875 C190.304636,87.0625013 189.871047,87.296874 189.496045,87.5 C189.121043,87.703126 188.878858,87.8437496 188.769483,87.921875 C188.863233,88.531253 188.964794,89.1718716 189.07417,89.84375 C189.183546,90.5156284 189.339794,91.1328097 189.54292,91.6953125 C189.746046,92.2578153 189.99995,92.7226544 190.304639,93.0898438 C190.609328,93.4570331 190.996043,93.640625 191.464795,93.640625 C192.152298,93.6875002 192.742136,93.5859388 193.234326,93.3359375 C193.726516,93.0859362 194.136668,92.7578145 194.464795,92.3515625 C194.792922,91.9453105 195.054638,91.5000024 195.249951,91.015625 C195.445265,90.5312476 195.593701,90.0703147 195.695264,89.6328125 C195.796827,89.1953103 195.867139,88.8242203 195.906201,88.5195312 C195.945264,88.2148422 195.98042,88.0468752 196.01167,88.015625 C196.183546,87.9218745 196.378856,87.9179683 196.597608,88.0039062 C196.816359,88.0898442 196.941357,88.3203106 196.972608,88.6953125 C196.988233,89.3046905 196.855421,89.9999961 196.57417,90.78125 C196.292919,91.5625039 195.906204,92.2812467 195.414014,92.9375 C194.921824,93.5937533 194.335892,94.1210918 193.656201,94.5195312 C192.97651,94.9179707 192.253861,95.0546881 191.488233,94.9296875 C190.691354,94.9140624 190.058547,94.683596 189.589795,94.2382812 C189.121043,93.7929665 188.749953,93.2539094 188.476514,92.6210938 C188.203075,91.9882781 188.003858,91.320316 187.878858,90.6171875 C187.753857,89.914059 187.644483,89.2890652 187.550733,88.7421875 Z M193.691358,83.703125 C193.191355,83.0156216 192.683548,82.5781259 192.16792,82.390625 C191.652292,82.2031241 191.121048,82.1484371 190.57417,82.2265625 C190.246043,82.2734377 189.956984,82.42578 189.706983,82.6835938 C189.456981,82.9414075 189.253858,83.2695293 189.097608,83.6679688 C188.941357,84.0664082 188.831983,84.5117163 188.769483,85.0039062 C188.706982,85.4960962 188.69917,85.9999974 188.746045,86.515625 L193.691358,83.703125 Z M205.051333,90.5 C204.879458,90.890627 204.621648,91.3437474 204.277896,91.859375 C203.934144,92.3750026 203.535711,92.8593727 203.082583,93.3125 C202.629456,93.7656273 202.133367,94.1523421 201.594302,94.4726562 C201.055237,94.7929704 200.496649,94.953125 199.918521,94.953125 C199.66852,94.953125 199.469303,94.9218753 199.320865,94.859375 C199.172426,94.7968747 199.039615,94.7070318 198.922427,94.5898438 C198.805239,94.4726557 198.699771,94.3281259 198.606021,94.15625 C198.51227,93.9843741 198.395084,93.7890636 198.254458,93.5703125 C198.113833,92.7890586 198.039615,91.9218798 198.031802,90.96875 C198.02399,90.0156202 198.102114,89.0546923 198.266177,88.0859375 C198.430241,87.1171827 198.680238,86.1914107 199.016177,85.3085938 C199.352116,84.4257768 199.789612,83.6718781 200.328677,83.046875 C200.867742,82.4218719 201.516173,81.9726576 202.27399,81.6992188 C203.031806,81.4257799 203.910703,81.4062488 204.910708,81.640625 C205.004459,80.6562451 205.012271,79.6679737 204.934146,78.6757812 C204.856021,77.6835888 204.793521,76.6484429 204.746646,75.5703125 C204.746646,75.4140617 204.816958,75.3007816 204.957583,75.2304688 C205.098209,75.1601559 205.258364,75.1132814 205.438052,75.0898438 C205.617741,75.0664061 205.789614,75.0624999 205.953677,75.078125 C206.117741,75.0937501 206.223208,75.1249998 206.270083,75.171875 C206.254458,76.578132 206.24274,77.8671816 206.234927,79.0390625 C206.227115,80.2109434 206.223208,81.3164011 206.223208,82.3554688 L206.223208,85.3671875 C206.223208,86.3359423 206.227115,87.3281199 206.234927,88.34375 C206.24274,89.3593801 206.250552,90.4296819 206.258365,91.5546875 C206.266177,92.6796931 206.270083,93.9140558 206.270083,95.2578125 C206.348209,95.5078138 206.328678,95.7187491 206.21149,95.890625 C206.094302,96.0625009 205.949772,96.1718748 205.777896,96.21875 C205.60602,96.2656252 205.430241,96.242188 205.250552,96.1484375 C205.070864,96.054687 204.957584,95.8750013 204.910708,95.609375 L205.051333,90.5 Z M203.926333,82.9296875 C203.33258,82.835937 202.773992,82.9960917 202.250552,83.4101562 C201.727112,83.8242208 201.262273,84.3867152 200.856021,85.0976562 C200.449769,85.8085973 200.113835,86.6054643 199.848208,87.4882812 C199.582582,88.3710982 199.414615,89.2226521 199.344302,90.0429688 C199.273989,90.8632854 199.309145,91.6015592 199.449771,92.2578125 C199.590397,92.9140658 199.863831,93.3671862 200.270083,93.6171875 C200.66071,93.6171875 201.043519,93.4804701 201.418521,93.2070312 C201.793523,92.9335924 202.148988,92.5859396 202.484927,92.1640625 C202.820866,91.7421854 203.133363,91.2695339 203.422427,90.7460938 C203.711491,90.2226536 203.965395,89.71094 204.184146,89.2109375 C204.402897,88.710935 204.570864,88.2539083 204.688052,87.8398438 C204.80524,87.4257792 204.863833,87.1093761 204.863833,86.890625 L204.863833,85.9765625 C204.863833,85.5390603 204.83649,85.0937523 204.781802,84.640625 C204.727114,84.1874977 204.633365,83.7890642 204.500552,83.4453125 C204.367739,83.1015608 204.176335,82.9296875 203.926333,82.9296875 Z M220.154098,81.40625 C220.169723,81.2343741 220.22441,81.0976568 220.31816,80.9960938 C220.411911,80.8945307 220.521285,80.8281252 220.646285,80.796875 C220.771286,80.7656248 220.904097,80.7656248 221.044723,80.796875 C221.185349,80.8281252 221.31816,80.8906245 221.44316,80.984375 L225.029098,92.3046875 C225.810352,89.9765509 226.411908,88.1054758 226.833785,86.6914062 C227.255662,85.2773367 227.564253,84.1835976 227.759567,83.4101562 C227.95488,82.6367149 228.072066,82.1132826 228.111129,81.8398438 C228.150192,81.5664049 228.177535,81.4140627 228.19316,81.3828125 C228.302536,81.0390608 228.447066,80.8281254 228.626754,80.75 C228.806442,80.6718746 228.97441,80.679687 229.13066,80.7734375 C229.286911,80.867188 229.415816,81.0117178 229.517379,81.2070312 C229.618942,81.4023447 229.646286,81.5937491 229.59941,81.78125 L225.779098,94.8828125 C225.732223,94.976563 225.638474,95.0429686 225.497848,95.0820312 C225.357222,95.1210939 225.212692,95.1367188 225.064254,95.1289062 C224.915816,95.1210937 224.775192,95.089844 224.642379,95.0351562 C224.509566,94.9804685 224.419723,94.9140629 224.372848,94.8359375 L220.154098,81.40625 Z M231.209386,80.609375 C231.303137,80.5624998 231.412511,80.5234377 231.537511,80.4921875 C231.662512,80.4609373 231.783604,80.4453125 231.900792,80.4453125 C232.017981,80.4453125 232.131261,80.4687498 232.240636,80.515625 C232.350012,80.5625002 232.435948,80.6484369 232.498449,80.7734375 C232.498449,81.7890676 232.510167,82.8867129 232.533605,84.0664062 C232.557043,85.2460996 232.588292,86.4414002 232.627355,87.6523438 C232.666418,88.8632873 232.701574,90.0546816 232.732824,91.2265625 C232.764074,92.3984434 232.795324,93.48437 232.826574,94.484375 C232.842199,94.7187512 232.779699,94.8984369 232.639074,95.0234375 C232.498448,95.1484381 232.346106,95.2109375 232.182042,95.2109375 C232.017979,95.2109375 231.865637,95.1523443 231.725011,95.0351562 C231.584386,94.9179682 231.514074,94.7343763 231.514074,94.484375 L231.209386,80.609375 Z M230.928136,75.828125 C230.928136,75.624999 230.998448,75.4882816 231.139074,75.4179688 C231.279699,75.3476559 231.435948,75.3125 231.607824,75.3125 C231.951575,75.3125 232.166417,75.4257801 232.252355,75.6523438 C232.338293,75.8789074 232.381261,76.1406235 232.381261,76.4375 C232.287511,76.6250009 232.162512,76.7578121 232.006261,76.8359375 C231.85001,76.9140629 231.689856,76.9296877 231.525792,76.8828125 C231.361729,76.8359373 231.221106,76.7265634 231.103917,76.5546875 C230.986729,76.3828116 230.928136,76.1406266 230.928136,75.828125 Z M234.319362,81.03125 C234.334987,80.8749992 234.397487,80.7500005 234.506862,80.65625 C234.616238,80.5624995 234.741236,80.5039064 234.881862,80.4804688 C235.022488,80.4570311 235.163111,80.472656 235.303737,80.5273438 C235.444363,80.5820315 235.561549,80.664062 235.6553,80.7734375 L235.584987,90.1484375 C235.881864,89.0234319 236.151392,87.9101618 236.393581,86.8085938 C236.63577,85.7070257 236.936548,84.7070357 237.295925,83.8085938 C237.655301,82.9101518 238.108422,82.1679717 238.6553,81.5820312 C239.202177,80.9960908 239.928733,80.6640629 240.834987,80.5859375 C241.319365,80.5390623 241.741235,80.6835921 242.100612,81.0195312 C242.459989,81.3554704 242.76858,81.8124971 243.026393,82.390625 C243.284207,82.9687529 243.499049,83.6445274 243.670925,84.4179688 C243.842801,85.1914101 243.979518,85.9960896 244.081081,86.8320312 C244.182644,87.6679729 244.256862,88.5078083 244.303737,89.3515625 C244.350612,90.1953167 244.381862,90.9765589 244.397487,91.6953125 C244.413112,92.4140661 244.417018,93.0468723 244.409206,93.59375 C244.401393,94.1406277 244.389675,94.5390612 244.37405,94.7890625 C244.264674,95.0546888 244.07327,95.2304683 243.799831,95.3164062 C243.526392,95.4023442 243.280301,95.2890641 243.06155,94.9765625 C243.045925,94.679686 243.038112,94.1679724 243.038112,93.4414062 C243.038112,92.7148401 243.026394,91.8828172 243.002956,90.9453125 C242.979518,90.0078078 242.932644,89.0273489 242.862331,88.0039062 C242.792018,86.9804636 242.674832,86.0351606 242.510768,85.1679688 C242.346705,84.3007769 242.120145,83.5742217 241.831081,82.9882812 C241.542017,82.4023408 241.170927,82.0703129 240.7178,81.9921875 C240.327173,81.9296872 239.94827,82.1406226 239.581081,82.625 C239.213892,83.1093774 238.862333,83.749996 238.526393,84.546875 C238.190454,85.343754 237.877957,86.2421825 237.588893,87.2421875 C237.299829,88.2421925 237.04202,89.2265577 236.815456,90.1953125 C236.588892,91.1640673 236.397488,92.0546834 236.241237,92.8671875 C236.084986,93.6796916 235.983425,94.3046853 235.93655,94.7421875 C235.889674,94.8671881 235.795925,94.9687496 235.6553,95.046875 C235.514674,95.1250004 235.362332,95.1679687 235.198268,95.1757812 C235.034205,95.1835938 234.870144,95.1562503 234.706081,95.09375 C234.542018,95.0312497 234.420925,94.9140634 234.3428,94.7421875 L234.319362,81.03125 Z M252.616838,90.5 C252.444962,90.890627 252.187152,91.3437474 251.843401,91.859375 C251.499649,92.3750026 251.101215,92.8593727 250.648088,93.3125 C250.194961,93.7656273 249.698872,94.1523421 249.159807,94.4726562 C248.620742,94.7929704 248.062154,94.953125 247.484026,94.953125 C247.234024,94.953125 247.034808,94.9218753 246.886369,94.859375 C246.737931,94.7968747 246.60512,94.7070318 246.487932,94.5898438 C246.370744,94.4726557 246.265276,94.3281259 246.171526,94.15625 C246.077775,93.9843741 245.960589,93.7890636 245.819963,93.5703125 C245.679337,92.7890586 245.605119,91.9218798 245.597307,90.96875 C245.589494,90.0156202 245.667619,89.0546923 245.831682,88.0859375 C245.995745,87.1171827 246.245743,86.1914107 246.581682,85.3085938 C246.917621,84.4257768 247.355117,83.6718781 247.894182,83.046875 C248.433247,82.4218719 249.081678,81.9726576 249.839494,81.6992188 C250.597311,81.4257799 251.476208,81.4062488 252.476213,81.640625 C252.569964,80.6562451 252.577776,79.6679737 252.499651,78.6757812 C252.421525,77.6835888 252.359026,76.6484429 252.312151,75.5703125 C252.312151,75.4140617 252.382462,75.3007816 252.523088,75.2304688 C252.663714,75.1601559 252.823868,75.1132814 253.003557,75.0898438 C253.183245,75.0664061 253.355119,75.0624999 253.519182,75.078125 C253.683245,75.0937501 253.788713,75.1249998 253.835588,75.171875 C253.819963,76.578132 253.808244,77.8671816 253.800432,79.0390625 C253.792619,80.2109434 253.788713,81.3164011 253.788713,82.3554688 L253.788713,85.3671875 C253.788713,86.3359423 253.792619,87.3281199 253.800432,88.34375 C253.808244,89.3593801 253.816057,90.4296819 253.823869,91.5546875 C253.831682,92.6796931 253.835588,93.9140558 253.835588,95.2578125 C253.913714,95.5078138 253.894182,95.7187491 253.776994,95.890625 C253.659806,96.0625009 253.515276,96.1718748 253.343401,96.21875 C253.171525,96.2656252 252.995745,96.242188 252.816057,96.1484375 C252.636368,96.054687 252.523088,95.8750013 252.476213,95.609375 L252.616838,90.5 Z M251.491838,82.9296875 C250.898085,82.835937 250.339497,82.9960917 249.816057,83.4101562 C249.292617,83.8242208 248.827778,84.3867152 248.421526,85.0976562 C248.015274,85.8085973 247.679339,86.6054643 247.413713,87.4882812 C247.148087,88.3710982 246.98012,89.2226521 246.909807,90.0429688 C246.839494,90.8632854 246.87465,91.6015592 247.015276,92.2578125 C247.155901,92.9140658 247.429336,93.3671862 247.835588,93.6171875 C248.226215,93.6171875 248.609024,93.4804701 248.984026,93.2070312 C249.359027,92.9335924 249.714493,92.5859396 250.050432,92.1640625 C250.386371,91.7421854 250.698868,91.2695339 250.987932,90.7460938 C251.276996,90.2226536 251.5309,89.71094 251.749651,89.2109375 C251.968402,88.710935 252.136369,88.2539083 252.253557,87.8398438 C252.370745,87.4257792 252.429338,87.1093761 252.429338,86.890625 L252.429338,85.9765625 C252.429338,85.5390603 252.401995,85.0937523 252.347307,84.640625 C252.292619,84.1874977 252.19887,83.7890642 252.066057,83.4453125 C251.933244,83.1015608 251.741839,82.9296875 251.491838,82.9296875 Z M256.406502,88.7421875 C256.297126,88.835938 256.105722,88.8710939 255.832283,88.8476562 C255.558844,88.8242186 255.308846,88.7656255 255.082283,88.671875 C254.855719,88.5781245 254.703377,88.4492196 254.625252,88.2851562 C254.547126,88.1210929 254.640875,87.9296886 254.906502,87.7109375 C255.015877,87.617187 255.13697,87.5507814 255.269783,87.5117188 L255.66822,87.3945312 C255.801033,87.3554686 255.910407,87.2968754 255.996345,87.21875 C256.082283,87.1406246 256.133064,87.0156259 256.148689,86.84375 C256.164314,86.1406215 256.222907,85.4218787 256.32447,84.6875 C256.426033,83.9531213 256.617438,83.2968779 256.898689,82.71875 C257.17994,82.1406221 257.58228,81.6796892 258.10572,81.3359375 C258.62916,80.9921858 259.32056,80.8593746 260.179939,80.9375 C260.492441,80.9375 260.844,81.011718 261.234627,81.1601562 C261.625253,81.3085945 262.00025,81.503905 262.359627,81.7460938 C262.719003,81.9882825 263.0315,82.2773421 263.297127,82.6132812 C263.562753,82.9492204 263.726814,83.312498 263.789314,83.703125 C263.89869,83.8593758 263.83619,84.0546863 263.601814,84.2890625 C263.367438,84.5234387 263.039316,84.7851548 262.617439,85.0742188 C262.195562,85.3632827 261.719004,85.6562485 261.187752,85.953125 C260.656499,86.2500015 260.144785,86.5312487 259.652595,86.796875 C259.160405,87.0625013 258.726816,87.296874 258.351814,87.5 C257.976812,87.703126 257.734627,87.8437496 257.625252,87.921875 C257.719002,88.531253 257.820563,89.1718716 257.929939,89.84375 C258.039315,90.5156284 258.195563,91.1328097 258.398689,91.6953125 C258.601815,92.2578153 258.855719,92.7226544 259.160408,93.0898438 C259.465097,93.4570331 259.851812,93.640625 260.320564,93.640625 C261.008067,93.6875002 261.597905,93.5859388 262.090095,93.3359375 C262.582285,93.0859362 262.992437,92.7578145 263.320564,92.3515625 C263.648691,91.9453105 263.910407,91.5000024 264.10572,91.015625 C264.301034,90.5312476 264.44947,90.0703147 264.551033,89.6328125 C264.652596,89.1953103 264.722908,88.8242203 264.76197,88.5195312 C264.801033,88.2148422 264.836189,88.0468752 264.867439,88.015625 C265.039315,87.9218745 265.234625,87.9179683 265.453377,88.0039062 C265.672128,88.0898442 265.797126,88.3203106 265.828377,88.6953125 C265.844002,89.3046905 265.71119,89.9999961 265.429939,90.78125 C265.148688,91.5625039 264.761973,92.2812467 264.269783,92.9375 C263.777593,93.5937533 263.191661,94.1210918 262.51197,94.5195312 C261.832279,94.9179707 261.10963,95.0546881 260.344002,94.9296875 C259.547123,94.9140624 258.914316,94.683596 258.445564,94.2382812 C257.976812,93.7929665 257.605722,93.2539094 257.332283,92.6210938 C257.058844,91.9882781 256.859627,91.320316 256.734627,90.6171875 C256.609626,89.914059 256.500252,89.2890652 256.406502,88.7421875 Z M262.547127,83.703125 C262.047124,83.0156216 261.539317,82.5781259 261.023689,82.390625 C260.508061,82.2031241 259.976817,82.1484371 259.429939,82.2265625 C259.101812,82.2734377 258.812753,82.42578 258.562752,82.6835938 C258.31275,82.9414075 258.109627,83.2695293 257.953377,83.6679688 C257.797126,84.0664082 257.687752,84.5117163 257.625252,85.0039062 C257.562751,85.4960962 257.554939,85.9999974 257.601814,86.515625 L262.547127,83.703125 Z M266.99304,81.03125 C267.008665,80.8749992 267.071164,80.7500005 267.18054,80.65625 C267.289916,80.5624995 267.414914,80.5039064 267.55554,80.4804688 C267.696166,80.4570311 267.836789,80.472656 267.977415,80.5273438 C268.118041,80.5820315 268.235227,80.664062 268.328977,80.7734375 L268.258665,90.1484375 C268.555541,89.0234319 268.82507,87.9101618 269.067259,86.8085938 C269.309447,85.7070257 269.610226,84.7070357 269.969602,83.8085938 C270.328979,82.9101518 270.7821,82.1679717 271.328977,81.5820312 C271.875855,80.9960908 272.60241,80.6640629 273.508665,80.5859375 C273.993042,80.5390623 274.414913,80.6835921 274.77429,81.0195312 C275.133667,81.3554704 275.442257,81.8124971 275.700071,82.390625 C275.957885,82.9687529 276.172727,83.6445274 276.344602,84.4179688 C276.516478,85.1914101 276.653196,85.9960896 276.754759,86.8320312 C276.856322,87.6679729 276.93054,88.5078083 276.977415,89.3515625 C277.02429,90.1953167 277.05554,90.9765589 277.071165,91.6953125 C277.08679,92.4140661 277.090696,93.0468723 277.082884,93.59375 C277.075071,94.1406277 277.063353,94.5390612 277.047727,94.7890625 C276.938352,95.0546888 276.746948,95.2304683 276.473509,95.3164062 C276.20007,95.4023442 275.953979,95.2890641 275.735227,94.9765625 C275.719602,94.679686 275.71179,94.1679724 275.71179,93.4414062 C275.71179,92.7148401 275.700071,91.8828172 275.676634,90.9453125 C275.653196,90.0078078 275.606322,89.0273489 275.536009,88.0039062 C275.465696,86.9804636 275.34851,86.0351606 275.184446,85.1679688 C275.020383,84.3007769 274.793823,83.5742217 274.504759,82.9882812 C274.215695,82.4023408 273.844605,82.0703129 273.391477,81.9921875 C273.000851,81.9296872 272.621948,82.1406226 272.254759,82.625 C271.887569,83.1093774 271.53601,83.749996 271.200071,84.546875 C270.864132,85.343754 270.551635,86.2421825 270.262571,87.2421875 C269.973507,88.2421925 269.715697,89.2265577 269.489134,90.1953125 C269.26257,91.1640673 269.071166,92.0546834 268.914915,92.8671875 C268.758664,93.6796916 268.657103,94.3046853 268.610227,94.7421875 C268.563352,94.8671881 268.469603,94.9687496 268.328977,95.046875 C268.188352,95.1250004 268.03601,95.1679687 267.871946,95.1757812 C267.707883,95.1835938 267.543822,95.1562503 267.379759,95.09375 C267.215695,95.0312497 267.094603,94.9140634 267.016477,94.7421875 L266.99304,81.03125 Z M278.985828,93.3125 C279.282705,93.5468762 279.645983,93.6718749 280.075672,93.6875 C280.505362,93.7031251 280.958482,93.6445319 281.435047,93.5117188 C281.911612,93.3789056 282.395982,93.183595 282.888172,92.9257812 C283.380362,92.6679675 283.833483,92.3828141 284.247547,92.0703125 C284.661612,91.7578109 285.020983,91.425783 285.325672,91.0742188 C285.630361,90.7226545 285.83739,90.3867204 285.946766,90.0664062 C286.056141,89.7460921 286.048329,89.4531263 285.923328,89.1875 C285.798328,88.9218737 285.517081,88.7109383 285.079578,88.5546875 C284.282699,88.7421884 283.485832,88.8906245 282.688953,89 C281.892074,89.1093755 281.177238,89.1093755 280.544422,89 C279.911607,88.8906245 279.399893,88.6328145 279.009266,88.2265625 C278.618639,87.8203105 278.438953,87.1953167 278.470203,86.3515625 C278.517079,85.5390584 278.739733,84.7773473 279.138172,84.0664062 C279.536612,83.3554652 280.044419,82.7500025 280.66161,82.25 C281.2788,81.7499975 281.966293,81.3671888 282.72411,81.1015625 C283.481926,80.8359362 284.25145,80.7265623 285.032703,80.7734375 C285.188954,80.7890626 285.333484,80.8007812 285.466297,80.8085938 C285.59911,80.8164063 285.720203,80.8437498 285.829578,80.890625 C285.938954,80.9375002 286.020984,81.007812 286.075672,81.1015625 C286.13036,81.195313 286.149891,81.3359366 286.134266,81.5234375 C286.118641,81.7578137 286.032704,81.9453118 285.876453,82.0859375 C285.720203,82.2265632 285.509267,82.2812502 285.243641,82.25 C284.321761,82.0624991 283.493645,82.1015612 282.759266,82.3671875 C282.024887,82.6328138 281.415518,83.0039039 280.931141,83.4804688 C280.446763,83.9570336 280.103017,84.4921845 279.899891,85.0859375 C279.696765,85.6796905 279.665515,86.2187476 279.806141,86.703125 C280.103017,87.2656278 280.489732,87.621093 280.966297,87.7695312 C281.442862,87.9179695 281.950669,87.9687502 282.489735,87.921875 C283.0288,87.8749998 283.579576,87.7929693 284.142078,87.6757812 C284.704581,87.5585932 285.212389,87.5195311 285.665516,87.5585938 C286.118643,87.5976564 286.493639,87.7695297 286.790516,88.0742188 C287.087392,88.3789078 287.251453,88.9374959 287.282703,89.75 C287.267078,90.2656276 287.095205,90.7617164 286.767078,91.2382812 C286.438952,91.7148461 286.020987,92.1601542 285.513172,92.5742188 C285.005357,92.9882833 284.438957,93.3632796 283.813953,93.6992188 C283.18895,94.0351579 282.567863,94.3124989 281.950672,94.53125 C281.333482,94.7500011 280.755362,94.8984371 280.216297,94.9765625 C279.677232,95.0546879 279.243643,95.0468755 278.915516,94.953125 C278.556139,94.6406234 278.368641,94.3320328 278.353016,94.0273438 C278.337391,93.7226547 278.548326,93.4843759 278.985828,93.3125 Z M301.096405,75.4765625 C301.455782,75.1171857 301.740935,74.9687497 301.951874,75.03125 C302.162813,75.0937503 302.322967,75.3046857 302.432343,75.6640625 L302.479218,88.71875 L308.54953,80.515625 C308.815157,80.515625 309.037811,80.5585933 309.217499,80.6445312 C309.397187,80.7304692 309.48703,80.9296859 309.48703,81.2421875 L303.29953,89.7734375 L310.190155,93.1953125 C310.237031,93.2578128 310.295624,93.3632805 310.365937,93.5117188 C310.436249,93.660157 310.471405,93.808593 310.471405,93.9570312 C310.471405,94.1054695 310.416718,94.2460931 310.307343,94.3789062 C310.197967,94.5117194 309.994844,94.5859374 309.697968,94.6015625 L302.619843,90.8984375 L302.619843,94.71875 C302.510467,94.9843763 302.393281,95.1562496 302.26828,95.234375 C302.14328,95.3125004 302.018281,95.3398439 301.89328,95.3164062 C301.76828,95.2929686 301.647187,95.2343755 301.529999,95.140625 C301.412811,95.0468745 301.307343,94.9609379 301.213593,94.8828125 L301.096405,75.4765625 Z M311.776694,94.5546875 C311.729818,92.3984267 311.690756,90.57032 311.659506,89.0703125 C311.628256,87.570305 311.604819,86.3281299 311.589194,85.34375 C311.573569,84.3593701 311.56185,83.5898465 311.554037,83.0351562 C311.546225,82.480466 311.538413,82.0703138 311.5306,81.8046875 C311.522787,81.5390612 311.518881,81.3789065 311.518881,81.3242188 L311.518881,81.21875 C311.534506,81.0781243 311.604818,80.960938 311.729819,80.8671875 C311.854819,80.773437 311.991537,80.7148439 312.139975,80.6914062 C312.288413,80.6679686 312.432943,80.6874997 312.573569,80.75 C312.714194,80.8125003 312.815756,80.9140618 312.878256,81.0546875 L312.948569,86.4453125 C313.182945,85.3671821 313.561847,84.4687536 314.085287,83.75 C314.608728,83.0312464 315.198565,82.4648458 315.854819,82.0507812 C316.511072,81.6367167 317.194659,81.3671881 317.9056,81.2421875 C318.616541,81.1171869 319.276691,81.1093745 319.886069,81.21875 C320.089195,81.2656252 320.241537,81.3515619 320.3431,81.4765625 C320.444663,81.6015631 320.49935,81.7382805 320.507162,81.8867188 C320.514975,82.035157 320.475913,82.1757806 320.389975,82.3085938 C320.304037,82.4414069 320.190757,82.5390622 320.050131,82.6015625 C319.347003,82.5546873 318.686853,82.6132804 318.069662,82.7773438 C317.452472,82.9414071 316.889978,83.1835921 316.382162,83.5039062 C315.874347,83.8242204 315.429039,84.2031228 315.046225,84.640625 C314.663411,85.0781272 314.362632,85.5390601 314.143881,86.0234375 C313.815755,86.726566 313.593101,87.4648399 313.475912,88.2382812 C313.358724,89.0117226 313.288413,89.7812462 313.264975,90.546875 C313.241537,91.3125038 313.241537,92.0390591 313.264975,92.7265625 C313.288413,93.4140659 313.292319,94.0156224 313.276694,94.53125 C313.261069,94.7031259 313.186851,94.8320308 313.054037,94.9179688 C312.921224,95.0039067 312.772788,95.0507812 312.608725,95.0585938 C312.444662,95.0664063 312.280601,95.0273442 312.116537,94.9414062 C311.952474,94.8554683 311.839194,94.7265634 311.776694,94.5546875 Z M327.54292,94.765625 C327.324169,94.4374984 327.187451,94.0078152 327.132763,93.4765625 C327.078076,92.9453098 327.046826,92.3867217 327.039013,91.8007812 C327.031201,91.2148408 327.031201,90.6367216 327.039013,90.0664062 C327.046826,89.4960909 327.003858,89.0078145 326.910107,88.6015625 C326.175728,90.2109455 325.484329,91.4648393 324.835888,92.3632812 C324.187448,93.2617232 323.593704,93.9023418 323.054638,94.2851562 C322.515573,94.6679707 322.027297,94.8398439 321.589795,94.8007812 C321.152292,94.7617186 320.781202,94.6054701 320.476513,94.3320312 C320.171824,94.0585924 319.933546,93.7226582 319.76167,93.3242188 C319.589794,92.9257793 319.496045,92.5468768 319.48042,92.1875 C319.371044,91.593747 319.367138,90.8789104 319.468701,90.0429688 C319.570264,89.2070271 319.74995,88.3437545 320.007763,87.453125 C320.265577,86.5624955 320.593699,85.6914105 320.992138,84.8398438 C321.390578,83.988277 321.843698,83.2500031 322.351513,82.625 C322.859328,81.9999969 323.402292,81.5351578 323.98042,81.2304688 C324.558548,80.9257797 325.160104,80.874999 325.785107,81.078125 C326.097609,81.0468748 326.359325,81.0585935 326.570263,81.1132812 C326.781202,81.167969 326.956981,81.2812491 327.097607,81.453125 C327.238233,81.6250009 327.339794,81.8632797 327.402295,82.1679688 C327.464795,82.4726578 327.511669,82.8593727 327.54292,83.328125 C327.511669,84.8437576 327.554638,86.1328072 327.671826,87.1953125 C327.789014,88.2578178 327.925731,89.1953084 328.081982,90.0078125 C328.238233,90.8203166 328.390575,91.5546842 328.539013,92.2109375 C328.687452,92.8671908 328.777294,93.5468715 328.808545,94.25 C328.808545,94.5000013 328.746045,94.6914056 328.621045,94.8242188 C328.496044,94.9570319 328.35542,95.0429686 328.19917,95.0820312 C328.042919,95.1210939 327.898389,95.1093753 327.765576,95.046875 C327.632763,94.9843747 327.558545,94.8906256 327.54292,94.765625 Z M326.183545,82.9296875 C325.808543,82.429685 325.402297,82.2187496 324.964795,82.296875 C324.527292,82.3750004 324.093703,82.6445289 323.664013,83.1054688 C323.234324,83.5664086 322.824172,84.167965 322.433545,84.9101562 C322.042918,85.6523475 321.706984,86.4453083 321.425732,87.2890625 C321.144481,88.1328167 320.937452,88.9726521 320.804638,89.8085938 C320.671825,90.6445354 320.644482,91.3828093 320.722607,92.0234375 C320.941358,92.726566 321.206981,93.1484368 321.519482,93.2890625 C321.831984,93.4296882 322.167918,93.3789075 322.527295,93.1367188 C322.886671,92.89453 323.253855,92.5078152 323.628857,91.9765625 C324.003859,91.4453098 324.36323,90.8710968 324.706982,90.2539062 C325.050734,89.6367157 325.359325,89.0195343 325.632763,88.4023438 C325.906202,87.7851532 326.128856,87.2656271 326.300732,86.84375 L326.183545,82.9296875 Z M330.137271,85.90625 C329.824769,85.9218751 329.606021,85.8906254 329.481021,85.8125 C329.35602,85.7343746 329.285708,85.6367193 329.270083,85.5195312 C329.254458,85.4023432 329.277895,85.2773444 329.340396,85.1445312 C329.402896,85.0117181 329.473208,84.8906255 329.551333,84.78125 L332.387271,83.515625 C332.29352,82.4374946 332.242739,81.3593804 332.234927,80.28125 C332.227114,79.2031196 332.316957,78.2382855 332.504458,77.3867188 C332.691959,76.535152 333.00055,75.8632837 333.430239,75.3710938 C333.859929,74.8789038 334.465392,74.679687 335.246646,74.7734375 C335.621647,74.7734375 335.973206,74.89453 336.301333,75.1367188 C336.62946,75.3789075 336.914613,75.6796857 337.156802,76.0390625 C337.398991,76.3984393 337.594301,76.7890604 337.742739,77.2109375 C337.891178,77.6328146 337.965396,78.0156233 337.965396,78.359375 C337.949771,78.5156258 337.895084,78.6367183 337.801333,78.7226562 C337.707583,78.8085942 337.606021,78.8632811 337.496646,78.8867188 C337.38727,78.9101564 337.27399,78.9101564 337.156802,78.8867188 C337.039614,78.8632811 336.949771,78.8203128 336.887271,78.7578125 C336.82477,78.1953097 336.727115,77.7343768 336.594302,77.375 C336.461489,77.0156232 336.313053,76.7304698 336.148989,76.5195312 C335.984926,76.3085927 335.816959,76.1640629 335.645083,76.0859375 C335.473207,76.0078121 335.324771,75.96875 335.199771,75.96875 C334.699768,75.9843751 334.328678,76.1640608 334.086489,76.5078125 C333.844301,76.8515642 333.676334,77.3320282 333.582583,77.9492188 C333.488833,78.5664093 333.453677,79.3085894 333.477114,80.1757812 C333.500552,81.0429731 333.535708,82.0078072 333.582583,83.0703125 L338.645083,81.2421875 C338.816959,81.351563 338.934145,81.4882804 338.996646,81.6523438 C339.059146,81.8164071 338.981022,82.0624984 338.762271,82.390625 L333.676333,84.4765625 L334.379458,94.671875 C334.348208,94.7968756 334.270084,94.9023433 334.145083,94.9882812 C334.020082,95.0742192 333.879459,95.1289061 333.723208,95.1523438 C333.566957,95.1757814 333.422427,95.1523441 333.289614,95.0820312 C333.156801,95.0117184 333.074771,94.875001 333.043521,94.671875 L332.504458,84.8984375 L330.137271,85.90625 Z M341.778497,83.8671875 L339.622247,84.59375 C339.450371,84.5468748 339.305841,84.4609381 339.188653,84.3359375 C339.071465,84.2109369 338.989434,84.0781257 338.942559,83.9375 C338.895684,83.7968743 338.883965,83.6640631 338.907403,83.5390625 C338.93084,83.4140619 338.997246,83.3203128 339.106622,83.2578125 L341.778497,82.25 L341.731622,75.6171875 C341.778497,75.4140615 341.880058,75.2656255 342.036309,75.171875 C342.19256,75.0781245 342.352714,75.0351562 342.516778,75.0429688 C342.680841,75.0507813 342.833183,75.1054682 342.973809,75.2070312 C343.114435,75.3085943 343.208184,75.4374992 343.255059,75.59375 C343.223809,76.0781274 343.200372,76.5898411 343.184747,77.1289062 C343.169121,77.6679714 343.157403,78.2070286 343.14959,78.7460938 C343.141778,79.2851589 343.145684,79.8085912 343.161309,80.3164062 C343.176934,80.8242213 343.208184,81.2890604 343.255059,81.7109375 L346.887872,80.234375 C347.106623,80.1718747 347.278496,80.1914057 347.403497,80.2929688 C347.528497,80.3945318 347.610528,80.5273429 347.64959,80.6914062 C347.688653,80.8554696 347.676934,81.0156242 347.614434,81.171875 C347.551934,81.3281258 347.44256,81.4374997 347.286309,81.5 L343.255059,83.328125 C343.255059,83.4843758 343.262871,83.8554658 343.278497,84.4414062 C343.294122,85.0273467 343.309746,85.718746 343.325372,86.515625 C343.340997,87.312504 343.356621,88.164058 343.372247,89.0703125 C343.387872,89.976567 343.39959,90.828121 343.407403,91.625 C343.415215,92.421879 343.423028,93.1132783 343.43084,93.6992188 C343.438653,94.2851592 343.442559,94.6562492 343.442559,94.8125 C343.411309,95.3281276 343.262873,95.5859375 342.997247,95.5859375 C342.73162,95.5859375 342.442561,95.4609388 342.130059,95.2109375 L341.778497,83.8671875 Z" id="Med-vindens-kraft" stroke="#5C5C5C" fill="#5C5C5C"></path>
            </g>
        </g>
    </g>
</svg>
