<?xml version="1.0" encoding="UTF-8" standalone="no"?>
<svg width="258px" height="55px" viewBox="0 0 258 55" version="1.1" xmlns="http://www.w3.org/2000/svg" xmlns:xlink="http://www.w3.org/1999/xlink">
    <!-- Generator: Sketch 45.2 (43514) - http://www.bohemiancoding.com/sketch -->
    <title>GWE_Logo_4c Copy 3</title>
    <desc>Created with Sketch.</desc>
    <defs>
        <polygon id="path-1" points="0.724650536 53.5099942 0.724650536 0.536612044 259.606361 0.536612044 259.606361 27.0233031 259.606361 53.5099942 0.724650536 53.5099942"></polygon>
    </defs>
    <g id="Energy" stroke="none" stroke-width="1" fill="none" fill-rule="evenodd">
        <g id="Mobile-Copy-6" transform="translate(-32.000000, -139.000000)">
            <g id="GWE_Logo_4c-Copy-3" transform="translate(160.000000, 166.500000) rotate(-360.000000) translate(-160.000000, -166.500000) translate(30.000000, 139.000000)">
                <path d="M16.2920173,54.8524463 C13.3481491,54.8524463 10.2885423,54.3158342 6.93958896,53.2167938 L6.72864597,53.1448767 L8.07830778,48.0627365 L8.30791829,48.1291215 C10.8280337,48.8095677 13.4358865,49.5139863 16.0586733,49.5139863 C18.9372051,49.5139863 25.6332451,48.6749537 25.6332451,40.9245055 L25.6332451,27.9296427 C25.6332451,21.4515736 21.2594448,18.0622508 16.9397803,18.0622508 C10.3464117,18.0622508 8.0073712,23.4689398 8.0073712,28.1029813 C8.0073712,33.2607266 11.8024783,36.8621126 17.2309936,36.8621126 C19.5308323,36.8621126 21.694398,35.7925766 23.6936896,34.6326832 L24.044639,34.4316842 L24.044639,40.2514354 L23.9233001,40.3159764 C21.8642725,41.426081 19.088412,42.2042607 17.1749911,42.2042607 C8.73540454,42.2042607 2.37164643,36.0157039 2.37164643,27.815313 C2.37164643,19.0709339 8.59726488,12.7237907 17.1749911,12.7237907 C25.9991285,12.7237907 31.2708366,19.8657098 31.2708366,26.7715933 L31.2708366,39.1855874 C31.2708366,48.8482923 25.5324405,54.8524463 16.2920173,54.8524463" id="Fill-9" fill="#777776"></path>
                <path d="M41.3792996,41.6197039 L35.741708,41.6197039 L35.741708,13.3046595 L41.1459555,13.3046595 L41.1459555,16.146306 C42.852167,13.7841066 45.1968077,12.7237907 48.6652332,12.7237907 L50.0708976,12.7237907 L50.0708976,18.0622508 L49.0759187,18.0622508 C43.8956815,18.0622508 41.3792996,21.4405094 41.3792996,28.3906496 L41.3792996,41.6197039" id="Fill-10" fill="#777776"></path>
                <path d="M65.6844127,42.2540494 C63.0280244,42.2540494 60.319367,41.5127503 57.8571209,40.1112893 C54.4446979,38.1695282 51.9787183,35.086314 50.9109361,31.4351392 C49.8020853,27.6456624 50.3415767,23.5906456 52.4248721,20.015076 C55.1428632,15.3459981 59.9236155,12.5596723 65.2027906,12.5596723 C67.8311777,12.5596723 70.4390304,13.2530267 72.7482029,14.5641303 C78.1860519,17.6584087 80.7005671,22.5635222 80.218945,29.148545 L80.204011,29.3642962 L57.969126,29.0286832 L58.2118038,24.0018638 L58.4395475,24.0092399 L74.0586629,24.2249912 C73.4277006,22.0379744 72.5801952,20.6309813 70.050746,19.1889517 C68.5928125,18.3609832 67.0620758,17.942389 65.501471,17.942389 C62.262656,17.942389 59.3561229,19.7513801 57.5136385,22.9101994 C56.1621099,25.2262982 55.7234232,27.7618362 56.2890491,30.0447424 C56.8416077,32.3073643 58.3592772,34.2362172 60.5508442,35.486468 C62.2421217,36.4490504 63.7971262,36.9174334 65.3110622,36.9174334 C67.8517119,36.9174334 70.2504885,35.5620731 72.852741,32.6521975 L72.9964809,32.4899231 L77.5569564,35.8829339 L77.4281505,36.0636486 C74.6989589,39.9988036 70.4184962,42.2540494 65.6844127,42.2540494" id="Fill-11" fill="#777776"></path>
                <path d="M98.2704384,42.2540494 C95.6121833,42.2540494 92.9016592,41.5127503 90.4412798,40.1112893 C87.0288569,38.1695282 84.5628773,35.086314 83.4913615,31.4351392 C82.3862443,27.6456624 82.9257356,23.5906456 85.009031,20.015076 C87.7307557,15.3459981 92.5077745,12.5596723 97.7925498,12.5596723 C100.41907,12.5596723 103.025056,13.2530267 105.336095,14.5641303 C110.770211,17.6584087 113.284726,22.5635222 112.804971,29.148545 L112.786303,29.3642962 L90.553285,29.0286832 L90.7959627,24.0018638 L91.0255733,24.0092399 L106.646555,24.2249912 C106.013726,22.0379744 105.162487,20.6309813 102.636772,19.1889517 C101.176971,18.3609832 99.6499682,17.942389 98.0874967,17.942389 C94.8468149,17.942389 91.9365483,19.7513801 90.0977974,22.9101994 C88.7444021,25.2262982 88.3057154,27.7618362 88.873208,30.0447424 C89.4276334,32.3073643 90.9471697,34.2362172 93.1406034,35.486468 C94.8281474,36.4490504 96.3850187,36.9174334 97.8952212,36.9174334 C100.437738,36.9174334 102.836514,35.5620731 105.4369,32.6521975 L105.58064,32.4899231 L110.146716,35.8829339 L110.01791,36.0636486 C107.288718,39.9988036 103.006389,42.2540494 98.2704384,42.2540494" id="Fill-12" fill="#777776"></path>
                <path d="M140.968661,41.6197039 L135.331069,41.6197039 L135.331069,25.1433169 C135.331069,21.1694374 132.417069,18.0622508 128.694765,18.0622508 C124.972461,18.0622508 122.056594,21.1694374 122.056594,25.1433169 L122.056594,41.6197039 L116.419003,41.6197039 L116.419003,25.1433169 C116.419003,17.8317473 121.464834,12.7237907 128.694765,12.7237907 C135.920963,12.7237907 140.968661,17.8317473 140.968661,25.1433169 L140.968661,41.6197039" id="Fill-13" fill="#777776"></path>
                <path d="M173.873901,42.2042607 C170.510013,42.2042607 167.461607,40.7954236 165.648991,38.4184719 C163.834508,40.7954236 160.786101,42.2042607 157.425948,42.2042607 C151.629682,42.2042607 147.086007,37.9205845 147.086007,32.4548865 L147.086007,13.3046595 L152.721732,13.3046595 L152.721732,31.2949931 C152.721732,34.6769398 154.614619,36.8621126 157.539819,36.8621126 C161.049314,36.8621126 162.828328,34.7156644 162.828328,30.4799329 L162.828328,13.3046595 L168.47152,13.3046595 L168.47152,30.4799329 C168.47152,34.7765173 170.201999,36.8621126 173.760029,36.8621126 C176.681496,36.8621126 178.574383,34.6769398 178.574383,31.2949931 L178.574383,13.3046595 L184.211974,13.3046595 L184.211974,32.4548865 C184.211974,37.9205845 179.670166,42.2042607 173.873901,42.2042607" id="Fill-14" fill="#4D4E4C"></path>
                <path d="M190.333055,41.6197039 L195.972513,41.6197039 L195.972513,13.3046595 L190.333055,13.3046595 L190.333055,41.6197039 Z M193.153717,10.6363514 C190.954683,10.6363514 189.802897,8.97119449 189.802897,7.32632183 C189.802897,5.68698125 190.954683,4.02366832 193.153717,4.02366832 C195.350884,4.02366832 196.498937,5.68698125 196.498937,7.32632183 C196.498937,8.97119449 195.350884,10.6363514 193.153717,10.6363514 L193.153717,10.6363514 Z" id="Fill-15" fill="#4D4E4C"></path>
                <path d="M226.646984,41.6197039 L221.005659,41.6197039 L221.005659,25.1433169 C221.005659,21.1694374 218.091659,18.0622508 214.369355,18.0622508 C210.647052,18.0622508 207.731185,21.1694374 207.731185,25.1433169 L207.731185,41.6197039 L202.091727,41.6197039 L202.091727,25.1433169 C202.091727,17.8317473 207.141291,12.7237907 214.369355,12.7237907 C221.599287,12.7237907 226.646984,17.8317473 226.646984,25.1433169 L226.646984,41.6197039" id="Fill-16" fill="#4D4E4C"></path>
                <g id="Group-20">
                    <mask id="mask-2" fill="white">
                        <use xlink:href="#path-1"></use>
                    </mask>
                    <g id="Clip-18"></g>
                    <path d="M245.155832,42.2042607 C236.439966,42.2042607 230.348754,35.8571175 230.348754,26.7715933 C230.348754,19.0266772 236.540771,12.7237907 244.15712,12.7237907 C247.181258,12.7237907 249.908583,13.3987049 252.260691,14.7264048 L252.380163,14.7946338 L252.380163,20.7065864 L252.012413,20.4576427 C250.250199,19.2645568 247.414602,18.0622508 245.038227,18.0622508 C239.624645,18.0622508 235.990079,21.814847 235.990079,27.4040948 C235.990079,32.9767464 239.759052,36.8621126 245.155832,36.8621126 C250.507811,36.8621126 253.968769,32.4899231 253.968769,25.7223416 L253.968769,0.536612044 L259.606361,0.536612044 L259.606361,26.6517315 C259.606361,35.8073288 253.662622,42.2042607 245.155832,42.2042607" id="Fill-17" fill="#4D4E4C" mask="url(#mask-2)"></path>
                </g>
            </g>
        </g>
    </g>
</svg>