<?xml version="1.0" encoding="UTF-8" standalone="no"?>
<svg width="25px" height="16px" viewBox="0 0 25 16" version="1.1" xmlns="http://www.w3.org/2000/svg" xmlns:xlink="http://www.w3.org/1999/xlink">
    <!-- Generator: Sketch 45.2 (43514) - http://www.bohemiancoding.com/sketch -->
    <title>Combined Shape</title>
    <desc>Created with Sketch.</desc>
    <defs></defs>
    <g id="Energy" stroke="none" stroke-width="1" fill="none" fill-rule="evenodd" opacity="0.500874534">
        <g id="01-copy-25" transform="translate(-138.000000, -623.000000)" fill="#4A4A4A">
            <path d="M157.527826,632.094973 L162.148015,638.141738 L153.10105,636.641595 C152.389652,636.884917 151.626977,637.016958 150.833938,637.016958 L145.010294,637.016958 C141.138616,637.016958 138,633.871279 138,630.008479 C138,626.137803 141.144378,623 145.010294,623 L150.833938,623 C154.705617,623 157.844232,626.145679 157.844232,630.008479 C157.844232,630.735108 157.733421,631.435909 157.527826,632.094973 Z M142.252336,627.724817 C142.252336,628.513108 142.889625,629.142262 143.675761,629.142262 L151.066014,629.142262 C151.849063,629.142262 152.48944,628.507651 152.48944,627.724817 C152.48944,626.936526 151.85215,626.307372 151.066014,626.307372 L143.675761,626.307372 C142.892712,626.307372 142.252336,626.941984 142.252336,627.724817 Z M142.252336,632.292141 C142.252336,633.080432 142.884064,633.709586 143.663341,633.709586 L149.503495,633.709586 C150.277551,633.709586 150.9145,633.074974 150.9145,632.292141 C150.9145,631.503849 150.282772,630.874695 149.503495,630.874695 L143.663341,630.874695 C142.889285,630.874695 142.252336,631.509307 142.252336,632.292141 Z" id="Combined-Shape"></path>
        </g>
    </g>
</svg>