<?xml version="1.0" encoding="UTF-8"?>
<svg width="378px" height="238px" viewBox="0 0 378 238" version="1.1" xmlns="http://www.w3.org/2000/svg" xmlns:xlink="http://www.w3.org/1999/xlink">
    <!-- Generator: Sketch 55.2 (78181) - https://sketchapp.com -->
    <title>Group Copy 2</title>
    <desc>Created with Sketch.</desc>
    <defs>
        <rect id="path-1" x="3.69798993" y="6.98781654" width="354" height="208" rx="8"></rect>
        <filter x="-4.1%" y="-6.0%" width="108.2%" height="113.9%" filterUnits="objectBoundingBox" id="filter-2">
            <feOffset dx="0" dy="2" in="SourceAlpha" result="shadowOffsetOuter1"></feOffset>
            <feGaussianBlur stdDeviation="4.5" in="shadowOffsetOuter1" result="shadowBlurOuter1"></feGaussianBlur>
            <feColorMatrix values="0 0 0 0 0   0 0 0 0 0   0 0 0 0 0  0 0 0 0.31602382 0" type="matrix" in="shadowBlurOuter1"></feColorMatrix>
        </filter>
    </defs>
    <g id="Auswahl" stroke="none" stroke-width="1" fill="none" fill-rule="evenodd">
        <g id="Group-Copy-2" transform="translate(8.000000, 6.000000)">
            <g id="Rectangle" transform="translate(180.697990, 110.987817) rotate(-2.000000) translate(-180.697990, -110.987817) ">
                <use fill="black" fill-opacity="1" filter="url(#filter-2)" xlink:href="#path-1"></use>
                <use fill="#95B654" fill-rule="evenodd" xlink:href="#path-1"></use>
            </g>
            <path d="M70.104,34.872 L70.104,64 L66.804,64 L66.804,51.02 L49.864,51.02 L49.864,64 L46.564,64 L46.564,34.872 L49.864,34.872 L49.864,47.808 L66.804,47.808 L66.804,34.872 L70.104,34.872 Z M101.260714,34.872 L101.260714,51.46 C101.260714,55.3320194 100.109392,58.4486549 97.8067142,60.81 C95.504036,63.1713451 92.5193992,64.352 88.8527142,64.352 C85.2153627,64.352 82.2453924,63.1713451 79.9427142,60.81 C77.640036,58.4486549 76.4887142,55.3320194 76.4887142,51.46 L76.4887142,34.872 L79.7887142,34.872 L79.7887142,51.548 C79.7887142,54.6866824 80.7273715,57.1359912 82.6047142,58.896 C84.2180556,60.3920075 86.3007014,61.14 88.8527142,61.14 C91.404727,61.14 93.5020393,60.3920075 95.1447142,58.896 C97.0220569,57.1653247 97.9607142,54.7160158 97.9607142,51.548 L97.9607142,34.872 L101.260714,34.872 Z M110.989428,39.36 C110.432092,39.8293357 110.058096,40.3573304 109.867428,40.944 C109.676761,41.5306696 109.581428,42.1539967 109.581428,42.814 C109.581428,43.4740033 109.867426,44.0826639 110.439428,44.64 C111.011431,45.1973361 111.766757,45.6666648 112.705428,46.048 C113.6441,46.4293352 114.714756,46.7666652 115.917428,47.06 C117.120101,47.3533348 118.344756,47.6539985 119.591428,47.962 C120.838101,48.2700015 122.062756,48.621998 123.265428,49.018 C124.468101,49.414002 125.538757,49.9199969 126.477428,50.536 C128.560105,51.8560066 129.601428,53.6599886 129.601428,55.948 C129.601428,58.6760136 128.582105,60.7586595 126.543428,62.196 C124.504752,63.6333405 121.681446,64.352 118.073428,64.352 C113.996075,64.352 110.886772,63.5013418 108.745428,61.8 C106.838752,60.274659 105.75343,58.1040141 105.489428,55.288 L108.921428,55.288 C109.038762,57.2826766 110.006753,58.8079947 111.825428,59.864 C113.409436,60.7733379 115.506749,61.228 118.117428,61.228 C123.573456,61.228 126.301428,59.5120172 126.301428,56.08 C126.301428,54.9066608 125.8101,53.98267 124.827428,53.308 C123.844757,52.63333 122.612769,52.0760022 121.131428,51.636 C119.650088,51.1959978 118.051437,50.7853352 116.335428,50.404 C114.61942,50.0226648 113.020769,49.5313363 111.539428,48.93 C110.058088,48.3286637 108.8261,47.5366716 107.843428,46.554 C106.860757,45.5713284 106.369428,44.2440084 106.369428,42.572 C106.369428,40.1959881 107.278753,38.2600075 109.097428,36.764 C110.916104,35.2679925 113.658743,34.52 117.325428,34.52 C121.021447,34.52 123.881418,35.3706582 125.905428,37.072 C127.753438,38.5680075 128.736094,40.4893216 128.853428,42.836 L125.465428,42.836 C125.172094,40.4306546 123.617442,38.832004 120.801428,38.04 C119.80409,37.7466652 118.564769,37.6 117.083428,37.6 C115.602088,37.6 114.355433,37.768665 113.343428,38.106 C112.331423,38.443335 111.546765,38.8613308 110.989428,39.36 Z M158.734143,34.872 L158.734143,51.46 C158.734143,55.3320194 157.582821,58.4486549 155.280143,60.81 C152.977464,63.1713451 149.992828,64.352 146.326143,64.352 C142.688791,64.352 139.718821,63.1713451 137.416143,60.81 C135.113464,58.4486549 133.962143,55.3320194 133.962143,51.46 L133.962143,34.872 L137.262143,34.872 L137.262143,51.548 C137.262143,54.6866824 138.2008,57.1359912 140.078143,58.896 C141.691484,60.3920075 143.77413,61.14 146.326143,61.14 C148.878155,61.14 150.975468,60.3920075 152.618143,58.896 C154.495485,57.1653247 155.434143,54.7160158 155.434143,51.548 L155.434143,34.872 L158.734143,34.872 Z M193.454857,34.872 L193.454857,64 L190.154857,64 L190.154857,39.888 L179.374857,53.748 L168.418857,39.888 L168.418857,64 L165.118857,64 L165.118857,34.872 L168.946857,34.872 L179.374857,48.688 L189.626857,34.872 L193.454857,34.872 Z M56.2,110 L52.46,110 L43.396,80.872 L46.872,80.872 L54.352,105.336 L62.184,80.872 L65.968,80.872 L73.8,105.336 L81.28,80.872 L84.756,80.872 L75.692,110 L71.952,110 L64.076,85.536 L56.2,110 Z M87.6207142,88 L90.9207142,88 L90.9207142,110 L87.6207142,110 L87.6207142,88 Z M91.0527142,79.992 L91.0527142,84.304 L87.4887142,84.304 L87.4887142,79.992 L91.0527142,79.992 Z M99.5494284,88 L99.5494284,91.432 C100.341432,90.3759947 101.309423,89.481337 102.453428,88.748 C103.597434,88.014663 104.902754,87.648 106.369428,87.648 C107.836102,87.648 109.097423,87.8533313 110.153428,88.264 C111.209434,88.6746687 112.133424,89.2906626 112.925428,90.112 C114.744104,91.9013423 115.653428,94.262652 115.653428,97.196 L115.653428,110 L112.353428,110 L112.353428,97.284 C112.353428,95.2599899 111.781434,93.6466727 110.637428,92.444 C109.493423,91.2413273 108.012104,90.64 106.193428,90.64 C104.345419,90.64 102.776102,91.2559938 101.485428,92.488 C100.194755,93.7493396 99.5494284,95.3626568 99.5494284,97.328 L99.5494284,110 L96.2494284,110 L96.2494284,88 L99.5494284,88 Z M137.922143,106.48 C136.162134,109.061346 133.536827,110.352 130.046143,110.352 C126.878127,110.352 124.296819,109.252011 122.302143,107.052 C120.366133,104.881322 119.398143,102.197349 119.398143,99 C119.398143,95.8026507 120.366133,93.1186775 122.302143,90.948 C124.296819,88.747989 126.951459,87.648 130.266143,87.648 C133.580826,87.648 136.1328,88.9533203 137.922143,91.564 L137.922143,79.2 L141.222143,79.2 L141.222143,110 L137.922143,110 L137.922143,106.48 Z M130.486143,107.36 C132.862155,107.36 134.739469,106.538675 136.118143,104.896 C137.438149,103.341326 138.098143,101.376012 138.098143,99 C138.098143,96.6239881 137.438149,94.6586744 136.118143,93.104 C134.739469,91.4613251 132.862155,90.64 130.486143,90.64 C128.139464,90.64 126.232817,91.4613251 124.766143,93.104 C123.387469,94.6586744 122.698143,96.6239881 122.698143,99 C122.698143,101.376012 123.387469,103.341326 124.766143,104.896 C126.232817,106.538675 128.139464,107.36 130.486143,107.36 Z M174.627571,89.232 C174.627571,90.4933396 174.253575,91.7106608 173.505571,92.884 C172.757567,94.0573392 171.811577,95.1573282 170.667571,96.184 C169.523565,97.2106718 168.284244,98.1786621 166.949571,99.088 C165.614898,99.9973379 164.36091,100.884662 163.187571,101.75 C162.014232,102.615338 161.024242,103.465996 160.217571,104.302 C159.4109,105.138004 158.963571,105.981329 158.875571,106.832 L174.539571,106.832 L174.539571,110 L154.959571,110 L154.959571,108.196 C154.959571,106.758659 155.3629,105.446006 156.169571,104.258 C156.976242,103.069994 157.988232,101.955339 159.205571,100.914 C160.42291,99.8726615 161.735564,98.8900046 163.143571,97.966 C164.551578,97.0419954 165.864232,96.1106714 167.081571,95.172 C168.29891,94.2333286 169.3109,93.2800048 170.117571,92.312 C170.924242,91.3439952 171.327571,90.3026722 171.327571,89.188 C171.327571,87.4866582 170.76291,86.1520048 169.633571,85.184 C168.504232,84.2159952 166.927581,83.732 164.903571,83.732 C162.879561,83.732 161.25891,84.1646623 160.041571,85.03 C158.824232,85.8953377 158.098239,87.1493251 157.863571,88.792 L154.563571,88.792 C154.798239,86.3279877 155.868895,84.333341 157.775571,82.808 C159.682247,81.282659 161.984891,80.52 164.683571,80.52 C167.763586,80.52 170.212895,81.3413251 172.031571,82.984 C173.762246,84.5680079 174.627571,86.6506538 174.627571,89.232 Z M178.372285,95.436 C178.372285,85.4919503 181.774918,80.52 188.580285,80.52 C192.276304,80.578667 194.98961,82.1333181 196.720285,85.184 C198.098959,87.6480123 198.788285,91.0653115 198.788285,95.436 C198.788285,105.38005 195.385653,110.352 188.580285,110.352 C181.774918,110.352 178.372285,105.38005 178.372285,95.436 Z M188.580285,107.14 C192.452305,107.052 194.666949,104.514692 195.224285,99.528 C195.400286,98.1493264 195.488285,96.7853401 195.488285,95.436 C195.488285,91.5053137 194.945624,88.5720097 193.860285,86.636 C192.774946,84.6999903 191.014964,83.732 188.580285,83.732 C186.145606,83.732 184.385624,84.6999903 183.300285,86.636 C182.214946,88.5720097 181.672285,91.5053137 181.672285,95.436 C181.672285,99.3666863 182.214946,102.29999 183.300285,104.236 C184.385624,106.17201 186.145606,107.14 188.580285,107.14 Z M215.688999,80.872 L215.688999,110 L212.388999,110 L212.388999,84.04 L206.228999,84.04 L206.228999,80.872 L215.688999,80.872 Z M230.125714,103.224 C230.947051,105.83468 232.692367,107.14 235.361714,107.14 C237.94306,107.14 239.908374,105.981345 241.257714,103.664 C242.48972,101.610656 243.105714,98.8240176 243.105714,95.304 C242.40171,96.5360062 241.36772,97.5333295 240.003714,98.296 C238.639707,99.0586705 237.202388,99.44 235.691714,99.44 C234.181039,99.44 232.824386,99.2053357 231.621714,98.736 C230.419041,98.2666643 229.377718,97.6213374 228.497714,96.8 C226.561704,94.9813242 225.593714,92.7080136 225.593714,89.98 C225.593714,87.3106533 226.57637,85.0520092 228.541714,83.204 C230.44839,81.4146577 232.8097,80.52 235.625714,80.52 C239.175065,80.52 241.859038,81.8033205 243.677714,84.37 C245.496389,86.9366795 246.405714,90.6253093 246.405714,95.436 C246.405714,102.622703 244.337734,107.242656 240.201714,109.296 C238.82304,110.000004 237.319722,110.352 235.691714,110.352 C234.063706,110.352 232.736385,110.146669 231.709714,109.736 C230.683042,109.325331 229.817717,108.78267 229.113714,108.108 C227.705707,106.817327 226.811049,105.189343 226.429714,103.224 L230.125714,103.224 Z M235.625714,96.316 C236.535052,96.316 237.400376,96.1693348 238.221714,95.876 C239.043051,95.5826652 239.761711,95.1573361 240.377714,94.6 C241.69772,93.4559943 242.357714,91.9893423 242.357714,90.2 C242.357714,88.3226573 241.69772,86.7680062 240.377714,85.536 C239.145707,84.3333273 237.561723,83.732 235.625714,83.732 C233.748371,83.732 232.164387,84.3186608 230.873714,85.492 C229.553707,86.6946727 228.893714,88.1906577 228.893714,89.98 C228.893714,91.7693423 229.553707,93.2799938 230.873714,94.512 C232.19372,95.7146727 233.777704,96.316 235.625714,96.316 Z" id="HUSUMWind2019" fill="#FFFFFF" fill-rule="nonzero" transform="translate(144.900857, 72.436000) rotate(-2.000000) translate(-144.900857, -72.436000) "></path>
            <path d="M53.55,127.154 L53.55,149 L51.075,149 L51.075,129.53 L46.455,129.53 L46.455,127.154 L53.55,127.154 Z M61.2755357,138.077 C61.2755357,130.618963 63.8275101,126.89 68.9315357,126.89 C71.7035495,126.934 73.7385292,128.099989 75.0365357,130.388 C76.0705408,132.236009 76.5875357,134.798984 76.5875357,138.077 C76.5875357,145.535037 74.0355612,149.264 68.9315357,149.264 C63.8275101,149.264 61.2755357,145.535037 61.2755357,138.077 Z M68.9315357,146.855 C71.8355502,146.789 73.4965336,144.886019 73.9145357,141.146 C74.0465363,140.111995 74.1125357,139.089005 74.1125357,138.077 C74.1125357,135.128985 73.7055397,132.929007 72.8915357,131.477 C72.0775316,130.024993 70.7575448,129.299 68.9315357,129.299 C67.1055265,129.299 65.7855397,130.024993 64.9715357,131.477 C64.1575316,132.929007 63.7505357,135.128985 63.7505357,138.077 C63.7505357,141.025015 64.1575316,143.224993 64.9715357,144.677 C65.7855397,146.129007 67.1055265,146.855 68.9315357,146.855 Z M86.197607,138.044 L94.447607,138.044 L94.447607,140.453 L86.197607,140.453 L86.197607,138.044 Z M107.453143,127.154 L107.453143,149 L104.978143,149 L104.978143,129.53 L100.358143,129.53 L100.358143,127.154 L107.453143,127.154 Z M126.299678,137.351 C127.575685,137.835002 128.565675,138.555495 129.269678,139.5125 C129.973682,140.469505 130.325678,141.486995 130.325678,142.565 C130.325678,143.643005 130.13318,144.583496 129.748178,145.3865 C129.363176,146.189504 128.829682,146.876997 128.147678,147.449 C126.739671,148.659006 124.990689,149.264 122.900678,149.264 C120.832668,149.264 119.061686,148.681006 117.587678,147.515 C116.113671,146.326994 115.288679,144.897008 115.112678,143.225 L117.620678,143.225 C117.796679,144.237005 118.379673,145.094996 119.369678,145.799 C120.381683,146.503004 121.558672,146.855 122.900678,146.855 C124.418686,146.855 125.639674,146.459004 126.563678,145.667 C127.421683,144.918996 127.850678,143.962006 127.850678,142.796 C127.850678,141.651994 127.410683,140.684004 126.530678,139.892 C125.606674,139.055996 124.473685,138.638 123.131678,138.638 L120.623678,138.638 L120.623678,136.361 L122.834678,136.361 C123.978684,136.361 124.979674,136.031003 125.837678,135.371 C126.695683,134.710997 127.124678,133.853005 127.124678,132.797 C127.124678,131.740995 126.761682,130.894003 126.035678,130.256 C125.309675,129.617997 124.248185,129.299 122.851178,129.299 C121.454171,129.299 120.354182,129.606997 119.551178,130.223 C118.748174,130.839003 118.269679,131.564996 118.115678,132.401 L115.706678,132.401 C115.860679,130.948993 116.531672,129.695005 117.719678,128.639 C119.039685,127.472994 120.700668,126.89 122.702678,126.89 C124.814689,126.89 126.497672,127.439994 127.751678,128.54 C128.983684,129.596005 129.599678,130.981991 129.599678,132.698 C129.599678,133.710005 129.225682,134.699995 128.477678,135.668 C127.817675,136.570005 127.091682,137.130999 126.299678,137.351 Z M143.53275,130.52 C143.114747,130.872002 142.83425,131.267998 142.69125,131.708 C142.548249,132.148002 142.47675,132.615498 142.47675,133.1105 C142.47675,133.605502 142.691247,134.061998 143.12025,134.48 C143.549252,134.898002 144.115746,135.249999 144.81975,135.536 C145.523753,135.822001 146.326745,136.074999 147.22875,136.295 C148.130754,136.515001 149.049245,136.740499 149.98425,136.9715 C150.919254,137.202501 151.837745,137.466499 152.73975,137.7635 C153.641754,138.060501 154.444746,138.439998 155.14875,138.902 C156.710757,139.892005 157.49175,141.244991 157.49175,142.961 C157.49175,145.00701 156.727257,146.568995 155.19825,147.647 C153.669242,148.725005 151.551763,149.264 148.84575,149.264 C145.787734,149.264 143.455758,148.626006 141.84975,147.35 C140.419742,146.205994 139.605751,144.578011 139.40775,142.466 L141.98175,142.466 C142.06975,143.962007 142.795743,145.105996 144.15975,145.898 C145.347756,146.580003 146.92074,146.921 148.87875,146.921 C152.97077,146.921 155.01675,145.634013 155.01675,143.06 C155.01675,142.179996 154.648253,141.487003 153.91125,140.981 C153.174246,140.474997 152.250255,140.057002 151.13925,139.727 C150.028244,139.396998 148.829256,139.089001 147.54225,138.803 C146.255243,138.516999 145.056255,138.148502 143.94525,137.6975 C142.834244,137.246498 141.910253,136.652504 141.17325,135.9155 C140.436246,135.178496 140.06775,134.183006 140.06775,132.929 C140.06775,131.146991 140.749743,129.695006 142.11375,128.573 C143.477756,127.450994 145.534736,126.89 148.28475,126.89 C151.056763,126.89 153.201742,127.527994 154.71975,128.804 C156.105757,129.926006 156.842749,131.366991 156.93075,133.127 L154.38975,133.127 C154.169748,131.322991 153.00376,130.124003 150.89175,129.53 C150.143746,129.309999 149.214255,129.2 148.10325,129.2 C146.992244,129.2 146.057253,129.326499 145.29825,129.5795 C144.539246,129.832501 143.950752,130.145998 143.53275,130.52 Z M167.857285,147.02 C170.079296,147.02 171.67428,146.096009 172.642285,144.248 L175.348285,144.248 C174.776282,145.744007 173.868791,146.953995 172.625785,147.878 C171.382779,148.802005 169.782295,149.264 167.824285,149.264 C165.338273,149.264 163.314293,148.439008 161.752285,146.789 C160.234278,145.182992 159.475285,143.170012 159.475285,140.75 C159.475285,138.307988 160.201278,136.295008 161.653285,134.711 C163.193293,133.060992 165.195273,132.236 167.659285,132.236 C170.123298,132.236 172.125278,133.060992 173.665285,134.711 C175.117293,136.295008 175.843285,138.307988 175.843285,140.75 L175.843285,141.74 L162.016285,141.74 C162.192286,143.258008 162.79728,144.511995 163.831285,145.502 C164.887291,146.514005 166.229277,147.02 167.857285,147.02 Z M167.659285,134.48 C166.141278,134.48 164.86529,134.952995 163.831285,135.899 C162.86328,136.801005 162.269286,137.977993 162.049285,139.43 L173.269285,139.43 C173.049285,137.977993 172.45529,136.801005 171.487285,135.899 C170.45328,134.952995 169.177293,134.48 167.659285,134.48 Z M181.060821,135.14 C182.380827,133.20399 184.349808,132.236 186.967821,132.236 C189.343833,132.236 191.268814,133.060992 192.742821,134.711 C194.216828,136.339008 194.953821,138.351988 194.953821,140.75 C194.953821,143.148012 194.216828,145.160992 192.742821,146.789 C191.268814,148.439008 189.288833,149.264 186.802821,149.264 C184.316808,149.264 182.402828,148.28501 181.060821,146.327 L181.060821,155.534 L178.585821,155.534 L178.585821,132.5 L181.060821,132.5 L181.060821,135.14 Z M186.637821,134.48 C184.855812,134.48 183.447826,135.095994 182.413821,136.328 C181.423816,137.494006 180.928821,138.967991 180.928821,140.75 C180.928821,142.532009 181.423816,144.005994 182.413821,145.172 C183.447826,146.404006 184.855812,147.02 186.637821,147.02 C188.39783,147.02 189.827815,146.404006 190.927821,145.172 C191.961826,144.005994 192.478821,142.532009 192.478821,140.75 C192.478821,138.967991 191.961826,137.494006 190.927821,136.328 C189.827815,135.095994 188.39783,134.48 186.637821,134.48 Z M199.379357,149 L199.379357,134.678 L196.013357,134.678 L196.013357,132.5 L199.379357,132.5 L199.379357,126.593 L201.854357,126.593 L201.854357,132.5 L205.649357,132.5 L205.649357,134.678 L201.854357,134.678 L201.854357,149 L199.379357,149 Z M215.090892,147.02 C217.312903,147.02 218.907887,146.096009 219.875892,144.248 L222.581892,144.248 C222.009889,145.744007 221.102398,146.953995 219.859392,147.878 C218.616386,148.802005 217.015902,149.264 215.057892,149.264 C212.57188,149.264 210.5479,148.439008 208.985892,146.789 C207.467885,145.182992 206.708892,143.170012 206.708892,140.75 C206.708892,138.307988 207.434885,136.295008 208.886892,134.711 C210.4269,133.060992 212.42888,132.236 214.892892,132.236 C217.356905,132.236 219.358885,133.060992 220.898892,134.711 C222.350899,136.295008 223.076892,138.307988 223.076892,140.75 L223.076892,141.74 L209.249892,141.74 C209.425893,143.258008 210.030887,144.511995 211.064892,145.502 C212.120897,146.514005 213.462884,147.02 215.090892,147.02 Z M214.892892,134.48 C213.374885,134.48 212.098897,134.952995 211.064892,135.899 C210.096887,136.801005 209.502893,137.977993 209.282892,139.43 L220.502892,139.43 C220.282892,137.977993 219.688897,136.801005 218.720892,135.899 C217.686887,134.952995 216.4109,134.48 214.892892,134.48 Z M228.294428,135.008 C229.394433,133.159991 231.066417,132.236 233.310428,132.236 C234.410433,132.236 235.427923,132.527497 236.362928,133.1105 C237.297933,133.693503 238.029425,134.512995 238.557428,135.569 C239.305432,134.182993 240.47142,133.193003 242.055428,132.599 C242.693431,132.356999 243.413924,132.236 244.216928,132.236 C245.019932,132.236 245.789924,132.395498 246.526928,132.7145 C247.263932,133.033502 247.918425,133.489997 248.490428,134.084 C249.722434,135.404007 250.338428,137.05399 250.338428,139.034 L250.338428,149 L247.863428,149 L247.863428,139.1 C247.863428,137.736 247.478432,136.614004 246.708428,135.734 C245.938424,134.897996 244.959434,134.48 243.771428,134.48 C242.517422,134.48 241.472432,134.886996 240.636428,135.701 C239.756423,136.537004 239.316428,137.680993 239.316428,139.133 L239.316428,149 L236.841428,149 L236.841428,139.1 C236.841428,137.736 236.456432,136.614004 235.686428,135.734 C234.916424,134.897996 233.937434,134.48 232.749428,134.48 C231.495422,134.48 230.450432,134.886996 229.614428,135.701 C228.734423,136.537004 228.294428,137.680993 228.294428,139.133 L228.294428,149 L225.819428,149 L225.819428,132.5 L228.294428,132.5 L228.294428,135.008 Z M256.644964,135.173 C257.98697,133.21499 259.955951,132.236 262.551964,132.236 C264.927975,132.236 266.852956,133.060992 268.326964,134.711 C269.800971,136.339008 270.537964,138.351988 270.537964,140.75 C270.537964,143.148012 269.800971,145.160992 268.326964,146.789 C266.852956,148.439008 264.867476,149.264 262.370464,149.264 C259.873451,149.264 257.96497,148.29601 256.644964,146.36 L256.644964,149 L254.169964,149 L254.169964,125.9 L256.644964,125.9 L256.644964,135.173 Z M262.221964,147.02 C263.981972,147.02 265.411958,146.404006 266.511964,145.172 C267.545969,144.005994 268.062964,142.532009 268.062964,140.75 C268.062964,138.967991 267.545969,137.494006 266.511964,136.328 C265.411958,135.095994 263.981972,134.48 262.221964,134.48 C260.439955,134.48 259.031969,135.095994 257.997964,136.328 C257.007959,137.494006 256.512964,138.967991 256.512964,140.75 C256.512964,142.532009 257.007959,144.005994 257.997964,145.172 C259.031969,146.404006 260.439955,147.02 262.221964,147.02 Z M280.837499,147.02 C283.05951,147.02 284.654494,146.096009 285.622499,144.248 L288.328499,144.248 C287.756496,145.744007 286.849005,146.953995 285.605999,147.878 C284.362993,148.802005 282.762509,149.264 280.804499,149.264 C278.318487,149.264 276.294507,148.439008 274.732499,146.789 C273.214492,145.182992 272.455499,143.170012 272.455499,140.75 C272.455499,138.307988 273.181492,136.295008 274.633499,134.711 C276.173507,133.060992 278.175487,132.236 280.639499,132.236 C283.103511,132.236 285.105491,133.060992 286.645499,134.711 C288.097506,136.295008 288.823499,138.307988 288.823499,140.75 L288.823499,141.74 L274.996499,141.74 C275.1725,143.258008 275.777494,144.511995 276.811499,145.502 C277.867504,146.514005 279.209491,147.02 280.837499,147.02 Z M280.639499,134.48 C279.121492,134.48 277.845504,134.952995 276.811499,135.899 C275.843494,136.801005 275.2495,137.977993 275.029499,139.43 L286.249499,139.43 C286.029499,137.977993 285.435504,136.801005 284.467499,135.899 C283.433494,134.952995 282.157507,134.48 280.639499,134.48 Z M300.278035,132.236 L300.278035,134.711 L299.981035,134.711 C298.199026,134.711 296.74704,135.425993 295.625035,136.856 C294.56903,138.220007 294.041035,139.847991 294.041035,141.74 L294.041035,149 L291.566035,149 L291.566035,132.5 L294.041035,132.5 L294.041035,136.559 C294.569037,134.842991 295.713026,133.578004 297.473035,132.764 C298.199038,132.411998 299.07903,132.236 300.113035,132.236 L300.278035,132.236 Z" id="10-13September" fill="#FFFFFF" fill-rule="nonzero" transform="translate(173.366517, 140.717000) rotate(-2.000000) translate(-173.366517, -140.717000) "></path>
            <path d="M53.68,172.3 L53.68,179.2 L64.45,179.2 L64.45,181.39 L53.68,181.39 L53.68,190 L51.43,190 L51.43,170.14 L65.77,170.14 L65.77,172.3 L53.68,172.3 Z M68.0232142,175 L70.2732142,175 L70.2732142,190 L68.0232142,190 L68.0232142,175 Z M70.3632142,169.54 L70.3632142,172.48 L67.9332142,172.48 L67.9332142,169.54 L70.3632142,169.54 Z M76.1564285,175 L76.1564285,177.34 C76.6964312,176.619996 77.3564246,176.010002 78.1364285,175.51 C78.9164324,175.009997 79.8064235,174.76 80.8064285,174.76 C81.8064335,174.76 82.6664249,174.899999 83.3864285,175.18 C84.1064321,175.460001 84.7364258,175.879997 85.2764285,176.44 C86.5164347,177.660006 87.1364285,179.26999 87.1364285,181.27 L87.1364285,190 L84.8864285,190 L84.8864285,181.33 C84.8864285,179.949993 84.4964324,178.850004 83.7164285,178.03 C82.9364246,177.209996 81.9264347,176.8 80.6864285,176.8 C79.4264222,176.8 78.3564329,177.219996 77.4764285,178.06 C76.5964241,178.920004 76.1564285,180.019993 76.1564285,181.36 L76.1564285,190 L73.9064285,190 L73.9064285,175 L76.1564285,175 Z M102.319643,187.6 C101.119637,189.360009 99.3296546,190.24 96.9496427,190.24 C94.7896319,190.24 93.0296495,189.490007 91.6696427,187.99 C90.3496361,186.509993 89.6896427,184.680011 89.6896427,182.5 C89.6896427,180.319989 90.3496361,178.490007 91.6696427,177.01 C93.0296495,175.509992 94.8396314,174.76 97.0996427,174.76 C99.359654,174.76 101.099637,175.649991 102.319643,177.43 L102.319643,169 L104.569643,169 L104.569643,190 L102.319643,190 L102.319643,187.6 Z M97.2496427,188.2 C98.8696508,188.2 100.149638,187.640006 101.089643,186.52 C101.989647,185.459995 102.439643,184.120008 102.439643,182.5 C102.439643,180.879992 101.989647,179.540005 101.089643,178.48 C100.149638,177.359994 98.8696508,176.8 97.2496427,176.8 C95.6496347,176.8 94.3496477,177.359994 93.3496427,178.48 C92.409638,179.540005 91.9396427,180.879992 91.9396427,182.5 C91.9396427,184.120008 92.409638,185.459995 93.3496427,186.52 C94.3496477,187.640006 95.6496347,188.2 97.2496427,188.2 Z M125.156071,190 L125.156071,187.66 C124.616068,188.380004 123.956075,188.989997 123.176071,189.49 C122.396067,189.990002 121.506076,190.24 120.506071,190.24 C119.506066,190.24 118.646075,190.100001 117.926071,189.82 C117.206068,189.539999 116.576074,189.120003 116.036071,188.56 C114.796065,187.339994 114.176071,185.73001 114.176071,183.73 L114.176071,175 L116.426071,175 L116.426071,183.67 C116.426071,185.050007 116.816067,186.149996 117.596071,186.97 C118.376075,187.790004 119.386065,188.2 120.626071,188.2 C121.886077,188.2 122.956067,187.780004 123.836071,186.94 C124.716076,186.079996 125.156071,184.980007 125.156071,183.64 L125.156071,175 L127.406071,175 L127.406071,190 L125.156071,190 Z M139.859285,179.02 C139.659284,177.459992 138.404297,176.68 136.094285,176.68 C133.784274,176.68 132.629285,177.399993 132.629285,178.84 C132.629285,179.440003 132.874283,179.894998 133.364285,180.205 C133.854288,180.515002 134.469282,180.769999 135.209285,180.97 C135.949289,181.170001 136.754281,181.354999 137.624285,181.525 C138.49429,181.695001 139.299282,181.934998 140.039285,182.245 C140.779289,182.555002 141.394283,182.979997 141.884285,183.52 C142.374288,184.060003 142.619285,184.799995 142.619285,185.74 C142.619285,187.200007 142.069291,188.314996 140.969285,189.085 C139.86928,189.855004 138.379295,190.24 136.499285,190.24 C134.499275,190.24 132.909291,189.740005 131.729285,188.74 C130.64928,187.859996 130.069286,186.710007 129.989285,185.29 L132.329285,185.29 C132.469286,186.670007 133.249278,187.599998 134.669285,188.08 C135.189288,188.240001 135.704283,188.32 136.214285,188.32 C136.724288,188.32 137.199283,188.29 137.639285,188.23 C138.079288,188.17 138.509283,188.060001 138.929285,187.9 C139.88929,187.519998 140.369285,186.870005 140.369285,185.95 C140.369285,185.329997 140.124288,184.855002 139.634285,184.525 C139.144283,184.194998 138.529289,183.925001 137.789285,183.715 C137.049282,183.504999 136.24429,183.315001 135.374285,183.145 C134.504281,182.974999 133.699289,182.740001 132.959285,182.44 C132.219282,182.139998 131.604288,181.730003 131.114285,181.21 C130.624283,180.689997 130.379285,179.970005 130.379285,179.05 C130.379285,177.689993 130.87428,176.635004 131.864285,175.885 C132.85429,175.134996 134.319276,174.76 136.259285,174.76 C138.099295,174.76 139.54928,175.199996 140.609285,176.08 C141.489285,176.820004 141.999285,177.799994 142.139285,179.02 L139.859285,179.02 Z M153.605714,169 L153.605714,177.34 C154.145717,176.619996 154.80571,176.010002 155.585714,175.51 C156.365718,175.009997 157.255709,174.76 158.255714,174.76 C159.255719,174.76 160.11571,174.899999 160.835714,175.18 C161.555717,175.460001 162.185711,175.879997 162.725714,176.44 C163.96572,177.660006 164.585714,179.26999 164.585714,181.27 L164.585714,190 L162.335714,190 L162.335714,181.33 C162.335714,179.949993 161.945718,178.850004 161.165714,178.03 C160.38571,177.209996 159.37572,176.8 158.135714,176.8 C156.875708,176.8 155.805718,177.219996 154.925714,178.06 C154.045709,178.920004 153.605714,180.019993 153.605714,181.36 L153.605714,190 L151.355714,190 L151.355714,169 L153.605714,169 Z M174.758928,188.2 C176.778938,188.2 178.228924,187.360008 179.108928,185.68 L181.568928,185.68 C181.048925,187.040007 180.223934,188.139996 179.093928,188.98 C177.963922,189.820004 176.508937,190.24 174.728928,190.24 C172.468917,190.24 170.628935,189.490007 169.208928,187.99 C167.828921,186.529993 167.138928,184.700011 167.138928,182.5 C167.138928,180.279989 167.798921,178.450007 169.118928,177.01 C170.518935,175.509992 172.338917,174.76 174.578928,174.76 C176.818939,174.76 178.638928,175.509992 180.038928,177.01 C181.358935,178.450007 182.018928,180.279989 182.018928,182.5 L182.018928,183.4 L169.448928,183.4 C169.608929,184.780007 170.158923,185.919995 171.098928,186.82 C172.058933,187.740005 173.278921,188.2 174.758928,188.2 Z M174.578928,176.8 C173.198921,176.8 172.038933,177.229996 171.098928,178.09 C170.218924,178.910004 169.678929,179.979993 169.478928,181.3 L179.678928,181.3 C179.478928,179.979993 178.938932,178.910004 178.058928,178.09 C177.118923,177.229996 175.958935,176.8 174.578928,176.8 Z M192.432142,174.76 L192.432142,177.01 L192.162142,177.01 C190.542134,177.01 189.222147,177.659993 188.202142,178.96 C187.242138,180.200006 186.762142,181.679991 186.762142,183.4 L186.762142,190 L184.512142,190 L184.512142,175 L186.762142,175 L186.762142,178.69 C187.242145,177.129992 188.282134,175.980004 189.882142,175.24 C190.542146,174.919998 191.342138,174.76 192.282142,174.76 L192.432142,174.76 Z M200.895357,188.2 C202.915367,188.2 204.365352,187.360008 205.245357,185.68 L207.705357,185.68 C207.185354,187.040007 206.360362,188.139996 205.230357,188.98 C204.100351,189.820004 202.645365,190.24 200.865357,190.24 C198.605345,190.24 196.765364,189.490007 195.345357,187.99 C193.96535,186.529993 193.275357,184.700011 193.275357,182.5 C193.275357,180.279989 193.93535,178.450007 195.255357,177.01 C196.655364,175.509992 198.475345,174.76 200.715357,174.76 C202.955368,174.76 204.775357,175.509992 206.175357,177.01 C207.495363,178.450007 208.155357,180.279989 208.155357,182.5 L208.155357,183.4 L195.585357,183.4 C195.745357,184.780007 196.295352,185.919995 197.235357,186.82 C198.195361,187.740005 199.415349,188.2 200.895357,188.2 Z M200.715357,176.8 C199.33535,176.8 198.175361,177.229996 197.235357,178.09 C196.355352,178.910004 195.815358,179.979993 195.615357,181.3 L205.815357,181.3 C205.615357,179.979993 205.075361,178.910004 204.195357,178.09 C203.255352,177.229996 202.095363,176.8 200.715357,176.8 Z M213.198571,186.94 L213.198571,190 L210.288571,190 L210.288571,186.94 L213.198571,186.94 Z M213.198571,175 L213.198571,178.06 L210.288571,178.06 L210.288571,175 L213.198571,175 Z M225.504999,178.06 C226.525004,177.439997 227.614993,177.13 228.774999,177.13 C229.935005,177.13 230.924995,177.289998 231.744999,177.61 C232.565003,177.930002 233.264996,178.379997 233.844999,178.96 C235.085005,180.160006 235.704999,181.71999 235.704999,183.64 C235.704999,185.480009 235.065006,187.039994 233.784999,188.32 C232.504993,189.600006 230.925009,190.24 229.044999,190.24 C226.764988,190.24 224.985006,189.620006 223.704999,188.38 C222.764995,187.479995 222.165001,186.360007 221.904999,185.02 L224.214999,185.02 C224.675002,186.380007 225.614992,187.299998 227.034999,187.78 C227.575002,187.960001 228.199996,188.05 228.909999,188.05 C229.620003,188.05 230.249996,187.935001 230.799999,187.705 C231.350002,187.474999 231.824997,187.160002 232.224999,186.76 C233.045003,185.899996 233.454999,184.860006 233.454999,183.64 C233.454999,182.339993 233.045003,181.280004 232.224999,180.46 C231.404999,179.64 230.335006,179.23 229.014999,179.23 C228.114995,179.23 227.320003,179.394998 226.629999,179.725 C225.939996,180.055002 225.425001,180.419998 225.084999,180.82 L223.014999,179.56 L224.364999,170.14 L234.714999,170.14 L234.714999,172.3 L226.404999,172.3 L225.504999,178.06 Z M254.488213,175.39 C254.488213,177.570011 253.598222,179.059996 251.818213,179.86 C253.458222,180.400003 254.57821,181.389993 255.178213,182.83 C255.398215,183.390003 255.508213,184.039996 255.508213,184.78 C255.508213,187.180012 254.238226,188.779996 251.698213,189.58 C250.858209,189.860001 249.868219,190 248.728213,190 L239.308213,190 L239.308213,170.14 L248.218213,170.14 C250.358224,170.14 251.988208,170.719994 253.108213,171.88 C254.028218,172.800005 254.488213,173.969993 254.488213,175.39 Z M241.558213,179.02 L248.218213,179.02 C250.058213,179.02 251.28821,178.390006 251.908213,177.13 C252.128215,176.689998 252.238213,176.215003 252.238213,175.705 C252.238213,175.194997 252.168214,174.745002 252.028213,174.355 C251.888213,173.964998 251.668215,173.620001 251.368213,173.32 C250.70821,172.619996 249.73822,172.27 248.458213,172.27 L241.558213,172.27 L241.558213,179.02 Z M248.968213,187.87 C250.34822,187.87 251.40821,187.585003 252.148213,187.015 C252.888217,186.444997 253.258213,185.640005 253.258213,184.6 C253.258213,183.599995 252.898217,182.780003 252.178213,182.14 C251.378209,181.419996 250.228221,181.06 248.728213,181.06 L241.558213,181.06 L241.558213,187.87 L248.968213,187.87 Z M271.441428,175.84 C271.441428,176.700004 271.18643,177.529996 270.676428,178.33 C270.166425,179.130004 269.521432,179.879996 268.741428,180.58 C267.961424,181.280003 267.116432,181.939997 266.206428,182.56 C265.296423,183.180003 264.441432,183.784997 263.641428,184.375 C262.841424,184.965003 262.16643,185.544997 261.616428,186.115 C261.066425,186.685003 260.761428,187.259997 260.701428,187.84 L271.381428,187.84 L271.381428,190 L258.031428,190 L258.031428,188.77 C258.031428,187.789995 258.306425,186.895004 258.856428,186.085 C259.40643,185.274996 260.096424,184.515004 260.926428,183.805 C261.756432,183.094996 262.651423,182.425003 263.611428,181.795 C264.571433,181.164997 265.466424,180.530003 266.296428,179.89 C267.126432,179.249997 267.816425,178.600003 268.366428,177.94 C268.91643,177.279997 269.191428,176.570004 269.191428,175.81 C269.191428,174.649994 268.806432,173.740003 268.036428,173.08 C267.266424,172.419997 266.191435,172.09 264.811428,172.09 C263.431421,172.09 262.326432,172.384997 261.496428,172.975 C260.666424,173.565003 260.171429,174.419994 260.011428,175.54 L257.761428,175.54 C257.921429,173.859992 258.651421,172.500005 259.951428,171.46 C261.251434,170.419995 262.821419,169.9 264.661428,169.9 C266.761438,169.9 268.431422,170.459994 269.671428,171.58 C270.851434,172.660005 271.441428,174.079991 271.441428,175.84 Z M287.884642,170.14 L287.884642,172.69 L279.604642,190 L276.994642,190 L285.574642,172.3 L274.114642,172.3 L274.114642,170.14 L287.884642,170.14 Z" id="Findushere:5B27" fill="#FFFFFF" fill-rule="nonzero" transform="translate(169.657321, 179.620000) rotate(-2.000000) translate(-169.657321, -179.620000) "></path>
        </g>
    </g>
</svg>