<?xml version="1.0" encoding="utf-8"?>
<!-- Generator: Adobe Illustrator 17.0.0, SVG Export Plug-In . SVG Version: 6.00 Build 0)  -->
<!DOCTYPE svg PUBLIC "-//W3C//DTD SVG 1.1//EN" "http://www.w3.org/Graphics/SVG/1.1/DTD/svg11.dtd">
<svg version="1.1" id="Layer_1" xmlns="http://www.w3.org/2000/svg" xmlns:xlink="http://www.w3.org/1999/xlink" x="0px" y="0px"
	 width="1440px" height="694.07px" viewBox="0 0 1440 694.07" enable-background="new 0 0 1440 694.07" xml:space="preserve">
<title>Path 3 Copy 3</title>
<desc>Created with Sketch.</desc>
<g id="Energy">
	<g id="WINDWISSEN" transform="translate(0.000000, -331.000000)">
		<g id="Group-6">
			
				<linearGradient id="Path-3-Copy-3_1_" gradientUnits="userSpaceOnUse" x1="549.4384" y1="698.1162" x2="549.879" y2="700.2999" gradientTransform="matrix(1440 0 0 566.1168 -790981.4375 -395397.7188)">
				<stop  offset="0" style="stop-color:#57733F"/>
				<stop  offset="1" style="stop-color:#84AF5F"/>
			</linearGradient>
			<path id="Path-3-Copy-3" fill="url(#Path-3-Copy-3_1_)" d="M0,917.993L680.402,435.75c32.892-23.313,90.312-31.15,128.254-17.505
				L1440,645.303v332.352H0V917.993z"/>
		</g>
	</g>
</g>
<g id="Energy_1_">
	<g id="WINDWISSEN_1_" transform="translate(0.000000, -328.000000)">
		<g id="Group-6_1_">
			
				<linearGradient id="Path-3-Copy-6_1_" gradientUnits="userSpaceOnUse" x1="549.9918" y1="695.8097" x2="550.3081" y2="697.2794" gradientTransform="matrix(-1440 0 0 585.0536 793018.5625 -406882.125)">
				<stop  offset="0" style="stop-color:#57733F"/>
				<stop  offset="1" style="stop-color:#84AF5F"/>
			</linearGradient>
			<path id="Path-3-Copy-6" fill="url(#Path-3-Copy-6_1_)" d="M1440,987.845L583.098,424.153
				c-33.678-22.154-91.356-28.026-128.803-13.124L0,591.82v396.024H1440z"/>
		</g>
	</g>
</g>
<g id="Energy_2_">
	<g id="WINDWISSEN_2_" transform="translate(0.000000, -281.000000)">
		<g id="Group-6_2_">
			<g id="Group-7" transform="translate(0.000000, 280.000000)">
				<path id="Path-16" fill="#FFFFFF" d="M1440,588.03V73.381L722.594,380.189l0,0c-32.451,13.878-69.814,9.622-98.313-11.198
					L239.606,87.955l0,0c-28.916-21.126-66.922-25.176-99.641-10.619L0,139.608v558.586h1440V588.03z"/>
				<path id="Path-8" fill="#F0F0F0" d="M0,137.431l152.687-65.599l0,0c25.104-10.785,54.021-7.649,76.229,8.268l404.728,290.08l0,0
					c22.046,15.801,50.719,19.015,75.716,8.486L1440,70.926v2.741L710.19,389.361l0,0c-25.432,11.001-54.791,7.684-77.127-8.714
					L232.287,86.415l0,0c-21.914-16.088-50.624-19.606-75.774-9.285L0,141.363V137.431z"/>
			</g>
		</g>
	</g>
</g>
</svg>
