<?xml version="1.0" encoding="UTF-8" standalone="no"?>
<svg width="125px" height="30px" viewBox="0 0 125 30" version="1.1" xmlns="http://www.w3.org/2000/svg" xmlns:xlink="http://www.w3.org/1999/xlink">
    <!-- Generator: Sketch 45.2 (43514) - http://www.bohemiancoding.com/sketch -->
    <title>GWE_Logo_4c</title>
    <desc>Created with Sketch.</desc>
    <defs>
        <polygon id="path-1" points="6.19454099 5.56828432 0.0476880773 5.56828432 0.0476880773 0.169713452 6.19454099 0.169713452"></polygon>
        <polygon id="path-3" points="0.0420777153 20.3501857 0.0420777153 0.204076919 124.170637 0.204076919 124.170637 10.2771313 124.170637 20.3501857"></polygon>
        <polygon id="path-5" points="0.282621988 4.66080826 0.282621988 0.195661376 3.64883921 2.42718288"></polygon>
    </defs>
    <g id="Symbols" stroke="none" stroke-width="1" fill="none" fill-rule="evenodd">
        <g id="Header" transform="translate(-658.000000, -20.000000)">
            <g id="Group-2">
                <g id="GWE_Logo_4c" transform="translate(658.000000, 20.000000)">
                    <path d="M102.243939,27.4283587 C102.757287,27.4283587 103.124065,27.2137624 103.34918,26.7887774 L103.974034,26.7887774 C103.842191,27.1324121 103.631802,27.4122289 103.344973,27.626124 C103.058844,27.8393177 102.687158,27.9466159 102.236926,27.9466159 C101.662565,27.9466159 101.194801,27.754461 100.834336,27.3750603 C100.484389,27.0040751 100.309767,26.538415 100.309767,25.9794827 C100.309767,25.4163426 100.475974,24.9520852 100.811193,24.5846065 C101.167451,24.2052057 101.629604,24.0137521 102.199056,24.0137521 C102.767807,24.0137521 103.22996,24.2052057 103.585517,24.5846065 C103.920035,24.9520852 104.087644,25.4163426 104.087644,25.9794827 L104.087644,26.208105 L100.896751,26.208105 C100.936725,26.5587526 101.076282,26.8476862 101.314022,27.0777111 C101.558774,27.3105411 101.868045,27.4283587 102.243939,27.4283587 M102.199056,24.531308 C101.848409,24.531308 101.553163,24.6421127 101.314022,24.8602155 C101.09101,25.0685002 100.954257,25.3399014 100.903764,25.6751206 L103.493647,25.6751206 C103.443154,25.3399014 103.306401,25.0685002 103.082688,24.8602155 C102.843547,24.6421127 102.549003,24.531308 102.199056,24.531308" id="Fill-1" fill="#777776"></path>
                    <path d="M105.4713,24.0754661 L105.4713,24.6680606 C105.608052,24.4864251 105.776363,24.3314389 105.974129,24.2052057 C106.171894,24.0782713 106.39701,24.0137521 106.653684,24.0137521 C106.906851,24.0137521 107.124954,24.0495182 107.307291,24.120349 C107.49103,24.1918811 107.650224,24.298478 107.787678,24.4408409 C108.10256,24.7501121 108.260351,25.1596686 108.260351,25.6674063 L108.260351,27.8849019 L107.688795,27.8849019 L107.688795,25.6835361 C107.688795,25.3314859 107.590614,25.0530717 107.390044,24.844787 C107.192278,24.6350997 106.937007,24.531308 106.622125,24.531308 C106.302335,24.531308 106.030232,24.6379049 105.806519,24.8517999 C105.582806,25.0713054 105.4713,25.3504209 105.4713,25.6905491 L105.4713,27.8849019 L104.899744,27.8849019 L104.899744,24.0754661 L105.4713,24.0754661" id="Fill-2" fill="#777776"></path>
                    <path d="M111.001013,27.4283587 C111.514361,27.4283587 111.883242,27.2137624 112.106956,26.7887774 L112.731108,26.7887774 C112.599265,27.1324121 112.388175,27.4122289 112.102046,27.626124 C111.814515,27.8393177 111.445634,27.9466159 110.994,27.9466159 C110.42034,27.9466159 109.952577,27.754461 109.591409,27.3750603 C109.240762,27.0040751 109.066139,26.538415 109.066139,25.9794827 C109.066139,25.4163426 109.232346,24.9520852 109.568968,24.5846065 C109.924525,24.2052057 110.38738,24.0137521 110.955429,24.0137521 C111.524179,24.0137521 111.985631,24.2052057 112.342591,24.5846065 C112.676407,24.9520852 112.846822,25.4163426 112.846822,25.9794827 L112.846822,26.208105 L109.653123,26.208105 C109.693799,26.5587526 109.833356,26.8476862 110.071797,27.0777111 C110.315146,27.3105411 110.625119,27.4283587 111.001013,27.4283587 M110.955429,24.531308 C110.604781,24.531308 110.310237,24.6421127 110.071797,24.8602155 C109.847382,25.0685002 109.711331,25.3399014 109.660136,25.6751206 L112.25002,25.6751206 C112.200228,25.3399014 112.062774,25.0685002 111.839762,24.8602155 C111.60062,24.6421127 111.305375,24.531308 110.955429,24.531308" id="Fill-3" fill="#777776"></path>
                    <g id="Group-7" transform="translate(113.609831, 23.844039)">
                        <mask id="mask-2" fill="white">
                            <use xlink:href="#path-1"></use>
                        </mask>
                        <g id="Clip-5"></g>
                        <path d="M2.05830157,0.169713452 L2.05830157,0.740567789 L1.98957464,0.740567789 C1.57791432,0.740567789 1.24339649,0.906073469 0.985319833,1.23638353 C0.740567789,1.5519664 0.618542415,1.92715936 0.618542415,2.3640663 L0.618542415,4.04086326 L0.0476880773,4.04086326 L0.0476880773,0.231427434 L0.618542415,0.231427434 L0.618542415,1.16905919 C0.740567789,0.772126076 1.0042548,0.478984659 1.41100605,0.291037531 C1.57791432,0.210388576 1.78128995,0.169713452 2.02043163,0.169713452 L2.05830157,0.169713452" id="Fill-4" fill="#777776" mask="url(#mask-2)"></path>
                        <path d="M5.62438794,0.840853011 L5.62438794,0.231427434 L6.19454099,0.231427434 L6.19454099,3.92725343 C6.19454099,4.47496502 6.03955473,4.89293699 5.72607576,5.18187064 C5.41399937,5.46659651 4.99392351,5.61036204 4.46584818,5.61036204 C3.93707156,5.61036204 3.52470995,5.50867423 3.22665947,5.30459731 C2.93001157,5.10192298 2.72803854,4.83402819 2.62214296,4.49810776 L3.25400998,4.49810776 C3.41600919,4.89433958 3.78839697,5.09280614 4.36626426,5.09280614 C4.80808027,5.09280614 5.12927349,4.99111833 5.32703876,4.78704141 C5.52480402,4.58436708 5.62438794,4.28421271 5.62438794,3.88868219 L5.62438794,3.36271075 C5.31371415,3.81434489 4.85857353,4.04226585 4.25966738,4.04226585 C3.71125449,4.04226585 3.26382812,3.85291613 2.91949215,3.47772317 C2.58287042,3.11024446 2.41666345,2.65440254 2.41666345,2.10669095 C2.41666345,1.55757676 2.58287042,1.09963096 2.91949215,0.733554837 C3.26382812,0.356959285 3.72528039,0.169713452 4.3010438,0.169713452 C4.87820979,0.169713452 5.31862321,0.392725343 5.62438794,0.840853011 M4.33610856,3.52260606 C4.54369196,3.52260606 4.7295352,3.48613871 4.8915344,3.41320401 C5.0549362,3.339568 5.19519525,3.23788019 5.31090896,3.11024446 C5.53953122,2.84655744 5.65594623,2.5120396 5.65594623,2.10669095 C5.65594623,1.6999397 5.53953122,1.36401927 5.31090896,1.09963096 C5.06265044,0.825424515 4.73584686,0.68867194 4.33610856,0.68867194 C3.92444825,0.68867194 3.59413818,0.825424515 3.34447707,1.09963096 C3.10673798,1.36822704 2.98681649,1.70414747 2.98681649,2.10669095 C2.98681649,2.50783183 3.10673798,2.84234967 3.34447707,3.11024446 C3.59413818,3.38585349 3.92444825,3.52260606 4.33610856,3.52260606" id="Fill-6" fill="#777776" mask="url(#mask-2)"></path>
                    </g>
                    <polyline id="Fill-8" fill="#777776" points="121.91457 29.3940893 121.29743 29.3940893 121.991712 27.8316035 120.436941 24.0754661 121.07021 24.0754661 122.296776 27.1997365 123.545782 24.0754661 124.170637 24.0754661 121.91457 29.3940893"></polyline>
                    <path d="M32.7631117,20.8607286 C31.6571691,20.8607286 30.5077462,20.6566517 29.2496225,20.2386798 L29.1703761,20.2113292 L29.6774126,18.2785595 L29.7636719,18.3038062 C30.7104205,18.5625841 31.69013,18.8304789 32.6754498,18.8304789 C33.7568471,18.8304789 36.2723932,18.5113895 36.2723932,15.5638456 L36.2723932,10.6218179 C36.2723932,8.1581677 34.6292584,6.86918702 33.0064612,6.86918702 C30.5294863,6.86918702 29.6507634,8.92538471 29.6507634,10.6877397 C29.6507634,12.6492625 31.0764966,14.0188921 33.1158632,14.0188921 C33.979859,14.0188921 34.7926602,13.6121409 35.5437474,13.1710262 L35.6755909,13.094585 L35.6755909,15.3078728 L35.6300067,15.3324182 C34.856478,15.7545979 33.813652,16.0505445 33.0948244,16.0505445 C29.9242685,16.0505445 27.533553,13.6969976 27.533553,10.5783376 C27.533553,7.25279553 29.8723727,4.83893726 33.0948244,4.83893726 C36.409847,4.83893726 38.3903048,7.55505378 38.3903048,10.1814045 L38.3903048,14.9025242 C38.3903048,18.5773113 36.2345232,20.8607286 32.7631117,20.8607286" id="Fill-9" fill="#777776"></path>
                    <path d="M42.1878186,15.8282339 L40.069907,15.8282339 L40.069907,5.05984526 L42.1001567,5.05984526 L42.1001567,6.14054125 C42.7411406,5.24218203 43.6219674,4.83893726 44.924974,4.83893726 L45.4530493,4.83893726 L45.4530493,6.86918702 L45.079259,6.86918702 C43.1331646,6.86918702 42.1878186,8.15395993 42.1878186,10.7971417 L42.1878186,15.8282339" id="Fill-10" fill="#777776"></path>
                    <path d="M51.3186829,16.0694795 C50.3207397,16.0694795 49.3031603,15.7875588 48.3781519,15.2545744 C47.0961841,14.5161105 46.1697731,13.3435448 45.7686322,11.9549802 C45.3520628,10.5138185 45.5547372,8.97167019 46.3373827,7.6118587 C47.3584686,5.83617911 49.1544857,4.77652198 51.1377487,4.77652198 C52.1251724,4.77652198 53.1048819,5.040209 53.9723841,5.53882992 C56.0152572,6.71560336 56.9599019,8.58104874 56.7789677,11.0853741 L56.7733574,11.1674256 L48.4202296,11.0397899 L48.511398,9.12805904 L48.596956,9.13086422 L54.4646934,9.21291576 C54.2276556,8.38117959 53.9092675,7.84609131 52.9590125,7.29767842 C52.4113009,6.98279685 51.8362388,6.82360283 51.2499559,6.82360283 C50.0332087,6.82360283 48.9412919,7.51157347 48.2491135,8.71289225 C47.7413758,9.59371909 47.5765714,10.5580001 47.7890638,11.4262036 C47.9966472,12.2866929 48.5668003,13.0202477 49.3901209,13.4957259 C50.0254944,13.861802 50.6096734,14.039931 51.1784238,14.039931 C52.1328867,14.039931 53.0340511,13.524479 54.0116566,12.4178351 L54.0656564,12.3561211 L55.7789207,13.6465044 L55.7305313,13.7152313 C54.7052376,15.2117954 53.0971676,16.0694795 51.3186829,16.0694795" id="Fill-11" fill="#777776"></path>
                    <path d="M63.5604928,16.0694795 C62.5618484,16.0694795 61.5435677,15.7875588 60.6192605,15.2545744 C59.3372928,14.5161105 58.4108818,13.3435448 58.0083383,11.9549802 C57.5931715,10.5138185 57.7958458,8.97167019 58.5784913,7.6118587 C59.6009798,5.83617911 61.3955944,4.77652198 63.3809612,4.77652198 C64.3676837,4.77652198 65.3466918,5.040209 66.2148954,5.53882992 C68.2563659,6.71560336 69.2010106,8.58104874 69.0207777,11.0853741 L69.0137647,11.1674256 L60.6613382,11.0397899 L60.7525066,9.12805904 L60.8387659,9.13086422 L66.7072046,9.21291576 C66.4694655,8.38117959 66.1496749,7.84609131 65.2008224,7.29767842 C64.6524095,6.98279685 64.07875,6.82360283 63.4917659,6.82360283 C62.2743173,6.82360283 61.180998,7.51157347 60.4902222,8.71289225 C59.9817831,9.59371909 59.8169788,10.5580001 60.0301725,11.4262036 C60.2384572,12.2866929 60.8093115,13.0202477 61.6333335,13.4957259 C62.2673044,13.861802 62.8521846,14.039931 63.4195325,14.039931 C64.3746966,14.039931 65.275861,13.524479 66.2527653,12.4178351 L66.306765,12.3561211 L68.0221332,13.6465044 L67.9737439,13.7152313 C66.9484502,15.2117954 65.3396789,16.0694795 63.5604928,16.0694795" id="Fill-12" fill="#777776"></path>
                    <path d="M79.6012192,15.8282339 L77.4833075,15.8282339 L77.4833075,9.5621608 C77.4833075,8.05086953 76.3885856,6.86918702 74.9902029,6.86918702 C73.5918202,6.86918702 72.496397,8.05086953 72.496397,9.5621608 L72.496397,15.8282339 L70.3784853,15.8282339 L70.3784853,9.5621608 C70.3784853,6.78152511 72.2740864,4.83893726 74.9902029,4.83893726 C77.7049168,4.83893726 79.6012192,6.78152511 79.6012192,9.5621608 L79.6012192,15.8282339" id="Fill-13" fill="#777776"></path>
                    <path d="M91.9629506,16.0505445 C90.6992166,16.0505445 89.5540014,15.5147549 88.8730438,14.6107853 C88.1913848,15.5147549 87.0461696,16.0505445 85.7838382,16.0505445 C83.6063164,16.0505445 81.8993637,14.4214356 81.8993637,12.3427965 L81.8993637,5.05984526 L84.0165741,5.05984526 L84.0165741,11.9016818 C84.0165741,13.1878573 84.7276875,14.0188921 85.8266172,14.0188921 C87.1450522,14.0188921 87.8133866,13.2025845 87.8133866,11.5917093 L87.8133866,5.05984526 L89.9334022,5.05984526 L89.9334022,11.5917093 C89.9334022,13.2257272 90.5835029,14.0188921 91.9201716,14.0188921 C93.0176987,14.0188921 93.7288121,13.1878573 93.7288121,11.9016818 L93.7288121,5.05984526 L95.8467238,5.05984526 L95.8467238,12.3427965 C95.8467238,14.4214356 94.1404724,16.0505445 91.9629506,16.0505445" id="Fill-14" fill="#4D4E4C"></path>
                    <path d="M98.1462709,15.8282339 L100.264884,15.8282339 L100.264884,5.05984526 L98.1462709,5.05984526 L98.1462709,15.8282339 Z M99.205928,4.04507103 C98.3798022,4.04507103 97.9471031,3.41180141 97.9471031,2.78624605 C97.9471031,2.16279457 98.3798022,1.53022625 99.205928,1.53022625 C100.031353,1.53022625 100.462649,2.16279457 100.462649,2.78624605 C100.462649,3.41180141 100.031353,4.04507103 99.205928,4.04507103 L99.205928,4.04507103 Z" id="Fill-15" fill="#4D4E4C"></path>
                    <path d="M111.788568,15.8282339 L109.669253,15.8282339 L109.669253,9.5621608 C109.669253,8.05086953 108.574531,6.86918702 107.176149,6.86918702 C105.777766,6.86918702 104.682343,8.05086953 104.682343,9.5621608 L104.682343,15.8282339 L102.56373,15.8282339 L102.56373,9.5621608 C102.56373,6.78152511 104.460733,4.83893726 107.176149,4.83893726 C109.892265,4.83893726 111.788568,6.78152511 111.788568,9.5621608 L111.788568,15.8282339" id="Fill-16" fill="#4D4E4C"></path>
                    <g id="Group-20">
                        <mask id="mask-4" fill="white">
                            <use xlink:href="#path-3"></use>
                        </mask>
                        <g id="Clip-18"></g>
                        <path d="M118.74191,16.0505445 C115.467562,16.0505445 113.179236,13.6366862 113.179236,10.1814045 C113.179236,7.23596444 115.505432,4.83893726 118.366717,4.83893726 C119.502815,4.83893726 120.527408,5.09561132 121.41104,5.6005439 L121.455923,5.62649183 L121.455923,7.87484442 L121.317767,7.78016956 C120.655745,7.32643153 119.590477,6.86918702 118.697728,6.86918702 C116.663972,6.86918702 115.29855,8.29632286 115.29855,10.4219488 C115.29855,12.541263 116.714465,14.0188921 118.74191,14.0188921 C120.752523,14.0188921 122.052725,12.3561211 122.052725,9.78236751 L122.052725,0.204076919 L124.170637,0.204076919 L124.170637,10.1358203 C124.170637,13.6177513 121.937712,16.0505445 118.74191,16.0505445" id="Fill-17" fill="#4D4E4C" mask="url(#mask-4)"></path>
                        <path d="M19.3220869,16.1171675 C19.3220869,18.4552859 17.4271871,20.3501857 15.08977,20.3501857 L4.23301816,20.3501857 C1.89560107,20.3501857 0,18.4552859 0,16.1171675 L0,5.261117 C0,2.92299862 1.89560107,1.02880014 4.23301816,1.02880014 L15.08977,1.02880014 C17.4271871,1.02880014 19.3220869,2.92299862 19.3220869,5.261117 L19.3220869,16.1171675" id="Fill-19" fill="#84AF5F" mask="url(#mask-4)"></path>
                    </g>
                    <polyline id="Fill-21" fill="#FFFFFE" points="8.55790599 11.8056043 8.55790599 16.2707512 11.9241232 14.0385284 8.55790599 11.8056043"></polyline>
                    <polyline id="Fill-22" fill="#FFFFFE" points="11.9241232 9.57408282 11.9241232 14.039931 15.2903404 11.8056043 11.9241232 9.57408282"></polyline>
                    <polyline id="Fill-23" fill="#FFFFFE" points="11.9241232 14.0406323 11.9241232 18.5078831 15.2903404 16.274959 11.9241232 14.0406323"></polyline>
                    <g id="Group-26" transform="translate(4.909067, 4.909067)">
                        <mask id="mask-6" fill="white">
                            <use xlink:href="#path-5"></use>
                        </mask>
                        <g id="Clip-25"></g>
                        <polygon id="Fill-24" fill="#B1CA94" mask="url(#mask-6)" points="0.282621988 4.66080826 3.64883921 4.66080826 3.64883921 0.195661376 0.282621988 0.195661376"></polygon>
                    </g>
                    <polyline id="Fill-27" fill="#B1CA94" points="8.55790599 7.33765225 8.55790599 2.87110277 11.9241232 5.10472816 8.55790599 7.33765225"></polyline>
                    <polyline id="Fill-28" fill="#B1CA94" points="8.55790599 11.8056043 8.55790599 7.34045743 11.9241232 9.57268023 8.55790599 11.8056043"></polyline>
                    <polyline id="Fill-29" fill="#CBDAB1" points="1.82547155 16.2707512 1.82547155 11.8056043 5.19168877 14.0385284 1.82547155 16.2707512"></polyline>
                    <polyline id="Fill-30" fill="#CBDAB1" points="5.19168877 14.039931 5.19168877 9.57408282 8.55790599 11.8056043 5.19168877 14.039931"></polyline>
                    <polyline id="Fill-31" fill="#CBDAB1" points="5.19168877 18.5078831 5.19168877 14.0406323 8.55790599 16.274959 5.19168877 18.5078831"></polyline>
                </g>
            </g>
        </g>
    </g>
</svg>