<?xml version="1.0" encoding="UTF-8" standalone="no"?>
<svg width="125px" height="30px" viewBox="0 0 125 30" version="1.1" xmlns="http://www.w3.org/2000/svg" xmlns:xlink="http://www.w3.org/1999/xlink">
    <!-- Generator: Sketch 45.2 (43514) - http://www.bohemiancoding.com/sketch -->
    <title>GWO_Logo_2017_4c</title>
    <desc>Created with Sketch.</desc>
    <defs>
        <polygon id="path-1" points="0.0419132395 20.2706398 0.0419132395 0.203279212 123.685271 0.203279212 123.685271 10.2369595 123.685271 20.2706398"></polygon>
    </defs>
    <g id="Symbols" stroke="none" stroke-width="1" fill="none" fill-rule="evenodd">
        <g id="Header-Copy" transform="translate(-658.000000, -20.000000)">
            <g id="GWO_Logo_2017_4c" transform="translate(658.830899, 20.392492)">
                <path d="M32.6350454,20.7791871 C31.5334258,20.7791871 30.3884958,20.5759078 29.1352899,20.1595697 L29.0563533,20.1323261 L29.5614079,18.2071113 L29.64733,18.2322592 C30.5903779,18.4900256 31.5662578,18.7568733 32.5477262,18.7568733 C33.6248964,18.7568733 36.1306096,18.4390312 36.1306096,15.5030088 L36.1306096,10.5802988 C36.1306096,8.12627859 34.4938976,6.84233636 32.8774437,6.84233636 C30.410151,6.84233636 29.5348628,8.89049666 29.5348628,10.6459628 C29.5348628,12.5998184 30.9550231,13.9640943 32.9864181,13.9640943 C33.8470366,13.9640943 34.6566607,13.558933 35.404812,13.1195425 L35.5361401,13.0434001 L35.5361401,15.2480365 L35.4907341,15.2724859 C34.7202291,15.6930154 33.6814793,15.9878052 32.9654615,15.9878052 C29.8079974,15.9878052 27.4259283,13.643458 27.4259283,10.5369884 C27.4259283,7.22444539 29.7556059,4.82002255 32.9654615,4.82002255 C36.2675262,4.82002255 38.2402427,7.52552216 38.2402427,10.1416069 L38.2402427,14.8442723 C38.2402427,18.5046953 36.0928877,20.7791871 32.6350454,20.7791871" id="Fill-1" fill="#777776"></path>
                <path d="M42.0229125,15.7663636 L39.9132795,15.7663636 L39.9132795,5.04006706 L41.9355933,5.04006706 L41.9355933,6.11653876 C42.5740716,5.22169109 43.4514554,4.82002255 44.7493688,4.82002255 L45.2753799,4.82002255 L45.2753799,6.84233636 L44.9030506,6.84233636 C42.9645633,6.84233636 42.0229125,8.12208727 42.0229125,10.7549373 L42.0229125,15.7663636" id="Fill-2" fill="#777776"></path>
                <path d="M51.1180855,16.0066662 C50.1240432,16.0066662 49.1104413,15.7258475 48.1890486,15.1949464 C46.9120919,14.4593691 45.9893021,13.2913868 45.5897292,11.9082499 C45.1754867,10.4727215 45.3766702,8.93660122 46.1562565,7.58210503 C47.1733511,5.81336632 48.9623479,4.75785124 50.9385571,4.75785124 C51.9214226,4.75785124 52.8973025,5.02050754 53.7621124,5.51717943 C55.7963016,6.68935303 56.7372538,8.54750665 56.5570269,11.042043 L56.5514385,11.1237738 L48.2316604,10.9966369 L48.3217739,9.09237877 L48.4069975,9.09517298 L54.2517987,9.1769038 C54.0156875,8.34841876 53.698544,7.81542207 52.7520033,7.26915284 C52.2064326,6.9555021 51.6336183,6.79693035 51.0496272,6.79693035 C49.837636,6.79693035 48.7499875,7.48221181 48.0605147,8.6788348 C47.5547616,9.55621862 47.3906014,10.5167304 47.6022633,11.3815402 C47.8090352,12.2386659 48.3769596,12.9693534 49.197062,13.442973 C49.8299519,13.8076182 50.4118474,13.9850509 50.9783747,13.9850509 C51.9291067,13.9850509 52.8267486,13.4716137 53.8005328,12.3692955 L53.8543215,12.3078228 L55.5608889,13.5931621 L55.5126887,13.6616204 C54.4914027,15.1523346 52.8896184,16.0066662 51.1180855,16.0066662" id="Fill-3" fill="#777776"></path>
                <path d="M63.312044,16.0066662 C62.3173031,16.0066662 61.3030027,15.7258475 60.3823085,15.1949464 C59.1053519,14.4593691 58.182562,13.2913868 57.781592,11.9082499 C57.3687466,10.4727215 57.5699302,8.93660122 58.3495164,7.58210503 C59.3680082,5.81336632 61.1556078,4.75785124 63.1332142,4.75785124 C64.1160796,4.75785124 65.091261,5.02050754 65.9560709,5.51717943 C67.9895615,6.68935303 68.9305138,8.54750665 68.7516839,11.042043 L68.7439998,11.1237738 L60.4249203,10.9966369 L60.5150338,9.09237877 L60.6009559,9.09517298 L66.4464558,9.1769038 C66.209646,8.34841876 65.8911053,7.81542207 64.9459618,7.26915284 C64.3996926,6.9555021 63.8282754,6.79693035 63.2435857,6.79693035 C62.030896,6.79693035 60.9418503,7.48221181 60.2537746,8.6788348 C59.747323,9.55621862 59.5838613,10.5167304 59.7955232,11.3815402 C60.0029937,12.2386659 60.5716167,12.9693534 61.3924176,13.442973 C62.0239104,13.8076182 62.6065045,13.9850509 63.1716346,13.9850509 C64.1237637,13.9850509 65.0207071,13.4716137 65.9937928,12.3692955 L66.0475814,12.3078228 L67.7562445,13.5931621 L67.7080443,13.6616204 C66.6867583,15.1523346 65.084974,16.0066662 63.312044,16.0066662" id="Fill-4" fill="#777776"></path>
                <path d="M79.2900695,15.7663636 L77.1804364,15.7663636 L77.1804364,9.52478369 C77.1804364,8.01939983 76.0899936,6.84233636 74.697077,6.84233636 C73.3041603,6.84233636 72.213019,8.01939983 72.213019,9.52478369 L72.213019,15.7663636 L70.1033859,15.7663636 L70.1033859,9.52478369 C70.1033859,6.75501711 71.9915773,4.82002255 74.697077,4.82002255 C77.4011795,4.82002255 79.2900695,6.75501711 79.2900695,9.52478369 L79.2900695,15.7663636" id="Fill-5" fill="#777776"></path>
                <path d="M91.6034807,15.9878052 C90.3446864,15.9878052 89.2039477,15.45411 88.5256518,14.5536739 C87.8466573,15.45411 86.7059186,15.9878052 85.4485215,15.9878052 C83.2795113,15.9878052 81.5792309,14.3650643 81.5792309,12.2945503 L81.5792309,5.04006706 L83.6881654,5.04006706 L83.6881654,11.8551598 C83.6881654,13.1363078 84.3964991,13.9640943 85.4911333,13.9640943 C86.8044148,13.9640943 87.4701367,13.1509775 87.4701367,11.5463989 L87.4701367,5.04006706 L89.5818654,5.04006706 L89.5818654,11.5463989 C89.5818654,13.1740297 90.229425,13.9640943 91.5608689,13.9640943 C92.6541059,13.9640943 93.3624396,13.1363078 93.3624396,11.8551598 L93.3624396,5.04006706 L95.4720727,5.04006706 L95.4720727,12.2945503 C95.4720727,14.3650643 93.7724908,15.9878052 91.6034807,15.9878052" id="Fill-6" fill="#4D4E4C"></path>
                <path d="M97.7626312,15.7670622 L99.8729628,15.7670622 L99.8729628,5.04006706 L97.7626312,5.04006706 L97.7626312,15.7670622 Z M98.8188449,4.02925943 C97.9952497,4.02925943 97.5642419,3.39846517 97.5642419,2.77535501 C97.5642419,2.15434051 97.9952497,1.52424481 98.8188449,1.52424481 C99.6403444,1.52424481 100.069955,2.15434051 100.069955,2.77535501 C100.069955,3.39846517 99.6403444,4.02925943 98.8188449,4.02925943 L98.8188449,4.02925943 Z" id="Fill-7" fill="#4D4E4C"></path>
                <path d="M111.351602,15.7663636 L109.240572,15.7663636 L109.240572,9.52478369 C109.240572,8.01939983 108.150129,6.84233636 106.757212,6.84233636 C105.364296,6.84233636 104.273154,8.01939983 104.273154,9.52478369 L104.273154,15.7663636 L102.162823,15.7663636 L102.162823,9.52478369 C102.162823,6.75501711 104.052411,4.82002255 106.757212,4.82002255 C109.462712,4.82002255 111.351602,6.75501711 111.351602,9.52478369 L111.351602,15.7663636" id="Fill-8" fill="#4D4E4C"></path>
                <g id="Group-12">
                    <mask id="mask-2" fill="white">
                        <use xlink:href="#path-1"></use>
                    </mask>
                    <g id="Clip-10"></g>
                    <path d="M118.277765,15.9878052 C115.016216,15.9878052 112.736835,13.5833824 112.736835,10.1416069 C112.736835,7.20768009 115.053938,4.82002255 117.904039,4.82002255 C119.035696,4.82002255 120.056283,5.07569331 120.936461,5.57865218 L120.981169,5.60449868 L120.981169,7.84406278 L120.843554,7.74975799 C120.184119,7.29779356 119.123015,6.84233636 118.233756,6.84233636 C116.207949,6.84233636 114.847865,8.26389373 114.847865,10.3812109 C114.847865,12.492241 116.258245,13.9640943 118.277765,13.9640943 C120.280519,13.9640943 121.575638,12.3078228 121.575638,9.74412964 L121.575638,0.203279212 L123.685271,0.203279212 L123.685271,10.0962009 C123.685271,13.5645214 121.461075,15.9878052 118.277765,15.9878052" id="Fill-9" fill="#4D4E4C" mask="url(#mask-2)"></path>
                    <path d="M19.2465596,16.0541679 C19.2465596,18.3831469 17.3590667,20.2706398 15.0307863,20.2706398 L4.2164719,20.2706398 C1.88819144,20.2706398 0,18.3831469 0,16.0541679 L0,5.24055205 C0,2.91157304 1.88819144,1.02477871 4.2164719,1.02477871 L15.0307863,1.02477871 C17.3590667,1.02477871 19.2465596,2.91157304 19.2465596,5.24055205 L19.2465596,16.0541679" id="Fill-11" fill="#777776" mask="url(#mask-2)"></path>
                </g>
                <polyline id="Fill-13" fill="#FFFFFE" points="8.52445437 11.7594579 8.52445437 16.2071512 11.8775135 13.9836538 8.52445437 11.7594579"></polyline>
                <polyline id="Fill-14" fill="#FFFFFE" points="11.8775135 9.5366591 11.8775135 13.9850509 15.2305727 11.7594579 11.8775135 9.5366591"></polyline>
                <polyline id="Fill-15" fill="#FFFFFE" points="11.8775135 13.9857495 11.8775135 18.4355384 15.2305727 16.2113425 11.8775135 13.9857495"></polyline>
                <polyline id="Fill-16" fill="#A7A8A6" points="5.17139521 9.53246778 5.17139521 5.08477451 8.52445437 7.30757331 5.17139521 9.53246778"></polyline>
                <polyline id="Fill-17" fill="#A7A8A6" points="8.52445437 7.30897042 8.52445437 2.85988004 11.8775135 5.08477451 8.52445437 7.30897042"></polyline>
                <polyline id="Fill-18" fill="#A7A8A6" points="8.52445437 11.7594579 8.52445437 7.31176464 11.8775135 9.535262 8.52445437 11.7594579"></polyline>
                <polyline id="Fill-19" fill="#C2C3C1" points="1.81833604 16.2071512 1.81833604 11.7594579 5.17139521 13.9836538 1.81833604 16.2071512"></polyline>
                <polyline id="Fill-20" fill="#C2C3C1" points="5.17139521 13.9850509 5.17139521 9.5366591 8.52445437 11.7594579 5.17139521 13.9850509"></polyline>
                <polyline id="Fill-21" fill="#C2C3C1" points="5.17139521 18.4355384 5.17139521 13.9857495 8.52445437 16.2113425 5.17139521 18.4355384"></polyline>
                <path d="M88.9042681,23.9310627 C89.4700968,23.9310627 89.931841,24.1203708 90.2853093,24.4996856 C90.6185196,24.8643308 90.785474,25.3281707 90.785474,25.8898081 C90.785474,26.4514455 90.6185196,26.9138882 90.2853093,27.2785334 C89.931841,27.6578482 89.4700968,27.8478549 88.9042681,27.8478549 C88.3370422,27.8478549 87.8766951,27.6578482 87.5225283,27.2785334 C87.1879209,26.9138882 87.0216651,26.4514455 87.0216651,25.8898081 C87.0216651,25.3281707 87.1879209,24.8643308 87.5225283,24.4996856 C87.8766951,24.1203708 88.3370422,23.9310627 88.9042681,23.9310627 M88.9042681,27.330925 C89.3136207,27.330925 89.6377498,27.189817 89.8752581,26.9062041 C90.1036853,26.6372608 90.216851,26.2984622 90.216851,25.8898081 C90.216851,25.4797569 90.1036853,25.1402596 89.8752581,24.8713163 C89.6377498,24.5891005 89.3136207,24.4472941 88.9042681,24.4472941 C88.4942169,24.4472941 88.1686907,24.5891005 87.9311823,24.8713163 C87.7048509,25.1402596 87.5895894,25.4797569 87.5895894,25.8898081 C87.5895894,26.2984622 87.7048509,26.6372608 87.9311823,26.9062041 C88.1686907,27.189817 88.4942169,27.330925 88.9042681,27.330925" id="Fill-22" fill="#777776"></path>
                <path d="M92.2035386,24.5995788 C92.506711,24.1532028 92.9607711,23.9317612 93.5622261,23.9317612 C94.1077967,23.9317612 94.55068,24.1203708 94.8894787,24.5003842 C95.2296745,24.8741106 95.398026,25.3379504 95.398026,25.888411 C95.398026,26.4409672 95.2296745,26.9041085 94.8894787,27.2785334 C94.55068,27.6571497 94.0959213,27.8464578 93.5231071,27.8464578 C92.9523884,27.8464578 92.5116009,27.622222 92.2035386,27.1716546 L92.2035386,29.2896703 L91.6342171,29.2896703 L91.6342171,23.9918369 L92.2035386,23.9918369 L92.2035386,24.5995788 Z M93.4860837,24.4465955 C93.0760325,24.4465955 92.752602,24.5891005 92.5143951,24.8713163 C92.2866665,25.1409582 92.1735007,25.4797569 92.1735007,25.888411 C92.1735007,26.2991607 92.2866665,26.6386579 92.5143951,26.9062041 C92.752602,27.189817 93.0760325,27.3316235 93.4860837,27.3316235 C93.891245,27.3316235 94.2202639,27.189817 94.4724419,26.9062041 C94.7106488,26.6386579 94.829403,26.2991607 94.829403,25.888411 C94.829403,25.4797569 94.7106488,25.1409582 94.4724419,24.8713163 C94.2202639,24.5891005 93.891245,24.4465955 93.4860837,24.4465955 L93.4860837,24.4465955 Z" id="Fill-23" fill="#777776"></path>
                <path d="M97.9484466,27.330925 C98.4597881,27.330925 98.8258304,27.117866 99.0493677,26.6938437 L99.6717793,26.6938437 C99.5404511,27.0375323 99.330885,27.3155568 99.0458749,27.5279172 C98.7601663,27.7416747 98.3906313,27.8464578 97.9414611,27.8464578 C97.3700439,27.8464578 96.9041084,27.6571497 96.5443531,27.2785334 C96.1957746,26.9089983 96.0218347,26.445857 96.0218347,25.8898081 C96.0218347,25.3274721 96.1880905,24.8643308 96.5219993,24.5003842 C96.8761662,24.1203708 97.3372119,23.9310627 97.9030406,23.9310627 C98.4695679,23.9310627 98.9306135,24.1203708 99.2840818,24.5003842 C99.6186892,24.8643308 99.784945,25.3274721 99.784945,25.8898081 L99.784945,26.1168381 L96.6058258,26.1168381 C96.6456434,26.4654166 96.7846556,26.7539194 97.0228626,26.9823465 C97.2652608,27.214965 97.5747202,27.330925 97.9484466,27.330925 M97.9030406,24.4472941 C97.5544621,24.4472941 97.2603709,24.5562685 97.0228626,24.7735188 C96.8007224,24.9809893 96.6631073,25.2506312 96.6128114,25.5852385 L99.1932698,25.5852385 C99.1429739,25.2506312 99.0060573,24.9809893 98.7839172,24.7735188 C98.5457103,24.5562685 98.251619,24.4472941 97.9030406,24.4472941" id="Fill-24" fill="#777776"></path>
                <path d="M102.597323,23.9310627 L102.597323,24.4996856 L102.528865,24.4996856 C102.119512,24.4996856 101.784905,24.6652429 101.527837,24.9928647 C101.284042,25.307214 101.163891,25.6823375 101.163891,26.1168381 L101.163891,27.7863822 L100.593871,27.7863822 L100.593871,23.9918369 L101.163891,23.9918369 L101.163891,24.925105 C101.284042,24.530422 101.547397,24.239125 101.952558,24.0526111 C102.119512,23.9708802 102.321395,23.9310627 102.558903,23.9310627 L102.597323,23.9310627" id="Fill-25" fill="#777776"></path>
                <path d="M106.143882,27.1800373 C105.840011,27.6243176 105.387348,27.8478549 104.785195,27.8478549 C104.238925,27.8478549 103.793248,27.6571497 103.449559,27.2785334 C103.114952,26.9034099 102.949395,26.4409672 102.949395,25.8898081 C102.949395,25.3379504 103.114952,24.8748091 103.449559,24.4996856 C103.793248,24.1203708 104.252198,23.9310627 104.824314,23.9310627 C105.395032,23.9310627 105.83582,24.1559971 106.143882,24.6072629 L106.143882,23.9918369 L106.713204,23.9918369 L106.713204,27.7863822 L106.143882,27.7863822 L106.143882,27.1800373 Z M104.862035,27.330925 C105.271388,27.330925 105.595517,27.189817 105.833026,26.9069027 C106.061453,26.6386579 106.174618,26.2984622 106.174618,25.8898081 C106.174618,25.4797569 106.061453,25.1409582 105.833026,24.8727135 C105.595517,24.5891005 105.271388,24.4472941 104.862035,24.4472941 C104.456874,24.4472941 104.126458,24.5891005 103.874979,24.8727135 C103.63747,25.1409582 103.518716,25.4797569 103.518716,25.8898081 C103.518716,26.2984622 103.63747,26.6386579 103.874979,26.9069027 C104.126458,27.189817 104.456874,27.330925 104.862035,27.330925 L104.862035,27.330925 Z" id="Fill-26" fill="#777776"></path>
                <polyline id="Fill-27" fill="#777776" points="108.167593 27.7863822 108.167593 24.4920015 107.393595 24.4920015 107.393595 23.9918369 108.167593 23.9918369 108.167593 22.6331494 108.737613 22.6331494 108.737613 23.9918369 109.610806 23.9918369 109.610806 24.4920015 108.737613 24.4920015 108.737613 27.7863822 108.167593 27.7863822"></polyline>
                <path d="M110.262556,23.3547556 L110.877284,23.3547556 L110.877284,22.6107956 L110.262556,22.6107956 L110.262556,23.3547556 Z M110.286307,27.7870807 L110.855629,27.7870807 L110.855629,23.9918369 L110.286307,23.9918369 L110.286307,27.7870807 Z" id="Fill-28" fill="#777776"></path>
                <path d="M113.56532,23.9310627 C114.131847,23.9310627 114.592194,24.1203708 114.945662,24.4996856 C115.279571,24.8643308 115.447224,25.3281707 115.447224,25.8898081 C115.447224,26.4514455 115.279571,26.9138882 114.945662,27.2785334 C114.592194,27.6578482 114.131847,27.8478549 113.56532,27.8478549 C112.998094,27.8478549 112.537747,27.6578482 112.184278,27.2785334 C111.849671,26.9138882 111.682018,26.4514455 111.682018,25.8898081 C111.682018,25.3281707 111.849671,24.8643308 112.184278,24.4996856 C112.537747,24.1203708 112.998094,23.9310627 113.56532,23.9310627 M113.56532,27.330925 C113.975371,27.330925 114.2995,27.189817 114.537008,26.9062041 C114.764737,26.6372608 114.877903,26.2984622 114.877903,25.8898081 C114.877903,25.4797569 114.764737,25.1402596 114.537008,24.8713163 C114.2995,24.5891005 113.975371,24.4472941 113.56532,24.4472941 C113.155268,24.4472941 112.831139,24.5891005 112.592234,24.8713163 C112.365902,25.1402596 112.252038,25.4797569 112.252038,25.8898081 C112.252038,26.2984622 112.365902,26.6372608 112.592234,26.9062041 C112.831139,27.189817 113.155268,27.330925 113.56532,27.330925" id="Fill-29" fill="#777776"></path>
                <path d="M116.852016,23.9918369 L116.852016,24.5835121 C116.988234,24.4018881 117.155887,24.2475076 117.354277,24.1203708 C117.551269,23.9939325 117.775505,23.9310627 118.02908,23.9310627 C118.281258,23.9310627 118.499207,23.9659904 118.681529,24.0358458 C118.863852,24.1084954 119.022423,24.2146756 119.158641,24.3557835 C119.472991,24.6645444 119.629467,25.0718013 119.629467,25.5775544 L119.629467,27.7863822 L119.060844,27.7863822 L119.060844,25.5929226 C119.060844,25.2443442 118.962348,24.9656211 118.764657,24.757452 C118.567665,24.5506801 118.312693,24.4472941 117.999042,24.4472941 C117.679803,24.4472941 117.408764,24.5527757 117.186624,24.7658347 C116.963785,24.9837835 116.852016,25.2611095 116.852016,25.5999082 L116.852016,27.7863822 L116.282695,27.7863822 L116.282695,23.9918369 L116.852016,23.9918369" id="Fill-30" fill="#777776"></path>
                <path d="M122.901494,25.0089315 C122.850499,24.6135499 122.533356,24.4165577 121.947968,24.4165577 C121.363976,24.4165577 121.071981,24.5981817 121.071981,24.9621284 C121.071981,25.1151117 121.133454,25.2296745 121.258495,25.3079126 C121.382139,25.3875477 121.537916,25.4518147 121.725129,25.501412 C121.911643,25.553105 122.115621,25.5992096 122.336364,25.6432185 C122.556408,25.6865289 122.759687,25.7459059 122.946201,25.824144 C123.133414,25.902382 123.288493,26.0106579 123.412835,26.1475745 C123.536479,26.2837925 123.599349,26.4717035 123.599349,26.7092119 C123.599349,27.078747 123.460337,27.3609628 123.181614,27.5551608 C122.903589,27.7500573 122.527069,27.8478549 122.051354,27.8478549 C121.544902,27.8478549 121.142535,27.7214166 120.844252,27.4664444 C120.570419,27.2457014 120.423723,26.9544044 120.404163,26.5953476 L120.996537,26.5953476 C121.030766,26.9446246 121.228457,27.1800373 121.586815,27.3001886 C121.720239,27.3421018 121.849471,27.3616613 121.978704,27.3616613 C122.107238,27.3616613 122.228088,27.3532787 122.339158,27.3400062 C122.450228,27.3239394 122.559901,27.2966958 122.666081,27.2554811 C122.908479,27.1590807 123.030726,26.9942219 123.030726,26.762302 C123.030726,26.6051274 122.968555,26.4849761 122.844212,26.4011496 C122.720568,26.3180217 122.565489,26.2495634 122.37688,26.1964733 C122.190366,26.1433832 121.985689,26.0944844 121.767042,26.0525711 C121.5456,26.0092608 121.342321,25.9498837 121.155109,25.8744399 C120.967896,25.7982975 120.812817,25.6942129 120.689173,25.5628848 C120.564831,25.4308581 120.502659,25.2485355 120.502659,25.015917 C120.502659,24.6722285 120.627002,24.4053808 120.87918,24.2153741 C121.128564,24.0253675 121.499496,23.9310627 121.989881,23.9310627 C122.455816,23.9310627 122.822557,24.0421328 123.090802,24.2642729 C123.313641,24.452184 123.442873,24.6994721 123.477801,25.0089315 L122.901494,25.0089315" id="Fill-31" fill="#777776"></path>
            </g>
        </g>
    </g>
</svg>
