<svg xmlns="http://www.w3.org/2000/svg" viewBox="0 0 294.63 69.29"><defs><style>.a{fill:#fff;}.b{fill:#cecfcf;}.c{fill:#858685;}.d{fill:#b0b1b2;}</style></defs><title>GWO_web</title><path class="a" d="M77.91,49.23a26.29,26.29,0,0,1-8.34-1.48l-.19-.07,1.2-4.59.2.06a26.59,26.59,0,0,0,6.91,1.25c2.57,0,8.54-.76,8.54-7.75V24.93c0-5.85-3.9-8.91-7.75-8.91-5.88,0-8,4.88-8,9.06,0,4.65,3.38,7.9,8.22,7.9a11.73,11.73,0,0,0,5.76-2l.31-.18v5.25l-.11.06a14.19,14.19,0,0,1-6,1.7,12.8,12.8,0,0,1-13.2-13c0-7.89,5.55-13.62,13.2-13.62A12.5,12.5,0,0,1,91.26,23.89v11.2c0,8.72-5.12,14.14-13.35,14.14" transform="translate(-0.17 -0.21)"/><path class="a" d="M100.27,37.29h-5V11.73h4.82V14.3c1.52-2.13,3.61-3.09,6.7-3.09H108V16h-.89c-4.62,0-6.86,3-6.86,9.32Z" transform="translate(-0.17 -0.21)"/><path class="a" d="M121.94,37.86a14.05,14.05,0,0,1-7-1.93,13.09,13.09,0,0,1-4.84-18.14,13.08,13.08,0,0,1,11.39-6.73,13.53,13.53,0,0,1,6.73,1.81c4.85,2.79,7.09,7.22,6.66,13.16v.2l-19.82-.3.22-4.54h.2l13.92.2A6.68,6.68,0,0,0,125.83,17a8.07,8.07,0,0,0-4.06-1.12,8.24,8.24,0,0,0-7.12,4.48,8.77,8.77,0,0,0-1.09,6.44,7.82,7.82,0,0,0,3.8,4.91A8.47,8.47,0,0,0,121.6,33c2.27,0,4.4-1.22,6.72-3.85l.13-.15,4.07,3.06-.11.16a12.55,12.55,0,0,1-10.47,5.59" transform="translate(-0.17 -0.21)"/><path class="a" d="M151,37.86a14,14,0,0,1-7-1.93,13.08,13.08,0,0,1-4.84-18.14,13.09,13.09,0,0,1,11.39-6.73,13.52,13.52,0,0,1,6.72,1.81c4.84,2.79,7.09,7.22,6.66,13.16l0,.2-19.82-.3.22-4.54h.2l13.93.2A6.7,6.7,0,0,0,154.88,17a8.07,8.07,0,0,0-4.06-1.12,8.23,8.23,0,0,0-7.12,4.48,8.75,8.75,0,0,0-1.09,6.44,7.82,7.82,0,0,0,3.8,4.91A8.45,8.45,0,0,0,150.65,33c2.27,0,4.4-1.22,6.72-3.85l.13-.15,4.07,3.06-.11.16A12.55,12.55,0,0,1,151,37.86" transform="translate(-0.17 -0.21)"/><path class="a" d="M189,37.29h-5V22.42a5.93,5.93,0,1,0-11.83,0V37.29h-5V22.42c0-6.6,4.5-11.21,10.94-11.21S189,15.82,189,22.42Z" transform="translate(-0.17 -0.21)"/><path class="b" d="M218.38,37.81A9.09,9.09,0,0,1,211,34.4a9.1,9.1,0,0,1-7.33,3.42A8.92,8.92,0,0,1,194.5,29V11.73h5V28c0,3.05,1.69,5,4.29,5,3.13,0,4.71-1.94,4.71-5.76V11.73h5v15.5c0,3.88,1.54,5.76,4.71,5.76,2.61,0,4.29-2,4.29-5V11.73h5V29a8.92,8.92,0,0,1-9.22,8.8" transform="translate(-0.17 -0.21)"/><path class="b" d="M235.57,9.33a2.89,2.89,0,0,1-3-3,3,3,0,0,1,6,0,2.89,2.89,0,0,1-3,3m2.51,28h-5V11.73h5Z" transform="translate(-0.17 -0.21)"/><path class="b" d="M265.42,37.29h-5V22.42a5.93,5.93,0,1,0-11.83,0V37.29h-5V22.42c0-6.6,4.5-11.21,10.94-11.21s10.94,4.61,10.94,11.21Z" transform="translate(-0.17 -0.21)"/><path class="b" d="M281.92,37.81c-7.77,0-13.2-5.73-13.2-13.93A12.51,12.51,0,0,1,281,11.21,14.35,14.35,0,0,1,288.25,13l.11.06v5.33l-.33-.22A12.29,12.29,0,0,0,281.82,16c-4.83,0-8.07,3.39-8.07,8.43S277.11,33,281.92,33s7.86-3.95,7.86-10.05V.21h5V23.78c0,8.26-5.3,14-12.88,14" transform="translate(-0.17 -0.21)"/><rect class="a" y="1.96" width="45.85" height="45.85" rx="10.04" ry="10.04"/><polygon class="c" points="20.31 27.53 20.31 38.12 28.3 32.83 20.31 27.53"/><polygon class="c" points="28.3 22.23 28.3 32.83 36.28 27.53 28.3 22.23"/><polygon class="c" points="28.3 32.83 28.3 43.43 36.28 38.13 28.3 32.83"/><polygon class="b" points="12.32 11.63 12.32 22.22 20.31 16.92 12.32 11.63"/><polygon class="b" points="20.31 6.33 20.31 16.93 28.3 11.63 20.31 6.33"/><polygon class="b" points="20.31 16.93 20.31 27.53 28.3 22.23 20.31 16.93"/><polygon class="d" points="4.33 27.53 4.33 38.12 12.32 32.83 4.33 27.53"/><polygon class="d" points="12.32 22.23 12.32 32.83 20.31 27.53 12.32 22.23"/><polygon class="d" points="12.32 32.83 12.32 43.43 20.31 38.13 12.32 32.83"/><path class="a" d="M211.95,64.83a2.86,2.86,0,0,0,2.31-1,4,4,0,0,0,0-4.85,3.16,3.16,0,0,0-4.63,0,4,4,0,0,0,0,4.85,2.86,2.86,0,0,0,2.32,1m0-8.1a4.29,4.29,0,0,1,3.29,1.36,5.19,5.19,0,0,1,0,6.62,4.67,4.67,0,0,1-6.58,0,5.19,5.19,0,0,1,0-6.62,4.3,4.3,0,0,1,3.29-1.36" transform="translate(-0.17 -0.21)"/><path class="a" d="M222.86,58a2.87,2.87,0,0,0-2.31,1,4,4,0,0,0,0,4.85,2.86,2.86,0,0,0,2.31,1,3,3,0,0,0,2.35-1,3.88,3.88,0,0,0,0-4.85,3,3,0,0,0-2.35-1m-3.06.36A3.66,3.66,0,0,1,223,56.74a4,4,0,0,1,3.16,1.36,5.13,5.13,0,0,1,0,6.62A4.15,4.15,0,0,1,223,66.06a3.58,3.58,0,0,1-3.14-1.61v5h-1.36V56.88h1.36Z" transform="translate(-0.17 -0.21)"/><path class="a" d="M233.38,58a3,3,0,0,0-2.1.78,3.21,3.21,0,0,0-1,1.93h6.15a3.2,3.2,0,0,0-1-1.93,3,3,0,0,0-2.1-.78m.11,6.87a2.74,2.74,0,0,0,2.62-1.52h1.48a4.38,4.38,0,0,1-1.49,2,4.28,4.28,0,0,1-2.63.76,4.39,4.39,0,0,1-3.33-1.35,4.63,4.63,0,0,1-1.24-3.31,4.7,4.7,0,0,1,1.19-3.31,4.67,4.67,0,0,1,6.58,0,4.7,4.7,0,0,1,1.19,3.31v.54H230.3a3.28,3.28,0,0,0,1,2.06,3.06,3.06,0,0,0,2.21.83" transform="translate(-0.17 -0.21)"/><path class="a" d="M244.57,56.74v1.36h-.16A2.9,2.9,0,0,0,242,59.27a4.23,4.23,0,0,0-.87,2.68v4H239.8v-9h1.36V59.1a3.42,3.42,0,0,1,3.32-2.37Z" transform="translate(-0.17 -0.21)"/><path class="a" d="M250,64.83a2.86,2.86,0,0,0,2.31-1,4,4,0,0,0,0-4.84A2.86,2.86,0,0,0,250,58a3,3,0,0,0-2.35,1,3.88,3.88,0,0,0,0,4.84,3,3,0,0,0,2.35,1m3.05-.36a3.67,3.67,0,0,1-3.24,1.59,4.1,4.1,0,0,1-3.18-1.36,5.19,5.19,0,0,1,0-6.62,4.21,4.21,0,0,1,3.27-1.36A3.58,3.58,0,0,1,253,58.35V56.88h1.36v9H253Z" transform="translate(-0.17 -0.21)"/><polygon class="a" points="257.67 65.71 257.67 57.86 255.82 57.86 255.82 56.67 257.67 56.67 257.67 53.43 259.03 53.43 259.03 56.67 261.11 56.67 261.11 57.86 259.03 57.86 259.03 65.71 257.67 65.71"/><path class="a" d="M262.88,65.92h1.36v-9h-1.36Zm-.06-10.56h1.46V53.59h-1.46Z" transform="translate(-0.17 -0.21)"/><path class="a" d="M270.69,64.83a2.86,2.86,0,0,0,2.32-1A4,4,0,0,0,273,59a3.16,3.16,0,0,0-4.63,0,4,4,0,0,0,0,4.85,2.87,2.87,0,0,0,2.32,1m0-8.1A4.29,4.29,0,0,1,274,58.09a5.18,5.18,0,0,1,0,6.62,4.66,4.66,0,0,1-6.58,0,5.18,5.18,0,0,1,0-6.62,4.29,4.29,0,0,1,3.29-1.36" transform="translate(-0.17 -0.21)"/><path class="a" d="M278.52,56.88v1.41a4.51,4.51,0,0,1,1.2-1.1,2.9,2.9,0,0,1,1.61-.45,4.33,4.33,0,0,1,1.56.25,3.19,3.19,0,0,1,1.14.76,3.89,3.89,0,0,1,1.12,2.91v5.26h-1.36V60.69a2.77,2.77,0,0,0-.71-2,2.4,2.4,0,0,0-1.82-.74,2.69,2.69,0,0,0-1.94.76,2.66,2.66,0,0,0-.8,2v5.21h-1.36v-9Z" transform="translate(-0.17 -0.21)"/><path class="a" d="M292.93,59.3q-.18-1.41-2.27-1.41t-2.09,1.3A.91.91,0,0,0,289,60a3.94,3.94,0,0,0,1.11.46c.45.12.93.23,1.46.34a7.48,7.48,0,0,1,1.45.43,3.11,3.11,0,0,1,1.11.77,1.92,1.92,0,0,1,.44,1.34,2.31,2.31,0,0,1-1,2,4.63,4.63,0,0,1-2.69.7,4.28,4.28,0,0,1-2.88-.91,2.75,2.75,0,0,1-1-2.08h1.41a1.88,1.88,0,0,0,1.41,1.68,3.1,3.1,0,0,0,.93.15,7.08,7.08,0,0,0,.86-.05,3.48,3.48,0,0,0,.78-.2,1.2,1.2,0,0,0,.87-1.17,1,1,0,0,0-.44-.86,3.87,3.87,0,0,0-1.11-.49c-.44-.13-.93-.24-1.45-.34a7.84,7.84,0,0,1-1.46-.42,3.11,3.11,0,0,1-1.11-.74,1.82,1.82,0,0,1-.45-1.3,2.25,2.25,0,0,1,.9-1.91,4.33,4.33,0,0,1,2.65-.68,4,4,0,0,1,2.62.79,2.62,2.62,0,0,1,.92,1.77Z" transform="translate(-0.17 -0.21)"/></svg>