<?xml version="1.0" encoding="UTF-8" standalone="no"?>
<svg width="1440px" height="526px" viewBox="0 0 1440 526" version="1.1" xmlns="http://www.w3.org/2000/svg" xmlns:xlink="http://www.w3.org/1999/xlink">
    <!-- Generator: Sketch 45.2 (43514) - http://www.bohemiancoding.com/sketch -->
    <title>Group 4</title>
    <desc>Created with Sketch.</desc>
    <defs></defs>
    <g id="Energy" stroke="none" stroke-width="1" fill="none" fill-rule="evenodd">
        <g id="NETZWERK" transform="translate(0.000000, -554.000000)">
            <g id="Group-2" transform="translate(-18.000000, -16.000000)">
                <g id="Group-4" transform="translate(16.000000, 570.000000)">
                    <path d="M1262.0877,150.367913 L701.717957,7.07212921 L701.717957,7.07212921 C682.629014,2.19077173 662.523431,3.05730692 643.925259,9.56295009 L193.741903,167.037152 L193.741903,167.037152 C172.290183,174.540967 148.922316,174.514035 127.487949,166.960795 L2,122.740191 L2.39971499,525.512973 L1442.39971,520.28641 L1442,93.1921001 L1327.99152,144.635666 L1327.99152,144.635666 C1307.31004,153.967686 1284.0698,155.989098 1262.0877,150.367913 Z" id="Path-16" fill="#FFFFFF"></path>
                    <path d="M0.477443176,121.448454 L131.616701,164.076623 L131.616701,164.076623 C152.474234,170.856579 174.982255,170.591624 195.674409,163.322563 L643.441768,6.02388302 L643.441768,6.02388302 C661.93029,-0.471052309 681.919646,-1.39072085 700.926437,3.37913343 L1268.12985,145.721815 L1268.12985,145.721815 C1290.05847,151.224919 1313.20477,149.134798 1333.79285,139.792416 L1448.11063,87.9177032 L1448.11063,100.09593 L1332.97328,151.834203 L1332.97328,151.834203 C1312.8855,160.860874 1290.37975,163.003965 1268.94933,157.930829 L699.886767,23.2189689 L699.886767,23.2189689 C681.52851,18.8730937 662.315376,19.8089652 644.466402,25.9184942 L198.43999,178.588967 L198.43999,178.588967 C176.056343,186.25067 151.681195,185.728147 129.646443,177.11426 L0.477443176,126.619153 L0.477443176,121.448454 Z" id="Path-2" fill="#F0F0F0"></path>
                </g>
            </g>
        </g>
    </g>
</svg>