<?xml version="1.0" encoding="UTF-8"?>
<svg width="320px" height="402px" viewBox="0 0 320 402" version="1.1" xmlns="http://www.w3.org/2000/svg" xmlns:xlink="http://www.w3.org/1999/xlink">
    <!-- Generator: Sketch 46.2 (44496) - http://www.bohemiancoding.com/sketch -->
    <title>Group</title>
    <desc>Created with Sketch.</desc>
    <defs>
        <linearGradient x1="8.49566239%" y1="34.6761113%" x2="88.3059051%" y2="46.7807184%" id="linearGradient-1">
            <stop stop-color="#628F3B" offset="0%"></stop>
            <stop stop-color="#84AF5F" offset="100%"></stop>
        </linearGradient>
        <linearGradient x1="-2.85546308%" y1="47.0815712%" x2="219.075994%" y2="53.9631445%" id="linearGradient-2">
            <stop stop-color="#6C934A" offset="0%"></stop>
            <stop stop-color="#84AF5F" offset="100%"></stop>
        </linearGradient>
    </defs>
    <g id="Energy" stroke="none" stroke-width="1" fill="none" fill-rule="evenodd">
        <g id="Mobile-Copy-7" transform="translate(0.000000, -290.000000)">
            <g id="Group" transform="translate(205.087662, 501.492184) rotate(279.000000) translate(-205.087662, -501.492184) translate(-74.912338, 77.992184)">
                <path d="M-3.18323146e-12,-1.63424829e-13 L290.167331,-1.32517552e-13 L464.71293,287.179822 C486.799411,323.518703 480.862166,377.877702 451.447191,408.598777 L309.569683,556.77601 L14.2352872,846.163333 L-3.18323146e-12,-1.63424829e-13 Z" id="Rectangle" fill="#84AF5F"></path>
                <path d="M76.9509841,342.165067 C70.0582025,309.190758 85.6720056,265.234262 111.814195,243.99458 L332.522104,64.6765538 L465.657223,288.013194 C487.432138,324.541018 480.942541,378.765289 451.163673,409.125097 L154.228641,711.852873 L76.9509841,342.165067 Z" id="Rectangle-Copy" fill="url(#linearGradient-1)"></path>
                <path d="M78.7816834,336.677468 C72.2248421,303.630108 87.9598677,259.452584 113.937452,237.995447 L277.412086,102.967589 L378.98366,269.542981 C401.121337,305.848338 391.574947,356.078443 357.667109,381.730591 L122.951446,559.298999 L78.7816834,336.677468 Z" id="Rectangle-Copy-2" fill="url(#linearGradient-2)"></path>
            </g>
        </g>
    </g>
</svg>