
<svg width="17px" height="17px" viewBox="0 0 17 17" version="1.1" xmlns="http://www.w3.org/2000/svg" xmlns:xlink="http://www.w3.org/1999/xlink">
    <defs></defs>
    <g id="Page-1" stroke="none" stroke-width="1" fill="none" fill-rule="evenodd">
        <g id="Artboard-Copy" transform="translate(-65.000000, -72.000000)" fill="#393939">
            <g id="Group-2" transform="translate(65.000000, 35.000000)">
                <path d="M8.5,37 C6.2294375,37 4.09514062,37.8842656 2.48970312,39.4899688 C0.884265625,41.0951406 -1.42108547e-14,43.2297031 -1.42108547e-14,45.5 C-1.42108547e-14,47.7702969 0.884265625,49.9048594 2.48970312,51.5100312 C4.09514062,53.1157344 6.2294375,54 8.5,54 C10.7702969,54 12.9045938,53.1157344 14.5100313,51.5100312 C16.1157344,49.9048594 17,47.7702969 17,45.5 C17,43.2297031 16.1157344,41.0951406 14.5102969,39.4899688 C12.9045938,37.8842656 10.7702969,37 8.5,37 L8.5,37 Z M13.7588438,50.7588437 C12.3542188,52.1637344 10.4863438,52.9375 8.5,52.9375 C6.51339063,52.9375 4.64578125,52.1637344 3.24115625,50.7588437 C1.83626562,49.3542187 1.0625,47.4866094 1.0625,45.5 C1.0625,43.5136563 1.83626562,41.6460469 3.24115625,40.2411562 C4.64578125,38.8362656 6.51339063,38.0625 8.5,38.0625 C10.4863438,38.0625 12.3542188,38.8362656 13.7588438,40.2411562 C15.1637344,41.6460469 15.9375,43.5136563 15.9375,45.5 C15.9375,47.4866094 15.1637344,49.3542187 13.7588438,50.7588437 L13.7588438,50.7588437 Z M8.5,50.28125 C8.20648438,50.28125 7.96875,50.51925 7.96875,50.8125 L7.96875,51.34375 C7.96875,51.6372656 8.20648438,51.875 8.5,51.875 C8.79325,51.875 9.03125,51.6372656 9.03125,51.34375 L9.03125,50.8125 C9.03125,50.51925 8.79325,50.28125 8.5,50.28125 L8.5,50.28125 Z M12.4277969,46.6055313 L9.03125,45.1499063 L9.03125,39.65625 C9.03125,39.363 8.79325,39.125 8.5,39.125 C8.20648438,39.125 7.96875,39.363 7.96875,39.65625 L7.96875,45.5 C7.96875,45.7125 8.0951875,45.9048125 8.2906875,45.9882188 L12.0094375,47.5819688 C12.0777031,47.6111875 12.148625,47.6252656 12.2182188,47.6252656 C12.4243438,47.625 12.6206406,47.5044063 12.7069688,47.3030625 C12.8225156,47.0334531 12.6976719,46.7210781 12.4277969,46.6055313 L12.4277969,46.6055313 Z M3.1875,44.96875 L2.65625,44.96875 C2.36273437,44.96875 2.125,45.20675 2.125,45.5 C2.125,45.7935156 2.36273437,46.03125 2.65625,46.03125 L3.1875,46.03125 C3.48075,46.03125 3.71875,45.7935156 3.71875,45.5 C3.71875,45.20675 3.48075,44.96875 3.1875,44.96875 L3.1875,44.96875 Z M13.2809844,45.5 C13.2809844,45.7935156 13.5189844,46.03125 13.8122344,46.03125 L14.3434844,46.03125 C14.637,46.03125 14.8747344,45.7935156 14.8747344,45.5 C14.8747344,45.20675 14.637,44.96875 14.3434844,44.96875 L13.8122344,44.96875 C13.5189844,44.96875 13.2809844,45.20675 13.2809844,45.5 L13.2809844,45.5 Z" id="61-copy"></path>
            </g>
        </g>
    </g>
</svg>
