<?xml version="1.0" encoding="UTF-8"?>
<svg width="320px" height="392px" viewBox="0 0 320 392" version="1.1" xmlns="http://www.w3.org/2000/svg" xmlns:xlink="http://www.w3.org/1999/xlink">
    <!-- Generator: Sketch 46.2 (44496) - http://www.bohemiancoding.com/sketch -->
    <title>Group</title>
    <desc>Created with Sketch.</desc>
    <defs>
        <linearGradient x1="38.8980036%" y1="36.9359864%" x2="138.124722%" y2="45.2941973%" id="linearGradient-1">
            <stop stop-color="#D4D5D4" offset="0%"></stop>
            <stop stop-color="#9E9F9E" offset="100%"></stop>
        </linearGradient>
        <linearGradient x1="110.5811%" y1="47.0876132%" x2="-3.30422924%" y2="48.5207134%" id="linearGradient-2">
            <stop stop-color="#D4D5D4" offset="0%"></stop>
            <stop stop-color="#9E9F9E" offset="100%"></stop>
        </linearGradient>
    </defs>
    <g id="Operations" stroke="none" stroke-width="1" fill="none" fill-rule="evenodd">
        <g id="Mobile-Copy-7" transform="translate(0.000000, -300.000000)">
            <g id="Group" transform="translate(198.752067, 551.493562) rotate(279.000000) translate(-198.752067, -551.493562) translate(-40.747933, 127.993562)">
                <path d="M-3.18323146e-12,-1.63424829e-13 L290.167331,-1.32517552e-13 L464.71293,287.179822 C486.799411,323.518703 480.862166,377.877702 451.447191,408.598777 L309.569683,556.77601 L14.2352872,846.163333 L-3.18323146e-12,-1.63424829e-13 Z" id="Rectangle" fill="#9E9F9E"></path>
                <path d="M77.0332841,342.154779 C70.0950495,309.186152 85.6720056,265.234262 111.814195,243.99458 L332.522104,64.6765538 L465.657223,288.013194 C487.432138,324.541018 481.293779,379.091786 451.935272,409.867845 L156.467019,719.602546 L77.0332841,342.154779 Z" id="Rectangle-Copy" fill="url(#linearGradient-1)"></path>
                <path d="M77.0339642,340.397661 C70.2235849,307.398691 85.6558263,263.145186 111.514266,241.545146 L277.412086,102.967589 L378.98366,269.542981 C401.121337,305.848338 391.371008,355.795398 357.190979,381.113757 L121.472308,555.718937 L77.0339642,340.397661 Z" id="Rectangle-Copy-2" fill="url(#linearGradient-2)"></path>
            </g>
        </g>
    </g>
</svg>