<?xml version="1.0" encoding="UTF-8" standalone="no"?>
<svg width="1440px" height="320px" viewBox="0 0 1440 320" version="1.1" xmlns="http://www.w3.org/2000/svg" xmlns:xlink="http://www.w3.org/1999/xlink">
    <!-- Generator: Sketch 45.2 (43514) - http://www.bohemiancoding.com/sketch -->
    <title>Group 11</title>
    <desc>Created with Sketch.</desc>
    <defs>
        <linearGradient x1="50%" y1="95.832868%" x2="46.8670617%" y2="-1.69649271%" id="linearGradient-1">
            <stop stop-color="#D4D5D4" offset="0%"></stop>
            <stop stop-color="#9E9F9E" offset="100%"></stop>
        </linearGradient>
        <linearGradient x1="59.9163979%" y1="50%" x2="73.7454508%" y2="-23.0790722%" id="linearGradient-2">
            <stop stop-color="#828282" offset="0%"></stop>
            <stop stop-color="#9E9F9E" offset="100%"></stop>
        </linearGradient>
    </defs>
    <g id="Operations" stroke="none" stroke-width="1" fill="none" fill-rule="evenodd">
        <g id="LEISTUNGEN-Copy" transform="translate(0.000000, -5414.000000)">
            <g id="Group-5" transform="translate(0.000000, 5261.000000)">
                <g id="Group-11" transform="translate(0.000000, 153.000000)">
                    <path d="M0,22.5099025 L454.972656,319.203125 L64.9569515,173.276331 L64.9569515,173.276331 C25.890398,158.659338 1.93190444e-14,121.328991 1.42108547e-14,79.6174566 L0,22.5099025 Z" id="Path-24-Copy-12" fill="url(#linearGradient-1)"></path>
                    <path d="M1329.41972,1.95766689 L1439.51664,41.0684745 L1440,59.0430832 L1145.29052,141.801796 L1309.96699,5.40130606 L1309.96699,5.40130606 C1315.39223,0.907607945 1322.78151,-0.400486965 1329.41972,1.95766689 Z" id="Path-24-Copy-14" fill="url(#linearGradient-2)"></path>
                    <path d="M1327.17003,32.9379503 L1439.0625,59.51048 L1147.59229,142.980893 L1311.59782,35.6613461 L1311.59782,35.6613461 C1316.1943,32.6535687 1321.82555,31.6687295 1327.17003,32.9379503 Z" id="Path-24-Copy-13" fill="url(#linearGradient-1)"></path>
                </g>
            </g>
        </g>
    </g>
</svg>