<?xml version="1.0" encoding="UTF-8" standalone="no"?>
<svg width="1442px" height="517px" viewBox="0 0 1442 517" version="1.1" xmlns="http://www.w3.org/2000/svg" xmlns:xlink="http://www.w3.org/1999/xlink">
    <!-- Generator: Sketch 46.2 (44496) - http://www.bohemiancoding.com/sketch -->
    <title>Group 6 Copy</title>
    <desc>Created with Sketch.</desc>
    <defs>
        <linearGradient x1="50%" y1="-110.641782%" x2="50%" y2="159.561591%" id="linearGradient-1">
            <stop stop-color="#3F5B76" offset="0%"></stop>
            <stop stop-color="#286AA6" offset="100%"></stop>
        </linearGradient>
    </defs>
    <g id="offshore" stroke="none" stroke-width="1" fill="none" fill-rule="evenodd">
        <g id="Group-6-Copy" transform="translate(-140.000000, -426.000000)">
            <path d="M140,501.180006 L408.479278,519.13621 L408.479278,519.13621 C417.302288,519.726303 426.008054,521.484058 434.368831,524.363493 L1581.00717,919.263376 L140,919.263376 L140,501.180006 Z" id="Path-20" fill="url(#linearGradient-1)"></path>
            <path d="M140,540.313232 L374.424282,613.469046 L374.424282,613.469046 C390.366499,618.444068 407.300845,619.34719 423.681774,616.095987 L1371.22819,428.031833 L1371.22819,428.031833 C1400.08832,422.303824 1430.00644,429.576334 1453.01689,447.913067 L1580.95337,549.863987 L1580.95337,900.974307 L140,900.974307 L140,540.313232 Z" id="Path-20-Copy" fill="#286AA6"></path>
            <g id="Group-24">
                <path d="M140.57106,586.714043 L355.409536,577.561286 L355.409536,577.561286 C378.849438,576.562677 401.89423,583.837329 420.512544,598.112643 L1190.03918,1188.13568 L1190.03918,1188.13568 C1202.69978,1197.84301 1217.49921,1204.38029 1233.20156,1207.20159 L1424.46108,1241.5659 L1590.59805,900.934638 L295.417072,269.232669 L140.57106,586.714043 Z" id="Path-3-Copy-11" fill="#FFFFFF" transform="translate(865.584553, 755.399283) scale(1, -1) rotate(-26.000000) translate(-865.584553, -755.399283) "></path>
                <path d="M140,588.423943 L331.590346,689.880451 L331.590346,689.880451 C352.063757,700.722129 375.66631,704.119018 398.366148,699.490852 L1348.39263,505.794291 L1348.39263,505.794291 C1364.32744,502.545416 1380.81417,503.231855 1396.42376,507.794107 L1581.05031,561.755368 L1581.05031,564.989062 L1395.94455,513.874372 L1395.94455,513.874372 C1380.6389,509.647904 1364.54682,509.126934 1348.99985,512.354568 L399.113337,709.556108 L399.113337,709.556108 C375.31471,714.496831 350.531271,710.600631 329.396627,698.595956 L140,591.016909 L140,588.423943 Z" id="Path-2" fill="#F0F0F0"></path>
            </g>
        </g>
    </g>
</svg>