<?xml version="1.0" encoding="UTF-8" standalone="no"?>
<svg width="1440px" height="1167px" viewBox="0 0 1440 1167" version="1.1" xmlns="http://www.w3.org/2000/svg" xmlns:xlink="http://www.w3.org/1999/xlink">
    <!-- Generator: Sketch 46.2 (44496) - http://www.bohemiancoding.com/sketch -->
    <title>Group 9</title>
    <desc>Created with Sketch.</desc>
    <defs>
        <linearGradient x1="96.2892821%" y1="-18.1623556%" x2="79.6629883%" y2="27.1872479%" id="linearGradient-1">
            <stop stop-color="#ADDA87" offset="0%"></stop>
            <stop stop-color="#84AF5F" offset="100%"></stop>
        </linearGradient>
        <linearGradient x1="74.2802374%" y1="115.719932%" x2="97.6611996%" y2="-3.25711113%" id="linearGradient-2">
            <stop stop-color="#57733F" offset="0%"></stop>
            <stop stop-color="#82AC5D" offset="94.9431814%"></stop>
            <stop stop-color="#84AF5F" offset="100%"></stop>
        </linearGradient>
        <linearGradient x1="79.2014926%" y1="92.6173362%" x2="48.8648981%" y2="-64.3180223%" id="linearGradient-3">
            <stop stop-color="#57733F" offset="0%"></stop>
            <stop stop-color="#84AF5F" offset="100%"></stop>
        </linearGradient>
        <linearGradient x1="38.6363921%" y1="64.5326912%" x2="48.8648981%" y2="-64.3180223%" id="linearGradient-4">
            <stop stop-color="#57733F" offset="0%"></stop>
            <stop stop-color="#84AF5F" offset="100%"></stop>
        </linearGradient>
    </defs>
    <g id="Energy" stroke="none" stroke-width="1" fill="none" fill-rule="evenodd">
        <g id="PROFIL-Copy-3" transform="translate(0.000000, -1953.000000)">
            <g id="Group-9" transform="translate(-3.000000, 1953.000000)">
                <path d="M0.520378403,168.701789 L77.1526339,52.8435452 C100.918965,16.911869 154.564481,-6.05583727 196.954784,1.54042906 L1446,225.367092 L1446,709.586255 L3,709.586255 L0.520378403,168.701789 Z" id="Rectangle-3-Copy" fill="url(#linearGradient-1)"></path>
                <path d="M155.721233,8.7963515 L1446,268.87332 L1446,1170.3125 L1194.36915,850.211781 L1194.36915,850.211781 C1171.66118,821.324869 1134.94037,807.218013 1098.73265,813.47157 L1.96264215,1002.89844 L1.96264215,143.528042 L77.0896766,39.5713869 L77.0896766,39.5713869 C95.0013752,14.7861641 125.744144,2.75397461 155.721233,8.7963515 Z" id="Rectangle-3-Copy-5" fill="url(#linearGradient-2)"></path>
                <polygon id="Path-3-Copy-9" fill="url(#linearGradient-3)" points="3 1004.15625 218.53125 966.078125 1 816"></polygon>
                <path d="M626.577157,1089.36709 L833.075921,800.219219 L833.075921,800.219219 C851.381811,774.586577 883.308123,762.47978 914.007379,769.52915 L1443,891 L966.888068,811.969556 L966.888068,811.969556 C931.116558,806.031797 894.933525,819.923644 872.326639,848.274776 L623.09375,1160.83594 L626.577157,1089.36709 Z" id="Rectangle-3-Copy-6" fill="url(#linearGradient-4)" transform="translate(1033.046875, 964.191456) scale(-1, 1) translate(-1033.046875, -964.191456) "></path>
            </g>
        </g>
    </g>
</svg>