<?xml version="1.0" encoding="UTF-8" standalone="no"?>
<svg width="1440px" height="633px" viewBox="0 0 1440 633" version="1.1" xmlns="http://www.w3.org/2000/svg" xmlns:xlink="http://www.w3.org/1999/xlink">
    <!-- Generator: Sketch 45.2 (43514) - http://www.bohemiancoding.com/sketch -->
    <title>Group 7</title>
    <desc>Created with Sketch.</desc>
    <defs></defs>
    <g id="Operations" stroke="none" stroke-width="1" fill="none" fill-rule="evenodd">
        <g id="Group-7" transform="translate(0.000000, -1.000000)">
            <path d="M1440,523.664063 L1440,9.015625 L722.594031,315.823081 L722.594031,315.823081 C690.14312,329.701111 652.779734,325.445253 624.281136,304.624801 L239.60596,23.5895327 L239.60596,23.5895327 C210.689687,2.46393561 172.6842,-1.58640214 139.965147,12.9705674 L0,75.2421875 L0,633.828125 L1440,633.828125 L1440,523.664063 Z" id="Path-16" fill="#FFFFFF"></path>
            <path d="M0,73.0650395 L152.687474,7.46574008 L152.687474,7.46574008 C177.791392,-3.31968594 206.708626,-0.183283964 228.916373,15.7336286 L633.643984,305.813214 L633.643984,305.813214 C655.690342,321.614455 684.362519,324.827987 709.359889,314.299333 L1440,6.56069711 L1440,9.30123302 L710.190095,324.995617 L710.190095,324.995617 C684.75812,335.996744 655.398874,332.679549 633.062659,316.281265 L232.286802,22.0489521 L232.286802,22.0489521 C210.372644,5.96052482 181.662744,2.44269208 156.512555,12.7643109 L0,76.9969491 L0,73.0650395 Z" id="Path-8" fill="#F0F0F0"></path>
        </g>
    </g>
</svg>