<?xml version="1.0" encoding="UTF-8" standalone="no"?>
<svg width="1440px" height="174px" viewBox="0 0 1440 174" version="1.1" xmlns="http://www.w3.org/2000/svg" xmlns:xlink="http://www.w3.org/1999/xlink">
    <!-- Generator: Sketch 45.2 (43514) - http://www.bohemiancoding.com/sketch -->
    <title>Group 7</title>
    <desc>Created with Sketch.</desc>
    <defs>
        <linearGradient x1="39.3881312%" y1="-9.48149799%" x2="108.129935%" y2="153.577307%" id="linearGradient-1">
            <stop stop-color="#D4D5D4" offset="0%"></stop>
            <stop stop-color="#9E9F9E" offset="100%"></stop>
        </linearGradient>
        <linearGradient x1="43.9465811%" y1="-9.32151459%" x2="43.9465821%" y2="44.3833312%" id="linearGradient-2">
            <stop stop-color="#C8C9C8" offset="0%"></stop>
            <stop stop-color="#B1B1B1" offset="100%"></stop>
        </linearGradient>
        <linearGradient x1="98.0325704%" y1="-10.0272436%" x2="38.5068222%" y2="107.529647%" id="linearGradient-3">
            <stop stop-color="#D4D5D4" offset="0%"></stop>
            <stop stop-color="#C5C5C5" offset="100%"></stop>
        </linearGradient>
    </defs>
    <g id="Operations" stroke="none" stroke-width="1" fill="none" fill-rule="evenodd">
        <g id="02-copy-9" transform="translate(0.000000, -3662.000000)">
            <g id="Group-7" transform="translate(0.000000, 3662.000000)">
                <g id="Group-4" transform="translate(585.000000, 110.500000) scale(1, -1) translate(-585.000000, -110.500000) translate(153.000000, 47.000000)">
                    <path d="M349.259229,75.646326 L773.144974,44.5539483 C794.874547,42.9600658 821.678603,56.7470954 833.015653,75.3516568 L863.886867,126.012582 L355.186551,83.0400165 L349.259229,75.646326 Z" id="Rectangle-3-Copy-4" fill="url(#linearGradient-1)" transform="translate(606.573048, 85.220572) scale(-1, 1) translate(-606.573048, -85.220572) "></path>
                    <path d="M0.74817367,111.06922 L216.721513,9.54562376 L216.721513,9.54562376 C237.320705,-0.137534698 260.606958,-2.50354466 282.732795,2.83851854 L524.198143,61.1379259 L331.155505,68.4864175 L331.155505,68.4864175 C319.518135,68.9294136 308.047587,71.4017856 297.261018,75.7920657 L175.272353,125.443106 L0.74817367,111.06922 Z" id="Rectangle-3-Copy-6" fill="url(#linearGradient-2)" transform="translate(262.473158, 62.744206) scale(-1, 1) translate(-262.473158, -62.744206) "></path>
                </g>
                <path d="M503.444405,48.020634 L163.950749,1.45057969 L163.950749,1.45057969 C140.062129,-1.82634259 115.793912,3.63857114 95.6157521,16.8388078 L0,79.3891377 L0,118.588001 L345.863971,106.279047 L345.863971,106.279047 C357.749337,105.856059 369.463953,103.316324 380.457368,98.7791812 L503.444405,48.020634 Z" id="Path-36" fill="#D8D8D8"></path>
                <path d="M1440.33131,87.8167682 L1434.1862,83.0144252 L1434.1862,83.0144252 C1416.56096,69.2404718 1394.82647,61.7736723 1372.45753,61.8077845 L676.70076,62.8688005 L1016.97133,98.3104943 L1440.35099,100.565472 L1440.33131,87.8167682 Z" id="Path-36-Copy" fill="url(#linearGradient-3)"></path>
            </g>
        </g>
    </g>
</svg>