<?xml version="1.0" encoding="UTF-8" standalone="no"?>
<svg width="1441px" height="362px" viewBox="0 0 1441 362" version="1.1" xmlns="http://www.w3.org/2000/svg" xmlns:xlink="http://www.w3.org/1999/xlink">
    <!-- Generator: Sketch 46.2 (44496) - http://www.bohemiancoding.com/sketch -->
    <title>Group 27</title>
    <desc>Created with Sketch.</desc>
    <defs>
        <linearGradient x1="91.8541193%" y1="39.3082251%" x2="91.8541193%" y2="-22.6773483%" id="linearGradient-1">
            <stop stop-color="#A5A5A5" offset="0%"></stop>
            <stop stop-color="#9E9F9E" offset="100%"></stop>
        </linearGradient>
        <linearGradient x1="73.4204829%" y1="-32.1278221%" x2="38.2775067%" y2="141.070298%" id="linearGradient-2">
            <stop stop-color="#B6B4B4" offset="0%"></stop>
            <stop stop-color="#CACACA" offset="100%"></stop>
        </linearGradient>
        <linearGradient x1="42.0247019%" y1="169.961505%" x2="45.9408457%" y2="-345.722436%" id="linearGradient-3">
            <stop stop-color="#BDBDBD" offset="0%"></stop>
            <stop stop-color="#9E9F9E" offset="100%"></stop>
        </linearGradient>
    </defs>
    <g id="Operations" stroke="none" stroke-width="1" fill="none" fill-rule="evenodd">
        <g id="Artboard-3" transform="translate(-172.000000, -63.000000)">
            <g id="Group-27" transform="translate(172.000000, 63.000000)">
                <path d="M0,22 L812.267037,45.4109862 L812.267037,45.4109862 C813.227115,45.4386573 814.187542,45.4524951 815.148019,45.4524951 L1440,45.4524951 L1440,361.830006 L0,361.830006 L0,22 Z" id="Path-22-Copy-2" fill="#DADADA"></path>
                <path d="M1329.68578,176.182139 L842.307419,34.6509613 L1440.125,0 L1440.125,146.31335 L1410.91562,164.733995 L1410.91562,164.733995 C1386.72226,179.991332 1357.1536,184.158597 1329.68578,176.182139 Z" id="Path-18-Copy-2" fill="url(#linearGradient-1)"></path>
                <path d="M0.0248498603,86.9048269 L131.18043,163.568809 L131.18043,163.568809 C150.013027,174.576971 172.173363,178.453882 193.624712,174.493325 L639.282226,92.2116795 L0.0248498603,34.5733326 L0.0248498603,86.9048269 Z" id="Path-3-Copy-16" fill="url(#linearGradient-2)"></path>
                <path d="M1.13686838e-13,41.1328923 L1.13686838e-13,20 L839.124162,33.7711279 L1186.2017,133.895627 L225.021852,63.2039586 L225.021852,63.2039586 C224.207728,63.1440824 223.394367,63.0742395 222.581953,62.9944458 L1.13686838e-13,41.1328923 Z" id="Path-24-Copy-15" fill="url(#linearGradient-3)"></path>
            </g>
        </g>
    </g>
</svg>