<?xml version="1.0" encoding="utf-8"?>
<!-- Generator: Adobe Illustrator 17.0.0, SVG Export Plug-In . SVG Version: 6.00 Build 0)  -->
<!DOCTYPE svg PUBLIC "-//W3C//DTD SVG 1.1//EN" "http://www.w3.org/Graphics/SVG/1.1/DTD/svg11.dtd">
<svg version="1.1" id="Layer_1" xmlns="http://www.w3.org/2000/svg" xmlns:xlink="http://www.w3.org/1999/xlink" x="0px" y="0px"
	 width="1440px" height="433px" viewBox="0 0 1440 433" enable-background="new 0 0 1440 433" xml:space="preserve">
<polygon fill="#FFFFFF" points="0,267 1078.073,133.595 1440,314 1440,433 0,433 "/>
<title>Group 3</title>
<desc>Created with Sketch.</desc>
<g id="Energy">
	<g id="LEISTUNGEN-Copy-6" transform="translate(0.000000, -1564.000000)">
		<g id="Group-3" transform="translate(0.000000, 1564.000000)">
			
				<linearGradient id="Path-23-Copy-5_1_" gradientUnits="userSpaceOnUse" x1="550.4998" y1="300.4234" x2="549.5687" y2="301.0776" gradientTransform="matrix(1297.6727 0 0 -160.4856 -712772.5625 48497.0312)">
				<stop  offset="0" style="stop-color:#57733F"/>
				<stop  offset="1" style="stop-color:#84AF5F"/>
			</linearGradient>
			<path id="Path-23-Copy-5" fill="url(#Path-23-Copy-5_1_)" d="M0,257.773L1051.03,111.88l0,0
				c14.652-2.034,29.573-0.792,43.687,3.637l202.956,63.681l-15.583,83.858l-213.774-91.974l0,0
				c-15.765-6.783-33.011-9.394-50.077-7.582l-430.028,45.648L0,271.416V257.773z"/>
			<g id="Group-5-Copy-9" transform="translate(1088.000000, 113.000000)">
				
					<linearGradient id="Path-3-Copy-2_2_" gradientUnits="userSpaceOnUse" x1="-538.481" y1="187.8573" x2="-538.9607" y2="188.537" gradientTransform="matrix(351.5798 0 0 -319.247 189624.7188 60257.9297)">
					<stop  offset="0" style="stop-color:#ADDA87"/>
					<stop  offset="1" style="stop-color:#84AF5F"/>
				</linearGradient>
				<path id="Path-3-Copy-2" fill="url(#Path-3-Copy-2_2_)" d="M0.42,0.779l133.544,296.269l0,0
					c7.592,16.844,25.962,26.049,44,22.048L352,280.497V109.905L0.42,0.779z"/>
				
					<linearGradient id="Path-3_2_" gradientUnits="userSpaceOnUse" x1="-538.4218" y1="187.5764" x2="-538.9738" y2="188.8271" gradientTransform="matrix(351.4047 0 0 -297.2276 189530.6094 56096.2812)">
					<stop  offset="0" style="stop-color:#57733F"/>
					<stop  offset="1" style="stop-color:#84AF5F"/>
				</linearGradient>
				<path id="Path-3" fill="url(#Path-3_2_)" d="M0.595,0.806l146.176,274.439l0,0c9.113,17.109,28.546,26.005,47.452,21.723
					L352,261.229V109.663L0.595,0.806z"/>
			</g>
			<g id="Group-5-Copy-10">
				
					<linearGradient id="Path-3-Copy-2_3_" gradientUnits="userSpaceOnUse" x1="548.9356" y1="302.732" x2="549.2629" y2="300.9133" gradientTransform="matrix(416.188 0 0 -259.2294 -228396.7344 78207.4375)">
					<stop  offset="0" style="stop-color:#ADDA87"/>
					<stop  offset="1" style="stop-color:#84AF5F"/>
				</linearGradient>
				<path id="Path-3-Copy-2_1_" fill="url(#Path-3-Copy-2_3_)" d="M0,259.939l416.188-59.559l-15.927-2.281l0,0
					c-10.842-1.553-21.355-4.876-31.12-9.837L0,0.709V259.939z"/>
				
					<linearGradient id="Path-3_3_" gradientUnits="userSpaceOnUse" x1="550.042" y1="298.9088" x2="548.7724" y2="301.7989" gradientTransform="matrix(383.1694 0 0 -239.0329 -210253 72128.125)">
					<stop  offset="0" style="stop-color:#57733F"/>
					<stop  offset="1" style="stop-color:#84AF5F"/>
				</linearGradient>
				<polygon id="Path-3_1_" fill="url(#Path-3_3_)" points="0,20.737 0,259.77 383.169,204.687 				"/>
				
					<linearGradient id="Path-3-Copy-3_1_" gradientUnits="userSpaceOnUse" x1="549.2944" y1="296.1184" x2="549.176" y2="302.506" gradientTransform="matrix(383.1694 0 0 -58.4325 -210253 17767.416)">
					<stop  offset="0" style="stop-color:#57733F"/>
					<stop  offset="1" style="stop-color:#84AF5F"/>
				</linearGradient>
				<polygon id="Path-3-Copy-3" fill="url(#Path-3-Copy-3_1_)" points="374.692,201.337 0,255.613 0,259.77 383.169,204.687 				"/>
			</g>
			
				<linearGradient id="Path-5_1_" gradientUnits="userSpaceOnUse" x1="540.9672" y1="301.3628" x2="544.6017" y2="298.8096" gradientTransform="matrix(38.4037 0 0 -82.4094 -19717.3164 24920.5039)">
				<stop  offset="0" style="stop-color:#57733F"/>
				<stop  offset="1" style="stop-color:#84AF5F"/>
			</linearGradient>
			<polygon id="Path-5" fill="url(#Path-5_1_)" points="1086.929,113.397 1116.805,191.937 1125.332,195.807 1088.352,113.754 			
				"/>
		</g>
	</g>
</g>
</svg>
