<?xml version="1.0" encoding="UTF-8" standalone="no"?>
<svg width="141px" height="34px" viewBox="0 0 141 34" version="1.1" xmlns="http://www.w3.org/2000/svg" xmlns:xlink="http://www.w3.org/1999/xlink">
    <!-- Generator: Sketch 45.2 (43514) - http://www.bohemiancoding.com/sketch -->
    <title>GWE_Logo_Weiss_Weiss_4c</title>
    <desc>Created with Sketch.</desc>
    <defs>
        <polygon id="path-1" points="7.01535414 6.30611478 0.0540070283 6.30611478 0.0540070283 0.192201483 7.01535414 0.192201483"></polygon>
        <polygon id="path-3" points="0.0476532603 23.0467051 0.0476532603 0.231118312 140.623977 0.231118312 140.623977 11.6389117 140.623977 23.0467051"></polygon>
        <polygon id="path-5" points="0.320071065 5.2783928 0.320071065 0.22158766 4.13233189 2.7487989"></polygon>
    </defs>
    <g id="Energy" stroke="none" stroke-width="1" fill="none" fill-rule="evenodd">
        <g id="02-copy" transform="translate(-149.000000, -310.000000)">
            <g id="Group-2" transform="translate(-283.000000, -26.000000)">
                <g id="GWE_Logo_Weiss_Weiss_4c" transform="translate(432.000000, 336.000000)">
                    <path d="M115.791863,31.0627777 C116.373233,31.0627777 116.78861,30.8197461 117.043555,30.3384482 L117.751206,30.3384482 C117.601893,30.7276165 117.363626,31.0445106 117.03879,31.2867481 C116.714748,31.5281912 116.293811,31.6497071 115.783921,31.6497071 C115.133454,31.6497071 114.603708,31.4320905 114.195479,31.0024169 C113.799162,30.582274 113.601401,30.0549113 113.601401,29.4219171 C113.601401,28.7841577 113.789632,28.2583834 114.169269,27.8422116 C114.572734,27.412538 115.096125,27.1957157 115.741033,27.1957157 C116.385146,27.1957157 116.908538,27.412538 117.311208,27.8422116 C117.690051,28.2583834 117.87987,28.7841577 117.87987,29.4219171 L117.87987,29.6808332 L114.266164,29.6808332 C114.311435,30.0779437 114.469485,30.4051627 114.738726,30.6656672 C115.015909,30.9293486 115.366161,31.0627777 115.791863,31.0627777 M115.741033,27.7818508 C115.343922,27.7818508 115.009555,27.9073377 114.738726,28.1543404 C114.486164,28.390224 114.331291,28.6975876 114.274107,29.0772252 L117.207165,29.0772252 C117.149981,28.6975876 116.995108,28.390224 116.741751,28.1543404 C116.470922,27.9073377 116.137349,27.7818508 115.741033,27.7818508" id="Fill-1" fill="#FFFFFE"></path>
                    <path d="M119.446868,27.2656071 L119.446868,27.9367239 C119.601741,27.7310206 119.792354,27.5554978 120.016325,27.412538 C120.240295,27.268784 120.49524,27.1957157 120.785925,27.1957157 C121.072638,27.1957157 121.319641,27.2362209 121.526139,27.3164372 C121.734225,27.3974478 121.914513,27.5181694 122.07018,27.6793962 C122.426785,28.0296477 122.605485,28.4934728 122.605485,29.0684888 L122.605485,31.5798156 L121.958195,31.5798156 L121.958195,29.0867559 C121.958195,28.6880569 121.847004,28.3727512 121.619857,28.1368675 C121.395886,27.8993955 121.10679,27.7818508 120.750185,27.7818508 C120.38802,27.7818508 120.079862,27.9025723 119.826506,28.1448098 C119.573149,28.3934009 119.446868,28.7095009 119.446868,29.0946981 L119.446868,31.5798156 L118.799578,31.5798156 L118.799578,27.2656071 L119.446868,27.2656071" id="Fill-2" fill="#FFFFFE"></path>
                    <path d="M125.709301,31.0627777 C126.29067,31.0627777 126.708431,30.8197461 126.961787,30.3384482 L127.668644,30.3384482 C127.51933,30.7276165 127.28027,31.0445106 126.956228,31.2867481 C126.630597,31.5281912 126.212837,31.6497071 125.701358,31.6497071 C125.051686,31.6497071 124.52194,31.4320905 124.112916,31.0024169 C123.715806,30.582274 123.518045,30.0549113 123.518045,29.4219171 C123.518045,28.7841577 123.706275,28.2583834 124.087501,27.8422116 C124.490171,27.412538 125.014357,27.1957157 125.657676,27.1957157 C126.30179,27.1957157 126.824387,27.412538 127.228645,27.8422116 C127.606695,28.2583834 127.79969,28.7841577 127.79969,29.4219171 L127.79969,29.6808332 L124.182808,29.6808332 C124.228873,30.0779437 124.386923,30.4051627 124.656958,30.6656672 C124.932553,30.9293486 125.283598,31.0627777 125.709301,31.0627777 M125.657676,27.7818508 C125.260566,27.7818508 124.926993,27.9073377 124.656958,28.1543404 C124.402807,28.390224 124.248728,28.6975876 124.19075,29.0772252 L127.123808,29.0772252 C127.067419,28.6975876 126.911751,28.390224 126.659189,28.1543404 C126.38836,27.9073377 126.053993,27.7818508 125.657676,27.7818508" id="Fill-3" fill="#FFFFFE"></path>
                    <g id="Group-7" transform="translate(128.663803, 27.003514)">
                        <mask id="mask-2" fill="white">
                            <use xlink:href="#path-1"></use>
                        </mask>
                        <g id="Clip-5"></g>
                        <path d="M2.33103865,0.192201483 L2.33103865,0.838697381 L2.25320499,0.838697381 C1.78699726,0.838697381 1.40815384,1.02613354 1.11588051,1.40021163 C0.838697381,1.75761108 0.700502926,2.18251932 0.700502926,2.67731901 L0.700502926,4.57630143 L0.0540070283,4.57630143 L0.0540070283,0.262092932 L0.700502926,0.262092932 L0.700502926,1.32396642 C0.838697381,0.874437327 1.13732448,0.542452946 1.59797266,0.329601717 C1.78699726,0.238266302 2.01732135,0.192201483 2.28815072,0.192201483 L2.33103865,0.192201483" id="Fill-4" fill="#FFFFFE" mask="url(#mask-2)"></path>
                        <path d="M6.36965246,0.952270985 L6.36965246,0.262092932 L7.01535414,0.262092932 L7.01535414,4.44763763 C7.01535414,5.06792423 6.8398313,5.54127995 6.48481451,5.86849901 C6.13138616,6.19095273 5.65564778,6.35376804 5.05759936,6.35376804 C4.45875672,6.35376804 3.99175477,6.23860599 3.65421084,6.00748768 C3.31825536,5.77795781 3.08951971,5.47456539 2.96959234,5.09413353 L3.68518546,5.09413353 C3.86865052,5.54286839 4.29038187,5.76763294 4.94481998,5.76763294 C5.44517921,5.76763294 5.80893243,5.65247089 6.03290275,5.42135258 C6.25687308,5.19182271 6.36965246,4.85189612 6.36965246,4.40395547 L6.36965246,3.80828972 C6.01781256,4.31976805 5.50236312,4.57788987 4.82409838,4.57788987 C4.20301756,4.57788987 3.69630456,4.3634502 3.30634204,3.93854196 C2.92511596,3.52237016 2.73688558,3.0061265 2.73688558,2.3858399 C2.73688558,1.76396485 2.92511596,1.24533854 3.30634204,0.830755171 C3.69630456,0.404258492 4.21890198,0.192201483 4.87095742,0.192201483 C5.52460131,0.192201483 6.0233721,0.444763763 6.36965246,0.952270985 M4.91066847,3.98937211 C5.14575789,3.98937211 5.35622646,3.94807262 5.53969151,3.86547363 C5.724745,3.78208043 5.88358921,3.66691838 6.01463567,3.52237016 C6.27355172,3.22374306 6.40539241,2.84489964 6.40539241,2.3858399 C6.40539241,1.92519172 6.27355172,1.54475985 6.01463567,1.24533854 C5.73348144,0.934798123 5.36337445,0.779925027 4.91066847,0.779925027 C4.44446074,0.779925027 4.07038265,0.934798123 3.78763997,1.24533854 C3.51839905,1.54952518 3.38258726,1.92995704 3.38258726,2.3858399 C3.38258726,2.84013431 3.51839905,3.21897773 3.78763997,3.52237016 C4.07038265,3.83449901 4.44446074,3.98937211 4.91066847,3.98937211" id="Fill-6" fill="#FFFFFE" mask="url(#mask-2)"></path>
                    </g>
                    <polyline id="Fill-8" fill="#FFFFFE" points="138.068968 33.2889792 137.370053 33.2889792 138.156332 31.5194548 136.395544 27.2656071 137.112726 27.2656071 138.501818 30.8038617 139.916326 27.2656071 140.623977 27.2656071 138.068968 33.2889792"></polyline>
                    <path d="M37.1044169,23.624898 C35.8519304,23.624898 34.5502022,23.3937797 33.1253697,22.920424 L33.0356227,22.8894494 L33.6098445,20.7005763 L33.7075337,20.7291682 C34.779732,21.0222358 35.8892588,21.3256282 37.0051393,21.3256282 C38.2298281,21.3256282 41.0786988,20.9642576 41.0786988,17.6261468 L41.0786988,12.0292713 C41.0786988,9.23917295 39.217839,7.77939474 37.3800116,7.77939474 C34.574823,7.77939474 33.5796641,10.1080507 33.5796641,12.1039281 C33.5796641,14.3253643 35.1943154,15.8764779 37.5039101,15.8764779 C38.4823904,15.8764779 39.4028925,15.4158297 40.2535032,14.9162647 L40.4028167,14.8296946 L40.4028167,17.3362561 L40.3511924,17.3640538 C39.4751666,17.8421749 38.29416,18.1773361 37.4800835,18.1773361 C33.8894103,18.1773361 31.1819109,15.5119304 31.1819109,11.9800296 C31.1819109,8.21383363 33.8306379,5.48012493 37.4800835,5.48012493 C41.2343661,5.48012493 43.4772463,8.55614289 43.4772463,11.5305006 L43.4772463,16.8771964 C43.4772463,21.0389144 41.0358109,23.624898 37.1044169,23.624898" id="Fill-9" fill="#FFFFFE"></path>
                    <path d="M47.777953,17.9255681 L45.3794056,17.9255681 L45.3794056,5.73030455 L47.6786754,5.73030455 L47.6786754,6.95419912 C48.4045934,5.93680201 49.402135,5.48012493 50.8777976,5.48012493 L51.475846,5.48012493 L51.475846,7.77939474 L51.0525262,7.77939474 C48.8485629,7.77939474 47.777953,9.23440763 47.777953,12.2278266 L47.777953,17.9255681" id="Fill-10" fill="#FFFFFE"></path>
                    <path d="M58.1187105,18.1987801 C56.988534,18.1987801 55.8361193,17.8795033 54.7885418,17.2758953 C53.3367058,16.4395806 52.2875399,15.1116431 51.8332455,13.5390855 C51.3614782,11.9069613 51.591008,10.1604693 52.4773587,8.62047479 C53.6337445,6.6095072 55.6677445,5.40943927 57.9138015,5.40943927 C59.0320646,5.40943927 60.1415914,5.70806636 61.1240428,6.2727575 C63.4376086,7.60546034 64.5074243,9.71808822 64.3025152,12.5542514 L64.2961615,12.6471753 L54.8361951,12.5026271 L54.9394438,10.3375806 L55.0363388,10.3407575 L61.6815859,10.4336813 C61.4131392,9.49173523 61.0525629,8.8857446 59.9763934,8.26466378 C59.3561068,7.90805855 58.7048456,7.72777038 58.0408768,7.72777038 C56.6629034,7.72777038 55.4263013,8.50690119 54.6424051,9.86740177 C54.0673891,10.8649433 53.8807472,11.9569972 54.1213962,12.9402428 C54.3564856,13.914752 55.0021873,14.7455072 55.9346027,15.283989 C56.654167,15.6985724 57.3157531,15.9003045 57.9598663,15.9003045 C59.0408011,15.9003045 60.0613751,15.3165521 61.1685191,14.0632713 L61.2296742,13.9933799 L63.1699561,15.4547465 L63.1151548,15.5325802 C61.9540037,17.2274478 60.132855,18.1987801 58.1187105,18.1987801" id="Fill-11" fill="#FFFFFE"></path>
                    <path d="M71.9826324,18.1987801 C70.8516616,18.1987801 69.6984527,17.8795033 68.6516695,17.2758953 C67.1998335,16.4395806 66.1506675,15.1116431 65.6947847,13.5390855 C65.2246058,11.9069613 65.4541357,10.1604693 66.3404863,8.62047479 C67.4984606,6.6095072 69.5308721,5.40943927 71.7793118,5.40943927 C72.8967807,5.40943927 74.0055133,5.70806636 74.9887589,6.2727575 C77.3007362,7.60546034 78.3705519,9.71808822 78.1664371,12.5542514 L78.1584949,12.6471753 L68.6993227,12.5026271 L68.8025714,10.3375806 L68.9002606,10.3407575 L75.546302,10.4336813 C75.2770611,9.49173523 74.9148963,8.8857446 73.8403153,8.26466378 C73.2192345,7.90805855 72.5695617,7.72777038 71.9047987,7.72777038 C70.526031,7.72777038 69.2878405,8.50690119 68.5055328,9.86740177 C67.9297226,10.8649433 67.7430806,11.9569972 67.9845238,12.9402428 C68.2204075,13.914752 68.8669033,14.7455072 69.800113,15.283989 C70.5180888,15.6985724 71.1804691,15.9003045 71.8229939,15.9003045 C72.9047229,15.9003045 73.9252969,15.3165521 75.0316468,14.0632713 L75.0928018,13.9933799 L77.0354664,15.4547465 L76.9806651,15.5325802 C75.819514,17.2274478 73.997571,18.1987801 71.9826324,18.1987801" id="Fill-12" fill="#FFFFFE"></path>
                    <path d="M90.1488494,17.9255681 L87.750302,17.9255681 L87.750302,10.8292034 C87.750302,9.11765714 86.510523,7.77939474 84.9268463,7.77939474 C83.3431696,7.77939474 82.1025964,9.11765714 82.1025964,10.8292034 L82.1025964,17.9255681 L79.704049,17.9255681 L79.704049,10.8292034 C79.704049,7.68011712 81.8508283,5.48012493 84.9268463,5.48012493 C88.0012758,5.48012493 90.1488494,7.68011712 90.1488494,10.8292034 L90.1488494,17.9255681" id="Fill-13" fill="#FFFFFE"></path>
                    <path d="M104.148583,18.1773361 C102.717397,18.1773361 101.420434,17.5705513 100.649245,16.5468004 C99.8772625,17.5705513 98.5802996,18.1773361 97.1507018,18.1773361 C94.6846456,18.1773361 92.7515116,16.3323607 92.7515116,13.9782897 L92.7515116,5.73030455 L95.1492648,5.73030455 L95.1492648,13.4787247 C95.1492648,14.935326 95.9546049,15.8764779 97.1991493,15.8764779 C98.6922848,15.8764779 99.4491774,14.9520046 99.4491774,13.127679 L99.4491774,5.73030455 L101.850107,5.73030455 L101.850107,13.127679 C101.850107,14.9782139 102.58635,15.8764779 104.100136,15.8764779 C105.343091,15.8764779 106.148432,14.935326 106.148432,13.4787247 L106.148432,5.73030455 L108.546979,5.73030455 L108.546979,13.9782897 C108.546979,16.3323607 106.614639,18.1773361 104.148583,18.1773361" id="Fill-14" fill="#BFC0BF"></path>
                    <path d="M111.15123,17.9255681 L113.550571,17.9255681 L113.550571,5.73030455 L111.15123,5.73030455 L111.15123,17.9255681 Z M112.351298,4.58106676 C111.415705,4.58106676 110.925671,3.86388519 110.925671,3.15544005 C110.925671,2.44937758 111.415705,1.73299023 112.351298,1.73299023 C113.286096,1.73299023 113.774542,2.44937758 113.774542,3.15544005 C113.774542,3.86388519 113.286096,4.58106676 112.351298,4.58106676 L112.351298,4.58106676 Z" id="Fill-15" fill="#BFC0BF"></path>
                    <path d="M126.601211,17.9255681 L124.201075,17.9255681 L124.201075,10.8292034 C124.201075,9.11765714 122.961296,7.77939474 121.377619,7.77939474 C119.793943,7.77939474 118.553369,9.11765714 118.553369,10.8292034 L118.553369,17.9255681 L116.154028,17.9255681 L116.154028,10.8292034 C116.154028,7.68011712 118.302396,5.48012493 121.377619,5.48012493 C124.453637,5.48012493 126.601211,7.68011712 126.601211,10.8292034 L126.601211,17.9255681" id="Fill-16" fill="#BFC0BF"></path>
                    <g id="Group-20">
                        <mask id="mask-4" fill="white">
                            <use xlink:href="#path-3"></use>
                        </mask>
                        <g id="Clip-18"></g>
                        <path d="M134.475912,18.1773361 C130.767694,18.1773361 128.176151,15.4436274 128.176151,11.5305006 C128.176151,8.19477233 130.810582,5.48012493 134.051004,5.48012493 C135.337642,5.48012493 136.497999,5.77080982 137.498717,6.34264895 L137.549547,6.37203512 L137.549547,8.91830767 L137.393086,8.81108783 C136.643341,8.29722684 135.43692,7.77939474 134.425876,7.77939474 C132.122635,7.77939474 130.576287,9.39563449 130.576287,11.8029184 C130.576287,14.2030542 132.179819,15.8764779 134.475912,15.8764779 C136.752944,15.8764779 138.22543,13.9933799 138.22543,11.0785888 L138.22543,0.231118312 L140.623977,0.231118312 L140.623977,11.4788762 C140.623977,15.4221835 138.095177,18.1773361 134.475912,18.1773361" id="Fill-17" fill="#BFC0BF" mask="url(#mask-4)"></path>
                        <path d="M21.8823771,18.2527871 C21.8823771,20.90072 19.736392,23.0467051 17.0892534,23.0467051 L4.79391799,23.0467051 C2.14677938,23.0467051 0,20.90072 0,18.2527871 L0,5.95824598 C0,3.31031315 2.14677938,1.16512221 4.79391799,1.16512221 L17.0892534,1.16512221 C19.736392,1.16512221 21.8823771,3.31031315 21.8823771,5.95824598 L21.8823771,18.2527871" id="Fill-19" fill="#FFFFFE" mask="url(#mask-4)"></path>
                    </g>
                    <polyline id="Fill-21" fill="#86B05F" points="9.69187892 13.3699164 9.69187892 18.4267215 13.5041397 15.8987161 9.69187892 13.3699164"></polyline>
                    <polyline id="Fill-22" fill="#86B05F" points="13.5041397 10.8427052 13.5041397 15.9003045 17.3164006 13.3699164 13.5041397 10.8427052"></polyline>
                    <polyline id="Fill-23" fill="#86B05F" points="13.5041397 15.9010987 13.5041397 20.9602865 17.3164006 18.4314869 13.5041397 15.9010987"></polyline>
                    <g id="Group-26" transform="translate(5.559547, 5.559547)">
                        <mask id="mask-6" fill="white">
                            <use xlink:href="#path-5"></use>
                        </mask>
                        <g id="Clip-25"></g>
                        <polygon id="Fill-24" fill="#CCDAB1" mask="url(#mask-6)" points="0.320071065 5.2783928 4.13233189 5.2783928 4.13233189 0.22158766 0.320071065 0.22158766"></polygon>
                    </g>
                    <polyline id="Fill-27" fill="#CCDAB1" points="9.69187892 8.30993438 9.69187892 3.25154079 13.5041397 5.7811347 9.69187892 8.30993438"></polyline>
                    <polyline id="Fill-28" fill="#CCDAB1" points="9.69187892 13.3699164 9.69187892 8.31311126 13.5041397 10.8411167 9.69187892 13.3699164"></polyline>
                    <polyline id="Fill-29" fill="#B3CA94" points="2.06735728 18.4267215 2.06735728 13.3699164 5.8796181 15.8987161 2.06735728 18.4267215"></polyline>
                    <polyline id="Fill-30" fill="#B3CA94" points="5.8796181 15.9003045 5.8796181 10.8427052 9.69187892 13.3699164 5.8796181 15.9003045"></polyline>
                    <polyline id="Fill-31" fill="#B3CA94" points="5.8796181 20.9602865 5.8796181 15.9010987 9.69187892 18.4314869 5.8796181 20.9602865"></polyline>
                </g>
            </g>
        </g>
    </g>
</svg>