<?xml version="1.0" encoding="utf-8"?>
<!-- Generator: Adobe Illustrator 17.0.0, SVG Export Plug-In . SVG Version: 6.00 Build 0)  -->
<!DOCTYPE svg PUBLIC "-//W3C//DTD SVG 1.1//EN" "http://www.w3.org/Graphics/SVG/1.1/DTD/svg11.dtd">
<svg version="1.1" id="Layer_1" xmlns="http://www.w3.org/2000/svg" xmlns:xlink="http://www.w3.org/1999/xlink" x="0px" y="0px"
	 width="170.079px" height="170.08px" viewBox="0 0 170.079 170.08" enable-background="new 0 0 170.079 170.08"
	 xml:space="preserve">
<g>
	<path fill="#FFFFFF" d="M8.853,161.226c-10.184-10.184-10.184-26.694,0-36.878L124.347,8.854c10.184-10.184,26.694-10.184,36.878,0
		l0,0c10.184,10.184,10.184,26.694,0,36.878L45.731,161.226C35.548,171.41,19.037,171.41,8.853,161.226L8.853,161.226z"/>
	<path fill="#FFFFFF" d="M8.853,8.854c10.184-10.184,26.694-10.184,36.878,0l115.494,115.494c10.184,10.184,10.184,26.694,0,36.878
		l0,0c-10.184,10.184-26.694,10.184-36.878,0L8.853,45.732C-1.33,35.548-1.33,19.037,8.853,8.854L8.853,8.854z"/>
</g>
</svg>
