<?xml version="1.0" encoding="UTF-8" standalone="no"?>
<svg width="86px" height="27px" viewBox="0 0 86 27" version="1.1" xmlns="http://www.w3.org/2000/svg" xmlns:xlink="http://www.w3.org/1999/xlink">
    <!-- Generator: Sketch 45.2 (43514) - http://www.bohemiancoding.com/sketch -->
    <title>Group 3</title>
    <desc>Created with Sketch.</desc>
    <defs>
        <polygon id="path-1" points="0.237747109 17.5558366 0.237747109 0.176054464 85.1730021 0.176054464 85.1730021 8.86594553 85.1730021 17.5558366 0.237747109 17.5558366"></polygon>
    </defs>
    <g id="Energy" stroke="none" stroke-width="1" fill="none" fill-rule="evenodd">
        <g id="Mobile-Copy-23" transform="translate(-216.000000, -16.000000)">
            <g id="Group" transform="translate(-5.000000, -2.000000)">
                <g id="Group-3" transform="translate(220.000000, 18.000000)">
                    <g id="GWE_Logo_4c-Copy-4" transform="translate(43.535156, 9.747822) rotate(-360.000000) translate(-43.535156, -9.747822) translate(0.535156, 0.747822)">
                        <path d="M5.34516958,17.9962753 C4.37933004,17.9962753 3.37551837,17.8202208 2.27677636,17.4596419 L2.20756909,17.436047 L2.65037314,15.768672 L2.72570495,15.790452 C3.5525175,16.0136963 4.40811537,16.2448056 5.26861287,16.2448056 C6.21301653,16.2448056 8.40988808,15.9695314 8.40988808,13.4267242 L8.40988808,9.16330212 C8.40988808,7.03794359 6.97490898,5.92595697 5.55769103,5.92595697 C3.39450443,5.92595697 2.6270999,7.69981158 2.6270999,9.22017195 C2.6270999,10.9123518 3.87221835,12.0939132 5.65323381,12.0939132 C6.40777682,12.0939132 7.1176107,11.7430143 7.77354865,11.3624704 L7.88868995,11.2965256 L7.88868995,13.2058998 L7.84888046,13.2270748 C7.17334399,13.5912837 6.26262528,13.8465929 5.6348602,13.8465929 C2.86595686,13.8465929 0.778102068,11.8162191 0.778102068,9.12579224 C0.778102068,6.25689097 2.82063528,4.1744873 5.6348602,4.1744873 C8.52992901,4.1744873 10.2594984,6.51764517 10.2594984,8.78336328 L10.2594984,12.8562109 C10.2594984,16.0264012 8.37681558,17.9962753 5.34516958,17.9962753" id="Fill-9" fill="#777776"></path>
                        <path d="M13.5759354,13.6548085 L11.7263251,13.6548085 L11.7263251,4.36506172 L13.4993786,4.36506172 L13.4993786,5.29736389 C14.0591613,4.52236124 14.8284032,4.1744873 15.9663423,4.1744873 L16.4275199,4.1744873 L16.4275199,5.92595697 L16.1010821,5.92595697 C14.401523,5.92595697 13.5759354,7.0343136 13.5759354,9.31455166 L13.5759354,13.6548085" id="Fill-10" fill="#777776"></path>
                        <path d="M21.550083,13.8629278 C20.6785613,13.8629278 19.789891,13.6197186 18.9820645,13.15992 C17.8624991,12.5228569 17.0534477,11.5113 16.7031241,10.3134036 C16.3393266,9.07013241 16.5163257,7.73974146 17.1998241,6.56665002 C18.0915568,5.03479468 19.6600508,4.12064246 21.3920699,4.12064246 C22.2544048,4.12064246 23.1100027,4.34812177 23.8676079,4.77827546 C25.6516857,5.79346238 26.4766609,7.40275748 26.3186478,9.56320591 L26.3137482,9.63399069 L19.0188117,9.52388103 L19.0984307,7.87465604 L19.1731501,7.87707604 L24.2975505,7.94786082 C24.0905411,7.23033301 23.8124871,6.76871941 22.9826123,6.29561085 C22.5042859,6.02396667 22.0020739,5.88663209 21.4900625,5.88663209 C20.4274553,5.88663209 19.4738648,6.48013529 18.869373,7.51649713 C18.4259565,8.27637482 18.2820299,9.10824729 18.4676033,9.85723501 C18.6488897,10.5995678 19.1468145,11.2323958 19.8658352,11.6425846 C20.4207183,11.9583936 20.9308923,12.1120632 21.4275923,12.1120632 C22.2611418,12.1120632 23.0481448,11.6673895 23.9019054,10.7127024 L23.9490643,10.6594626 L25.4452888,11.7726592 L25.4030295,11.831949 C24.5076221,13.1230151 23.1032657,13.8629278 21.550083,13.8629278" id="Fill-11" fill="#777776"></path>
                        <path d="M32.2410754,13.8629278 C31.3689413,13.8629278 30.4796585,13.6197186 29.6724445,13.15992 C28.552879,12.5228569 27.7438276,11.5113 27.3922792,10.3134036 C27.0297066,9.07013241 27.2067057,7.73974146 27.8902041,6.56665002 C28.7831616,5.03479468 30.3504307,4.12064246 32.0842873,4.12064246 C32.9460097,4.12064246 33.8009951,4.34812177 34.5592128,4.77827546 C36.3420657,5.79346238 37.1670408,7.40275748 37.0096402,9.56320591 L37.0035157,9.63399069 L29.7091917,9.52388103 L29.7888107,7.87465604 L29.8641425,7.87707604 L34.9891553,7.94786082 C34.7815335,7.23033301 34.5022546,6.76871941 33.6736047,6.29561085 C33.1946659,6.02396667 32.6936787,5.88663209 32.181055,5.88663209 C31.1178353,5.88663209 30.1630199,6.48013529 29.559753,7.51649713 C29.115724,8.27637482 28.9717974,9.10824729 29.1579833,9.85723501 C29.3398821,10.5995678 29.8384194,11.2323958 30.5580526,11.6425846 C31.1117107,11.9583936 31.6224972,12.1120632 32.1179722,12.1120632 C32.9521342,12.1120632 33.7391373,11.6673895 34.5922853,10.7127024 L34.6394443,10.6594626 L36.1375061,11.7726592 L36.0952468,11.831949 C35.1998394,13.1230151 33.7948706,13.8629278 32.2410754,13.8629278" id="Fill-12" fill="#777776"></path>
                        <path d="M46.2497298,13.6548085 L44.4001195,13.6548085 L44.4001195,8.24914991 C44.4001195,6.94537887 43.4440792,5.92595697 42.2228464,5.92595697 C41.0016137,5.92595697 40.0449609,6.94537887 40.0449609,8.24914991 L40.0449609,13.6548085 L38.1953507,13.6548085 L38.1953507,8.24914991 C38.1953507,5.8503322 39.8508131,4.1744873 42.2228464,4.1744873 C44.5936548,4.1744873 46.2497298,5.8503322 46.2497298,8.24914991 L46.2497298,13.6548085" id="Fill-13" fill="#777776"></path>
                        <path d="M57.0454518,13.8465929 C55.9418101,13.8465929 54.9416732,13.3843743 54.3469806,12.6045317 C53.7516756,13.3843743 52.7515386,13.8465929 51.6491219,13.8465929 C49.747453,13.8465929 48.2567406,12.4411822 48.2567406,10.6479676 L48.2567406,4.36506172 L50.1057385,4.36506172 L50.1057385,10.2674238 C50.1057385,11.3769904 50.7267666,12.0939132 51.6864816,12.0939132 C52.8378946,12.0939132 53.421563,11.3896954 53.421563,10.0000146 L53.421563,4.36506172 L55.2730107,4.36506172 L55.2730107,10.0000146 C55.2730107,11.4096603 55.8407553,12.0939132 57.0080921,12.0939132 C57.9665822,12.0939132 58.5876103,11.3769904 58.5876103,10.2674238 L58.5876103,4.36506172 L60.4372206,4.36506172 L60.4372206,10.6479676 C60.4372206,12.4411822 58.9471206,13.8465929 57.0454518,13.8465929" id="Fill-14" fill="#4D4E4C"></path>
                        <path d="M62.4454564,13.6548085 L64.2956791,13.6548085 L64.2956791,4.36506172 L62.4454564,4.36506172 L62.4454564,13.6548085 Z M63.370874,3.48962938 C62.6494035,3.48962938 62.2715195,2.94331605 62.2715195,2.40365769 C62.2715195,1.86581432 62.6494035,1.32010598 63.370874,1.32010598 C64.091732,1.32010598 64.4683911,1.86581432 64.4683911,2.40365769 C64.4683911,2.94331605 64.091732,3.48962938 63.370874,3.48962938 L63.370874,3.48962938 Z" id="Fill-15" fill="#4D4E4C"></path>
                        <path d="M74.3595189,13.6548085 L72.5086837,13.6548085 L72.5086837,8.24914991 C72.5086837,6.94537887 71.5526434,5.92595697 70.3314107,5.92595697 C69.1101779,5.92595697 68.1535252,6.94537887 68.1535252,8.24914991 L68.1535252,13.6548085 L66.3033025,13.6548085 L66.3033025,8.24914991 C66.3033025,5.8503322 67.9599898,4.1744873 70.3314107,4.1744873 C72.703444,4.1744873 74.3595189,5.8503322 74.3595189,8.24914991 L74.3595189,13.6548085" id="Fill-16" fill="#4D4E4C"></path>
                        <g id="Group-20">
                            <mask id="mask-2" fill="white">
                                <use xlink:href="#path-1"></use>
                            </mask>
                            <g id="Clip-18"></g>
                            <path d="M80.4319977,13.8465929 C77.5724512,13.8465929 75.5740147,11.7641892 75.5740147,8.78336328 C75.5740147,6.24237101 77.6055237,4.1744873 80.104335,4.1744873 C81.09651,4.1744873 81.9913049,4.39591663 82.7629966,4.8315153 L82.8021937,4.85390023 L82.8021937,6.79352433 L82.6815403,6.71184958 C82.103384,6.32041577 81.1730667,5.92595697 80.3934131,5.92595697 C78.6172973,5.92595697 77.4248499,7.15712823 77.4248499,8.99087765 C77.4248499,10.8191821 78.661394,12.0939132 80.4319977,12.0939132 C82.1879026,12.0939132 83.3233918,10.6594626 83.3233918,8.43911933 L83.3233918,0.176054464 L85.1730021,0.176054464 L85.1730021,8.7440384 C85.1730021,11.7478543 83.2229494,13.8465929 80.4319977,13.8465929" id="Fill-17" fill="#4D4E4C" mask="url(#mask-2)"></path>
                        </g>
                    </g>
                    <path d="M62.3582701,20.5 L62.3582701,21.358 C62.5562711,21.0939987 62.7982687,20.8703343 63.0842701,20.687 C63.3702715,20.5036658 63.6966016,20.412 64.0632701,20.412 C64.4299386,20.412 64.7452688,20.4633328 65.0092701,20.566 C65.2732714,20.6686672 65.5042691,20.8226656 65.7022701,21.028 C66.156939,21.4753356 66.3842701,22.065663 66.3842701,22.799 L66.3842701,26 L65.5592701,26 L65.5592701,22.821 C65.5592701,22.3149975 65.4162715,21.9116682 65.1302701,21.611 C64.8442687,21.3103318 64.473939,21.16 64.0192701,21.16 C63.5572678,21.16 63.1649384,21.3139985 62.8422701,21.622 C62.5196018,21.9373349 62.3582701,22.3406642 62.3582701,22.832 L62.3582701,26 L61.5332701,26 L61.5332701,20.5 L62.3582701,20.5 Z M70.2122701,25.34 C70.9529405,25.34 71.4846018,25.0320031 71.8072701,24.416 L72.7092701,24.416 C72.5186025,24.9146692 72.2161055,25.3179985 71.8017701,25.626 C71.3874347,25.9340015 70.85394,26.088 70.2012701,26.088 C69.3725993,26.088 68.6979394,25.8130028 68.1772701,25.263 C67.6712676,24.727664 67.4182701,24.0566707 67.4182701,23.25 C67.4182701,22.4359959 67.6602677,21.7650026 68.1442701,21.237 C68.657606,20.6869973 69.3249327,20.412 70.1462701,20.412 C70.9676075,20.412 71.6349342,20.6869973 72.1482701,21.237 C72.6322725,21.7650026 72.8742701,22.4359959 72.8742701,23.25 L72.8742701,23.58 L68.2652701,23.58 C68.3239371,24.0860025 68.5256017,24.5039984 68.8702701,24.834 C69.2222719,25.171335 69.6696007,25.34 70.2122701,25.34 Z M70.1462701,21.16 C69.6402676,21.16 69.2149385,21.3176651 68.8702701,21.633 C68.5476018,21.9336682 68.3496038,22.3259976 68.2762701,22.81 L72.0162701,22.81 C71.9429364,22.3259976 71.7449384,21.9336682 71.4222701,21.633 C71.0776017,21.3176651 70.6522726,21.16 70.1462701,21.16 Z M77.3182701,21.611 L75.9432701,26 L74.9972701,26 L73.2702701,20.5 L74.1502701,20.5 L75.4702701,24.977 L76.8672701,20.5 L77.7692701,20.5 L79.1662701,24.977 L80.4862701,20.5 L81.3662701,20.5 L79.6392701,26 L78.6932701,26 L77.3182701,21.611 Z M85.4142701,21.974 C85.3409364,21.4019971 84.8807743,21.116 84.0337701,21.116 C83.1867659,21.116 82.7632701,21.3799974 82.7632701,21.908 C82.7632701,22.1280011 82.8531025,22.2948328 83.0327701,22.4085 C83.2124377,22.5221672 83.4379354,22.6156663 83.7092701,22.689 C83.9806048,22.7623337 84.2757685,22.8301664 84.5947701,22.8925 C84.9137717,22.9548336 85.2089354,23.0428328 85.4802701,23.1565 C85.7516048,23.2701672 85.9771025,23.425999 86.1567701,23.624 C86.3364377,23.822001 86.4262701,24.0933316 86.4262701,24.438 C86.4262701,24.973336 86.2246055,25.3821653 85.8212701,25.6645 C85.4179348,25.9468347 84.8716069,26.088 84.1822701,26.088 C83.4489331,26.088 82.8659389,25.9046685 82.4332701,25.538 C82.0372681,25.2153317 81.8246036,24.7936693 81.7952701,24.273 L82.6532701,24.273 C82.7046037,24.7790025 82.9906008,25.1199991 83.5112701,25.296 C83.7019377,25.354667 83.8907692,25.384 84.0777701,25.384 C84.264771,25.384 84.438936,25.3730001 84.6002701,25.351 C84.7616042,25.3289999 84.9192693,25.288667 85.0732701,25.23 C85.4252719,25.090666 85.6012701,24.852335 85.6012701,24.515 C85.6012701,24.2876655 85.5114377,24.1135006 85.3317701,23.9925 C85.1521025,23.8714994 84.9266048,23.7725004 84.6552701,23.6955 C84.3839354,23.6184996 84.0887717,23.5488336 83.7697701,23.4865 C83.4507685,23.4241664 83.1556048,23.3380006 82.8842701,23.228 C82.6129354,23.1179995 82.3874377,22.9676676 82.2077701,22.777 C82.0281025,22.5863324 81.9382701,22.322335 81.9382701,21.985 C81.9382701,21.4863308 82.1197683,21.0995014 82.4827701,20.8245 C82.8457719,20.5494986 83.3829332,20.412 84.0942701,20.412 C84.7689401,20.412 85.3006015,20.5733317 85.6892701,20.896 C86.0119384,21.1673347 86.1989365,21.5266644 86.2502701,21.974 L85.4142701,21.974 Z" id="news" fill="#777776"></path>
                </g>
            </g>
        </g>
    </g>
</svg>