<?xml version="1.0" encoding="utf-8"?>
<!-- Generator: Adobe Illustrator 17.0.0, SVG Export Plug-In . SVG Version: 6.00 Build 0)  -->
<!DOCTYPE svg PUBLIC "-//W3C//DTD SVG 1.1//EN" "http://www.w3.org/Graphics/SVG/1.1/DTD/svg11.dtd">
<svg version="1.1" id="Layer_1" xmlns="http://www.w3.org/2000/svg" xmlns:xlink="http://www.w3.org/1999/xlink" x="0px" y="0px"
	 width="1440px" height="466px" viewBox="0 0 1440 466" enable-background="new 0 0 1440 466" xml:space="preserve">
<title>Path 16</title>
<desc>Created with Sketch.</desc>
<g id="Energy">
	<g id="REFERENZEN" transform="translate(0.000000, -424.000000)">
		<g id="Group-2" transform="translate(-195.000000, 329.000000)">
			<path id="Path-16" fill="#FFFFFF" d="M1635,358.885V231.127l-671.634-130.42l0,0c-17.523-3.403-35.638-2.053-52.463,3.909
				L420.092,278.542l0,0c-24.721,8.76-51.893,7.458-75.663-3.626L195,205.236v358.633h1440V358.885z"/>
		</g>
	</g>
</g>
<g id="Energy_1_">
	<g id="REFERENZEN_1_" transform="translate(0.000000, -423.000000)">
		<g id="Group-2_1_" transform="translate(-195.000000, 329.000000)">
			
				<linearGradient id="Path-14_1_" gradientUnits="userSpaceOnUse" x1="744.7992" y1="412.5522" x2="744.7992" y2="410.6576" gradientTransform="matrix(1492.0776 0 0 -188.354 -1110384.125 77726.6641)">
				<stop  offset="0" style="stop-color:#F2F2F2"/>
				<stop  offset="1" style="stop-color:#CCCCCC"/>
			</linearGradient>
			<path id="Path-14" fill="url(#Path-14_1_)" d="M173.122,195.087l177.377,70.383l0,0c22.01,8.733,46.405,9.373,68.842,1.805
				l493.255-166.368l0,0c16.113-5.435,33.346-6.671,50.069-3.591l697.56,128.447v9.617L962.816,107.464l0,0
				c-16.82-3.085-34.151-1.805-50.336,3.718L421.689,278.657l0,0c-23.85,8.139-49.894,6.972-72.921-3.266l-180.621-80.305H173.122z"
				/>
		</g>
	</g>
</g>
</svg>
