<?xml version="1.0" encoding="UTF-8" standalone="no"?>
<svg width="142px" height="32px" viewBox="0 0 142 32" version="1.1" xmlns="http://www.w3.org/2000/svg" xmlns:xlink="http://www.w3.org/1999/xlink">
    <!-- Generator: Sketch 45.2 (43514) - http://www.bohemiancoding.com/sketch -->
    <title>GW_Offshore_4c Copy</title>
    <desc>Created with Sketch.</desc>
    <defs>
        <polygon id="path-1" points="0.0478651685 23.2144 0.0478651685 0.2328 70.6485899 0.2328 141.249315 0.2328 141.249315 23.2144 0.0478651685 23.2144"></polygon>
    </defs>
    <g id="offshore" stroke="none" stroke-width="1" fill="none" fill-rule="evenodd">
        <g id="START-Copy" transform="translate(-150.000000, -346.000000)">
            <g id="GW_Offshore_4c-Copy" transform="translate(150.000000, 346.000000)">
                <path d="M37.2694157,23.7968 C36.0113596,23.7968 34.7038427,23.564 33.2726742,23.0872 L33.1825281,23.056 L33.7593034,20.8512 L33.857427,20.88 C34.9343933,21.1752 36.0488539,21.4808 37.1696966,21.4808 C38.3998315,21.4808 41.2613708,21.1168 41.2613708,17.7544 L41.2613708,12.1168 C41.2613708,9.3064 39.392236,7.836 37.546236,7.836 C34.728573,7.836 33.7289888,10.1816 33.7289888,12.192 C33.7289888,14.4296 35.3508202,15.992 37.6706854,15.992 C38.6535169,15.992 39.5781124,15.528 40.4325056,15.0248 L40.5824831,14.9376 L40.5824831,17.4624 L40.5306292,17.4904 C39.6507079,17.972 38.4644494,18.3096 37.6467528,18.3096 C34.0401124,18.3096 31.320573,15.6248 31.320573,12.0672 C31.320573,8.2736 33.9810787,5.52 37.6467528,5.52 C41.4177303,5.52 43.6705843,8.6184 43.6705843,11.6144 L43.6705843,17 C43.6705843,21.192 41.2182921,23.7968 37.2694157,23.7968" id="Fill-1" fill="#FFFFFF"></path>
                <path d="M47.9904157,18.056 L45.5812022,18.056 L45.5812022,5.772 L47.8906966,5.772 L47.8906966,7.0048 C48.6198427,5.98 49.6218202,5.52 51.1040449,5.52 L51.7047528,5.52 L51.7047528,7.836 L51.2795506,7.836 C49.0657865,7.836 47.9904157,9.3016 47.9904157,12.3168 L47.9904157,18.056" id="Fill-2" fill="#FFFFFF"></path>
                <path d="M58.3771573,18.3312 C57.2419551,18.3312 56.0844157,18.0096 55.0321798,17.4016 C53.5738876,16.5592 52.5200562,15.2216 52.0637416,13.6376 C51.5898764,11.9936 51.820427,10.2344 52.7107191,8.6832 C53.8722472,6.6576 55.9152921,5.4488 58.1713371,5.4488 C59.294573,5.4488 60.4090337,5.7496 61.3958539,6.3184 C63.7197079,7.6608 64.7942809,9.7888 64.5884607,12.6456 L64.5820787,12.7392 L55.0800449,12.5936 L55.1837528,10.4128 L55.2810787,10.416 L61.9558764,10.5096 C61.686236,9.5608 61.3240562,8.9504 60.2431011,8.3248 C59.6200562,7.9656 58.9658989,7.784 58.2989775,7.784 C56.9148764,7.784 55.6727753,8.5688 54.8853933,9.9392 C54.3078202,10.944 54.1203483,12.044 54.3620674,13.0344 C54.5982022,14.016 55.2467753,14.8528 56.1833371,15.3952 C56.9061011,15.8128 57.5706292,16.016 58.2176067,16.016 C59.3033483,16.016 60.3284607,15.428 61.4405281,14.1656 L61.5019551,14.0952 L63.4508652,15.5672 L63.3958202,15.6456 C62.2295056,17.3528 60.4002584,18.3312 58.3771573,18.3312" id="Fill-3" fill="#FFFFFF"></path>
                <path d="M72.3027303,18.3312 C71.1667303,18.3312 70.0083933,18.0096 68.9569551,17.4016 C67.4986629,16.5592 66.4448315,15.2216 65.9869213,13.6376 C65.5146517,11.9936 65.7452022,10.2344 66.6354944,8.6832 C67.798618,6.6576 69.8400674,5.4488 72.0985056,5.4488 C73.2209438,5.4488 74.3346067,5.7496 75.3222247,6.3184 C77.6444831,7.6608 78.7190562,9.7888 78.5140337,12.6456 L78.5060562,12.7392 L69.0048202,12.5936 L69.1085281,10.4128 L69.2066517,10.416 L75.8822472,10.5096 C75.611809,9.5608 75.2480337,8.9504 74.1686742,8.3248 C73.5448315,7.9656 72.8922697,7.784 72.2245506,7.784 C70.8396517,7.784 69.5959551,8.5688 68.8101685,9.9392 C68.2317978,10.944 68.0443258,12.044 68.2868427,13.0344 C68.5237753,14.016 69.1731461,14.8528 70.1105056,15.3952 C70.8316742,15.8128 71.497,16.016 72.142382,16.016 C73.2289213,16.016 74.2540337,15.428 75.3653034,14.1656 L75.4267303,14.0952 L77.3780337,15.5672 L77.3229888,15.6456 C76.1566742,17.3528 74.3266292,18.3312 72.3027303,18.3312" id="Fill-4" fill="#FFFFFF"></path>
                <path d="M90.5497303,18.056 L88.1405169,18.056 L88.1405169,10.908 C88.1405169,9.184 86.8952247,7.836 85.3045056,7.836 C83.7137865,7.836 82.4676966,9.184 82.4676966,10.908 L82.4676966,18.056 L80.0584831,18.056 L80.0584831,10.908 C80.0584831,7.736 82.214809,5.52 85.3045056,5.52 C88.3926067,5.52 90.5497303,7.736 90.5497303,10.908 L90.5497303,18.056" id="Fill-5" fill="#FFFFFF"></path>
                <path d="M104.611719,18.3096 C103.174169,18.3096 101.871438,17.6984 101.09682,16.6672 C100.321404,17.6984 99.0186742,18.3096 97.5827191,18.3096 C95.1056966,18.3096 93.1639663,16.4512 93.1639663,14.08 L93.1639663,5.772 L95.572382,5.772 L95.572382,13.5768 C95.572382,15.044 96.3813034,15.992 97.631382,15.992 C99.1311573,15.992 99.8914157,15.0608 99.8914157,13.2232 L99.8914157,5.772 L102.303022,5.772 L102.303022,13.2232 C102.303022,15.0872 103.042539,15.992 104.563056,15.992 C105.811539,15.992 106.620461,15.044 106.620461,13.5768 L106.620461,5.772 L109.029674,5.772 L109.029674,14.08 C109.029674,16.4512 107.088742,18.3096 104.611719,18.3096" id="Fill-6" fill="#E5E5E5"></path>
                <path d="M111.645506,18.056 L114.055517,18.056 L114.055517,5.772 L111.645506,5.772 L111.645506,18.056 Z M112.85091,4.6144 C111.911157,4.6144 111.418944,3.892 111.418944,3.1784 C111.418944,2.4672 111.911157,1.7456 112.85091,1.7456 C113.789865,1.7456 114.280483,2.4672 114.280483,3.1784 C114.280483,3.892 113.789865,4.6144 112.85091,4.6144 L112.85091,4.6144 Z" id="Fill-7" fill="#E5E5E5"></path>
                <path d="M127.164191,18.056 L124.753382,18.056 L124.753382,10.908 C124.753382,9.184 123.50809,7.836 121.917371,7.836 C120.326652,7.836 119.080562,9.184 119.080562,10.908 L119.080562,18.056 L116.670551,18.056 L116.670551,10.908 C116.670551,7.736 118.828472,5.52 121.917371,5.52 C125.007067,5.52 127.164191,7.736 127.164191,10.908 L127.164191,18.056" id="Fill-8" fill="#E5E5E5"></path>
                <g id="Group-12">
                    <mask id="mask-2" fill="white">
                        <use xlink:href="#path-1"></use>
                    </mask>
                    <g id="Clip-10"></g>
                    <path d="M135.07391,18.3096 C131.349202,18.3096 128.746135,15.556 128.746135,11.6144 C128.746135,8.2544 131.392281,5.52 134.647112,5.52 C135.939472,5.52 137.104989,5.8128 138.110157,6.3888 L138.161213,6.4184 L138.161213,8.9832 L138.004056,8.8752 C137.250978,8.3576 136.039191,7.836 135.023652,7.836 C132.710169,7.836 131.156944,9.464 131.156944,11.8888 C131.156944,14.3064 132.767607,15.992 135.07391,15.992 C137.361067,15.992 138.840101,14.0952 138.840101,11.1592 L138.840101,0.2328 L141.249315,0.2328 L141.249315,11.5624 C141.249315,15.5344 138.70927,18.3096 135.07391,18.3096" id="Fill-9" fill="#E5E5E5" mask="url(#mask-2)"></path>
                    <path d="M21.9796854,18.3856 C21.9796854,21.0528 19.8241573,23.2144 17.1652472,23.2144 L4.81523596,23.2144 C2.15632584,23.2144 0,21.0528 0,18.3856 L0,6.0016 C0,3.3344 2.15632584,1.1736 4.81523596,1.1736 L17.1652472,1.1736 C19.8241573,1.1736 21.9796854,3.3344 21.9796854,6.0016 L21.9796854,18.3856" id="Fill-11" fill="#286AA6" mask="url(#mask-2)"></path>
                </g>
                <polyline id="Fill-13" fill="#FFFFFE" points="9.73497753 13.4672 9.73497753 18.5608 13.564191 16.0144 9.73497753 13.4672"></polyline>
                <polyline id="Fill-14" fill="#FFFFFE" points="13.564191 10.9216 13.564191 16.016 17.3934045 13.4672 13.564191 10.9216"></polyline>
                <polyline id="Fill-15" fill="#FFFFFE" points="13.564191 16.0168 13.564191 21.1128 17.3934045 18.5656 13.564191 16.0168"></polyline>
                <polyline id="Fill-16" fill="#7896C0" points="5.90576404 10.9168 5.90576404 5.8232 9.73497753 8.3688 5.90576404 10.9168"></polyline>
                <polyline id="Fill-17" fill="#7896C0" points="9.73497753 8.3704 9.73497753 3.2752 13.564191 5.8232 9.73497753 8.3704"></polyline>
                <polyline id="Fill-19" fill="#A0B2D1" points="2.07655056 18.5608 2.07655056 13.4672 5.90576404 16.0144 2.07655056 18.5608"></polyline>
                <polyline id="Fill-20" fill="#A0B2D1" points="5.90576404 16.016 5.90576404 10.9216 9.73497753 13.4672 5.90576404 16.016"></polyline>
                <polyline id="Fill-21" fill="#A0B2D1" points="5.90576404 21.1128 5.90576404 16.0168 9.73497753 18.5656 5.90576404 21.1128"></polyline>
                <path d="M111.673427,31.2896 C112.138517,31.2896 112.507079,31.1288 112.777517,30.8064 C113.035989,30.5 113.165225,30.1144 113.165225,29.6464 C113.165225,29.1792 113.035989,28.7928 112.777517,28.4864 C112.507079,28.1632 112.138517,28.0016 111.673427,28.0016 C111.207539,28.0016 110.838978,28.1632 110.568539,28.4864 C110.30927,28.7928 110.180034,29.1792 110.180034,29.6464 C110.180034,30.1144 110.30927,30.5 110.568539,30.8064 C110.838978,31.1288 111.207539,31.2896 111.673427,31.2896 Z M111.673427,27.4136 C112.317213,27.4136 112.840539,27.6296 113.243404,28.0632 C113.623135,28.4776 113.813,29.0064 113.813,29.6464 C113.813,30.2872 113.623135,30.8144 113.243404,31.2296 C112.840539,31.6624 112.317213,31.8792 111.673427,31.8792 C111.028045,31.8792 110.505517,31.6624 110.101854,31.2296 C109.723719,30.8144 109.533056,30.2872 109.533056,29.6464 C109.533056,29.0064 109.723719,28.4776 110.101854,28.0632 C110.505517,27.6296 111.028045,27.4136 111.673427,27.4136 L111.673427,27.4136 Z" id="Fill-22" fill="#FFFFFF"></path>
                <path d="M116.461539,26.2976 C116.156,26.2976 115.927843,26.3656 115.775472,26.5008 C115.623899,26.636 115.547315,26.8544 115.547315,27.1536 L115.547315,27.4832 L116.547697,27.4832 L116.547697,28.0536 L115.547315,28.0536 L115.547315,31.8088 L114.900337,31.8088 L114.900337,28.0536 L114.157629,28.0536 L114.157629,27.4832 L114.900337,27.4832 L114.900337,27.1016 C114.900337,26.6288 115.041539,26.2744 115.323146,26.0376 C115.604753,25.8008 115.995652,25.6832 116.495843,25.6832 L116.547697,25.6832 L116.547697,26.2976 L116.461539,26.2976" id="Fill-23" fill="#FFFFFF"></path>
                <path d="M119.464281,26.2976 C119.158742,26.2976 118.930584,26.3656 118.778213,26.5008 C118.62664,26.636 118.550056,26.8544 118.550056,27.1536 L118.550056,27.4832 L119.550438,27.4832 L119.550438,28.0536 L118.550056,28.0536 L118.550056,31.8088 L117.902281,31.8088 L117.902281,28.0536 L117.160371,28.0536 L117.160371,27.4832 L117.902281,27.4832 L117.902281,27.1016 C117.902281,26.6288 118.043483,26.2744 118.325888,26.0376 C118.606697,25.8008 118.998393,25.6832 119.497787,25.6832 L119.550438,25.6832 L119.550438,26.2976 L119.464281,26.2976" id="Fill-24" fill="#FFFFFF"></path>
                <path d="M122.975989,28.6424 C122.918551,28.192 122.557169,27.9672 121.893438,27.9672 C121.228112,27.9672 120.896247,28.1752 120.896247,28.5904 C120.896247,28.764 120.967247,28.8944 121.108449,28.984 C121.248854,29.0736 121.425157,29.1472 121.638157,29.2048 C121.851955,29.2624 122.084101,29.316 122.333,29.3648 C122.584292,29.4144 122.81564,29.4832 123.027843,29.5728 C123.24164,29.6616 123.418742,29.7848 123.558348,29.9408 C123.699551,30.0968 123.769753,30.3096 123.769753,30.58 C123.769753,31.0016 123.611798,31.324 123.295888,31.5456 C122.97918,31.7672 122.550787,31.8792 122.00991,31.8792 C121.433933,31.8792 120.97682,31.7344 120.638573,31.4456 C120.327449,31.192 120.160719,30.86 120.136787,30.4512 L120.810888,30.4512 C120.851573,30.8488 121.074944,31.1176 121.483393,31.2552 C121.632573,31.3016 121.781753,31.3248 121.926944,31.3248 C122.075326,31.3248 122.210146,31.316 122.337787,31.2984 C122.464629,31.2816 122.587483,31.2496 122.708742,31.204 C122.984764,31.0936 123.123573,30.9064 123.123573,30.6408 C123.123573,30.4616 123.052573,30.3256 122.911371,30.2304 C122.770966,30.1344 122.593865,30.0568 122.380865,29.996 C122.167865,29.9368 121.936517,29.8824 121.68682,29.832 C121.435528,29.784 121.20418,29.716 120.992775,29.6288 C120.77818,29.5424 120.601079,29.424 120.461472,29.2744 C120.32027,29.124 120.248472,28.916 120.248472,28.6512 C120.248472,28.2584 120.392067,27.9544 120.676865,27.7376 C120.960865,27.5216 121.382876,27.4136 121.940506,27.4136 C122.470213,27.4136 122.887438,27.54 123.191382,27.7944 C123.445067,28.008 123.591056,28.2904 123.631742,28.6424 L122.975989,28.6424" id="Fill-25" fill="#FFFFFF"></path>
                <path d="M125.287876,25.752 L125.287876,28.1576 C125.443438,27.9504 125.634101,27.7744 125.857472,27.6296 C126.08164,27.4856 126.338517,27.4136 126.625708,27.4136 C126.913697,27.4136 127.160202,27.4544 127.367618,27.5344 C127.575034,27.6152 127.756124,27.736 127.910888,27.8984 C128.268281,28.2504 128.445382,28.7144 128.445382,29.2912 L128.445382,31.8088 L127.8,31.8088 L127.8,29.308 C127.8,28.9104 127.687517,28.5936 127.463348,28.3568 C127.238382,28.12 126.947202,28.0016 126.592202,28.0016 C126.229225,28.0016 125.920494,28.1232 125.668404,28.3656 C125.414719,28.6136 125.287876,28.9312 125.287876,29.3176 L125.287876,31.8088 L124.641697,31.8088 L124.641697,25.752 L125.287876,25.752" id="Fill-26" fill="#FFFFFF"></path>
                <path d="M131.405843,31.2896 C131.87173,31.2896 132.240292,31.1288 132.509933,30.8064 C132.77,30.5 132.898438,30.1144 132.898438,29.6464 C132.898438,29.1792 132.77,28.7928 132.509933,28.4864 C132.240292,28.1632 131.87173,28.0016 131.405843,28.0016 C130.939955,28.0016 130.571393,28.1632 130.300955,28.4864 C130.042483,28.7928 129.913247,29.1792 129.913247,29.6464 C129.913247,30.1144 130.042483,30.5 130.300955,30.8064 C130.571393,31.1288 130.939955,31.2896 131.405843,31.2896 Z M131.405843,27.4136 C132.050427,27.4136 132.573753,27.6296 132.976618,28.0632 C133.356348,28.4776 133.546213,29.0064 133.546213,29.6464 C133.546213,30.2872 133.356348,30.8144 132.976618,31.2296 C132.573753,31.6624 132.050427,31.8792 131.405843,31.8792 C130.762056,31.8792 130.237933,31.6624 129.83427,31.2296 C129.456135,30.8144 129.26627,30.2872 129.26627,29.6464 C129.26627,29.0064 129.456135,28.4776 129.83427,28.0632 C130.237933,27.6296 130.762056,27.4136 131.405843,27.4136 L131.405843,27.4136 Z" id="Fill-27" fill="#FFFFFF"></path>
                <path d="M136.695742,27.4136 L136.695742,28.0632 L136.617562,28.0632 C136.151674,28.0632 135.773539,28.2504 135.479169,28.6248 C135.203146,28.9832 135.064337,29.4104 135.064337,29.9056 L135.064337,31.8088 L134.418157,31.8088 L134.418157,27.4832 L135.064337,27.4832 L135.064337,28.5472 C135.203146,28.0976 135.500708,27.7656 135.961809,27.5512 C136.151674,27.46 136.382225,27.4136 136.652663,27.4136 L136.695742,27.4136" id="Fill-28" fill="#FFFFFF"></path>
                <path d="M139.180742,28.0016 C138.782663,28.0016 138.449202,28.1264 138.178764,28.3744 C137.926674,28.6104 137.77191,28.9184 137.713674,29.3 L140.647011,29.3 C140.589573,28.9184 140.434809,28.6104 140.181124,28.3744 C139.910685,28.1264 139.577225,28.0016 139.180742,28.0016 Z M139.232596,31.2896 C139.81336,31.2896 140.230584,31.048 140.483472,30.5632 L141.191079,30.5632 C141.040303,30.956 140.803371,31.272 140.478685,31.516 C140.154,31.7568 139.735978,31.8792 139.22382,31.8792 C138.573652,31.8792 138.044742,31.6624 137.635494,31.2296 C137.239011,30.8088 137.041169,30.2808 137.041169,29.6464 C137.041169,29.0064 137.230236,28.4776 137.610764,28.0632 C138.012034,27.6296 138.536157,27.4136 139.180742,27.4136 C139.825326,27.4136 140.347854,27.6296 140.750719,28.0632 C141.131247,28.4776 141.320315,29.0064 141.320315,29.6464 L141.320315,29.9056 L137.705697,29.9056 C137.750371,30.3032 137.909921,30.6328 138.178764,30.892 C138.455584,31.1568 138.806596,31.2896 139.232596,31.2896 L139.232596,31.2896 Z" id="Fill-29" fill="#FFFFFF"></path>
            </g>
        </g>
    </g>
</svg>