<?xml version="1.0" encoding="UTF-8" standalone="no"?>
<svg width="1440px" height="352px" viewBox="0 0 1440 352" version="1.1" xmlns="http://www.w3.org/2000/svg" xmlns:xlink="http://www.w3.org/1999/xlink">
    <!-- Generator: Sketch 45.2 (43514) - http://www.bohemiancoding.com/sketch -->
    <title>Group 4</title>
    <desc>Created with Sketch.</desc>
    <defs>
        <linearGradient x1="38.5068208%" y1="0%" x2="38.5068208%" y2="104.629647%" id="linearGradient-1">
            <stop stop-color="#ADDA87" offset="0%"></stop>
            <stop stop-color="#84AF5F" offset="100%"></stop>
        </linearGradient>
        <linearGradient x1="22.6544628%" y1="108.352324%" x2="48.8648981%" y2="-64.3180223%" id="linearGradient-2">
            <stop stop-color="#57733F" offset="0%"></stop>
            <stop stop-color="#84AF5F" offset="100%"></stop>
        </linearGradient>
    </defs>
    <g id="Energy" stroke="none" stroke-width="1" fill="none" fill-rule="evenodd">
        <g id="LEISTUNGEN-Copy-6" transform="translate(0.000000, -3992.000000)">
            <g id="Group-4" transform="translate(-3.000000, 3942.000000)">
                <path d="M532.701347,41.9810199 L535.369243,118.379554 L252.538797,246.931337 L252.538797,246.931337 C231.835909,256.341191 208.544045,258.413577 186.505046,252.806669 L3.9045777,206.351563 L532.701347,41.9810199 Z" id="Rectangle-3-Copy-8" fill="url(#linearGradient-1)" transform="translate(269.636910, 148.937434) scale(-1, 1) rotate(2.000000) translate(-269.636910, -148.937434) "></path>
                <path d="M8.76962424,99.1009906 L304.93308,341.942261 L304.93308,341.942261 C325.181309,358.544936 352.409192,363.880078 377.425907,356.146798 L1447.15809,25.4663792 L1447.67375,40.2329139 L375.679251,409.99221 L375.679251,409.99221 C340.869321,421.999077 302.277251,413.904219 275.22601,388.921697 L10.3480085,144.300002 L8.76962424,99.1009906 Z" id="Rectangle-3-Copy-10" fill="url(#linearGradient-2)" transform="translate(728.221686, 220.463125) scale(-1, 1) rotate(2.000000) translate(-728.221686, -220.463125) "></path>
            </g>
        </g>
    </g>
</svg>