<?xml version="1.0" encoding="UTF-8" standalone="no"?>
<svg width="1439px" height="452px" viewBox="0 0 1439 452" version="1.1" xmlns="http://www.w3.org/2000/svg" xmlns:xlink="http://www.w3.org/1999/xlink">
    <!-- Generator: Sketch 46.2 (44496) - http://www.bohemiancoding.com/sketch -->
    <title>Group 2</title>
    <desc>Created with Sketch.</desc>
    <defs>
        <linearGradient x1="50%" y1="0%" x2="50%" y2="100%" id="linearGradient-1">
            <stop stop-color="#51A3D2" offset="0%"></stop>
            <stop stop-color="#286AA6" offset="100%"></stop>
        </linearGradient>
        <linearGradient x1="141.768329%" y1="-55.2148438%" x2="-2.70582933%" y2="167.587891%" id="linearGradient-2">
            <stop stop-color="#5AA2E4" offset="0%"></stop>
            <stop stop-color="#3B80BE" offset="61.4776336%"></stop>
            <stop stop-color="#3B80BE" offset="61.4776336%"></stop>
            <stop stop-color="#3B80BE" offset="61.4776336%"></stop>
            <stop stop-color="#286AA6" offset="100%"></stop>
        </linearGradient>
    </defs>
    <g id="offshore" stroke="none" stroke-width="1" fill="none" fill-rule="evenodd">
        <g id="Artboard-3" transform="translate(-34.000000, -351.000000)">
            <g id="Group-2" transform="translate(31.000000, 337.000000)">
                <path d="M3,14.3973304 L694.871131,366.181894 L694.871131,366.181894 C719.364675,378.635732 748.050752,379.874216 773.526511,369.577737 L1442,99.4023438 L1442,465.980469 L3,465.980469 L3,14.3973304 Z" id="Path-2" fill="#FFFFFF"></path>
                <path d="M4.24478773,220.214835 L388.591805,7.62686991 L391.085738,79.0437654 L122.038055,217.469424 L122.038055,217.469424 C104.079955,226.708908 83.7451357,230.2945 63.7099481,227.754285 L4.24478773,220.214835 Z" id="Rectangle-3-Copy-12" fill="url(#linearGradient-1)" transform="translate(197.665263, 118.087717) scale(-1, 1) rotate(2.000000) translate(-197.665263, -118.087717) "></path>
                <path d="M1006.85146,106.738775 L1447.77772,267.610285 L1221.60826,411.820699 C1175.0417,441.512516 1105.18428,434.3718 1065.58759,395.881427 L1015.23947,346.940018 L1006.85146,106.738775 Z" id="Rectangle-3-Copy-14" fill="url(#linearGradient-2)" transform="translate(1227.314587, 268.443654) scale(-1, 1) rotate(2.000000) translate(-1227.314587, -268.443654) "></path>
            </g>
        </g>
    </g>
</svg>