<?xml version="1.0" encoding="UTF-8" standalone="no"?>
<svg width="1444px" height="921px" viewBox="0 0 1444 921" version="1.1" xmlns="http://www.w3.org/2000/svg" xmlns:xlink="http://www.w3.org/1999/xlink">
    <!-- Generator: Sketch 46.2 (44496) - http://www.bohemiancoding.com/sketch -->
    <title>Group</title>
    <desc>Created with Sketch.</desc>
    <defs>
        <linearGradient x1="141.768329%" y1="-55.2148438%" x2="-2.70582933%" y2="167.587891%" id="linearGradient-1">
            <stop stop-color="#5AA2E4" offset="0%"></stop>
            <stop stop-color="#286AA6" offset="100%"></stop>
        </linearGradient>
        <linearGradient x1="41.6530614%" y1="-30.8047478%" x2="16.9980129%" y2="50%" id="linearGradient-2">
            <stop stop-color="#154E81" offset="0%"></stop>
            <stop stop-color="#286AA6" offset="100%"></stop>
        </linearGradient>
        <linearGradient x1="141.768329%" y1="-55.2148438%" x2="-67.4328101%" y2="47.2768798%" id="linearGradient-3">
            <stop stop-color="#5AA2E4" offset="0%"></stop>
            <stop stop-color="#286AA6" offset="100%"></stop>
        </linearGradient>
    </defs>
    <g id="offshore" stroke="none" stroke-width="1" fill="none" fill-rule="evenodd">
        <g id="Artboard-2" transform="translate(-215.000000, -56.000000)">
            <g id="Group" transform="translate(135.000000, 0.000000)">
                <polygon id="Path-9" fill="#FFFFFF" points="81.0401879 613.01047 795.207932 414.213286 994.613594 667.272983 1075.75669 685.485255 1376.03917 534.116565 1522.99449 768.017887 1522.99449 976.486841 81.0401879 976.486841"></polygon>
                <path d="M761.147028,373.079162 L780.418939,363.360907 L981.111156,628.304564 L981.111156,628.304564 C1010.10145,666.576073 1062.19952,678.843157 1105.2203,657.527472 L1390.83141,516.014529 L1397.36438,526.220191 L1102.63608,691.073783 L1102.63608,691.073783 C1058.52872,715.744832 1002.94692,703.629009 973.108844,662.839197 L761.147028,373.079162 Z" id="Path-21-Copy" fill="url(#linearGradient-1)"></path>
                <path d="M81.0046335,367.970497 L1150.81777,171.146458 L1150.81777,171.146458 C1182.36515,165.342375 1214.29033,179.190155 1231.60872,206.190124 L1523.0511,660.558911 L1523.0511,56 L81.0046335,56 L81.0046335,367.970497 Z" id="Path-2" fill="#488ECD"></path>
                <path d="M83,648.603717 L366.445192,190.447299 L366.445192,190.447299 C383.410706,163.024505 415.501972,148.868594 447.192982,154.828306 L1523.08598,357.1574 C1337.10101,542.173233 1242.56976,634.659829 1239.49223,634.617188 C1236.57615,634.576783 994.626646,512.841257 513.643709,269.410608 L513.643708,269.41061 C467.24087,245.925633 410.582557,261.929069 383.323447,306.220247 L83,794.192127 L83,648.603717 Z" id="Rectangle-3-Copy-2" fill="url(#linearGradient-2)" transform="translate(803.042990, 473.836503) scale(-1, 1) translate(-803.042990, -473.836503) "></path>
                <path d="M29.562525,428.495032 L116.09659,516.966415 C144.288906,545.789898 199.083331,562.220921 238.481024,553.666641 L1207.6322,343.23831 L114.312047,182.364549 L29.562525,428.495032 Z" id="Path-3-Copy-2" fill="url(#linearGradient-3)" transform="translate(618.597362, 369.147703) rotate(-19.000000) translate(-618.597362, -369.147703) "></path>
            </g>
        </g>
    </g>
</svg>