<?xml version="1.0" encoding="UTF-8" standalone="no"?>
<svg width="1440px" height="763px" viewBox="0 0 1440 763" version="1.1" xmlns="http://www.w3.org/2000/svg" xmlns:xlink="http://www.w3.org/1999/xlink">
    <!-- Generator: Sketch 45.2 (43514) - http://www.bohemiancoding.com/sketch -->
    <title>Group 20</title>
    <desc>Created with Sketch.</desc>
    <defs>
        <polygon id="path-1" points="0.106179775 50.4360476 0.106179775 0.505785714 313.334747 0.505785714 313.334747 25.4709167 313.334747 50.4360476 0.106179775 50.4360476"></polygon>
    </defs>
    <g id="Operations" stroke="none" stroke-width="1" fill="none" fill-rule="evenodd">
        <g id="LEISTUNGEN-Copy">
            <g id="Group-20">
                <path d="M0,0 L0,669.053478 L701.839163,582.278459 L701.839163,582.278459 C714.160543,580.75505 726.657871,581.539377 738.692103,584.591335 L1440.96576,762.692373 L1440.96576,0 L0,0 Z" id="Path-2" fill="#F6F6F6"></path>
                <g id="GWO_Logo_2017_4c" transform="translate(564.000000, 342.000000)">
                    <path d="M82.6751124,51.701381 C79.8843539,51.701381 76.9838764,51.1955952 73.8091011,50.1596905 L73.6091292,50.0919048 L74.8885955,45.3017143 L75.106264,45.3642857 C77.495309,46.0056429 79.9675281,46.6695952 82.4539045,46.6695952 C85.1827247,46.6695952 91.5305056,45.8787619 91.5305056,38.5735476 L91.5305056,26.3251905 C91.5305056,20.2192619 87.3841854,17.0246429 83.2891854,17.0246429 C77.038736,17.0246429 74.8213483,22.1207381 74.8213483,26.4885714 C74.8213483,31.3500238 78.419073,34.7445238 83.5652528,34.7445238 C85.7454775,34.7445238 87.7965169,33.7364286 89.6918258,32.6431667 L90.0245225,32.4537143 L90.0245225,37.9391429 L89.9094944,37.9999762 C87.9575562,39.0463095 85.3260674,39.7797857 83.5121629,39.7797857 C75.5132865,39.7797857 69.478736,33.9467381 69.478736,26.2174286 C69.478736,17.975381 75.3805618,11.9928571 83.5121629,11.9928571 C91.8773596,11.9928571 96.8748876,18.7245 96.8748876,25.2336667 L96.8748876,36.9345238 C96.8748876,46.0421429 91.4349438,51.701381 82.6751124,51.701381" id="Fill-1" fill="#FFFFFF"></path>
                    <path d="M106.457612,39.2288095 L101.11323,39.2288095 L101.11323,12.5403571 L106.236404,12.5403571 L106.236404,15.2187619 C107.853876,12.9922619 110.076573,11.9928571 113.364607,11.9928571 L114.697163,11.9928571 L114.697163,17.0246429 L113.753933,17.0246429 C108.843118,17.0246429 106.457612,20.2088333 106.457612,26.7597143 L106.457612,39.2288095" id="Fill-2" fill="#FFFFFF"></path>
                    <path d="M129.498624,39.8267143 C126.980393,39.8267143 124.412612,39.128 122.078427,37.8070476 C118.843483,35.9768333 116.505758,33.0707381 115.493511,29.6293095 C114.444101,26.0575238 114.953764,22.2354524 116.928708,18.8652857 C119.505337,14.4644286 124.037444,11.8381667 129.04382,11.8381667 C131.533736,11.8381667 134.005955,12.4916905 136.196798,13.7274762 C141.350056,16.644 143.733792,21.2673333 143.277219,27.4740714 L143.263062,27.6774286 L122.186376,27.3610952 L122.414663,22.6230476 L122.630562,22.63 L137.437331,22.8333571 C136.839185,20.7719762 136.035758,19.4458095 133.637865,18.086619 C132.255758,17.3062143 130.804635,16.9116667 129.325197,16.9116667 C126.254831,16.9116667 123.499466,18.6167381 121.752809,21.5940952 C120.471573,23.7771429 120.055702,26.1670238 120.59191,28.3187857 C121.11573,30.4514286 122.554466,32.2694762 124.632051,33.4479048 C126.235365,34.3551905 127.709494,34.7966667 129.144691,34.7966667 C131.553202,34.7966667 133.827219,33.5191667 136.294129,30.7764524 L136.430393,30.6235 L140.75368,33.8215952 L140.631573,33.9919286 C138.044326,37.7010238 133.986489,39.8267143 129.498624,39.8267143" id="Fill-3" fill="#FFFFFF"></path>
                    <path d="M160.38986,39.8267143 C157.86986,39.8267143 155.300309,39.128 152.967893,37.8070476 C149.732949,35.9768333 147.395225,33.0707381 146.379438,29.6293095 C145.333567,26.0575238 145.84323,22.2354524 147.818174,18.8652857 C150.398343,14.4644286 154.92691,11.8381667 159.936826,11.8381667 C162.426742,11.8381667 164.897191,12.4916905 167.088034,13.7274762 C172.239522,16.644 174.623258,21.2673333 174.170225,27.4740714 L174.150758,27.6774286 L153.075843,27.3610952 L153.304129,22.6230476 L153.521798,22.63 L168.330337,22.8333571 C167.730421,20.7719762 166.923455,19.4458095 164.529101,18.086619 C163.145225,17.3062143 161.69764,16.9116667 160.216433,16.9116667 C157.144298,16.9116667 154.385393,18.6167381 152.642275,21.5940952 C151.35927,23.7771429 150.945169,26.1670238 151.481376,28.3187857 C152.006966,30.4514286 153.447472,32.2694762 155.526826,33.4479048 C157.126601,34.3551905 158.6025,34.7966667 160.034157,34.7966667 C162.446208,34.7966667 164.718455,33.5191667 167.183596,30.7764524 L167.31986,30.6235 L171.648455,33.8215952 L171.526348,33.9919286 C168.939101,37.7010238 164.881264,39.8267143 160.38986,39.8267143" id="Fill-4" fill="#FFFFFF"></path>
                    <path d="M200.86736,39.2288095 L195.522978,39.2288095 L195.522978,23.6989286 C195.522978,19.9533333 192.760534,17.0246429 189.231826,17.0246429 C185.703118,17.0246429 182.938904,19.9533333 182.938904,23.6989286 L182.938904,39.2288095 L177.594522,39.2288095 L177.594522,23.6989286 C177.594522,16.807381 182.377921,11.9928571 189.231826,11.9928571 C196.082191,11.9928571 200.86736,16.807381 200.86736,23.6989286 L200.86736,39.2288095" id="Fill-5" fill="#FFFFFF"></path>
                    <path d="M232.061208,39.7797857 C228.872275,39.7797857 225.982416,38.451881 224.264073,36.2114762 C222.543961,38.451881 219.654101,39.7797857 216.468708,39.7797857 C210.973904,39.7797857 206.666545,35.7421905 206.666545,30.5904762 L206.666545,12.5403571 L212.009157,12.5403571 L212.009157,29.4972143 C212.009157,32.684881 213.803596,34.7445238 216.576657,34.7445238 C219.903624,34.7445238 221.590112,32.721381 221.590112,28.7289762 L221.590112,12.5403571 L226.939803,12.5403571 L226.939803,28.7289762 C226.939803,32.7787381 228.580281,34.7445238 231.953258,34.7445238 C234.722781,34.7445238 236.517219,32.684881 236.517219,29.4972143 L236.517219,12.5403571 L241.861601,12.5403571 L241.861601,30.5904762 C241.861601,35.7421905 237.556011,39.7797857 232.061208,39.7797857" id="Fill-6" fill="#DADADA"></path>
                    <path d="M247.664326,39.2305476 L253.010478,39.2305476 L253.010478,12.5403571 L247.664326,12.5403571 L247.664326,39.2305476 Z M250.340056,10.0253333 C248.253624,10.0253333 247.161742,8.45583333 247.161742,6.90545238 C247.161742,5.36028571 248.253624,3.79252381 250.340056,3.79252381 C252.42118,3.79252381 253.509522,5.36028571 253.509522,6.90545238 C253.509522,8.45583333 252.42118,10.0253333 250.340056,10.0253333 L250.340056,10.0253333 Z" id="Fill-7" fill="#DADADA"></path>
                    <path d="M282.089579,39.2288095 L276.741657,39.2288095 L276.741657,23.6989286 C276.741657,19.9533333 273.979213,17.0246429 270.450506,17.0246429 C266.921798,17.0246429 264.157584,19.9533333 264.157584,23.6989286 L264.157584,39.2288095 L258.811433,39.2288095 L258.811433,23.6989286 C258.811433,16.807381 263.598371,11.9928571 270.450506,11.9928571 C277.30441,11.9928571 282.089579,16.807381 282.089579,23.6989286 L282.089579,39.2288095" id="Fill-8" fill="#DADADA"></path>
                    <g id="Group-12">
                        <mask id="mask-2" fill="white">
                            <use xlink:href="#path-1"></use>
                        </mask>
                        <g id="Clip-10"></g>
                        <path d="M299.635787,39.7797857 C291.37323,39.7797857 285.59882,33.7972619 285.59882,25.2336667 C285.59882,17.9336667 291.468792,11.9928571 298.689017,11.9928571 C301.555871,11.9928571 304.141348,12.629 306.371124,13.8804286 L306.484382,13.9447381 L306.484382,19.5170714 L306.135758,19.2824286 C304.465197,18.157881 301.777079,17.0246429 299.524298,17.0246429 C294.392275,17.0246429 290.946742,20.5616667 290.946742,25.8298333 C290.946742,31.0823571 294.519691,34.7445238 299.635787,34.7445238 C304.70941,34.7445238 307.990365,30.6235 307.990365,24.2446905 L307.990365,0.505785714 L313.334747,0.505785714 L313.334747,25.1206905 C313.334747,33.7503333 307.70014,39.7797857 299.635787,39.7797857" id="Fill-9" fill="#DADADA" mask="url(#mask-2)"></path>
                        <path d="M48.7577528,39.9449048 C48.7577528,45.7397143 43.9761236,50.4360476 38.0778371,50.4360476 L10.6816854,50.4360476 C4.78339888,50.4360476 0,45.7397143 0,39.9449048 L0,13.0391905 C0,7.24438095 4.78339888,2.54978571 10.6816854,2.54978571 L38.0778371,2.54978571 C43.9761236,2.54978571 48.7577528,7.24438095 48.7577528,13.0391905 L48.7577528,39.9449048" id="Fill-11" fill="#9E9F9E" mask="url(#mask-2)"></path>
                    </g>
                    <polyline id="Fill-13" fill="#FFFFFE" points="21.5951966 29.2590952 21.5951966 40.3255476 30.0895787 34.7931905 21.5951966 29.2590952"></polyline>
                    <polyline id="Fill-14" fill="#FFFFFE" points="30.0895787 23.7284762 30.0895787 34.7966667 38.5839607 29.2590952 30.0895787 23.7284762"></polyline>
                    <polyline id="Fill-15" fill="#FFFFFE" points="30.0895787 34.7984048 30.0895787 45.8700714 38.5839607 40.3359762 30.0895787 34.7984048"></polyline>
                    <polyline id="Fill-16" fill="#C2C3C1" points="13.1008146 23.7180476 13.1008146 12.6515952 21.5951966 18.1822143 13.1008146 23.7180476"></polyline>
                    <polyline id="Fill-17" fill="#C2C3C1" points="21.5951966 18.1856905 21.5951966 7.1157619 30.0895787 12.6515952 21.5951966 18.1856905"></polyline>
                    <polyline id="Fill-18" fill="#C2C3C1" points="21.5951966 29.2590952 21.5951966 18.1926429 30.0895787 23.725 21.5951966 29.2590952"></polyline>
                    <polyline id="Fill-19" fill="#D4D5D4" points="4.60643258 40.3255476 4.60643258 29.2590952 13.1008146 34.7931905 4.60643258 40.3255476"></polyline>
                    <polyline id="Fill-20" fill="#D4D5D4" points="13.1008146 34.7966667 13.1008146 23.7284762 21.5951966 29.2590952 13.1008146 34.7966667"></polyline>
                    <polyline id="Fill-21" fill="#D4D5D4" points="13.1008146 45.8700714 13.1008146 34.7984048 21.5951966 40.3359762 13.1008146 45.8700714"></polyline>
                    <path d="M225.22323,59.5436667 C226.656657,59.5436667 227.826404,60.0146905 228.721854,60.9584762 C229.565983,61.8657619 229.988933,63.0198571 229.988933,64.4172857 C229.988933,65.8147143 229.565983,66.9653333 228.721854,67.872619 C227.826404,68.8164048 226.656657,69.2891667 225.22323,69.2891667 C223.786264,69.2891667 222.620056,68.8164048 221.722837,67.872619 C220.875169,66.9653333 220.453989,65.8147143 220.453989,64.4172857 C220.453989,63.0198571 220.875169,61.8657619 221.722837,60.9584762 C222.620056,60.0146905 223.786264,59.5436667 225.22323,59.5436667 M225.22323,68.0029762 C226.260253,68.0029762 227.081376,67.651881 227.683062,66.9462143 C228.261742,66.2770476 228.548427,65.4340714 228.548427,64.4172857 C228.548427,63.3970238 228.261742,62.5523095 227.683062,61.8831429 C227.081376,61.1809524 226.260253,60.828119 225.22323,60.828119 C224.184438,60.828119 223.359775,61.1809524 222.75809,61.8831429 C222.184719,62.5523095 221.892725,63.3970238 221.892725,64.4172857 C221.892725,65.4340714 222.184719,66.2770476 222.75809,66.9462143 C223.359775,67.651881 224.184438,68.0029762 225.22323,68.0029762" id="Fill-22" fill="#FFFFFF"></path>
                    <path d="M233.581348,61.2070238 C234.349382,60.096381 235.499663,59.5454048 237.023343,59.5454048 C238.405449,59.5454048 239.527416,60.0146905 240.385702,60.9602143 C241.247528,61.8900952 241.674017,63.0441905 241.674017,64.4138095 C241.674017,65.7886429 241.247528,66.941 240.385702,67.872619 C239.527416,68.8146667 238.375365,69.2856905 236.924242,69.2856905 C235.478427,69.2856905 234.36177,68.7277619 233.581348,67.6066905 L233.581348,72.8765952 L232.139073,72.8765952 L232.139073,59.694881 L233.581348,59.694881 L233.581348,61.2070238 Z M236.830449,60.826381 C235.791657,60.826381 234.972303,61.1809524 234.368848,61.8831429 C233.791938,62.5540476 233.505253,63.3970238 233.505253,64.4138095 C233.505253,65.4358095 233.791938,66.2805238 234.368848,66.9462143 C234.972303,67.651881 235.791657,68.0047143 236.830449,68.0047143 C237.856854,68.0047143 238.690365,67.651881 239.329213,66.9462143 C239.932669,66.2805238 240.233511,65.4358095 240.233511,64.4138095 C240.233511,63.3970238 239.932669,62.5540476 239.329213,61.8831429 C238.690365,61.1809524 237.856854,60.826381 236.830449,60.826381 L236.830449,60.826381 Z" id="Fill-23" fill="#FFFFFF"></path>
                    <path d="M248.135056,68.0029762 C249.430449,68.0029762 250.357753,67.4728571 250.924045,66.4178333 L252.500815,66.4178333 C252.168118,67.2729762 251.637219,67.9647381 250.915197,68.493119 C250.191404,69.0249762 249.255253,69.2856905 248.11736,69.2856905 C246.669775,69.2856905 245.48941,68.8146667 244.578034,67.872619 C243.694972,66.9531667 243.254326,65.8008095 243.254326,64.4172857 C243.254326,63.018119 243.675506,61.8657619 244.521404,60.9602143 C245.418624,60.0146905 246.586601,59.5436667 248.020028,59.5436667 C249.455225,59.5436667 250.623202,60.0146905 251.518652,60.9602143 C252.36632,61.8657619 252.7875,63.018119 252.7875,64.4172857 L252.7875,64.9821667 L244.733764,64.9821667 C244.834635,65.8494762 245.186798,66.5673095 245.790253,67.1356667 C246.404326,67.7144524 247.188287,68.0029762 248.135056,68.0029762 M248.020028,60.828119 C247.136966,60.828119 246.391938,61.0992619 245.790253,61.6398095 C245.2275,62.1560238 244.878876,62.8269286 244.751461,63.6594762 L251.288596,63.6594762 C251.16118,62.8269286 250.814326,62.1560238 250.251573,61.6398095 C249.648118,61.0992619 248.90309,60.828119 248.020028,60.828119" id="Fill-24" fill="#FFFFFF"></path>
                    <path d="M259.912163,59.5436667 L259.912163,60.9584762 L259.738736,60.9584762 C258.701713,60.9584762 257.854045,61.3704048 257.202809,62.1855714 C256.585197,62.9677143 256.280815,63.9010714 256.280815,64.9821667 L256.280815,69.1362143 L254.83677,69.1362143 L254.83677,59.694881 L256.280815,59.694881 L256.280815,62.0169762 C256.585197,61.0349524 257.25236,60.3101667 258.278764,59.8460952 C258.701713,59.6427381 259.213146,59.5436667 259.814831,59.5436667 L259.912163,59.5436667" id="Fill-25" fill="#FFFFFF"></path>
                    <path d="M268.896742,67.6275476 C268.126938,68.7329762 266.980197,69.2891667 265.454747,69.2891667 C264.070871,69.2891667 262.941826,68.8146667 262.071152,67.872619 C261.223483,66.9392619 260.804073,65.7886429 260.804073,64.4172857 C260.804073,63.0441905 261.223483,61.8918333 262.071152,60.9584762 C262.941826,60.0146905 264.104494,59.5436667 265.553848,59.5436667 C266.999663,59.5436667 268.11632,60.1033333 268.896742,61.2261429 L268.896742,59.694881 L270.339017,59.694881 L270.339017,69.1362143 L268.896742,69.1362143 L268.896742,67.6275476 Z M265.64941,68.0029762 C266.686433,68.0029762 267.507556,67.651881 268.109242,66.9479524 C268.687921,66.2805238 268.974607,65.4340714 268.974607,64.4172857 C268.974607,63.3970238 268.687921,62.5540476 268.109242,61.886619 C267.507556,61.1809524 266.686433,60.828119 265.64941,60.828119 C264.623006,60.828119 263.785955,61.1809524 263.148876,61.886619 C262.547191,62.5540476 262.246348,63.3970238 262.246348,64.4172857 C262.246348,65.4340714 262.547191,66.2805238 263.148876,66.9479524 C263.785955,67.651881 264.623006,68.0029762 265.64941,68.0029762 L265.64941,68.0029762 Z" id="Fill-26" fill="#FFFFFF"></path>
                    <polyline id="Fill-27" fill="#FFFFFF" points="274.023455 69.1362143 274.023455 60.9393571 272.062669 60.9393571 272.062669 59.694881 274.023455 59.694881 274.023455 56.3142857 275.4675 56.3142857 275.4675 59.694881 277.679579 59.694881 277.679579 60.9393571 275.4675 60.9393571 275.4675 69.1362143 274.023455 69.1362143"></polyline>
                    <path d="M279.330674,58.1097381 L280.887978,58.1097381 L280.887978,56.2586667 L279.330674,56.2586667 L279.330674,58.1097381 Z M279.390843,69.1379524 L280.833118,69.1379524 L280.833118,59.694881 L279.390843,59.694881 L279.390843,69.1379524 Z" id="Fill-28" fill="#FFFFFF"></path>
                    <path d="M287.69764,59.5436667 C289.132837,59.5436667 290.299045,60.0146905 291.194494,60.9584762 C292.040393,61.8657619 292.465112,63.0198571 292.465112,64.4172857 C292.465112,65.8147143 292.040393,66.9653333 291.194494,67.872619 C290.299045,68.8164048 289.132837,69.2891667 287.69764,69.2891667 C286.260674,69.2891667 285.094466,68.8164048 284.199017,67.872619 C283.351348,66.9653333 282.926629,65.8147143 282.926629,64.4172857 C282.926629,63.0198571 283.351348,61.8657619 284.199017,60.9584762 C285.094466,60.0146905 286.260674,59.5436667 287.69764,59.5436667 M287.69764,68.0029762 C288.736433,68.0029762 289.557556,67.651881 290.159242,66.9462143 C290.736152,66.2770476 291.022837,65.4340714 291.022837,64.4172857 C291.022837,63.3970238 290.736152,62.5523095 290.159242,61.8831429 C289.557556,61.1809524 288.736433,60.828119 287.69764,60.828119 C286.658848,60.828119 285.837725,61.1809524 285.2325,61.8831429 C284.659129,62.5523095 284.370674,63.3970238 284.370674,64.4172857 C284.370674,65.4340714 284.659129,66.2770476 285.2325,66.9462143 C285.837725,67.651881 286.658848,68.0029762 287.69764,68.0029762" id="Fill-29" fill="#FFFFFF"></path>
                    <path d="M296.023904,59.694881 L296.023904,61.1670476 C296.368989,60.7151429 296.793708,60.3310238 297.296292,60.0146905 C297.795337,59.7000952 298.363399,59.5436667 299.005787,59.5436667 C299.644635,59.5436667 300.19677,59.6305714 300.658652,59.804381 C301.120534,59.9851429 301.522247,60.2493333 301.867331,60.6004286 C302.66368,61.3686667 303.060084,62.3819762 303.060084,63.6403571 L303.060084,69.1362143 L301.619579,69.1362143 L301.619579,63.6785952 C301.619579,62.8112857 301.370056,62.1177857 300.869242,61.5998333 C300.370197,61.0853571 299.72427,60.828119 298.929691,60.828119 C298.120955,60.828119 297.434326,61.0905714 296.871573,61.6206905 C296.307051,62.1629762 296.023904,62.853 296.023904,63.6959762 L296.023904,69.1362143 L294.581629,69.1362143 L294.581629,59.694881 L296.023904,59.694881" id="Fill-30" fill="#FFFFFF"></path>
                    <path d="M311.349185,62.2255476 C311.22,61.2417857 310.416573,60.7516429 308.933596,60.7516429 C307.454157,60.7516429 306.714438,61.2035476 306.714438,62.1090952 C306.714438,62.4897381 306.870169,62.7747857 307.186938,62.9694524 C307.500169,63.1675952 307.894803,63.3275 308.369073,63.4509048 C308.841573,63.5795238 309.358315,63.6942381 309.917528,63.8037381 C310.474972,63.9115 310.989944,64.0592381 311.462444,64.2539048 C311.936713,64.4485714 312.329579,64.7179762 312.644579,65.0586429 C312.957809,65.3975714 313.117079,65.865119 313.117079,66.4560714 C313.117079,67.3755238 312.764916,68.0777143 312.05882,68.5609048 C311.354494,69.0458333 310.400646,69.2891667 309.195506,69.2891667 C307.9125,69.2891667 306.893174,68.9745714 306.137528,68.3401667 C305.44382,67.7909286 305.072191,67.0661429 305.02264,66.1727619 L306.523315,66.1727619 C306.610028,67.0418095 307.110843,67.6275476 308.01868,67.9265 C308.356685,68.0307857 308.684073,68.0794524 309.011461,68.0794524 C309.337079,68.0794524 309.64323,68.0585952 309.924607,68.0255714 C310.205983,67.9855952 310.48382,67.9178095 310.752809,67.8152619 C311.366882,67.5754048 311.676573,67.1652143 311.676573,66.5881667 C311.676573,66.1970952 311.519073,65.8981429 311.204073,65.6895714 C310.890843,65.4827381 310.497978,65.3124048 310.020169,65.1803095 C309.547669,65.0482143 309.029157,64.9265476 308.475253,64.8222619 C307.91427,64.7145 307.399298,64.5667619 306.925028,64.3790476 C306.450758,64.1895952 306.057893,63.930619 305.744663,63.6038571 C305.429663,63.2753571 305.272163,62.8217143 305.272163,62.2429286 C305.272163,61.3877857 305.587163,60.7238333 306.226011,60.2510714 C306.857781,59.7783095 307.797472,59.5436667 309.039775,59.5436667 C310.22014,59.5436667 311.149213,59.8200238 311.828764,60.3727381 C312.393287,60.8402857 312.720674,61.4555714 312.809157,62.2255476 L311.349185,62.2255476" id="Fill-31" fill="#FFFFFF"></path>
                </g>
            </g>
        </g>
    </g>
</svg>