<svg xmlns="http://www.w3.org/2000/svg" xmlns:xlink="http://www.w3.org/1999/xlink" viewBox="0 0 284.05 74.08"><defs><style>.a{fill:url(#a);}.b{fill:url(#b);}.c{fill:url(#c);}.d{fill:#575756;}.e{fill:none;}.f{fill:url(#d);}.g{fill:url(#e);}.h{fill:url(#f);}.i{fill:url(#g);}.j{fill:url(#h);}.k{fill:url(#i);}.l{fill:url(#j);}.m{fill:url(#k);}.n{fill:url(#l);}.o{fill:url(#m);}.p{fill:url(#n);}.q{fill:url(#o);}.r{fill:url(#p);}.s{fill:url(#q);}.t{fill:url(#r);}.u{fill:url(#s);}</style><linearGradient id="a" x1="-301.03" y1="33.4" x2="523.44" y2="33.4" gradientUnits="userSpaceOnUse"><stop offset="0" stop-color="#94b654"/><stop offset="1" stop-color="#83a14b"/></linearGradient><linearGradient id="b" x1="-34.16" y1="18.41" x2="94.53" y2="18.41" gradientUnits="userSpaceOnUse"><stop offset="0" stop-color="#165892"/><stop offset="1" stop-color="#0067a1"/></linearGradient><linearGradient id="c" x1="-11.98" y1="-3.1" x2="44.04" y2="17.7" gradientUnits="userSpaceOnUse"><stop offset="0" stop-color="#a8a8a7"/><stop offset="1" stop-color="#f2f2f2"/></linearGradient><linearGradient id="d" x1="-196.68" y1="325.76" x2="-194.74" y2="325.76" gradientTransform="matrix(44.3, 0, 0, -44.3, 8720.74, 14474.02)" xlink:href="#a"/><linearGradient id="e" x1="-213.39" y1="333.15" x2="-212.46" y2="333.15" gradientTransform="matrix(-30.89, 5.73, -11.36, -15.6, -2741.38, 6448.36)" gradientUnits="userSpaceOnUse"><stop offset="0" stop-color="#94b654"/><stop offset="1" stop-color="#799545"/></linearGradient><linearGradient id="f" x1="-213.39" y1="332.6" x2="-211.45" y2="332.6" xlink:href="#e"/><linearGradient id="g" x1="-196.17" y1="326.18" x2="-196.16" y2="326.18" gradientTransform="matrix(44.3, 0, 0, -44.3, 8720.74, 14474.02)" xlink:href="#a"/><linearGradient id="h" x1="-212.45" y1="333.75" x2="-212.44" y2="333.75" xlink:href="#e"/><linearGradient id="i" x1="-210.79" y1="312.01" x2="-210.79" y2="312.01" gradientTransform="matrix(-0.15, 24.29, -24.32, 1.29, 7586.8, 4740.46)" xlink:href="#c"/><linearGradient id="j" x1="-182.52" y1="320.66" x2="-182.51" y2="320.66" gradientTransform="matrix(12.31, -13.97, 18.2, 10.94, -3559.81, -6033.1)" gradientUnits="userSpaceOnUse"><stop offset="0" stop-color="#f2f2f2"/><stop offset="1" stop-color="#b2b2b2"/></linearGradient><linearGradient id="k" x1="61.77" y1="19.21" x2="-5.03" y2="18.24" gradientUnits="userSpaceOnUse"><stop offset="0" stop-color="#11475e"/><stop offset="0.43" stop-color="#1b5c86"/><stop offset="1" stop-color="#2172b7"/></linearGradient><linearGradient id="l" x1="-7.65" y1="14.23" x2="21.16" y2="14.23" xlink:href="#b"/><linearGradient id="m" x1="-90.34" y1="29.43" x2="227.8" y2="29.43" gradientTransform="matrix(1, 0, 0, 1, 0, 0)" xlink:href="#e"/><linearGradient id="n" x1="-1.66" y1="34.69" x2="45.84" y2="34.69" gradientUnits="userSpaceOnUse"><stop offset="0" stop-color="#799545"/><stop offset="0.34" stop-color="#7d9a47"/><stop offset="0.73" stop-color="#88a84d"/><stop offset="1" stop-color="#94b654"/></linearGradient><linearGradient id="o" x1="29.96" y1="39.59" x2="50.65" y2="20.25" gradientUnits="userSpaceOnUse"><stop offset="0" stop-color="#94b654"/><stop offset="0.83" stop-color="#799545"/></linearGradient><linearGradient id="p" x1="50" y1="37.01" x2="37.16" y2="25.22" xlink:href="#a"/><linearGradient id="q" x1="8.11" y1="25.48" x2="94.09" y2="25.48" xlink:href="#a"/><linearGradient id="r" x1="-0.61" y1="19.1" x2="35.92" y2="9.59" gradientTransform="matrix(1, 0, 0, 1, 0, 0)" xlink:href="#j"/><linearGradient id="s" x1="10.54" y1="5.26" x2="44.48" y2="17.86" xlink:href="#c"/></defs><title>Element 2</title><path class="a" d="M44.11,36v-15l-3.68,4.2a7.44,7.44,0,0,1-.92.86A6.1,6.1,0,0,1,37.44,27h0a5.93,5.93,0,0,1-2.44.17,6.18,6.18,0,0,1-1.56-.45,7.14,7.14,0,0,1-1.06-.62,6.42,6.42,0,0,1-.95-.86l-3.07-3.41-7.2,3.91L5.48,34.28A5.77,5.77,0,0,1,0,34.43v1.78a9.66,9.66,0,0,0,9.66,9.66H34.45a9.64,9.64,0,0,0,6.65-2.66h0l.05-.06a10.17,10.17,0,0,0,.83-.91c.06-.07.11-.15.16-.22.22-.3.43-.6.62-.92l.11-.19a9,9,0,0,0,.53-1.13c0-.1.07-.2.11-.29a10.33,10.33,0,0,0,.33-1.12l0-.12s.15-.88.16-1a8.43,8.43,0,0,0,.06-1V36Z"/><path class="b" d="M16.42,8.65,12.75,4.57h0l-.91-1L10.22,1.77H9.66a9.62,9.62,0,0,0-5.74,1.9h0l-.16.14c-.18.14-.34.28-.5.42A3.45,3.45,0,0,0,3,4.48,6.38,6.38,0,0,0,2.46,5l-.2.21a9.94,9.94,0,0,0-.62.83l0,.08q-.26.39-.48.81C1.06,7,1,7.14,1,7.23s-.2.44-.29.66-.09.24-.13.36-.14.43-.2.65-.07.25-.1.38-.1.48-.13.72,0,.23,0,.34A9.81,9.81,0,0,0,0,11.43v8.29H0V34.43a5.77,5.77,0,0,0,5.48-.15l15.67-8.5,7.2-3.91Z"/><path class="c" d="M42.24,5.77A2.69,2.69,0,0,0,42,5.5c-.1-.13-.2-.26-.31-.38l-.36-.4-.27-.27a8.29,8.29,0,0,0-.71-.62,9.57,9.57,0,0,0-5.94-2.06H10.22l1.62,1.79.91,1h0l3.67,4.08L28.35,21.87l3.07,3.41a6.42,6.42,0,0,0,.95.86,7.14,7.14,0,0,0,1.06.62,6.18,6.18,0,0,0,1.56.45A5.93,5.93,0,0,0,37.43,27h0A6.1,6.1,0,0,0,39.5,26a7.44,7.44,0,0,0,.92-.86l3.67-4.19h0v-9.5A9.57,9.57,0,0,0,42.24,5.77Z"/><path class="d" d="M78.62,68.55c-.21-1.29-.39-2.57-.53-3.82s-.26-2.52-.36-3.8c-.08-1.08-.19-2.13-.31-3.21l0-.18,0-.23s0-.05,0-.08v0a1.49,1.49,0,0,0-.11-.34.23.23,0,0,0-.11-.09.37.37,0,0,0-.23-.07h0a1.28,1.28,0,0,0-.44.09.49.49,0,0,0-.32.26L75,60.75l-.1.33-.76,2.51c-.22.7-.4,1.24-.52,1.64s-.22.69-.29.88-.13.3-.15.31,0,0,0,0c-.11-.16-.26-.41-.44-.72S72.32,65,72,64.44s-.52-1-.79-1.52l-1.47-2.84a9,9,0,0,0-.47-.83l-.47-.77a4.37,4.37,0,0,0-.61-.79,2.2,2.2,0,0,0-.36-.33,3.39,3.39,0,0,0-.39-.27,1.79,1.79,0,0,0-.91-.23h0a.84.84,0,0,0-.33.08s-.06,0-.08,0-.05.06-.06.07a.63.63,0,0,0-.1.35v0a.47.47,0,0,0,0,.12c.14.57.26,1.16.37,1.8s.2,1.35.26,2c.09,1,.16,2,.2,3.18,0,.09,0,.18,0,.26s0,.24,0,.36c0,.44,0,.89,0,1.33l0,1.25,0,1.2c0,1.23.11,2.46.25,3.66h.1l-.09,0v0l0,0a.84.84,0,0,0,.52.37.82.82,0,0,0,.22,0h.2l.15,0a.89.89,0,0,0,.37-.26l0,0a.4.4,0,0,0,.07-.43c0-1-.09-2-.22-3.14s-.26-2.21-.42-3.45-.29-2.36-.41-3.46-.2-2.11-.22-3a.52.52,0,0,1,.42.22,7.3,7.3,0,0,1,.45.7c.1.19.25.49.47.89s.46.86.72,1.37l.83,1.6.85,1.62c.26.51.5,1,.7,1.38s.37.72.47.9a1.7,1.7,0,0,0,.27.48.39.39,0,0,0,.37.15c.22,0,.44-.24.66-.59a7.11,7.11,0,0,0,.64-1.37c.2-.54.41-1.14.63-1.84s.39-1.32.57-2,.31-1.19.46-1.69L76,61c.15-.51.27-.93.37-1.26v0c0-.07,0-.14.06-.19l1.39,13.27v.14l1.52-.63.08-.06,0-.11A27.55,27.55,0,0,1,78.62,68.55Z"/><path class="d" d="M82.67,66.75l0-2.88c0-.68,0-1.31,0-1.92v-.7a.67.67,0,0,0-.06-.3v0h0a.36.36,0,0,0-.15-.15,1,1,0,0,0-.48-.1h-.25l-.14,0-.07,0h-.08v.09a23.4,23.4,0,0,0-.13,2.72c0,1,0,2,.08,3l.15,3a1.62,1.62,0,0,1,0,.22v.16c0,.9.07,1.69.08,2.4a.54.54,0,0,0,.2.56.82.82,0,0,0,.42.11.77.77,0,0,0,.3-.06.48.48,0,0,0,.16-.08.57.57,0,0,0,.16-.54c0-.8-.07-1.67-.08-2.59S82.68,67.72,82.67,66.75Z"/><path class="d" d="M81.55,58.58a.6.6,0,0,0,.29-.08.57.57,0,0,0,.17-.12,1.08,1.08,0,0,0,.18-.24v0a1.67,1.67,0,0,0-.12-.65.45.45,0,0,0-.23-.24.7.7,0,0,0-.32-.06h-.06a.8.8,0,0,0-.41.1.4.4,0,0,0-.21.42,1.11,1.11,0,0,0,.16.62.65.65,0,0,0,.39.29Z"/><path class="d" d="M90.08,61.76a3.85,3.85,0,0,0-.11-.57,2.31,2.31,0,0,0-.1-.28v0c0-.09-.09-.15-.16-.16a.25.25,0,0,0-.1,0l-2.93.88c0-.13,0-.26,0-.4a5.33,5.33,0,0,1,0-.57c0-.41,0-.83,0-1.25s0-.86.07-1.29l.07-1.26-.06,0-.14-.05h0c-.06,0-.1,0-.1,0-.21-.05-.41-.1-.61-.13a.42.42,0,0,0-.28,0,.34.34,0,0,0-.16.27l0,5.17-1.93,1.15v0a.9.9,0,0,0,0,.33,2.83,2.83,0,0,0,.08.4,2,2,0,0,0,.15.37.58.58,0,0,0,.12.14l0,0h0a.18.18,0,0,0,.11,0,.9.9,0,0,0,.4,0,1.26,1.26,0,0,0,.34-.15l.18-.11.09-.06.07,0,.09-.06.12-.07h0l.66,8.7v.05l0,0a1.36,1.36,0,0,0,.59.29h0l.13,0A.36.36,0,0,0,87,73a1,1,0,0,0,.15-.55v-.16c0-.16,0-.4,0-.73s0-.73-.07-1.15l-.06-1c0-.47,0-1-.08-1.49s-.07-1.21-.1-1.76l-.12-1.92c0-.42,0-.67,0-.81l3.44-1.53Z"/><path class="d" d="M106,63.75c0-1.6-.09-3.21-.13-4.82s-.07-3.32-.07-4.92v0l0,0a.64.64,0,0,0-.29-.07h0a2.14,2.14,0,0,0-.36,0H105a1.16,1.16,0,0,0-.41.13.4.4,0,0,0-.22.37c0,.43.07,1,.13,1.63s.13,1.34.2,2,.12,1.39.16,2a11,11,0,0,1,0,1.4,4.18,4.18,0,0,0-1-.08,2.82,2.82,0,0,0-1,.18,3.11,3.11,0,0,0-1.38,1.08,5.22,5.22,0,0,0-.82,1.78,12.61,12.61,0,0,0-.39,2.2,20,20,0,0,0-.07,2.32c0,.76.06,1.48.11,2.15v0l0,0c.11.16.2.31.28.44a2.09,2.09,0,0,0,.26.36,1,1,0,0,0,.35.23,1.13,1.13,0,0,0,.54.07,2.14,2.14,0,0,0,1.27-.43,4.5,4.5,0,0,0,1-1,9.66,9.66,0,0,0,.72-1.19l.3-.64.14,4.71v0a.46.46,0,0,0,.22.27.51.51,0,0,0,.29.08h0c.36,0,.43-.22.45-.35s0-.34,0-.49c0-1.52-.07-3.11-.13-4.73ZM102.07,71a1.4,1.4,0,0,1-.56-.91,6,6,0,0,1-.15-1.65,10.78,10.78,0,0,1,.26-2,9.64,9.64,0,0,1,.6-1.88,4.77,4.77,0,0,1,.9-1.39,1.43,1.43,0,0,1,1-.49h0c.09,0,.22,0,.32.28a2.81,2.81,0,0,1,.18.77,8.64,8.64,0,0,1,0,.88c0,.3,0,.52,0,.66a6,6,0,0,1-.08.77c-.06.34-.14.73-.24,1.15s-.24.86-.4,1.31a6.92,6.92,0,0,1-.54,1.23,3.54,3.54,0,0,1-.68.89A1.1,1.1,0,0,1,102.07,71ZM105,54Z"/><path class="d" d="M116.56,66.55a1.38,1.38,0,0,0-.47-.07h0c-.16,0-.33.12-.52.37s-.38.51-.6.84-.45.68-.73,1.09a9,9,0,0,1-.9,1.06,5.69,5.69,0,0,1-1.07.83,2.34,2.34,0,0,1-1.18.34h0a1,1,0,0,1-1.1-.86,3.5,3.5,0,0,1-.06-.87c0-.29,0-.58,0-.86v-.29c0-.12,0-.25,0-.42a2.94,2.94,0,0,1,.08-.49,2.42,2.42,0,0,1,.13-.43,4.69,4.69,0,0,1,.56-.36l1-.58c.37-.22.79-.46,1.22-.73s.82-.52,1.15-.76a5.61,5.61,0,0,0,.81-.69c.08-.09.32-.35.21-.57a1.64,1.64,0,0,0-.28-.88,2.76,2.76,0,0,0-.64-.68l-.19-.1-.11,0a3.07,3.07,0,0,0-.31-.17l-.09,0a.33.33,0,0,0-.13-.07,2.26,2.26,0,0,0-.79-.16h-.07a2.71,2.71,0,0,0-1.45.35,3,3,0,0,0-1,.9,6.21,6.21,0,0,0-.68,1.22c-.18.44-.37.89-.54,1.34a10.08,10.08,0,0,1-.55,1.24,3.16,3.16,0,0,1-.73.94l-.2.19a.38.38,0,0,0-.09.28.47.47,0,0,0,.23.42A.94.94,0,0,0,108,68H108a1.12,1.12,0,0,0,.45,0l.15,0c0,.4,0,.83,0,1.29a5.31,5.31,0,0,0,.23,1.46,2.52,2.52,0,0,0,.71,1.15,2,2,0,0,0,1.4.45h.11a2.65,2.65,0,0,0,1.12-.3,6.83,6.83,0,0,0,1.24-.75,11.87,11.87,0,0,0,1.25-1A12.79,12.79,0,0,0,115.81,69a8.66,8.66,0,0,0,.77-1.11,2,2,0,0,0,.29-.94A.41.41,0,0,0,116.56,66.55Zm-6.22-1.48a2.41,2.41,0,0,1,.18-.67,5.17,5.17,0,0,1,.53-1,4,4,0,0,1,.69-.81,1.07,1.07,0,0,1,.65-.32l.32,0a1.66,1.66,0,0,1,.38.11,1.15,1.15,0,0,1,.31.18.31.31,0,0,1,.12.23,1,1,0,0,1-.39.67,7.23,7.23,0,0,1-1,.74l-.43.25-.29.15-.41.19A2.66,2.66,0,0,1,110.34,65.07Z"/><path class="d" d="M125.16,61.24h0a5.31,5.31,0,0,0-.68-.05,3.92,3.92,0,0,0-1.67.25,3,3,0,0,0-1.46,1.34,6.33,6.33,0,0,0-.67,2.39,20.55,20.55,0,0,0-.1,2.46q-.09-.45-.18-1c-.07-.42-.14-.88-.21-1.36L120,63.91c-.07-.44-.12-.83-.17-1.19a8.39,8.39,0,0,0-.14-.87.43.43,0,0,0-.3-.29,1.16,1.16,0,0,0-.33,0h0a.85.85,0,0,0-.4.1.37.37,0,0,0-.2.38v.18L120,71.52l0,0a.9.9,0,0,0,.38.34,1.1,1.1,0,0,0,.47.1H121a.84.84,0,0,0,.45-.12.46.46,0,0,0,.2-.38,23.69,23.69,0,0,0,.22-2.84c0-.89.07-1.75.13-2.54a9.24,9.24,0,0,1,.38-2,2.2,2.2,0,0,1,1-1.25,1,1,0,0,1,.53-.18l.84-.09a3.82,3.82,0,0,0,.79-.14c.34-.1.41-.3.41-.46a.75.75,0,0,0-.21-.58A.69.69,0,0,0,125.16,61.24Z"/><path class="d" d="M155,60.72a5.62,5.62,0,0,0-.7,0,4,4,0,0,0-1.68.25,2.92,2.92,0,0,0-1.45,1.33,6.38,6.38,0,0,0-.68,2.4,21.27,21.27,0,0,0-.09,2.36c-.06-.28-.11-.57-.16-.89s-.14-.88-.21-1.36-.13-.94-.2-1.38-.11-.82-.16-1.18-.09-.64-.14-.87a.41.41,0,0,0-.31-.29,1.09,1.09,0,0,0-.32,0h-.07a.88.88,0,0,0-.4.1.4.4,0,0,0-.2.38v.18L149.88,71v0a1,1,0,0,0,.39.34,1.24,1.24,0,0,0,.47.1h.08a.8.8,0,0,0,.45-.13.42.42,0,0,0,.21-.38,25.58,25.58,0,0,0,.22-2.84c0-.89.06-1.74.13-2.53a9.47,9.47,0,0,1,.38-2,2.17,2.17,0,0,1,1-1.24,1,1,0,0,1,.53-.18l.83-.09a3.82,3.82,0,0,0,.79-.14c.35-.1.42-.3.42-.46a.83.83,0,0,0-.21-.58A.76.76,0,0,0,155,60.72Z"/><path class="d" d="M163,66.2c-.1-.55-.19-1.15-.28-1.83a22.67,22.67,0,0,1-.15-2.27,2.16,2.16,0,0,0-.21-1.83,1.2,1.2,0,0,0-1-.42h0a2.12,2.12,0,0,0-.44,0,1.86,1.86,0,0,0-1.24.57,7.44,7.44,0,0,0-1.14,1.39,15.82,15.82,0,0,0-1,1.84,20.32,20.32,0,0,0-.8,2c-.22.65-.39,1.26-.52,1.8a5.27,5.27,0,0,0-.18,1.3,9,9,0,0,0,.17,1,2.23,2.23,0,0,0,.41.92,1,1,0,0,0,.75.39h.11a1.73,1.73,0,0,0,1.05-.54,8.87,8.87,0,0,0,1.39-1.78,30.93,30.93,0,0,0,1.64-3.09,4,4,0,0,1,.22.78c.08.45.16.93.22,1.43l.18,1.51c0,.49.12.92.19,1.26a.39.39,0,0,0,.13.23.31.31,0,0,0,.23.13h.08c.22,0,.53,0,.59-.26a1.52,1.52,0,0,0,0-.44,20.43,20.43,0,0,0-.16-2.32C163.14,67.34,163.05,66.74,163,66.2Zm-1.9-3.87A4.93,4.93,0,0,1,161,63c0,.22-.1.46-.16.7a4.53,4.53,0,0,1-.27.78c-.12.27-.3.62-.54,1.07s-.47.89-.73,1.36a15.15,15.15,0,0,1-.79,1.31,6.13,6.13,0,0,1-.71.94.57.57,0,0,1-.37.21h0s-.15-.17-.16-.71a9.07,9.07,0,0,1,.36-1.28c.18-.54.4-1.1.64-1.67s.52-1.17.8-1.74a13,13,0,0,1,.85-1.47,3.43,3.43,0,0,1,.77-.87.4.4,0,0,1,.21-.09.23.23,0,0,1,.16.1C161.06,61.87,161.06,62.11,161.06,62.33Z"/><path class="d" d="M178.39,60.2a3.85,3.85,0,0,0-.11-.57,2.92,2.92,0,0,0-.11-.32c-.08-.19-.2-.18-.26-.17h-.1L175,60a9,9,0,0,1,0-.94c0-.41,0-.83,0-1.25s0-.86.07-1.29l0-.36c0-.29,0-.57,0-.83v-.07l-.06,0-.14,0c-.08,0-.13,0-.14,0l-.61-.13h-.1a.44.44,0,0,0-.31,0,.4.4,0,0,0-.13.26l0,5.17-1.93,1.15v.05a1.2,1.2,0,0,0,0,.32,1.89,1.89,0,0,0,.08.4,1.79,1.79,0,0,0,.15.37.33.33,0,0,0,.27.2h.11a1,1,0,0,0,.39,0,1.48,1.48,0,0,0,.35-.15c.11-.06.22-.14.33-.21l.13-.08.65,8.64v0l0,0a1.2,1.2,0,0,0,.74.31H175c.18,0,.41-.13.44-.72,0-.12,0-.42,0-.89s-.06-1-.1-1.64-.07-1.3-.11-2-.07-1.21-.1-1.76L175,62.61c0-.42,0-.67,0-.8l3.45-1.54Z"/><path class="d" d="M147.06,67.63c-1.25,0-2.33,0-3.2,0h-.68l-1.44,0c-.54,0-1,0-1.34,0a4.12,4.12,0,0,1-.71-.1,1,1,0,0,1-.24-.09.08.08,0,0,1,0,0,9.06,9.06,0,0,1,.32-1.23,5.45,5.45,0,0,1,.42-1c.17-.32.37-.66.6-1s.5-.75.86-1.25l1.18-1.76c.44-.66.95-1.48,1.57-2.51l0,0,0-.06a.52.52,0,0,0-.42-.26.71.71,0,0,0-.5.14,4.81,4.81,0,0,0-1.06,1,16.25,16.25,0,0,0-1.2,1.69c-.42.67-.79,1.28-1.13,1.87l-.91,1.56c-.13.23-.23.4-.32.53l-.87-6.7a.71.71,0,0,0-.08-.28l-.15-.27a1.07,1.07,0,0,0-.22-.25.5.5,0,0,0-.3-.11h0a.69.69,0,0,0-.48.2.71.71,0,0,0-.27.46.67.67,0,0,0,0,.19l.09.23a1.86,1.86,0,0,0,.1.25l.05.13s0,.14.05.27a3.15,3.15,0,0,0,.09.42A3.28,3.28,0,0,1,137,60c0,.14,0,.2,0,.23l.27,2.41c.06.59.13,1.22.19,1.88s.13,1.29.2,1.87l.17,1.55c.05.45.08.74.1.88s.05.29.1.55.11.51.17.78.11.53.17.77.11.42.14.52l0,.06h.07l.13,0h.62c.23,0,.22-.36.22-.49a7.24,7.24,0,0,0-.09-1.12,7,7,0,0,0-.22-1l7.17-.13a.67.67,0,0,0,.64-.36,1.39,1.39,0,0,0,.16-.65v-.11Z"/><path class="d" d="M171.45,60.19h-.1a3,3,0,0,0-1,.22c-.35.14-.67.28-.94.41a3.45,3.45,0,0,0-.43.21,2.87,2.87,0,0,1-.39.23,4.49,4.49,0,0,1-.49.22l-.43.14c0-.64.08-1.34.12-2.08s.09-1.61.14-2.31.13-1.35.22-1.92a3.05,3.05,0,0,1,.35-1.13.22.22,0,0,1,.13-.1.37.37,0,0,1,.19.12,5.53,5.53,0,0,1,.83,1.53l0,0s.09.06.11.05h.17a.44.44,0,0,0,.42-.31,1.35,1.35,0,0,0,.09-.47,2.77,2.77,0,0,0-.15-.85,3.42,3.42,0,0,0-.4-.84,2.6,2.6,0,0,0-.63-.65,1.4,1.4,0,0,0-.82-.26h0a.91.91,0,0,0-.36,0H168a.9.9,0,0,0-.78.45,4.65,4.65,0,0,0-.61,1.56,16.5,16.5,0,0,0-.31,2.22c-.06.81-.09,1.62-.1,2.38s0,1.47,0,2.06,0,1,.07,1.19a1.19,1.19,0,0,1-.33.27l-.53.36a3.75,3.75,0,0,0-.46.39.63.63,0,0,0-.22.46c0,.26.12.37.22.41a.79.79,0,0,0,.38.09h.13a.7.7,0,0,0,.32-.1l.34-.18.33-.17h0v.86c0,.31,0,.73.06,1.24s.09,1.17.15,1.93.14,1.71.24,2.81a.87.87,0,0,0,.21.52.59.59,0,0,0,.41.13h.13a.53.53,0,0,0,.46-.22,1.06,1.06,0,0,0,.17-.47,4.38,4.38,0,0,0,0-.52c0-.17,0-.3,0-.38a6.94,6.94,0,0,0,0-1.29c0-.42-.1-.89-.17-1.42s-.15-1.11-.23-1.77-.15-1.37-.21-2.25a3.76,3.76,0,0,1,.59-.18l.82-.18a8.38,8.38,0,0,0,.87-.21,2.41,2.41,0,0,0,.79-.38,2.11,2.11,0,0,0,.57-.68,2.25,2.25,0,0,0,.21-1v-.1Z"/><path class="d" d="M194.84,62.19c0-1.59-.09-3.2-.13-4.81s-.06-3.32-.07-4.92v-.05l0,0a.64.64,0,0,0-.3-.08h-.11a3,3,0,0,0-.42,0,1.1,1.1,0,0,0-.41.13.4.4,0,0,0-.22.37c0,.43.06,1,.13,1.63s.13,1.34.2,2,.12,1.39.16,2a10.88,10.88,0,0,1,0,1.39,3.7,3.7,0,0,0-.91-.07,2.88,2.88,0,0,0-2.39,1.26,5.22,5.22,0,0,0-.82,1.78,12.61,12.61,0,0,0-.39,2.2,20,20,0,0,0-.07,2.32c0,.76.06,1.48.11,2.15v0l0,0,.28.44a2.09,2.09,0,0,0,.26.36.93.93,0,0,0,.35.23,1.17,1.17,0,0,0,.46.07h.16a2.14,2.14,0,0,0,1.27-.43,4.29,4.29,0,0,0,1-1,9.66,9.66,0,0,0,.72-1.19l.23-.48.13,4.55v0a.46.46,0,0,0,.22.27.6.6,0,0,0,.28.08h.07s0,0,.05,0c.36,0,.44-.22.45-.35a4.18,4.18,0,0,0,0-.49c0-1.51-.06-3.06-.12-4.74S194.89,63.79,194.84,62.19Zm-1.51-.76a2.81,2.81,0,0,1,.18.77,6.42,6.42,0,0,1,0,.88c0,.3,0,.52,0,.66a6.22,6.22,0,0,1-.08.77c-.06.34-.14.73-.24,1.15s-.24.86-.4,1.31a6.92,6.92,0,0,1-.54,1.23,3.54,3.54,0,0,1-.68.89,1.1,1.1,0,0,1-.65.33,1.44,1.44,0,0,1-.55-.9,6,6,0,0,1-.15-1.65,11.74,11.74,0,0,1,.26-2,10.12,10.12,0,0,1,.61-1.88,4.62,4.62,0,0,1,.89-1.39,1.44,1.44,0,0,1,1-.48C193.1,61.16,193.23,61.19,193.33,61.43Z"/><path class="d" d="M205.45,65a1.64,1.64,0,0,0-.48-.07h-.12c-.15,0-.32.12-.51.37s-.38.51-.6.84-.46.7-.73,1.09a9,9,0,0,1-.9,1.06,6,6,0,0,1-1.07.83,2.49,2.49,0,0,1-1.14.34,1.1,1.1,0,0,1-.77-.23,1.22,1.22,0,0,1-.32-.63,4.15,4.15,0,0,1-.06-.87c0-.29,0-.58,0-.86,0-.07,0-.16,0-.29a3.44,3.44,0,0,1,0-.42,4.17,4.17,0,0,1,.08-.49,2.06,2.06,0,0,1,.14-.44,6.48,6.48,0,0,1,.55-.35l1-.59,1.22-.72c.45-.28.83-.52,1.15-.76a5.61,5.61,0,0,0,.81-.69c.08-.09.32-.35.21-.57a1.69,1.69,0,0,0-.27-.88,2.81,2.81,0,0,0-.65-.68,3.47,3.47,0,0,0-.83-.44,2.42,2.42,0,0,0-.78-.15h-.18a2.73,2.73,0,0,0-1.43.35,3,3,0,0,0-1,.9,6.21,6.21,0,0,0-.68,1.22c-.18.44-.37.89-.54,1.34a10.08,10.08,0,0,1-.55,1.24,3.16,3.16,0,0,1-.73.94l-.2.19a.38.38,0,0,0-.09.28.47.47,0,0,0,.23.42.94.94,0,0,0,.44.13h.13a1.65,1.65,0,0,0,.45,0h.07c0,.39,0,.81.05,1.27a5.37,5.37,0,0,0,.23,1.46,2.52,2.52,0,0,0,.71,1.15,2,2,0,0,0,1.4.45H200a2.76,2.76,0,0,0,1.12-.3,7.25,7.25,0,0,0,1.25-.75,11.67,11.67,0,0,0,1.24-1,10.6,10.6,0,0,0,1.09-1.16,6.78,6.78,0,0,0,.77-1.11,1.83,1.83,0,0,0,.29-.93A.39.39,0,0,0,205.45,65Zm-6.22-1.5a2.28,2.28,0,0,1,.19-.65,4.82,4.82,0,0,1,.52-1,4.31,4.31,0,0,1,.69-.81,1.12,1.12,0,0,1,.62-.32l.27,0a1.82,1.82,0,0,1,.38.11,1.15,1.15,0,0,1,.31.18.31.31,0,0,1,.12.23,1,1,0,0,1-.39.67,7.23,7.23,0,0,1-1,.74,8.13,8.13,0,0,1-1.13.59A2.69,2.69,0,0,1,199.23,63.5Z"/><path class="d" d="M214.28,65.4a2.78,2.78,0,0,0-.37-.51,1.57,1.57,0,0,0-.49-.33,1.13,1.13,0,0,0-.48-.12h-.14a3.25,3.25,0,0,0-.89.15,6.77,6.77,0,0,0-.82.3,6.9,6.9,0,0,1-.8.29,2.48,2.48,0,0,1-.76.13h-.31a.78.78,0,0,1-.31-.06.43.43,0,0,1-.2-.15.51.51,0,0,1-.08-.3,3.51,3.51,0,0,1,.25-1.26,5.62,5.62,0,0,1,.73-1.34,4,4,0,0,1,1-1,1.58,1.58,0,0,1,.78-.24,1.47,1.47,0,0,1,.29.05l.08,0,.14.08a.58.58,0,0,0,.19.1l.14,0,.06,0h.06a.94.94,0,0,0,.88-.91c0-.4-.19-.52-.35-.56a3.13,3.13,0,0,0-.58,0h-.2a4.57,4.57,0,0,0-1.83.42,5.45,5.45,0,0,0-1.56,1.06,5,5,0,0,0-1.09,1.54,4.12,4.12,0,0,0-.41,1.88,3,3,0,0,0,.38,1.56,1.38,1.38,0,0,0,1.27.59h.17a1.86,1.86,0,0,0,.83-.12l.76-.32a7.11,7.11,0,0,1,.89-.3,2.22,2.22,0,0,1,.49-.07,5.09,5.09,0,0,1,.58,0c.5.08.49.26.48.32a1.44,1.44,0,0,1-.4.76,8.7,8.7,0,0,1-1,1c-.41.34-.82.67-1.21,1s-.73.54-1,.72a2.45,2.45,0,0,1-.41.24l0,.1H209a2.14,2.14,0,0,0,.08.58c.07.2.25.3.56.3h.14s0,0,0,0a2,2,0,0,0,.91-.28A6.61,6.61,0,0,0,211.8,70a14,14,0,0,0,1.09-1,8.92,8.92,0,0,0,.93-1.1,5,5,0,0,0,.58-1,1.09,1.09,0,0,0,.06-.82A1.65,1.65,0,0,0,214.28,65.4Z"/><path class="d" d="M242,54.41a.57.57,0,0,0-.38-.16l-.06,0-.09,0a.47.47,0,0,0-.33.14.61.61,0,0,0-.18.31l-2.57,11.39a13,13,0,0,1-.83-1.62c-.3-.71-.58-1.46-.83-2.21s-.46-1.42-.68-2.14-.39-1.29-.57-1.8a6.35,6.35,0,0,0-.53-1.19c-.17-.27-.36-.38-.57-.34a.33.33,0,0,0-.22,0,.78.78,0,0,0-.57.19.9.9,0,0,0-.23.43,3.86,3.86,0,0,0-.09.51,5.17,5.17,0,0,1-.07.55l-.51,1.75-.63,2.13-.66,2.22c-.24.75-.44,1.4-.63,2s-.36,1.09-.5,1.49c0,.09-.06.17-.08.25-.53-1.54-1-2.88-1.36-4s-.75-2.26-1-3.1l-.24-.72q-.25-.77-.42-1.29c-.16-.48-.3-.88-.42-1.19a4.46,4.46,0,0,0-.29-.63,1.22,1.22,0,0,0-.31-.33l0,0-.05,0,0,0h0l0,0-.05,0a1.31,1.31,0,0,0-.29.22l-.31.28a3.58,3.58,0,0,0-.27.29,1,1,0,0,0-.18.26l0,0,0,0a10.53,10.53,0,0,1,1,1.86,18.7,18.7,0,0,1,.74,2.15c.21.74.41,1.5.6,2.27s.38,1.48.58,2.19a16.94,16.94,0,0,0,.65,1.94,6.77,6.77,0,0,0,.81,1.49h0a.27.27,0,0,0,.12.18.82.82,0,0,0,.39.14H230a1.41,1.41,0,0,0,.4,0A1.26,1.26,0,0,0,231,70a2.48,2.48,0,0,0,.51-.85,5.43,5.43,0,0,0,.34-1.45l2.3-8.11c.49,1.46,1,2.83,1.54,4.08a36.32,36.32,0,0,0,2.11,4.18,2.31,2.31,0,0,0,.47.79.49.49,0,0,0,.47.16h0a.38.38,0,0,0,.15,0,.64.64,0,0,0,.36-.35,2.78,2.78,0,0,0,.23-.6,4.49,4.49,0,0,0,.15-.71,3,3,0,0,0,.05-.61L242.38,55v0l0,0A1.49,1.49,0,0,0,242,54.41Z"/><path class="d" d="M246,63.89,246,61c0-1,0-1.82,0-2.62a.51.51,0,0,0-.24-.49,1.06,1.06,0,0,0-.47-.09h-.18l-.22,0c-.17,0-.22,0-.23,0l-.05,0V58a23.43,23.43,0,0,0-.14,2.72c0,1,0,2,.08,3l.12,2.26,0,.7c.06,1,.09,1.93.1,2.78a.56.56,0,0,0,.18.55.79.79,0,0,0,.45.12h.16a.72.72,0,0,0,.44-.14.59.59,0,0,0,.16-.55c0-.79-.07-1.66-.08-2.58S246,64.87,246,63.89Z"/><path class="d" d="M257.12,67.27c0-.63,0-1.36-.06-2.15h0c0-.84-.09-1.69-.17-2.53a15.5,15.5,0,0,0-.41-2.44,6.55,6.55,0,0,0-.76-1.9,1.79,1.79,0,0,0-1.27-.92h-.18a4.2,4.2,0,0,0-2.06,1.27,6.22,6.22,0,0,0-1.08,1.94,16.53,16.53,0,0,0-.59,2.4c-.1.56-.22,1.15-.39,1.79-.12-1-.23-1.9-.32-2.65-.13-1-.23-1.72-.32-2.31s-.16-1-.23-1.33a2.56,2.56,0,0,0-.19-.62c-.06-.11-.13-.22-.23-.22h-.32a.56.56,0,0,0-.62.61c.17,2,.33,3.89.48,5.73s.31,3.67.5,5.51v0a.49.49,0,0,0,.39.28h.29a1,1,0,0,0,.33-.06,1.15,1.15,0,0,0,.43-.21.78.78,0,0,0,.29-.32v0c0-.28.08-.67.18-1.21s.2-1.1.34-1.76.31-1.33.5-2,.38-1.31.61-2a15.88,15.88,0,0,1,.7-1.71,3.74,3.74,0,0,1,.76-1.1,1,1,0,0,1,.5-.27h.1c.25.06.51.32.79.78,0,.15,0,.45.07.89,0,.29.05.6.07.95l.05.67c.05.62.1,1.28.16,2l0,.39c.05.55.09,1.08.14,1.58s.09,1.16.13,1.62,0,.77,0,.91v0l0,0a.59.59,0,0,0,.33.25.24.24,0,0,0,.12,0h0a.71.71,0,0,0,.35,0A.85.85,0,0,0,257,69a.83.83,0,0,0,.2-.32v0C257.15,68.35,257.13,67.89,257.12,67.27Z"/><path class="d" d="M264.38,61c-.05-1.6-.09-3.2-.13-4.81s-.07-3.31-.07-4.92v-.06l0,0a.64.64,0,0,0-.3-.07.48.48,0,0,0-.12,0h-.05a2,2,0,0,0-.42,0,1.1,1.1,0,0,0-.41.13.4.4,0,0,0-.22.37c0,.42.06,1,.13,1.62s.13,1.34.2,2.05.12,1.38.16,2a12.94,12.94,0,0,1,0,1.38,3.81,3.81,0,0,0-.87,0,2.82,2.82,0,0,0-1.05.18,3.12,3.12,0,0,0-1.39,1.08,5.62,5.62,0,0,0-.82,1.78,13.63,13.63,0,0,0-.38,2.2,19.87,19.87,0,0,0-.07,2.31c0,.77,0,1.49.11,2.16v.05a4.46,4.46,0,0,1,.28.43,1.54,1.54,0,0,0,.27.37,1,1,0,0,0,.34.23,1.26,1.26,0,0,0,.47.07s.09,0,.09,0h.13a2.21,2.21,0,0,0,1.27-.43,4.55,4.55,0,0,0,1-1,8.36,8.36,0,0,0,.72-1.19l.17-.35.13,4.42v0a.48.48,0,0,0,.21.27.67.67,0,0,0,.3.08l.09,0h.08a.39.39,0,0,0,.45-.35,4.1,4.1,0,0,0,0-.49c0-1.53-.07-3.12-.12-4.73S264.43,62.58,264.38,61Zm-1.57-.76A3.14,3.14,0,0,1,263,61a6.68,6.68,0,0,1,0,.89c0,.3,0,.52,0,.66a4.2,4.2,0,0,1-.07.76c-.06.35-.14.74-.25,1.15s-.24.87-.39,1.32a6.81,6.81,0,0,1-.54,1.22,3.92,3.92,0,0,1-.68.9,1.15,1.15,0,0,1-.61.31,1.49,1.49,0,0,1-.53-.88,6,6,0,0,1-.15-1.65,11.72,11.72,0,0,1,.26-2,9.64,9.64,0,0,1,.61-1.88,4.57,4.57,0,0,1,.89-1.38,1.43,1.43,0,0,1,.94-.48C262.58,60,262.71,60,262.81,60.22Z"/><path class="d" d="M275,63.78a1.9,1.9,0,0,0-.45-.07l-.08,0h-.13c-.15,0-.32.12-.52.37s-.38.51-.59.84-.45.68-.73,1.08a8.36,8.36,0,0,1-.9,1.07,6,6,0,0,1-1.07.83,2.36,2.36,0,0,1-1.11.33,1.09,1.09,0,0,1-.74-.22,1.18,1.18,0,0,1-.32-.64,4,4,0,0,1-.06-.86c0-.29,0-.59,0-.87,0-.06,0-.16,0-.29a3.73,3.73,0,0,1,0-.42c0-.15,0-.32.08-.49a1.81,1.81,0,0,1,.14-.43,3.89,3.89,0,0,1,.55-.35l.87-.5.16-.09c.36-.21.77-.45,1.22-.73s.82-.51,1.15-.75a5.52,5.52,0,0,0,.81-.7c.08-.08.32-.34.21-.56a1.69,1.69,0,0,0-.27-.88,2.64,2.64,0,0,0-.65-.68,3.89,3.89,0,0,0-.83-.44,2.46,2.46,0,0,0-.78-.16h-.1s-.05,0-.06,0h-.06a2.91,2.91,0,0,0-1.45.34,3.25,3.25,0,0,0-1,.9,7.2,7.2,0,0,0-.67,1.23c-.19.45-.37.9-.54,1.34s-.35.85-.55,1.24a3,3,0,0,1-.73.93c-.09.09-.16.15-.2.2a.37.37,0,0,0-.09.27.45.45,0,0,0,.23.43,1.07,1.07,0,0,0,.44.13h.19a1.65,1.65,0,0,0,.45,0h0c0,.39,0,.8.05,1.25a5.38,5.38,0,0,0,.23,1.47,2.58,2.58,0,0,0,.71,1.15,2,2,0,0,0,1.4.45h.25a2.84,2.84,0,0,0,1.12-.31,7.86,7.86,0,0,0,1.25-.74,11.67,11.67,0,0,0,1.24-1,10.6,10.6,0,0,0,1.09-1.16,7.23,7.23,0,0,0,.77-1.11,1.86,1.86,0,0,0,.29-.93A.41.41,0,0,0,275,63.78Zm-6.21-1.51a2.52,2.52,0,0,1,.18-.64,5.1,5.1,0,0,1,.52-1,4.6,4.6,0,0,1,.69-.81,1.16,1.16,0,0,1,.6-.31h0a.65.65,0,0,1,.19,0,2,2,0,0,1,.38.11.87.87,0,0,1,.31.18.28.28,0,0,1,.11.23.92.92,0,0,1-.38.66,5.88,5.88,0,0,1-1,.74,7.25,7.25,0,0,1-1.13.6A4.25,4.25,0,0,1,268.78,62.27Z"/><path class="d" d="M284,64.81a1.65,1.65,0,0,0-.18-.62,2.78,2.78,0,0,0-.37-.51,1.6,1.6,0,0,0-.49-.34,1.28,1.28,0,0,0-.48-.11h-.2a3.25,3.25,0,0,0-.89.14c-.27.09-.54.19-.82.31a7.06,7.06,0,0,1-.81.29,2.54,2.54,0,0,1-.73.13h-.27a1.42,1.42,0,0,1-.31-.06.43.43,0,0,1-.2-.15.56.56,0,0,1-.08-.3,3.6,3.6,0,0,1,.25-1.27,5.75,5.75,0,0,1,.73-1.33,3.87,3.87,0,0,1,1.05-1,1.41,1.41,0,0,1,.72-.24,1.25,1.25,0,0,1,.29,0l.08,0a.7.7,0,0,1,.14.08.87.87,0,0,0,.19.1.33.33,0,0,0,.13,0h0l.09,0h0l.08,0a.8.8,0,0,0,.62-.3.82.82,0,0,0,.26-.61c0-.4-.19-.53-.35-.56a2.51,2.51,0,0,0-.58,0h-.26a4.53,4.53,0,0,0-1.83.42,5.29,5.29,0,0,0-1.56,1,5.38,5.38,0,0,0-1.1,1.55,4.11,4.11,0,0,0-.4,1.88,3,3,0,0,0,.37,1.56,1.4,1.4,0,0,0,1.27.59h.24a1.73,1.73,0,0,0,.83-.13l.76-.32a5.81,5.81,0,0,1,.89-.29,2,2,0,0,1,.47-.07,3.57,3.57,0,0,1,.54,0c.5.08.48.26.48.32a1.47,1.47,0,0,1-.4.76,8.69,8.69,0,0,1-1,1c-.42.36-.83.69-1.22,1s-.72.53-1,.72l-.41.24,0,.09h-.1v0h0a2,2,0,0,0,.09.52c.06.21.25.31.55.31h.11s0,0,0,0h.07s0,0,0,0a2,2,0,0,0,.91-.29,6.78,6.78,0,0,0,1.09-.74,12.24,12.24,0,0,0,1.09-1,9.89,9.89,0,0,0,.93-1.1,5.24,5.24,0,0,0,.58-1A1.09,1.09,0,0,0,284,64.81Zm-5.38.67Z"/><path class="d" d="M244.74,55.73h.11a.55.55,0,0,0,.34-.07.87.87,0,0,0,.35-.36v0a2.15,2.15,0,0,0-.12-.65.57.57,0,0,0-.59-.31h-.17a.8.8,0,0,0-.41.1.42.42,0,0,0-.21.42,1.2,1.2,0,0,0,.16.62.68.68,0,0,0,.39.29Z"/><path class="d" d="M74.93,47.15a25.12,25.12,0,0,1-8-1.42l-.18-.06,1.16-4.41.19.06a25.62,25.62,0,0,0,6.65,1.2c2.47,0,8.21-.73,8.21-7.46V23.78c0-5.62-3.75-8.57-7.45-8.57-5.66,0-7.66,4.7-7.66,8.72,0,4.48,3.25,7.6,7.91,7.6a11.27,11.27,0,0,0,5.54-1.93l.3-.18v5.06l-.1.05a13.58,13.58,0,0,1-5.79,1.64A12.32,12.32,0,0,1,63,23.68c0-7.59,5.34-13.1,12.7-13.1A12,12,0,0,1,87.78,22.77V33.55c0,8.39-4.92,13.6-12.85,13.6"/><path class="d" d="M96.44,35.66H91.61V11.08h4.63v2.47c1.47-2.05,3.48-3,6.45-3h1.21v4.63H103c-4.44,0-6.6,2.94-6.6,9Z"/><path class="d" d="M117.29,36.22a13.54,13.54,0,0,1-6.72-1.87,12.59,12.59,0,0,1-4.65-17.44,12.59,12.59,0,0,1,11-6.47,13,13,0,0,1,6.47,1.74c4.66,2.68,6.82,6.94,6.4,12.66V25l-19.07-.29.21-4.36h.2l13.39.18A6.44,6.44,0,0,0,121,16.19a7.74,7.74,0,0,0-3.9-1.08,7.92,7.92,0,0,0-6.85,4.31,8.41,8.41,0,0,0-1,6.2,7.56,7.56,0,0,0,3.66,4.72A8.08,8.08,0,0,0,117,31.58c2.18,0,4.23-1.17,6.46-3.7l.13-.14,3.91,2.94-.11.16a12.07,12.07,0,0,1-10.07,5.38"/><path class="d" d="M145.23,36.22a13.47,13.47,0,0,1-6.71-1.87,12.58,12.58,0,0,1-4.66-17.44,12.59,12.59,0,0,1,11-6.47,13,13,0,0,1,6.47,1.74c4.66,2.68,6.82,6.94,6.41,12.66l0,.18-19.06-.29.2-4.36h.2l13.39.18A6.45,6.45,0,0,0,149,16.19a7.79,7.79,0,0,0-3.9-1.08,7.94,7.94,0,0,0-6.86,4.31,8.46,8.46,0,0,0-1.05,6.2,7.56,7.56,0,0,0,3.66,4.72,8.08,8.08,0,0,0,4.08,1.24c2.18,0,4.24-1.17,6.47-3.7l.12-.14,3.92,2.94-.11.16a12.09,12.09,0,0,1-10.08,5.38"/><path class="d" d="M181.85,35.66H177V21.36a5.71,5.71,0,1,0-11.38,0v14.3H160.8V21.36c0-6.35,4.32-10.78,10.52-10.78S181.85,15,181.85,21.36Z"/><path class="d" d="M210.07,36.17A8.74,8.74,0,0,1,203,32.88a8.72,8.72,0,0,1-7,3.29,8.58,8.58,0,0,1-8.87-8.46V11.08h4.84V26.7c0,2.94,1.62,4.83,4.13,4.83,3,0,4.54-1.86,4.54-5.54V11.08h4.83V26c0,3.73,1.49,5.54,4.54,5.54,2.51,0,4.13-1.89,4.13-4.83V11.08h4.83V27.71a8.58,8.58,0,0,1-8.86,8.46"/><path class="d" d="M229,35.66h-4.84V11.08H229ZM226.6,8.77a2.78,2.78,0,0,1-2.87-2.88,2.87,2.87,0,0,1,5.74,0,2.78,2.78,0,0,1-2.87,2.88"/><path class="d" d="M255.32,35.66h-4.83V21.36a5.71,5.71,0,1,0-11.39,0v14.3h-4.83V21.36c0-6.35,4.32-10.78,10.52-10.78S255.32,15,255.32,21.36Z"/><path class="d" d="M271.2,36.17c-7.48,0-12.7-5.51-12.7-13.4a12,12,0,0,1,11.84-12.19,13.87,13.87,0,0,1,7,1.74l.1.06v5.13l-.32-.22a11.86,11.86,0,0,0-6-2.08c-4.64,0-7.76,3.26-7.76,8.11s3.24,8.21,7.87,8.21,7.55-3.79,7.55-9.67V0h4.84V22.67c0,8-5.1,13.5-12.39,13.5"/><path class="e" d="M41.1,43.21h0Z"/><path class="f" d="M41.12,43.2l.05-.06-.06.06Z"/><polygon class="g" points="44.1 32.86 44.11 32.86 44.11 32.86 44.1 32.86 44.1 32.86"/><polygon class="h" points="41.09 43.2 41.1 43.21 41.11 43.2 41.09 43.2"/><polygon class="i" points="30.9 24.57 30.9 24.57 30.9 24.57 30.9 24.57"/><polygon class="j" points="30.9 24.57 30.9 24.57 30.9 24.57 30.9 24.57"/><polygon class="k" points="30.9 24.57 30.9 24.57 30.9 24.57 30.9 24.57"/><polygon class="l" points="30.9 24.57 30.9 24.57 30.9 24.57 30.9 24.57"/><path class="m" d="M16.42,8.65,12.75,4.57h0l-.91-1L10.22,1.77H9.66a9.62,9.62,0,0,0-5.74,1.9A11,11,0,0,1,6,8a11.43,11.43,0,0,1,.18,4.32h0a9.84,9.84,0,0,1-1.09,3.21L0,24.81v9.62a5.77,5.77,0,0,0,5.48-.15l15.67-8.5,7.2-3.91Z"/><path class="n" d="M6,8A11,11,0,0,0,3.92,3.67h0l-.16.14c-.18.14-.34.28-.5.42A3.45,3.45,0,0,0,3,4.48,6.38,6.38,0,0,0,2.46,5l-.2.21a9.94,9.94,0,0,0-.62.83l0,.08q-.26.39-.48.81C1.06,7,1,7.14,1,7.23s-.2.44-.29.66-.09.24-.13.36-.14.43-.2.65-.07.25-.1.38-.1.48-.13.72,0,.23,0,.34A9.81,9.81,0,0,0,0,11.43v8.29H0v5.09l5.13-9.26a9.84,9.84,0,0,0,1.09-3.21h0A11.43,11.43,0,0,0,6,8Z"/><path class="o" d="M28.35,21.87l-7.2,3.91L5.48,34.28A5.77,5.77,0,0,1,0,34.43v1.35a5.69,5.69,0,0,0,6.38.43l16.48-8.93,7-3.77Z"/><path class="p" d="M44.11,36,33.43,26.76a7.14,7.14,0,0,1-1.06-.62,6.42,6.42,0,0,1-.95-.86l-1.6-1.77-7,3.77h0L6.38,36.21A5.69,5.69,0,0,1,0,35.78v.43a9.66,9.66,0,0,0,9.66,9.66H34.45a9.64,9.64,0,0,0,6.65-2.66h0l.05-.06a10.17,10.17,0,0,0,.83-.91c.06-.07.11-.15.16-.22.22-.3.43-.6.62-.92l.11-.19a9,9,0,0,0,.53-1.13c0-.1.07-.2.11-.29a10.33,10.33,0,0,0,.33-1.12l0-.12s.15-.88.16-1a8.43,8.43,0,0,0,.06-1Z"/><path class="q" d="M44.1,32.86,37.44,27h0a5.93,5.93,0,0,1-2.44.17,6.18,6.18,0,0,1-1.56-.45l1.3,1.12L44.11,36Z"/><path class="r" d="M44.1,30v2.83L37.44,27A6.1,6.1,0,0,0,39.5,26Z"/><path class="s" d="M44.1,30l-4.6-4a7.44,7.44,0,0,0,.92-.86l3.68-4.2Z"/><path class="t" d="M32.57,8.5a11.23,11.23,0,0,0-.85-1.91,10.8,10.8,0,0,0-5.34-4.82H10.22l1.62,1.79.91,1h0l3.67,4.08L28.35,21.87l3.07,3.41,0-.23.05-.41.33-2.52.29-2.29.91-7A10,10,0,0,0,32.57,8.5Z"/><path class="u" d="M42.24,5.77A2.69,2.69,0,0,0,42,5.5c-.1-.13-.2-.26-.31-.38l-.36-.4-.27-.27a8.29,8.29,0,0,0-.71-.62,9.57,9.57,0,0,0-5.94-2.06H26.38a10.8,10.8,0,0,1,5.34,4.82,11.23,11.23,0,0,1,.85,1.91A10,10,0,0,1,33,12.84l-.91,7-.29,2.29,0,.32-.29,2.2-.05.41,0,.23a6.42,6.42,0,0,0,.95.86,7.14,7.14,0,0,0,1.06.62,6.18,6.18,0,0,0,1.56.45A5.93,5.93,0,0,0,37.43,27h0A6.1,6.1,0,0,0,39.5,26a7.44,7.44,0,0,0,.92-.86l3.67-4.19h0v-9.5A9.57,9.57,0,0,0,42.24,5.77Z"/></svg>