<svg xmlns="http://www.w3.org/2000/svg" xmlns:xlink="http://www.w3.org/1999/xlink" viewBox="0 0 283.59 79.11"><defs><style>.a{fill:url(#a);}.b{fill:url(#b);}.c{fill:url(#c);}.d{fill:#575756;}.e{fill:none;}.f{fill:url(#d);}.g{fill:url(#e);}.h{fill:url(#f);}.i{fill:url(#g);}.j{fill:url(#h);}.k{fill:url(#i);}.l{fill:url(#j);}.m{fill:url(#k);}.n{fill:url(#l);}.o{fill:url(#m);}.p{fill:url(#n);}.q{fill:url(#o);}.r{fill:url(#p);}.s{fill:url(#q);}.t{fill:url(#r);}.u{fill:url(#s);}</style><linearGradient id="a" x1="-301.03" y1="33.4" x2="523.44" y2="33.4" gradientUnits="userSpaceOnUse"><stop offset="0" stop-color="#94b654"/><stop offset="1" stop-color="#83a14b"/></linearGradient><linearGradient id="b" x1="-34.16" y1="18.41" x2="94.53" y2="18.41" gradientUnits="userSpaceOnUse"><stop offset="0" stop-color="#165892"/><stop offset="1" stop-color="#0067a1"/></linearGradient><linearGradient id="c" x1="-11.98" y1="-3.1" x2="44.04" y2="17.7" gradientUnits="userSpaceOnUse"><stop offset="0" stop-color="#a8a8a7"/><stop offset="1" stop-color="#f2f2f2"/></linearGradient><linearGradient id="d" x1="-196.68" y1="325.76" x2="-194.74" y2="325.76" gradientTransform="matrix(44.3, 0, 0, -44.3, 8720.74, 14474.02)" xlink:href="#a"/><linearGradient id="e" x1="-213.39" y1="333.15" x2="-212.46" y2="333.15" gradientTransform="matrix(-30.89, 5.73, -11.36, -15.6, -2741.38, 6448.36)" gradientUnits="userSpaceOnUse"><stop offset="0" stop-color="#94b654"/><stop offset="1" stop-color="#799545"/></linearGradient><linearGradient id="f" x1="-213.39" y1="332.6" x2="-211.45" y2="332.6" xlink:href="#e"/><linearGradient id="g" x1="-196.17" y1="326.18" x2="-196.16" y2="326.18" gradientTransform="matrix(44.3, 0, 0, -44.3, 8720.74, 14474.02)" xlink:href="#a"/><linearGradient id="h" x1="-212.45" y1="333.75" x2="-212.44" y2="333.75" xlink:href="#e"/><linearGradient id="i" x1="-210.79" y1="312.01" x2="-210.79" y2="312.01" gradientTransform="matrix(-0.15, 24.29, -24.32, 1.29, 7586.8, 4740.46)" xlink:href="#c"/><linearGradient id="j" x1="-182.52" y1="320.66" x2="-182.51" y2="320.66" gradientTransform="matrix(12.31, -13.97, 18.2, 10.94, -3559.81, -6033.1)" gradientUnits="userSpaceOnUse"><stop offset="0" stop-color="#f2f2f2"/><stop offset="1" stop-color="#b2b2b2"/></linearGradient><linearGradient id="k" x1="61.77" y1="19.21" x2="-5.03" y2="18.24" gradientUnits="userSpaceOnUse"><stop offset="0" stop-color="#11475e"/><stop offset="0.43" stop-color="#1b5c86"/><stop offset="1" stop-color="#2172b7"/></linearGradient><linearGradient id="l" x1="-7.65" y1="14.23" x2="21.16" y2="14.23" xlink:href="#b"/><linearGradient id="m" x1="-90.34" y1="29.43" x2="227.8" y2="29.43" gradientTransform="matrix(1, 0, 0, 1, 0, 0)" xlink:href="#e"/><linearGradient id="n" x1="-1.66" y1="34.69" x2="45.84" y2="34.69" gradientUnits="userSpaceOnUse"><stop offset="0" stop-color="#799545"/><stop offset="0.34" stop-color="#7d9a47"/><stop offset="0.73" stop-color="#88a84d"/><stop offset="1" stop-color="#94b654"/></linearGradient><linearGradient id="o" x1="29.96" y1="39.59" x2="50.65" y2="20.25" gradientUnits="userSpaceOnUse"><stop offset="0" stop-color="#94b654"/><stop offset="0.83" stop-color="#799545"/></linearGradient><linearGradient id="p" x1="50" y1="37.01" x2="37.16" y2="25.22" xlink:href="#a"/><linearGradient id="q" x1="8.11" y1="25.48" x2="94.09" y2="25.48" xlink:href="#a"/><linearGradient id="r" x1="-0.61" y1="19.1" x2="35.92" y2="9.59" gradientTransform="matrix(1, 0, 0, 1, 0, 0)" xlink:href="#j"/><linearGradient id="s" x1="10.54" y1="5.26" x2="44.48" y2="17.86" xlink:href="#c"/></defs><title>Element 1</title><path class="a" d="M44.11,36v-15l-3.68,4.2a7.44,7.44,0,0,1-.92.86A6.1,6.1,0,0,1,37.44,27h0a5.93,5.93,0,0,1-2.44.17,6.18,6.18,0,0,1-1.56-.45,7.14,7.14,0,0,1-1.06-.62,6.42,6.42,0,0,1-.95-.86l-3.07-3.41-7.2,3.91L5.48,34.28A5.77,5.77,0,0,1,0,34.43v1.78a9.66,9.66,0,0,0,9.66,9.66H34.45a9.64,9.64,0,0,0,6.65-2.66h0l.05-.06a10.17,10.17,0,0,0,.83-.91c.06-.07.11-.15.16-.22.22-.3.43-.6.62-.92l.11-.19a9,9,0,0,0,.53-1.13c0-.1.07-.2.11-.29a10.33,10.33,0,0,0,.33-1.12l0-.12s.15-.88.16-1a8.43,8.43,0,0,0,.06-1V36Z"/><path class="b" d="M16.42,8.65,12.75,4.57h0l-.91-1L10.22,1.77H9.66a9.62,9.62,0,0,0-5.74,1.9h0l-.16.14c-.18.14-.34.28-.5.42A3.45,3.45,0,0,0,3,4.48,6.38,6.38,0,0,0,2.46,5l-.2.21a9.94,9.94,0,0,0-.62.83l0,.08q-.26.39-.48.81C1.06,7,1,7.14,1,7.23s-.2.44-.29.66-.09.24-.13.36-.14.43-.2.65-.07.25-.1.38-.1.48-.13.72,0,.23,0,.34A9.81,9.81,0,0,0,0,11.43v8.29H0V34.43a5.77,5.77,0,0,0,5.48-.15l15.67-8.5,7.2-3.91Z"/><path class="c" d="M42.24,5.77A2.69,2.69,0,0,0,42,5.5c-.1-.13-.2-.26-.31-.38l-.36-.4-.27-.27a8.29,8.29,0,0,0-.71-.62,9.57,9.57,0,0,0-5.94-2.06H10.22l1.62,1.79.91,1h0l3.67,4.08L28.35,21.87l3.07,3.41a6.42,6.42,0,0,0,.95.86,7.14,7.14,0,0,0,1.06.62,6.18,6.18,0,0,0,1.56.45A5.93,5.93,0,0,0,37.43,27h0A6.1,6.1,0,0,0,39.5,26a7.44,7.44,0,0,0,.92-.86l3.67-4.19h0v-9.5A9.57,9.57,0,0,0,42.24,5.77Z"/><path class="d" d="M74.93,47.15a25.12,25.12,0,0,1-8-1.42l-.18-.06,1.16-4.41.19.06a25.62,25.62,0,0,0,6.65,1.2c2.47,0,8.21-.73,8.21-7.46V23.78c0-5.62-3.75-8.57-7.45-8.57-5.66,0-7.66,4.7-7.66,8.72,0,4.48,3.25,7.6,7.91,7.6a11.27,11.27,0,0,0,5.54-1.93l.3-.18v5.06l-.1.05a13.58,13.58,0,0,1-5.79,1.64A12.32,12.32,0,0,1,63,23.68c0-7.59,5.34-13.1,12.7-13.1A12,12,0,0,1,87.78,22.77V33.55c0,8.39-4.92,13.6-12.85,13.6"/><path class="d" d="M96.44,35.66H91.61V11.08h4.63v2.47c1.47-2.05,3.48-3,6.45-3h1.21v4.63H103c-4.44,0-6.6,2.94-6.6,9Z"/><path class="d" d="M117.29,36.22a13.54,13.54,0,0,1-6.72-1.87,12.59,12.59,0,0,1-4.65-17.44,12.59,12.59,0,0,1,11-6.47,13,13,0,0,1,6.47,1.74c4.66,2.68,6.82,6.94,6.4,12.66V25l-19.07-.29.21-4.36h.2l13.39.18A6.44,6.44,0,0,0,121,16.19a7.74,7.74,0,0,0-3.9-1.08,7.92,7.92,0,0,0-6.85,4.31,8.41,8.41,0,0,0-1,6.2,7.56,7.56,0,0,0,3.66,4.72A8.08,8.08,0,0,0,117,31.58c2.18,0,4.23-1.17,6.46-3.7l.13-.14,3.91,2.94-.11.16a12.07,12.07,0,0,1-10.07,5.38"/><path class="d" d="M145.23,36.22a13.47,13.47,0,0,1-6.71-1.87,12.58,12.58,0,0,1-4.66-17.44,12.59,12.59,0,0,1,11-6.47,13,13,0,0,1,6.47,1.74c4.66,2.68,6.82,6.94,6.41,12.66l0,.18-19.06-.29.2-4.36h.2l13.39.18A6.45,6.45,0,0,0,149,16.19a7.79,7.79,0,0,0-3.9-1.08,7.94,7.94,0,0,0-6.86,4.31,8.46,8.46,0,0,0-1.05,6.2,7.56,7.56,0,0,0,3.66,4.72,8.08,8.08,0,0,0,4.08,1.24c2.18,0,4.24-1.17,6.47-3.7l.12-.14,3.92,2.94-.11.16a12.09,12.09,0,0,1-10.08,5.38"/><path class="d" d="M181.85,35.66H177V21.36a5.71,5.71,0,1,0-11.38,0v14.3H160.8V21.36c0-6.35,4.32-10.78,10.52-10.78S181.85,15,181.85,21.36Z"/><path class="d" d="M210.07,36.17A8.74,8.74,0,0,1,203,32.88a8.72,8.72,0,0,1-7,3.29,8.58,8.58,0,0,1-8.87-8.46V11.08h4.84V26.7c0,2.94,1.62,4.83,4.13,4.83,3,0,4.54-1.86,4.54-5.54V11.08h4.83V26c0,3.73,1.49,5.54,4.54,5.54,2.51,0,4.13-1.89,4.13-4.83V11.08h4.83V27.71a8.58,8.58,0,0,1-8.86,8.46"/><path class="d" d="M229,35.66h-4.84V11.08H229ZM226.6,8.77a2.78,2.78,0,0,1-2.87-2.88,2.87,2.87,0,0,1,5.74,0,2.78,2.78,0,0,1-2.87,2.88"/><path class="d" d="M255.32,35.66h-4.83V21.36a5.71,5.71,0,1,0-11.39,0v14.3h-4.83V21.36c0-6.35,4.32-10.78,10.52-10.78S255.32,15,255.32,21.36Z"/><path class="d" d="M271.2,36.17c-7.48,0-12.7-5.51-12.7-13.4a12,12,0,0,1,11.84-12.19,13.87,13.87,0,0,1,7,1.74l.1.06v5.13l-.32-.22a11.86,11.86,0,0,0-6-2.08c-4.64,0-7.76,3.26-7.76,8.11s3.24,8.21,7.87,8.21,7.55-3.79,7.55-9.67V0h4.84V22.67c0,8-5.1,13.5-12.39,13.5"/><path class="e" d="M41.1,43.21h0Z"/><path class="f" d="M41.12,43.2l.05-.06-.06.06Z"/><polygon class="g" points="44.1 32.86 44.11 32.86 44.11 32.86 44.1 32.86 44.1 32.86"/><polygon class="h" points="41.09 43.2 41.1 43.21 41.11 43.2 41.09 43.2"/><polygon class="i" points="30.9 24.57 30.9 24.57 30.9 24.57 30.9 24.57"/><polygon class="j" points="30.9 24.57 30.9 24.57 30.9 24.57 30.9 24.57"/><polygon class="k" points="30.9 24.57 30.9 24.57 30.9 24.57 30.9 24.57"/><polygon class="l" points="30.9 24.57 30.9 24.57 30.9 24.57 30.9 24.57"/><path class="m" d="M16.42,8.65,12.75,4.57h0l-.91-1L10.22,1.77H9.66a9.62,9.62,0,0,0-5.74,1.9A11,11,0,0,1,6,8a11.43,11.43,0,0,1,.18,4.32h0a9.84,9.84,0,0,1-1.09,3.21L0,24.81v9.62a5.77,5.77,0,0,0,5.48-.15l15.67-8.5,7.2-3.91Z"/><path class="n" d="M6,8A11,11,0,0,0,3.92,3.67h0l-.16.14c-.18.14-.34.28-.5.42A3.45,3.45,0,0,0,3,4.48,6.38,6.38,0,0,0,2.46,5l-.2.21a9.94,9.94,0,0,0-.62.83l0,.08q-.26.39-.48.81C1.06,7,1,7.14,1,7.23s-.2.44-.29.66-.09.24-.13.36-.14.43-.2.65-.07.25-.1.38-.1.48-.13.72,0,.23,0,.34A9.81,9.81,0,0,0,0,11.43v8.29H0v5.09l5.13-9.26a9.84,9.84,0,0,0,1.09-3.21h0A11.43,11.43,0,0,0,6,8Z"/><path class="o" d="M28.35,21.87l-7.2,3.91L5.48,34.28A5.77,5.77,0,0,1,0,34.43v1.35a5.69,5.69,0,0,0,6.38.43l16.48-8.93,7-3.77Z"/><path class="p" d="M44.11,36,33.43,26.76a7.14,7.14,0,0,1-1.06-.62,6.42,6.42,0,0,1-.95-.86l-1.6-1.77-7,3.77h0L6.38,36.21A5.69,5.69,0,0,1,0,35.78v.43a9.66,9.66,0,0,0,9.66,9.66H34.45a9.64,9.64,0,0,0,6.65-2.66h0l.05-.06a10.17,10.17,0,0,0,.83-.91c.06-.07.11-.15.16-.22.22-.3.43-.6.62-.92l.11-.19a9,9,0,0,0,.53-1.13c0-.1.07-.2.11-.29a10.33,10.33,0,0,0,.33-1.12l0-.12s.15-.88.16-1a8.43,8.43,0,0,0,.06-1Z"/><path class="q" d="M44.1,32.86,37.44,27h0a5.93,5.93,0,0,1-2.44.17,6.18,6.18,0,0,1-1.56-.45l1.3,1.12L44.11,36Z"/><path class="r" d="M44.1,30v2.83L37.44,27A6.1,6.1,0,0,0,39.5,26Z"/><path class="s" d="M44.1,30l-4.6-4a7.44,7.44,0,0,0,.92-.86l3.68-4.2Z"/><path class="t" d="M32.57,8.5a11.23,11.23,0,0,0-.85-1.91,10.8,10.8,0,0,0-5.34-4.82H10.22l1.62,1.79.91,1h0l3.67,4.08L28.35,21.87l3.07,3.41,0-.23.05-.41.33-2.52.29-2.29.91-7A10,10,0,0,0,32.57,8.5Z"/><path class="u" d="M42.24,5.77A2.69,2.69,0,0,0,42,5.5c-.1-.13-.2-.26-.31-.38l-.36-.4-.27-.27a8.29,8.29,0,0,0-.71-.62,9.57,9.57,0,0,0-5.94-2.06H26.38a10.8,10.8,0,0,1,5.34,4.82,11.23,11.23,0,0,1,.85,1.91A10,10,0,0,1,33,12.84l-.91,7-.29,2.29,0,.32-.29,2.2-.05.41,0,.23a6.42,6.42,0,0,0,.95.86,7.14,7.14,0,0,0,1.06.62,6.18,6.18,0,0,0,1.56.45A5.93,5.93,0,0,0,37.43,27h0A6.1,6.1,0,0,0,39.5,26a7.44,7.44,0,0,0,.92-.86l3.67-4.19h0v-9.5A9.57,9.57,0,0,0,42.24,5.77Z"/><path class="d" d="M84.09,57.13a.52.52,0,0,0-.73,0,.58.58,0,0,0-.19.33l-2.93,12a12.31,12.31,0,0,1-.93-1.89c-.3-.76-.58-1.54-.83-2.31S78,63.66,77.82,63s-.39-1.35-.56-1.88a6.85,6.85,0,0,0-.53-1.25c-.24-.39-.48-.41-.66-.34a.79.79,0,0,0-.59.19,1,1,0,0,0-.25.43,3.89,3.89,0,0,0-.09.53c0,.19-.06.38-.09.57-.16.51-.35,1.11-.56,1.81l-.69,2.2c-.24.76-.49,1.53-.73,2.28s-.48,1.44-.69,2.05-.39,1.12-.54,1.53c-.08.23-.14.38-.18.47-.55-1.69-1-3.16-1.41-4.39s-.73-2.35-1-3.22l-.64-2.1c-.17-.53-.31-.94-.42-1.24a4.68,4.68,0,0,0-.29-.66,1.32,1.32,0,0,0-.31-.35l0,0-.06,0a2,2,0,0,0-.31.22l-.32.28-.29.3a.9.9,0,0,0-.18.27l0,0,0,0a10.79,10.79,0,0,1,1,2,21.74,21.74,0,0,1,.73,2.24c.2.8.4,1.6.58,2.37s.37,1.57.56,2.29a19.22,19.22,0,0,0,.64,2,6.45,6.45,0,0,0,.81,1.55v0a.28.28,0,0,0,.13.18.7.7,0,0,0,.39.15h.18a1.84,1.84,0,0,0,.39,0,1.34,1.34,0,0,0,.63-.37,2.66,2.66,0,0,0,.55-.87,6,6,0,0,0,.37-1.5L76,62.12c.48,1.57,1,3.09,1.59,4.51A39.06,39.06,0,0,0,79.66,71a2.28,2.28,0,0,0,.47.83.49.49,0,0,0,.49.17.65.65,0,0,0,.37-.35,2.76,2.76,0,0,0,.25-.62,6,6,0,0,0,.18-.73,4.46,4.46,0,0,0,.06-.64l3-11.93v-.07A1.47,1.47,0,0,0,84.09,57.13Z"/><path class="d" d="M86,58.52a.5.5,0,0,0,.17,0,.59.59,0,0,0,.29-.07.81.81,0,0,0,.36-.37v-.05a1.78,1.78,0,0,0-.11-.67.58.58,0,0,0-.62-.34,1,1,0,0,0-.43.1.44.44,0,0,0-.22.43,1.17,1.17,0,0,0,.15.64A.66.66,0,0,0,86,58.52Z"/><path class="d" d="M94,61.41a2.27,2.27,0,0,0-.11-.34c-.08-.2-.2-.18-.26-.17l-3.06.85c0-.3,0-.64,0-1s0-.86.06-1.3l.09-1.33c0-.44.07-.85.1-1.23v-.07l-.06,0-.15-.06-.15,0c-.21,0-.42-.1-.61-.13a.38.38,0,0,0-.32.05.39.39,0,0,0-.14.27l-.12,5.36-2,1.15V61.33a.5.5,0,0,0-.23-.5,1.11,1.11,0,0,0-.52-.11l-.23,0a.54.54,0,0,0-.24,0l0,0v.05a22.77,22.77,0,0,0-.19,2.83c0,1,0,2,0,3.06l.1,3.08c0,1,.06,2,.06,2.88a.54.54,0,0,0,.17.57.8.8,0,0,0,.48.14.77.77,0,0,0,.45-.14.61.61,0,0,0,.17-.56c0-.79,0-1.69,0-2.68s0-2,0-3l0-3v-.17a1.57,1.57,0,0,0,.05.3,1.67,1.67,0,0,0,.15.38c.09.17.2.21.27.21h0a.81.81,0,0,0,.41,0,1.38,1.38,0,0,0,.36-.15l.36-.21.24-.15.53,9.09,0,0a1.22,1.22,0,0,0,.77.34c.28,0,.44-.24.47-.73,0-.13,0-.44,0-.93s0-1-.06-1.7-.06-1.35-.09-2.1-.05-1.46-.08-2.12l-.08-1.7c0-.42,0-.69,0-.84L94,62.1l.07,0V62A3.49,3.49,0,0,0,94,61.41Z"/><path class="d" d="M102.84,62.94h0a1.64,1.64,0,0,0-1.22-.48h0a3.81,3.81,0,0,0-1.92.25,4,4,0,0,0-1.38,1,6.41,6.41,0,0,0-.93,1.45,16.28,16.28,0,0,0-.65,1.6c-.18.52-.34,1-.48,1.48A7,7,0,0,1,96,69l-.27-11.51v0a.57.57,0,0,0-.26-.2,1.24,1.24,0,0,0-.39-.1,1,1,0,0,0-.39,0,.31.31,0,0,0-.23.33V72.31c0,.29.06.48.18.56a.81.81,0,0,0,.45.11h0c.26-.06.53-.36.82-.92s.58-1.15.92-1.89.7-1.5,1.1-2.32a17.64,17.64,0,0,1,1.24-2.18,6.29,6.29,0,0,1,1.35-1.47,1.43,1.43,0,0,1,1.35-.24l.25,9.24v.07l.06,0a1.57,1.57,0,0,0,.57.13h.11a.81.81,0,0,0,.43-.18.53.53,0,0,0,.2-.33,1.86,1.86,0,0,0,0-.26l-.22-8.44A1.84,1.84,0,0,0,102.84,62.94Z"/><path class="d" d="M119.67,61.41h0c0-.13-.07-.24-.11-.34a.22.22,0,0,0-.26-.17l-3.06.85a8.08,8.08,0,0,1,0-1c0-.42,0-.85.05-1.29l.09-1.34c0-.44.07-.85.1-1.23v-.07l0,0-.16-.06-.15,0c-.21,0-.42-.1-.61-.13a.38.38,0,0,0-.32.05.39.39,0,0,0-.14.27l-.12,5.36-2,1.15v0a1.18,1.18,0,0,0,0,.34c0,.14,0,.28.08.41a1.88,1.88,0,0,0,.15.38.34.34,0,0,0,.27.21h0a.77.77,0,0,0,.4,0,1.38,1.38,0,0,0,.36-.15,3.35,3.35,0,0,0,.36-.21l.25-.15.52,9.09,0,0a1.22,1.22,0,0,0,.77.34c.28,0,.44-.24.47-.73,0-.13,0-.44,0-.93s0-1-.06-1.7-.06-1.35-.09-2.1,0-1.46-.08-2.12l-.07-1.7c0-.4,0-.69,0-.84l3.54-1.5.07,0V62A3.69,3.69,0,0,0,119.67,61.41Z"/><path class="d" d="M128.52,62.94h0a1.64,1.64,0,0,0-1.22-.48h0a3.84,3.84,0,0,0-1.93.25,4,4,0,0,0-1.38,1,6.41,6.41,0,0,0-.93,1.45,16.28,16.28,0,0,0-.65,1.6c-.18.51-.34,1-.48,1.48a7,7,0,0,1-.24.7l-.27-11.51v0a.51.51,0,0,0-.26-.2,1.24,1.24,0,0,0-.39-.1,1,1,0,0,0-.39,0,.31.31,0,0,0-.23.33V72.31c0,.29.06.48.18.56a.81.81,0,0,0,.45.11h0c.26-.06.53-.36.82-.92s.59-1.16.92-1.89.71-1.51,1.1-2.32a17.64,17.64,0,0,1,1.24-2.18,6.29,6.29,0,0,1,1.35-1.47,1.43,1.43,0,0,1,1.35-.24l.25,9.24v.07l.06,0a1.57,1.57,0,0,0,.57.13h.11a.81.81,0,0,0,.43-.18.53.53,0,0,0,.2-.33,1.86,1.86,0,0,0,0-.26L129,64.21A1.84,1.84,0,0,0,128.52,62.94Z"/><path class="d" d="M138.92,67.45a1.48,1.48,0,0,0-.49-.08c-.16,0-.33.12-.54.37s-.4.52-.63.87-.49.71-.78,1.1a7.58,7.58,0,0,1-.95,1.09,5.65,5.65,0,0,1-1.12.84,2.46,2.46,0,0,1-1.26.34,1.16,1.16,0,0,1-.86-.26,1.26,1.26,0,0,1-.33-.66,4.42,4.42,0,0,1,0-.9c0-.33,0-.63,0-.89V69c0-.13,0-.27,0-.43s.05-.33.09-.51a2.37,2.37,0,0,1,.15-.45,4.43,4.43,0,0,1,.58-.35l1.08-.6c.41-.22.84-.47,1.28-.73s.85-.52,1.21-.76a6.91,6.91,0,0,0,.85-.7c.08-.09.34-.36.23-.58a1.8,1.8,0,0,0-.27-.92,2.64,2.64,0,0,0-.66-.71,3.22,3.22,0,0,0-.85-.47,2.36,2.36,0,0,0-.84-.18,2.86,2.86,0,0,0-1.51.33,3.24,3.24,0,0,0-1,.92,7.17,7.17,0,0,0-.72,1.25c-.2.46-.4.92-.58,1.38a11.61,11.61,0,0,1-.6,1.28,3.23,3.23,0,0,1-.77,1,2.44,2.44,0,0,0-.21.19.38.38,0,0,0-.1.29.48.48,0,0,0,.23.44,1,1,0,0,0,.46.14,1.47,1.47,0,0,0,.47,0l.2,0q0,.63,0,1.35a6.26,6.26,0,0,0,.21,1.52,2.62,2.62,0,0,0,.72,1.2,2.1,2.1,0,0,0,1.51.5,2.89,2.89,0,0,0,1.16-.3,8.51,8.51,0,0,0,1.31-.75,14.51,14.51,0,0,0,1.31-1A14,14,0,0,0,138.1,70a8.45,8.45,0,0,0,.81-1.14,2,2,0,0,0,.32-1A.42.42,0,0,0,138.92,67.45ZM134,63.28a1.1,1.1,0,0,1,.7-.32,1.59,1.59,0,0,1,.36,0,1.27,1.27,0,0,1,.39.12,1.3,1.3,0,0,1,.33.19.34.34,0,0,1,.11.24,1,1,0,0,1-.41.69,6.9,6.9,0,0,1-1,.75,8.2,8.2,0,0,1-1.18.6,3.28,3.28,0,0,1-.78.23,2.53,2.53,0,0,1,.21-.72,5.19,5.19,0,0,1,.56-1A5,5,0,0,1,134,63.28Z"/><path class="d" d="M157.62,62.31h0a4.3,4.3,0,0,0-1.82,0,7.89,7.89,0,0,0-1.74.63,12.88,12.88,0,0,0-1.6.94l-1.31.93a2.06,2.06,0,0,1,0-.59c.06-.33.1-.66.13-1a3.34,3.34,0,0,0,0-.91.75.75,0,0,0-.61-.58c-.33-.06-.54,0-.62.12a1.74,1.74,0,0,0-.18.51c0,1.47.06,2.89.13,4.21s.12,2.64.16,3.94,0,2.62,0,3.94-.11,2.74-.27,4.22a.57.57,0,0,0,.08.23.3.3,0,0,0,.19.17h.2l.28,0,.26,0a.43.43,0,0,0,.17,0l.06,0v-.06q0-.25,0-.78c0-.35.05-.75.07-1.2s0-.93.06-1.42,0-1,.06-1.42,0-.85.07-1.21,0-.57,0-.74c.29-.16.68-.39,1.15-.7s1-.7,1.62-1.13,1.18-.91,1.78-1.41a19.28,19.28,0,0,0,1.66-1.55A11.4,11.4,0,0,0,159,65.78a3.78,3.78,0,0,0,.62-1.46,1.44,1.44,0,0,0-.36-1.22A3,3,0,0,0,157.62,62.31Zm.49,1.77a4.51,4.51,0,0,1-1,2,10.66,10.66,0,0,1-1.77,1.64c-.66.48-1.36.94-2.07,1.37a19.26,19.26,0,0,0-1.73,1.14c0-.17,0-.37-.07-.59s-.08-.6-.12-.91-.06-.63-.08-.91a2.53,2.53,0,0,1,0-.7,3.23,3.23,0,0,1,.86-1.52,7.1,7.1,0,0,1,1.66-1.29,8.57,8.57,0,0,1,2-.83,4.26,4.26,0,0,1,1.18-.17,3,3,0,0,1,.61.06.94.94,0,0,1,.49.19C158.15,63.65,158.16,63.83,158.11,64.08Z"/><path class="d" d="M165.08,63.91v0c-.1-.22-.22-.5-.37-.81a5.68,5.68,0,0,0-.54-.92,3.79,3.79,0,0,0-.7-.74,1.43,1.43,0,0,0-1.39-.22,2,2,0,0,0-.46.23,1.09,1.09,0,0,0-.37.37.82.82,0,0,0-.14.46c-.2.79-.37,1.53-.52,2.21s-.26,1.36-.34,2a15.23,15.23,0,0,0-.12,1.89,12.33,12.33,0,0,0,.15,1.89c0,.21,0,.48,0,.8a4.8,4.8,0,0,0,.13,1,2.17,2.17,0,0,0,.39.84,1,1,0,0,0,.83.36h0a3.3,3.3,0,0,0,1.63-.67,4.4,4.4,0,0,0,1.11-1.34,7.47,7.47,0,0,0,.67-1.75,12.5,12.5,0,0,0,.3-1.93,13.78,13.78,0,0,0,0-1.93A11.22,11.22,0,0,0,165.08,63.91Zm-1,1.61v.42q0,.34,0,.9c0,.37-.07.77-.13,1.19a12.63,12.63,0,0,1-.26,1.31,6.28,6.28,0,0,1-.42,1.18,2.73,2.73,0,0,1-.59.85,1.1,1.1,0,0,1-.8.31h0c-.05-.14-.09-.26-.12-.38s-.06-.25-.08-.37,0-.24,0-.36,0-.26,0-.39c0-.65,0-1.3,0-2s0-1.27,0-1.84a12.15,12.15,0,0,1,.13-1.57,5,5,0,0,1,.3-1.2,1.34,1.34,0,0,1,.49-.66.8.8,0,0,1,.7-.05h0a.44.44,0,0,1,.36.16,1.35,1.35,0,0,1,.26.46,3.2,3.2,0,0,1,.15.66c0,.24.06.48.08.71S164.08,65.34,164.08,65.52Z"/><path class="d" d="M177.16,70.62c0-.33,0-.7,0-1.13s0-.87-.05-1.36,0-.94-.06-1.37,0-.79-.05-1.12,0-.53,0-.63a4.65,4.65,0,0,1,0-.89,4,4,0,0,0,0-1,1.54,1.54,0,0,0-.32-.8,1.12,1.12,0,0,0-.93-.35h-.1v6.89l-3.88-6.62a.62.62,0,0,0-.27-.3.94.94,0,0,0-.34-.05.65.65,0,0,0-.53.23,1.24,1.24,0,0,0-.26.48,2.43,2.43,0,0,0-.09.55c0,.18,0,.34,0,.47s-.06.55-.11,1.08l-.16,1.64c-.06.58-.11,1.12-.17,1.64,0,.25-.05.46-.07.64l-2.28-5.84a1,1,0,0,0-.29-.41.72.72,0,0,0-.48-.18h0a.7.7,0,0,0-.39.32,1,1,0,0,0-.12.48,1.42,1.42,0,0,0,.1.53,2.45,2.45,0,0,0,.22.43l.95,2.54c.22.56.44,1.16.68,1.8l.68,1.79.57,1.53q.25.66.36,1l.28.29a1,1,0,0,0,.33.24.61.61,0,0,0,.28.07h.08c.1,0,.23-.08.3-.34.09-1,.18-2.19.28-3.6s.18-3,.28-5l4.13,7a1.09,1.09,0,0,0,.4.47,1.5,1.5,0,0,0,.59.25.63.63,0,0,0,.52-.12c.14-.12.15-.33,0-.65C177.18,71.13,177.17,70.92,177.16,70.62Z"/><path class="d" d="M187.17,67.45a1.42,1.42,0,0,0-.48-.08c-.16,0-.34.12-.55.37s-.39.52-.63.87-.49.71-.78,1.1a7.58,7.58,0,0,1-.95,1.09,5.65,5.65,0,0,1-1.12.84,2.46,2.46,0,0,1-1.26.34,1.16,1.16,0,0,1-.86-.26,1.18,1.18,0,0,1-.32-.66,3.8,3.8,0,0,1-.05-.9c0-.33,0-.63,0-.89,0-.07,0-.17,0-.31a3.62,3.62,0,0,1,0-.43q0-.24.09-.51a2.37,2.37,0,0,1,.15-.45,4.08,4.08,0,0,1,.59-.35l1.07-.6c.41-.22.84-.47,1.29-.73s.85-.52,1.2-.76a6.91,6.91,0,0,0,.85-.7c.08-.09.34-.36.23-.58a1.8,1.8,0,0,0-.27-.92,2.49,2.49,0,0,0-.66-.71,3.07,3.07,0,0,0-.85-.47,2.31,2.31,0,0,0-.84-.18,2.86,2.86,0,0,0-1.51.33,3.21,3.21,0,0,0-1,.92,6.59,6.59,0,0,0-.72,1.25c-.21.46-.4.92-.59,1.38a13.75,13.75,0,0,1-.59,1.28,3.25,3.25,0,0,1-.78,1,2.44,2.44,0,0,0-.21.19.42.42,0,0,0-.09.29.48.48,0,0,0,.22.44,1,1,0,0,0,.46.14,1.47,1.47,0,0,0,.47,0l.2,0c0,.42,0,.87,0,1.35a5.81,5.81,0,0,0,.22,1.52,2.6,2.6,0,0,0,.71,1.2,2.1,2.1,0,0,0,1.51.5,2.85,2.85,0,0,0,1.16-.3,7.67,7.67,0,0,0,1.31-.75,13.24,13.24,0,0,0,1.31-1A12.64,12.64,0,0,0,186.35,70a8.45,8.45,0,0,0,.81-1.14,1.93,1.93,0,0,0,.32-1A.41.41,0,0,0,187.17,67.45Zm-4.92-4.17a1.05,1.05,0,0,1,.69-.32,1.59,1.59,0,0,1,.36,0,1.62,1.62,0,0,1,.72.31.3.3,0,0,1,.11.24,1,1,0,0,1-.41.69,6.41,6.41,0,0,1-1,.75,8.2,8.2,0,0,1-1.18.6,3.28,3.28,0,0,1-.78.23,2.53,2.53,0,0,1,.21-.72,5.19,5.19,0,0,1,.56-1A4.61,4.61,0,0,1,182.25,63.28Z"/><path class="d" d="M195.3,62.1a4.74,4.74,0,0,0-2.4.17,3,3,0,0,0-1.53,1.35,6.49,6.49,0,0,0-.74,2.47,21.46,21.46,0,0,0-.15,2.81.36.36,0,0,0,0-.1c-.07-.35-.13-.75-.2-1.19s-.12-.91-.19-1.41-.12-1-.18-1.43-.1-.87-.14-1.24-.09-.67-.14-.9a.44.44,0,0,0-.3-.31,1.16,1.16,0,0,0-.76.07.41.41,0,0,0-.21.38V63l1.5,9.71,0,0a.85.85,0,0,0,.39.36,1.26,1.26,0,0,0,.51.11.85.85,0,0,0,.46-.12.45.45,0,0,0,.22-.38,27.76,27.76,0,0,0,.29-3c0-.94.09-1.82.17-2.62a10,10,0,0,1,.43-2.08,2.25,2.25,0,0,1,1-1.26,1,1,0,0,1,.56-.19l.86-.08a4,4,0,0,0,.83-.13c.36-.09.43-.3.43-.46C196.05,62.38,195.79,62.1,195.3,62.1Z"/><path class="d" d="M211.47,63.91v0l-.37-.81a5.68,5.68,0,0,0-.54-.92,3.79,3.79,0,0,0-.7-.74,1.43,1.43,0,0,0-1.39-.22,2,2,0,0,0-.46.23,1.09,1.09,0,0,0-.37.37.82.82,0,0,0-.14.46c-.2.79-.37,1.53-.52,2.21s-.26,1.36-.34,2a15.23,15.23,0,0,0-.12,1.89,12.33,12.33,0,0,0,.15,1.89c0,.21,0,.48,0,.8a4.8,4.8,0,0,0,.13,1,2.17,2.17,0,0,0,.39.84,1,1,0,0,0,.83.36h0a3.3,3.3,0,0,0,1.63-.67,4.4,4.4,0,0,0,1.11-1.34,7.47,7.47,0,0,0,.67-1.75,12.5,12.5,0,0,0,.3-1.93,13.78,13.78,0,0,0,0-1.93A11.22,11.22,0,0,0,211.47,63.91Zm-3.23,7.77h-.05c-.05-.14-.09-.26-.12-.38s-.06-.25-.08-.37a3.6,3.6,0,0,1,0-.36c0-.12,0-.26,0-.39,0-.65,0-1.3,0-2s0-1.26,0-1.84a12.15,12.15,0,0,1,.13-1.57,4.88,4.88,0,0,1,.3-1.2,1.34,1.34,0,0,1,.49-.66.8.8,0,0,1,.7-.05h0a.44.44,0,0,1,.36.16,1.35,1.35,0,0,1,.26.46,3.2,3.2,0,0,1,.15.66c0,.25.06.49.08.71s0,.44,0,.62v.42q0,.33,0,.9c0,.36-.07.77-.13,1.19a12.63,12.63,0,0,1-.26,1.31,6.28,6.28,0,0,1-.42,1.18,2.73,2.73,0,0,1-.59.85A1.1,1.1,0,0,1,208.24,71.68Z"/><path class="d" d="M218.16,62.07q-.54.21-1,.42a2.15,2.15,0,0,0-.43.21l-.42.23a7.16,7.16,0,0,1-1.07.39c.05-.68.1-1.42.16-2.2s.12-1.64.19-2.39.16-1.42.26-2a3.22,3.22,0,0,1,.38-1.17.27.27,0,0,1,.18-.12q.11,0,.27.15a5.44,5.44,0,0,1,.83,1.6l0,0a.18.18,0,0,0,.11,0h.07a.45.45,0,0,0,.44-.31,1.3,1.3,0,0,0,.1-.49,3.33,3.33,0,0,0-.14-.88,3.5,3.5,0,0,0-.4-.88,2.6,2.6,0,0,0-.64-.68,1.38,1.38,0,0,0-.85-.28.92.92,0,0,0-1.13.4,4.57,4.57,0,0,0-.66,1.61,15.31,15.31,0,0,0-.36,2.29c-.08.84-.13,1.67-.15,2.47s0,1.51,0,2.13,0,1,.06,1.23a1.41,1.41,0,0,1-.36.29l-.55.36a4.2,4.2,0,0,0-.49.39.68.68,0,0,0-.23.48.43.43,0,0,0,.21.42.82.82,0,0,0,.42.1.72.72,0,0,0,.34-.1l.35-.18a3.4,3.4,0,0,1,.34-.16l.14-.06v1c0,.31,0,.74,0,1.28s.07,1.22.12,2,.11,1.73.2,2.92a.91.91,0,0,0,.2.54.65.65,0,0,0,.45.14.56.56,0,0,0,.48-.22,1,1,0,0,0,.18-.48,3.25,3.25,0,0,0,0-.54c0-.17,0-.31,0-.4a7.49,7.49,0,0,0,0-1.34c0-.44-.09-.94-.15-1.47s-.13-1.15-.21-1.84-.13-1.45-.18-2.33a4.19,4.19,0,0,1,.62-.18c.27-.06.55-.12.85-.17s.62-.13.91-.21A2.06,2.06,0,0,0,219.34,62v-.1h-.1A3.26,3.26,0,0,0,218.16,62.07Z"/><path class="d" d="M240.79,70.61c0-.32,0-.69,0-1.12s0-.87-.05-1.36,0-.94-.06-1.37,0-.79,0-1.12,0-.53,0-.63a4.65,4.65,0,0,1,0-.89,4,4,0,0,0,0-1,1.54,1.54,0,0,0-.32-.8,1.12,1.12,0,0,0-.93-.35h-.1v6.89l-3.88-6.62a.67.67,0,0,0-.26-.3,1,1,0,0,0-.35-.05.65.65,0,0,0-.53.23,1.1,1.1,0,0,0-.25.48,1.92,1.92,0,0,0-.1.55c0,.18,0,.34,0,.47s-.06.57-.11,1.08l-.16,1.64c-.06.58-.11,1.12-.17,1.64,0,.25-.05.46-.07.64l-2.28-5.84a1,1,0,0,0-.29-.41.72.72,0,0,0-.48-.18h0a.7.7,0,0,0-.39.32,1,1,0,0,0-.12.48,1.42,1.42,0,0,0,.1.53,3.4,3.4,0,0,0,.22.43l.38,1,.57,1.53c.22.56.44,1.16.68,1.8l.68,1.79.57,1.53.36,1,.28.29a1,1,0,0,0,.33.24.62.62,0,0,0,.29.07h.08c.14,0,.23-.13.29-.34.09-1,.18-2.2.28-3.6s.18-3,.28-5l4.13,7a1.09,1.09,0,0,0,.4.47,1.5,1.5,0,0,0,.59.25.63.63,0,0,0,.52-.12c.14-.12.15-.33,0-.65C240.81,71.13,240.81,70.92,240.79,70.61Z"/><path class="d" d="M243.57,64.05c0-1,0-1.89,0-2.72a.52.52,0,0,0-.23-.5,1.11,1.11,0,0,0-.52-.11l-.23,0a.54.54,0,0,0-.24,0l-.05,0v.05a22.77,22.77,0,0,0-.19,2.83c0,1,0,2,0,3.06s.07,2.06.1,3.08.06,2,.06,2.88a.54.54,0,0,0,.17.57.8.8,0,0,0,.48.14.77.77,0,0,0,.45-.14.61.61,0,0,0,.17-.56c0-.82,0-1.72,0-2.68s0-2,0-3S243.57,65,243.57,64.05Z"/><path class="d" d="M242.39,58.52a.5.5,0,0,0,.17,0,.62.62,0,0,0,.29-.07.81.81,0,0,0,.36-.37v-.05a1.78,1.78,0,0,0-.11-.67.58.58,0,0,0-.62-.34,1,1,0,0,0-.43.1.44.44,0,0,0-.22.43,1.17,1.17,0,0,0,.15.64A.66.66,0,0,0,242.39,58.52Z"/><path class="d" d="M254.14,70.74c0-.63,0-1.36,0-2.24s-.06-1.71-.13-2.62a17.18,17.18,0,0,0-.38-2.54,7.45,7.45,0,0,0-.75-2,1.84,1.84,0,0,0-1.3-1h0a4.35,4.35,0,0,0-2.16,1.28,6.33,6.33,0,0,0-1.15,2,15.94,15.94,0,0,0-.66,2.48c-.14.74-.32,1.51-.55,2.29-.12-1.31-.23-2.36-.33-3.2s-.21-1.78-.28-2.4-.15-1.08-.22-1.38a3.31,3.31,0,0,0-.18-.65c-.06-.11-.13-.22-.24-.22h-.17c-.42,0-.65.21-.65.61.15,2.2.28,4.14.39,6s.26,3.83.41,5.73v0a.5.5,0,0,0,.41.29l.16,0a1.13,1.13,0,0,0,.32,0,1.57,1.57,0,0,0,.45-.22.81.81,0,0,0,.3-.32v0c0-.29.09-.7.2-1.25s.24-1.17.39-1.82.34-1.36.55-2.08.44-1.4.67-2a17.51,17.51,0,0,1,.76-1.76,3.88,3.88,0,0,1,.81-1.13.87.87,0,0,1,.78-.26c.26.07.53.34.81.83,0,.16,0,.47.06.92s.06,1,.09,1.69.08,1.32.13,2,.09,1.41.14,2.05.07,1.2.1,1.68,0,.8,0,1v0l0,0a.57.57,0,0,0,.34.27.75.75,0,0,0,.36,0,.83.83,0,0,0,.32-.2.91.91,0,0,0,.22-.33v-.05C254.15,71.86,254.14,71.39,254.14,70.74Z"/><path class="d" d="M261,69.28c0-1.63-.05-3.28-.07-4.93s0-3.33-.05-5,0-3.39,0-5.1v-.06l-.05,0a.87.87,0,0,0-.31-.08h-.43a1.26,1.26,0,0,0-.43.13.41.41,0,0,0-.23.38c0,.43.05,1,.11,1.68s.11,1.4.16,2.13.1,1.42.13,2.09a11.39,11.39,0,0,1,0,1.46,3.59,3.59,0,0,0-2,.07,3.25,3.25,0,0,0-1.45,1.09,5.66,5.66,0,0,0-.88,1.83,13.23,13.23,0,0,0-.44,2.27c-.08.8-.12,1.61-.12,2.41s0,1.55.08,2.23v0l0,0c.1.16.2.31.28.46a2.29,2.29,0,0,0,.26.38,1,1,0,0,0,.36.24,1.26,1.26,0,0,0,.53.09,2.26,2.26,0,0,0,1.33-.42,4.88,4.88,0,0,0,1-1,8.09,8.09,0,0,0,.77-1.22c.13-.25.25-.49.35-.71l.06,4.94v0a.48.48,0,0,0,.22.28.58.58,0,0,0,.3.09c.38,0,.46-.23.47-.36a4.75,4.75,0,0,0,0-.51C261,72.55,261,70.89,261,69.28Zm-4.22,2.51a1.49,1.49,0,0,1-.57-1,5.84,5.84,0,0,1-.12-1.72,10.72,10.72,0,0,1,.3-2,10.27,10.27,0,0,1,.66-1.94,5,5,0,0,1,.95-1.42,1.47,1.47,0,0,1,1.06-.49h.09c.1,0,.24,0,.34.3a2.89,2.89,0,0,1,.17.79,5.66,5.66,0,0,1,0,.92c0,.31,0,.54,0,.68a5.18,5.18,0,0,1-.09.8c-.06.36-.16.75-.28,1.19a13.92,13.92,0,0,1-.43,1.35,7.08,7.08,0,0,1-.58,1.27,3.81,3.81,0,0,1-.72.91A1.18,1.18,0,0,1,256.77,71.79Z"/></svg>