<?xml version="1.0" encoding="UTF-8"?>
<svg width="45px" height="45px" viewBox="0 0 45 45" version="1.1" xmlns="http://www.w3.org/2000/svg" xmlns:xlink="http://www.w3.org/1999/xlink">
    <!-- Generator: Sketch 55.2 (78181) - https://sketchapp.com -->
    <title>Element-grey</title>
    <desc>Created with Sketch.</desc>
    <defs>
        <linearGradient x1="-682.452959%" y1="49.8592681%" x2="1186.66969%" y2="49.8592681%" id="linearGradient-1">
            <stop stop-color="#BCBCBC" offset="0%"></stop>
            <stop stop-color="#CFCFCF" offset="99.5143581%"></stop>
        </linearGradient>
        <linearGradient x1="-120.493827%" y1="50.0006999%" x2="333.439153%" y2="50.0006999%" id="linearGradient-2">
            <stop stop-color="#D8D8D8" offset="0%"></stop>
            <stop stop-color="#A3A3A3" offset="100%"></stop>
        </linearGradient>
        <linearGradient x1="-65.5446701%" y1="10.8755448%" x2="99.8522857%" y2="57.0818076%" id="linearGradient-3">
            <stop stop-color="#A8A8A7" offset="0%"></stop>
            <stop stop-color="#F2F2F2" offset="100%"></stop>
        </linearGradient>
        <linearGradient x1="171.831591%" y1="52.4045797%" x2="0.83988417%" y2="49.4898754%" id="linearGradient-4">
            <stop stop-color="#BCBCBC" offset="0%"></stop>
            <stop stop-color="#C1C1C1" offset="43.2274071%"></stop>
            <stop stop-color="#B6B6B6" offset="100%"></stop>
        </linearGradient>
        <linearGradient x1="-120.799491%" y1="49.9526963%" x2="334.13297%" y2="49.9526963%" id="linearGradient-5">
            <stop stop-color="#BEBEBE" offset="0%"></stop>
            <stop stop-color="#8B8B8B" offset="100%"></stop>
        </linearGradient>
        <linearGradient x1="-302.545211%" y1="50.003638%" x2="747.736422%" y2="50.003638%" id="linearGradient-6">
            <stop stop-color="#C5C5C5" offset="0%"></stop>
            <stop stop-color="#CECECE" offset="100%"></stop>
        </linearGradient>
        <linearGradient x1="-3.76331898%" y1="49.9999999%" x2="103.922013%" y2="49.9999999%" id="linearGradient-7">
            <stop stop-color="#808080" offset="0%"></stop>
            <stop stop-color="#B0B0B0" offset="34%"></stop>
            <stop stop-color="#BDBDBD" offset="70.7084037%"></stop>
            <stop stop-color="#A8A8A8" offset="100%"></stop>
        </linearGradient>
        <linearGradient x1="-32.6148079%" y1="117.084003%" x2="128.32896%" y2="-13.7599625%" id="linearGradient-8">
            <stop stop-color="#848484" offset="0%"></stop>
            <stop stop-color="#ACACAC" offset="100%"></stop>
        </linearGradient>
        <linearGradient x1="181.775455%" y1="161.200586%" x2="3.4923921%" y2="-6.68188091%" id="linearGradient-9">
            <stop stop-color="#D0D0D0" offset="0%"></stop>
            <stop stop-color="#A6A6A6" offset="100%"></stop>
        </linearGradient>
        <linearGradient x1="-682.391304%" y1="50.1103753%" x2="1106.03072%" y2="50.1103753%" id="linearGradient-10">
            <stop stop-color="#FFFFFF" offset="0%"></stop>
            <stop stop-color="#4B4B4B" offset="100%"></stop>
        </linearGradient>
        <linearGradient x1="2.75832782%" y1="58.8430631%" x2="127.431733%" y2="0%" id="linearGradient-11">
            <stop stop-color="#B2B2B2" offset="0%"></stop>
            <stop stop-color="#F2F2F2" offset="100%"></stop>
        </linearGradient>
        <linearGradient x1="-17.3221554%" y1="13.6927467%" x2="75.2031544%" y2="63.1278267%" id="linearGradient-12">
            <stop stop-color="#A8A8A7" offset="0%"></stop>
            <stop stop-color="#F2F2F2" offset="100%"></stop>
        </linearGradient>
    </defs>
    <g id="Page-1" stroke="none" stroke-width="1" fill="none" fill-rule="evenodd">
        <g id="Element-grey" fill-rule="nonzero">
            <path d="M44.11,35 L44.11,20 L40.43,24.2 C40.14819,24.5121528 39.8404211,24.7998498 39.51,25.06 C38.885001,25.5002804 38.1828082,25.8191506 37.44,26 C36.6473172,26.2256091 35.8163097,26.2835071 35,26.17 C34.4624731,26.0892571 33.9379475,25.9379516 33.44,25.72 C33.0695171,25.5441581 32.7148724,25.3367244 32.38,25.1 C32.0354446,24.8457335 31.717193,24.557632 31.43,24.24 L28.36,20.83 L21.16,24.74 L5.48,33.28 C3.79523952,34.2499697 1.73529856,34.306355 0,33.43 L0,35.21 C0,40.5450707 4.32492932,44.8700002 9.66,44.8700002 L34.45,44.8700002 C36.9260172,44.8702569 39.3071991,43.9177841 41.1,42.21 L41.15,42.15 C41.4447975,41.8637139 41.7219723,41.5598234 41.98,41.24 C42.04,41.17 42.09,41.09 42.14,41.02 C42.36,40.72 42.57,40.42 42.76,40.1 L42.87,39.91 C43.0726033,39.546052 43.2496957,39.1684776 43.4,38.78 C43.4,38.68 43.47,38.58 43.51,38.49 C43.6410279,38.1231869 43.7512039,37.7492564 43.84,37.37 L43.84,37.25 C43.84,37.25 43.99,36.37 44,36.25 C44.039806,35.9181508 44.0598414,35.584228 44.06,35.25 L44.06,35 L44.11,35 Z" id="Path" fill="url(#linearGradient-1)"></path>
            <path d="M16.42,7.65 L12.75,3.57 L11.84,2.57 L10.22,0.77 L9.66,0.77 C7.5921912,0.77 5.57940581,1.43622305 3.92,2.67 L3.76,2.81 C3.58,2.95 3.42,3.09 3.26,3.23 C3.16903344,3.30874277 3.08224819,3.39219012 3,3.48 C2.80996323,3.64259912 2.62965204,3.81623212 2.46,4 L2.26,4.21 C2.03904617,4.47570128 1.83209849,4.75274413 1.64,5.04 L1.64,5.12 C1.46666667,5.38 1.30666667,5.65 1.16,5.93 C1.06,6 1,6.14 1,6.23 C1,6.32 0.8,6.67 0.71,6.89 C0.62,7.11 0.62,7.13 0.58,7.25 C0.54,7.37 0.44,7.68 0.38,7.9 C0.32,8.12 0.31,8.15 0.28,8.28 C0.25,8.41 0.18,8.76 0.15,9 C0.12,9.24 0.15,9.23 0.15,9.34 C0.0796479078,9.70024106 0.0295691622,10.0641466 0,10.43 L0,18.72 L0,33.43 C1.73529856,34.306355 3.79523952,34.2499697 5.48,33.28 L21.15,24.78 L28.35,20.87 L16.42,7.65 Z" id="Path" fill="url(#linearGradient-2)"></path>
            <path d="M42.24,4.77 C42.1661404,4.67472389 42.0859596,4.58452054 42,4.5 C41.9,4.37 41.8,4.24 41.69,4.12 L41.33,3.72 L41.06,3.45 C40.8352838,3.23003478 40.598234,3.02303359 40.35,2.83 C38.6584922,1.49398248 36.5654902,0.768126558 34.41,0.769985614 L10.22,0.769985614 L11.84,2.56 L12.75,3.56 L16.42,7.64 L28.35,20.87 L31.42,24.28 C31.707193,24.597632 32.0254446,24.8857335 32.37,25.14 C32.7048724,25.3767244 33.0595171,25.5841581 33.43,25.76 C33.9279475,25.9779516 34.4524731,26.1292571 34.99,26.21 C35.8090854,26.3105406 36.6401387,26.2390155 37.43,26 C38.1771427,25.8008737 38.8796151,25.461515 39.5,25 C39.8304211,24.7398498 40.13819,24.4521528 40.42,24.14 L44.0901213,19.95 L44.0901213,10.45 C44.095185,8.40777144 43.4469253,6.41743911 42.24,4.77 Z" id="Path" fill="url(#linearGradient-3)"></path>
            <path d="M16.42,7.65 L12.75,3.57 L12.75,3.57 L11.84,2.57 L10.22,0.77 L9.66,0.77 C7.5921912,0.77 5.57940581,1.43622305 3.92,2.67 C4.92386522,3.94247011 5.63413245,5.42105526 6,7 C6.33429612,8.41543392 6.39538898,9.88166254 6.18,11.32 L6.18,11.32 C6.00510542,12.4450006 5.63630011,13.5311153 5.09,14.53 L0,23.81 L0,33.43 C1.73529856,34.306355 3.79523952,34.2499697 5.48,33.28 L21.15,24.78 L28.35,20.87 L16.42,7.65 Z" id="Path" fill="url(#linearGradient-4)"></path>
            <path d="M6,7 C5.63413245,5.42105526 4.92386522,3.94247011 3.92,2.67 L3.76,2.81 C3.58,2.95 3.42,3.09 3.26,3.23 C3.16903344,3.30874277 3.08224819,3.39219012 3,3.48 C2.80996323,3.64259912 2.62965204,3.81623212 2.46,4 L2.26,4.21 C2.03904617,4.47570128 1.83209849,4.75274413 1.64,5.04 L1.64,5.12 C1.46666667,5.38 1.30666667,5.65 1.16,5.93 C1.06,6 1,6.14 1,6.23 C1,6.32 0.8,6.67 0.71,6.89 C0.62,7.11 0.62,7.13 0.58,7.25 C0.54,7.37 0.44,7.68 0.38,7.9 C0.32,8.12 0.31,8.15 0.28,8.28 C0.25,8.41 0.18,8.76 0.15,9 C0.12,9.24 0.15,9.23 0.15,9.34 C0.0796479078,9.70024106 0.0295691622,10.0641466 0,10.43 L0,18.72 L0,23.81 L5.13,14.55 C5.67630011,13.5511153 6.04510542,12.4650006 6.22,11.34 C6.42487588,9.8925756 6.35019306,8.41928726 6,7 Z" id="Path" fill="url(#linearGradient-5)"></path>
            <path d="M28.35,20.87 L21.15,24.78 L5.48,33.28 C3.79523952,34.2499697 1.73529856,34.306355 -1.77635684e-15,33.43 L-1.77635684e-15,34.78 C1.83739217,36.2177713 4.36629529,36.3882147 6.38,35.21 L22.86,26.28 L29.86,22.51 L28.35,20.87 Z" id="Path" fill="url(#linearGradient-6)"></path>
            <path d="M44.11,35 L33.43,25.76 C33.0595171,25.5841581 32.7048724,25.3767244 32.37,25.14 C32.0254446,24.8857335 31.707193,24.597632 31.42,24.28 L29.82,22.51 L22.82,26.28 L22.82,26.28 L6.38,35.21 C4.36629529,36.3882147 1.83739217,36.2177713 0,34.78 L0,35.21 C0,40.5450707 4.32492932,44.8700001 9.66,44.8700001 L34.45,44.8700001 C36.9260172,44.8702569 39.3071991,43.9177841 41.1,42.21 L41.1,42.21 L41.15,42.15 C41.4447975,41.8637139 41.7219723,41.5598234 41.98,41.24 C42.04,41.17 42.09,41.09 42.14,41.02 C42.36,40.72 42.57,40.42 42.76,40.1 L42.87,39.91 C43.0726033,39.546052 43.2496957,39.1684776 43.4,38.78 C43.4,38.68 43.47,38.58 43.51,38.49 C43.6410279,38.1231869 43.7512039,37.7492564 43.84,37.37 L43.84,37.25 C43.84,37.25 43.99,36.37 44,36.25 C44.039806,35.9181508 44.0598414,35.584228 44.06,35.25 L44.11,35 Z" id="Path" fill="url(#linearGradient-7)"></path>
            <path d="M44.1,31.86 L37.44,26 C36.6473172,26.2256091 35.8163097,26.2835071 35,26.17 C34.4624731,26.0892571 33.9379475,25.9379516 33.44,25.72 L34.74,26.84 L44.11,35 L44.1,31.86 Z" id="Path" fill="url(#linearGradient-8)"></path>
            <path d="M44.1,29 L44.1,31.83 L37.44,26 C38.1836362,25.7996955 38.8826163,25.4603848 39.5,25 L44.1,29 Z" id="Path" fill="url(#linearGradient-9)"></path>
            <path d="M44.1,29 L39.5,25 C39.8304211,24.7398498 40.13819,24.4521528 40.42,24.14 L44.1,19.94 L44.1,29 Z" id="Path" fill="url(#linearGradient-10)"></path>
            <path d="M32.57,7.5 C32.3466735,6.83828806 32.0621074,6.19885132 31.72,5.59 C30.5431015,3.42031581 28.6585021,1.71923547 26.38,0.77 L10.22,0.77 L11.84,2.56 L12.75,3.56 L12.75,3.56 L16.42,7.64 L28.35,20.87 L31.42,24.28 L31.42,24.05 L31.47,23.64 L31.8,21.12 L32.09,18.83 L33,11.83 C33.1762295,10.3726008 33.0294211,8.89427453 32.57,7.5 Z" id="Path" fill="url(#linearGradient-11)"></path>
            <path d="M42.24,4.76999638 C42.1661404,4.67472389 42.0859596,4.58452054 42,4.5 C41.9,4.37 41.8,4.24 41.69,4.12 L41.33,3.72 L41.06,3.45 C40.8352838,3.23003478 40.598234,3.02303359 40.35,2.83 C38.6584922,1.49398248 36.5654902,0.768126558 34.41,0.769996383 L26.38,0.769996383 C28.6585021,1.71923547 30.5431015,3.42031581 31.72,5.59 C32.0621074,6.19885132 32.3466735,6.83828806 32.57,7.5 C33.0308935,8.89741122 33.1777182,10.3793162 33,11.84 L32.09,18.84 L31.8,21.13 L31.8,21.45 L31.51,23.65 L31.46,24.06 L31.46,24.29 C31.747193,24.607632 32.0654446,24.8957335 32.41,25.15 C32.7448724,25.3867244 33.0995171,25.5941581 33.47,25.7699964 C33.9679475,25.9879516 34.4924731,26.1392571 35.03,26.22 C35.8366253,26.311721 36.653493,26.2368415 37.43,26 L37.43,26 C38.1771427,25.8008737 38.8796151,25.461515 39.5,25 C39.8304211,24.7398498 40.13819,24.4521528 40.42,24.14 L44.0900309,19.95 L44.0900309,19.95 L44.0900309,10.45 C44.095185,8.40777144 43.4469253,6.41743911 42.24,4.76999638 Z" id="Path" fill="url(#linearGradient-12)"></path>
        </g>
    </g>
</svg>