<?xml version="1.0" encoding="UTF-8" standalone="no"?>
<svg width="351px" height="95px" viewBox="0 0 351 95" version="1.1" xmlns="http://www.w3.org/2000/svg" xmlns:xlink="http://www.w3.org/1999/xlink">
    <!-- Generator: Sketch 45.2 (43514) - http://www.bohemiancoding.com/sketch -->
    <title>Group 6</title>
    <desc>Created with Sketch.</desc>
    <defs>
        <polygon id="path-1" points="0.0444619202 70.7601606 0.0444619202 0.70960117 342.382593 0.70960117 342.382593 35.7348809 342.382593 70.7601606 0.0444619202 70.7601606"></polygon>
    </defs>
    <g id="Energy" stroke="none" stroke-width="1" fill="none" fill-rule="evenodd">
        <g id="01-copy-25" transform="translate(-138.000000, -306.000000)">
            <g id="Group-6" transform="translate(135.000000, 306.000000)">
                <g id="GWE_Logo_4c-Copy-3" transform="translate(172.294819, 36.500000) rotate(-360.000000) translate(-172.294819, -36.500000) translate(0.794819, 0.000000)">
                    <path d="M20.6303242,72.5353828 C16.7374331,72.5353828 12.6914923,71.8257816 8.26292743,70.3724404 L7.98398215,70.2773392 L9.76873821,63.5568553 L10.0723689,63.644641 C13.404901,64.5444445 16.8534545,65.4759485 20.3217564,65.4759485 C24.1282486,65.4759485 32.9829098,64.3664346 32.9829098,54.1174528 L32.9829098,36.9333997 C32.9829098,28.3669773 27.1991152,23.8850291 21.4869084,23.8850291 C12.7680171,23.8850291 9.67493361,31.0346876 9.67493361,37.162618 C9.67493361,43.9830801 14.6934801,48.7454549 21.872001,48.7454549 C24.9132451,48.7454549 27.7742856,47.3311296 30.4180943,45.7973181 L30.8821803,45.5315225 L30.8821803,53.2274032 L30.721725,53.3127504 C27.9989229,54.7807226 24.3282005,55.8097662 21.7979447,55.8097662 C10.6376651,55.8097662 2.22240448,47.6261871 2.22240448,36.7822132 C2.22240448,25.2188842 10.454993,16.8255947 21.7979447,16.8255947 C33.466744,16.8255947 40.4379074,26.2698742 40.4379074,35.4020267 L40.4379074,51.8179548 C40.4379074,64.5956529 32.8496085,72.5353828 20.6303242,72.5353828" id="Fill-9" fill="#777776"></path>
                    <path d="M53.8050638,55.0367643 L46.3500662,55.0367643 L46.3500662,17.5937197 L53.4964961,17.5937197 L53.4964961,21.3514359 C55.7527437,18.2277276 58.8532328,16.8255947 63.4397843,16.8255947 L65.2985967,16.8255947 L65.2985967,23.8850291 L63.9828636,23.8850291 C57.1326588,23.8850291 53.8050638,28.3523464 53.8050638,37.5430227 L53.8050638,55.0367643" id="Fill-10" fill="#777776"></path>
                    <path d="M85.9454843,55.8756055 C82.4327486,55.8756055 78.8508938,54.8953317 75.5948865,53.0420778 C71.0823912,50.4743458 67.8214469,46.3971871 66.4094407,41.568973 C64.9431266,36.557872 65.6565353,31.1956281 68.4114285,26.4673921 C72.005626,20.2931304 78.3275628,16.608569 85.3086003,16.608569 C88.7843079,16.608569 92.2328614,17.5254419 95.2864482,19.2592098 C102.477312,23.3509993 105.802438,29.837388 105.165554,38.5452429 L105.145806,38.8305465 L75.742999,38.3867409 L76.0639095,31.7394118 L76.3650717,31.7491657 L97.0193649,32.0344693 C96.1849976,29.1424178 95.0642794,27.2818484 91.7194046,25.3749477 C89.7914731,24.2800648 87.7672685,23.7265271 85.7035671,23.7265271 C81.4206463,23.7265271 77.5771259,26.1186877 75.1406747,30.2958245 C73.3534501,33.3585705 72.7733427,36.7114969 73.521311,39.73035 C74.2519995,42.7223797 76.2589244,45.2730423 79.156993,46.9263399 C81.3934923,48.1992327 83.449788,48.8186097 85.4517758,48.8186097 C88.8114618,48.8186097 91.9835387,47.0263181 95.4246866,43.1783777 L95.6147643,42.9637904 L101.645413,47.4506157 L101.475084,47.6895879 C97.8660749,52.8933298 92.2057075,55.8756055 85.9454843,55.8756055" id="Fill-11" fill="#777776"></path>
                    <path d="M129.036358,55.8756055 C125.521154,55.8756055 121.936831,54.8953317 118.683292,53.0420778 C114.170797,50.4743458 110.909852,46.3971871 109.492909,41.568973 C108.031532,36.557872 108.744941,31.1956281 111.499834,26.4673921 C115.098969,20.2931304 121.415968,16.608569 128.404411,16.608569 C131.87765,16.608569 135.323735,17.5254419 138.379791,19.2592098 C145.565717,23.3509993 148.890844,29.837388 148.256428,38.5452429 L148.231743,38.8305465 L118.831404,38.3867409 L119.152315,31.7394118 L119.455946,31.7491657 L140.112707,32.0344693 C139.275872,29.1424178 138.150216,27.2818484 134.810279,25.3749477 C132.879879,24.2800648 130.860611,23.7265271 128.794441,23.7265271 C124.509052,23.7265271 120.660594,26.1186877 118.22908,30.2958245 C116.439387,33.3585705 115.85928,36.7114969 116.609716,39.73035 C117.342873,42.7223797 119.352267,45.2730423 122.252804,46.9263399 C124.484366,48.1992327 126.54313,48.8186097 128.540181,48.8186097 C131.902336,48.8186097 135.074413,47.0263181 138.513092,43.1783777 L138.70317,42.9637904 L144.741224,47.4506157 L144.570895,47.6895879 C140.961886,52.8933298 135.29905,55.8756055 129.036358,55.8756055" id="Fill-12" fill="#777776"></path>
                    <path d="M185.499326,55.0367643 L178.044328,55.0367643 L178.044328,33.2488383 C178.044328,27.9938881 174.190933,23.8850291 169.26866,23.8850291 C164.346387,23.8850291 160.490524,27.9938881 160.490524,33.2488383 L160.490524,55.0367643 L153.035526,55.0367643 L153.035526,33.2488383 C153.035526,23.5802176 159.707996,16.8255947 169.26866,16.8255947 C178.824387,16.8255947 185.499326,23.5802176 185.499326,33.2488383 L185.499326,55.0367643" id="Fill-13" fill="#777776"></path>
                    <path d="M229.01232,55.8097662 C224.564007,55.8097662 220.532878,53.9467583 218.135923,50.8035422 C215.7365,53.9467583 211.70537,55.8097662 207.261994,55.8097662 C199.597171,55.8097662 193.588739,50.1451493 193.588739,42.9174591 L193.588739,17.5937197 L201.041268,17.5937197 L201.041268,41.3836476 C201.041268,45.8558419 203.54437,48.7454549 207.412575,48.7454549 C212.053435,48.7454549 214.405956,45.9070502 214.405956,40.3058341 L214.405956,17.5937197 L221.868359,17.5937197 L221.868359,40.3058341 C221.868359,45.9875205 224.156698,48.7454549 228.861739,48.7454549 C232.725008,48.7454549 235.22811,45.8558419 235.22811,41.3836476 L235.22811,17.5937197 L242.683107,17.5937197 L242.683107,42.9174591 C242.683107,50.1451493 236.677144,55.8097662 229.01232,55.8097662" id="Fill-14" fill="#4D4E4C"></path>
                    <path d="M250.777458,55.0367643 L258.234924,55.0367643 L258.234924,17.5937197 L250.777458,17.5937197 L250.777458,55.0367643 Z M254.507425,14.0652218 C251.599482,14.0652218 250.076392,11.8632635 250.076392,9.68812869 C250.076392,7.5203093 251.599482,5.32078953 254.507425,5.32078953 C257.412899,5.32078953 258.931053,7.5203093 258.931053,9.68812869 C258.931053,11.8632635 257.412899,14.0652218 254.507425,14.0652218 L254.507425,14.0652218 Z" id="Fill-15" fill="#4D4E4C"></path>
                    <path d="M298.79801,55.0367643 L291.338076,55.0367643 L291.338076,33.2488383 C291.338076,27.9938881 287.484681,23.8850291 282.562408,23.8850291 C277.640135,23.8850291 273.784272,27.9938881 273.784272,33.2488383 L273.784272,55.0367643 L266.326805,55.0367643 L266.326805,33.2488383 C266.326805,23.5802176 273.004212,16.8255947 282.562408,16.8255947 C292.123072,16.8255947 298.79801,23.5802176 298.79801,33.2488383 L298.79801,55.0367643" id="Fill-16" fill="#4D4E4C"></path>
                    <g id="Group-20">
                        <mask id="mask-2" fill="white">
                            <use xlink:href="#path-1"></use>
                        </mask>
                        <g id="Clip-18"></g>
                        <path d="M323.273607,55.8097662 C311.747983,55.8097662 303.69313,47.4164768 303.69313,35.4020267 C303.69313,25.1603604 311.881284,16.8255947 321.952937,16.8255947 C325.951975,16.8255947 329.558516,17.7180828 332.668879,19.4737971 L332.826866,19.5640213 L332.826866,27.3818266 L332.340563,27.0526302 C330.010259,25.4749258 326.260543,23.8850291 323.118089,23.8850291 C315.959316,23.8850291 311.153064,28.8473603 311.153064,36.2384295 C311.153064,43.6075523 316.137051,48.7454549 323.273607,48.7454549 C330.350918,48.7454549 334.927595,42.9637904 334.927595,34.0145248 L334.927595,0.70960117 L342.382593,0.70960117 L342.382593,35.2435248 C342.382593,47.3506375 334.522754,55.8097662 323.273607,55.8097662" id="Fill-17" fill="#4D4E4C" mask="url(#mask-2)"></path>
                    </g>
                </g>
                <path d="M104.804687,75.6796875 C104.742187,75.6484373 104.644532,75.8437479 104.511719,76.265625 C104.378906,76.6875021 104.210939,77.2343716 104.007812,77.90625 C103.804686,78.5781284 103.582032,79.3359333 103.339844,80.1796875 C103.097655,81.0234417 102.839845,81.8593709 102.566406,82.6875 C102.292967,83.5156291 102.015626,84.2890589 101.734375,85.0078125 C101.453124,85.7265661 101.175783,86.2968729 100.902344,86.71875 C100.628905,87.1406271 100.371095,87.3710936 100.128906,87.4101562 C99.8867175,87.4492189 99.6640635,87.2031277 99.4609375,86.671875 C99.2109362,86.2968731 98.9296891,85.7812533 98.6171875,85.125 C98.3046859,84.4687467 97.972658,83.7578163 97.6210937,82.9921875 C97.2695295,82.2265587 96.9023457,81.4335979 96.5195312,80.6132812 C96.1367168,79.7929646 95.750002,79.0312535 95.359375,78.328125 C94.968748,77.6249965 94.5859394,77.0117214 94.2109375,76.4882812 C93.8359356,75.9648411 93.4765642,75.6015635 93.1328125,75.3984375 C93.1328125,76.6171936 93.2031243,77.9531177 93.34375,79.40625 C93.4843757,80.8593823 93.6367179,82.3320238 93.8007812,83.8242188 C93.9648446,85.3164137 94.1171868,86.7890552 94.2578125,88.2421875 C94.3984382,89.6953198 94.46875,91.0390563 94.46875,92.2734375 C94.5468754,92.4296883 94.5507816,92.5859367 94.4804687,92.7421875 C94.4101559,92.8984383 94.3046882,93.0156246 94.1640625,93.09375 C94.0234368,93.1718754 93.8593759,93.1875002 93.671875,93.140625 C93.4843741,93.0937498 93.3125008,92.9531262 93.15625,92.71875 C92.9374989,91.1562422 92.7812505,89.5625081 92.6875,87.9375 C92.5937495,86.3124919 92.5000005,84.6796957 92.40625,83.0390625 C92.3124995,81.3984293 92.1992194,79.7656331 92.0664062,78.140625 C91.9335931,76.5156169 91.7343763,74.9140704 91.46875,73.3359375 C91.4531249,73.0234359 91.5078119,72.8281254 91.6328125,72.75 C91.7578131,72.6718746 91.9140616,72.6328125 92.1015625,72.6328125 C92.804691,72.8359385 93.4374972,73.2070286 94,73.7460938 C94.5625028,74.2851589 95.0742164,74.9179651 95.5351562,75.6445312 C95.9960961,76.3710974 96.4179668,77.1640582 96.8007812,78.0234375 C97.1835957,78.8828168 97.5624981,79.738277 97.9375,80.5898438 C98.3125019,81.4414105 98.6874981,82.2539024 99.0625,83.0273438 C99.4375019,83.8007851 99.8515602,84.4687472 100.304687,85.03125 C100.367188,85.03125 100.425781,85.0039065 100.480469,84.9492188 C100.535157,84.894531 100.609375,84.746095 100.703125,84.5039062 C100.796875,84.2617175 100.929687,83.8906275 101.101562,83.390625 C101.273438,82.8906225 101.503905,82.195317 101.792969,81.3046875 C102.082033,80.414058 102.44531,79.2929755 102.882812,77.9414062 C103.320315,76.589837 103.851559,74.9453222 104.476562,73.0078125 C104.507813,72.914062 104.585937,72.8320316 104.710937,72.7617188 C104.835938,72.6914059 104.972656,72.65625 105.121094,72.65625 C105.269532,72.65625 105.406249,72.7070307 105.53125,72.8085938 C105.656251,72.9101568 105.742187,73.0859362 105.789062,73.3359375 C105.945313,74.7734447 106.089843,76.2929607 106.222656,77.8945312 C106.355469,79.4961018 106.499999,81.1328041 106.65625,82.8046875 C106.812501,84.4765709 106.992186,86.1679602 107.195312,87.8789062 C107.398439,89.5898523 107.648436,91.2734292 107.945312,92.9296875 C107.914062,93.1484386 107.843751,93.3007808 107.734375,93.3867188 C107.624999,93.4726567 107.492188,93.5078126 107.335937,93.4921875 C107.179687,93.4765624 107.01172,93.4257817 106.832031,93.3398438 C106.652343,93.2539058 106.484376,93.1484381 106.328125,93.0234375 L104.804687,75.6796875 Z M109.9075,78.609375 C110.00125,78.5624998 110.110624,78.5234377 110.235625,78.4921875 C110.360626,78.4609373 110.481718,78.4453125 110.598906,78.4453125 C110.716094,78.4453125 110.829374,78.4687498 110.93875,78.515625 C111.048125,78.5625002 111.134062,78.6484369 111.196562,78.7734375 C111.196562,79.7890676 111.208281,80.8867129 111.231719,82.0664062 C111.255156,83.2460996 111.286406,84.4414002 111.325469,85.6523438 C111.364531,86.8632873 111.399687,88.0546816 111.430937,89.2265625 C111.462188,90.3984434 111.493437,91.48437 111.524687,92.484375 C111.540312,92.7187512 111.477813,92.8984369 111.337187,93.0234375 C111.196562,93.1484381 111.044219,93.2109375 110.880156,93.2109375 C110.716093,93.2109375 110.563751,93.1523443 110.423125,93.0351562 C110.282499,92.9179682 110.212187,92.7343763 110.212187,92.484375 L109.9075,78.609375 Z M109.62625,73.828125 C109.62625,73.624999 109.696562,73.4882816 109.837187,73.4179688 C109.977813,73.3476559 110.134062,73.3125 110.305937,73.3125 C110.649689,73.3125 110.864531,73.4257801 110.950469,73.6523438 C111.036407,73.8789074 111.079375,74.1406235 111.079375,74.4375 C110.985624,74.6250009 110.860626,74.7578121 110.704375,74.8359375 C110.548124,74.9140629 110.387969,74.9296877 110.223906,74.8828125 C110.059843,74.8359373 109.919219,74.7265634 109.802031,74.5546875 C109.684843,74.3828116 109.62625,74.1406266 109.62625,73.828125 Z M115.619687,81.8671875 L113.463437,82.59375 C113.291561,82.5468748 113.147032,82.4609381 113.029844,82.3359375 C112.912655,82.2109369 112.830625,82.0781257 112.78375,81.9375 C112.736875,81.7968743 112.725156,81.6640631 112.748594,81.5390625 C112.772031,81.4140619 112.838437,81.3203128 112.947812,81.2578125 L115.619687,80.25 L115.572812,73.6171875 C115.619688,73.4140615 115.721249,73.2656255 115.8775,73.171875 C116.033751,73.0781245 116.193905,73.0351562 116.357969,73.0429688 C116.522032,73.0507813 116.674374,73.1054682 116.815,73.2070312 C116.955626,73.3085943 117.049375,73.4374992 117.09625,73.59375 C117.065,74.0781274 117.041562,74.5898411 117.025937,75.1289062 C117.010312,75.6679714 116.998594,76.2070286 116.990781,76.7460938 C116.982969,77.2851589 116.986875,77.8085912 117.0025,78.3164062 C117.018125,78.8242213 117.049375,79.2890604 117.09625,79.7109375 L120.729062,78.234375 C120.947813,78.1718747 121.119687,78.1914057 121.244687,78.2929688 C121.369688,78.3945318 121.451718,78.5273429 121.490781,78.6914062 C121.529844,78.8554696 121.518125,79.0156242 121.455625,79.171875 C121.393125,79.3281258 121.283751,79.4374997 121.1275,79.5 L117.09625,81.328125 C117.09625,81.4843758 117.104062,81.8554658 117.119687,82.4414062 C117.135312,83.0273467 117.150937,83.718746 117.166562,84.515625 C117.182187,85.312504 117.197812,86.164058 117.213437,87.0703125 C117.229062,87.976567 117.240781,88.828121 117.248594,89.625 C117.256406,90.421879 117.264219,91.1132783 117.272031,91.6992188 C117.279844,92.2851592 117.28375,92.6562492 117.28375,92.8125 C117.2525,93.3281276 117.104064,93.5859375 116.838437,93.5859375 C116.572811,93.5859375 116.283751,93.4609388 115.97125,93.2109375 L115.619687,81.8671875 Z M140.28625,88.5 C140.114374,88.890627 139.856564,89.3437474 139.512812,89.859375 C139.16906,90.3750026 138.770627,90.8593727 138.3175,91.3125 C137.864372,91.7656273 137.368284,92.1523421 136.829218,92.4726562 C136.290153,92.7929704 135.731565,92.953125 135.153437,92.953125 C134.903436,92.953125 134.704219,92.9218753 134.555781,92.859375 C134.407343,92.7968747 134.274531,92.7070318 134.157343,92.5898438 C134.040155,92.4726557 133.934688,92.3281259 133.840937,92.15625 C133.747187,91.9843741 133.63,91.7890636 133.489375,91.5703125 C133.348749,90.7890586 133.274531,89.9218798 133.266718,88.96875 C133.258906,88.0156202 133.33703,87.0546923 133.501093,86.0859375 C133.665157,85.1171827 133.915154,84.1914107 134.251093,83.3085938 C134.587033,82.4257768 135.024528,81.6718781 135.563593,81.046875 C136.102659,80.4218719 136.75109,79.9726576 137.508906,79.6992188 C138.266722,79.4257799 139.14562,79.4062488 140.145625,79.640625 C140.239375,78.6562451 140.247188,77.6679737 140.169062,76.6757812 C140.090937,75.6835888 140.028437,74.6484429 139.981562,73.5703125 C139.981562,73.4140617 140.051874,73.3007816 140.1925,73.2304688 C140.333125,73.1601559 140.49328,73.1132814 140.672968,73.0898438 C140.852657,73.0664061 141.02453,73.0624999 141.188593,73.078125 C141.352657,73.0937501 141.458124,73.1249998 141.505,73.171875 C141.489375,74.578132 141.477656,75.8671816 141.469843,77.0390625 C141.462031,78.2109434 141.458125,79.3164011 141.458125,80.3554688 L141.458125,83.3671875 C141.458125,84.3359423 141.462031,85.3281199 141.469843,86.34375 C141.477656,87.3593801 141.485468,88.4296819 141.493281,89.5546875 C141.501093,90.6796931 141.505,91.9140558 141.505,93.2578125 C141.583125,93.5078138 141.563594,93.7187491 141.446406,93.890625 C141.329218,94.0625009 141.184688,94.1718748 141.012812,94.21875 C140.840936,94.2656252 140.665157,94.242188 140.485468,94.1484375 C140.30578,94.054687 140.1925,93.8750013 140.145625,93.609375 L140.28625,88.5 Z M139.16125,80.9296875 C138.567497,80.835937 138.008909,80.9960917 137.485468,81.4101562 C136.962028,81.8242208 136.497189,82.3867152 136.090937,83.0976562 C135.684685,83.8085973 135.348751,84.6054643 135.083125,85.4882812 C134.817498,86.3710982 134.649531,87.2226521 134.579218,88.0429688 C134.508906,88.8632854 134.544061,89.6015592 134.684687,90.2578125 C134.825313,90.9140658 135.098748,91.3671862 135.505,91.6171875 C135.895627,91.6171875 136.278435,91.4804701 136.653437,91.2070312 C137.028439,90.9335924 137.383904,90.5859396 137.719843,90.1640625 C138.055783,89.7421854 138.368279,89.2695339 138.657343,88.7460938 C138.946407,88.2226536 139.200311,87.71094 139.419062,87.2109375 C139.637813,86.710935 139.80578,86.2539083 139.922968,85.8398438 C140.040156,85.4257792 140.09875,85.1093761 140.09875,84.890625 L140.09875,83.9765625 C140.09875,83.5390603 140.071406,83.0937523 140.016718,82.640625 C139.962031,82.1874977 139.868282,81.7890642 139.735468,81.4453125 C139.602655,81.1015608 139.411251,80.9296875 139.16125,80.9296875 Z M144.334375,86.7421875 C144.224999,86.835938 144.033595,86.8710939 143.760156,86.8476562 C143.486717,86.8242186 143.236719,86.7656255 143.010156,86.671875 C142.783592,86.5781245 142.63125,86.4492196 142.553125,86.2851562 C142.474999,86.1210929 142.568748,85.9296886 142.834375,85.7109375 C142.94375,85.617187 143.064843,85.5507814 143.197656,85.5117188 L143.596093,85.3945312 C143.728906,85.3554686 143.83828,85.2968754 143.924218,85.21875 C144.010156,85.1406246 144.060937,85.0156259 144.076562,84.84375 C144.092187,84.1406215 144.15078,83.4218787 144.252343,82.6875 C144.353906,81.9531213 144.545311,81.2968779 144.826562,80.71875 C145.107813,80.1406221 145.510153,79.6796892 146.033593,79.3359375 C146.557033,78.9921858 147.248433,78.8593746 148.107812,78.9375 C148.420314,78.9375 148.771873,79.011718 149.1625,79.1601562 C149.553127,79.3085945 149.928123,79.503905 150.2875,79.7460938 C150.646876,79.9882825 150.959373,80.2773421 151.225,80.6132812 C151.490626,80.9492204 151.654687,81.312498 151.717187,81.703125 C151.826563,81.8593758 151.764063,82.0546863 151.529687,82.2890625 C151.295311,82.5234387 150.967189,82.7851548 150.545312,83.0742188 C150.123435,83.3632827 149.646877,83.6562485 149.115625,83.953125 C148.584372,84.2500015 148.072658,84.5312487 147.580468,84.796875 C147.088278,85.0625013 146.654689,85.296874 146.279687,85.5 C145.904685,85.703126 145.6625,85.8437496 145.553125,85.921875 C145.646875,86.531253 145.748437,87.1718716 145.857812,87.84375 C145.967188,88.5156284 146.123436,89.1328097 146.326562,89.6953125 C146.529688,90.2578153 146.783592,90.7226544 147.088281,91.0898438 C147.39297,91.4570331 147.779685,91.640625 148.248437,91.640625 C148.93594,91.6875002 149.525778,91.5859388 150.017968,91.3359375 C150.510158,91.0859362 150.92031,90.7578145 151.248437,90.3515625 C151.576564,89.9453105 151.83828,89.5000024 152.033593,89.015625 C152.228907,88.5312476 152.377343,88.0703147 152.478906,87.6328125 C152.580469,87.1953103 152.650781,86.8242203 152.689843,86.5195312 C152.728906,86.2148422 152.764062,86.0468752 152.795312,86.015625 C152.967188,85.9218745 153.162498,85.9179683 153.38125,86.0039062 C153.600001,86.0898442 153.724999,86.3203106 153.75625,86.6953125 C153.771875,87.3046905 153.639063,87.9999961 153.357812,88.78125 C153.076561,89.5625039 152.689846,90.2812467 152.197656,90.9375 C151.705466,91.5937533 151.119534,92.1210918 150.439843,92.5195312 C149.760152,92.9179707 149.037503,93.0546881 148.271875,92.9296875 C147.474996,92.9140624 146.842189,92.683596 146.373437,92.2382812 C145.904685,91.7929665 145.533595,91.2539094 145.260156,90.6210938 C144.986717,89.9882781 144.7875,89.320316 144.6625,88.6171875 C144.537499,87.914059 144.428125,87.2890652 144.334375,86.7421875 Z M150.475,81.703125 C149.974997,81.0156216 149.46719,80.5781259 148.951562,80.390625 C148.435934,80.2031241 147.90469,80.1484371 147.357812,80.2265625 C147.029685,80.2734377 146.740626,80.42578 146.490625,80.6835938 C146.240623,80.9414075 146.0375,81.2695293 145.88125,81.6679688 C145.724999,82.0664082 145.615625,82.5117163 145.553125,83.0039062 C145.490624,83.4960962 145.482812,83.9999974 145.529687,84.515625 L150.475,81.703125 Z M155.437187,92.5546875 C155.390312,90.3984267 155.35125,88.57032 155.319999,87.0703125 C155.288749,85.570305 155.265312,84.3281299 155.249687,83.34375 C155.234062,82.3593701 155.222343,81.5898465 155.214531,81.0351562 C155.206718,80.480466 155.198906,80.0703138 155.191093,79.8046875 C155.183281,79.5390612 155.179374,79.3789065 155.179374,79.3242188 L155.179374,79.21875 C155.195,79.0781243 155.265311,78.960938 155.390312,78.8671875 C155.515313,78.773437 155.65203,78.7148439 155.800468,78.6914062 C155.948906,78.6679686 156.093436,78.6874997 156.234062,78.75 C156.374688,78.8125003 156.476249,78.9140618 156.538749,79.0546875 L156.609062,84.4453125 C156.843438,83.3671821 157.222341,82.4687536 157.745781,81.75 C158.269221,81.0312464 158.859059,80.4648458 159.515312,80.0507812 C160.171565,79.6367167 160.855152,79.3671881 161.566093,79.2421875 C162.277034,79.1171869 162.937184,79.1093745 163.546562,79.21875 C163.749688,79.2656252 163.90203,79.3515619 164.003593,79.4765625 C164.105156,79.6015631 164.159843,79.7382805 164.167656,79.8867188 C164.175468,80.035157 164.136406,80.1757806 164.050468,80.3085938 C163.96453,80.4414069 163.85125,80.5390622 163.710624,80.6015625 C163.007496,80.5546873 162.347346,80.6132804 161.730156,80.7773438 C161.112965,80.9414071 160.550471,81.1835921 160.042656,81.5039062 C159.534841,81.8242204 159.089533,82.2031228 158.706718,82.640625 C158.323904,83.0781272 158.023126,83.5390601 157.804374,84.0234375 C157.476248,84.726566 157.253594,85.4648399 157.136406,86.2382812 C157.019218,87.0117226 156.948906,87.7812462 156.925468,88.546875 C156.902031,89.3125038 156.902031,90.0390591 156.925468,90.7265625 C156.948906,91.4140659 156.952812,92.0156224 156.937187,92.53125 C156.921562,92.7031259 156.847344,92.8320308 156.714531,92.9179688 C156.581718,93.0039067 156.433282,93.0507812 156.269218,93.0585938 C156.105155,93.0664063 155.941094,93.0273442 155.777031,92.9414062 C155.612967,92.8554683 155.499687,92.7265634 155.437187,92.5546875 Z M178.299062,74.0859375 C178.314687,73.8984366 178.361561,73.7265633 178.439687,73.5703125 C178.517812,73.4140617 178.615467,73.2929692 178.732656,73.2070312 C178.849844,73.1210933 178.970936,73.0820312 179.095937,73.0898438 C179.220937,73.0976563 179.345936,73.1718743 179.470937,73.3125 C179.533437,73.3125 179.584218,73.3710932 179.623281,73.4882812 C179.662343,73.6054693 179.689687,73.8164047 179.705312,74.1210938 C179.720937,74.4257828 179.732655,74.8437473 179.740468,75.375 C179.748281,75.9062527 179.752187,76.5859334 179.752187,77.4140625 C179.752187,78.2421916 179.756093,79.2382754 179.763906,80.4023438 C179.771718,81.5664121 179.783437,82.9296797 179.799062,84.4921875 C179.861562,84.382812 180.029529,84.105471 180.302968,83.6601562 C180.576407,83.2148415 180.92406,82.667972 181.345937,82.0195312 C181.767814,81.3710905 182.240465,80.6679725 182.763906,79.9101562 C183.287346,79.15234 183.826403,78.3984413 184.381093,77.6484375 C184.935783,76.8984337 185.490465,76.1953158 186.045156,75.5390625 C186.599846,74.8828092 187.111559,74.3476583 187.580312,73.9335938 C188.049064,73.5195292 188.467029,73.2539068 188.834218,73.1367188 C189.201407,73.0195307 189.470936,73.1249984 189.642812,73.453125 C188.28343,75.2031338 187.080317,76.726556 186.033437,78.0234375 C184.986557,79.320319 184.084222,80.4882761 183.326406,81.5273438 C182.568589,82.5664114 181.935783,83.5234331 181.427968,84.3984375 C180.920153,85.2734419 180.517813,86.164058 180.220937,87.0703125 L190.041249,91.8046875 C190.009999,92.0703138 189.920156,92.3203113 189.771718,92.5546875 C189.62328,92.7890637 189.377188,92.8906252 189.033437,92.859375 L179.916249,88.6171875 C179.963125,88.8671888 179.982656,89.167967 179.974843,89.5195312 C179.96703,89.8710955 179.951406,90.2343731 179.927968,90.609375 C179.90453,90.9843769 179.869375,91.3437483 179.822499,91.6875 C179.775624,92.0312517 179.744374,92.3124989 179.728749,92.53125 C179.759999,92.8593766 179.646719,93.0781245 179.388906,93.1875 C179.131092,93.2968755 178.877188,93.2421886 178.627187,93.0234375 L178.299062,74.0859375 Z M191.558124,92.5546875 C191.511249,90.3984267 191.472187,88.57032 191.440937,87.0703125 C191.409687,85.570305 191.386249,84.3281299 191.370624,83.34375 C191.354999,82.3593701 191.34328,81.5898465 191.335468,81.0351562 C191.327655,80.480466 191.319843,80.0703138 191.31203,79.8046875 C191.304218,79.5390612 191.300312,79.3789065 191.300312,79.3242188 L191.300312,79.21875 C191.315937,79.0781243 191.386249,78.960938 191.511249,78.8671875 C191.63625,78.773437 191.772967,78.7148439 191.921405,78.6914062 C192.069844,78.6679686 192.214373,78.6874997 192.354999,78.75 C192.495625,78.8125003 192.597186,78.9140618 192.659687,79.0546875 L192.729999,84.4453125 C192.964375,83.3671821 193.343278,82.4687536 193.866718,81.75 C194.390158,81.0312464 194.979996,80.4648458 195.636249,80.0507812 C196.292502,79.6367167 196.976089,79.3671881 197.68703,79.2421875 C198.397971,79.1171869 199.058121,79.1093745 199.667499,79.21875 C199.870625,79.2656252 200.022967,79.3515619 200.12453,79.4765625 C200.226093,79.6015631 200.28078,79.7382805 200.288593,79.8867188 C200.296405,80.035157 200.257343,80.1757806 200.171405,80.3085938 C200.085468,80.4414069 199.972187,80.5390622 199.831562,80.6015625 C199.128433,80.5546873 198.468284,80.6132804 197.851093,80.7773438 C197.233902,80.9414071 196.671408,81.1835921 196.163593,81.5039062 C195.655778,81.8242204 195.21047,82.2031228 194.827655,82.640625 C194.444841,83.0781272 194.144063,83.5390601 193.925312,84.0234375 C193.597185,84.726566 193.374531,85.4648399 193.257343,86.2382812 C193.140155,87.0117226 193.069843,87.7812462 193.046405,88.546875 C193.022968,89.3125038 193.022968,90.0390591 193.046405,90.7265625 C193.069843,91.4140659 193.073749,92.0156224 193.058124,92.53125 C193.042499,92.7031259 192.968281,92.8320308 192.835468,92.9179688 C192.702655,93.0039067 192.554219,93.0507812 192.390155,93.0585938 C192.226092,93.0664063 192.062031,93.0273442 191.897968,92.9414062 C191.733905,92.8554683 191.620624,92.7265634 191.558124,92.5546875 Z M207.582812,92.765625 C207.364061,92.4374984 207.227343,92.0078152 207.172655,91.4765625 C207.117968,90.9453098 207.086718,90.3867217 207.078905,89.8007812 C207.071093,89.2148408 207.071093,88.6367216 207.078905,88.0664062 C207.086718,87.4960909 207.04375,87.0078145 206.949999,86.6015625 C206.21562,88.2109455 205.524221,89.4648393 204.87578,90.3632812 C204.22734,91.2617232 203.633596,91.9023418 203.09453,92.2851562 C202.555465,92.6679707 202.067189,92.8398439 201.629687,92.8007812 C201.192184,92.7617186 200.821094,92.6054701 200.516405,92.3320312 C200.211716,92.0585924 199.973437,91.7226582 199.801562,91.3242188 C199.629686,90.9257793 199.535937,90.5468768 199.520312,90.1875 C199.410936,89.593747 199.40703,88.8789104 199.508593,88.0429688 C199.610156,87.2070271 199.789842,86.3437545 200.047655,85.453125 C200.305469,84.5624955 200.633591,83.6914105 201.03203,82.8398438 C201.43047,81.988277 201.88359,81.2500031 202.391405,80.625 C202.89922,79.9999969 203.442184,79.5351578 204.020312,79.2304688 C204.598439,78.9257797 205.199996,78.874999 205.824999,79.078125 C206.137501,79.0468748 206.399217,79.0585935 206.610155,79.1132812 C206.821094,79.167969 206.996873,79.2812491 207.137499,79.453125 C207.278125,79.6250009 207.379686,79.8632797 207.442187,80.1679688 C207.504687,80.4726578 207.551561,80.8593727 207.582812,81.328125 C207.551561,82.8437576 207.59453,84.1328072 207.711718,85.1953125 C207.828906,86.2578178 207.965623,87.1953084 208.121874,88.0078125 C208.278125,88.8203166 208.430467,89.5546842 208.578905,90.2109375 C208.727344,90.8671908 208.817186,91.5468715 208.848437,92.25 C208.848437,92.5000013 208.785937,92.6914056 208.660937,92.8242188 C208.535936,92.9570319 208.395312,93.0429686 208.239062,93.0820312 C208.082811,93.1210939 207.938281,93.1093753 207.805468,93.046875 C207.672655,92.9843747 207.598437,92.8906256 207.582812,92.765625 Z M206.223437,80.9296875 C205.848435,80.429685 205.442189,80.2187496 205.004687,80.296875 C204.567184,80.3750004 204.133595,80.6445289 203.703905,81.1054688 C203.274216,81.5664086 202.864064,82.167965 202.473437,82.9101562 C202.08281,83.6523475 201.746876,84.4453083 201.465624,85.2890625 C201.184373,86.1328167 200.977344,86.9726521 200.84453,87.8085938 C200.711717,88.6445354 200.684374,89.3828093 200.762499,90.0234375 C200.98125,90.726566 201.246873,91.1484368 201.559374,91.2890625 C201.871876,91.4296882 202.20781,91.3789075 202.567187,91.1367188 C202.926563,90.89453 203.293747,90.5078152 203.668749,89.9765625 C204.043751,89.4453098 204.403122,88.8710968 204.746874,88.2539062 C205.090626,87.6367157 205.399216,87.0195343 205.672655,86.4023438 C205.946094,85.7851532 206.168748,85.2656271 206.340624,84.84375 L206.223437,80.9296875 Z M210.435624,83.90625 C210.123122,83.9218751 209.904375,83.8906254 209.779374,83.8125 C209.654373,83.7343746 209.584062,83.6367193 209.568437,83.5195312 C209.552811,83.4023432 209.576249,83.2773444 209.638749,83.1445312 C209.701249,83.0117181 209.771561,82.8906255 209.849687,82.78125 L212.685624,81.515625 C212.591874,80.4374946 212.541093,79.3593804 212.53328,78.28125 C212.525468,77.2031196 212.615311,76.2382855 212.802812,75.3867188 C212.990312,74.535152 213.298903,73.8632837 213.728593,73.3710938 C214.158282,72.8789038 214.763745,72.679687 215.544999,72.7734375 C215.920001,72.7734375 216.27156,72.89453 216.599687,73.1367188 C216.927813,73.3789075 217.212967,73.6796857 217.455155,74.0390625 C217.697344,74.3984393 217.892655,74.7890604 218.041093,75.2109375 C218.189531,75.6328146 218.263749,76.0156233 218.263749,76.359375 C218.248124,76.5156258 218.193437,76.6367183 218.099687,76.7226562 C218.005936,76.8085942 217.904375,76.8632811 217.794999,76.8867188 C217.685623,76.9101564 217.572343,76.9101564 217.455155,76.8867188 C217.337967,76.8632811 217.248124,76.8203128 217.185624,76.7578125 C217.123124,76.1953097 217.025468,75.7343768 216.892655,75.375 C216.759842,75.0156232 216.611406,74.7304698 216.447343,74.5195312 C216.283279,74.3085927 216.115312,74.1640629 215.943437,74.0859375 C215.771561,74.0078121 215.623125,73.96875 215.498124,73.96875 C214.998122,73.9843751 214.627031,74.1640608 214.384843,74.5078125 C214.142654,74.8515642 213.974687,75.3320282 213.880937,75.9492188 C213.787186,76.5664093 213.75203,77.3085894 213.775468,78.1757812 C213.798905,79.0429731 213.834061,80.0078072 213.880937,81.0703125 L218.943437,79.2421875 C219.115312,79.351563 219.232499,79.4882804 219.294999,79.6523438 C219.357499,79.8164071 219.279375,80.0624984 219.060624,80.390625 L213.974687,82.4765625 L214.677812,92.671875 C214.646561,92.7968756 214.568437,92.9023433 214.443437,92.9882812 C214.318436,93.0742192 214.177812,93.1289061 214.021562,93.1523438 C213.865311,93.1757814 213.720781,93.1523441 213.587968,93.0820312 C213.455155,93.0117184 213.373124,92.875001 213.341874,92.671875 L212.802812,82.8984375 L210.435624,83.90625 Z M222.335311,81.8671875 L220.179061,82.59375 C220.007186,82.5468748 219.862656,82.4609381 219.745468,82.3359375 C219.62828,82.2109369 219.546249,82.0781257 219.499374,81.9375 C219.452499,81.7968743 219.44078,81.6640631 219.464218,81.5390625 C219.487655,81.4140619 219.554061,81.3203128 219.663436,81.2578125 L222.335311,80.25 L222.288436,73.6171875 C222.335312,73.4140615 222.436873,73.2656255 222.593124,73.171875 C222.749375,73.0781245 222.909529,73.0351562 223.073593,73.0429688 C223.237656,73.0507813 223.389998,73.1054682 223.530624,73.2070312 C223.67125,73.3085943 223.764999,73.4374992 223.811874,73.59375 C223.780624,74.0781274 223.757186,74.5898411 223.741561,75.1289062 C223.725936,75.6679714 223.714218,76.2070286 223.706405,76.7460938 C223.698593,77.2851589 223.702499,77.8085912 223.718124,78.3164062 C223.733749,78.8242213 223.764999,79.2890604 223.811874,79.7109375 L227.444686,78.234375 C227.663438,78.1718747 227.835311,78.1914057 227.960311,78.2929688 C228.085312,78.3945318 228.167342,78.5273429 228.206405,78.6914062 C228.245468,78.8554696 228.233749,79.0156242 228.171249,79.171875 C228.108749,79.3281258 227.999375,79.4374997 227.843124,79.5 L223.811874,81.328125 C223.811874,81.4843758 223.819686,81.8554658 223.835311,82.4414062 C223.850936,83.0273467 223.866561,83.718746 223.882186,84.515625 C223.897811,85.312504 223.913436,86.164058 223.929061,87.0703125 C223.944686,87.976567 223.956405,88.828121 223.964218,89.625 C223.97203,90.421879 223.979843,91.1132783 223.987655,91.6992188 C223.995468,92.2851592 223.999374,92.6562492 223.999374,92.8125 C223.968124,93.3281276 223.819688,93.5859375 223.554061,93.5859375 C223.288435,93.5859375 222.999375,93.4609388 222.686874,93.2109375 L222.335311,81.8671875 Z M247.001874,88.5 C246.829998,88.890627 246.572188,89.3437474 246.228436,89.859375 C245.884685,90.3750026 245.486251,90.8593727 245.033124,91.3125 C244.579996,91.7656273 244.083908,92.1523421 243.544842,92.4726562 C243.005777,92.7929704 242.447189,92.953125 241.869061,92.953125 C241.61906,92.953125 241.419843,92.9218753 241.271405,92.859375 C241.122967,92.7968747 240.990156,92.7070318 240.872967,92.5898438 C240.755779,92.4726557 240.650312,92.3281259 240.556561,92.15625 C240.462811,91.9843741 240.345624,91.7890636 240.204999,91.5703125 C240.064373,90.7890586 239.990155,89.9218798 239.982342,88.96875 C239.97453,88.0156202 240.052654,87.0546923 240.216717,86.0859375 C240.380781,85.1171827 240.630778,84.1914107 240.966717,83.3085938 C241.302657,82.4257768 241.740152,81.6718781 242.279217,81.046875 C242.818283,80.4218719 243.466714,79.9726576 244.22453,79.6992188 C244.982346,79.4257799 245.861244,79.4062488 246.861249,79.640625 C246.954999,78.6562451 246.962812,77.6679737 246.884686,76.6757812 C246.806561,75.6835888 246.744061,74.6484429 246.697186,73.5703125 C246.697186,73.4140617 246.767498,73.3007816 246.908124,73.2304688 C247.048749,73.1601559 247.208904,73.1132814 247.388592,73.0898438 C247.568281,73.0664061 247.740154,73.0624999 247.904217,73.078125 C248.068281,73.0937501 248.173748,73.1249998 248.220624,73.171875 C248.204999,74.578132 248.19328,75.8671816 248.185467,77.0390625 C248.177655,78.2109434 248.173749,79.3164011 248.173749,80.3554688 L248.173749,83.3671875 C248.173749,84.3359423 248.177655,85.3281199 248.185467,86.34375 C248.19328,87.3593801 248.201092,88.4296819 248.208905,89.5546875 C248.216718,90.6796931 248.220624,91.9140558 248.220624,93.2578125 C248.298749,93.5078138 248.279218,93.7187491 248.16203,93.890625 C248.044842,94.0625009 247.900312,94.1718748 247.728436,94.21875 C247.55656,94.2656252 247.380781,94.242188 247.201092,94.1484375 C247.021404,94.054687 246.908124,93.8750013 246.861249,93.609375 L247.001874,88.5 Z M245.876874,80.9296875 C245.283121,80.835937 244.724533,80.9960917 244.201092,81.4101562 C243.677652,81.8242208 243.212813,82.3867152 242.806561,83.0976562 C242.400309,83.8085973 242.064375,84.6054643 241.798749,85.4882812 C241.533122,86.3710982 241.365155,87.2226521 241.294842,88.0429688 C241.22453,88.8632854 241.259686,89.6015592 241.400311,90.2578125 C241.540937,90.9140658 241.814372,91.3671862 242.220624,91.6171875 C242.611251,91.6171875 242.994059,91.4804701 243.369061,91.2070312 C243.744063,90.9335924 244.099528,90.5859396 244.435467,90.1640625 C244.771407,89.7421854 245.083904,89.2695339 245.372967,88.7460938 C245.662031,88.2226536 245.915935,87.71094 246.134686,87.2109375 C246.353437,86.710935 246.521404,86.2539083 246.638592,85.8398438 C246.755781,85.4257792 246.814374,85.1093761 246.814374,84.890625 L246.814374,83.9765625 C246.814374,83.5390603 246.78703,83.0937523 246.732342,82.640625 C246.677655,82.1874977 246.583906,81.7890642 246.451092,81.4453125 C246.318279,81.1015608 246.126875,80.9296875 245.876874,80.9296875 Z M251.049999,86.7421875 C250.940623,86.835938 250.749219,86.8710939 250.47578,86.8476562 C250.202341,86.8242186 249.952344,86.7656255 249.72578,86.671875 C249.499216,86.5781245 249.346874,86.4492196 249.268749,86.2851562 C249.190623,86.1210929 249.284372,85.9296886 249.549999,85.7109375 C249.659374,85.617187 249.780467,85.5507814 249.91328,85.5117188 L250.311717,85.3945312 C250.444531,85.3554686 250.553904,85.2968754 250.639842,85.21875 C250.72578,85.1406246 250.776561,85.0156259 250.792186,84.84375 C250.807811,84.1406215 250.866404,83.4218787 250.967967,82.6875 C251.06953,81.9531213 251.260935,81.2968779 251.542186,80.71875 C251.823438,80.1406221 252.225777,79.6796892 252.749217,79.3359375 C253.272658,78.9921858 253.964057,78.8593746 254.823436,78.9375 C255.135938,78.9375 255.487497,79.011718 255.878124,79.1601562 C256.268751,79.3085945 256.643747,79.503905 257.003124,79.7460938 C257.3625,79.9882825 257.674997,80.2773421 257.940624,80.6132812 C258.20625,80.9492204 258.370311,81.312498 258.432811,81.703125 C258.542187,81.8593758 258.479687,82.0546863 258.245311,82.2890625 C258.010935,82.5234387 257.682813,82.7851548 257.260936,83.0742188 C256.839059,83.3632827 256.362501,83.6562485 255.831249,83.953125 C255.299996,84.2500015 254.788282,84.5312487 254.296092,84.796875 C253.803902,85.0625013 253.370313,85.296874 252.995311,85.5 C252.620309,85.703126 252.378124,85.8437496 252.268749,85.921875 C252.362499,86.531253 252.464061,87.1718716 252.573436,87.84375 C252.682812,88.5156284 252.83906,89.1328097 253.042186,89.6953125 C253.245312,90.2578153 253.499216,90.7226544 253.803905,91.0898438 C254.108594,91.4570331 254.495309,91.640625 254.964061,91.640625 C255.651565,91.6875002 256.241402,91.5859388 256.733592,91.3359375 C257.225782,91.0859362 257.635935,90.7578145 257.964061,90.3515625 C258.292188,89.9453105 258.553904,89.5000024 258.749217,89.015625 C258.944531,88.5312476 259.092967,88.0703147 259.19453,87.6328125 C259.296093,87.1953103 259.366405,86.8242203 259.405467,86.5195312 C259.44453,86.2148422 259.479686,86.0468752 259.510936,86.015625 C259.682812,85.9218745 259.878123,85.9179683 260.096874,86.0039062 C260.315625,86.0898442 260.440623,86.3203106 260.471874,86.6953125 C260.487499,87.3046905 260.354688,87.9999961 260.073436,88.78125 C259.792185,89.5625039 259.40547,90.2812467 258.91328,90.9375 C258.42109,91.5937533 257.835158,92.1210918 257.155467,92.5195312 C256.475776,92.9179707 255.753127,93.0546881 254.987499,92.9296875 C254.19062,92.9140624 253.557813,92.683596 253.089061,92.2382812 C252.620309,91.7929665 252.249219,91.2539094 251.97578,90.6210938 C251.702341,89.9882781 251.503124,89.320316 251.378124,88.6171875 C251.253123,87.914059 251.143749,87.2890652 251.049999,86.7421875 Z M257.190624,81.703125 C256.690621,81.0156216 256.182814,80.5781259 255.667186,80.390625 C255.151559,80.2031241 254.620314,80.1484371 254.073436,80.2265625 C253.74531,80.2734377 253.45625,80.42578 253.206249,80.6835938 C252.956247,80.9414075 252.753124,81.2695293 252.596874,81.6679688 C252.440623,82.0664082 252.331249,82.5117163 252.268749,83.0039062 C252.206248,83.4960962 252.198436,83.9999974 252.245311,84.515625 L257.190624,81.703125 Z M262.129374,91.3125 C262.42625,91.5468762 262.789528,91.6718749 263.219217,91.6875 C263.648907,91.7031251 264.102027,91.6445319 264.578592,91.5117188 C265.055157,91.3789056 265.539527,91.183595 266.031717,90.9257812 C266.523907,90.6679675 266.977028,90.3828141 267.391092,90.0703125 C267.805157,89.7578109 268.164528,89.425783 268.469217,89.0742188 C268.773906,88.7226545 268.980936,88.3867204 269.090311,88.0664062 C269.199687,87.7460921 269.191874,87.4531263 269.066874,87.1875 C268.941873,86.9218737 268.660626,86.7109383 268.223124,86.5546875 C267.426245,86.7421884 266.629378,86.8906245 265.832499,87 C265.03562,87.1093755 264.320783,87.1093755 263.687967,87 C263.055152,86.8906245 262.543438,86.6328145 262.152811,86.2265625 C261.762184,85.8203105 261.582498,85.1953167 261.613749,84.3515625 C261.660624,83.5390584 261.883278,82.7773473 262.281717,82.0664062 C262.680157,81.3554652 263.187964,80.7500025 263.805155,80.25 C264.422345,79.7499975 265.109839,79.3671888 265.867655,79.1015625 C266.625471,78.8359362 267.394995,78.7265623 268.176249,78.7734375 C268.332499,78.7890626 268.477029,78.8007812 268.609842,78.8085938 C268.742655,78.8164063 268.863748,78.8437498 268.973124,78.890625 C269.082499,78.9375002 269.16453,79.007812 269.219217,79.1015625 C269.273905,79.195313 269.293436,79.3359366 269.277811,79.5234375 C269.262186,79.7578137 269.176249,79.9453118 269.019999,80.0859375 C268.863748,80.2265632 268.652812,80.2812502 268.387186,80.25 C267.465306,80.0624991 266.63719,80.1015612 265.902811,80.3671875 C265.168432,80.6328138 264.559063,81.0039039 264.074686,81.4804688 C263.590309,81.9570336 263.246562,82.4921845 263.043436,83.0859375 C262.84031,83.6796905 262.80906,84.2187476 262.949686,84.703125 C263.246563,85.2656278 263.633277,85.621093 264.109842,85.7695312 C264.586407,85.9179695 265.094215,85.9687502 265.63328,85.921875 C266.172345,85.8749998 266.723121,85.7929693 267.285624,85.6757812 C267.848126,85.5585932 268.355934,85.5195311 268.809061,85.5585938 C269.262188,85.5976564 269.637185,85.7695297 269.934061,86.0742188 C270.230938,86.3789078 270.394998,86.9374959 270.426249,87.75 C270.410623,88.2656276 270.23875,88.7617164 269.910624,89.2382812 C269.582497,89.7148461 269.164532,90.1601542 268.656717,90.5742188 C268.148902,90.9882833 267.582502,91.3632796 266.957499,91.6992188 C266.332495,92.0351579 265.711408,92.3124989 265.094217,92.53125 C264.477027,92.7500011 263.898907,92.8984371 263.359842,92.9765625 C262.820777,93.0546879 262.387188,93.0468755 262.059061,92.953125 C261.699684,92.6406234 261.512186,92.3320328 261.496561,92.0273438 C261.480936,91.7226547 261.691871,91.4843759 262.129374,91.3125 Z M284.499061,73.734375 C284.499061,73.4999988 284.542029,73.3320318 284.627967,73.2304688 C284.713905,73.1289057 284.823279,73.0664064 284.956092,73.0429688 C285.088905,73.0195311 285.229529,73.0234373 285.377967,73.0546875 C285.526405,73.0859377 285.663123,73.1249998 285.788123,73.171875 L289.889686,91.21875 C289.952186,91.1562497 290.081091,90.8593777 290.276405,90.328125 C290.471718,89.7968723 290.698278,89.1289103 290.956092,88.3242188 C291.213906,87.5195272 291.499059,86.6250049 291.811561,85.640625 C292.124062,84.6562451 292.432653,83.6679737 292.737342,82.6757812 C293.042031,81.6835888 293.327185,80.742192 293.592811,79.8515625 C293.858437,78.960933 294.084997,78.2031281 294.272498,77.578125 C294.381874,77.3437488 294.518591,77.1679693 294.682655,77.0507812 C294.846718,76.9335932 295.022497,76.875 295.209998,76.875 C295.397499,76.875 295.577185,76.9218745 295.749061,77.015625 C295.920937,77.1093755 296.06156,77.2499991 296.170936,77.4375 L300.811561,90.984375 L304.327186,73.40625 C304.405311,73.2656243 304.510779,73.1523442 304.643592,73.0664062 C304.776405,72.9804683 304.90531,72.9375 305.030311,72.9375 C305.155311,72.9375 305.276404,72.9960932 305.393592,73.1132812 C305.51078,73.2304693 305.600623,73.4374985 305.663123,73.734375 L301.702186,92.484375 C301.670936,92.5468753 301.596718,92.6289057 301.47953,92.7304688 C301.362342,92.8320318 301.221718,92.8984373 301.057655,92.9296875 C300.893591,92.9609377 300.717812,92.929688 300.530311,92.8359375 C300.34281,92.742187 300.178749,92.5312516 300.038123,92.203125 L295.209998,78.890625 L290.850623,92.671875 C290.709998,92.8593759 290.530312,92.9726561 290.311561,93.0117188 C290.09281,93.0507814 289.881874,93.0468752 289.678748,93 C289.475622,92.9531248 289.295937,92.8867192 289.139686,92.8007812 C288.983435,92.7148433 288.897498,92.6484377 288.881873,92.6015625 L284.499061,73.734375 Z M307.484686,78.609375 C307.578436,78.5624998 307.68781,78.5234377 307.812811,78.4921875 C307.937811,78.4609373 308.058904,78.4453125 308.176092,78.4453125 C308.29328,78.4453125 308.40656,78.4687498 308.515936,78.515625 C308.625311,78.5625002 308.711248,78.6484369 308.773748,78.7734375 C308.773748,79.7890676 308.785467,80.8867129 308.808905,82.0664062 C308.832342,83.2460996 308.863592,84.4414002 308.902655,85.6523438 C308.941717,86.8632873 308.976873,88.0546816 309.008123,89.2265625 C309.039373,90.3984434 309.070623,91.48437 309.101873,92.484375 C309.117498,92.7187512 309.054999,92.8984369 308.914373,93.0234375 C308.773748,93.1484381 308.621405,93.2109375 308.457342,93.2109375 C308.293279,93.2109375 308.140936,93.1523443 308.000311,93.0351562 C307.859685,92.9179682 307.789373,92.7343763 307.789373,92.484375 L307.484686,78.609375 Z M307.203436,73.828125 C307.203436,73.624999 307.273748,73.4882816 307.414373,73.4179688 C307.554999,73.3476559 307.711247,73.3125 307.883123,73.3125 C308.226875,73.3125 308.441717,73.4257801 308.527655,73.6523438 C308.613592,73.8789074 308.656561,74.1406235 308.656561,74.4375 C308.56281,74.6250009 308.437812,74.7578121 308.281561,74.8359375 C308.12531,74.9140629 307.965155,74.9296877 307.801092,74.8828125 C307.637029,74.8359373 307.496405,74.7265634 307.379217,74.5546875 C307.262029,74.3828116 307.203436,74.1406266 307.203436,73.828125 Z M310.853123,79.03125 C310.868748,78.8749992 310.931248,78.7500005 311.040623,78.65625 C311.149999,78.5624995 311.274997,78.5039064 311.415623,78.4804688 C311.556249,78.4570311 311.696872,78.472656 311.837498,78.5273438 C311.978124,78.5820315 312.09531,78.664062 312.189061,78.7734375 L312.118748,88.1484375 C312.415625,87.0234319 312.685153,85.9101618 312.927342,84.8085938 C313.169531,83.7070257 313.470309,82.7070357 313.829686,81.8085938 C314.189062,80.9101518 314.642183,80.1679717 315.189061,79.5820312 C315.735938,78.9960908 316.462494,78.6640629 317.368748,78.5859375 C317.853126,78.5390623 318.274996,78.6835921 318.634373,79.0195312 C318.99375,79.3554704 319.302341,79.8124971 319.560154,80.390625 C319.817968,80.9687529 320.03281,81.6445274 320.204686,82.4179688 C320.376562,83.1914101 320.513279,83.9960896 320.614842,84.8320312 C320.716405,85.6679729 320.790623,86.5078083 320.837498,87.3515625 C320.884373,88.1953167 320.915623,88.9765589 320.931248,89.6953125 C320.946873,90.4140661 320.950779,91.0468723 320.942967,91.59375 C320.935154,92.1406277 320.923436,92.5390612 320.907811,92.7890625 C320.798435,93.0546888 320.607031,93.2304683 320.333592,93.3164062 C320.060153,93.4023442 319.814062,93.2890641 319.595311,92.9765625 C319.579686,92.679686 319.571873,92.1679724 319.571873,91.4414062 C319.571873,90.7148401 319.560155,89.8828172 319.536717,88.9453125 C319.513279,88.0078078 319.466405,87.0273489 319.396092,86.0039062 C319.325779,84.9804636 319.208593,84.0351606 319.044529,83.1679688 C318.880466,82.3007769 318.653906,81.5742217 318.364842,80.9882812 C318.075778,80.4023408 317.704688,80.0703129 317.251561,79.9921875 C316.860934,79.9296872 316.482031,80.1406226 316.114842,80.625 C315.747653,81.1093774 315.396094,81.749996 315.060154,82.546875 C314.724215,83.343754 314.411718,84.2421825 314.122654,85.2421875 C313.83359,86.2421925 313.575781,87.2265577 313.349217,88.1953125 C313.122653,89.1640673 312.931249,90.0546834 312.774998,90.8671875 C312.618747,91.6796916 312.517186,92.3046853 312.470311,92.7421875 C312.423435,92.8671881 312.329686,92.9687496 312.189061,93.046875 C312.048435,93.1250004 311.896093,93.1679687 311.732029,93.1757812 C311.567966,93.1835938 311.403905,93.1562503 311.239842,93.09375 C311.075779,93.0312497 310.954686,92.9140634 310.876561,92.7421875 L310.853123,79.03125 Z M329.409061,88.5 C329.237185,88.890627 328.979375,89.3437474 328.635623,89.859375 C328.291871,90.3750026 327.893438,90.8593727 327.440311,91.3125 C326.987183,91.7656273 326.491095,92.1523421 325.952029,92.4726562 C325.412964,92.7929704 324.854376,92.953125 324.276248,92.953125 C324.026247,92.953125 323.82703,92.9218753 323.678592,92.859375 C323.530154,92.7968747 323.397342,92.7070318 323.280154,92.5898438 C323.162966,92.4726557 323.057499,92.3281259 322.963748,92.15625 C322.869998,91.9843741 322.752811,91.7890636 322.612186,91.5703125 C322.47156,90.7890586 322.397342,89.9218798 322.389529,88.96875 C322.381717,88.0156202 322.459841,87.0546923 322.623904,86.0859375 C322.787968,85.1171827 323.037965,84.1914107 323.373904,83.3085938 C323.709844,82.4257768 324.147339,81.6718781 324.686404,81.046875 C325.22547,80.4218719 325.873901,79.9726576 326.631717,79.6992188 C327.389533,79.4257799 328.268431,79.4062488 329.268436,79.640625 C329.362186,78.6562451 329.369998,77.6679737 329.291873,76.6757812 C329.213748,75.6835888 329.151248,74.6484429 329.104373,73.5703125 C329.104373,73.4140617 329.174685,73.3007816 329.315311,73.2304688 C329.455936,73.1601559 329.616091,73.1132814 329.795779,73.0898438 C329.975468,73.0664061 330.147341,73.0624999 330.311404,73.078125 C330.475468,73.0937501 330.580935,73.1249998 330.627811,73.171875 C330.612186,74.578132 330.600467,75.8671816 330.592654,77.0390625 C330.584842,78.2109434 330.580936,79.3164011 330.580936,80.3554688 L330.580936,83.3671875 C330.580936,84.3359423 330.584842,85.3281199 330.592654,86.34375 C330.600467,87.3593801 330.608279,88.4296819 330.616092,89.5546875 C330.623904,90.6796931 330.627811,91.9140558 330.627811,93.2578125 C330.705936,93.5078138 330.686405,93.7187491 330.569217,93.890625 C330.452029,94.0625009 330.307499,94.1718748 330.135623,94.21875 C329.963747,94.2656252 329.787968,94.242188 329.608279,94.1484375 C329.428591,94.054687 329.315311,93.8750013 329.268436,93.609375 L329.409061,88.5 Z M328.284061,80.9296875 C327.690308,80.835937 327.131719,80.9960917 326.608279,81.4101562 C326.084839,81.8242208 325.62,82.3867152 325.213748,83.0976562 C324.807496,83.8085973 324.471562,84.6054643 324.205936,85.4882812 C323.940309,86.3710982 323.772342,87.2226521 323.702029,88.0429688 C323.631716,88.8632854 323.666872,89.6015592 323.807498,90.2578125 C323.948124,90.9140658 324.221559,91.3671862 324.627811,91.6171875 C325.018438,91.6171875 325.401246,91.4804701 325.776248,91.2070312 C326.15125,90.9335924 326.506715,90.5859396 326.842654,90.1640625 C327.178594,89.7421854 327.49109,89.2695339 327.780154,88.7460938 C328.069218,88.2226536 328.323122,87.71094 328.541873,87.2109375 C328.760624,86.710935 328.928591,86.2539083 329.045779,85.8398438 C329.162967,85.4257792 329.221561,85.1093761 329.221561,84.890625 L329.221561,83.9765625 C329.221561,83.5390603 329.194217,83.0937523 329.139529,82.640625 C329.084842,82.1874977 328.991093,81.7890642 328.858279,81.4453125 C328.725466,81.1015608 328.534062,80.9296875 328.284061,80.9296875 Z M333.457186,86.7421875 C333.34781,86.835938 333.156406,86.8710939 332.882967,86.8476562 C332.609528,86.8242186 332.35953,86.7656255 332.132967,86.671875 C331.906403,86.5781245 331.754061,86.4492196 331.675936,86.2851562 C331.59781,86.1210929 331.691559,85.9296886 331.957186,85.7109375 C332.066561,85.617187 332.187654,85.5507814 332.320467,85.5117188 L332.718904,85.3945312 C332.851717,85.3554686 332.961091,85.2968754 333.047029,85.21875 C333.132967,85.1406246 333.183748,85.0156259 333.199373,84.84375 C333.214998,84.1406215 333.273591,83.4218787 333.375154,82.6875 C333.476717,81.9531213 333.668122,81.2968779 333.949373,80.71875 C334.230624,80.1406221 334.632964,79.6796892 335.156404,79.3359375 C335.679844,78.9921858 336.371244,78.8593746 337.230623,78.9375 C337.543125,78.9375 337.894684,79.011718 338.285311,79.1601562 C338.675937,79.3085945 339.050934,79.503905 339.410311,79.7460938 C339.769687,79.9882825 340.082184,80.2773421 340.347811,80.6132812 C340.613437,80.9492204 340.777498,81.312498 340.839998,81.703125 C340.949374,81.8593758 340.886874,82.0546863 340.652498,82.2890625 C340.418122,82.5234387 340.09,82.7851548 339.668123,83.0742188 C339.246246,83.3632827 338.769688,83.6562485 338.238436,83.953125 C337.707183,84.2500015 337.195469,84.5312487 336.703279,84.796875 C336.211089,85.0625013 335.7775,85.296874 335.402498,85.5 C335.027496,85.703126 334.785311,85.8437496 334.675936,85.921875 C334.769686,86.531253 334.871247,87.1718716 334.980623,87.84375 C335.089999,88.5156284 335.246247,89.1328097 335.449373,89.6953125 C335.652499,90.2578153 335.906403,90.7226544 336.211092,91.0898438 C336.515781,91.4570331 336.902496,91.640625 337.371248,91.640625 C338.058751,91.6875002 338.648589,91.5859388 339.140779,91.3359375 C339.632969,91.0859362 340.043121,90.7578145 340.371248,90.3515625 C340.699375,89.9453105 340.961091,89.5000024 341.156404,89.015625 C341.351718,88.5312476 341.500154,88.0703147 341.601717,87.6328125 C341.70328,87.1953103 341.773592,86.8242203 341.812654,86.5195312 C341.851717,86.2148422 341.886873,86.0468752 341.918123,86.015625 C342.089999,85.9218745 342.285309,85.9179683 342.504061,86.0039062 C342.722812,86.0898442 342.84781,86.3203106 342.879061,86.6953125 C342.894686,87.3046905 342.761874,87.9999961 342.480623,88.78125 C342.199372,89.5625039 341.812657,90.2812467 341.320467,90.9375 C340.828277,91.5937533 340.242345,92.1210918 339.562654,92.5195312 C338.882963,92.9179707 338.160314,93.0546881 337.394686,92.9296875 C336.597807,92.9140624 335.965,92.683596 335.496248,92.2382812 C335.027496,91.7929665 334.656406,91.2539094 334.382967,90.6210938 C334.109528,89.9882781 333.910311,89.320316 333.785311,88.6171875 C333.66031,87.914059 333.550936,87.2890652 333.457186,86.7421875 Z M339.597811,81.703125 C339.097808,81.0156216 338.590001,80.5781259 338.074373,80.390625 C337.558745,80.2031241 337.027501,80.1484371 336.480623,80.2265625 C336.152496,80.2734377 335.863437,80.42578 335.613436,80.6835938 C335.363434,80.9414075 335.160311,81.2695293 335.004061,81.6679688 C334.84781,82.0664082 334.738436,82.5117163 334.675936,83.0039062 C334.613435,83.4960962 334.605623,83.9999974 334.652498,84.515625 L339.597811,81.703125 Z M344.53656,91.3125 C344.833437,91.5468762 345.196715,91.6718749 345.626404,91.6875 C346.056094,91.7031251 346.509214,91.6445319 346.985779,91.5117188 C347.462344,91.3789056 347.946714,91.183595 348.438904,90.9257812 C348.931094,90.6679675 349.384215,90.3828141 349.798279,90.0703125 C350.212344,89.7578109 350.571715,89.425783 350.876404,89.0742188 C351.181093,88.7226545 351.388122,88.3867204 351.497498,88.0664062 C351.606873,87.7460921 351.599061,87.4531263 351.47406,87.1875 C351.34906,86.9218737 351.067813,86.7109383 350.63031,86.5546875 C349.833431,86.7421884 349.036564,86.8906245 348.239685,87 C347.442806,87.1093755 346.72797,87.1093755 346.095154,87 C345.462339,86.8906245 344.950625,86.6328145 344.559998,86.2265625 C344.169371,85.8203105 343.989685,85.1953167 344.020935,84.3515625 C344.067811,83.5390584 344.290465,82.7773473 344.688904,82.0664062 C345.087344,81.3554652 345.595151,80.7500025 346.212342,80.25 C346.829532,79.7499975 347.517025,79.3671888 348.274842,79.1015625 C349.032658,78.8359362 349.802182,78.7265623 350.583435,78.7734375 C350.739686,78.7890626 350.884216,78.8007812 351.017029,78.8085938 C351.149842,78.8164063 351.270935,78.8437498 351.38031,78.890625 C351.489686,78.9375002 351.571716,79.007812 351.626404,79.1015625 C351.681092,79.195313 351.700623,79.3359366 351.684998,79.5234375 C351.669373,79.7578137 351.583436,79.9453118 351.427185,80.0859375 C351.270935,80.2265632 351.059999,80.2812502 350.794373,80.25 C349.872493,80.0624991 349.044377,80.1015612 348.309998,80.3671875 C347.575619,80.6328138 346.96625,81.0039039 346.481873,81.4804688 C345.997495,81.9570336 345.653749,82.4921845 345.450623,83.0859375 C345.247497,83.6796905 345.216247,84.2187476 345.356873,84.703125 C345.653749,85.2656278 346.040464,85.621093 346.517029,85.7695312 C346.993594,85.9179695 347.501401,85.9687502 348.040467,85.921875 C348.579532,85.8749998 349.130308,85.7929693 349.69281,85.6757812 C350.255313,85.5585932 350.763121,85.5195311 351.216248,85.5585938 C351.669375,85.5976564 352.044371,85.7695297 352.341248,86.0742188 C352.638124,86.3789078 352.802185,86.9374959 352.833435,87.75 C352.81781,88.2656276 352.645937,88.7617164 352.31781,89.2382812 C351.989684,89.7148461 351.571719,90.1601542 351.063904,90.5742188 C350.556089,90.9882833 349.989689,91.3632796 349.364685,91.6992188 C348.739682,92.0351579 348.118595,92.3124989 347.501404,92.53125 C346.884214,92.7500011 346.306094,92.8984371 345.767029,92.9765625 C345.227964,93.0546879 344.794375,93.0468755 344.466248,92.953125 C344.106871,92.6406234 343.919373,92.3320328 343.903748,92.0273438 C343.888123,91.7226547 344.099058,91.4843759 344.53656,91.3125 Z" id="Mit-der-Kraft-des-Wi" stroke="#5C5C5C" fill="#5C5C5C"></path>
            </g>
        </g>
    </g>
</svg>