<?xml version="1.0" encoding="UTF-8"?>
<svg width="343px" height="103px" viewBox="0 0 343 103" version="1.1" xmlns="http://www.w3.org/2000/svg" xmlns:xlink="http://www.w3.org/1999/xlink">
    <!-- Generator: Sketch 46.2 (44496) - http://www.bohemiancoding.com/sketch -->
    <title>Group 7</title>
    <desc>Created with Sketch.</desc>
    <defs>
        <polygon id="path-1" points="0.0444619202 70.7601606 0.0444619202 0.70960117 342.382593 0.70960117 342.382593 35.7348809 342.382593 70.7601606 0.0444619202 70.7601606"></polygon>
    </defs>
    <g id="Energy" stroke="none" stroke-width="1" fill="none" fill-rule="evenodd">
        <g id="01-copy-26" transform="translate(-138.000000, -306.000000)">
            <g id="Group-7" transform="translate(135.000000, 306.000000)">
                <g id="Group-6">
                    <g id="GWE_Logo_4c-Copy-3" transform="translate(172.294819, 36.500000) rotate(-360.000000) translate(-172.294819, -36.500000) translate(0.794819, 0.000000)">
                        <path d="M20.6303242,72.5353828 C16.7374331,72.5353828 12.6914923,71.8257816 8.26292743,70.3724404 L7.98398215,70.2773392 L9.76873821,63.5568553 L10.0723689,63.644641 C13.404901,64.5444445 16.8534545,65.4759485 20.3217564,65.4759485 C24.1282486,65.4759485 32.9829098,64.3664346 32.9829098,54.1174528 L32.9829098,36.9333997 C32.9829098,28.3669773 27.1991152,23.8850291 21.4869084,23.8850291 C12.7680171,23.8850291 9.67493361,31.0346876 9.67493361,37.162618 C9.67493361,43.9830801 14.6934801,48.7454549 21.872001,48.7454549 C24.9132451,48.7454549 27.7742856,47.3311296 30.4180943,45.7973181 L30.8821803,45.5315225 L30.8821803,53.2274032 L30.721725,53.3127504 C27.9989229,54.7807226 24.3282005,55.8097662 21.7979447,55.8097662 C10.6376651,55.8097662 2.22240448,47.6261871 2.22240448,36.7822132 C2.22240448,25.2188842 10.454993,16.8255947 21.7979447,16.8255947 C33.466744,16.8255947 40.4379074,26.2698742 40.4379074,35.4020267 L40.4379074,51.8179548 C40.4379074,64.5956529 32.8496085,72.5353828 20.6303242,72.5353828" id="Fill-9" fill="#777776"></path>
                        <path d="M53.8050638,55.0367643 L46.3500662,55.0367643 L46.3500662,17.5937197 L53.4964961,17.5937197 L53.4964961,21.3514359 C55.7527437,18.2277276 58.8532328,16.8255947 63.4397843,16.8255947 L65.2985967,16.8255947 L65.2985967,23.8850291 L63.9828636,23.8850291 C57.1326588,23.8850291 53.8050638,28.3523464 53.8050638,37.5430227 L53.8050638,55.0367643" id="Fill-10" fill="#777776"></path>
                        <path d="M85.9454843,55.8756055 C82.4327486,55.8756055 78.8508938,54.8953317 75.5948865,53.0420778 C71.0823912,50.4743458 67.8214469,46.3971871 66.4094407,41.568973 C64.9431266,36.557872 65.6565353,31.1956281 68.4114285,26.4673921 C72.005626,20.2931304 78.3275628,16.608569 85.3086003,16.608569 C88.7843079,16.608569 92.2328614,17.5254419 95.2864482,19.2592098 C102.477312,23.3509993 105.802438,29.837388 105.165554,38.5452429 L105.145806,38.8305465 L75.742999,38.3867409 L76.0639095,31.7394118 L76.3650717,31.7491657 L97.0193649,32.0344693 C96.1849976,29.1424178 95.0642794,27.2818484 91.7194046,25.3749477 C89.7914731,24.2800648 87.7672685,23.7265271 85.7035671,23.7265271 C81.4206463,23.7265271 77.5771259,26.1186877 75.1406747,30.2958245 C73.3534501,33.3585705 72.7733427,36.7114969 73.521311,39.73035 C74.2519995,42.7223797 76.2589244,45.2730423 79.156993,46.9263399 C81.3934923,48.1992327 83.449788,48.8186097 85.4517758,48.8186097 C88.8114618,48.8186097 91.9835387,47.0263181 95.4246866,43.1783777 L95.6147643,42.9637904 L101.645413,47.4506157 L101.475084,47.6895879 C97.8660749,52.8933298 92.2057075,55.8756055 85.9454843,55.8756055" id="Fill-11" fill="#777776"></path>
                        <path d="M129.036358,55.8756055 C125.521154,55.8756055 121.936831,54.8953317 118.683292,53.0420778 C114.170797,50.4743458 110.909852,46.3971871 109.492909,41.568973 C108.031532,36.557872 108.744941,31.1956281 111.499834,26.4673921 C115.098969,20.2931304 121.415968,16.608569 128.404411,16.608569 C131.87765,16.608569 135.323735,17.5254419 138.379791,19.2592098 C145.565717,23.3509993 148.890844,29.837388 148.256428,38.5452429 L148.231743,38.8305465 L118.831404,38.3867409 L119.152315,31.7394118 L119.455946,31.7491657 L140.112707,32.0344693 C139.275872,29.1424178 138.150216,27.2818484 134.810279,25.3749477 C132.879879,24.2800648 130.860611,23.7265271 128.794441,23.7265271 C124.509052,23.7265271 120.660594,26.1186877 118.22908,30.2958245 C116.439387,33.3585705 115.85928,36.7114969 116.609716,39.73035 C117.342873,42.7223797 119.352267,45.2730423 122.252804,46.9263399 C124.484366,48.1992327 126.54313,48.8186097 128.540181,48.8186097 C131.902336,48.8186097 135.074413,47.0263181 138.513092,43.1783777 L138.70317,42.9637904 L144.741224,47.4506157 L144.570895,47.6895879 C140.961886,52.8933298 135.29905,55.8756055 129.036358,55.8756055" id="Fill-12" fill="#777776"></path>
                        <path d="M185.499326,55.0367643 L178.044328,55.0367643 L178.044328,33.2488383 C178.044328,27.9938881 174.190933,23.8850291 169.26866,23.8850291 C164.346387,23.8850291 160.490524,27.9938881 160.490524,33.2488383 L160.490524,55.0367643 L153.035526,55.0367643 L153.035526,33.2488383 C153.035526,23.5802176 159.707996,16.8255947 169.26866,16.8255947 C178.824387,16.8255947 185.499326,23.5802176 185.499326,33.2488383 L185.499326,55.0367643" id="Fill-13" fill="#777776"></path>
                        <path d="M229.01232,55.8097662 C224.564007,55.8097662 220.532878,53.9467583 218.135923,50.8035422 C215.7365,53.9467583 211.70537,55.8097662 207.261994,55.8097662 C199.597171,55.8097662 193.588739,50.1451493 193.588739,42.9174591 L193.588739,17.5937197 L201.041268,17.5937197 L201.041268,41.3836476 C201.041268,45.8558419 203.54437,48.7454549 207.412575,48.7454549 C212.053435,48.7454549 214.405956,45.9070502 214.405956,40.3058341 L214.405956,17.5937197 L221.868359,17.5937197 L221.868359,40.3058341 C221.868359,45.9875205 224.156698,48.7454549 228.861739,48.7454549 C232.725008,48.7454549 235.22811,45.8558419 235.22811,41.3836476 L235.22811,17.5937197 L242.683107,17.5937197 L242.683107,42.9174591 C242.683107,50.1451493 236.677144,55.8097662 229.01232,55.8097662" id="Fill-14" fill="#4D4E4C"></path>
                        <path d="M250.777458,55.0367643 L258.234924,55.0367643 L258.234924,17.5937197 L250.777458,17.5937197 L250.777458,55.0367643 Z M254.507425,14.0652218 C251.599482,14.0652218 250.076392,11.8632635 250.076392,9.68812869 C250.076392,7.5203093 251.599482,5.32078953 254.507425,5.32078953 C257.412899,5.32078953 258.931053,7.5203093 258.931053,9.68812869 C258.931053,11.8632635 257.412899,14.0652218 254.507425,14.0652218 L254.507425,14.0652218 Z" id="Fill-15" fill="#4D4E4C"></path>
                        <path d="M298.79801,55.0367643 L291.338076,55.0367643 L291.338076,33.2488383 C291.338076,27.9938881 287.484681,23.8850291 282.562408,23.8850291 C277.640135,23.8850291 273.784272,27.9938881 273.784272,33.2488383 L273.784272,55.0367643 L266.326805,55.0367643 L266.326805,33.2488383 C266.326805,23.5802176 273.004212,16.8255947 282.562408,16.8255947 C292.123072,16.8255947 298.79801,23.5802176 298.79801,33.2488383 L298.79801,55.0367643" id="Fill-16" fill="#4D4E4C"></path>
                        <g id="Group-20">
                            <mask id="mask-2" fill="white">
                                <use xlink:href="#path-1"></use>
                            </mask>
                            <g id="Clip-18"></g>
                            <path d="M323.273607,55.8097662 C311.747983,55.8097662 303.69313,47.4164768 303.69313,35.4020267 C303.69313,25.1603604 311.881284,16.8255947 321.952937,16.8255947 C325.951975,16.8255947 329.558516,17.7180828 332.668879,19.4737971 L332.826866,19.5640213 L332.826866,27.3818266 L332.340563,27.0526302 C330.010259,25.4749258 326.260543,23.8850291 323.118089,23.8850291 C315.959316,23.8850291 311.153064,28.8473603 311.153064,36.2384295 C311.153064,43.6075523 316.137051,48.7454549 323.273607,48.7454549 C330.350918,48.7454549 334.927595,42.9637904 334.927595,34.0145248 L334.927595,0.70960117 L342.382593,0.70960117 L342.382593,35.2435248 C342.382593,47.3506375 334.522754,55.8097662 323.273607,55.8097662" id="Fill-17" fill="#4D4E4C" mask="url(#mask-2)"></path>
                        </g>
                    </g>
                </g>
                <path d="M107.015877,75.734375 C107.015877,75.4999988 107.058845,75.3320318 107.144783,75.2304687 C107.230721,75.1289057 107.340095,75.0664064 107.472908,75.0429687 C107.605721,75.0195311 107.746345,75.0234373 107.894783,75.0546875 C108.043221,75.0859377 108.179939,75.1249998 108.304939,75.171875 L112.406502,93.21875 C112.469002,93.1562497 112.597907,92.8593777 112.793221,92.328125 C112.988534,91.7968723 113.215094,91.1289103 113.472908,90.3242187 C113.730722,89.5195272 114.015875,88.6250049 114.328377,87.640625 C114.640878,86.6562451 114.949469,85.6679737 115.254158,84.6757812 C115.558847,83.6835888 115.844001,82.742192 116.109627,81.8515625 C116.375253,80.960933 116.601813,80.2031281 116.789314,79.578125 C116.89869,79.3437488 117.035407,79.1679693 117.199471,79.0507812 C117.363534,78.9335932 117.539313,78.875 117.726814,78.875 C117.914315,78.875 118.094001,78.9218745 118.265877,79.015625 C118.437753,79.1093755 118.578376,79.2499991 118.687752,79.4375 L123.328377,92.984375 L126.844002,75.40625 C126.922127,75.2656243 127.027595,75.1523442 127.160408,75.0664062 C127.293221,74.9804683 127.422126,74.9375 127.547127,74.9375 C127.672128,74.9375 127.79322,74.9960932 127.910408,75.1132812 C128.027596,75.2304693 128.117439,75.4374985 128.179939,75.734375 L124.219002,94.484375 C124.187752,94.5468753 124.113534,94.6289057 123.996346,94.7304687 C123.879158,94.8320318 123.738534,94.8984373 123.574471,94.9296875 C123.410407,94.9609377 123.234628,94.929688 123.047127,94.8359375 C122.859626,94.742187 122.695565,94.5312516 122.554939,94.203125 L117.726814,80.890625 L113.367439,94.671875 C113.226814,94.8593759 113.047128,94.9726561 112.828377,95.0117187 C112.609626,95.0507814 112.39869,95.0468752 112.195564,95 C111.992438,94.9531248 111.812753,94.8867192 111.656502,94.8007812 C111.500251,94.7148433 111.414314,94.6484377 111.398689,94.6015625 L107.015877,75.734375 Z M129.74304,80.609375 C129.836791,80.5624998 129.946165,80.5234377 130.071165,80.4921875 C130.196166,80.4609373 130.317259,80.4453125 130.434447,80.4453125 C130.551635,80.4453125 130.664915,80.4687498 130.77429,80.515625 C130.883666,80.5625002 130.969603,80.6484369 131.032103,80.7734375 C131.032103,81.7890676 131.043821,82.8867129 131.067259,84.0664062 C131.090697,85.2460996 131.121946,86.4414002 131.161009,87.6523437 C131.200072,88.8632873 131.235228,90.0546816 131.266478,91.2265625 C131.297728,92.3984434 131.328978,93.48437 131.360228,94.484375 C131.375853,94.7187512 131.313354,94.8984369 131.172728,95.0234375 C131.032102,95.1484381 130.87976,95.2109375 130.715697,95.2109375 C130.551633,95.2109375 130.399291,95.1523443 130.258665,95.0351562 C130.11804,94.9179682 130.047728,94.7343762 130.047728,94.484375 L129.74304,80.609375 Z M129.46179,75.828125 C129.46179,75.624999 129.532102,75.4882816 129.672728,75.4179687 C129.813354,75.3476559 129.969602,75.3125 130.141478,75.3125 C130.48523,75.3125 130.700071,75.4257801 130.786009,75.6523437 C130.871947,75.8789074 130.914915,76.1406235 130.914915,76.4375 C130.821165,76.6250009 130.696166,76.7578121 130.539915,76.8359375 C130.383665,76.9140629 130.22351,76.9296877 130.059447,76.8828125 C129.895383,76.8359373 129.75476,76.7265634 129.637572,76.5546875 C129.520384,76.3828116 129.46179,76.1406266 129.46179,75.828125 Z M135.196766,83.8671875 L133.040516,84.59375 C132.86864,84.5468748 132.724111,84.4609381 132.606923,84.3359375 C132.489734,84.2109369 132.407704,84.0781257 132.360829,83.9375 C132.313954,83.7968743 132.302235,83.6640631 132.325673,83.5390625 C132.34911,83.4140619 132.415516,83.3203128 132.524891,83.2578125 L135.196766,82.25 L135.149891,75.6171875 C135.196767,75.4140615 135.298328,75.2656255 135.454579,75.171875 C135.61083,75.0781245 135.770984,75.0351562 135.935048,75.0429687 C136.099111,75.0507813 136.251453,75.1054682 136.392079,75.2070312 C136.532704,75.3085943 136.626454,75.4374992 136.673329,75.59375 C136.642079,76.0781274 136.618641,76.5898411 136.603016,77.1289062 C136.587391,77.6679714 136.575673,78.2070286 136.56786,78.7460937 C136.560047,79.2851589 136.563954,79.8085912 136.579579,80.3164062 C136.595204,80.8242213 136.626454,81.2890604 136.673329,81.7109375 L140.306141,80.234375 C140.524892,80.1718747 140.696766,80.1914057 140.821766,80.2929687 C140.946767,80.3945318 141.028797,80.5273429 141.06786,80.6914062 C141.106923,80.8554696 141.095204,81.0156242 141.032704,81.171875 C140.970203,81.3281258 140.86083,81.4374997 140.704579,81.5 L136.673329,83.328125 C136.673329,83.4843758 136.681141,83.8554658 136.696766,84.4414062 C136.712391,85.0273467 136.728016,85.718746 136.743641,86.515625 C136.759266,87.312504 136.774891,88.164058 136.790516,89.0703125 C136.806141,89.976567 136.81786,90.828121 136.825673,91.625 C136.833485,92.421879 136.841297,93.1132783 136.84911,93.6992187 C136.856923,94.2851592 136.860829,94.6562492 136.860829,94.8125 C136.829579,95.3281276 136.681143,95.5859375 136.415516,95.5859375 C136.14989,95.5859375 135.86083,95.4609387 135.548329,95.2109375 L135.196766,83.8671875 Z M149.416117,94.71875 C149.462992,94.1874973 149.502055,93.5156291 149.533305,92.703125 C149.564555,91.8906209 149.576273,91.0234421 149.568461,90.1015625 C149.560648,89.1796829 149.533305,88.2539109 149.48643,87.3242187 C149.439554,86.3945266 149.365336,85.5546912 149.263773,84.8046875 C149.16221,84.0546837 149.029399,83.4335962 148.865336,82.9414062 C148.701273,82.4492163 148.502056,82.1796877 148.26768,82.1328125 C147.767677,81.9765617 147.287213,82.01953 146.826273,82.2617187 C146.365334,82.5039075 145.931744,82.8867161 145.525492,83.4101562 C145.11924,83.9335964 144.744244,84.5585901 144.400492,85.2851562 C144.05674,86.0117224 143.740337,86.7773397 143.451273,87.5820312 C143.16221,88.3867228 142.9044,89.1914022 142.677836,89.9960937 C142.451272,90.8007853 142.26768,91.5390591 142.127055,92.2109375 C141.986429,92.8828159 141.880961,93.4570289 141.810648,93.9335937 C141.740336,94.4101586 141.712992,94.7187493 141.728617,94.859375 C141.619242,94.859375 141.482524,94.8789061 141.318461,94.9179687 C141.154398,94.9570314 140.994243,94.9882811 140.837992,95.0117187 C140.681741,95.0351564 140.545024,95.0273439 140.427836,94.9882812 C140.310648,94.9492186 140.252055,94.8515633 140.252055,94.6953125 L139.853617,75.40625 C139.853617,75.2656243 139.916117,75.1757814 140.041117,75.1367187 C140.166118,75.0976561 140.306741,75.0859374 140.462992,75.1015625 C140.619243,75.1171876 140.767679,75.1562497 140.908305,75.21875 C141.04893,75.2812503 141.142679,75.3437497 141.189555,75.40625 L141.306742,90.21875 C141.400493,89.9531237 141.521585,89.5234405 141.670023,88.9296875 C141.818462,88.3359345 142.009866,87.6718787 142.244242,86.9375 C142.478618,86.2031213 142.767678,85.4492226 143.11143,84.6757812 C143.455181,83.9023399 143.873146,83.2070343 144.365336,82.5898437 C144.857526,81.9726532 145.443458,81.4843768 146.123148,81.125 C146.802839,80.7656232 147.587988,80.6249996 148.478617,80.703125 C148.759869,80.8593758 149.013772,81.0585925 149.240336,81.3007812 C149.4669,81.54297 149.670023,81.8789041 149.849711,82.3085937 C150.029399,82.7382834 150.185648,83.2812467 150.318461,83.9375 C150.451274,84.5937533 150.564554,85.4140576 150.658305,86.3984375 C150.752055,87.3828174 150.826273,88.5624931 150.880961,89.9375 C150.935649,91.3125069 150.970805,92.9218658 150.98643,94.765625 C150.939554,94.8750005 150.845805,94.9804682 150.70518,95.0820312 C150.564554,95.1835943 150.412212,95.2499998 150.248148,95.28125 C150.084085,95.3125002 149.92393,95.2890629 149.76768,95.2109375 C149.611429,95.1328121 149.494243,94.9687512 149.416117,94.71875 Z M165.972007,83.8671875 L163.815757,84.59375 C163.643881,84.5468748 163.499351,84.4609381 163.382163,84.3359375 C163.264975,84.2109369 163.182944,84.0781257 163.136069,83.9375 C163.089194,83.7968743 163.077475,83.6640631 163.100913,83.5390625 C163.12435,83.4140619 163.190756,83.3203128 163.300132,83.2578125 L165.972007,82.25 L165.925132,75.6171875 C165.972007,75.4140615 166.073568,75.2656255 166.229819,75.171875 C166.38607,75.0781245 166.546225,75.0351562 166.710288,75.0429687 C166.874351,75.0507813 167.026693,75.1054682 167.167319,75.2070312 C167.307945,75.3085943 167.401694,75.4374992 167.448569,75.59375 C167.417319,76.0781274 167.393882,76.5898411 167.378257,77.1289062 C167.362631,77.6679714 167.350913,78.2070286 167.3431,78.7460937 C167.335288,79.2851589 167.339194,79.8085912 167.354819,80.3164062 C167.370444,80.8242213 167.401694,81.2890604 167.448569,81.7109375 L171.081382,80.234375 C171.300133,80.1718747 171.472006,80.1914057 171.597007,80.2929687 C171.722007,80.3945318 171.804038,80.5273429 171.8431,80.6914062 C171.882163,80.8554696 171.870444,81.0156242 171.807944,81.171875 C171.745444,81.3281258 171.63607,81.4374997 171.479819,81.5 L167.448569,83.328125 C167.448569,83.4843758 167.456381,83.8554658 167.472007,84.4414062 C167.487632,85.0273467 167.503256,85.718746 167.518882,86.515625 C167.534507,87.312504 167.550131,88.164058 167.565757,89.0703125 C167.581382,89.976567 167.5931,90.828121 167.600913,91.625 C167.608725,92.421879 167.616538,93.1132783 167.62435,93.6992187 C167.632163,94.2851592 167.636069,94.6562492 167.636069,94.8125 C167.604819,95.3281276 167.456383,95.5859375 167.190757,95.5859375 C166.92513,95.5859375 166.636071,95.4609387 166.323569,95.2109375 L165.972007,83.8671875 Z M180.191358,94.71875 C180.238233,94.1874973 180.277295,93.5156291 180.308545,92.703125 C180.339795,91.8906209 180.351514,91.0234421 180.343701,90.1015625 C180.335889,89.1796829 180.308545,88.2539109 180.26167,87.3242187 C180.214795,86.3945266 180.140577,85.5546912 180.039014,84.8046875 C179.937451,84.0546837 179.80464,83.4335962 179.640576,82.9414062 C179.476513,82.4492163 179.277296,82.1796877 179.04292,82.1328125 C178.542918,81.9765617 178.062454,82.01953 177.601514,82.2617187 C177.140574,82.5039075 176.706985,82.8867161 176.300733,83.4101562 C175.89448,83.9335964 175.519484,84.5585901 175.175733,85.2851562 C174.831981,86.0117224 174.515578,86.7773397 174.226514,87.5820312 C173.93745,88.3867228 173.67964,89.1914022 173.453076,89.9960937 C173.226513,90.8007853 173.042921,91.5390591 172.902295,92.2109375 C172.761669,92.8828159 172.656202,93.4570289 172.585889,93.9335937 C172.515576,94.4101586 172.488232,94.7187493 172.503858,94.859375 C172.394482,94.859375 172.257765,94.8789061 172.093701,94.9179687 C171.929638,94.9570314 171.769483,94.9882811 171.613233,95.0117187 C171.456982,95.0351564 171.320264,95.0273439 171.203076,94.9882812 C171.085888,94.9492186 171.027295,94.8515633 171.027295,94.6953125 L170.628858,75.40625 C170.628858,75.2656243 170.691357,75.1757814 170.816358,75.1367187 C170.941358,75.0976561 171.081982,75.0859374 171.238233,75.1015625 C171.394483,75.1171876 171.542919,75.1562497 171.683545,75.21875 C171.824171,75.2812503 171.91792,75.3437497 171.964795,75.40625 L172.081983,90.21875 C172.175733,89.9531237 172.296826,89.5234405 172.445264,88.9296875 C172.593702,88.3359345 172.785106,87.6718787 173.019483,86.9375 C173.253859,86.2031213 173.542918,85.4492226 173.88667,84.6757812 C174.230422,83.9023399 174.648386,83.2070343 175.140576,82.5898437 C175.632766,81.9726532 176.218698,81.4843768 176.898389,81.125 C177.57808,80.7656232 178.363228,80.6249996 179.253858,80.703125 C179.535109,80.8593758 179.789013,81.0585925 180.015576,81.3007812 C180.24214,81.54297 180.445263,81.8789041 180.624951,82.3085937 C180.80464,82.7382834 180.960888,83.2812467 181.093701,83.9375 C181.226514,84.5937533 181.339795,85.4140576 181.433545,86.3984375 C181.527295,87.3828174 181.601513,88.5624931 181.656201,89.9375 C181.710889,91.3125069 181.746045,92.9218658 181.76167,94.765625 C181.714795,94.8750005 181.621046,94.9804682 181.48042,95.0820312 C181.339794,95.1835943 181.187452,95.2499998 181.023389,95.28125 C180.859325,95.3125002 180.699171,95.2890629 180.54292,95.2109375 C180.386669,95.1328121 180.269483,94.9687512 180.191358,94.71875 Z M184.004458,88.7421875 C183.895083,88.835938 183.703679,88.8710939 183.43024,88.8476562 C183.156801,88.8242186 182.906803,88.7656255 182.68024,88.671875 C182.453676,88.5781245 182.301334,88.4492196 182.223208,88.2851562 C182.145083,88.1210929 182.238832,87.9296886 182.504458,87.7109375 C182.613834,87.617187 182.734927,87.5507814 182.86774,87.5117187 L183.266177,87.3945312 C183.39899,87.3554686 183.508364,87.2968754 183.594302,87.21875 C183.68024,87.1406246 183.731021,87.0156259 183.746646,86.84375 C183.762271,86.1406215 183.820864,85.4218787 183.922427,84.6875 C184.02399,83.9531213 184.215395,83.2968779 184.496646,82.71875 C184.777897,82.1406221 185.180237,81.6796892 185.703677,81.3359375 C186.227117,80.9921858 186.918517,80.8593746 187.777896,80.9375 C188.090398,80.9375 188.441956,81.011718 188.832583,81.1601562 C189.22321,81.3085945 189.598207,81.503905 189.957583,81.7460937 C190.31696,81.9882825 190.629457,82.2773421 190.895083,82.6132812 C191.16071,82.9492204 191.324771,83.312498 191.387271,83.703125 C191.496646,83.8593758 191.434147,84.0546863 191.199771,84.2890625 C190.965395,84.5234387 190.637273,84.7851548 190.215396,85.0742187 C189.793519,85.3632827 189.316961,85.6562485 188.785708,85.953125 C188.254456,86.2500015 187.742742,86.5312487 187.250552,86.796875 C186.758362,87.0625013 186.324773,87.296874 185.949771,87.5 C185.574769,87.703126 185.332584,87.8437496 185.223208,87.921875 C185.316959,88.531253 185.41852,89.1718716 185.527896,89.84375 C185.637271,90.5156284 185.79352,91.1328097 185.996646,91.6953125 C186.199772,92.2578153 186.453676,92.7226544 186.758365,93.0898437 C187.063054,93.4570331 187.449769,93.640625 187.918521,93.640625 C188.606024,93.6875002 189.195862,93.5859387 189.688052,93.3359375 C190.180242,93.0859362 190.590394,92.7578145 190.918521,92.3515625 C191.246648,91.9453105 191.508364,91.5000024 191.703677,91.015625 C191.898991,90.5312476 192.047427,90.0703147 192.14899,89.6328125 C192.250553,89.1953103 192.320864,88.8242203 192.359927,88.5195312 C192.39899,88.2148422 192.434146,88.0468752 192.465396,88.015625 C192.637272,87.9218745 192.832582,87.9179683 193.051333,88.0039062 C193.270085,88.0898442 193.395083,88.3203106 193.426333,88.6953125 C193.441959,89.3046905 193.309147,89.9999961 193.027896,90.78125 C192.746645,91.5625039 192.35993,92.2812467 191.86774,92.9375 C191.37555,93.5937533 190.789618,94.1210918 190.109927,94.5195312 C189.430236,94.9179707 188.707587,95.0546881 187.941958,94.9296875 C187.145079,94.9140624 186.512273,94.683596 186.043521,94.2382812 C185.574769,93.7929665 185.203679,93.2539094 184.93024,92.6210937 C184.656801,91.9882781 184.457584,91.320316 184.332583,90.6171875 C184.207583,89.914059 184.098209,89.2890652 184.004458,88.7421875 Z M190.145083,83.703125 C189.645081,83.0156216 189.137274,82.5781259 188.621646,82.390625 C188.106018,82.2031241 187.574774,82.1484371 187.027896,82.2265625 C186.699769,82.2734377 186.41071,82.42578 186.160708,82.6835937 C185.910707,82.9414075 185.707584,83.2695293 185.551333,83.6679687 C185.395083,84.0664082 185.285709,84.5117163 185.223208,85.0039062 C185.160708,85.4960962 185.152896,85.9999974 185.199771,86.515625 L190.145083,83.703125 Z M207.052535,101.9375 C207.193161,99.9999903 207.294722,98.3906314 207.357223,97.109375 C207.419723,95.8281186 207.462691,94.7304733 207.486129,93.8164062 C207.509567,92.9023392 207.513473,92.0937535 207.497848,91.390625 C207.482223,90.6874965 207.458785,89.9414102 207.427535,89.1523437 C207.396285,88.3632773 207.361129,87.4570364 207.322067,86.4335937 C207.283004,85.4101511 207.247848,84.1171953 207.216598,82.5546875 C207.247848,82.3828116 207.310347,82.2304694 207.404098,82.0976562 C207.497848,81.9648431 207.603316,81.871094 207.720504,81.8164062 C207.837692,81.7617185 207.966597,81.7656247 208.107223,81.828125 C208.247849,81.8906253 208.388472,82.0312489 208.529098,82.25 L208.458785,85.296875 C208.990038,84.6093716 209.587688,83.9843778 210.251754,83.421875 C210.91582,82.8593722 211.587688,82.3945331 212.267379,82.0273437 C212.94707,81.6601544 213.60722,81.4023445 214.247848,81.2539062 C214.888476,81.105468 215.447064,81.0937494 215.923629,81.21875 C216.400194,81.3437506 216.767378,81.6210916 217.025192,82.0507812 C217.283005,82.4804709 217.372848,83.0859336 217.294723,83.8671875 C217.232222,84.5546909 217.021287,85.2929648 216.66191,86.0820312 C216.302534,86.8710977 215.861132,87.6523399 215.337692,88.4257812 C214.814251,89.1992226 214.240038,89.9453089 213.615035,90.6640625 C212.990032,91.3828161 212.380663,92.0156223 211.78691,92.5625 C211.193157,93.1093777 210.642382,93.5507796 210.134567,93.8867187 C209.626752,94.2226579 209.224412,94.390625 208.927535,94.390625 C208.91191,94.6093761 208.888473,94.9179668 208.857223,95.3164062 C208.825973,95.7148457 208.794723,96.1679662 208.763473,96.6757812 C208.732223,97.1835963 208.697067,97.7109348 208.658004,98.2578125 C208.618941,98.8046902 208.583785,99.3281225 208.552535,99.828125 C208.521285,100.328127 208.490035,100.781248 208.458785,101.1875 C208.427535,101.593752 208.41191,101.898436 208.41191,102.101562 C208.333785,102.179688 208.240036,102.25 208.13066,102.3125 C208.021285,102.375 207.904098,102.414062 207.779098,102.429687 C207.654097,102.445313 207.529098,102.417969 207.404098,102.347656 C207.279097,102.277343 207.161911,102.140626 207.052535,101.9375 Z M208.810348,93.0546875 C209.325975,92.8515615 209.943157,92.4414093 210.66191,91.8242187 C211.380664,91.2070282 212.095501,90.4648481 212.806442,89.5976562 C213.517383,88.7304644 214.161907,87.7812552 214.740035,86.75 C215.318163,85.7187448 215.724409,84.6953176 215.958785,83.6796875 C215.865035,83.179685 215.654099,82.8515633 215.325973,82.6953125 C214.997846,82.5390617 214.611131,82.5039058 214.165817,82.5898437 C213.720502,82.6757817 213.232225,82.8710922 212.700973,83.1757812 C212.16972,83.4804703 211.658007,83.8398417 211.165817,84.2539062 C210.673627,84.6679708 210.2166,85.1249975 209.794723,85.625 C209.372846,86.1250025 209.044724,86.6171851 208.810348,87.1015625 L208.810348,93.0546875 Z M221.131261,94.90625 C220.506258,94.8281246 219.994544,94.5781271 219.596105,94.15625 C219.197666,93.7343729 218.881262,93.218753 218.646886,92.609375 C218.41251,91.999997 218.260168,91.3320349 218.189855,90.6054687 C218.119542,89.8789026 218.100011,89.164066 218.131261,88.4609375 C218.178136,87.3828071 218.377353,86.3515674 218.728917,85.3671875 C219.080482,84.3828076 219.517977,83.5273474 220.041417,82.8007812 C220.564858,82.0742151 221.142977,81.5117207 221.775792,81.1132812 C222.408608,80.7148418 223.029696,80.5624995 223.639074,80.65625 C224.279702,80.7500005 224.799228,81.0546849 225.197667,81.5703125 C225.596107,82.0859401 225.904698,82.7187462 226.123449,83.46875 C226.3422,84.2187537 226.475011,85.0351518 226.521886,85.9179687 C226.568761,86.8007857 226.560949,87.6484334 226.498449,88.4609375 C226.420323,89.3828171 226.2172,90.2421835 225.889074,91.0390625 C225.560947,91.8359415 225.150795,92.5234346 224.658605,93.1015625 C224.166415,93.6796904 223.611733,94.1289046 222.994542,94.4492187 C222.377352,94.7695329 221.756264,94.9218751 221.131261,94.90625 Z M223.404699,81.9921875 C222.889071,81.9296872 222.408607,82.0898418 221.963292,82.4726562 C221.517978,82.8554707 221.119544,83.3632781 220.76798,83.9960937 C220.416416,84.6289094 220.12345,85.3476522 219.889074,86.1523437 C219.654698,86.9570353 219.498449,87.7499961 219.420324,88.53125 C219.357823,89.0937528 219.334386,89.671872 219.350011,90.265625 C219.365636,90.859378 219.439854,91.3984351 219.572667,91.8828125 C219.705481,92.3671899 219.916416,92.7617172 220.20548,93.0664062 C220.494544,93.3710953 220.881259,93.5234375 221.365636,93.5234375 C221.756263,93.5390626 222.166415,93.4062514 222.596105,93.125 C223.025795,92.8437486 223.428134,92.4648461 223.803136,91.9882812 C224.178138,91.5117164 224.510166,90.968753 224.79923,90.359375 C225.088294,89.749997 225.279698,89.1250032 225.373449,88.484375 C225.482824,87.8124966 225.510168,87.1210973 225.45548,86.4101562 C225.400792,85.6992152 225.283606,85.0390655 225.103917,84.4296875 C224.924229,83.8203095 224.689856,83.292971 224.400792,82.8476562 C224.111729,82.4023415 223.779701,82.1171881 223.404699,81.9921875 Z M229.538112,94.8125 C229.491237,94.5468737 229.417019,94.0664097 229.315456,93.3710937 C229.213893,92.6757778 229.096707,91.8750045 228.963893,90.96875 C228.83108,90.0624955 228.690457,89.1015676 228.542018,88.0859375 C228.39358,87.0703074 228.24905,86.1093795 228.108425,85.203125 C227.967799,84.2968705 227.8428,83.4960972 227.733425,82.8007812 C227.624049,82.1054653 227.545925,81.6250013 227.49905,81.359375 C227.545925,81.0781236 227.631862,80.8710944 227.756862,80.7382812 C227.881863,80.6054681 228.014674,80.5390625 228.1553,80.5390625 C228.295925,80.5390625 228.436549,80.585937 228.577175,80.6796875 C228.7178,80.773438 228.827174,80.8984367 228.9053,81.0546875 L230.334987,91.6953125 C230.381862,91.5234366 230.475611,91.1875025 230.616237,90.6875 C230.756863,90.1874975 230.917018,89.6054721 231.096706,88.9414062 C231.276394,88.2773404 231.471705,87.5703162 231.682643,86.8203125 C231.893582,86.0703087 232.092799,85.3632846 232.2803,84.6992187 C232.467801,84.0351529 232.631861,83.4531275 232.772487,82.953125 C232.913113,82.4531225 233.006862,82.1171884 233.053737,81.9453125 C233.163113,81.8046868 233.295924,81.6835943 233.452175,81.5820312 C233.608425,81.4804682 233.76858,81.4179689 233.932643,81.3945312 C234.096707,81.3710936 234.256861,81.4023433 234.413112,81.4882812 C234.569363,81.5742192 234.702174,81.7265614 234.81155,81.9453125 L238.139675,92.7734375 L239.49905,81.125 C239.56155,80.9687492 239.651393,80.835938 239.768581,80.7265625 C239.885769,80.617187 240.010768,80.5664062 240.143581,80.5742187 C240.276394,80.5820313 240.409205,80.6679679 240.542018,80.8320312 C240.674832,80.9960946 240.795924,81.2734355 240.9053,81.6640625 C240.889675,81.757813 240.854519,82.0039043 240.799831,82.4023437 C240.745143,82.8007832 240.678738,83.2890596 240.600612,83.8671875 C240.522487,84.4453154 240.43655,85.0937464 240.3428,85.8125 C240.249049,86.5312536 240.1553,87.2656212 240.06155,88.015625 C239.967799,88.7656287 239.87405,89.4999964 239.7803,90.21875 C239.686549,90.9375036 239.604519,91.5859346 239.534206,92.1640625 C239.463893,92.7421904 239.4053,93.2304668 239.358425,93.6289062 C239.311549,94.0273457 239.2803,94.273437 239.264675,94.3671875 C239.155299,94.6171887 238.995144,94.7968745 238.784206,94.90625 C238.573267,95.0156255 238.362332,95.0664063 238.151393,95.0585937 C237.940455,95.0507812 237.752957,94.992188 237.588893,94.8828125 C237.42483,94.773437 237.319362,94.6250009 237.272487,94.4375 L233.9678,83.609375 C233.686548,84.9218816 233.401395,86.1210883 233.112331,87.2070312 C232.823267,88.2929742 232.549832,89.289058 232.292018,90.1953125 C232.034205,91.101567 231.79202,91.9218713 231.565456,92.65625 C231.338892,93.3906287 231.147488,94.062497 230.991237,94.671875 C230.897487,94.8437509 230.7803,94.9648434 230.639675,95.0351562 C230.499049,95.1054691 230.358425,95.140625 230.2178,95.140625 C230.077174,95.140625 229.944363,95.1093753 229.819362,95.046875 C229.694362,94.9843747 229.600612,94.9062505 229.538112,94.8125 Z M243.101213,88.7421875 C242.991838,88.835938 242.800433,88.8710939 242.526994,88.8476562 C242.253555,88.8242186 242.003558,88.7656255 241.776994,88.671875 C241.550431,88.5781245 241.398089,88.4492196 241.319963,88.2851562 C241.241838,88.1210929 241.335587,87.9296886 241.601213,87.7109375 C241.710589,87.617187 241.831681,87.5507814 241.964494,87.5117187 L242.362932,87.3945312 C242.495745,87.3554686 242.605119,87.2968754 242.691057,87.21875 C242.776995,87.1406246 242.827776,87.0156259 242.843401,86.84375 C242.859026,86.1406215 242.917619,85.4218787 243.019182,84.6875 C243.120745,83.9531213 243.312149,83.2968779 243.593401,82.71875 C243.874652,82.1406221 244.276992,81.6796892 244.800432,81.3359375 C245.323872,80.9921858 246.015271,80.8593746 246.874651,80.9375 C247.187152,80.9375 247.538711,81.011718 247.929338,81.1601562 C248.319965,81.3085945 248.694961,81.503905 249.054338,81.7460937 C249.413715,81.9882825 249.726212,82.2773421 249.991838,82.6132812 C250.257464,82.9492204 250.421525,83.312498 250.484026,83.703125 C250.593401,83.8593758 250.530902,84.0546863 250.296526,84.2890625 C250.062149,84.5234387 249.734028,84.7851548 249.312151,85.0742187 C248.890274,85.3632827 248.413716,85.6562485 247.882463,85.953125 C247.35121,86.2500015 246.839497,86.5312487 246.347307,86.796875 C245.855117,87.0625013 245.421527,87.296874 245.046526,87.5 C244.671524,87.703126 244.429339,87.8437496 244.319963,87.921875 C244.413714,88.531253 244.515275,89.1718716 244.624651,89.84375 C244.734026,90.5156284 244.890275,91.1328097 245.093401,91.6953125 C245.296527,92.2578153 245.55043,92.7226544 245.855119,93.0898437 C246.159808,93.4570331 246.546523,93.640625 247.015276,93.640625 C247.702779,93.6875002 248.292617,93.5859387 248.784807,93.3359375 C249.276997,93.0859362 249.687149,92.7578145 250.015276,92.3515625 C250.343402,91.9453105 250.605118,91.5000024 250.800432,91.015625 C250.995745,90.5312476 251.144181,90.0703147 251.245744,89.6328125 C251.347307,89.1953103 251.417619,88.8242203 251.456682,88.5195312 C251.495745,88.2148422 251.5309,88.0468752 251.562151,88.015625 C251.734026,87.9218745 251.929337,87.9179683 252.148088,88.0039062 C252.366839,88.0898442 252.491838,88.3203106 252.523088,88.6953125 C252.538713,89.3046905 252.405902,89.9999961 252.124651,90.78125 C251.843399,91.5625039 251.456684,92.2812467 250.964494,92.9375 C250.472304,93.5937533 249.886373,94.1210918 249.206682,94.5195312 C248.526991,94.9179707 247.804342,95.0546881 247.038713,94.9296875 C246.241834,94.9140624 245.609028,94.683596 245.140276,94.2382812 C244.671523,93.7929665 244.300433,93.2539094 244.026994,92.6210937 C243.753555,91.9882781 243.554339,91.320316 243.429338,90.6171875 C243.304337,89.914059 243.194964,89.2890652 243.101213,88.7421875 Z M249.241838,83.703125 C248.741836,83.0156216 248.234028,82.5781259 247.718401,82.390625 C247.202773,82.2031241 246.671528,82.1484371 246.124651,82.2265625 C245.796524,82.2734377 245.507464,82.42578 245.257463,82.6835937 C245.007462,82.9414075 244.804339,83.2695293 244.648088,83.6679687 C244.491837,84.0664082 244.382463,84.5117163 244.319963,85.0039062 C244.257463,85.4960962 244.24965,85.9999974 244.296526,86.515625 L249.241838,83.703125 Z M253.945564,94.5546875 C253.898689,92.3984267 253.859627,90.57032 253.828377,89.0703125 C253.797126,87.570305 253.773689,86.3281299 253.758064,85.34375 C253.742439,84.3593701 253.73072,83.5898465 253.722908,83.0351562 C253.715095,82.480466 253.707283,82.0703138 253.69947,81.8046875 C253.691658,81.5390612 253.687752,81.3789065 253.687752,81.3242187 L253.687752,81.21875 C253.703377,81.0781243 253.773688,80.960938 253.898689,80.8671875 C254.02369,80.773437 254.160407,80.7148439 254.308845,80.6914062 C254.457284,80.6679686 254.601813,80.6874997 254.742439,80.75 C254.883065,80.8125003 254.984626,80.9140618 255.047127,81.0546875 L255.117439,86.4453125 C255.351815,85.3671821 255.730718,84.4687536 256.254158,83.75 C256.777598,83.0312464 257.367436,82.4648458 258.023689,82.0507812 C258.679942,81.6367167 259.363529,81.3671881 260.07447,81.2421875 C260.785411,81.1171869 261.445561,81.1093745 262.054939,81.21875 C262.258065,81.2656252 262.410407,81.3515619 262.51197,81.4765625 C262.613533,81.6015631 262.66822,81.7382805 262.676033,81.8867187 C262.683845,82.035157 262.644783,82.1757806 262.558845,82.3085937 C262.472907,82.4414069 262.359627,82.5390622 262.219002,82.6015625 C261.515873,82.5546873 260.855723,82.6132804 260.238533,82.7773437 C259.621342,82.9414071 259.058848,83.1835921 258.551033,83.5039062 C258.043218,83.8242204 257.59791,84.2031228 257.215095,84.640625 C256.832281,85.0781272 256.531503,85.5390601 256.312752,86.0234375 C255.984625,86.726566 255.761971,87.4648399 255.644783,88.2382812 C255.527595,89.0117226 255.457283,89.7812462 255.433845,90.546875 C255.410408,91.3125038 255.410408,92.0390591 255.433845,92.7265625 C255.457283,93.4140659 255.461189,94.0156224 255.445564,94.53125 C255.429939,94.7031259 255.355721,94.8320308 255.222908,94.9179687 C255.090095,95.0039067 254.941659,95.0507812 254.777595,95.0585937 C254.613532,95.0664063 254.449471,95.0273442 254.285408,94.9414062 C254.121344,94.8554683 254.008064,94.7265634 253.945564,94.5546875 Z M279.243641,94.90625 C278.618638,94.8281246 278.106924,94.5781271 277.708485,94.15625 C277.310045,93.7343729 276.993642,93.218753 276.759266,92.609375 C276.52489,91.999997 276.372548,91.3320349 276.302235,90.6054687 C276.231922,89.8789026 276.212391,89.164066 276.243641,88.4609375 C276.290516,87.3828071 276.489733,86.3515674 276.841297,85.3671875 C277.192861,84.3828076 277.630357,83.5273474 278.153797,82.8007812 C278.677237,82.0742151 279.255357,81.5117207 279.888172,81.1132812 C280.520988,80.7148418 281.142075,80.5624995 281.751453,80.65625 C282.392082,80.7500005 282.911608,81.0546849 283.310047,81.5703125 C283.708487,82.0859401 284.017077,82.7187462 284.235828,83.46875 C284.45458,84.2187537 284.587391,85.0351518 284.634266,85.9179687 C284.681141,86.8007857 284.673329,87.6484334 284.610828,88.4609375 C284.532703,89.3828171 284.32958,90.2421835 284.001453,91.0390625 C283.673327,91.8359415 283.263175,92.5234346 282.770985,93.1015625 C282.278795,93.6796904 281.724113,94.1289046 281.106922,94.4492187 C280.489732,94.7695329 279.868644,94.9218751 279.243641,94.90625 Z M281.517078,81.9921875 C281.001451,81.9296872 280.520987,82.0898418 280.075672,82.4726562 C279.630357,82.8554707 279.231924,83.3632781 278.88036,83.9960937 C278.528795,84.6289094 278.23583,85.3476522 278.001453,86.1523437 C277.767077,86.9570353 277.610829,87.7499961 277.532703,88.53125 C277.470203,89.0937528 277.446766,89.671872 277.462391,90.265625 C277.478016,90.859378 277.552234,91.3984351 277.685047,91.8828125 C277.81786,92.3671899 278.028796,92.7617172 278.31786,93.0664062 C278.606924,93.3710953 278.993638,93.5234375 279.478016,93.5234375 C279.868643,93.5390626 280.278795,93.4062514 280.708485,93.125 C281.138174,92.8437486 281.540514,92.4648461 281.915516,91.9882812 C282.290518,91.5117164 282.622546,90.968753 282.91161,90.359375 C283.200674,89.749997 283.392078,89.1250032 283.485828,88.484375 C283.595204,87.8124966 283.622547,87.1210973 283.56786,86.4101562 C283.513172,85.6992152 283.395986,85.0390655 283.216297,84.4296875 C283.036609,83.8203095 282.802236,83.292971 282.513172,82.8476562 C282.224108,82.4023415 281.89208,82.1171881 281.517078,81.9921875 Z M285.869242,85.90625 C285.55674,85.9218751 285.337992,85.8906254 285.212992,85.8125 C285.087991,85.7343746 285.017679,85.6367193 285.002054,85.5195312 C284.986429,85.4023432 285.009867,85.2773444 285.072367,85.1445312 C285.134867,85.0117181 285.205179,84.8906255 285.283304,84.78125 L288.119242,83.515625 C288.025491,82.4374946 287.974711,81.3593804 287.966898,80.28125 C287.959086,79.2031196 288.048928,78.2382855 288.236429,77.3867187 C288.42393,76.535152 288.732521,75.8632837 289.162211,75.3710937 C289.5919,74.8789038 290.197363,74.679687 290.978617,74.7734375 C291.353619,74.7734375 291.705178,74.89453 292.033304,75.1367187 C292.361431,75.3789075 292.646584,75.6796857 292.888773,76.0390625 C293.130962,76.3984393 293.326272,76.7890604 293.474711,77.2109375 C293.623149,77.6328146 293.697367,78.0156233 293.697367,78.359375 C293.681742,78.5156258 293.627055,78.6367183 293.533304,78.7226562 C293.439554,78.8085942 293.337992,78.8632811 293.228617,78.8867187 C293.119241,78.9101564 293.005961,78.9101564 292.888773,78.8867187 C292.771585,78.8632811 292.681742,78.8203128 292.619242,78.7578125 C292.556742,78.1953097 292.459086,77.7343768 292.326273,77.375 C292.19346,77.0156232 292.045024,76.7304698 291.880961,76.5195312 C291.716897,76.3085927 291.54893,76.1640629 291.377054,76.0859375 C291.205178,76.0078121 291.056742,75.96875 290.931742,75.96875 C290.431739,75.9843751 290.060649,76.1640608 289.818461,76.5078125 C289.576272,76.8515642 289.408305,77.3320282 289.314554,77.9492187 C289.220804,78.5664093 289.185648,79.3085894 289.209086,80.1757812 C289.232523,81.0429731 289.267679,82.0078072 289.314554,83.0703125 L294.377054,81.2421875 C294.54893,81.351563 294.666117,81.4882804 294.728617,81.6523437 C294.791117,81.8164071 294.712993,82.0624984 294.494242,82.390625 L289.408304,84.4765625 L290.111429,94.671875 C290.080179,94.7968756 290.002055,94.9023433 289.877054,94.9882812 C289.752054,95.0742192 289.61143,95.1289061 289.455179,95.1523437 C289.298929,95.1757814 289.154399,95.1523441 289.021586,95.0820312 C288.888772,95.0117184 288.806742,94.875001 288.775492,94.671875 L288.236429,84.8984375 L285.869242,85.90625 Z M309.339194,94.8125 C309.292318,94.5468737 309.2181,94.0664097 309.116537,93.3710937 C309.014974,92.6757778 308.897788,91.8750045 308.764975,90.96875 C308.632162,90.0624955 308.491538,89.1015676 308.3431,88.0859375 C308.194662,87.0703074 308.050132,86.1093795 307.909506,85.203125 C307.768881,84.2968705 307.643882,83.4960972 307.534506,82.8007812 C307.425131,82.1054653 307.347006,81.6250013 307.300131,81.359375 C307.347006,81.0781236 307.432943,80.8710944 307.557944,80.7382812 C307.682944,80.6054681 307.815756,80.5390625 307.956381,80.5390625 C308.097007,80.5390625 308.237631,80.585937 308.378256,80.6796875 C308.518882,80.773438 308.628256,80.8984367 308.706381,81.0546875 L310.136069,91.6953125 C310.182944,91.5234366 310.276693,91.1875025 310.417319,90.6875 C310.557944,90.1874975 310.718099,89.6054721 310.897787,88.9414062 C311.077476,88.2773404 311.272786,87.5703162 311.483725,86.8203125 C311.694664,86.0703087 311.89388,85.3632846 312.081381,84.6992187 C312.268882,84.0351529 312.432943,83.4531275 312.573569,82.953125 C312.714194,82.4531225 312.807943,82.1171884 312.854819,81.9453125 C312.964194,81.8046868 313.097005,81.6835943 313.253256,81.5820312 C313.409507,81.4804682 313.569662,81.4179689 313.733725,81.3945312 C313.897788,81.3710936 314.057943,81.4023433 314.214194,81.4882812 C314.370444,81.5742192 314.503256,81.7265614 314.612631,81.9453125 L317.940756,92.7734375 L319.300131,81.125 C319.362632,80.9687492 319.452474,80.835938 319.569662,80.7265625 C319.686851,80.617187 319.811849,80.5664062 319.944662,80.5742187 C320.077476,80.5820313 320.210287,80.6679679 320.3431,80.8320312 C320.475913,80.9960946 320.597006,81.2734355 320.706381,81.6640625 C320.690756,81.757813 320.6556,82.0039043 320.600912,82.4023437 C320.546225,82.8007832 320.479819,83.2890596 320.401694,83.8671875 C320.323568,84.4453154 320.237632,85.0937464 320.143881,85.8125 C320.050131,86.5312536 319.956382,87.2656212 319.862631,88.015625 C319.768881,88.7656287 319.675132,89.4999964 319.581381,90.21875 C319.487631,90.9375036 319.4056,91.5859346 319.335287,92.1640625 C319.264975,92.7421904 319.206381,93.2304668 319.159506,93.6289062 C319.112631,94.0273457 319.081381,94.273437 319.065756,94.3671875 C318.956381,94.6171887 318.796226,94.7968745 318.585287,94.90625 C318.374349,95.0156255 318.163414,95.0664063 317.952475,95.0585937 C317.741536,95.0507812 317.554038,94.992188 317.389975,94.8828125 C317.225912,94.773437 317.120444,94.6250009 317.073569,94.4375 L313.768881,83.609375 C313.48763,84.9218816 313.202476,86.1210883 312.913412,87.2070312 C312.624349,88.2929742 312.350914,89.289058 312.0931,90.1953125 C311.835286,91.101567 311.593101,91.9218713 311.366537,92.65625 C311.139974,93.3906287 310.948569,94.062497 310.792319,94.671875 C310.698568,94.8437509 310.581382,94.9648434 310.440756,95.0351562 C310.300131,95.1054691 310.159507,95.140625 310.018881,95.140625 C309.878256,95.140625 309.745444,95.1093753 309.620444,95.046875 C309.495443,94.9843747 309.401694,94.9062505 309.339194,94.8125 Z M322.29292,80.609375 C322.38667,80.5624998 322.496044,80.5234377 322.621045,80.4921875 C322.746045,80.4609373 322.867138,80.4453125 322.984326,80.4453125 C323.101514,80.4453125 323.214794,80.4687498 323.32417,80.515625 C323.433545,80.5625002 323.519482,80.6484369 323.581982,80.7734375 C323.581982,81.7890676 323.593701,82.8867129 323.617138,84.0664062 C323.640576,85.2460996 323.671826,86.4414002 323.710888,87.6523437 C323.749951,88.8632873 323.785107,90.0546816 323.816357,91.2265625 C323.847607,92.3984434 323.878857,93.48437 323.910107,94.484375 C323.925732,94.7187512 323.863233,94.8984369 323.722607,95.0234375 C323.581981,95.1484381 323.429639,95.2109375 323.265576,95.2109375 C323.101513,95.2109375 322.94917,95.1523443 322.808545,95.0351562 C322.667919,94.9179682 322.597607,94.7343762 322.597607,94.484375 L322.29292,80.609375 Z M322.01167,75.828125 C322.01167,75.624999 322.081981,75.4882816 322.222607,75.4179687 C322.363233,75.3476559 322.519481,75.3125 322.691357,75.3125 C323.035109,75.3125 323.24995,75.4257801 323.335888,75.6523437 C323.421826,75.8789074 323.464795,76.1406235 323.464795,76.4375 C323.371044,76.6250009 323.246045,76.7578121 323.089795,76.8359375 C322.933544,76.9140629 322.773389,76.9296877 322.609326,76.8828125 C322.445263,76.8359373 322.304639,76.7265634 322.187451,76.5546875 C322.070263,76.3828116 322.01167,76.1406266 322.01167,75.828125 Z M325.402896,81.03125 C325.418521,80.8749992 325.48102,80.7500005 325.590396,80.65625 C325.699771,80.5624995 325.82477,80.5039064 325.965396,80.4804687 C326.106021,80.4570311 326.246645,80.472656 326.387271,80.5273437 C326.527896,80.5820315 326.645083,80.664062 326.738833,80.7734375 L326.668521,90.1484375 C326.965397,89.0234319 327.234926,87.9101618 327.477114,86.8085937 C327.719303,85.7070257 328.020081,84.7070357 328.379458,83.8085937 C328.738835,82.9101518 329.191955,82.1679717 329.738833,81.5820312 C330.285711,80.9960908 331.012266,80.6640629 331.918521,80.5859375 C332.402898,80.5390623 332.824769,80.6835921 333.184146,81.0195312 C333.543522,81.3554704 333.852113,81.8124971 334.109927,82.390625 C334.367741,82.9687529 334.582582,83.6445274 334.754458,84.4179687 C334.926334,85.1914101 335.063051,85.9960896 335.164614,86.8320312 C335.266177,87.6679729 335.340395,88.5078083 335.387271,89.3515625 C335.434146,90.1953167 335.465396,90.9765589 335.481021,91.6953125 C335.496646,92.4140661 335.500552,93.0468723 335.492739,93.59375 C335.484927,94.1406277 335.473208,94.5390612 335.457583,94.7890625 C335.348208,95.0546888 335.156803,95.2304683 334.883364,95.3164062 C334.609925,95.4023442 334.363834,95.2890641 334.145083,94.9765625 C334.129458,94.679686 334.121646,94.1679724 334.121646,93.4414062 C334.121646,92.7148401 334.109927,91.8828172 334.086489,90.9453125 C334.063052,90.0078078 334.016177,89.0273489 333.945864,88.0039062 C333.875551,86.9804636 333.758365,86.0351606 333.594302,85.1679687 C333.430239,84.3007769 333.203678,83.5742217 332.914614,82.9882812 C332.62555,82.4023408 332.25446,82.0703129 331.801333,81.9921875 C331.410706,81.9296872 331.031804,82.1406226 330.664614,82.625 C330.297425,83.1093774 329.945866,83.749996 329.609927,84.546875 C329.273988,85.343754 328.961491,86.2421825 328.672427,87.2421875 C328.383363,88.2421925 328.125553,89.2265577 327.898989,90.1953125 C327.672426,91.1640673 327.481021,92.0546834 327.324771,92.8671875 C327.16852,93.6796916 327.066958,94.3046853 327.020083,94.7421875 C326.973208,94.8671881 326.879459,94.9687496 326.738833,95.046875 C326.598207,95.1250004 326.445865,95.1679687 326.281802,95.1757812 C326.117739,95.1835938 325.953678,95.1562503 325.789614,95.09375 C325.625551,95.0312497 325.504458,94.9140634 325.426333,94.7421875 L325.402896,81.03125 Z M343.700372,90.5 C343.528496,90.890627 343.270686,91.3437474 342.926934,91.859375 C342.583182,92.3750026 342.184749,92.8593727 341.731622,93.3125 C341.278494,93.7656273 340.782405,94.1523421 340.24334,94.4726562 C339.704275,94.7929704 339.145687,94.953125 338.567559,94.953125 C338.317558,94.953125 338.118341,94.9218753 337.969903,94.859375 C337.821465,94.7968747 337.688653,94.7070318 337.571465,94.5898437 C337.454277,94.4726557 337.348809,94.3281259 337.255059,94.15625 C337.161309,93.9843741 337.044122,93.7890636 336.903497,93.5703125 C336.762871,92.7890586 336.688653,91.9218798 336.68084,90.96875 C336.673028,90.0156202 336.751152,89.0546923 336.915215,88.0859375 C337.079279,87.1171827 337.329276,86.1914107 337.665215,85.3085937 C338.001154,84.4257768 338.43865,83.6718781 338.977715,83.046875 C339.51678,82.4218719 340.165211,81.9726576 340.923028,81.6992187 C341.680844,81.4257799 342.559742,81.4062488 343.559747,81.640625 C343.653497,80.6562451 343.661309,79.6679737 343.583184,78.6757812 C343.505059,77.6835888 343.442559,76.6484429 343.395684,75.5703125 C343.395684,75.4140617 343.465996,75.3007816 343.606622,75.2304687 C343.747247,75.1601559 343.907402,75.1132814 344.08709,75.0898437 C344.266779,75.0664061 344.438652,75.0624999 344.602715,75.078125 C344.766779,75.0937501 344.872246,75.1249998 344.919122,75.171875 C344.903496,76.578132 344.891778,77.8671816 344.883965,79.0390625 C344.876153,80.2109434 344.872247,81.3164011 344.872247,82.3554687 L344.872247,85.3671875 C344.872247,86.3359423 344.876153,87.3281199 344.883965,88.34375 C344.891778,89.3593801 344.89959,90.4296819 344.907403,91.5546875 C344.915215,92.6796931 344.919122,93.9140558 344.919122,95.2578125 C344.997247,95.5078137 344.977716,95.7187491 344.860528,95.890625 C344.74334,96.0625009 344.59881,96.1718748 344.426934,96.21875 C344.255058,96.2656252 344.079279,96.242188 343.89959,96.1484375 C343.719902,96.054687 343.606622,95.8750013 343.559747,95.609375 L343.700372,90.5 Z M342.575372,82.9296875 C341.981619,82.835937 341.42303,82.9960917 340.89959,83.4101562 C340.37615,83.8242208 339.911311,84.3867152 339.505059,85.0976562 C339.098807,85.8085973 338.762873,86.6054643 338.497247,87.4882812 C338.23162,88.3710982 338.063653,89.2226521 337.99334,90.0429687 C337.923027,90.8632854 337.958183,91.6015592 338.098809,92.2578125 C338.239435,92.9140658 338.512869,93.3671862 338.919122,93.6171875 C339.309748,93.6171875 339.692557,93.4804701 340.067559,93.2070312 C340.442561,92.9335924 340.798026,92.5859396 341.133965,92.1640625 C341.469904,91.7421854 341.782401,91.2695339 342.071465,90.7460937 C342.360529,90.2226536 342.614433,89.71094 342.833184,89.2109375 C343.051935,88.710935 343.219902,88.2539083 343.33709,87.8398437 C343.454278,87.4257792 343.512872,87.1093761 343.512872,86.890625 L343.512872,85.9765625 C343.512872,85.5390603 343.485528,85.0937523 343.43084,84.640625 C343.376152,84.1874977 343.282403,83.7890642 343.14959,83.4453125 C343.016777,83.1015608 342.825373,82.9296875 342.575372,82.9296875 Z" id="With-the-power-of-wi" stroke="#5C5C5C" fill="#5C5C5C"></path>
            </g>
        </g>
    </g>
</svg>