<svg id="Ebene_1" data-name="Ebene 1" xmlns="http://www.w3.org/2000/svg" viewBox="0 0 355.62 181.39"><defs><style>.cls-1{fill:gray;}.cls-2{fill:#333;}.cls-3{fill:#bcd28d;}.cls-4{fill:#565655;}.cls-4,.cls-6{stroke:#fff;stroke-miterlimit:10;stroke-width:1.17px;}.cls-5{fill:#868786;}.cls-6{fill:none;}.cls-7{fill:#b1b2b3;}.cls-8{fill:#f18500;}</style></defs><title>GW_KartenLegende</title><path class="cls-1" d="M4104.7,5757.12h2.5l1.74,2.76h1L4108,5757a3.08,3.08,0,0,0,.62-.21,1.82,1.82,0,0,0,1.12-1.83,2.1,2.1,0,0,0-.66-1.64,2.5,2.5,0,0,0-1.76-.61h-3.44v7.19h.82v-2.76Zm0-3.66h2.53a1.85,1.85,0,0,1,1.24.4,1.52,1.52,0,0,1,.31,1.78,1.7,1.7,0,0,1-1.59.72h-2.49v-2.89Zm11.63,0v-.78H4111v7.19h5.29v-.78h-4.47v-2.42h4v-.79h-4v-2.41Zm1.59.21a4,4,0,0,0,0,5.21,3.27,3.27,0,0,0,1.11.79,3.21,3.21,0,0,0,1.31.29,4.16,4.16,0,0,0,1.06-.11,3,3,0,0,0,1.71-1.25v1.27h.75v-3.82h-3.38v.74h2.63a2.17,2.17,0,0,1-.78,1.75,2.62,2.62,0,0,1-1.76.63,2.65,2.65,0,0,1-2-.84,3.24,3.24,0,0,1,0-4.11,2.5,2.5,0,0,1,.88-.61,3.2,3.2,0,0,1,1.26-.22,2.61,2.61,0,0,1,1.32.33,2.35,2.35,0,0,1,.91.92h.89a3.29,3.29,0,0,0-1.26-1.48,3.71,3.71,0,0,0-.92-.41,4.23,4.23,0,0,0-1.21-.15,3.31,3.31,0,0,0-1.35.29,3.26,3.26,0,0,0-1.11.79Zm8-1h-.81v7.19h.81v-7.19Zm2.21,1a3.87,3.87,0,0,0,0,5.21,3.78,3.78,0,0,0,5.28,0,3.87,3.87,0,0,0,0-5.21,3.78,3.78,0,0,0-5.28,0Zm.57,4.66a3.15,3.15,0,0,1,0-4.11,3,3,0,0,1,4.15,0,3.15,3.15,0,0,1,0,4.11,3,3,0,0,1-4.15,0Zm12.3-5.65v6l-4.44-6h-.94v7.19h.81v-6.07l4.44,6.07h.95v-7.19Zm5.69,0h-1l-3.05,7.19h.9l.88-2.09H4148l.88,2.09h.9l-3.05-7.19Zm-2,4.35,1.47-3.51,1.47,3.51Zm5.83-4.35v7.19h4.74v-.78h-3.92v-6.41Zm8.44,1a3.87,3.87,0,0,0,0,5.21,3.78,3.78,0,0,0,5.28,0,3.87,3.87,0,0,0,0-5.21,3.78,3.78,0,0,0-5.28,0Zm.56,4.66a3.15,3.15,0,0,1,0-4.11,3,3,0,0,1,4.15,0,3.15,3.15,0,0,1,0,4.11,3,3,0,0,1-4.15,0Zm12.11-4.87v-.78h-5.19v7.19h.81v-3.12h3.9V5756h-3.9v-2.5Zm6.22,0v-.78h-5.19v7.19h.81v-3.12h3.9V5756h-3.9v-2.5Zm1.85-.78h-.82v7.19h.82v-7.19Zm2.71,5.65a3.34,3.34,0,0,1,0-4.11,2.41,2.41,0,0,1,.86-.61,3.22,3.22,0,0,1,1.28-.22,2.33,2.33,0,0,1,2.22,1.45h.86a3.22,3.22,0,0,0-1.18-1.61,3.48,3.48,0,0,0-2.07-.63,3.29,3.29,0,0,0-2.55,1.07,4.14,4.14,0,0,0,0,5.21,3.29,3.29,0,0,0,2.55,1.08,3.47,3.47,0,0,0,2.07-.63,3.23,3.23,0,0,0,1.18-1.61h-.86a2.33,2.33,0,0,1-2.22,1.44,2.7,2.7,0,0,1-2.14-.84Zm11.61-4.87v-.78h-5.29v7.19h5.29v-.78h-4.47v-2.42h4v-.79h-4v-2.41Zm3.92.21a4,4,0,0,0,0,5.21,3.26,3.26,0,0,0,1.11.79,3.21,3.21,0,0,0,1.31.29,4.16,4.16,0,0,0,1.06-.11,3,3,0,0,0,1.72-1.25v1.27h.75v-3.82h-3.38v.74h2.63a2.17,2.17,0,0,1-.78,1.75,2.85,2.85,0,0,1-3.8-.21,3.24,3.24,0,0,1,0-4.11,2.5,2.5,0,0,1,.88-.61,3.2,3.2,0,0,1,1.26-.22,2.61,2.61,0,0,1,1.32.33,2.35,2.35,0,0,1,.91.92h.89a3.3,3.3,0,0,0-1.26-1.48,3.72,3.72,0,0,0-.92-.41,4.22,4.22,0,0,0-1.21-.15,3.32,3.32,0,0,0-1.35.29,3.27,3.27,0,0,0-1.11.79Zm8,3.44h2.5l1.74,2.76h1l-1.89-2.9a3.08,3.08,0,0,0,.62-.21,1.82,1.82,0,0,0,1.12-1.83,2.1,2.1,0,0,0-.66-1.64,2.5,2.5,0,0,0-1.76-.61h-3.44v7.19h.82v-2.76Zm0-3.66h2.53a1.85,1.85,0,0,1,1.24.4,1.51,1.51,0,0,1,.3,1.78,1.7,1.7,0,0,1-1.59.72h-2.49v-2.89Zm6.9.22a3.87,3.87,0,0,0,0,5.21,3.78,3.78,0,0,0,5.28,0,3.87,3.87,0,0,0,0-5.21,3.78,3.78,0,0,0-5.28,0Zm.56,4.66a3.15,3.15,0,0,1,0-4.11,3,3,0,0,1,4.15,0,3.15,3.15,0,0,1,0,4.11,3,3,0,0,1-4.15,0Zm8.32-4.85a3,3,0,0,1,.92-.12,3.32,3.32,0,0,1,.92.11,1.39,1.39,0,0,1,1.15,1.18h.84a1.88,1.88,0,0,0-.73-1.42,3.21,3.21,0,0,0-2.12-.63,3.15,3.15,0,0,0-2,.55,1.77,1.77,0,0,0-.67,1.43,1.33,1.33,0,0,0,.36,1,2.69,2.69,0,0,0,.91.59,7.36,7.36,0,0,0,1.18.36q.63.14,1.18.3a3.24,3.24,0,0,1,.91.41.79.79,0,0,1,.36.68q0,1.27-2,1.27a3.1,3.1,0,0,1-1.55-.34,1.34,1.34,0,0,1-.72-1.13h-.85a2.22,2.22,0,0,0,.8,1.61,3.64,3.64,0,0,0,2.3.63,3.58,3.58,0,0,0,2.09-.53,1.77,1.77,0,0,0,.76-1.54,1.51,1.51,0,0,0-.77-1.34,3.36,3.36,0,0,0-.79-.37q-.45-.15-.91-.26l-.91-.22a5.82,5.82,0,0,1-.79-.25,1.7,1.7,0,0,1-.56-.35.62.62,0,0,1-.21-.45,1.49,1.49,0,0,1,.07-.46.89.89,0,0,1,.28-.4,1.7,1.7,0,0,1,.58-.3Zm6.57,0a3,3,0,0,1,.92-.12,3.33,3.33,0,0,1,.92.11,1.39,1.39,0,0,1,1.15,1.18h.84a1.88,1.88,0,0,0-.73-1.42,3.2,3.2,0,0,0-2.12-.63,3.15,3.15,0,0,0-2,.55,1.77,1.77,0,0,0-.67,1.43,1.33,1.33,0,0,0,.36,1,2.71,2.71,0,0,0,.91.59,7.39,7.39,0,0,0,1.18.36q.64.14,1.18.3a3.22,3.22,0,0,1,.91.41.79.79,0,0,1,.36.68q0,1.27-2,1.27a3.1,3.1,0,0,1-1.55-.34,1.34,1.34,0,0,1-.72-1.13h-.85a2.22,2.22,0,0,0,.8,1.61,3.63,3.63,0,0,0,2.3.63,3.58,3.58,0,0,0,2.09-.53,1.77,1.77,0,0,0,.76-1.54,1.51,1.51,0,0,0-.77-1.34,3.36,3.36,0,0,0-.79-.37q-.45-.15-.91-.26l-.91-.22a5.82,5.82,0,0,1-.79-.25,1.7,1.7,0,0,1-.56-.35.62.62,0,0,1-.21-.45,1.49,1.49,0,0,1,.07-.46.89.89,0,0,1,.28-.4,1.68,1.68,0,0,1,.58-.3Zm8.18,3.83H4239a2.54,2.54,0,0,0,1.81-.63,2.47,2.47,0,0,0,0-3.37,2.55,2.55,0,0,0-1.81-.63h-3.24v7.19h.82v-2.56Zm2.37-3.86a1.8,1.8,0,0,1,1.28.41,1.7,1.7,0,0,1,0,2.27,1.8,1.8,0,0,1-1.28.41h-2.37v-3.1Zm6.38-.77h-1l-3.05,7.19h.9l.88-2.09h3.56l.88,2.09h.9l-3.05-7.19Zm-2,4.35,1.47-3.51,1.47,3.51Zm11.22-4.35v6l-4.44-6h-.95v7.19h.81v-6.07l4.44,6.07h.94v-7.19Zm8.43,0h-1.15l-4,3.75v-3.75H4257v7.19h.81v-2.36l1.49-1.39,2.81,3.75h1l-3.24-4.3,3.06-2.89Zm1.09,1a3.87,3.87,0,0,0,0,5.21,3.78,3.78,0,0,0,5.28,0,3.87,3.87,0,0,0,0-5.21,3.78,3.78,0,0,0-5.28,0Zm.57,4.66a3.15,3.15,0,0,1,0-4.11,3,3,0,0,1,4.15,0,3.15,3.15,0,0,1,0,4.11,3,3,0,0,1-4.15,0Zm11.16-4.5,1.94,6h.92l2.24-7.19h-.86l-1.85,6-1.93-6h-.93l-1.93,6-1.85-6h-.86l2.24,7.19h.92l1.94-6Z" transform="translate(-4074 -5578.58)"/><path class="cls-2" d="M4104.7,5743.16h2.5l1.74,2.76h1L4108,5743a3.08,3.08,0,0,0,.62-.21,1.82,1.82,0,0,0,1.12-1.84,2.1,2.1,0,0,0-.66-1.64,2.5,2.5,0,0,0-1.76-.61h-3.44v7.19h.82v-2.76Zm0-3.66h2.53a1.84,1.84,0,0,1,1.24.4,1.51,1.51,0,0,1,.31,1.77,1.7,1.7,0,0,1-1.59.72h-2.49v-2.89Zm11.63,0v-.78H4111v7.19h5.29v-.78h-4.47v-2.42h4v-.79h-4v-2.41Zm1.59.21a4,4,0,0,0,0,5.21,3.26,3.26,0,0,0,1.11.79,3.21,3.21,0,0,0,1.31.29,4.21,4.21,0,0,0,1.06-.11,3,3,0,0,0,1.71-1.25v1.27h.75v-3.82h-3.38v.74h2.63a2.18,2.18,0,0,1-.78,1.75,2.62,2.62,0,0,1-1.76.63,2.65,2.65,0,0,1-2-.84,3.24,3.24,0,0,1,0-4.11,2.51,2.51,0,0,1,.88-.61,3.19,3.19,0,0,1,1.26-.22,2.62,2.62,0,0,1,1.32.33,2.35,2.35,0,0,1,.91.92h.89a3.29,3.29,0,0,0-1.26-1.48,3.71,3.71,0,0,0-.92-.41,4.27,4.27,0,0,0-1.21-.15,3.39,3.39,0,0,0-2.45,1.08Zm8-1h-.81v7.19h.81v-7.19Zm2.21,1a3.87,3.87,0,0,0,0,5.21,3.77,3.77,0,0,0,5.28,0,3.87,3.87,0,0,0,0-5.21,3.78,3.78,0,0,0-5.28,0Zm.57,4.66a3.15,3.15,0,0,1,0-4.11,3,3,0,0,1,4.15,0,3.15,3.15,0,0,1,0,4.11,3,3,0,0,1-4.15,0Zm12.3-5.65v6l-4.44-6h-.94v7.19h.81v-6.07l4.44,6.07h.95v-7.19Zm5.69,0h-1l-3.05,7.19h.9l.88-2.09H4148l.88,2.09h.9l-3.05-7.19Zm-2,4.36,1.47-3.51,1.47,3.51Zm5.83-4.36v7.19h4.74v-.78h-3.92v-6.41Zm10.68.63a2.35,2.35,0,0,0-1.77-.63h-3.23v7.19h3.41a3.42,3.42,0,0,0,1.07-.15,1.72,1.72,0,0,0,1.38-1.74,1.92,1.92,0,0,0-.12-.71,1.87,1.87,0,0,0-1.22-1.07,1.61,1.61,0,0,0,1-1.62,1.72,1.72,0,0,0-.5-1.27Zm-4.18.14h2.5a1.38,1.38,0,0,1,1.05.38,1,1,0,0,1,.24.38,1.46,1.46,0,0,1,.08.49,1.14,1.14,0,0,1-.12.52,1.34,1.34,0,0,1-1.33.68h-2.41v-2.44Zm0,5.65v-2.47h2.6a1.81,1.81,0,0,1,1.25.39,1.14,1.14,0,0,1,.39.89,1,1,0,0,1-.4.87,1.86,1.86,0,0,1-1.15.31Zm11.48-6.42v4.12a2.35,2.35,0,0,1-.69,1.81,2.22,2.22,0,0,1-1.55.55,2.18,2.18,0,0,1-1.54-.55,2.36,2.36,0,0,1-.7-1.81v-4.12h-.81v4.1a3.16,3.16,0,0,0,.85,2.31,3.21,3.21,0,0,0,4.41,0,3.16,3.16,0,0,0,.85-2.31v-4.1Zm-3.58-1.53v.9h1v-.9Zm1.71,0v.9h1v-.9Zm5.07,6h2.5l1.74,2.76h1l-1.89-2.9a3.08,3.08,0,0,0,.62-.21,1.82,1.82,0,0,0,1.12-1.84,2.1,2.1,0,0,0-.66-1.64,2.5,2.5,0,0,0-1.76-.61h-3.44v7.19h.81v-2.76Zm0-3.66h2.53a1.84,1.84,0,0,1,1.24.4,1.34,1.34,0,0,1,.47,1.08,1.33,1.33,0,0,1-.16.7,1.7,1.7,0,0,1-1.58.72h-2.49v-2.89Zm6.9.22a3.87,3.87,0,0,0,0,5.21,3.77,3.77,0,0,0,5.28,0,3.87,3.87,0,0,0,0-5.21,3.78,3.78,0,0,0-5.28,0Zm.56,4.66a3.15,3.15,0,0,1,0-4.11,3,3,0,0,1,4.15,0,3.15,3.15,0,0,1,0,4.11,3,3,0,0,1-4.15,0Zm9.63-4.66a4,4,0,0,0,0,5.21,3.26,3.26,0,0,0,1.11.79,3.21,3.21,0,0,0,1.31.29,4.19,4.19,0,0,0,1.06-.11,3,3,0,0,0,1.72-1.25v1.27h.75v-3.82h-3.38v.74H4194a2.18,2.18,0,0,1-.78,1.75,2.62,2.62,0,0,1-1.76.63,2.65,2.65,0,0,1-2-.84,3.24,3.24,0,0,1,0-4.11,2.51,2.51,0,0,1,.88-.61,3.19,3.19,0,0,1,1.26-.22,2.62,2.62,0,0,1,1.32.33,2.35,2.35,0,0,1,.91.92h.89a3.29,3.29,0,0,0-1.26-1.48,3.71,3.71,0,0,0-.92-.41,4.27,4.27,0,0,0-1.21-.15,3.38,3.38,0,0,0-2.45,1.08Zm8,3.44h2.5l1.74,2.76h1l-1.89-2.9a3.12,3.12,0,0,0,.62-.21,1.82,1.82,0,0,0,1.12-1.84,2.1,2.1,0,0,0-.66-1.64,2.5,2.5,0,0,0-1.76-.61h-3.44v7.19h.81v-2.76Zm0-3.66h2.53a1.85,1.85,0,0,1,1.24.4,1.51,1.51,0,0,1,.3,1.77,1.7,1.7,0,0,1-1.59.72h-2.49v-2.89Zm6.9.22a3.87,3.87,0,0,0,0,5.21,3.77,3.77,0,0,0,5.28,0,3.87,3.87,0,0,0,0-5.21,3.78,3.78,0,0,0-5.28,0Zm.56,4.66a3.15,3.15,0,0,1,0-4.11,3,3,0,0,1,4.15,0,3.15,3.15,0,0,1,0,4.11,3,3,0,0,1-4.15,0Zm8.33-4.85a3,3,0,0,1,.92-.13,3.31,3.31,0,0,1,.92.11,1.39,1.39,0,0,1,1.15,1.18h.84a1.88,1.88,0,0,0-.73-1.42,3.2,3.2,0,0,0-2.12-.63,3.15,3.15,0,0,0-2,.55,1.77,1.77,0,0,0-.67,1.43,1.33,1.33,0,0,0,.36,1,2.71,2.71,0,0,0,.91.59,7.46,7.46,0,0,0,1.18.36q.64.14,1.18.3a3.24,3.24,0,0,1,.91.41.78.78,0,0,1,.36.68q0,1.27-2,1.27a3.11,3.11,0,0,1-1.55-.34,1.34,1.34,0,0,1-.72-1.13h-.85a2.22,2.22,0,0,0,.8,1.61,3.63,3.63,0,0,0,2.3.63,3.58,3.58,0,0,0,2.09-.53,1.77,1.77,0,0,0,.75-1.54,1.51,1.51,0,0,0-.77-1.34,3.35,3.35,0,0,0-.79-.37c-.3-.1-.6-.18-.91-.26l-.91-.22a5.68,5.68,0,0,1-.79-.25,1.7,1.7,0,0,1-.56-.35.62.62,0,0,1-.21-.45,1.46,1.46,0,0,1,.07-.46.9.9,0,0,1,.28-.4,1.73,1.73,0,0,1,.58-.3Zm6.57,0a3,3,0,0,1,.92-.13,3.32,3.32,0,0,1,.92.11,1.39,1.39,0,0,1,1.15,1.18h.84a1.88,1.88,0,0,0-.73-1.42,3.2,3.2,0,0,0-2.12-.63,3.15,3.15,0,0,0-2,.55,1.77,1.77,0,0,0-.67,1.43,1.33,1.33,0,0,0,.36,1,2.72,2.72,0,0,0,.91.59,7.45,7.45,0,0,0,1.18.36q.64.14,1.18.3a3.22,3.22,0,0,1,.91.41.78.78,0,0,1,.36.68q0,1.27-2,1.27a3.11,3.11,0,0,1-1.55-.34,1.34,1.34,0,0,1-.72-1.13h-.85a2.22,2.22,0,0,0,.8,1.61,3.63,3.63,0,0,0,2.3.63,3.58,3.58,0,0,0,2.09-.53,1.77,1.77,0,0,0,.76-1.54,1.51,1.51,0,0,0-.77-1.34,3.36,3.36,0,0,0-.79-.37q-.45-.15-.91-.26l-.91-.22a5.68,5.68,0,0,1-.79-.25,1.71,1.71,0,0,1-.56-.35.62.62,0,0,1-.21-.45,1.49,1.49,0,0,1,.07-.46.89.89,0,0,1,.28-.4,1.72,1.72,0,0,1,.58-.3Zm8.18,3.83h2.42a2.54,2.54,0,0,0,1.81-.62,2.47,2.47,0,0,0,0-3.37,2.55,2.55,0,0,0-1.81-.63h-3.24v7.19h.82v-2.56Zm2.37-3.86a1.8,1.8,0,0,1,1.28.41,1.7,1.7,0,0,1,0,2.27,1.8,1.8,0,0,1-1.28.41h-2.37v-3.09Zm6.38-.77h-1l-3.05,7.19h.9l.88-2.09h3.56l.88,2.09h.9l-3.05-7.19Zm-2,4.36,1.47-3.51,1.47,3.51Zm11.22-4.36v6l-4.44-6H4240v7.19h.81v-6.07l4.44,6.07h.95v-7.19Zm8.43,0h-1.15l-4,3.75v-3.75h-.81v7.19h.81v-2.36l1.49-1.39,2.81,3.75h1l-3.24-4.3,3.06-2.89Zm1.09,1a3.87,3.87,0,0,0,0,5.21,3.77,3.77,0,0,0,5.28,0,3.87,3.87,0,0,0,0-5.21,3.78,3.78,0,0,0-5.28,0Zm.57,4.66a3.15,3.15,0,0,1,0-4.11,3,3,0,0,1,4.15,0,3.15,3.15,0,0,1,0,4.11,3,3,0,0,1-4.15,0Zm11.16-4.5,1.94,6h.92l2.24-7.19h-.86l-1.85,6-1.93-6h-.93l-1.93,6-1.85-6h-.86l2.24,7.19h.92l1.94-6Z" transform="translate(-4074 -5578.58)"/><path class="cls-1" d="M4108.88,5710.8V5714h-4.18v-3.19h-.82V5718h.82v-3.2h4.18v3.2h.82v-7.19Zm7.75.78v-.78h-5.29V5718h5.29v-.78h-4.47v-2.42h4V5714h-4v-2.41Zm4.43-.78h-1L4117,5718h.9l.88-2.08h3.56l.88,2.08h.9l-3.05-7.19Zm-2,4.35,1.47-3.51,1.47,3.51Zm5.83-4.35V5718h3a3.24,3.24,0,0,0,1.24-.24,3.09,3.09,0,0,0,1.05-.71,4,4,0,0,0,0-5.28,3.1,3.1,0,0,0-1.05-.71,3.24,3.24,0,0,0-1.24-.24Zm.82,6.42v-5.65h2.18a2.29,2.29,0,0,1,1.83.84,3.23,3.23,0,0,1,0,4,2.29,2.29,0,0,1-1.83.84Zm11.66,1.68a1.78,1.78,0,0,1-1.08-.89,3.38,3.38,0,0,0,2.15-1.24,3.65,3.65,0,0,0,.82-2.38,3.59,3.59,0,0,0-1-2.61,3.78,3.78,0,0,0-5.28,0,3.86,3.86,0,0,0,0,5.16,3.51,3.51,0,0,0,2.53,1.12,2.87,2.87,0,0,0,1.05,1.18,2.82,2.82,0,0,0,3.26-.15l-.44-.59a2.05,2.05,0,0,1-1.31.49,2,2,0,0,1-.66-.1Zm-3.82-2.45a3.15,3.15,0,0,1,0-4.11,3,3,0,0,1,4.15,0,3.15,3.15,0,0,1,0,4.11,3,3,0,0,1-4.15,0Zm12.13-5.65v4.12a2.34,2.34,0,0,1-.7,1.81,2.22,2.22,0,0,1-1.55.55,2.17,2.17,0,0,1-1.54-.55,2.36,2.36,0,0,1-.69-1.81v-4.12h-.82v4.09a3.16,3.16,0,0,0,.85,2.31,3.22,3.22,0,0,0,4.41,0,3.17,3.17,0,0,0,.85-2.31v-4.09Zm5.34,0h-1L4147,5718h.9l.88-2.08h3.56l.88,2.08h.9l-3.05-7.19Zm-2,4.35,1.47-3.51,1.47,3.51Zm6.65.08h2.5L4160,5718h1l-1.89-2.9a3.1,3.1,0,0,0,.62-.21,1.82,1.82,0,0,0,1.12-1.84,2.1,2.1,0,0,0-.66-1.64,2.5,2.5,0,0,0-1.76-.61h-3.44V5718h.81v-2.76Zm0-3.66h2.53a1.85,1.85,0,0,1,1.24.4,1.51,1.51,0,0,1,.3,1.78,1.7,1.7,0,0,1-1.59.72h-2.49v-2.89Zm11.35-.77h-5.83v.78h2.51V5718h.81v-6.41h2.51v-.78Zm6.21.78v-.78H4168V5718h5.29v-.78h-4.47v-2.42h4V5714h-4v-2.41Zm2,3.65h2.5l1.74,2.76h1l-1.89-2.9a3.1,3.1,0,0,0,.62-.21,1.82,1.82,0,0,0,1.12-1.84,2.1,2.1,0,0,0-.66-1.64,2.5,2.5,0,0,0-1.76-.61h-3.44V5718h.81v-2.76Zm0-3.66h2.53a1.85,1.85,0,0,1,1.24.4,1.51,1.51,0,0,1,.3,1.78,1.7,1.7,0,0,1-1.59.72h-2.49v-2.89Zm7.75,0a3,3,0,0,1,.92-.12,3.28,3.28,0,0,1,.92.11,1.39,1.39,0,0,1,1.15,1.18h.84a1.88,1.88,0,0,0-.73-1.42,3.2,3.2,0,0,0-2.12-.63,3.14,3.14,0,0,0-2,.55,1.77,1.77,0,0,0-.67,1.43,1.33,1.33,0,0,0,.36,1,2.7,2.7,0,0,0,.91.59,7.34,7.34,0,0,0,1.18.36q.64.14,1.18.3a3.25,3.25,0,0,1,.91.41.79.79,0,0,1,.36.68q0,1.27-2,1.27a3.1,3.1,0,0,1-1.55-.34,1.33,1.33,0,0,1-.72-1.13h-.85a2.22,2.22,0,0,0,.8,1.61,3.63,3.63,0,0,0,2.3.63,3.58,3.58,0,0,0,2.09-.53,1.77,1.77,0,0,0,.76-1.54,1.51,1.51,0,0,0-.77-1.34,3.36,3.36,0,0,0-.79-.37c-.3-.1-.6-.18-.91-.26l-.91-.22a5.68,5.68,0,0,1-.79-.25,1.73,1.73,0,0,1-.56-.35.62.62,0,0,1-.21-.45,1.49,1.49,0,0,1,.07-.46.89.89,0,0,1,.28-.4,1.68,1.68,0,0,1,.58-.3Z" transform="translate(-4074 -5578.58)"/><path class="cls-2" d="M4108.88,5696.84V5700h-4.18v-3.19h-.82V5704h.82v-3.2h4.18v3.2h.82v-7.19Zm5.69,0h-1l-3.05,7.19h.9l.88-2.08h3.56l.88,2.08h.9l-3.05-7.19Zm-2,4.36,1.47-3.51,1.47,3.51Zm10.79-4.36V5701a2.35,2.35,0,0,1-.7,1.81,2.22,2.22,0,0,1-1.55.55,2.18,2.18,0,0,1-1.54-.55,2.37,2.37,0,0,1-.7-1.81v-4.12h-.81v4.1a3.16,3.16,0,0,0,.85,2.31,3.22,3.22,0,0,0,4.41,0,3.16,3.16,0,0,0,.85-2.31v-4.1Zm3.19,4.63H4129a2.54,2.54,0,0,0,1.81-.63,2.47,2.47,0,0,0,0-3.37,2.55,2.55,0,0,0-1.81-.63h-3.24V5704h.81v-2.56Zm2.37-3.86a1.8,1.8,0,0,1,1.28.41,1.7,1.7,0,0,1,0,2.27,1.8,1.8,0,0,1-1.28.41h-2.37v-3.1Zm8.63-.77h-5.83v.78h2.51V5704h.81v-6.41h2.51v-.78Zm2.33.8a2.93,2.93,0,0,1,.92-.12,3.32,3.32,0,0,1,.92.11,1.39,1.39,0,0,1,1.15,1.18h.84a1.88,1.88,0,0,0-.73-1.42,3.21,3.21,0,0,0-2.12-.63,3.15,3.15,0,0,0-2,.55,1.77,1.77,0,0,0-.67,1.43,1.33,1.33,0,0,0,.36,1,2.7,2.7,0,0,0,.91.59,7.35,7.35,0,0,0,1.18.36q.63.14,1.18.3a3.24,3.24,0,0,1,.91.41.79.79,0,0,1,.36.68q0,1.27-2,1.27a3.1,3.1,0,0,1-1.55-.34,1.34,1.34,0,0,1-.72-1.13H4138a2.22,2.22,0,0,0,.8,1.61,3.64,3.64,0,0,0,2.3.63,3.58,3.58,0,0,0,2.09-.53,1.77,1.77,0,0,0,.75-1.54,1.51,1.51,0,0,0-.77-1.34,3.36,3.36,0,0,0-.79-.37q-.45-.15-.91-.26l-.91-.22a5.77,5.77,0,0,1-.79-.25,1.7,1.7,0,0,1-.56-.35.62.62,0,0,1-.21-.45,1.49,1.49,0,0,1,.07-.46.89.89,0,0,1,.28-.4,1.7,1.7,0,0,1,.58-.3Zm6-.8h-.82V5704h.82v-7.19Zm6.76,0h-5.83v.78h2.51V5704h.81v-6.41h2.51v-.78Zm6,.78v-.78h-5.63v.76h4.63l-4.69,5.66v.77h5.69v-.76H4154l4.69-5.65Z" transform="translate(-4074 -5578.58)"/><path class="cls-1" d="M4104.39,5669.9a4,4,0,0,0,0,5.21,3.26,3.26,0,0,0,1.11.79,3.21,3.21,0,0,0,1.31.29,4.21,4.21,0,0,0,1.06-.11,3,3,0,0,0,1.72-1.25v1.27h.75v-3.82h-3.38v.74h2.63a2.18,2.18,0,0,1-.78,1.75,2.85,2.85,0,0,1-3.8-.21,3.24,3.24,0,0,1,0-4.1,2.52,2.52,0,0,1,.88-.61,3.21,3.21,0,0,1,1.26-.22,2.61,2.61,0,0,1,1.32.33,2.35,2.35,0,0,1,.91.92h.89a3.28,3.28,0,0,0-1.26-1.48,3.67,3.67,0,0,0-.92-.41,4.26,4.26,0,0,0-1.21-.15,3.39,3.39,0,0,0-2.45,1.07Zm8,3.44h2.5l1.74,2.76h1l-1.89-2.9a3.17,3.17,0,0,0,.62-.21,1.82,1.82,0,0,0,1.12-1.84,2.1,2.1,0,0,0-.66-1.64,2.5,2.5,0,0,0-1.76-.61h-3.44v7.19h.81v-2.76Zm0-3.66H4115a1.85,1.85,0,0,1,1.24.4,1.51,1.51,0,0,1,.3,1.78,1.7,1.7,0,0,1-1.59.72h-2.49v-2.89Zm11.63,0v-.78h-5.29v7.19h5.29v-.78h-4.47v-2.42h4v-.79h-4v-2.41Zm6.49,0v-.78h-5.29v7.19h5.29v-.78h-4.47v-2.42h4v-.79h-4v-2.41Zm6.59-.78v6l-4.44-6h-.95v7.19h.82V5670l4.44,6.07h.94v-7.19Zm9,1.15,1.94,6h.92l2.24-7.19h-.86l-1.85,6-1.93-6h-.93l-1.93,6-1.85-6H4141l2.24,7.19h.92l1.94-6Zm6.79-1.15h-.82v7.19h.82v-7.19Zm7,0v6l-4.44-6h-.95v7.19h.82V5670l4.44,6.07h.94v-7.19Zm2.46,0v7.19h3a3.24,3.24,0,0,0,1.24-.24,3.1,3.1,0,0,0,1.05-.71,4,4,0,0,0,0-5.28,3.1,3.1,0,0,0-1.05-.71,3.24,3.24,0,0,0-1.24-.24Zm.82,6.42v-5.65h2.18a2.29,2.29,0,0,1,1.83.84,3.23,3.23,0,0,1,0,4,2.29,2.29,0,0,1-1.83.84Zm9.48-5.43a3.87,3.87,0,0,0,0,5.21,3.78,3.78,0,0,0,5.28,0,3.87,3.87,0,0,0,0-5.21,3.78,3.78,0,0,0-5.28,0Zm.57,4.66a3.15,3.15,0,0,1,0-4.1,3,3,0,0,1,4.15,0,3.15,3.15,0,0,1,0,4.1,3,3,0,0,1-4.15,0Zm7.73-1h2.42a2.54,2.54,0,0,0,1.81-.62,2.47,2.47,0,0,0,0-3.37,2.55,2.55,0,0,0-1.81-.63h-3.24v7.19h.81v-2.56Zm2.37-3.85a1.79,1.79,0,0,1,1.28.41,1.7,1.7,0,0,1,0,2.27,1.79,1.79,0,0,1-1.28.41H4181v-3.09Zm8.82,0v-.78h-5.29v7.19h5.29v-.78h-4.47v-2.42h4v-.79h-4v-2.41Zm2,3.65h2.5l1.74,2.76h1l-1.89-2.9a3.15,3.15,0,0,0,.62-.21,1.82,1.82,0,0,0,1.12-1.84,2.1,2.1,0,0,0-.66-1.64,2.5,2.5,0,0,0-1.76-.61h-3.44v7.19h.81v-2.76Zm0-3.66h2.53a1.85,1.85,0,0,1,1.24.4,1.51,1.51,0,0,1,.3,1.78,1.7,1.7,0,0,1-1.59.72h-2.49v-2.89Zm9.57-.77h-1l-3.05,7.19h.9l.88-2.08h3.56l.88,2.08h.9l-3.05-7.19Zm-2,4.36,1.47-3.51,1.47,3.51Zm10.3-4.36h-5.83v.78h2.51v6.41h.81v-6.41h2.51v-.78Zm1.74,0H4213v7.19h.81v-7.19Zm2.2,1a3.87,3.87,0,0,0,0,5.21,3.78,3.78,0,0,0,5.28,0,3.87,3.87,0,0,0,0-5.21,3.78,3.78,0,0,0-5.28,0Zm.57,4.66a3.15,3.15,0,0,1,0-4.1,3,3,0,0,1,4.15,0,3.15,3.15,0,0,1,0,4.1,3,3,0,0,1-4.15,0Zm12.3-5.65v6l-4.44-6h-.94v7.19h.81V5670l4.44,6.07h.95v-7.19Zm3.87.8a3,3,0,0,1,.92-.13,3.28,3.28,0,0,1,.92.11,1.39,1.39,0,0,1,1.15,1.18h.84a1.88,1.88,0,0,0-.73-1.42,3.2,3.2,0,0,0-2.12-.63,3.15,3.15,0,0,0-2,.55,1.77,1.77,0,0,0-.67,1.43,1.33,1.33,0,0,0,.36,1,2.72,2.72,0,0,0,.91.59,7.44,7.44,0,0,0,1.18.36q.64.14,1.18.3a3.24,3.24,0,0,1,.91.41.79.79,0,0,1,.36.68q0,1.27-2,1.27a3.1,3.1,0,0,1-1.55-.34,1.33,1.33,0,0,1-.72-1.13h-.85a2.22,2.22,0,0,0,.8,1.61,3.63,3.63,0,0,0,2.3.63,3.58,3.58,0,0,0,2.09-.53,1.77,1.77,0,0,0,.75-1.54,1.51,1.51,0,0,0-.77-1.34,3.36,3.36,0,0,0-.79-.37q-.45-.15-.91-.26l-.91-.22a5.62,5.62,0,0,1-.79-.25,1.72,1.72,0,0,1-.56-.35.62.62,0,0,1-.21-.45,1.49,1.49,0,0,1,.07-.46.9.9,0,0,1,.28-.4,1.7,1.7,0,0,1,.58-.3Zm7.37-.8v7.19h4.74v-.78H4241v-6.41Zm5.92,1a3.87,3.87,0,0,0,0,5.21,3.78,3.78,0,0,0,5.28,0,3.87,3.87,0,0,0,0-5.21,3.78,3.78,0,0,0-5.28,0Zm.56,4.66a3.15,3.15,0,0,1,0-4.1,3,3,0,0,1,4.15,0,3.15,3.15,0,0,1,0,4.1,3,3,0,0,1-4.15,0Zm8,0a3.34,3.34,0,0,1,0-4.1,2.44,2.44,0,0,1,.86-.61,3.23,3.23,0,0,1,1.28-.22,2.33,2.33,0,0,1,2.21,1.44h.86a3.22,3.22,0,0,0-1.18-1.61,3.47,3.47,0,0,0-2.07-.63,3.29,3.29,0,0,0-2.55,1.07,4.14,4.14,0,0,0,0,5.21,3.29,3.29,0,0,0,2.55,1.07,3.47,3.47,0,0,0,2.07-.63,3.21,3.21,0,0,0,1.18-1.61H4259a2.33,2.33,0,0,1-2.21,1.44,2.7,2.7,0,0,1-2.14-.84Zm9.55-5.65h-1l-3.05,7.19h.9l.88-2.08h3.56l.88,2.08h.9l-3.05-7.19Zm-2,4.36,1.47-3.51,1.47,3.51Zm10.3-4.36h-5.83v.78h2.51v6.41h.81v-6.41h2.51v-.78Zm1.74,0h-.81v7.19h.81v-7.19Zm2.2,1a3.87,3.87,0,0,0,0,5.21,3.78,3.78,0,0,0,5.28,0,3.87,3.87,0,0,0,0-5.21,3.78,3.78,0,0,0-5.28,0Zm.56,4.66a3.15,3.15,0,0,1,0-4.1,3,3,0,0,1,4.15,0,3.15,3.15,0,0,1,0,4.1,3,3,0,0,1-4.15,0Zm12.31-5.65v6l-4.44-6h-.95v7.19h.82V5670l4.44,6.07h.95v-7.19Zm3.87.8a3,3,0,0,1,.92-.13,3.29,3.29,0,0,1,.92.11,1.39,1.39,0,0,1,1.15,1.18h.84a1.88,1.88,0,0,0-.73-1.42,3.2,3.2,0,0,0-2.12-.63,3.15,3.15,0,0,0-2,.55,1.77,1.77,0,0,0-.67,1.43,1.33,1.33,0,0,0,.36,1,2.73,2.73,0,0,0,.91.59,7.49,7.49,0,0,0,1.18.36q.64.14,1.18.3a3.23,3.23,0,0,1,.91.41.79.79,0,0,1,.36.68q0,1.27-2,1.27a3.1,3.1,0,0,1-1.55-.34,1.33,1.33,0,0,1-.72-1.13h-.85a2.22,2.22,0,0,0,.8,1.61,3.63,3.63,0,0,0,2.3.63,3.58,3.58,0,0,0,2.09-.53,1.77,1.77,0,0,0,.75-1.54,1.51,1.51,0,0,0-.77-1.34,3.35,3.35,0,0,0-.79-.37c-.3-.1-.6-.18-.91-.26l-.91-.22a5.67,5.67,0,0,1-.79-.25,1.72,1.72,0,0,1-.56-.35.62.62,0,0,1-.21-.45,1.49,1.49,0,0,1,.07-.46.9.9,0,0,1,.28-.4,1.7,1.7,0,0,1,.58-.3Zm10.59-.8h-1l-3.05,7.19h.9l.88-2.08h3.56l.88,2.08h.9l-3.05-7.19Zm-2,4.36,1.47-3.51,1.47,3.51Zm11.22-4.36v6l-4.44-6h-.94v7.19h.82V5670l4.44,6.07h.95v-7.19Zm2.47,0v7.19h3a3.24,3.24,0,0,0,1.24-.24,3.12,3.12,0,0,0,1.05-.71,4,4,0,0,0,0-5.28,3.12,3.12,0,0,0-1.05-.71,3.24,3.24,0,0,0-1.24-.24Zm.81,6.42v-5.65h2.18a2.29,2.29,0,0,1,1.84.84,3.23,3.23,0,0,1,0,4,2.29,2.29,0,0,1-1.84.84Zm14-6.42h-5.83v.78H4327v6.41h.81v-6.41h2.51v-.78Zm1.74,4.43h2.5l1.74,2.76h1l-1.89-2.9a3.17,3.17,0,0,0,.62-.21,1.82,1.82,0,0,0,1.12-1.84,2.1,2.1,0,0,0-.66-1.64,2.5,2.5,0,0,0-1.76-.61h-3.44v7.19h.81v-2.76Zm0-3.66h2.53a1.85,1.85,0,0,1,1.24.4,1.35,1.35,0,0,1,.47,1.08,1.33,1.33,0,0,1-.16.7,1.7,1.7,0,0,1-1.59.72h-2.49v-2.89Zm6.9.22a3.87,3.87,0,0,0,0,5.21,3.78,3.78,0,0,0,5.28,0,3.87,3.87,0,0,0,0-5.21,3.78,3.78,0,0,0-5.28,0Zm.56,4.66a3.15,3.15,0,0,1,0-4.1,3,3,0,0,1,4.15,0,3.15,3.15,0,0,1,0,4.1,3,3,0,0,1-4.15,0Zm12.13-5.65V5673a2.34,2.34,0,0,1-.69,1.81,2.22,2.22,0,0,1-1.55.55,2.18,2.18,0,0,1-1.54-.55,2.37,2.37,0,0,1-.7-1.81v-4.12h-.82V5673a3.17,3.17,0,0,0,.85,2.31,3.22,3.22,0,0,0,4.41,0,3.16,3.16,0,0,0,.85-2.31v-4.09Zm7.37.63a2.35,2.35,0,0,0-1.77-.63H4354v7.19h3.41a3.39,3.39,0,0,0,1.08-.15,1.72,1.72,0,0,0,1.38-1.74,1.93,1.93,0,0,0-.12-.71,1.87,1.87,0,0,0-1.22-1.07,1.61,1.61,0,0,0,1-1.62,1.72,1.72,0,0,0-.5-1.27Zm-4.18.14h2.5a1.38,1.38,0,0,1,1.05.38,1,1,0,0,1,.24.38,1.43,1.43,0,0,1,.08.49,1.13,1.13,0,0,1-.12.52,1.34,1.34,0,0,1-1.34.68h-2.41v-2.44Zm0,5.65v-2.47h2.6a1.81,1.81,0,0,1,1.25.39,1.14,1.14,0,0,1,.39.89,1,1,0,0,1-.4.88,1.86,1.86,0,0,1-1.15.31Zm6.27-6.42v7.19h4.74v-.78h-3.92v-6.41Zm11,.78v-.78h-5.29v7.19h5.29v-.78h-4.47v-2.42h4v-.79h-4v-2.41Zm.9,3.59h2.71v-.79H4373v.79Zm5.47-3.58a3,3,0,0,1,.92-.13,3.27,3.27,0,0,1,.92.11,1.39,1.39,0,0,1,1.15,1.18h.84a1.88,1.88,0,0,0-.73-1.42,3.2,3.2,0,0,0-2.12-.63,3.14,3.14,0,0,0-2,.55,1.77,1.77,0,0,0-.67,1.43,1.33,1.33,0,0,0,.36,1,2.73,2.73,0,0,0,.91.59,7.49,7.49,0,0,0,1.18.36q.64.14,1.18.3a3.24,3.24,0,0,1,.91.41.79.79,0,0,1,.36.68q0,1.27-2,1.27a3.1,3.1,0,0,1-1.55-.34,1.33,1.33,0,0,1-.72-1.13h-.85a2.22,2.22,0,0,0,.8,1.61,3.63,3.63,0,0,0,2.3.63,3.58,3.58,0,0,0,2.09-.53,1.77,1.77,0,0,0,.75-1.54,1.51,1.51,0,0,0-.77-1.34,3.35,3.35,0,0,0-.79-.37c-.3-.1-.6-.18-.91-.26l-.91-.22a5.67,5.67,0,0,1-.79-.25,1.72,1.72,0,0,1-.56-.35.62.62,0,0,1-.21-.45,1.46,1.46,0,0,1,.07-.46.9.9,0,0,1,.28-.4,1.7,1.7,0,0,1,.58-.3Zm10.16-.8v3.19h-4.18v-3.19h-.81v7.19h.81v-3.2h4.18v3.2h.82v-7.19Zm3,1a3.87,3.87,0,0,0,0,5.21,3.78,3.78,0,0,0,5.28,0,3.87,3.87,0,0,0,0-5.21,3.78,3.78,0,0,0-5.28,0Zm.56,4.66a3.15,3.15,0,0,1,0-4.1,3,3,0,0,1,4.15,0,3.15,3.15,0,0,1,0,4.1,3,3,0,0,1-4.15,0Zm7.47-4.66a3.87,3.87,0,0,0,0,5.21,3.78,3.78,0,0,0,5.28,0,3.87,3.87,0,0,0,0-5.21,3.78,3.78,0,0,0-5.28,0Zm.57,4.66a3.15,3.15,0,0,1,0-4.1,3,3,0,0,1,4.15,0,3.15,3.15,0,0,1,0,4.1,3,3,0,0,1-4.15,0Zm11.72-5.65h-5.83v.78h2.51v6.41h.81v-6.41H4412v-.78Zm1.74,0h-.82v7.19h.82v-7.19Zm7,0v6l-4.44-6h-.95v7.19h.82V5670l4.44,6.07h.95v-7.19Zm3,1a4,4,0,0,0,0,5.21,3.25,3.25,0,0,0,1.11.79,3.21,3.21,0,0,0,1.31.29,4.21,4.21,0,0,0,1.06-.11,3,3,0,0,0,1.72-1.25v1.27h.75v-3.82h-3.38v.74h2.63a2.18,2.18,0,0,1-.78,1.75,2.85,2.85,0,0,1-3.8-.21,3.24,3.24,0,0,1,0-4.1,2.52,2.52,0,0,1,.88-.61,3.21,3.21,0,0,1,1.26-.22,2.61,2.61,0,0,1,1.32.33,2.35,2.35,0,0,1,.91.92h.89a3.27,3.27,0,0,0-1.26-1.48,3.69,3.69,0,0,0-.92-.41,4.27,4.27,0,0,0-1.21-.15,3.3,3.3,0,0,0-1.35.29,3.27,3.27,0,0,0-1.11.79Z" transform="translate(-4074 -5578.58)"/><path class="cls-2" d="M4105.29,5655.75a3,3,0,0,1,.92-.12,3.33,3.33,0,0,1,.92.11,1.39,1.39,0,0,1,1.15,1.18h.84a1.87,1.87,0,0,0-.73-1.42,3.2,3.2,0,0,0-2.12-.63,3.15,3.15,0,0,0-2,.55,1.77,1.77,0,0,0-.67,1.43,1.33,1.33,0,0,0,.36,1,2.7,2.7,0,0,0,.91.59,7.34,7.34,0,0,0,1.18.36q.64.14,1.18.3a3.25,3.25,0,0,1,.91.41.79.79,0,0,1,.36.68q0,1.27-2,1.27a3.1,3.1,0,0,1-1.55-.34,1.33,1.33,0,0,1-.72-1.13h-.85a2.22,2.22,0,0,0,.8,1.61,3.63,3.63,0,0,0,2.3.63,3.58,3.58,0,0,0,2.09-.53,1.77,1.77,0,0,0,.76-1.54,1.51,1.51,0,0,0-.77-1.34,3.36,3.36,0,0,0-.79-.37q-.45-.15-.91-.26l-.91-.22a5.68,5.68,0,0,1-.79-.25,1.71,1.71,0,0,1-.56-.35.62.62,0,0,1-.21-.45,1.49,1.49,0,0,1,.07-.46.88.88,0,0,1,.28-.4,1.68,1.68,0,0,1,.58-.3Zm10.2-.8h-5.83v.78h2.51v6.41h.81v-6.41h2.51v-.78Zm3.51,0h-1l-3.05,7.19h.9l.88-2.08h3.56l.88,2.08h.9l-3.05-7.19Zm-2,4.36,1.47-3.51,1.47,3.51Zm11.22-4.36v6l-4.44-6h-.94v7.19h.81v-6.07l4.44,6.07h.94v-7.19Zm2.46,0v7.19h3a3.24,3.24,0,0,0,1.24-.24,3.11,3.11,0,0,0,1.05-.71,4,4,0,0,0,0-5.28,3.12,3.12,0,0,0-1.05-.71,3.24,3.24,0,0,0-1.24-.24Zm.82,6.42v-5.65h2.18a2.29,2.29,0,0,1,1.84.84,3.23,3.23,0,0,1,0,4,2.29,2.29,0,0,1-1.84.84Zm7.28-5.43a3.87,3.87,0,0,0,0,5.21,3.78,3.78,0,0,0,5.28,0,3.87,3.87,0,0,0,0-5.21,3.78,3.78,0,0,0-5.28,0Zm.56,4.66a3.15,3.15,0,0,1,0-4.11,3,3,0,0,1,4.15,0,3.15,3.15,0,0,1,0,4.11,3,3,0,0,1-4.15,0Zm7.73-1.22h2.5l1.74,2.76h1l-1.89-2.9a3.1,3.1,0,0,0,.62-.21,1.82,1.82,0,0,0,1.12-1.83,2.1,2.1,0,0,0-.66-1.64,2.5,2.5,0,0,0-1.76-.61h-3.44v7.19h.81v-2.76Zm0-3.66h2.53a1.85,1.85,0,0,1,1.24.4,1.51,1.51,0,0,1,.3,1.78,1.7,1.7,0,0,1-1.59.72h-2.49v-2.89Zm11.35-.77h-5.83v.78h2.51v6.41h.82v-6.41h2.51v-.78Zm6.21.78v-.78h-5.29v7.19h5.29v-.78h-4.47v-2.42h4v-.79h-4v-2.41Zm3.92.21a4,4,0,0,0,0,5.21,3.26,3.26,0,0,0,1.11.79,3.21,3.21,0,0,0,1.31.29,4.16,4.16,0,0,0,1.06-.11,3,3,0,0,0,1.72-1.25v1.27h.75v-3.82h-3.38v.74h2.63a2.18,2.18,0,0,1-.78,1.75,2.85,2.85,0,0,1-3.8-.21,3.24,3.24,0,0,1,0-4.11,2.52,2.52,0,0,1,.88-.61,3.21,3.21,0,0,1,1.26-.22,2.61,2.61,0,0,1,1.32.33,2.35,2.35,0,0,1,.91.92h.89a3.28,3.28,0,0,0-1.26-1.48,3.72,3.72,0,0,0-.92-.41,4.23,4.23,0,0,0-1.21-.15,3.32,3.32,0,0,0-1.35.29,3.27,3.27,0,0,0-1.11.79Zm8,3.44h2.5l1.74,2.76h1l-1.89-2.9a3.08,3.08,0,0,0,.62-.21,1.82,1.82,0,0,0,1.12-1.83,2.1,2.1,0,0,0-.66-1.64,2.5,2.5,0,0,0-1.76-.61h-3.44v7.19h.82v-2.76Zm0-3.66h2.53a1.85,1.85,0,0,1,1.24.4,1.51,1.51,0,0,1,.3,1.78,1.7,1.7,0,0,1-1.59.72h-2.49v-2.89Zm11.63,0v-.78H4183v7.19h5.29v-.78h-4.47v-2.42h4v-.79h-4v-2.41Zm6.49,0v-.78h-5.29v7.19h5.29v-.78h-4.48v-2.42h4v-.79h-4v-2.41Zm6.59-.78v6l-4.44-6H4196v7.19h.82v-6.07l4.44,6.07h.94v-7.19Zm9,1.15,1.94,6h.92l2.24-7.19h-.86l-1.85,6-1.93-6h-.93l-1.93,6-1.85-6h-.86l2.24,7.19h.92l1.94-6Zm6.79-1.15h-.81v7.19h.81v-7.19Zm7,0v6l-4.44-6h-.94v7.19h.81v-6.07l4.44,6.07h.94v-7.19Zm2.46,0v7.19h3a3.24,3.24,0,0,0,1.24-.24,3.1,3.1,0,0,0,1.05-.71,4,4,0,0,0,0-5.28,3.11,3.11,0,0,0-1.05-.71,3.24,3.24,0,0,0-1.24-.24Zm.82,6.42v-5.65h2.18a2.29,2.29,0,0,1,1.84.84,3.23,3.23,0,0,1,0,4,2.29,2.29,0,0,1-1.84.84Zm9.48-5.43a3.87,3.87,0,0,0,0,5.21,3.78,3.78,0,0,0,5.28,0,3.87,3.87,0,0,0,0-5.21,3.78,3.78,0,0,0-5.28,0Zm.56,4.66a3.15,3.15,0,0,1,0-4.11,3,3,0,0,1,4.15,0,3.15,3.15,0,0,1,0,4.11,3,3,0,0,1-4.15,0Zm7.73-1h2.42a2.54,2.54,0,0,0,1.81-.62,2.47,2.47,0,0,0,0-3.37,2.55,2.55,0,0,0-1.81-.63h-3.24v7.19h.82v-2.56Zm2.37-3.85a1.8,1.8,0,0,1,1.28.41,1.7,1.7,0,0,1,0,2.27,1.8,1.8,0,0,1-1.28.41h-2.37v-3.09Zm8.82,0v-.78h-5.29v7.19h5.29v-.78h-4.48v-2.42h4v-.79h-4v-2.41Zm2,3.65h2.5l1.74,2.76h1l-1.89-2.9a3.08,3.08,0,0,0,.62-.21,1.82,1.82,0,0,0,1.12-1.83,2.1,2.1,0,0,0-.66-1.64,2.5,2.5,0,0,0-1.76-.61h-3.44v7.19h.82v-2.76Zm0-3.66H4261a1.85,1.85,0,0,1,1.24.4,1.51,1.51,0,0,1,.3,1.78,1.7,1.7,0,0,1-1.59.72h-2.49v-2.89Zm9.57-.77h-1l-3.05,7.19h.9l.88-2.08h3.56l.88,2.08h.9l-3.05-7.19Zm-2,4.36,1.47-3.51,1.47,3.51Zm10.3-4.36h-5.83v.78H4273v6.41h.82v-6.41h2.51v-.78Zm1.74,0h-.81v7.19h.81v-7.19Zm2.21,1a3.87,3.87,0,0,0,0,5.21,3.78,3.78,0,0,0,5.28,0,3.87,3.87,0,0,0,0-5.21,3.78,3.78,0,0,0-5.28,0Zm.56,4.66a3.15,3.15,0,0,1,0-4.11,3,3,0,0,1,4.15,0,3.15,3.15,0,0,1,0,4.11,3,3,0,0,1-4.15,0Zm12.3-5.65v6l-4.44-6h-.95v7.19h.82v-6.07l4.44,6.07h.94v-7.19Zm3.87.8a3,3,0,0,1,.92-.12,3.33,3.33,0,0,1,.92.11,1.39,1.39,0,0,1,1.15,1.18h.84a1.88,1.88,0,0,0-.73-1.42,3.2,3.2,0,0,0-2.12-.63,3.15,3.15,0,0,0-2,.55,1.77,1.77,0,0,0-.67,1.43,1.33,1.33,0,0,0,.36,1,2.71,2.71,0,0,0,.91.59,7.38,7.38,0,0,0,1.18.36q.64.14,1.18.3a3.25,3.25,0,0,1,.91.41.79.79,0,0,1,.36.68q0,1.27-2,1.27a3.1,3.1,0,0,1-1.55-.34,1.33,1.33,0,0,1-.72-1.13h-.85a2.22,2.22,0,0,0,.8,1.61,3.63,3.63,0,0,0,2.3.63,3.58,3.58,0,0,0,2.09-.53,1.77,1.77,0,0,0,.76-1.54,1.51,1.51,0,0,0-.77-1.34,3.36,3.36,0,0,0-.79-.37q-.45-.15-.91-.26l-.91-.22a5.68,5.68,0,0,1-.79-.25,1.7,1.7,0,0,1-.56-.35.62.62,0,0,1-.21-.45,1.49,1.49,0,0,1,.07-.46.88.88,0,0,1,.28-.4,1.68,1.68,0,0,1,.58-.3Zm12.58-.8v4.12a2.34,2.34,0,0,1-.7,1.81,2.21,2.21,0,0,1-1.55.55,2.17,2.17,0,0,1-1.54-.55,2.36,2.36,0,0,1-.7-1.81v-4.12h-.82v4.1a3.16,3.16,0,0,0,.85,2.31,3.22,3.22,0,0,0,4.41,0,3.16,3.16,0,0,0,.85-2.31v-4.1Zm7.77,0v6l-4.44-6H4312v7.19h.81v-6.07l4.44,6.07h.95v-7.19Zm2.47,0v7.19h3a3.24,3.24,0,0,0,1.24-.24,3.09,3.09,0,0,0,1.05-.71,4,4,0,0,0,0-5.28,3.1,3.1,0,0,0-1.05-.71,3.24,3.24,0,0,0-1.24-.24Zm.81,6.42v-5.65h2.18a2.29,2.29,0,0,1,1.83.84,3.23,3.23,0,0,1,0,4,2.29,2.29,0,0,1-1.83.84Zm14-6.42h-5.83v.78h2.51v6.41h.82v-6.41h2.51v-.78Zm1.74,4.43h2.5l1.74,2.76h1l-1.89-2.9a3.08,3.08,0,0,0,.62-.21,1.82,1.82,0,0,0,1.12-1.83,2.1,2.1,0,0,0-.66-1.64,2.5,2.5,0,0,0-1.76-.61h-3.44v7.19h.82v-2.76Zm0-3.66h2.53a1.85,1.85,0,0,1,1.24.4,1.52,1.52,0,0,1,.3,1.78,1.7,1.7,0,0,1-1.59.72h-2.49v-2.89Zm6.9.22a3.87,3.87,0,0,0,0,5.21,3.78,3.78,0,0,0,5.28,0,3.87,3.87,0,0,0,0-5.21,3.78,3.78,0,0,0-5.28,0Zm.56,4.66a3.15,3.15,0,0,1,0-4.11,3,3,0,0,1,4.15,0,3.15,3.15,0,0,1,0,4.11,3,3,0,0,1-4.15,0Zm12.13-5.65v4.12a2.34,2.34,0,0,1-.7,1.81,2.22,2.22,0,0,1-1.55.55,2.17,2.17,0,0,1-1.54-.55,2.36,2.36,0,0,1-.69-1.81v-4.12h-.81v4.1a3.16,3.16,0,0,0,.85,2.31,3.22,3.22,0,0,0,4.41,0,3.17,3.17,0,0,0,.85-2.31v-4.1Zm7.37.63a2.35,2.35,0,0,0-1.77-.63h-3.23v7.19h3.41a3.42,3.42,0,0,0,1.08-.15,1.72,1.72,0,0,0,1.38-1.74,1.92,1.92,0,0,0-.12-.71,1.87,1.87,0,0,0-1.22-1.07,1.61,1.61,0,0,0,1-1.62,1.72,1.72,0,0,0-.5-1.27Zm-4.18.14h2.5a1.38,1.38,0,0,1,1.05.38,1,1,0,0,1,.24.37,1.44,1.44,0,0,1,.08.49,1.14,1.14,0,0,1-.12.52,1.34,1.34,0,0,1-1.34.68h-2.41v-2.44Zm0,5.65v-2.47h2.6a1.8,1.8,0,0,1,1.25.39,1.13,1.13,0,0,1,.39.89,1,1,0,0,1-.4.87,1.85,1.85,0,0,1-1.15.31Zm6.27-6.42v7.19h4.73v-.78h-3.92v-6.41Zm11,.78v-.78h-5.29v7.19h5.29v-.78h-4.48v-2.42h4v-.79h-4v-2.41Zm2.52,0a3,3,0,0,1,.92-.12,3.33,3.33,0,0,1,.92.11,1.39,1.39,0,0,1,1.15,1.18h.84a1.87,1.87,0,0,0-.73-1.42,3.2,3.2,0,0,0-2.12-.63,3.15,3.15,0,0,0-2,.55,1.77,1.77,0,0,0-.67,1.43,1.33,1.33,0,0,0,.36,1,2.7,2.7,0,0,0,.91.59,7.34,7.34,0,0,0,1.18.36q.64.14,1.18.3a3.25,3.25,0,0,1,.91.41.79.79,0,0,1,.36.68q0,1.27-2,1.27a3.1,3.1,0,0,1-1.55-.34,1.33,1.33,0,0,1-.72-1.13H4377a2.22,2.22,0,0,0,.8,1.61,3.63,3.63,0,0,0,2.3.63,3.58,3.58,0,0,0,2.09-.53,1.77,1.77,0,0,0,.75-1.54,1.51,1.51,0,0,0-.77-1.34,3.36,3.36,0,0,0-.79-.37q-.45-.15-.91-.26l-.91-.22a5.68,5.68,0,0,1-.79-.25,1.71,1.71,0,0,1-.56-.35.62.62,0,0,1-.21-.45,1.49,1.49,0,0,1,.07-.46.88.88,0,0,1,.28-.4,1.68,1.68,0,0,1,.58-.3Zm10.16-.8v3.19h-4.18v-3.19h-.81v7.19h.81v-3.2h4.18v3.2h.81v-7.19Zm3,1a3.87,3.87,0,0,0,0,5.21,3.78,3.78,0,0,0,5.28,0,3.87,3.87,0,0,0,0-5.21,3.78,3.78,0,0,0-5.28,0Zm.56,4.66a3.15,3.15,0,0,1,0-4.11,3,3,0,0,1,4.15,0,3.15,3.15,0,0,1,0,4.11,3,3,0,0,1-4.15,0Zm7.47-4.66a3.87,3.87,0,0,0,0,5.21,3.78,3.78,0,0,0,5.28,0,3.87,3.87,0,0,0,0-5.21,3.78,3.78,0,0,0-5.28,0Zm.56,4.66a3.15,3.15,0,0,1,0-4.11,3,3,0,0,1,4.15,0,3.15,3.15,0,0,1,0,4.11,3,3,0,0,1-4.15,0Zm11.72-5.65h-5.83v.78h2.51v6.41h.82v-6.41h2.51v-.78Zm6.21.78v-.78h-5.29v7.19h5.29v-.78h-4.47v-2.42h4v-.79h-4v-2.41Zm2,3.65h2.5l1.74,2.76h1l-1.89-2.9a3.11,3.11,0,0,0,.62-.21,1.82,1.82,0,0,0,1.12-1.83,2.1,2.1,0,0,0-.66-1.64,2.5,2.5,0,0,0-1.76-.61h-3.44v7.19h.81v-2.76Zm0-3.66h2.53a1.85,1.85,0,0,1,1.24.4,1.51,1.51,0,0,1,.3,1.78,1.7,1.7,0,0,1-1.59.72h-2.49v-2.89Z" transform="translate(-4074 -5578.58)"/><path class="cls-1" d="M4107.11,5627h-1l-3.05,7.19h.9l.88-2.08h3.56l.88,2.08h.9l-3.05-7.19Zm-2,4.35,1.47-3.51,1.47,3.51Zm11.22-4.35v6l-4.44-6H4111v7.19h.81v-6.07l4.44,6.07h.94V5627Zm2.46,0v7.19h3a3.24,3.24,0,0,0,1.24-.24,3.11,3.11,0,0,0,1.05-.71,4,4,0,0,0,0-5.28,3.1,3.1,0,0,0-1.05-.71,3.24,3.24,0,0,0-1.24-.24Zm.82,6.42v-5.65h2.18a2.29,2.29,0,0,1,1.83.84,3.23,3.23,0,0,1,0,4,2.29,2.29,0,0,1-1.83.84Zm15-6.42-2.53,3.41-2.57-3.41h-.95v7.19h.81v-6l2.7,3.42,2.66-3.42v6h.81V5627Zm5.82,0h-1l-3.05,7.19h.9l.88-2.08h3.56l.88,2.08h.9l-3.05-7.19Zm-2,4.35,1.47-3.51,1.47,3.51Zm11.22-4.35v6l-4.44-6h-.94v7.19h.81v-6.07l4.44,6.07h.94V5627Zm5.69,0h-1l-3.05,7.19h.9l.88-2.08h3.56l.88,2.08h.9l-3.05-7.19Zm-2,4.35,1.47-3.51,1.47,3.51Zm6.2-3.37a4.05,4.05,0,0,0,0,5.21,3.27,3.27,0,0,0,1.11.79,3.22,3.22,0,0,0,1.31.29,4.21,4.21,0,0,0,1.06-.11,3,3,0,0,0,1.72-1.25v1.27h.75v-3.82h-3.38v.74h2.63a2.18,2.18,0,0,1-.78,1.75,2.84,2.84,0,0,1-3.8-.21,3.24,3.24,0,0,1,0-4.1,2.51,2.51,0,0,1,.88-.61,3.19,3.19,0,0,1,1.26-.22,2.62,2.62,0,0,1,1.32.33,2.36,2.36,0,0,1,.91.92h.89a3.29,3.29,0,0,0-1.26-1.48,3.69,3.69,0,0,0-.92-.41,4.26,4.26,0,0,0-1.21-.15,3.39,3.39,0,0,0-2.46,1.08Zm12.52-.21V5627h-5.29v7.19h5.29v-.78h-4.47V5631h4v-.79h-4v-2.41Zm1.21-.78v7.19h3a3.24,3.24,0,0,0,1.24-.24,3.1,3.1,0,0,0,1.05-.71,4,4,0,0,0,0-5.28,3.09,3.09,0,0,0-1.05-.71,3.24,3.24,0,0,0-1.24-.24Zm.81,6.42v-5.65h2.18a2.29,2.29,0,0,1,1.84.84,3.23,3.23,0,0,1,0,4,2.29,2.29,0,0,1-1.84.84Zm13.92-5.79a2.35,2.35,0,0,0-1.77-.63h-3.23v7.19h3.41a3.39,3.39,0,0,0,1.07-.15,1.72,1.72,0,0,0,1.38-1.74,1.92,1.92,0,0,0-.12-.71,1.87,1.87,0,0,0-1.22-1.08,1.61,1.61,0,0,0,1-1.62,1.72,1.72,0,0,0-.5-1.27Zm-4.18.14h2.5a1.38,1.38,0,0,1,1.05.38,1,1,0,0,1,.24.38,1.46,1.46,0,0,1,.08.49,1.13,1.13,0,0,1-.12.52,1.34,1.34,0,0,1-1.34.68h-2.41v-2.44Zm0,5.65V5631h2.6a1.8,1.8,0,0,1,1.25.39,1.14,1.14,0,0,1,.39.89,1,1,0,0,1-.4.87,1.86,1.86,0,0,1-1.15.31Zm8.93-2.07,3-4.34h-1l-2.43,3.5-2.43-3.5h-1l3,4.34v2.85h.81v-2.85Zm6.49-3.36a4.05,4.05,0,0,0,0,5.21,3.27,3.27,0,0,0,1.11.79,3.23,3.23,0,0,0,1.31.29,4.21,4.21,0,0,0,1.06-.11,3,3,0,0,0,1.72-1.25v1.27h.75v-3.82h-3.38v.74h2.63a2.18,2.18,0,0,1-.78,1.75,2.84,2.84,0,0,1-3.8-.21,3.24,3.24,0,0,1,0-4.1,2.51,2.51,0,0,1,.88-.61,3.19,3.19,0,0,1,1.26-.22,2.62,2.62,0,0,1,1.32.33,2.36,2.36,0,0,1,.91.92h.89a3.29,3.29,0,0,0-1.26-1.48,3.71,3.71,0,0,0-.92-.41,4.26,4.26,0,0,0-1.21-.15,3.39,3.39,0,0,0-2.46,1.08Zm8,3.44h2.5l1.74,2.76h1l-1.89-2.9a3.09,3.09,0,0,0,.62-.21,1.82,1.82,0,0,0,1.12-1.84,2.1,2.1,0,0,0-.66-1.64,2.5,2.5,0,0,0-1.76-.61h-3.44v7.19h.82v-2.76Zm0-3.66h2.53a1.85,1.85,0,0,1,1.24.4,1.35,1.35,0,0,1,.47,1.08,1.33,1.33,0,0,1-.16.7,1.7,1.7,0,0,1-1.58.72h-2.49v-2.89Zm11.63,0V5627h-5.29v7.19H4219v-.78h-4.47V5631h4v-.79h-4v-2.41Zm6.49,0V5627h-5.29v7.19h5.29v-.78H4221V5631h4v-.79h-4v-2.41Zm6.59-.78v6l-4.44-6h-.94v7.19h.81v-6.07l4.44,6.07h.94V5627Zm9,1.15,1.94,6h.92l2.24-7.19h-.86l-1.85,6-1.93-6h-.93l-1.93,6-1.85-6h-.86l2.24,7.19h.92l1.94-6Zm6.79-1.15H4247v7.19h.81V5627Zm7,0v6l-4.44-6h-.95v7.19h.81v-6.07l4.44,6.07h.94V5627Zm2.46,0v7.19h3a3.24,3.24,0,0,0,1.24-.24,3.1,3.1,0,0,0,1.05-.71,4,4,0,0,0,0-5.28,3.09,3.09,0,0,0-1.05-.71,3.24,3.24,0,0,0-1.24-.24Zm.81,6.42v-5.65h2.18a2.29,2.29,0,0,1,1.84.84,3.23,3.23,0,0,1,0,4,2.29,2.29,0,0,1-1.84.84Zm9.48-5.43a3.87,3.87,0,0,0,0,5.21,3.78,3.78,0,0,0,5.28,0,3.87,3.87,0,0,0,0-5.21,3.78,3.78,0,0,0-5.28,0Zm.57,4.66a3.15,3.15,0,0,1,0-4.1,3,3,0,0,1,4.15,0,3.15,3.15,0,0,1,0,4.1,3,3,0,0,1-4.15,0Zm7.73-1h2.42a2.54,2.54,0,0,0,1.81-.62,2.47,2.47,0,0,0,0-3.37,2.55,2.55,0,0,0-1.81-.63h-3.24v7.19h.82v-2.56Zm2.37-3.85a1.8,1.8,0,0,1,1.28.41,1.7,1.7,0,0,1,0,2.27,1.8,1.8,0,0,1-1.28.41h-2.37v-3.09Zm8.82,0V5627h-5.29v7.19h5.29v-.78h-4.48V5631h4v-.79h-4v-2.41Zm2,3.65h2.5l1.74,2.76h1l-1.89-2.9a3.11,3.11,0,0,0,.62-.21,1.82,1.82,0,0,0,1.12-1.84,2.09,2.09,0,0,0-.66-1.64,2.5,2.5,0,0,0-1.76-.61h-3.44v7.19h.81v-2.76Zm0-3.66h2.53a1.85,1.85,0,0,1,1.24.4,1.35,1.35,0,0,1,.47,1.08,1.33,1.33,0,0,1-.16.7,1.7,1.7,0,0,1-1.59.72h-2.49v-2.89Zm9.57-.77h-1l-3.05,7.19h.9l.88-2.08H4300l.88,2.08h.9l-3.05-7.19Zm-2,4.35,1.47-3.51,1.47,3.51ZM4307,5627h-5.83v.78h2.51v6.41h.82v-6.41H4307V5627Zm1.74,0h-.82v7.19h.82V5627Zm2.2,1a3.87,3.87,0,0,0,0,5.21,3.78,3.78,0,0,0,5.28,0,3.87,3.87,0,0,0,0-5.21,3.78,3.78,0,0,0-5.28,0Zm.56,4.66a3.15,3.15,0,0,1,0-4.1,3,3,0,0,1,4.15,0,3.15,3.15,0,0,1,0,4.1,3,3,0,0,1-4.15,0Zm12.31-5.65v6l-4.44-6h-.94v7.19h.82v-6.07l4.44,6.07h.94V5627Zm3.87.8a3,3,0,0,1,.92-.12,3.31,3.31,0,0,1,.92.11,1.39,1.39,0,0,1,1.15,1.18h.84a1.88,1.88,0,0,0-.73-1.42,3.2,3.2,0,0,0-2.12-.63,3.15,3.15,0,0,0-2,.55,1.77,1.77,0,0,0-.67,1.43,1.32,1.32,0,0,0,.36,1,2.69,2.69,0,0,0,.91.59,7.45,7.45,0,0,0,1.18.36q.63.14,1.18.3a3.24,3.24,0,0,1,.91.41.79.79,0,0,1,.36.69q0,1.27-2,1.27a3.11,3.11,0,0,1-1.55-.34,1.34,1.34,0,0,1-.72-1.13h-.85a2.22,2.22,0,0,0,.8,1.61,3.64,3.64,0,0,0,2.3.63,3.58,3.58,0,0,0,2.09-.53,1.77,1.77,0,0,0,.76-1.54,1.51,1.51,0,0,0-.77-1.34,3.32,3.32,0,0,0-.79-.37q-.45-.15-.91-.26l-.91-.22a5.55,5.55,0,0,1-.79-.25,1.7,1.7,0,0,1-.56-.35.62.62,0,0,1-.21-.45,1.48,1.48,0,0,1,.07-.46.9.9,0,0,1,.28-.4,1.74,1.74,0,0,1,.58-.3Z" transform="translate(-4074 -5578.58)"/><path class="cls-1" d="M4108.2,5614.21l1.94,6h.92l2.24-7.19h-.86l-1.85,6-1.93-6h-.93l-1.93,6-1.85-6h-.86l2.24,7.19h.92l1.94-6Zm6.79-1.15h-.81v7.19h.81v-7.19Zm7,0v6l-4.44-6h-.95v7.19h.82v-6.07l4.44,6.07h.94v-7.19Zm2.46,0v7.19h3a3.24,3.24,0,0,0,1.24-.24,3.11,3.11,0,0,0,1.05-.71,4,4,0,0,0,0-5.28,3.11,3.11,0,0,0-1.05-.71,3.24,3.24,0,0,0-1.24-.24Zm.82,6.42v-5.65h2.18a2.29,2.29,0,0,1,1.84.84,3.23,3.23,0,0,1,0,4,2.29,2.29,0,0,1-1.84.84Zm14.12-5.64v-.78h-5.19v7.19h.81v-3.12h3.9v-.79h-3.9v-2.5Zm3.67-.78h-1l-3.05,7.19h.9l.88-2.08h3.56l.88,2.08h.9l-3.05-7.19Zm-2,4.35,1.47-3.51,1.47,3.51Zm6.65.08h2.5l1.74,2.76h1l-1.89-2.9a3.15,3.15,0,0,0,.62-.21,1.82,1.82,0,0,0,1.12-1.84,2.1,2.1,0,0,0-.66-1.64,2.5,2.5,0,0,0-1.76-.61H4147v7.19h.82v-2.76Zm0-3.66h2.53a1.85,1.85,0,0,1,1.24.4,1.35,1.35,0,0,1,.47,1.08,1.33,1.33,0,0,1-.16.7,1.7,1.7,0,0,1-1.59.72h-2.49v-2.89Zm12.39-.77-2.53,3.41-2.57-3.41h-.95v7.19h.81v-6l2.71,3.42,2.66-3.42v6h.82v-7.19Zm4,.8a3,3,0,0,1,.92-.12,3.28,3.28,0,0,1,.92.11,1.39,1.39,0,0,1,1.15,1.18h.84a1.88,1.88,0,0,0-.73-1.42,3.2,3.2,0,0,0-2.12-.63,3.14,3.14,0,0,0-2,.55,1.77,1.77,0,0,0-.67,1.43,1.33,1.33,0,0,0,.36,1,2.71,2.71,0,0,0,.91.59,7.42,7.42,0,0,0,1.18.36q.63.14,1.18.3a3.27,3.27,0,0,1,.91.41.79.79,0,0,1,.36.68q0,1.27-2,1.27a3.1,3.1,0,0,1-1.55-.34,1.33,1.33,0,0,1-.72-1.13h-.85a2.22,2.22,0,0,0,.8,1.61,3.64,3.64,0,0,0,2.3.63,3.58,3.58,0,0,0,2.09-.53,1.77,1.77,0,0,0,.75-1.54,1.51,1.51,0,0,0-.77-1.34,3.36,3.36,0,0,0-.79-.37q-.45-.15-.91-.26l-.91-.22a5.63,5.63,0,0,1-.79-.25,1.73,1.73,0,0,1-.56-.35.62.62,0,0,1-.21-.45,1.49,1.49,0,0,1,.07-.46.89.89,0,0,1,.28-.4,1.71,1.71,0,0,1,.58-.3Zm12.47-.8h-5.83v.78h2.51v6.41h.81v-6.41h2.51v-.78Zm6.21.78v-.78h-5.29v7.19h5.29v-.78h-4.47V5617h4v-.79h-4v-2.41Zm2.14,4.86a3.34,3.34,0,0,1,0-4.11,2.44,2.44,0,0,1,.86-.61,3.23,3.23,0,0,1,1.28-.22,2.33,2.33,0,0,1,2.22,1.44h.86a3.22,3.22,0,0,0-1.18-1.61,3.47,3.47,0,0,0-2.07-.63,3.29,3.29,0,0,0-2.55,1.08,4.14,4.14,0,0,0,0,5.21,3.29,3.29,0,0,0,2.55,1.08,3.47,3.47,0,0,0,2.07-.63,3.22,3.22,0,0,0,1.18-1.61h-.86a2.33,2.33,0,0,1-2.22,1.44,2.7,2.7,0,0,1-2.14-.84Zm11.32-5.65v3.19h-4.18v-3.19h-.82v7.19h.82V5617h4.18v3.2h.81v-7.19Zm7.85,0v6l-4.44-6h-.94v7.19h.81v-6.07l4.44,6.07h.94v-7.19Zm3.28,0h-.81v7.19h.81v-7.19Zm2.72,5.65a3.34,3.34,0,0,1,0-4.11,2.44,2.44,0,0,1,.86-.61,3.23,3.23,0,0,1,1.28-.22,2.33,2.33,0,0,1,2.21,1.44h.86a3.22,3.22,0,0,0-1.18-1.61,3.47,3.47,0,0,0-2.08-.63,3.29,3.29,0,0,0-2.55,1.08,4.14,4.14,0,0,0,0,5.21,3.29,3.29,0,0,0,2.55,1.08,3.47,3.47,0,0,0,2.08-.63,3.22,3.22,0,0,0,1.18-1.61h-.86a2.33,2.33,0,0,1-2.21,1.44,2.7,2.7,0,0,1-2.14-.84Zm9.55-5.65h-1l-3.05,7.19h.9l.88-2.08H4221l.88,2.08h.9l-3.05-7.19Zm-2,4.35,1.47-3.51,1.47,3.51Zm5.83-4.35v7.19h4.73v-.78h-3.92v-6.41Zm5.68,0v7.19H4234v-.78H4230v-6.41Zm7.5,4.34,3-4.34h-1l-2.43,3.5-2.43-3.5h-1l3,4.34v2.84h.82v-2.84Zm9.21-4.34h-1l-3.05,7.19h.9l.88-2.08h3.56l.88,2.08h.9l-3.05-7.19Zm-2,4.35,1.47-3.51,1.47,3.51Zm11.22-4.35v6l-4.44-6h-.95v7.19h.81v-6.07l4.44,6.07h.94v-7.19Zm2.47,0v7.19h3a3.24,3.24,0,0,0,1.24-.24,3.1,3.1,0,0,0,1.05-.71,4,4,0,0,0,0-5.28,3.1,3.1,0,0,0-1.05-.71,3.24,3.24,0,0,0-1.24-.24Zm.81,6.42v-5.65h2.18a2.29,2.29,0,0,1,1.84.84,3.23,3.23,0,0,1,0,4,2.29,2.29,0,0,1-1.84.84Zm10-.77a3.34,3.34,0,0,1,0-4.11,2.43,2.43,0,0,1,.86-.61,3.23,3.23,0,0,1,1.28-.22,2.33,2.33,0,0,1,2.21,1.44h.86a3.22,3.22,0,0,0-1.18-1.61,3.47,3.47,0,0,0-2.07-.63,3.29,3.29,0,0,0-2.55,1.08,4.14,4.14,0,0,0,0,5.21,3.29,3.29,0,0,0,2.55,1.08,3.47,3.47,0,0,0,2.07-.63,3.21,3.21,0,0,0,1.18-1.61h-.86a2.33,2.33,0,0,1-2.21,1.44,2.7,2.7,0,0,1-2.14-.84Zm6.82-4.66a3.87,3.87,0,0,0,0,5.21,3.78,3.78,0,0,0,5.28,0,3.87,3.87,0,0,0,0-5.21,3.78,3.78,0,0,0-5.28,0Zm.56,4.66a3.15,3.15,0,0,1,0-4.11,3,3,0,0,1,4.15,0,3.15,3.15,0,0,1,0,4.11,3,3,0,0,1-4.15,0Zm13-5.65-2.53,3.41-2.57-3.41h-.95v7.19h.82v-6l2.7,3.42,2.66-3.42v6h.82v-7.19Zm8.64,0-2.53,3.41-2.57-3.41h-.95v7.19h.81v-6l2.7,3.42,2.66-3.42v6h.81v-7.19Zm7.89.78v-.78H4300v7.19h5.29v-.78h-4.47V5617h4v-.79h-4v-2.41Zm2,3.65h2.5l1.74,2.76h1l-1.89-2.9a3.15,3.15,0,0,0,.62-.21,1.82,1.82,0,0,0,1.12-1.84,2.1,2.1,0,0,0-.66-1.64,2.5,2.5,0,0,0-1.76-.61h-3.44v7.19h.82v-2.76Zm0-3.66h2.53a1.85,1.85,0,0,1,1.24.4,1.52,1.52,0,0,1,.3,1.78,1.7,1.7,0,0,1-1.59.72h-2.49v-2.89Zm7.41,4.88a3.34,3.34,0,0,1,0-4.11,2.42,2.42,0,0,1,.86-.61,3.22,3.22,0,0,1,1.28-.22,2.33,2.33,0,0,1,2.22,1.44h.86a3.23,3.23,0,0,0-1.18-1.61,3.47,3.47,0,0,0-2.08-.63,3.29,3.29,0,0,0-2.55,1.08,4.14,4.14,0,0,0,0,5.21,3.29,3.29,0,0,0,2.55,1.08,3.47,3.47,0,0,0,2.08-.63,3.22,3.22,0,0,0,1.18-1.61h-.86a2.33,2.33,0,0,1-2.22,1.44,2.7,2.7,0,0,1-2.14-.84Zm7.13-5.65h-.82v7.19h.82v-7.19Zm4.88,0h-1l-3.05,7.19h.9l.88-2.08H4328l.88,2.08h.9l-3.05-7.19Zm-2,4.35,1.47-3.51,1.47,3.51Zm5.83-4.35v7.19h4.73v-.78h-3.92v-6.41Zm5.68,0v7.19H4341v-.78h-3.92v-6.41Zm7.5,4.34,3-4.34h-1l-2.43,3.5-2.43-3.5h-1l3,4.34v2.84h.81v-2.84Zm6.54-3.36a3.87,3.87,0,0,0,0,5.21,3.78,3.78,0,0,0,5.28,0,3.87,3.87,0,0,0,0-5.21,3.78,3.78,0,0,0-5.28,0Zm.57,4.66a3.15,3.15,0,0,1,0-4.11,3,3,0,0,1,4.15,0,3.15,3.15,0,0,1,0,4.11,3,3,0,0,1-4.15,0Zm7.73-1h2.42a2.54,2.54,0,0,0,1.81-.62,2.47,2.47,0,0,0,0-3.37,2.55,2.55,0,0,0-1.81-.63h-3.24v7.19h.82v-2.56Zm2.37-3.85a1.8,1.8,0,0,1,1.28.41,1.7,1.7,0,0,1,0,2.27,1.79,1.79,0,0,1-1.28.41h-2.37v-3.09Zm8.82,0v-.78h-5.29v7.19h5.29v-.78h-4.48V5617h4v-.79h-4v-2.41Zm2,3.65h2.5l1.74,2.76h1l-1.89-2.9a3.17,3.17,0,0,0,.62-.21,1.82,1.82,0,0,0,1.12-1.84,2.09,2.09,0,0,0-.66-1.64,2.5,2.5,0,0,0-1.76-.61H4371v7.19h.81v-2.76Zm0-3.66h2.53a1.85,1.85,0,0,1,1.24.4,1.35,1.35,0,0,1,.47,1.08,1.33,1.33,0,0,1-.16.7,1.7,1.7,0,0,1-1.59.72h-2.49v-2.89Zm9.57-.77h-1l-3.05,7.19h.9l.88-2.08h3.56l.88,2.08h.9l-3.05-7.19Zm-2,4.35,1.47-3.51,1.47,3.51Zm10.3-4.35h-5.83v.78h2.51v6.41h.82v-6.41h2.51v-.78Zm6.21.78v-.78h-5.29v7.19H4396v-.78h-4.47V5617h4v-.79h-4v-2.41Zm1.21-.78v7.19h3a3.24,3.24,0,0,0,1.24-.24,3.1,3.1,0,0,0,1.05-.71,4,4,0,0,0,0-5.28,3.1,3.1,0,0,0-1.05-.71,3.24,3.24,0,0,0-1.24-.24Zm.81,6.42v-5.65h2.18a2.29,2.29,0,0,1,1.83.84,3.23,3.23,0,0,1,0,4,2.29,2.29,0,0,1-1.83.84Z" transform="translate(-4074 -5578.58)"/><path class="cls-2" d="M4108.88,5599.73a2.35,2.35,0,0,0-1.77-.63h-3.23v7.19h3.41a3.42,3.42,0,0,0,1.08-.15,1.72,1.72,0,0,0,1.38-1.74,1.94,1.94,0,0,0-.12-.71,1.88,1.88,0,0,0-1.22-1.08,1.61,1.61,0,0,0,1-1.62,1.72,1.72,0,0,0-.5-1.27Zm-4.18.14h2.5a1.38,1.38,0,0,1,1.05.38,1,1,0,0,1,.24.37,1.43,1.43,0,0,1,.08.49,1.14,1.14,0,0,1-.12.52,1.34,1.34,0,0,1-1.34.68h-2.41v-2.44Zm0,5.65v-2.47h2.6a1.81,1.81,0,0,1,1.25.39,1.14,1.14,0,0,1,.39.89,1,1,0,0,1-.4.87,1.85,1.85,0,0,1-1.15.31Zm11.55-5.64v-.78H4111v7.19h5.29v-.78h-4.47v-2.42h4v-.79h-4v-2.41Zm6.31-.78h-5.83v.78h2.51v6.41h.81v-6.41h2.51v-.78Zm1.74,4.43h2.5l1.74,2.76h1l-1.89-2.9a3.1,3.1,0,0,0,.62-.21,1.82,1.82,0,0,0,1.12-1.84,2.09,2.09,0,0,0-.66-1.64,2.5,2.5,0,0,0-1.76-.61h-3.44v7.19h.81v-2.76Zm0-3.66h2.53a1.85,1.85,0,0,1,1.24.4,1.51,1.51,0,0,1,.3,1.78,1.7,1.7,0,0,1-1.59.72h-2.49v-2.89Zm7.16-.77h-.81v7.19h.81v-7.19Zm6.94.78v-.78h-5.29v7.19h5.29v-.78h-4.47v-2.42h4v-.79h-4v-2.41Zm6.2-.15a2.35,2.35,0,0,0-1.77-.63h-3.23v7.19H4143a3.42,3.42,0,0,0,1.08-.15,1.72,1.72,0,0,0,1.38-1.74,1.92,1.92,0,0,0-.12-.71,1.87,1.87,0,0,0-1.22-1.08,1.61,1.61,0,0,0,1-1.62,1.72,1.72,0,0,0-.5-1.27Zm-4.18.14h2.5a1.38,1.38,0,0,1,1.05.38,1,1,0,0,1,.24.37,1.43,1.43,0,0,1,.08.49,1.14,1.14,0,0,1-.12.52,1.34,1.34,0,0,1-1.34.68h-2.41v-2.44Zm0,5.65v-2.47h2.6a1.8,1.8,0,0,1,1.25.39,1.13,1.13,0,0,1,.39.89,1,1,0,0,1-.4.87,1.85,1.85,0,0,1-1.15.31Zm7.67-5.62a2.92,2.92,0,0,1,.92-.12,3.32,3.32,0,0,1,.92.11,1.39,1.39,0,0,1,1.15,1.18h.84a1.88,1.88,0,0,0-.73-1.42,3.2,3.2,0,0,0-2.12-.63,3.14,3.14,0,0,0-2,.55,1.77,1.77,0,0,0-.67,1.43,1.33,1.33,0,0,0,.36,1,2.71,2.71,0,0,0,.91.59,7.36,7.36,0,0,0,1.18.36q.64.14,1.18.3a3.25,3.25,0,0,1,.91.41.79.79,0,0,1,.36.68q0,1.27-2,1.27a3.1,3.1,0,0,1-1.55-.34,1.34,1.34,0,0,1-.72-1.13h-.85a2.22,2.22,0,0,0,.8,1.61,3.63,3.63,0,0,0,2.3.63,3.59,3.59,0,0,0,2.09-.53,1.77,1.77,0,0,0,.75-1.54,1.51,1.51,0,0,0-.77-1.34,3.35,3.35,0,0,0-.79-.37c-.3-.1-.6-.18-.91-.26l-.91-.22a5.82,5.82,0,0,1-.79-.25,1.7,1.7,0,0,1-.56-.35.62.62,0,0,1-.21-.45,1.46,1.46,0,0,1,.07-.46.89.89,0,0,1,.28-.4,1.68,1.68,0,0,1,.58-.3Zm10.35,0v-.78h-5.19v7.19h.81v-3.12h3.9v-.79h-3.9v-2.5Zm6.24-.78v4.12a2.34,2.34,0,0,1-.7,1.81,2.22,2.22,0,0,1-1.55.55,2.18,2.18,0,0,1-1.54-.55,2.37,2.37,0,0,1-.69-1.81v-4.12h-.81v4.09a3.17,3.17,0,0,0,.85,2.31,3.22,3.22,0,0,0,4.41,0,3.16,3.16,0,0,0,.85-2.31v-4.09Zm-3.58-1.53v.9h1v-.9Zm1.7,0v.9h1v-.9Zm9.25,1.53v3.19h-4.18v-3.19h-.81v7.19h.81v-3.2h4.18v3.2h.82v-7.19Zm3.28,4.43h2.5l1.74,2.76h1l-1.89-2.9a3.1,3.1,0,0,0,.62-.21,1.82,1.82,0,0,0,1.12-1.84,2.1,2.1,0,0,0-.66-1.64,2.5,2.5,0,0,0-1.76-.61h-3.44v7.19h.81v-2.76Zm0-3.66h2.53a1.85,1.85,0,0,1,1.24.4,1.51,1.51,0,0,1,.3,1.78,1.7,1.7,0,0,1-1.59.72h-2.49v-2.89Zm11.56-.77v4.12a2.34,2.34,0,0,1-.7,1.81,2.22,2.22,0,0,1-1.55.55,2.18,2.18,0,0,1-1.54-.55,2.37,2.37,0,0,1-.69-1.81v-4.12h-.81v4.09a3.17,3.17,0,0,0,.85,2.31,3.22,3.22,0,0,0,4.41,0,3.16,3.16,0,0,0,.85-2.31v-4.09Zm7.77,0v6l-4.44-6h-.95v7.19h.81v-6.07l4.44,6.07h.95v-7.19Zm3,1a4.05,4.05,0,0,0,0,5.21,3.27,3.27,0,0,0,1.11.79,3.22,3.22,0,0,0,1.31.29,4.16,4.16,0,0,0,1.06-.11,3,3,0,0,0,1.72-1.25v1.27h.75v-3.82h-3.38v.74h2.63a2.18,2.18,0,0,1-.78,1.75,2.85,2.85,0,0,1-3.8-.21,3.24,3.24,0,0,1,0-4.11,2.51,2.51,0,0,1,.88-.61,3.21,3.21,0,0,1,1.26-.22,2.62,2.62,0,0,1,1.32.33,2.34,2.34,0,0,1,.91.92h.89a3.29,3.29,0,0,0-1.26-1.48,3.67,3.67,0,0,0-.92-.41,4.22,4.22,0,0,0-1.2-.15,3.31,3.31,0,0,0-1.35.29,3.26,3.26,0,0,0-1.11.79Zm9.44-1v7.19h3a3.26,3.26,0,0,0,1.24-.24,3.09,3.09,0,0,0,1.05-.71,4,4,0,0,0,0-5.28,3.1,3.1,0,0,0-1.05-.71,3.24,3.24,0,0,0-1.24-.24Zm.81,6.42v-5.65h2.18a2.29,2.29,0,0,1,1.84.84,3.23,3.23,0,0,1,0,4,2.29,2.29,0,0,1-1.84.84Zm11.94-6.42v4.12a2.35,2.35,0,0,1-.7,1.81,2.22,2.22,0,0,1-1.55.55,2.18,2.18,0,0,1-1.54-.55,2.37,2.37,0,0,1-.7-1.81v-4.12h-.81v4.09a3.17,3.17,0,0,0,.85,2.31,3.22,3.22,0,0,0,4.41,0,3.17,3.17,0,0,0,.85-2.31v-4.09Zm3.19,4.43h2.5l1.74,2.76h1l-1.89-2.9a3.08,3.08,0,0,0,.62-.21,1.82,1.82,0,0,0,1.12-1.84,2.09,2.09,0,0,0-.66-1.64,2.5,2.5,0,0,0-1.76-.61h-3.44v7.19h.82v-2.76Zm0-3.66h2.53a1.85,1.85,0,0,1,1.24.4,1.51,1.51,0,0,1,.3,1.78,1.7,1.7,0,0,1-1.59.72H4223v-2.89Zm7.41,4.88a3.34,3.34,0,0,1,0-4.11,2.43,2.43,0,0,1,.86-.61,3.22,3.22,0,0,1,1.28-.22,2.33,2.33,0,0,1,2.21,1.44h.86a3.23,3.23,0,0,0-1.18-1.61,3.47,3.47,0,0,0-2.07-.63,3.29,3.29,0,0,0-2.55,1.08,4.14,4.14,0,0,0,0,5.21,3.29,3.29,0,0,0,2.55,1.08,3.47,3.47,0,0,0,2.07-.63,3.23,3.23,0,0,0,1.18-1.61h-.86a2.33,2.33,0,0,1-2.21,1.44,2.71,2.71,0,0,1-2.14-.84Zm11.32-5.65v3.19h-4.18v-3.19h-.81v7.19h.81v-3.2h4.18v3.2h.81v-7.19Zm5.18,1a4,4,0,0,0,0,5.21,3.26,3.26,0,0,0,1.11.79,3.21,3.21,0,0,0,1.31.29,4.15,4.15,0,0,0,1.06-.11,3,3,0,0,0,1.72-1.25v1.27h.75v-3.82h-3.38v.74h2.63a2.18,2.18,0,0,1-.78,1.75,2.62,2.62,0,0,1-1.76.63,2.65,2.65,0,0,1-2-.84,3.24,3.24,0,0,1,0-4.11,2.5,2.5,0,0,1,.88-.61,3.21,3.21,0,0,1,1.26-.22,2.61,2.61,0,0,1,1.32.33,2.35,2.35,0,0,1,.91.92h.89a3.29,3.29,0,0,0-1.26-1.48,3.67,3.67,0,0,0-.92-.41,4.23,4.23,0,0,0-1.21-.15,3.32,3.32,0,0,0-1.35.29,3.27,3.27,0,0,0-1.11.79Zm8,3.44h2.5l1.74,2.76h1l-1.89-2.9a3.08,3.08,0,0,0,.62-.21,1.82,1.82,0,0,0,1.12-1.84,2.1,2.1,0,0,0-.66-1.64,2.5,2.5,0,0,0-1.76-.61h-3.44v7.19h.81v-2.76Zm0-3.66h2.53a1.85,1.85,0,0,1,1.24.4,1.51,1.51,0,0,1,.3,1.78,1.7,1.7,0,0,1-1.59.72H4255v-2.89Zm11.63,0v-.78h-5.29v7.19h5.29v-.78h-4.47v-2.42h4v-.79h-4v-2.41Zm6.49,0v-.78h-5.29v7.19h5.29v-.78h-4.47v-2.42h4v-.79h-4v-2.41Zm6.59-.78v6l-4.44-6h-.95v7.19h.81v-6.07l4.44,6.07h.95v-7.19Zm9,1.15,1.94,6h.92l2.24-7.19h-.86l-1.85,6-1.93-6h-.93l-1.93,6-1.85-6h-.86l2.24,7.19h.92l1.94-6Zm6.79-1.15h-.82v7.19h.82v-7.19Zm7,0v6l-4.44-6h-.95v7.19h.82v-6.07l4.44,6.07h.94v-7.19Zm2.47,0v7.19h3a3.25,3.25,0,0,0,1.24-.24,3.1,3.1,0,0,0,1.05-.71,4,4,0,0,0,0-5.28,3.11,3.11,0,0,0-1.05-.71,3.24,3.24,0,0,0-1.24-.24Zm.82,6.42v-5.65H4308a2.29,2.29,0,0,1,1.84.84,3.23,3.23,0,0,1,0,4,2.29,2.29,0,0,1-1.84.84Zm9.48-5.43a3.87,3.87,0,0,0,0,5.21,3.78,3.78,0,0,0,5.28,0,3.87,3.87,0,0,0,0-5.21,3.78,3.78,0,0,0-5.28,0Zm.56,4.66a3.15,3.15,0,0,1,0-4.11,3,3,0,0,1,4.15,0,3.15,3.15,0,0,1,0,4.11,3,3,0,0,1-4.15,0Zm7.73-1H4326a2.54,2.54,0,0,0,1.81-.62,2.47,2.47,0,0,0,0-3.37,2.55,2.55,0,0,0-1.81-.63h-3.24v7.19h.82v-2.56Zm2.37-3.86a1.8,1.8,0,0,1,1.28.41,1.7,1.7,0,0,1,0,2.27,1.8,1.8,0,0,1-1.28.41h-2.37v-3.1Zm8.82,0v-.78h-5.29v7.19h5.29v-.78h-4.48v-2.42h4v-.79h-4v-2.41Zm2,3.65h2.5l1.74,2.76h1l-1.89-2.9a3.08,3.08,0,0,0,.62-.21,1.82,1.82,0,0,0,1.12-1.84,2.09,2.09,0,0,0-.66-1.64,2.5,2.5,0,0,0-1.76-.61H4336v7.19h.82v-2.76Zm0-3.66h2.53a1.85,1.85,0,0,1,1.24.4,1.51,1.51,0,0,1,.3,1.78,1.7,1.7,0,0,1-1.59.72h-2.49v-2.89Zm9.57-.77h-1l-3.05,7.19h.9l.88-2.08h3.56l.88,2.08h.9l-3.05-7.19Zm-2,4.35,1.47-3.51,1.47,3.51Zm10.3-4.35h-5.83v.78h2.51v6.41h.82v-6.41h2.51v-.78Zm1.74,0h-.81v7.19h.81v-7.19Zm2.21,1a3.87,3.87,0,0,0,0,5.21,3.78,3.78,0,0,0,5.28,0,3.87,3.87,0,0,0,0-5.21,3.78,3.78,0,0,0-5.28,0Zm.56,4.66a3.15,3.15,0,0,1,0-4.11,3,3,0,0,1,4.15,0,3.15,3.15,0,0,1,0,4.11,3,3,0,0,1-4.15,0Zm12.3-5.65v6l-4.44-6h-.94v7.19h.81v-6.07l4.44,6.07h.94v-7.19Zm3.87.8a2.92,2.92,0,0,1,.92-.12,3.33,3.33,0,0,1,.92.11,1.39,1.39,0,0,1,1.15,1.18h.84a1.88,1.88,0,0,0-.73-1.42,3.2,3.2,0,0,0-2.12-.63,3.15,3.15,0,0,0-2,.55,1.77,1.77,0,0,0-.67,1.43,1.33,1.33,0,0,0,.36,1,2.72,2.72,0,0,0,.91.59,7.35,7.35,0,0,0,1.18.36q.64.14,1.18.3a3.22,3.22,0,0,1,.91.41.79.79,0,0,1,.36.68q0,1.27-2,1.27a3.1,3.1,0,0,1-1.55-.34,1.34,1.34,0,0,1-.72-1.13h-.85a2.22,2.22,0,0,0,.8,1.61,3.63,3.63,0,0,0,2.3.63,3.59,3.59,0,0,0,2.09-.53,1.77,1.77,0,0,0,.76-1.54,1.51,1.51,0,0,0-.77-1.34,3.36,3.36,0,0,0-.79-.37q-.45-.15-.91-.26l-.91-.22a5.82,5.82,0,0,1-.79-.25,1.71,1.71,0,0,1-.56-.35.62.62,0,0,1-.21-.45,1.49,1.49,0,0,1,.07-.46.89.89,0,0,1,.28-.4,1.68,1.68,0,0,1,.58-.3Z" transform="translate(-4074 -5578.58)"/><path class="cls-2" d="M4108.2,5586.28l1.94,6h.92l2.24-7.19h-.86l-1.85,6-1.93-6h-.93l-1.93,6-1.85-6h-.86l2.24,7.19h.92l1.94-6Zm6.79-1.15h-.81v7.19h.81v-7.19Zm7,0v6l-4.44-6h-.95v7.19h.82v-6.07l4.44,6.07h.94v-7.19Zm2.46,0v7.19h3a3.24,3.24,0,0,0,1.24-.24,3.11,3.11,0,0,0,1.05-.71,4,4,0,0,0,0-5.28,3.11,3.11,0,0,0-1.05-.71,3.26,3.26,0,0,0-1.24-.24Zm.82,6.42v-5.65h2.18a2.29,2.29,0,0,1,1.84.84,3.23,3.23,0,0,1,0,4,2.29,2.29,0,0,1-1.84.84Zm7.54-1.79h2.42a2.54,2.54,0,0,0,1.81-.62,2.47,2.47,0,0,0,0-3.37,2.55,2.55,0,0,0-1.81-.63H4132v7.19h.82v-2.56Zm2.37-3.86a1.8,1.8,0,0,1,1.28.41,1.7,1.7,0,0,1,0,2.27,1.8,1.8,0,0,1-1.28.41h-2.37v-3.09Zm6.38-.77h-1l-3.05,7.19h.9l.88-2.09h3.56l.88,2.09h.9l-3.05-7.19Zm-2,4.35,1.47-3.51,1.47,3.51Zm6.65.08h2.5l1.74,2.76h1l-1.89-2.9a3.08,3.08,0,0,0,.62-.21,1.82,1.82,0,0,0,1.12-1.84,2.1,2.1,0,0,0-.66-1.64,2.5,2.5,0,0,0-1.76-.61h-3.44v7.19h.81v-2.76Zm0-3.66h2.53a1.85,1.85,0,0,1,1.24.4,1.51,1.51,0,0,1,.3,1.78,1.7,1.7,0,0,1-1.59.72h-2.49v-2.89Zm12.3-.77h-1.15l-4,3.75v-3.75h-.82v7.19h.82V5590l1.49-1.39,2.81,3.75h1l-3.24-4.3,3.06-2.89Zm2.1.8a3,3,0,0,1,.92-.12,3.32,3.32,0,0,1,.92.11,1.39,1.39,0,0,1,1.15,1.18h.84a1.88,1.88,0,0,0-.73-1.42,3.2,3.2,0,0,0-2.12-.63,3.15,3.15,0,0,0-2,.55,1.77,1.77,0,0,0-.67,1.43,1.33,1.33,0,0,0,.36,1,2.7,2.7,0,0,0,.91.59,7.42,7.42,0,0,0,1.18.36q.63.14,1.18.3a3.24,3.24,0,0,1,.91.41.79.79,0,0,1,.36.68q0,1.27-2,1.27a3.11,3.11,0,0,1-1.55-.34,1.33,1.33,0,0,1-.72-1.13h-.85a2.22,2.22,0,0,0,.8,1.61,3.64,3.64,0,0,0,2.3.63,3.58,3.58,0,0,0,2.09-.53,1.77,1.77,0,0,0,.75-1.54,1.51,1.51,0,0,0-.77-1.34,3.32,3.32,0,0,0-.79-.37q-.45-.15-.91-.26l-.91-.22a5.62,5.62,0,0,1-.79-.25,1.72,1.72,0,0,1-.56-.35.62.62,0,0,1-.21-.45,1.49,1.49,0,0,1,.07-.46.89.89,0,0,1,.28-.4,1.73,1.73,0,0,1,.58-.3Zm13.42-.8-2.53,3.41-2.57-3.41H4168v7.19h.81v-6l2.7,3.42,2.66-3.42v6h.82v-7.19Zm3.41,0h-.82v7.19h.82v-7.19Zm6.75,0h-5.83v.78h2.51v6.41h.81v-6.41h2.51v-.78Zm8.23,0h-5.83v.78h2.51v6.41h.81v-6.41h2.51v-.78Zm6.21.78v-.78h-5.29v7.19h5.29v-.78h-4.47v-2.42h4v-.79h-4v-2.41Zm2.14,4.86a3.34,3.34,0,0,1,0-4.1,2.44,2.44,0,0,1,.86-.61,3.21,3.21,0,0,1,1.28-.22,2.33,2.33,0,0,1,2.21,1.44h.86a3.23,3.23,0,0,0-1.18-1.61,3.47,3.47,0,0,0-2.07-.63,3.29,3.29,0,0,0-2.55,1.08,4.14,4.14,0,0,0,0,5.21,3.29,3.29,0,0,0,2.55,1.08,3.47,3.47,0,0,0,2.07-.63,3.22,3.22,0,0,0,1.18-1.61h-.86a2.33,2.33,0,0,1-2.21,1.45,2.7,2.7,0,0,1-2.14-.84Zm11.32-5.65v3.19H4208v-3.19h-.82v7.19h.82v-3.2h4.18v3.2h.81v-7.19Zm7.85,0v6l-4.44-6h-.94v7.19h.81v-6.07l4.44,6.07h.94v-7.19Zm3.28,0h-.81v7.19h.81v-7.19Zm3.06.8a3,3,0,0,1,.92-.12,3.31,3.31,0,0,1,.92.11,1.39,1.39,0,0,1,1.15,1.18h.84a1.88,1.88,0,0,0-.73-1.42,3.2,3.2,0,0,0-2.12-.63,3.15,3.15,0,0,0-2,.55,1.77,1.77,0,0,0-.67,1.43,1.33,1.33,0,0,0,.36,1,2.71,2.71,0,0,0,.91.59,7.46,7.46,0,0,0,1.18.36q.64.14,1.18.3a3.24,3.24,0,0,1,.91.41.78.78,0,0,1,.36.68q0,1.27-2,1.27a3.11,3.11,0,0,1-1.55-.34,1.34,1.34,0,0,1-.72-1.13h-.85a2.22,2.22,0,0,0,.8,1.61,3.63,3.63,0,0,0,2.3.63,3.58,3.58,0,0,0,2.09-.53,1.77,1.77,0,0,0,.75-1.54,1.51,1.51,0,0,0-.77-1.34,3.32,3.32,0,0,0-.79-.37c-.3-.1-.6-.18-.91-.26l-.91-.22a5.68,5.68,0,0,1-.79-.25,1.7,1.7,0,0,1-.56-.35.62.62,0,0,1-.21-.45,1.46,1.46,0,0,1,.07-.46.9.9,0,0,1,.28-.4,1.74,1.74,0,0,1,.58-.3Zm6.23,4.85a3.34,3.34,0,0,1,0-4.1,2.42,2.42,0,0,1,.86-.61,3.2,3.2,0,0,1,1.28-.22,2.33,2.33,0,0,1,2.22,1.44h.86a3.23,3.23,0,0,0-1.18-1.61,3.47,3.47,0,0,0-2.07-.63,3.29,3.29,0,0,0-2.55,1.08,4.14,4.14,0,0,0,0,5.21,3.29,3.29,0,0,0,2.55,1.08,3.47,3.47,0,0,0,2.07-.63,3.23,3.23,0,0,0,1.18-1.61h-.86a2.33,2.33,0,0,1-2.22,1.45,2.7,2.7,0,0,1-2.14-.84Zm11.32-5.65v3.19h-4.18v-3.19h-.82v7.19h.82v-3.2h4.18v3.2h.82v-7.19Zm7.75.78v-.78h-5.29v7.19h5.29v-.78h-4.47v-2.42h4v-.79h-4v-2.41Zm2,3.65h2.5l1.74,2.76h1l-1.89-2.9a3.11,3.11,0,0,0,.62-.21,1.82,1.82,0,0,0,1.12-1.84,2.1,2.1,0,0,0-.66-1.64,2.5,2.5,0,0,0-1.76-.61h-3.44v7.19h.81v-2.76Zm0-3.66h2.53a1.85,1.85,0,0,1,1.24.4,1.51,1.51,0,0,1,.3,1.78,1.7,1.7,0,0,1-1.59.72h-2.49v-2.89Zm13.76-.77v4.12a2.35,2.35,0,0,1-.7,1.81,2.22,2.22,0,0,1-1.55.55,2.18,2.18,0,0,1-1.54-.55,2.36,2.36,0,0,1-.69-1.81v-4.12h-.82v4.09a3.16,3.16,0,0,0,.85,2.31,3.21,3.21,0,0,0,4.41,0,3.16,3.16,0,0,0,.85-2.31v-4.09Zm7.77,0v6l-4.44-6h-.94v7.19h.82v-6.07l4.44,6.07h.95v-7.19Zm2.46,0v7.19h3a3.24,3.24,0,0,0,1.24-.24,3.11,3.11,0,0,0,1.05-.71,4,4,0,0,0,0-5.28,3.11,3.11,0,0,0-1.05-.71,3.26,3.26,0,0,0-1.24-.24Zm.81,6.42v-5.65h2.18a2.29,2.29,0,0,1,1.83.84,3.23,3.23,0,0,1,0,4,2.29,2.29,0,0,1-1.83.84Zm14.89-6.42h-1.15l-4,3.75v-3.75h-.81v7.19h.81V5590l1.49-1.39,2.81,3.75h1l-3.24-4.3,3.06-2.89Zm4.12,0h-1l-3.05,7.19h.9l.88-2.09h3.56l.88,2.09h.9l-3.05-7.19Zm-2,4.35L4297,5586l1.47,3.51Zm10.78-4.35v4.12a2.35,2.35,0,0,1-.7,1.81,2.22,2.22,0,0,1-1.55.55,2.18,2.18,0,0,1-1.54-.55,2.36,2.36,0,0,1-.69-1.81v-4.12H4301v4.09a3.16,3.16,0,0,0,.85,2.31,3.21,3.21,0,0,0,4.41,0,3.16,3.16,0,0,0,.85-2.31v-4.09Zm7.57.78v-.78h-5.19v7.19h.82v-3.12h3.9v-.79h-3.9v-2.5Zm7.08-.78-2.53,3.41-2.57-3.41h-.94v7.19h.81v-6l2.7,3.42,2.66-3.42v6h.81v-7.19Zm5.82,0h-1l-3.05,7.19h.9l.88-2.09H4328l.88,2.09h.9l-3.05-7.19Zm-2,4.35,1.47-3.51,1.47,3.51Zm.13-5.89v.9h1v-.9Zm1.71,0v.9h1v-.9Zm9.38,1.53v6l-4.44-6h-.95v7.19h.81v-6.07l4.44,6.07h.94v-7.19Zm7.85,0v6l-4.44-6h-.94v7.19h.81v-6.07l4.44,6.07h.95v-7.19Zm3.28,0h-.81v7.19h.81v-7.19Zm3.06.8a3,3,0,0,1,.92-.12,3.32,3.32,0,0,1,.92.11,1.39,1.39,0,0,1,1.15,1.18h.84a1.88,1.88,0,0,0-.73-1.42,3.2,3.2,0,0,0-2.12-.63,3.15,3.15,0,0,0-2,.55,1.77,1.77,0,0,0-.67,1.43,1.33,1.33,0,0,0,.36,1,2.7,2.7,0,0,0,.91.59,7.42,7.42,0,0,0,1.18.36q.63.14,1.18.3a3.24,3.24,0,0,1,.91.41.79.79,0,0,1,.36.68q0,1.27-2,1.27a3.11,3.11,0,0,1-1.55-.34,1.33,1.33,0,0,1-.72-1.13h-.85a2.23,2.23,0,0,0,.8,1.61,3.64,3.64,0,0,0,2.3.63,3.58,3.58,0,0,0,2.09-.53,1.77,1.77,0,0,0,.76-1.54,1.51,1.51,0,0,0-.77-1.34,3.32,3.32,0,0,0-.79-.37q-.45-.15-.91-.26l-.91-.22a5.66,5.66,0,0,1-.79-.25,1.72,1.72,0,0,1-.56-.35.62.62,0,0,1-.21-.45,1.49,1.49,0,0,1,.07-.46.89.89,0,0,1,.28-.4,1.73,1.73,0,0,1,.58-.3Zm6.23,4.85a3.34,3.34,0,0,1,0-4.1,2.44,2.44,0,0,1,.86-.61,3.21,3.21,0,0,1,1.28-.22,2.33,2.33,0,0,1,2.21,1.44h.86a3.23,3.23,0,0,0-1.18-1.61,3.47,3.47,0,0,0-2.08-.63,3.29,3.29,0,0,0-2.55,1.08,4.14,4.14,0,0,0,0,5.21,3.29,3.29,0,0,0,2.55,1.08,3.47,3.47,0,0,0,2.08-.63,3.22,3.22,0,0,0,1.18-1.61h-.86a2.33,2.33,0,0,1-2.21,1.45,2.7,2.7,0,0,1-2.14-.84Zm11.32-5.65v3.19h-4.18v-3.19h-.81v7.19h.81v-3.2h4.18v3.2h.81v-7.19Zm7.75.78v-.78h-5.29v7.19h5.29v-.78H4371v-2.42h4v-.79h-4v-2.41Zm2,3.65h2.5l1.74,2.76h1l-1.89-2.9a3.08,3.08,0,0,0,.62-.21,1.82,1.82,0,0,0,1.12-1.84,2.1,2.1,0,0,0-.66-1.64,2.5,2.5,0,0,0-1.76-.61h-3.44v7.19h.82v-2.76Zm0-3.66H4380a1.84,1.84,0,0,1,1.24.4,1.34,1.34,0,0,1,.47,1.08,1.33,1.33,0,0,1-.16.7,1.7,1.7,0,0,1-1.59.72h-2.49v-2.89Z" transform="translate(-4074 -5578.58)"/><path class="cls-3" d="M4093.41,5658.63a9.41,9.41,0,1,1-9.41-9.41,9.41,9.41,0,0,1,9.41,9.41Z" transform="translate(-4074 -5578.58)"/><path class="cls-4" d="M4093.41,5658.63a9.41,9.41,0,1,1-9.41-9.41,9.41,9.41,0,0,1,9.41,9.41Z" transform="translate(-4074 -5578.58)"/><path class="cls-5" d="M4093.41,5703.15a9.41,9.41,0,1,1-9.41-9.41,9.41,9.41,0,0,1,9.41,9.41Z" transform="translate(-4074 -5578.58)"/><path class="cls-6" d="M4093.41,5703.15a9.41,9.41,0,1,1-9.41-9.41,9.41,9.41,0,0,1,9.41,9.41Z" transform="translate(-4074 -5578.58)"/><path class="cls-7" d="M4093.41,5744.73a9.41,9.41,0,1,1-9.41-9.42,9.41,9.41,0,0,1,9.41,9.42Z" transform="translate(-4074 -5578.58)"/><path class="cls-6" d="M4093.41,5744.73a9.41,9.41,0,1,1-9.41-9.42,9.41,9.41,0,0,1,9.41,9.42Z" transform="translate(-4074 -5578.58)"/><path class="cls-8" d="M4093.41,5588.58a9.41,9.41,0,1,1-9.41-9.41,9.41,9.41,0,0,1,9.41,9.41Z" transform="translate(-4074 -5578.58)"/><path class="cls-6" d="M4093.41,5588.58a9.41,9.41,0,1,1-9.41-9.41,9.41,9.41,0,0,1,9.41,9.41Z" transform="translate(-4074 -5578.58)"/></svg>