<?xml version="1.0" encoding="UTF-8"?>
<svg width="142px" height="33px" viewBox="0 0 142 33" version="1.1" xmlns="http://www.w3.org/2000/svg" xmlns:xlink="http://www.w3.org/1999/xlink">
    <!-- Generator: Sketch 46.2 (44496) - http://www.bohemiancoding.com/sketch -->
    <title>GWO_Logo_2017_4c</title>
    <desc>Created with Sketch.</desc>
    <defs>
        <polygon id="path-1" points="0.0478651685 22.7998571 0.0478651685 0.228642857 141.249315 0.228642857 141.249315 11.51425 141.249315 22.7998571 0.0478651685 22.7998571"></polygon>
    </defs>
    <g id="z" stroke="none" stroke-width="1" fill="none" fill-rule="evenodd">
        <g id="03-copy" transform="translate(-150.000000, -316.000000)">
            <g id="GWO_Logo_2017_4c" transform="translate(150.000000, 316.000000)">
                <path d="M37.2694157,23.3718571 C36.0113596,23.3718571 34.7038427,23.1432143 33.2726742,22.6749286 L33.1825281,22.6442857 L33.7593034,20.4788571 L33.857427,20.5071429 C34.9343933,20.7970714 36.0488539,21.0972143 37.1696966,21.0972143 C38.3998315,21.0972143 41.2613708,20.7397143 41.2613708,17.4373571 L41.2613708,11.9004286 C41.2613708,9.14021429 39.392236,7.69607143 37.546236,7.69607143 C34.728573,7.69607143 33.7289888,9.99978571 33.7289888,11.9742857 C33.7289888,14.1719286 35.3508202,15.7064286 37.6706854,15.7064286 C38.6535169,15.7064286 39.5781124,15.2507143 40.4325056,14.7565 L40.5824831,14.6708571 L40.5824831,17.1505714 L40.5306292,17.1780714 C39.6507079,17.6510714 38.4644494,17.9826429 37.6467528,17.9826429 C34.0409101,17.9826429 31.320573,15.3457857 31.320573,11.8517143 C31.320573,8.12585714 33.9810787,5.42142857 37.6467528,5.42142857 C41.4177303,5.42142857 43.6705843,8.4645 43.6705843,11.407 L43.6705843,16.6964286 C43.6705843,20.8135714 41.2182921,23.3718571 37.2694157,23.3718571" id="Fill-1" fill="#FFFFFF"></path>
                <path d="M47.9904157,17.7335714 L45.5812022,17.7335714 L45.5812022,5.66892857 L47.8906966,5.66892857 L47.8906966,6.87971429 C48.6198427,5.87321429 49.6218202,5.42142857 51.1040449,5.42142857 L51.7047528,5.42142857 L51.7047528,7.69607143 L51.2795506,7.69607143 C49.0657865,7.69607143 47.9904157,9.1355 47.9904157,12.0968571 L47.9904157,17.7335714" id="Fill-2" fill="#FFFFFF"></path>
                <path d="M58.3771573,18.0038571 C57.2419551,18.0038571 56.0844157,17.688 55.0321798,17.0908571 C53.5738876,16.2635 52.5200562,14.9497857 52.0637416,13.3940714 C51.5906742,11.7794286 51.820427,10.0516429 52.7107191,8.52814286 C53.8722472,6.53871429 55.9152921,5.3515 58.1721348,5.3515 C59.294573,5.3515 60.4090337,5.64692857 61.3966517,6.20557143 C63.7197079,7.524 64.7942809,9.614 64.5884607,12.4197857 L64.5820787,12.5117143 L55.0808427,12.3687143 L55.1837528,10.2268571 L55.2810787,10.23 L61.9558764,10.3219286 C61.686236,9.39007143 61.3240562,8.79057143 60.2431011,8.17614286 C59.6200562,7.82335714 58.9658989,7.645 58.2989775,7.645 C56.9148764,7.645 55.6727753,8.41578571 54.8853933,9.76171429 C54.3078202,10.7485714 54.1203483,11.8289286 54.3620674,12.8016429 C54.5982022,13.7657143 55.2467753,14.5875714 56.1833371,15.1202857 C56.9061011,15.5304286 57.5706292,15.73 58.2176067,15.73 C59.3033483,15.73 60.3284607,15.1525 61.4405281,13.9126429 L61.5019551,13.8435 L63.4508652,15.2892143 L63.3958202,15.3662143 C62.2295056,17.0429286 60.4002584,18.0038571 58.3771573,18.0038571" id="Fill-3" fill="#FFFFFF"></path>
                <path d="M72.3027303,18.0038571 C71.1667303,18.0038571 70.0083933,17.688 68.9569551,17.0908571 C67.4986629,16.2635 66.4448315,14.9497857 65.9869213,13.3940714 C65.5154494,11.7794286 65.7452022,10.0516429 66.6354944,8.52814286 C67.798618,6.53871429 69.8400674,5.3515 72.0985056,5.3515 C73.2209438,5.3515 74.3346067,5.64692857 75.3222247,6.20557143 C77.6444831,7.524 78.7190562,9.614 78.5148315,12.4197857 L78.5060562,12.5117143 L69.005618,12.3687143 L69.1085281,10.2268571 L69.2066517,10.23 L75.8822472,10.3219286 C75.611809,9.39007143 75.2480337,8.79057143 74.1686742,8.17614286 C73.5448315,7.82335714 72.8922697,7.645 72.2245506,7.645 C70.8396517,7.645 69.5959551,8.41578571 68.8101685,9.76171429 C68.2317978,10.7485714 68.0451236,11.8289286 68.2868427,12.8016429 C68.5237753,13.7657143 69.1731461,14.5875714 70.1105056,15.1202857 C70.8316742,15.5304286 71.497,15.73 72.142382,15.73 C73.2297191,15.73 74.2540337,15.1525 75.3653034,13.9126429 L75.4267303,13.8435 L77.3780337,15.2892143 L77.3229888,15.3662143 C76.1566742,17.0429286 74.327427,18.0038571 72.3027303,18.0038571" id="Fill-4" fill="#FFFFFF"></path>
                <path d="M90.5497303,17.7335714 L88.1405169,17.7335714 L88.1405169,10.7132143 C88.1405169,9.02 86.8952247,7.69607143 85.3045056,7.69607143 C83.7137865,7.69607143 82.4676966,9.02 82.4676966,10.7132143 L82.4676966,17.7335714 L80.0584831,17.7335714 L80.0584831,10.7132143 C80.0584831,7.59785714 82.214809,5.42142857 85.3045056,5.42142857 C88.3926067,5.42142857 90.5497303,7.59785714 90.5497303,10.7132143 L90.5497303,17.7335714" id="Fill-5" fill="#FFFFFF"></path>
                <path d="M104.611719,17.9826429 C103.174169,17.9826429 101.871438,17.3823571 101.09682,16.3695714 C100.321404,17.3823571 99.0186742,17.9826429 97.5827191,17.9826429 C95.1056966,17.9826429 93.1639663,16.1574286 93.1639663,13.8285714 L93.1639663,5.66892857 L95.572382,5.66892857 L95.572382,13.3343571 C95.572382,14.7753571 96.3813034,15.7064286 97.631382,15.7064286 C99.1311573,15.7064286 99.8914157,14.7918571 99.8914157,12.9870714 L99.8914157,5.66892857 L102.303022,5.66892857 L102.303022,12.9870714 C102.303022,14.8177857 103.042539,15.7064286 104.563056,15.7064286 C105.811539,15.7064286 106.620461,14.7753571 106.620461,13.3343571 L106.620461,5.66892857 L109.029674,5.66892857 L109.029674,13.8285714 C109.029674,16.1574286 107.088742,17.9826429 104.611719,17.9826429" id="Fill-6" fill="#DADADA"></path>
                <path d="M111.645506,17.7343571 L114.055517,17.7343571 L114.055517,5.66892857 L111.645506,5.66892857 L111.645506,17.7343571 Z M112.851708,4.532 C111.911157,4.532 111.418944,3.8225 111.418944,3.12164286 C111.418944,2.42314286 111.911157,1.71442857 112.851708,1.71442857 C113.789865,1.71442857 114.280483,2.42314286 114.280483,3.12164286 C114.280483,3.8225 113.789865,4.532 112.851708,4.532 L112.851708,4.532 Z" id="Fill-7" fill="#DADADA"></path>
                <path d="M127.164191,17.7335714 L124.753382,17.7335714 L124.753382,10.7132143 C124.753382,9.02 123.50809,7.69607143 121.917371,7.69607143 C120.326652,7.69607143 119.080562,9.02 119.080562,10.7132143 L119.080562,17.7335714 L116.670551,17.7335714 L116.670551,10.7132143 C116.670551,7.59785714 118.828472,5.42142857 121.917371,5.42142857 C125.007067,5.42142857 127.164191,7.59785714 127.164191,10.7132143 L127.164191,17.7335714" id="Fill-8" fill="#DADADA"></path>
                <g id="Group-12">
                    <mask id="mask-2" fill="white">
                        <use xlink:href="#path-1"></use>
                    </mask>
                    <g id="Clip-10"></g>
                    <path d="M135.07391,17.9826429 C131.349202,17.9826429 128.746135,15.2782143 128.746135,11.407 C128.746135,8.107 131.392281,5.42142857 134.647112,5.42142857 C135.939472,5.42142857 137.104989,5.709 138.110157,6.27471429 L138.161213,6.30378571 L138.161213,8.82278571 L138.004056,8.71671429 C137.250978,8.20835714 136.039191,7.69607143 135.023652,7.69607143 C132.710169,7.69607143 131.156944,9.295 131.156944,11.6765 C131.156944,14.0509286 132.767607,15.7064286 135.07391,15.7064286 C137.361067,15.7064286 138.840101,13.8435 138.840101,10.9599286 L138.840101,0.228642857 L141.249315,0.228642857 L141.249315,11.3559286 C141.249315,15.257 138.70927,17.9826429 135.07391,17.9826429" id="Fill-9" fill="#DADADA" mask="url(#mask-2)"></path>
                    <path d="M21.9796854,18.0572857 C21.9796854,20.6768571 19.8241573,22.7998571 17.1652472,22.7998571 L4.81523596,22.7998571 C2.15632584,22.7998571 0,20.6768571 0,18.0572857 L0,5.89442857 C0,3.27485714 2.15632584,1.15264286 4.81523596,1.15264286 L17.1652472,1.15264286 C19.8241573,1.15264286 21.9796854,3.27485714 21.9796854,5.89442857 L21.9796854,18.0572857" id="Fill-11" fill="#9E9F9E" mask="url(#mask-2)"></path>
                </g>
                <polyline id="Fill-13" fill="#FFFFFE" points="9.73497753 13.2267143 9.73497753 18.2293571 13.564191 15.7284286 9.73497753 13.2267143"></polyline>
                <polyline id="Fill-14" fill="#FFFFFE" points="13.564191 10.7265714 13.564191 15.73 17.3934045 13.2267143 13.564191 10.7265714"></polyline>
                <polyline id="Fill-15" fill="#FFFFFE" points="13.564191 15.7307857 13.564191 20.7357857 17.3934045 18.2340714 13.564191 15.7307857"></polyline>
                <polyline id="Fill-16" fill="#C2C3C1" points="5.90576404 10.7218571 5.90576404 5.71921429 9.73497753 8.21935714 5.90576404 10.7218571"></polyline>
                <polyline id="Fill-17" fill="#C2C3C1" points="9.73497753 8.22092857 9.73497753 3.21671429 13.564191 5.71921429 9.73497753 8.22092857"></polyline>
                <polyline id="Fill-18" fill="#C2C3C1" points="9.73497753 13.2267143 9.73497753 8.22407143 13.564191 10.725 9.73497753 13.2267143"></polyline>
                <polyline id="Fill-19" fill="#D4D5D4" points="2.07655056 18.2293571 2.07655056 13.2267143 5.90576404 15.7284286 2.07655056 18.2293571"></polyline>
                <polyline id="Fill-20" fill="#D4D5D4" points="5.90576404 15.73 5.90576404 10.7265714 9.73497753 13.2267143 5.90576404 15.73"></polyline>
                <polyline id="Fill-21" fill="#D4D5D4" points="5.90576404 20.7357857 5.90576404 15.7307857 9.73497753 18.2340714 5.90576404 20.7357857"></polyline>
                <path d="M101.529202,26.917 C102.175382,26.917 102.702697,27.1299286 103.10636,27.5565714 C103.486888,27.9667143 103.677551,28.4884286 103.677551,29.1201429 C103.677551,29.7518571 103.486888,30.272 103.10636,30.6821429 C102.702697,31.1087857 102.175382,31.3225 101.529202,31.3225 C100.881427,31.3225 100.355708,31.1087857 99.9512472,30.6821429 C99.5691236,30.272 99.3792584,29.7518571 99.3792584,29.1201429 C99.3792584,28.4884286 99.5691236,27.9667143 99.9512472,27.5565714 C100.355708,27.1299286 100.881427,26.917 101.529202,26.917 M101.529202,30.7410714 C101.996685,30.7410714 102.366843,30.5823571 102.638079,30.2633571 C102.898944,29.9608571 103.02818,29.5797857 103.02818,29.1201429 C103.02818,28.6589286 102.898944,28.2770714 102.638079,27.9745714 C102.366843,27.6571429 101.996685,27.4976429 101.529202,27.4976429 C101.060921,27.4976429 100.689169,27.6571429 100.417933,27.9745714 C100.159461,28.2770714 100.027831,28.6589286 100.027831,29.1201429 C100.027831,29.5797857 100.159461,29.9608571 100.417933,30.2633571 C100.689169,30.5823571 101.060921,30.7410714 101.529202,30.7410714" id="Fill-22" fill="#FFFFFF"></path>
                <path d="M105.296989,27.6689286 C105.643213,27.1668571 106.161753,26.9177857 106.848618,26.9177857 C107.471663,26.9177857 107.977438,27.1299286 108.364348,27.5573571 C108.752854,27.9777143 108.945112,28.4994286 108.945112,29.1185714 C108.945112,29.7400714 108.752854,30.261 108.364348,30.6821429 C107.977438,31.108 107.458101,31.3209286 106.803944,31.3209286 C106.15218,31.3209286 105.648798,31.0687143 105.296989,30.5619286 L105.296989,32.9442143 L104.64682,32.9442143 L104.64682,26.9853571 L105.296989,26.9853571 L105.296989,27.6689286 Z M106.761663,27.4968571 C106.293382,27.4968571 105.924022,27.6571429 105.651989,27.9745714 C105.391921,28.2778571 105.262685,28.6589286 105.262685,29.1185714 C105.262685,29.5805714 105.391921,29.9624286 105.651989,30.2633571 C105.924022,30.5823571 106.293382,30.7418571 106.761663,30.7418571 C107.22436,30.7418571 107.600101,30.5823571 107.88809,30.2633571 C108.160124,29.9624286 108.295742,29.5805714 108.295742,29.1185714 C108.295742,28.6589286 108.160124,28.2778571 107.88809,27.9745714 C107.600101,27.6571429 107.22436,27.4968571 106.761663,27.4968571 L106.761663,27.4968571 Z" id="Fill-23" fill="#FFFFFF"></path>
                <path d="M111.857708,30.7410714 C112.441663,30.7410714 112.859685,30.5014286 113.114966,30.0245 L113.825764,30.0245 C113.675787,30.4110714 113.436461,30.7237857 113.110978,30.9626429 C112.784697,31.2030714 112.362685,31.3209286 111.84973,31.3209286 C111.197169,31.3209286 110.665067,31.108 110.254225,30.6821429 C109.856146,30.2665 109.657506,29.7455714 109.657506,29.1201429 C109.657506,28.4876429 109.847371,27.9667143 110.228697,27.5573571 C110.633157,27.1299286 111.159674,26.917 111.805854,26.917 C112.452831,26.917 112.979348,27.1299286 113.383011,27.5573571 C113.765135,27.9667143 113.955,28.4876429 113.955,29.1201429 L113.955,29.3755 L110.324427,29.3755 C110.369899,29.7675714 110.528652,30.0920714 110.800685,30.349 C111.077506,30.6106429 111.43091,30.7410714 111.857708,30.7410714 M111.805854,27.4976429 C111.407775,27.4976429 111.071921,27.6202143 110.800685,27.8645714 C110.547,28.0979286 110.389843,28.4012143 110.332404,28.7775714 L113.279303,28.7775714 C113.221865,28.4012143 113.065506,28.0979286 112.81182,27.8645714 C112.539787,27.6202143 112.203933,27.4976429 111.805854,27.4976429" id="Fill-24" fill="#FFFFFF"></path>
                <path d="M117.166753,26.917 L117.166753,27.5565714 L117.088573,27.5565714 C116.62109,27.5565714 116.238966,27.7427857 115.945393,28.1112857 C115.666978,28.4648571 115.529764,28.8867857 115.529764,29.3755 L115.529764,31.2533571 L114.878798,31.2533571 L114.878798,26.9853571 L115.529764,26.9853571 L115.529764,28.0350714 C115.666978,27.5911429 115.96773,27.2635 116.430427,27.0537143 C116.62109,26.9617857 116.85164,26.917 117.122876,26.917 L117.166753,26.917" id="Fill-25" fill="#FFFFFF"></path>
                <path d="M121.216944,30.5713571 C120.869921,31.0710714 120.352978,31.3225 119.665315,31.3225 C119.041472,31.3225 118.532506,31.108 118.140011,30.6821429 C117.757888,30.2602143 117.56882,29.7400714 117.56882,29.1201429 C117.56882,28.4994286 117.757888,27.9785 118.140011,27.5565714 C118.532506,27.1299286 119.056629,26.917 119.709989,26.917 C120.361753,26.917 120.865135,27.17 121.216944,27.6775714 L121.216944,26.9853571 L121.867112,26.9853571 L121.867112,31.2533571 L121.216944,31.2533571 L121.216944,30.5713571 Z M119.753067,30.7410714 C120.220551,30.7410714 120.590708,30.5823571 120.861944,30.2641429 C121.122809,29.9624286 121.252045,29.5797857 121.252045,29.1201429 C121.252045,28.6589286 121.122809,28.2778571 120.861944,27.9761429 C120.590708,27.6571429 120.220551,27.4976429 119.753067,27.4976429 C119.290371,27.4976429 118.913034,27.6571429 118.625843,27.9761429 C118.354607,28.2778571 118.218989,28.6589286 118.218989,29.1201429 C118.218989,29.5797857 118.354607,29.9624286 118.625843,30.2641429 C118.913034,30.5823571 119.290371,30.7410714 119.753067,30.7410714 L119.753067,30.7410714 Z" id="Fill-26" fill="#FFFFFF"></path>
                <polyline id="Fill-27" fill="#FFFFFF" points="123.528034 31.2533571 123.528034 27.5479286 122.644124 27.5479286 122.644124 26.9853571 123.528034 26.9853571 123.528034 25.4571429 124.179 25.4571429 124.179 26.9853571 125.176191 26.9853571 125.176191 27.5479286 124.179 27.5479286 124.179 31.2533571 123.528034 31.2533571"></polyline>
                <path d="M125.920494,26.2687857 L126.622517,26.2687857 L126.622517,25.432 L125.920494,25.432 L125.920494,26.2687857 Z M125.947618,31.2541429 L126.597787,31.2541429 L126.597787,26.9853571 L125.947618,26.9853571 L125.947618,31.2541429 Z" id="Fill-28" fill="#FFFFFF"></path>
                <path d="M129.69227,26.917 C130.339247,26.917 130.864966,27.1299286 131.268629,27.5565714 C131.649955,27.9667143 131.841416,28.4884286 131.841416,29.1201429 C131.841416,29.7518571 131.649955,30.272 131.268629,30.6821429 C130.864966,31.1087857 130.339247,31.3225 129.69227,31.3225 C129.044494,31.3225 128.518775,31.1087857 128.115112,30.6821429 C127.732989,30.272 127.541528,29.7518571 127.541528,29.1201429 C127.541528,28.4884286 127.732989,27.9667143 128.115112,27.5565714 C128.518775,27.1299286 129.044494,26.917 129.69227,26.917 M129.69227,30.7410714 C130.160551,30.7410714 130.530708,30.5823571 130.801944,30.2633571 C131.062011,29.9608571 131.191247,29.5797857 131.191247,29.1201429 C131.191247,28.6589286 131.062011,28.2770714 130.801944,27.9745714 C130.530708,27.6571429 130.160551,27.4976429 129.69227,27.4976429 C129.223989,27.4976429 128.853831,27.6571429 128.581,27.9745714 C128.322528,28.2770714 128.192494,28.6589286 128.192494,29.1201429 C128.192494,29.5797857 128.322528,29.9608571 128.581,30.2633571 C128.853831,30.5823571 129.223989,30.7410714 129.69227,30.7410714" id="Fill-29" fill="#FFFFFF"></path>
                <path d="M133.445697,26.9853571 L133.445697,27.6508571 C133.601258,27.4465714 133.792719,27.2729286 134.019281,27.1299286 C134.244247,26.9877143 134.500326,26.917 134.78991,26.917 C135.077899,26.917 135.326798,26.9562857 135.535011,27.0348571 C135.743225,27.1165714 135.924315,27.236 136.079876,27.3947143 C136.438865,27.742 136.617562,28.2000714 136.617562,28.7689286 L136.617562,31.2533571 L135.968191,31.2533571 L135.968191,28.7862143 C135.968191,28.3941429 135.855708,28.0806429 135.629944,27.8465 C135.404978,27.6139286 135.113798,27.4976429 134.755607,27.4976429 C134.391034,27.4976429 134.081506,27.6162857 133.82782,27.8559286 C133.573337,28.1010714 133.445697,28.413 133.445697,28.7940714 L133.445697,31.2533571 L132.795528,31.2533571 L132.795528,26.9853571 L133.445697,26.9853571" id="Fill-30" fill="#FFFFFF"></path>
                <path d="M140.354236,28.1293571 C140.296,27.6846429 139.93382,27.4630714 139.265303,27.4630714 C138.598382,27.4630714 138.264921,27.6673571 138.264921,28.0767143 C138.264921,28.2487857 138.335124,28.3776429 138.477921,28.4656429 C138.619124,28.5552143 138.797022,28.6275 139.01082,28.6832857 C139.22382,28.7414286 139.456764,28.7932857 139.708854,28.8427857 C139.960146,28.8915 140.192292,28.9582857 140.405292,29.0462857 C140.61909,29.1342857 140.796191,29.2560714 140.938191,29.4100714 C141.079393,29.5632857 141.151191,29.7746429 141.151191,30.0417857 C141.151191,30.4574286 140.992438,30.7748571 140.674135,30.9932857 C140.356629,31.2125 139.92664,31.3225 139.383371,31.3225 C138.805,31.3225 138.345494,31.1802857 138.004854,30.8935 C137.692135,30.6452143 137.524607,30.3175714 137.50227,29.9137143 L138.178764,29.9137143 C138.217854,30.3065714 138.443618,30.5713571 138.852865,30.7065 C139.005236,30.7536429 139.15282,30.7756429 139.300404,30.7756429 C139.447191,30.7756429 139.585202,30.7662143 139.712045,30.7512857 C139.838888,30.7332143 139.964135,30.7025714 140.085393,30.6562143 C140.362213,30.5477857 140.50182,30.3623571 140.50182,30.1015 C140.50182,29.9247143 140.43082,29.7895714 140.28882,29.6952857 C140.147618,29.6017857 139.970517,29.5247857 139.755124,29.4650714 C139.542124,29.4053571 139.308382,29.3503571 139.058685,29.3032143 C138.805798,29.2545 138.573652,29.1877143 138.359854,29.1028571 C138.146056,29.0172143 137.968955,28.9001429 137.827753,28.7524286 C137.685753,28.6039286 137.614753,28.3988571 137.614753,28.1372143 C137.614753,27.7506429 137.756753,27.4505 138.044742,27.2367857 C138.329539,27.0230714 138.753146,26.917 139.313169,26.917 C139.84527,26.917 140.26409,27.0419286 140.570427,27.2917857 C140.82491,27.5031429 140.972494,27.7812857 141.012382,28.1293571 L140.354236,28.1293571" id="Fill-31" fill="#FFFFFF"></path>
            </g>
        </g>
    </g>
</svg>