<?xml version="1.0" encoding="UTF-8" standalone="no"?>
<svg width="73px" height="81px" viewBox="0 0 73 81" version="1.1" xmlns="http://www.w3.org/2000/svg" xmlns:xlink="http://www.w3.org/1999/xlink">
    <!-- Generator: Sketch 45.2 (43514) - http://www.bohemiancoding.com/sketch -->
    <title>Group 4</title>
    <desc>Created with Sketch.</desc>
    <defs>
        <polygon id="path-1" points="0.103359044 49.7642197 0.103359044 0.49904845 47.5658322 0.49904845 47.5658322 25.1316341 47.5658322 49.7642197 0.103359044 49.7642197"></polygon>
    </defs>
    <g id="Energy" stroke="none" stroke-width="1" fill="none" fill-rule="evenodd">
        <g id="01-copy-25" transform="translate(-263.000000, -438.000000)">
            <g id="Group-4" transform="translate(263.000000, 436.000000)">
                <g id="GWO_Logo_4c-Copy-2" transform="translate(12.000000, 0.000000)">
                    <g id="Group-12">
                        <mask id="mask-2" fill="white">
                            <use xlink:href="#path-1"></use>
                        </mask>
                        <g id="Clip-10"></g>
                        <path d="M47.4624731,39.412823 C47.4624731,45.1304434 42.8078708,49.7642197 37.0662759,49.7642197 L10.3979199,49.7642197 C4.65632494,49.7642197 0,45.1304434 0,39.412823 L0,12.8655033 C0,7.14788296 4.65632494,2.51582157 10.3979199,2.51582157 L37.0662759,2.51582157 C42.8078708,2.51582157 47.4624731,7.14788296 47.4624731,12.8655033 L47.4624731,39.412823" id="Fill-11" fill="#D5D5D5" mask="url(#mask-2)"></path>
                    </g>
                    <polyline id="Fill-13" fill="#FFFFFF" points="21.021507 28.8693526 21.021507 39.7883955 29.2902305 34.3297315 21.021507 28.8693526"></polyline>
                    <polyline id="Fill-14" fill="#FFFFFF" points="29.2902305 23.4124036 29.2902305 34.3331614 37.558954 28.8693526 29.2902305 23.4124036"></polyline>
                    <polyline id="Fill-15" fill="#FFFFFF" points="29.2902305 34.3348764 29.2902305 45.2590641 37.558954 39.7986852 29.2902305 34.3348764"></polyline>
                    <polyline id="Fill-16" fill="#FFFFFF" points="12.7527834 23.4021139 12.7527834 12.483071 21.021507 17.9400201 12.7527834 23.4021139"></polyline>
                    <polyline id="Fill-17" fill="#FFFFFF" points="21.021507 17.9434499 21.021507 7.02097717 29.2902305 12.483071 21.021507 17.9434499"></polyline>
                    <polyline id="Fill-18" fill="#FFFFFF" points="21.021507 28.8693526 21.021507 17.9503097 29.2902305 23.4089737 21.021507 28.8693526"></polyline>
                    <polyline id="Fill-19" fill="#FFFFFF" points="4.48405987 39.7883955 4.48405987 28.8693526 12.7527834 34.3297315 4.48405987 39.7883955"></polyline>
                    <polyline id="Fill-20" fill="#FFFFFF" points="12.7527834 34.3331614 12.7527834 23.4124036 21.021507 28.8693526 12.7527834 34.3331614"></polyline>
                    <polyline id="Fill-21" fill="#FFFFFF" points="12.7527834 45.2590641 12.7527834 34.3348764 21.021507 39.7986852 12.7527834 45.2590641"></polyline>
                </g>
                <path d="M3.968,70.784 C5.16267264,70.784 6.1333296,71.183996 6.88,71.984 C7.58400352,72.7520038 7.936,73.7279941 7.936,74.912 C7.936,76.0960059 7.58400352,77.0719962 6.88,77.84 C6.1333296,78.640004 5.16267264,79.04 3.968,79.04 C2.77332736,79.04 1.8026704,78.640004 1.056,77.84 C0.35199648,77.0719962 0,76.0960059 0,74.912 C0,73.7279941 0.35199648,72.7520038 1.056,71.984 C1.8026704,71.183996 2.77332736,70.784 3.968,70.784 Z M3.968,77.952 C4.83200432,77.952 5.51466416,77.6533363 6.016,77.056 C6.4960024,76.4906638 6.736,75.7760043 6.736,74.912 C6.736,74.0479957 6.4960024,73.3333362 6.016,72.768 C5.51466416,72.1706637 4.83200432,71.872 3.968,71.872 C3.10399568,71.872 2.42133584,72.1706637 1.92,72.768 C1.4399976,73.3333362 1.2,74.0479957 1.2,74.912 C1.2,75.7760043 1.4399976,76.4906638 1.92,77.056 C2.42133584,77.6533363 3.10399568,77.952 3.968,77.952 Z M10.4123076,72.192 C11.0523108,71.2533286 12.0069679,70.784 13.2763076,70.784 C14.4283134,70.784 15.3616374,71.183996 16.0763076,71.984 C16.7909778,72.7733373 17.1483076,73.7493275 17.1483076,74.912 C17.1483076,76.0746725 16.7909778,77.0506627 16.0763076,77.84 C15.3616374,78.640004 14.401647,79.04 13.1963076,79.04 C11.9909682,79.04 11.0629775,78.5653381 10.4123076,77.616 L10.4123076,82.08 L9.21230759,82.08 L9.21230759,70.912 L10.4123076,70.912 L10.4123076,72.192 Z M13.1163076,71.872 C12.2523033,71.872 11.5696434,72.1706637 11.0683076,72.768 C10.5883052,73.3333362 10.3483076,74.0479957 10.3483076,74.912 C10.3483076,75.7760043 10.5883052,76.4906638 11.0683076,77.056 C11.5696434,77.6533363 12.2523033,77.952 13.1163076,77.952 C13.9696452,77.952 14.6629716,77.6533363 15.1963076,77.056 C15.6976434,76.4906638 15.9483076,75.7760043 15.9483076,74.912 C15.9483076,74.0479957 15.6976434,73.3333362 15.1963076,72.768 C14.6629716,72.1706637 13.9696452,71.872 13.1163076,71.872 Z M21.9766152,77.952 C23.0539539,77.952 23.8272795,77.5040045 24.2966152,76.608 L25.6086152,76.608 C25.3312805,77.333337 24.8912849,77.9199978 24.2886152,78.368 C23.6859455,78.8160022 22.9099533,79.04 21.9606152,79.04 C20.7552758,79.04 19.7739523,78.640004 19.0166152,77.84 C18.2806115,77.0613294 17.9126152,76.0853392 17.9126152,74.912 C17.9126152,73.7279941 18.2646117,72.7520038 18.9686152,71.984 C19.7152856,71.183996 20.6859425,70.784 21.8806152,70.784 C23.0752878,70.784 24.0459448,71.183996 24.7926152,71.984 C25.4966187,72.7520038 25.8486152,73.7279941 25.8486152,74.912 L25.8486152,75.392 L19.1446152,75.392 C19.2299489,76.1280037 19.5232793,76.7359976 20.0246152,77.216 C20.5366177,77.7066691 21.1872779,77.952 21.9766152,77.952 Z M21.8806152,71.872 C21.1446115,71.872 20.525951,72.101331 20.0246152,72.56 C19.5552795,72.9973355 19.2672824,73.5679965 19.1606152,74.272 L24.6006152,74.272 C24.493948,73.5679965 24.2059509,72.9973355 23.7366152,72.56 C23.2352793,72.101331 22.6166189,71.872 21.8806152,71.872 Z M31.2369228,70.784 L31.2369228,71.984 L31.0929228,71.984 C30.2289185,71.984 29.5249255,72.3306632 28.9809228,73.024 C28.4689202,73.6853366 28.2129228,74.4746621 28.2129228,75.392 L28.2129228,78.912 L27.0129228,78.912 L27.0129228,70.912 L28.2129228,70.912 L28.2129228,72.88 C28.4689241,72.0479958 29.0235852,71.4346686 29.8769228,71.04 C30.2289245,70.8693325 30.6555869,70.784 31.1569228,70.784 L31.2369228,70.784 Z M38.2572304,77.632 C37.6172272,78.5706714 36.66257,79.04 35.3932304,79.04 C34.2412246,79.04 33.3025673,78.640004 32.5772304,77.84 C31.8732268,77.0506627 31.5212304,76.0746725 31.5212304,74.912 C31.5212304,73.7493275 31.8732268,72.7733373 32.5772304,71.984 C33.3025673,71.183996 34.267891,70.784 35.4732304,70.784 C36.6785697,70.784 37.6065604,71.2586619 38.2572304,72.208 L38.2572304,70.912 L39.4572304,70.912 L39.4572304,78.912 L38.2572304,78.912 L38.2572304,77.632 Z M35.5532304,77.952 C36.4172347,77.952 37.0998945,77.6533363 37.6012304,77.056 C38.0812328,76.4906638 38.3212304,75.7760043 38.3212304,74.912 C38.3212304,74.0479957 38.0812328,73.3333362 37.6012304,72.768 C37.0998945,72.1706637 36.4172347,71.872 35.5532304,71.872 C34.6998928,71.872 34.0065664,72.1706637 33.4732304,72.768 C32.9718945,73.3333362 32.7212304,74.0479957 32.7212304,74.912 C32.7212304,75.7760043 32.9718945,76.4906638 33.4732304,77.056 C34.0065664,77.6533363 34.6998928,77.952 35.5532304,77.952 Z M42.093538,78.912 L42.093538,71.968 L40.461538,71.968 L40.461538,70.912 L42.093538,70.912 L42.093538,68.048 L43.293538,68.048 L43.293538,70.912 L45.133538,70.912 L45.133538,71.968 L43.293538,71.968 L43.293538,78.912 L42.093538,78.912 Z M46.1378455,70.912 L47.3378455,70.912 L47.3378455,78.912 L46.1378455,78.912 L46.1378455,70.912 Z M47.3858455,68 L47.3858455,69.568 L46.0898455,69.568 L46.0898455,68 L47.3858455,68 Z M52.5821531,70.784 C53.7768258,70.784 54.7474827,71.183996 55.4941531,71.984 C56.1981567,72.7520038 56.5501531,73.7279941 56.5501531,74.912 C56.5501531,76.0960059 56.1981567,77.0719962 55.4941531,77.84 C54.7474827,78.640004 53.7768258,79.04 52.5821531,79.04 C51.3874805,79.04 50.4168235,78.640004 49.6701531,77.84 C48.9661496,77.0719962 48.6141531,76.0960059 48.6141531,74.912 C48.6141531,73.7279941 48.9661496,72.7520038 49.6701531,71.984 C50.4168235,71.183996 51.3874805,70.784 52.5821531,70.784 Z M52.5821531,77.952 C53.4461575,77.952 54.1288173,77.6533363 54.6301531,77.056 C55.1101555,76.4906638 55.3501531,75.7760043 55.3501531,74.912 C55.3501531,74.0479957 55.1101555,73.3333362 54.6301531,72.768 C54.1288173,72.1706637 53.4461575,71.872 52.5821531,71.872 C51.7181488,71.872 51.035489,72.1706637 50.5341531,72.768 C50.0541507,73.3333362 49.8141531,74.0479957 49.8141531,74.912 C49.8141531,75.7760043 50.0541507,76.4906638 50.5341531,77.056 C51.035489,77.6533363 51.7181488,77.952 52.5821531,77.952 Z M59.0264607,70.912 L59.0264607,72.16 C59.3144622,71.7759981 59.6664587,71.450668 60.0824607,71.184 C60.4984628,70.917332 60.9731247,70.784 61.5064607,70.784 C62.0397967,70.784 62.4984588,70.8586659 62.8824607,71.008 C63.2664627,71.1573341 63.6024593,71.3813318 63.8904607,71.68 C64.5517974,72.3306699 64.8824607,73.189328 64.8824607,74.256 L64.8824607,78.912 L63.6824607,78.912 L63.6824607,74.288 C63.6824607,73.5519963 63.4744628,72.9653355 63.0584607,72.528 C62.6424587,72.0906645 62.1037974,71.872 61.4424607,71.872 C60.7704574,71.872 60.1997964,72.0959978 59.7304607,72.544 C59.2611251,73.002669 59.0264607,73.5893298 59.0264607,74.304 L59.0264607,78.912 L57.8264607,78.912 L57.8264607,70.912 L59.0264607,70.912 Z M71.2787683,73.056 C71.1721011,72.2239958 70.5027745,71.808 69.2707683,71.808 C68.0387622,71.808 67.4227683,72.1919962 67.4227683,72.96 C67.4227683,73.2800016 67.5534337,73.5226658 67.8147683,73.688 C68.076103,73.8533342 68.4040997,73.9893328 68.7987683,74.096 C69.193437,74.2026672 69.622766,74.3013329 70.0867683,74.392 C70.5507706,74.4826671 70.9800997,74.6106658 71.3747683,74.776 C71.769437,74.9413342 72.0974337,75.1679986 72.3587683,75.456 C72.620103,75.7440014 72.7507683,76.1386642 72.7507683,76.64 C72.7507683,77.4186706 72.4574379,78.0133313 71.8707683,78.424 C71.2840987,78.8346687 70.48944,79.04 69.4867683,79.04 C68.4200963,79.04 67.5721048,78.773336 66.9427683,78.24 C66.3667654,77.7706643 66.0574352,77.1573371 66.0147683,76.4 L67.2627683,76.4 C67.3374354,77.1360037 67.7534312,77.6319987 68.5107683,77.888 C68.788103,77.9733338 69.062767,78.016 69.3347683,78.016 C69.6067697,78.016 69.8601005,78.0000002 70.0947683,77.968 C70.3294362,77.9359998 70.5587672,77.8773338 70.7827683,77.792 C71.2947709,77.5893323 71.5507683,77.2426691 71.5507683,76.752 C71.5507683,76.4213317 71.420103,76.1680009 71.1587683,75.992 C70.8974337,75.8159991 70.569437,75.6720006 70.1747683,75.56 C69.7800997,75.4479994 69.3507706,75.3466671 68.8867683,75.256 C68.422766,75.1653329 67.993437,75.0400008 67.5987683,74.88 C67.2040997,74.7199992 66.876103,74.5013347 66.6147683,74.224 C66.3534337,73.9466653 66.2227683,73.5626691 66.2227683,73.072 C66.2227683,72.346663 66.4867657,71.784002 67.0147683,71.384 C67.542771,70.983998 68.3240965,70.784 69.3587683,70.784 C70.3401066,70.784 71.1134322,71.0186643 71.6787683,71.488 C72.148104,71.8826686 72.4201013,72.4053301 72.4947683,73.056 L71.2787683,73.056 Z" id="operations" fill="#777776"></path>
            </g>
        </g>
    </g>
</svg>