<?xml version="1.0" encoding="UTF-8" standalone="no"?>
<svg width="30px" height="29px" viewBox="0 0 30 29" version="1.1" xmlns="http://www.w3.org/2000/svg" xmlns:xlink="http://www.w3.org/1999/xlink">
    <!-- Generator: Sketch 45.2 (43514) - http://www.bohemiancoding.com/sketch -->
    <title>Group Copy 3</title>
    <desc>Created with Sketch.</desc>
    <defs></defs>
    <g id="offshore" stroke="none" stroke-width="1" fill="none" fill-rule="evenodd">
        <g id="Mobile-Copy-7" transform="translate(-270.000000, -20.000000)" fill="#FFFFFF">
            <g id="Group-Copy-3" transform="translate(270.000000, 19.580904)">
                <path d="M25.4221375,16.4816411 C25.71268,18.0468038 26.2430477,20.69736 26.7033419,21.8767075 C27.3779708,23.605215 29.4865037,28.4940583 29.4865037,28.4940583 L16.8335919,24.57904 L5,24.57904 C2.23857625,24.57904 1.2263553e-15,22.3404638 8.8817842e-16,19.57904 L0,5.9790924 C-3.38176876e-16,3.21766865 2.23857625,0.9790924 5,0.9790924 L5,0.9790924 L20.4221375,0.9790924 L20.4221375,0.9790924 C23.1835613,0.9790924 25.4221375,3.21766865 25.4221375,5.9790924 L25.4221375,16.4816411 Z M4.16651646,9.17781302 L4.16651646,9.64820927 C4.16651646,10.7426707 5.06328118,11.6467189 6.16949653,11.6467189 L17.605838,11.6467189 C18.7118275,11.6467189 19.6088181,10.7519556 19.6088181,9.64820927 L19.6088181,9.17781302 C19.6088181,8.0833516 18.7120534,7.17930342 17.605838,7.17930342 L6.16949653,7.17930342 C5.06350708,7.17930342 4.16651646,8.07406665 4.16651646,9.17781302 Z M4.16651646,16.3753157 L4.16651646,16.8457119 C4.16651646,17.9401734 5.06138878,18.8442215 6.16526973,18.8442215 L15.2343261,18.8442215 C16.3349616,18.8442215 17.2330794,17.9494583 17.2330794,16.8457119 L17.2330794,16.3753157 C17.2330794,15.2808543 16.3382071,14.3768061 15.2343261,14.3768061 L6.16526973,14.3768061 C5.06463424,14.3768061 4.16651646,15.2715693 4.16651646,16.3753157 Z" id="Combined-Shape"></path>
            </g>
        </g>
    </g>
</svg>