<?xml version="1.0" encoding="UTF-8" standalone="no"?>
<svg width="1441px" height="1012px" viewBox="0 0 1441 1012" version="1.1" xmlns="http://www.w3.org/2000/svg" xmlns:xlink="http://www.w3.org/1999/xlink">
    <!-- Generator: Sketch 46.2 (44496) - http://www.bohemiancoding.com/sketch -->
    <title>Group</title>
    <desc>Created with Sketch.</desc>
    <defs>
        <linearGradient x1="75.8858666%" y1="41.5278676%" x2="81.5577812%" y2="-57.8941813%" id="linearGradient-1">
            <stop stop-color="#EDEDED" offset="0%"></stop>
            <stop stop-color="#9E9F9E" offset="100%"></stop>
        </linearGradient>
        <linearGradient x1="73.4204829%" y1="-32.1278221%" x2="73.4204829%" y2="100%" id="linearGradient-2">
            <stop stop-color="#F0F0F0" offset="0%"></stop>
            <stop stop-color="#767676" offset="100%"></stop>
        </linearGradient>
        <linearGradient x1="75.8858666%" y1="41.5278676%" x2="81.5577812%" y2="-57.8941813%" id="linearGradient-3">
            <stop stop-color="#A0A0A0" offset="0%"></stop>
            <stop stop-color="#9E9F9E" offset="100%"></stop>
        </linearGradient>
        <linearGradient x1="20.768721%" y1="157.692048%" x2="57.215074%" y2="0%" id="linearGradient-4">
            <stop stop-color="#F5F5F5" offset="0%"></stop>
            <stop stop-color="#888888" offset="100%"></stop>
        </linearGradient>
    </defs>
    <g id="Operations" stroke="none" stroke-width="1" fill="none" fill-rule="evenodd">
        <g id="Artboard-2" transform="translate(-171.000000, -40.000000)">
            <g id="Group" transform="translate(172.000000, 40.000000)">
                <path d="M0.274113521,0.898149745 L1440,0.898149745 L1440,235.525784 L228.509078,407.506317 L228.509078,407.506317 C208.448578,410.35406 187.996251,407.040857 169.86077,398.005503 L0.274113521,313.515019 L0.274113521,0.898149745 Z" id="Path-22" fill="#DADADA"></path>
                <path d="M0.536985534,321.171261 L187.552416,388.729247 L187.552416,388.729247 C200.454918,393.390183 214.244259,395.073623 227.889134,393.653662 L516.156786,363.654935 L314.154306,164.773943 L314.154306,164.773943 C287.914123,138.939242 249.598874,129.615991 214.422422,140.506179 L0.245152672,206.812778 L0.536985534,321.171261 Z" id="Path-3-Copy-10" fill="url(#linearGradient-1)"></path>
                <path d="M0.46991798,321.052896 L173.633417,390.716065 L173.633417,390.716065 C187.006163,396.095882 201.465612,398.222012 215.820954,396.919357 L464.229689,374.377873 L153.805362,75.0201068 L153.805362,75.0201068 C127.858201,49.9979572 90.4523551,40.8768016 55.8995349,51.1464515 L0,67.7606857 L0.46991798,321.052896 Z" id="Path-3-Copy-9" fill="url(#linearGradient-2)"></path>
                <path d="M0.0856541785,574.518478 L1138.97958,819.732889 L1138.97958,819.732889 C1177.64961,828.058906 1217.59322,812.807972 1240.8741,780.828375 L1439.3715,508.163997 L1439.3715,1011.13974 L0.0856541785,1011.13974 L0.0856541785,574.518478 Z" id="Path-11" fill="#FFFFFF"></path>
                <path d="M1247.17845,771.925372 L1347.619,820.650958 L1347.619,820.650958 C1373.83598,833.3693 1404.55805,832.763521 1430.25328,819.021571 L1439.71585,813.960938 L1439.71585,506 L1247.17845,771.925372 Z" id="Path-3-Copy-11" fill="url(#linearGradient-3)"></path>
                <path d="M0.391081181,313 L171.966801,378.081699 L171.966801,378.081699 C186.351114,383.537923 201.800367,385.601747 217.112494,384.11259 L760.674322,331.249349 L100.400056,690.224588 L100.400056,690.224588 C67.4057307,708.162809 26.1167437,695.957425 8.17852248,662.9631 C2.74276468,652.964943 -0.0967792852,641.762431 -0.079891774,630.38217 L0.391081181,313 Z" id="Path-24-Copy-8" fill="url(#linearGradient-4)"></path>
            </g>
        </g>
    </g>
</svg>