<?xml version="1.0" encoding="utf-8"?>
<!-- Generator: Adobe Illustrator 17.0.0, SVG Export Plug-In . SVG Version: 6.00 Build 0)  -->
<!DOCTYPE svg PUBLIC "-//W3C//DTD SVG 1.1//EN" "http://www.w3.org/Graphics/SVG/1.1/DTD/svg11.dtd">
<svg version="1.1" id="Layer_1" xmlns="http://www.w3.org/2000/svg" xmlns:xlink="http://www.w3.org/1999/xlink" x="0px" y="0px"
	 width="1440px" height="384.5px" viewBox="0 0 1440 384.5" enable-background="new 0 0 1440 384.5" xml:space="preserve">
<polygon fill="#FFFFFF" points="1440,387.5 0.094,387.5 0.094,5.879 1108.5,338.956 1440,46.636 "/>
<title>Group 4</title>
<desc>Created with Sketch.</desc>
<g id="Energy">
	<g id="LEISTUNGEN-Copy-6" transform="translate(0.000000, -3992.000000)">
		<g id="Group-4" transform="translate(-3.000000, 3942.000000)">
			
				<linearGradient id="Rectangle-3-Copy-8_1_" gradientUnits="userSpaceOnUse" x1="553.5694" y1="310.9832" x2="553.5694" y2="309.9369" gradientTransform="matrix(-531.1409 18.5478 -7.4654 -213.7825 296610.9062 56257.3008)">
				<stop  offset="0" style="stop-color:#ADDA87"/>
				<stop  offset="1" style="stop-color:#84AF5F"/>
			</linearGradient>
			<path id="Rectangle-3-Copy-8" fill="url(#Rectangle-3-Copy-8_1_)" d="M3,51.227l0,76.445l287.145,118.603l0,0
				c21.019,8.682,44.369,9.94,66.199,3.567l180.868-52.799L3,51.227z"/>
			
				<linearGradient id="Rectangle-3-Copy-10_1_" gradientUnits="userSpaceOnUse" x1="553.0602" y1="310.1143" x2="553.3223" y2="311.841" gradientTransform="matrix(-1438.0276 50.217 -13.6106 -389.7559 800488.9375 93543.5)">
				<stop  offset="0" style="stop-color:#57733F"/>
				<stop  offset="1" style="stop-color:#84AF5F"/>
			</linearGradient>
			<path id="Rectangle-3-Copy-10" fill="url(#Rectangle-3-Copy-10_1_)" d="M1443,74.066l-287.508,253.029l0,0
				c-19.656,17.299-46.682,23.581-71.953,16.726L2.918,50.676l0,14.776l1084.246,332.122l0,0
				c35.208,10.785,73.494,1.348,99.657-24.563L1443,119.293V74.066z"/>
		</g>
	</g>
</g>
</svg>
