<?xml version="1.0" encoding="UTF-8" standalone="no"?>
<svg width="1444px" height="472px" viewBox="0 0 1444 472" version="1.1" xmlns="http://www.w3.org/2000/svg" xmlns:xlink="http://www.w3.org/1999/xlink">
    <!-- Generator: Sketch 45.2 (43514) - http://www.bohemiancoding.com/sketch -->
    <title>Group 5</title>
    <desc>Created with Sketch.</desc>
    <defs>
        <linearGradient x1="51.5607638%" y1="-39.7448511%" x2="51.5607655%" y2="149.712632%" id="linearGradient-1">
            <stop stop-color="#F2F2F2" offset="0%"></stop>
            <stop stop-color="#CCCCCC" offset="100%"></stop>
        </linearGradient>
    </defs>
    <g id="Operations" stroke="none" stroke-width="1" fill="none" fill-rule="evenodd">
        <g id="Group-5">
            <path d="M1443.12859,138.757812 L769.641258,3.92133276 L769.641258,3.92133276 C751.945058,0.378440172 733.619906,1.69058027 716.609016,7.71861274 L226.092136,181.539711 L226.092136,181.539711 C201.371601,190.299757 174.199073,188.997581 150.429506,177.913766 L1,108.234375 L1,466.867187 L1443.12859,471.5 L1443.12859,138.757812 Z" id="Path-16" fill="#FFFFFF"></path>
            <path d="M0.669373112,107.662024 L157.395992,170.325305 L157.395992,170.325305 C179.466392,179.149611 203.958334,179.823936 226.480841,172.227384 L719.286922,6.01022355 L719.286922,6.01022355 C735.595183,0.50965666 753.047071,-0.688735614 769.95414,2.53098961 L1443.30747,130.762129 L1443.30747,140.378671 L770.105813,12.6795154 L770.105813,12.6795154 C753.102523,9.45417317 735.553228,10.696839 719.174093,16.2859913 L228.866102,183.596779 L228.866102,183.596779 C204.909859,191.771514 178.744866,190.557172 155.648766,180.198693 L0.669373112,110.691252 L0.669373112,107.662024 Z" id="Path-14" fill="url(#linearGradient-1)"></path>
        </g>
    </g>
</svg>