<?xml version="1.0" encoding="utf-8"?>
<!-- Generator: Adobe Illustrator 17.0.0, SVG Export Plug-In . SVG Version: 6.00 Build 0)  -->
<!DOCTYPE svg PUBLIC "-//W3C//DTD SVG 1.1//EN" "http://www.w3.org/Graphics/SVG/1.1/DTD/svg11.dtd">
<svg version="1.1" id="Layer_1" xmlns="http://www.w3.org/2000/svg" xmlns:xlink="http://www.w3.org/1999/xlink" x="0px" y="0px"
	 width="1440px" height="488.5px" viewBox="0 0 1440 488.5" enable-background="new 0 0 1440 488.5" xml:space="preserve">
<polygon fill="#FFFFFF" points="1440,491.5 1.5,491.5 0,56.5 1213.5,360.5 1440,141.5 "/>
<title>Group 6</title>
<desc>Created with Sketch.</desc>
<g id="Energy">
	<g id="LEISTUNGEN-Copy-6" transform="translate(0.000000, -7187.000000)">
		<g id="Group-8" transform="translate(-23.000000, 6974.000000)">
			<g id="Group-4-Copy">
				<g id="Group-6" transform="translate(18.000000, 213.000000)">
					
						<linearGradient id="Rectangle-3-Copy-8_1_" gradientUnits="userSpaceOnUse" x1="555.1168" y1="294.1745" x2="555.3789" y2="295.9012" gradientTransform="matrix(-1107.4369 38.6725 -11.9264 -341.5286 619339.75 79461.1328)">
						<stop  offset="0" style="stop-color:#57733F"/>
						<stop  offset="1" style="stop-color:#84AF5F"/>
					</linearGradient>
					<path id="Rectangle-3-Copy-8" fill="url(#Rectangle-3-Copy-8_1_)" d="M1445,233.183V124.386l-187.862,188.169l0,0
						c-19.64,19.672-48.264,27.405-75.138,20.299L335.678,109.079l658.989,235.253l215.997,70.108l0,0
						c38.676,12.553,81.102,0.438,107.317-30.646L1445,233.183z"/>
					
						<linearGradient id="Rectangle-3-Copy-25_1_" gradientUnits="userSpaceOnUse" x1="554.7031" y1="295.2479" x2="554.7031" y2="294.2016" gradientTransform="matrix(1005.4744 0 0 -345.2532 -557236.125 101935.2969)">
						<stop  offset="0" style="stop-color:#ADDA87"/>
						<stop  offset="1" style="stop-color:#84AF5F"/>
					</linearGradient>
					<path id="Rectangle-3-Copy-25" fill="url(#Rectangle-3-Copy-25_1_)" d="M0.871,212.325l74.107-59.784
						c24.278-19.031,55.981-25.792,85.911-18.321l845.456,211.039L38.606,5.407C28.424,1.831,11.345-0.598,0.871,0.139
						C1.881-1.947,1.881,68.781,0.871,212.325z"/>
				</g>
			</g>
		</g>
	</g>
</g>
</svg>
