<?xml version="1.0" encoding="UTF-8" standalone="no"?>
<svg width="19px" height="21px" viewBox="0 0 19 21" version="1.1" xmlns="http://www.w3.org/2000/svg" xmlns:xlink="http://www.w3.org/1999/xlink">
    <!-- Generator: Sketch 46.2 (44496) - http://www.bohemiancoding.com/sketch -->
    <title>external_link_icon copy</title>
    <desc>Created with Sketch.</desc>
    <defs></defs>
    <g id="Page-1" stroke="none" stroke-width="1" fill="none" fill-rule="evenodd">
        <g id="external_link_icon-copy" transform="translate(0.000000, -1.000000)" fill-rule="nonzero">
            <path d="M6.0796501,5.24823339 L1.3901842,5.24823339 C0.927275873,5.24823339 0.561453634,5.62103718 0.561453634,6.08091398 L0.561453634,20.5344707 C0.561453634,21.0001995 0.932488946,21.3671512 1.3901842,21.3671512 L15.1468528,21.3671512 C15.6097612,21.3671512 15.9755834,20.9943474 15.9755834,20.5344707 L15.9755834,14.0449312 L13.8832724,12.324025 L13.0039158,13.2931607 L13.0039158,17.5200423 C13.0039158,17.9464316 12.6725897,18.2968812 12.2702067,18.2968812 L4.23118746,18.2968812 C3.82847111,18.2968812 3.49747835,17.9460786 3.49747835,17.5200423 L3.49747835,9.00846468 C3.49747835,8.58207541 3.82880446,8.23162587 4.23118746,8.23162587 L6.9324427,8.23162587 L8.07310012,7.22089179 L6.0796501,5.24823339 Z" id="Combined-Shape" fill="#D3D3D3"></path>
            <path d="M7.54099581,2.60773354 L7.14790612,9.81903258 C7.11784557,10.3704986 7.54052824,10.8419191 8.0919943,10.8719796 C8.29355568,10.8829668 8.49372342,10.8326964 8.66617634,10.7277788 L10.6439019,9.52456246 L13.2113821,14.6537714 C13.4585928,15.1476391 14.0593556,15.347594 14.5532233,15.1003833 C14.5750849,15.0894402 14.5965379,15.0776991 14.617539,15.0651837 L17.3429791,13.4409791 C17.8092109,13.1631319 17.9687011,12.5641088 17.702355,12.0912125 L14.7570512,6.86183684 L16.926318,5.33429907 C17.3778804,5.01632131 17.4861721,4.39248576 17.1681944,3.94092337 C17.0606885,3.78825348 16.9125852,3.66873278 16.7406543,3.59589461 L10.318203,0.875035568 C9.30113928,0.444158475 8.12735129,0.919356666 7.69647419,1.93642043 C7.60619888,2.14951078 7.5535921,2.37665247 7.54099581,2.60773354 Z" id="Path-8" fill="#CCCCCC" transform="translate(12.488800, 7.961226) rotate(74.000000) translate(-12.488800, -7.961226) "></path>
        </g>
    </g>
</svg>