<?xml version="1.0" encoding="utf-8"?>
<!-- Generator: Adobe Illustrator 17.0.0, SVG Export Plug-In . SVG Version: 6.00 Build 0)  -->
<!DOCTYPE svg PUBLIC "-//W3C//DTD SVG 1.1//EN" "http://www.w3.org/Graphics/SVG/1.1/DTD/svg11.dtd">
<svg version="1.1" id="Layer_1" xmlns="http://www.w3.org/2000/svg" xmlns:xlink="http://www.w3.org/1999/xlink" x="0px" y="0px"
	 width="1440px" height="510.394px" viewBox="0 -117.394 1440 510.394" enable-background="new 0 -117.394 1440 510.394"
	 xml:space="preserve">
<title>Path 20 Copy 2</title>
<desc>Created with Sketch.</desc>
<g id="Energy">
	<g id="PROFIL-Copy-3" transform="translate(0.000000, -1018.000000)">
		
			<linearGradient id="Path-20-Copy-2_1_" gradientUnits="userSpaceOnUse" x1="549.7119" y1="1300.7667" x2="549.8236" y2="1298.7415" gradientTransform="matrix(1440.2607 0 0 -392.4629 -791124.6875 511119.2188)">
			<stop  offset="0" style="stop-color:#ADDA87"/>
			<stop  offset="1" style="stop-color:#84AF5F"/>
		</linearGradient>
		<path id="Path-20-Copy-2" fill="url(#Path-20-Copy-2_1_)" d="M827.661,992.543l612.599,5.421L1440,1385.002H0l782.895-382.321l0,0
			C796.829,995.877,812.155,992.406,827.661,992.543z"/>
	</g>
</g>
<g id="Energy_1_">
	<g id="PROFIL-Copy-3_1_" transform="translate(0.000000, -970.000000)">
		
			<linearGradient id="Path-20_1_" gradientUnits="userSpaceOnUse" x1="549.6999" y1="1250.8108" x2="549.962" y2="1252.5376" gradientTransform="matrix(1440 0 0 -366.3833 -790981.4375 459581.3438)">
			<stop  offset="0" style="stop-color:#57733F"/>
			<stop  offset="1" style="stop-color:#84AF5F"/>
		</linearGradient>
		<path id="Path-20" fill="url(#Path-20_1_)" d="M0,898.113l507.782,39.814l0,0c9.454,0.741,18.754,2.823,27.621,6.184
			l237.825,90.129l0,0c16.427,6.225,34.203,8.013,51.541,5.185L1440,939.044v325.452H0V898.113z"/>
	</g>
</g>
<g id="Energy_2_">
	<g id="PROFIL-Copy-3_2_" transform="translate(0.000000, -928.000000)">
		<path id="Path-20-Copy" fill="#84AF5F" d="M0,1102.497l760.957-80.963l0,0c6.202-0.66,12.328-1.898,18.299-3.699L1440,818.529
			v460.063H0V1102.497z"/>
	</g>
</g>
<g id="Energy_3_">
	<g id="PROFIL-Copy-3_3_" transform="translate(0.000000, -941.000000)">
		<g id="Group-8" transform="translate(0.000000, 941.000000)">
			<path id="Rectangle-2-Copy" fill="#FFFFFF" d="M1.506-90.561l637.571,215.257c45.524,15.37,119.342,15.367,164.857,0
				l637.571-215.257V393h-1440V-90.561z"/>
			<path id="Path-17" fill="#F0F0F0" d="M1.506-90.341l688.021,232.214l0,0c20.744,7.001,43.213,7.001,63.958,0l688.021-232.214
				v-3.22L752.458,130.733l0,0c-20.116,6.548-41.79,6.548-61.906,0L1.506-93.561V-90.341z"/>
		</g>
	</g>
</g>
</svg>
