<svg id="Laag_1" data-name="Laag 1" xmlns="http://www.w3.org/2000/svg" xmlns:xlink="http://www.w3.org/1999/xlink" viewBox="0 0 44.24 44.24"><defs><style>.cls-1{fill:url(#Naamloos_verloop);}.cls-2{fill:url(#Naamloos_verloop_2);}.cls-3{fill:url(#Naamloos_verloop_3);}.cls-4{fill:url(#Naamloos_verloop_4);}.cls-5{fill:url(#Naamloos_verloop_6);}.cls-6{fill:url(#Naamloos_verloop_11);}.cls-7{fill:url(#Naamloos_verloop_12);}.cls-8{fill:url(#Naamloos_verloop_13);}.cls-9{fill:url(#Naamloos_verloop_14);}.cls-10{fill:url(#Naamloos_verloop_15);}.cls-11{fill:url(#Naamloos_verloop_16);}.cls-12{fill:url(#Naamloos_verloop_17);}.cls-13{fill:url(#Naamloos_verloop_18);}.cls-14{fill:url(#Naamloos_verloop_19);}</style><linearGradient id="Naamloos_verloop" x1="-300.97" y1="44.33" x2="523.5" y2="44.33" gradientTransform="matrix(1, 0, 0, -1, 0, 76.06)" gradientUnits="userSpaceOnUse"><stop offset="0" stop-color="#94b654"/><stop offset="1" stop-color="#83a14b"/></linearGradient><linearGradient id="Naamloos_verloop_2" x1="-34.1" y1="59.35" x2="94.59" y2="59.35" gradientTransform="matrix(1, 0, 0, -1, 0, 76.06)" gradientUnits="userSpaceOnUse"><stop offset="0" stop-color="#165892"/><stop offset="1" stop-color="#0067a1"/></linearGradient><linearGradient id="Naamloos_verloop_3" x1="-11.92" y1="80.86" x2="44.1" y2="60.06" gradientTransform="matrix(1, 0, 0, -1, 0, 76.06)" gradientUnits="userSpaceOnUse"><stop offset="0" stop-color="#a8a8a7"/><stop offset="1" stop-color="#f2f2f2"/></linearGradient><linearGradient id="Naamloos_verloop_4" x1="-468.18" y1="15.74" x2="-466.24" y2="15.74" gradientTransform="translate(20748.31 -655.73) scale(44.3)" xlink:href="#Naamloos_verloop"/><linearGradient id="Naamloos_verloop_6" x1="-493.73" y1="20.57" x2="-491.79" y2="20.57" gradientTransform="matrix(-30.89, 5.73, 11.36, 15.6, -15412.76, 2543.95)" gradientUnits="userSpaceOnUse"><stop offset="0" stop-color="#94b654"/><stop offset="1" stop-color="#799545"/></linearGradient><linearGradient id="Naamloos_verloop_11" x1="61.83" y1="58.55" x2="-4.97" y2="59.52" gradientTransform="matrix(1, 0, 0, -1, 0, 76.06)" gradientUnits="userSpaceOnUse"><stop offset="0" stop-color="#11475e"/><stop offset="0.43" stop-color="#1b5c86"/><stop offset="1" stop-color="#2172b7"/></linearGradient><linearGradient id="Naamloos_verloop_12" x1="-7.59" y1="63.52" x2="21.22" y2="63.52" xlink:href="#Naamloos_verloop_2"/><linearGradient id="Naamloos_verloop_13" x1="-90.28" y1="48.33" x2="227.86" y2="48.33" gradientTransform="matrix(1, 0, 0, -1, 0, 76.06)" xlink:href="#Naamloos_verloop_6"/><linearGradient id="Naamloos_verloop_14" x1="-1.6" y1="43.07" x2="45.9" y2="43.07" gradientTransform="matrix(1, 0, 0, -1, 0, 76.06)" gradientUnits="userSpaceOnUse"><stop offset="0" stop-color="#799545"/><stop offset="0.34" stop-color="#7d9a47"/><stop offset="0.73" stop-color="#88a84d"/><stop offset="1" stop-color="#94b654"/></linearGradient><linearGradient id="Naamloos_verloop_15" x1="30.03" y1="38.17" x2="50.72" y2="57.51" gradientTransform="matrix(1, 0, 0, -1, 0, 76.06)" gradientUnits="userSpaceOnUse"><stop offset="0" stop-color="#94b654"/><stop offset="0.83" stop-color="#799545"/></linearGradient><linearGradient id="Naamloos_verloop_16" x1="50.08" y1="40.77" x2="37.24" y2="52.56" xlink:href="#Naamloos_verloop"/><linearGradient id="Naamloos_verloop_17" x1="8.17" y1="52.29" x2="94.15" y2="52.29" xlink:href="#Naamloos_verloop"/><linearGradient id="Naamloos_verloop_18" x1="-0.54" y1="58.66" x2="35.99" y2="68.17" gradientTransform="matrix(1, 0, 0, -1, 0, 76.06)" gradientUnits="userSpaceOnUse"><stop offset="0" stop-color="#f2f2f2"/><stop offset="1" stop-color="#b2b2b2"/></linearGradient><linearGradient id="Naamloos_verloop_19" x1="10.6" y1="72.5" x2="44.54" y2="59.9" xlink:href="#Naamloos_verloop_3"/></defs><title>Tekengebied 1</title><path class="cls-1" d="M44.17,34.3v-15l-3.68,4.2a6.84,6.84,0,0,1-.92.86,6,6,0,0,1-2.07.94h0a5.91,5.91,0,0,1-2.44.17A6.18,6.18,0,0,1,33.5,25a7.52,7.52,0,0,1-1.06-.62,6.42,6.42,0,0,1-.95-.86l-3.07-3.41L21.22,24,5.54,32.58a5.76,5.76,0,0,1-5.48.15v1.78a9.67,9.67,0,0,0,9.66,9.66H34.51a9.62,9.62,0,0,0,6.65-2.66h0l.05-.06a8.86,8.86,0,0,0,.83-.91c.06-.07.11-.15.16-.22.22-.3.43-.6.62-.92l.11-.19a7.76,7.76,0,0,0,.53-1.13.79.79,0,0,1,.11-.29,7.54,7.54,0,0,0,.33-1.12v-.12s.15-.88.16-1a8.39,8.39,0,0,0,.06-1V34.3Z"/><path class="cls-2" d="M16.48,7,12.81,2.87h0l-.91-1L10.28.07H9.72A9.66,9.66,0,0,0,4,2H4l-.16.14c-.18.14-.34.28-.5.42l-.26.25a6.63,6.63,0,0,0-.54.52l-.2.21c-.22.27-.42.54-.62.83v.08q-.25.39-.48.81a.41.41,0,0,0-.16.3,5.61,5.61,0,0,1-.29.66,3.56,3.56,0,0,0-.13.36c0,.12-.14.43-.2.65s-.07.25-.1.38-.1.48-.13.72a1.19,1.19,0,0,0,0,.34A9.85,9.85,0,0,0,.06,9.73V18h0V32.73a5.76,5.76,0,0,0,5.48-.15l15.67-8.5,7.2-3.91Z"/><path class="cls-3" d="M42.3,4.07a1.55,1.55,0,0,0-.24-.27c-.1-.13-.2-.26-.31-.38L41.39,3l-.27-.27a7,7,0,0,0-.71-.62A9.54,9.54,0,0,0,34.47.07H10.28L11.9,1.86l.91,1h0l3.67,4.08L28.41,20.17l3.07,3.41a6.42,6.42,0,0,0,.95.86,7.52,7.52,0,0,0,1.06.62,6.18,6.18,0,0,0,1.56.45,5.92,5.92,0,0,0,2.44-.21h0a6.12,6.12,0,0,0,2.07-1,6.84,6.84,0,0,0,.92-.86l3.67-4.19h0V9.75A9.53,9.53,0,0,0,42.3,4.07Z"/><path class="cls-4" d="M41.18,41.5l0-.06-.06.06Z"/><polygon class="cls-5" points="41.16 41.5 41.16 41.51 41.17 41.5 41.16 41.5"/><path class="cls-6" d="M16.48,7,12.81,2.87h0l-.91-1L10.28.07H9.72A9.66,9.66,0,0,0,4,2,10.82,10.82,0,0,1,6.06,6.3a11.23,11.23,0,0,1,.18,4.32h0a9.69,9.69,0,0,1-1.09,3.21L.06,23.11v9.62a5.76,5.76,0,0,0,5.48-.15l15.67-8.5,7.2-3.91Z"/><path class="cls-7" d="M6.06,6.3A10.82,10.82,0,0,0,4,2H4l-.16.14c-.18.14-.34.28-.5.42l-.26.25a6.63,6.63,0,0,0-.54.52l-.2.21c-.22.27-.42.54-.62.83v.08q-.25.39-.48.81a.41.41,0,0,0-.16.3,5.61,5.61,0,0,1-.29.66,3.56,3.56,0,0,0-.13.36c0,.12-.14.43-.2.65s-.07.25-.1.38-.1.48-.13.72a1.19,1.19,0,0,0,0,.34A9.85,9.85,0,0,0,.06,9.73V18h0v5.09l5.13-9.26a9.69,9.69,0,0,0,1.09-3.21h0A11.33,11.33,0,0,0,6.06,6.3Z"/><path class="cls-8" d="M28.41,20.17l-7.2,3.91L5.54,32.58a5.76,5.76,0,0,1-5.48.15v1.35a5.68,5.68,0,0,0,6.38.43l16.48-8.93,7-3.77Z"/><path class="cls-9" d="M44.17,34.3,33.49,25.06a7.52,7.52,0,0,1-1.06-.62,6.42,6.42,0,0,1-.95-.86l-1.6-1.77-7,3.77h0L6.44,34.51a5.68,5.68,0,0,1-6.38-.43v.43a9.67,9.67,0,0,0,9.66,9.66H34.51a9.62,9.62,0,0,0,6.65-2.66h0l.05-.06a8.86,8.86,0,0,0,.83-.91c.06-.07.11-.15.16-.22.22-.3.43-.6.62-.92l.11-.19a7.76,7.76,0,0,0,.53-1.13.79.79,0,0,1,.11-.29,7.54,7.54,0,0,0,.33-1.12v-.12s.15-.88.16-1a8.39,8.39,0,0,0,.06-1Z"/><path class="cls-10" d="M44.16,31.16,37.5,25.3h0a5.91,5.91,0,0,1-2.44.17A6.18,6.18,0,0,1,33.5,25l1.3,1.12,9.37,8.16Z"/><path class="cls-11" d="M44.16,28.3v2.83L37.5,25.3a6,6,0,0,0,2.06-1Z"/><path class="cls-12" d="M44.16,28.3l-4.6-4a6.84,6.84,0,0,0,.92-.86l3.68-4.2Z"/><path class="cls-13" d="M32.63,6.8a10.5,10.5,0,0,0-.85-1.91A10.77,10.77,0,0,0,26.44.07H10.28L11.9,1.86l.91,1h0l3.67,4.08L28.41,20.17l3.07,3.41v-.23l.05-.41.33-2.52.29-2.29.91-7A9.92,9.92,0,0,0,32.63,6.8Z"/><path class="cls-14" d="M42.3,4.07a1.55,1.55,0,0,0-.24-.27c-.1-.13-.2-.26-.31-.38L41.39,3l-.27-.27a7,7,0,0,0-.71-.62A9.54,9.54,0,0,0,34.47.07h-8a10.77,10.77,0,0,1,5.34,4.82,10.5,10.5,0,0,1,.85,1.91,9.84,9.84,0,0,1,.43,4.34l-.91,7-.29,2.29v.32L31.57,23l-.05.41v.23a6.42,6.42,0,0,0,.95.86,7.52,7.52,0,0,0,1.06.62,6.18,6.18,0,0,0,1.56.45,5.89,5.89,0,0,0,2.4-.22h0a6.12,6.12,0,0,0,2.07-1,6.84,6.84,0,0,0,.92-.86l3.67-4.19h0V9.75A9.53,9.53,0,0,0,42.3,4.07Z"/></svg>