<?xml version="1.0" encoding="UTF-8" standalone="no"?>
<svg width="320px" height="173px" viewBox="0 0 320 173" version="1.1" xmlns="http://www.w3.org/2000/svg" xmlns:xlink="http://www.w3.org/1999/xlink">
    <!-- Generator: Sketch 45.2 (43514) - http://www.bohemiancoding.com/sketch -->
    <title>Group 2</title>
    <desc>Created with Sketch.</desc>
    <defs>
        <linearGradient x1="40.5273438%" y1="14.9437061%" x2="34.2610677%" y2="38.480244%" id="linearGradient-1">
            <stop stop-color="#4C91D0" offset="0%"></stop>
            <stop stop-color="#286AA6" offset="100%"></stop>
        </linearGradient>
        <polygon id="path-2" points="234.739728 63.8778716 234.322512 84.697123 297.842614 229.716372 309.994133 219.153218 364.720461 171.601966"></polygon>
        <linearGradient x1="9.37741071%" y1="24.4753402%" x2="27.148275%" y2="72.8143559%" id="linearGradient-3">
            <stop stop-color="#D4D5D4" offset="0%"></stop>
            <stop stop-color="#9E9F9E" offset="100%"></stop>
        </linearGradient>
        <linearGradient x1="98.0325704%" y1="-10.0272436%" x2="39.8643993%" y2="111.989548%" id="linearGradient-4">
            <stop stop-color="#77975B" offset="0%"></stop>
            <stop stop-color="#84AF5F" offset="100%"></stop>
        </linearGradient>
    </defs>
    <g id="Energy" stroke="none" stroke-width="1" fill="none" fill-rule="evenodd">
        <g id="Mobile-Copy-6">
            <g id="Group-2" transform="translate(-41.000000, -105.000000)">
                <g id="Path-5" transform="translate(299.521487, 146.797122) rotate(-49.000000) translate(-299.521487, -146.797122) ">
                    <use fill="#286AA6" xlink:href="#path-2"></use>
                    <use fill="url(#linearGradient-1)" xlink:href="#path-2"></use>
                </g>
                <polygon id="Path-6-Copy-2" fill="url(#linearGradient-3)" transform="translate(257.814343, 106.992573) rotate(-49.000000) translate(-257.814343, -106.992573) " points="188.614647 24.350243 189.448196 80.8141044 320.026273 189.634904 327.014039 183.560531"></polygon>
                <polygon id="Path-9" fill="url(#linearGradient-4)" transform="translate(102.656112, 150.963216) rotate(-49.000000) translate(-102.656112, -150.963216) " points="34.773128 128.277844 96.8949424 74.276175 169.440584 157.73039 170.539095 227.650257"></polygon>
                <path d="M53.621688,151.985651 L197.554644,148.339662 L197.554644,148.339662 C214.073392,147.921223 230.438403,151.602717 245.186545,159.054996 L366.465917,220.337815 L347.402798,310.022735 L34.181307,243.445452 L53.621688,151.985651 Z" id="Path-15" fill="#FFFFFF" transform="translate(200.323612, 229.165162) rotate(-12.000000) translate(-200.323612, -229.165162) "></path>
            </g>
        </g>
    </g>
</svg>