<?xml version="1.0" encoding="UTF-8" standalone="no"?>
<svg width="1441px" height="612px" viewBox="0 0 1441 612" version="1.1" xmlns="http://www.w3.org/2000/svg" xmlns:xlink="http://www.w3.org/1999/xlink">
    <!-- Generator: Sketch 45.2 (43514) - http://www.bohemiancoding.com/sketch -->
    <title>Group 20 Copy</title>
    <desc>Created with Sketch.</desc>
    <defs>
        <linearGradient x1="50%" y1="0%" x2="50%" y2="100%" id="linearGradient-1">
            <stop stop-color="#51A3D2" offset="0%"></stop>
            <stop stop-color="#286AA6" offset="100%"></stop>
        </linearGradient>
        <polygon id="path-2" points="0.106516854 51.50695 0.106516854 0.516525 157.217989 0.516525 314.329461 0.516525 314.329461 51.50695 0.106516854 51.50695"></polygon>
    </defs>
    <g id="offshore" stroke="none" stroke-width="1" fill="none" fill-rule="evenodd">
        <g id="Group-20-Copy">
            <path d="M0,0 L0,532.273904 L149.308926,602.413342 L149.308926,602.413342 C173.036348,613.559548 200.191856,614.942731 224.929017,606.265098 L715.89449,434.037646 L715.89449,434.037646 C732.480124,428.219515 750.306274,426.875646 767.576723,430.141451 L1440.96576,557.477863 L1440.96576,0 L0,0 Z" id="Path-2" fill="url(#linearGradient-1)"></path>
            <g id="GW_Offshore__001" transform="translate(564.000000, 342.000000)">
                <g id="GW_Offshore_4c-Copy">
                    <path d="M82.937573,52.79915 C80.1379551,52.79915 77.2282697,52.282625 74.0434157,51.224725 L73.842809,51.1555 L75.1263371,46.2636 L75.3446966,46.3275 C77.7413258,46.982475 80.2213933,47.660525 82.7156629,47.660525 C85.4531461,47.660525 91.8210787,46.8529 91.8210787,39.392575 L91.8210787,26.88415 C91.8210787,20.648575 87.6615955,17.386125 83.5535955,17.386125 C77.2833034,17.386125 75.0588764,22.590425 75.0588764,27.051 C75.0588764,32.015675 78.6680225,35.48225 83.8305393,35.48225 C86.0176854,35.48225 88.075236,34.45275 89.9765618,33.336275 L90.3103146,33.1428 L90.3103146,38.7447 L90.1949213,38.806825 C88.2367865,39.875375 85.5969438,40.624425 83.7772809,40.624425 C75.751236,40.624425 69.6993034,34.667525 69.6993034,26.7741 C69.6993034,18.35705 75.6198652,12.2475 83.7772809,12.2475 C92.1690337,12.2475 97.182427,19.122075 97.182427,25.76945 L97.182427,37.71875 C97.182427,47.01975 91.7252135,52.79915 82.937573,52.79915" id="Fill-1" fill="#FFFFFF"></path>
                    <path d="M106.795573,40.06175 L101.434225,40.06175 L101.434225,12.806625 L106.573663,12.806625 L106.573663,15.5419 C108.19627,13.268125 110.426022,12.2475 113.724494,12.2475 L115.061281,12.2475 L115.061281,17.386125 L114.115056,17.386125 C109.188652,17.386125 106.795573,20.637925 106.795573,27.3279 L106.795573,40.06175" id="Fill-2" fill="#FFFFFF"></path>
                    <path d="M129.90973,40.67235 C127.383506,40.67235 124.807573,39.9588 122.465978,38.6098 C119.220764,36.740725 116.875618,33.772925 115.860157,30.258425 C114.80564,26.6108 115.318697,22.707575 117.29991,19.26585 C119.884719,14.77155 124.431213,12.089525 129.451708,12.089525 C131.951303,12.089525 134.431371,12.756925 136.627393,14.01895 C141.798787,16.9974 144.19009,21.7189 143.732067,28.057425 L143.717865,28.2651 L122.572494,27.94205 L122.803281,23.1034 L123.019865,23.1105 L137.87364,23.318175 C137.273596,21.213025 136.467618,19.8587 134.062112,18.47065 C132.675618,17.673675 131.219888,17.27075 129.735753,17.27075 C126.65564,17.27075 123.891528,19.012025 122.139326,22.0526 C120.854022,24.282 120.436831,26.722625 120.974742,28.920075 C121.500225,31.098 122.943528,32.95465 125.027708,34.1581 C126.636112,35.08465 128.114921,35.5355 129.554674,35.5355 C131.970831,35.5355 134.252067,34.230875 136.726809,31.429925 L136.863506,31.273725 L141.200517,34.539725 L141.078022,34.713675 C138.482562,38.501525 134.411843,40.67235 129.90973,40.67235" id="Fill-3" fill="#FFFFFF"></path>
                    <path d="M160.899034,40.67235 C158.371034,40.67235 155.793326,39.9588 153.453506,38.6098 C150.208292,36.740725 147.863146,33.772925 146.844135,30.258425 C145.793169,26.6108 146.306225,22.707575 148.287438,19.26585 C150.875798,14.77155 155.418742,12.089525 160.444562,12.089525 C162.942382,12.089525 165.420674,12.756925 167.618472,14.01895 C172.786315,16.9974 175.177618,21.7189 174.721371,28.057425 L174.703618,28.2651 L153.560022,27.94205 L153.790809,23.1034 L154.009169,23.1105 L168.864719,23.318175 C168.262899,21.213025 167.453371,19.8587 165.051416,18.47065 C163.663146,17.673675 162.210966,17.27075 160.725056,17.27075 C157.643169,17.27075 154.875506,19.012025 153.126854,22.0526 C151.839775,24.282 151.422584,26.722625 151.96227,28.920075 C152.489528,31.098 153.934607,32.95465 156.020562,34.1581 C157.625416,35.08465 159.106,35.5355 160.542202,35.5355 C162.960135,35.5355 165.241371,34.230875 167.714337,31.429925 L167.851034,31.273725 L172.193371,34.539725 L172.070876,34.713675 C169.475416,38.501525 165.402921,40.67235 160.899034,40.67235" id="Fill-4" fill="#FFFFFF"></path>
                    <path d="M201.505034,40.06175 L196.143685,40.06175 L196.143685,24.202125 C196.143685,20.377 193.372472,17.386125 189.832562,17.386125 C186.292652,17.386125 183.519663,20.377 183.519663,24.202125 L183.519663,40.06175 L178.158315,40.06175 L178.158315,24.202125 C178.158315,17.16425 182.956899,12.2475 189.832562,12.2475 C196.704674,12.2475 201.505034,17.16425 201.505034,24.202125 L201.505034,40.06175" id="Fill-5" fill="#FFFFFF"></path>
                    <path d="M232.79791,40.624425 C229.598854,40.624425 226.69982,39.268325 224.976022,36.98035 C223.250449,39.268325 220.351416,40.624425 217.15591,40.624425 C211.643663,40.624425 207.322629,36.5011 207.322629,31.24 L207.322629,12.806625 L212.682202,12.806625 L212.682202,30.123525 C212.682202,33.378875 214.482337,35.48225 217.264202,35.48225 C220.60173,35.48225 222.293573,33.41615 222.293573,29.338975 L222.293573,12.806625 L227.660247,12.806625 L227.660247,29.338975 C227.660247,33.474725 229.305933,35.48225 232.689618,35.48225 C235.467933,35.48225 237.268067,33.378875 237.268067,30.123525 L237.268067,12.806625 L242.629416,12.806625 L242.629416,31.24 C242.629416,36.5011 238.310157,40.624425 232.79791,40.624425" id="Fill-6" fill="#E5E5E5"></path>
                    <path d="M248.450562,40.06175 L253.813685,40.06175 L253.813685,12.806625 L248.450562,12.806625 L248.450562,40.06175 Z M251.133011,10.2382 C249.04173,10.2382 247.946382,8.635375 247.946382,7.052075 C247.946382,5.4741 249.04173,3.87305 251.133011,3.87305 C253.222517,3.87305 254.314315,5.4741 254.314315,7.052075 C254.314315,8.635375 253.222517,10.2382 251.133011,10.2382 L251.133011,10.2382 Z" id="Fill-7" fill="#E5E5E5"></path>
                    <path d="M282.985101,40.06175 L277.620202,40.06175 L277.620202,24.202125 C277.620202,20.377 274.848989,17.386125 271.309079,17.386125 C267.769169,17.386125 264.99618,20.377 264.99618,24.202125 L264.99618,40.06175 L259.633056,40.06175 L259.633056,24.202125 C259.633056,17.16425 264.435191,12.2475 271.309079,12.2475 C278.184742,12.2475 282.985101,17.16425 282.985101,24.202125 L282.985101,40.06175" id="Fill-8" fill="#E5E5E5"></path>
                    <g id="Group-12">
                        <mask id="mask-3" fill="white">
                            <use xlink:href="#path-2"></use>
                        </mask>
                        <g id="Clip-10"></g>
                        <path d="M300.587011,40.624425 C292.298225,40.624425 286.505483,34.514875 286.505483,25.76945 C286.505483,18.31445 292.39409,12.2475 299.637236,12.2475 C302.513191,12.2475 305.106876,12.89715 307.34373,14.17515 L307.457348,14.240825 L307.457348,19.931475 L307.107618,19.69185 C305.431753,18.543425 302.735101,17.386125 300.475169,17.386125 C295.326854,17.386125 291.870382,20.99825 291.870382,26.378275 C291.870382,31.742325 295.454674,35.48225 300.587011,35.48225 C305.676742,35.48225 308.968112,31.273725 308.968112,24.759475 L308.968112,0.516525 L314.329461,0.516525 L314.329461,25.654075 C314.329461,34.46695 308.676966,40.624425 300.587011,40.624425" id="Fill-9" fill="#E5E5E5" mask="url(#mask-3)"></path>
                        <path d="M48.9125393,40.79305 C48.9125393,46.7109 44.1157303,51.50695 38.1987191,51.50695 L10.7155955,51.50695 C4.79858427,51.50695 0,46.7109 0,40.79305 L0,13.31605 C0,7.3982 4.79858427,2.603925 10.7155955,2.603925 L38.1987191,2.603925 C44.1157303,2.603925 48.9125393,7.3982 48.9125393,13.31605 L48.9125393,40.79305" id="Fill-11" fill="#286AA6" mask="url(#mask-3)"></path>
                    </g>
                    <polyline id="Fill-13" fill="#FFFFFE" points="21.6637528 29.88035 21.6637528 41.181775 30.1851011 35.53195 21.6637528 29.88035"></polyline>
                    <polyline id="Fill-14" fill="#FFFFFE" points="30.1851011 24.2323 30.1851011 35.5355 38.7064494 29.88035 30.1851011 24.2323"></polyline>
                    <polyline id="Fill-15" fill="#FFFFFE" points="30.1851011 35.537275 30.1851011 46.844025 38.7064494 41.192425 30.1851011 35.537275"></polyline>
                    <polyline id="Fill-16" fill="#7896C0" points="13.1424045 24.22165 13.1424045 12.920225 21.6637528 18.568275 13.1424045 24.22165"></polyline>
                    <polyline id="Fill-17" fill="#7896C0" points="21.6637528 18.571825 21.6637528 7.26685 30.1851011 12.920225 21.6637528 18.571825"></polyline>
                    <polyline id="Fill-19" fill="#A0B2D1" points="4.62105618 41.181775 4.62105618 29.88035 13.1424045 35.53195 4.62105618 41.181775"></polyline>
                    <polyline id="Fill-20" fill="#A0B2D1" points="13.1424045 35.5355 13.1424045 24.2323 21.6637528 29.88035 13.1424045 35.5355"></polyline>
                    <polyline id="Fill-21" fill="#A0B2D1" points="13.1424045 46.844025 13.1424045 35.537275 21.6637528 41.192425 13.1424045 46.844025"></polyline>
                    <path d="M248.512697,69.4238 C249.547685,69.4238 250.367865,69.067025 250.969685,68.3517 C251.544876,67.671875 251.832472,66.816325 251.832472,65.77795 C251.832472,64.74135 251.544876,63.884025 250.969685,63.2042 C250.367865,62.4871 249.547685,62.12855 248.512697,62.12855 C247.475933,62.12855 246.655753,62.4871 246.053933,63.2042 C245.476966,63.884025 245.189371,64.74135 245.189371,65.77795 C245.189371,66.816325 245.476966,67.671875 246.053933,68.3517 C246.655753,69.067025 247.475933,69.4238 248.512697,69.4238 Z M248.512697,60.823925 C249.945348,60.823925 251.109933,61.303175 252.006449,62.265225 C252.851483,63.184675 253.274,64.35795 253.274,65.77795 C253.274,67.199725 252.851483,68.36945 252.006449,69.290675 C251.109933,70.25095 249.945348,70.731975 248.512697,70.731975 C247.076494,70.731975 245.913685,70.25095 245.015393,69.290675 C244.17391,68.36945 243.749618,67.199725 243.749618,65.77795 C243.749618,64.35795 244.17391,63.184675 245.015393,62.265225 C245.913685,61.303175 247.076494,60.823925 248.512697,60.823925 L248.512697,60.823925 Z" id="Fill-22" fill="#FFFFFF"></path>
                    <path d="M259.167933,58.3478 C258.488,58.3478 257.98027,58.498675 257.641191,58.79865 C257.303888,59.098625 257.133461,59.5832 257.133461,60.24705 L257.133461,60.97835 L259.359663,60.97835 L259.359663,62.243925 L257.133461,62.243925 L257.133461,70.575775 L255.693708,70.575775 L255.693708,62.243925 L254.040921,62.243925 L254.040921,60.97835 L255.693708,60.97835 L255.693708,60.131675 C255.693708,59.08265 256.007933,58.296325 256.634607,57.770925 C257.261281,57.245525 258.131169,56.9846 259.24427,56.9846 L259.359663,56.9846 L259.359663,58.3478 L259.167933,58.3478" id="Fill-23" fill="#FFFFFF"></path>
                    <path d="M265.85009,58.3478 C265.170157,58.3478 264.662427,58.498675 264.323348,58.79865 C263.986045,59.098625 263.815618,59.5832 263.815618,60.24705 L263.815618,60.97835 L266.04182,60.97835 L266.04182,62.243925 L263.815618,62.243925 L263.815618,70.575775 L262.37409,70.575775 L262.37409,62.243925 L260.723079,62.243925 L260.723079,60.97835 L262.37409,60.97835 L262.37409,60.131675 C262.37409,59.08265 262.688315,58.296325 263.316764,57.770925 C263.941663,57.245525 264.813326,56.9846 265.924652,56.9846 L266.04182,56.9846 L266.04182,58.3478 L265.85009,58.3478" id="Fill-24" fill="#FFFFFF"></path>
                    <path d="M273.664876,63.550325 C273.537056,62.551 272.732854,62.052225 271.25582,62.052225 C269.775236,62.052225 269.036719,62.513725 269.036719,63.43495 C269.036719,63.820125 269.194719,64.10945 269.508944,64.30825 C269.821393,64.50705 270.21373,64.67035 270.68773,64.79815 C271.163506,64.92595 271.680112,65.044875 272.234,65.15315 C272.793213,65.2632 273.308045,65.41585 273.78027,65.61465 C274.256045,65.811675 274.650157,66.085025 274.960831,66.43115 C275.275056,66.777275 275.431281,67.249425 275.431281,67.849375 C275.431281,68.7848 275.079775,69.500125 274.376764,69.9918 C273.671978,70.483475 272.718652,70.731975 271.515011,70.731975 C270.233258,70.731975 269.216022,70.4107 268.463303,69.769925 C267.770944,69.20725 267.39991,68.470625 267.346652,67.5636 L268.846764,67.5636 C268.937303,68.445775 269.434382,69.042175 270.343326,69.347475 C270.675303,69.450425 271.007281,69.5019 271.330382,69.5019 C271.660584,69.5019 271.960607,69.482375 272.244652,69.443325 C272.526921,69.40605 272.800315,69.33505 273.070157,69.233875 C273.684404,68.988925 273.993303,68.573575 273.993303,67.984275 C273.993303,67.586675 273.835303,67.284925 273.521079,67.0737 C273.208629,66.8607 272.814517,66.688525 272.340517,66.553625 C271.866517,66.422275 271.351685,66.301575 270.796022,66.18975 C270.236809,66.08325 269.721978,65.932375 269.251528,65.7389 C268.773978,65.5472 268.379865,65.2845 268.069191,64.952575 C267.754966,64.618875 267.595191,64.157375 267.595191,63.56985 C267.595191,62.698325 267.914742,62.023825 268.548517,61.5428 C269.180517,61.06355 270.11964,60.823925 271.360562,60.823925 C272.539348,60.823925 273.46782,61.104375 274.144202,61.668825 C274.708742,62.14275 275.033618,62.769325 275.124157,63.550325 L273.664876,63.550325" id="Fill-25" fill="#FFFFFF"></path>
                    <path d="M278.80964,57.13725 L278.80964,62.474675 C279.15582,62.01495 279.580112,61.62445 280.077191,61.303175 C280.576045,60.983675 281.147685,60.823925 281.786787,60.823925 C282.427663,60.823925 282.976225,60.91445 283.437798,61.09195 C283.899371,61.271225 284.30236,61.53925 284.646764,61.899575 C285.44209,62.680575 285.836202,63.710075 285.836202,64.98985 L285.836202,70.575775 L284.4,70.575775 L284.4,65.027125 C284.4,64.14495 284.149685,63.44205 283.650831,62.91665 C283.150202,62.39125 282.502225,62.12855 281.712225,62.12855 C280.904472,62.12855 280.217438,62.39835 279.656449,62.936175 C279.09191,63.486425 278.80964,64.1911 278.80964,65.048425 L278.80964,70.575775 L277.371663,70.575775 L277.371663,57.13725 L278.80964,57.13725" id="Fill-26" fill="#FFFFFF"></path>
                    <path d="M292.42427,69.4238 C293.461034,69.4238 294.281213,69.067025 294.881258,68.3517 C295.46,67.671875 295.74582,66.816325 295.74582,65.77795 C295.74582,64.74135 295.46,63.884025 294.881258,63.2042 C294.281213,62.4871 293.461034,62.12855 292.42427,62.12855 C291.387506,62.12855 290.567326,62.4871 289.965506,63.2042 C289.390315,63.884025 289.102719,64.74135 289.102719,65.77795 C289.102719,66.816325 289.390315,67.671875 289.965506,68.3517 C290.567326,69.067025 291.387506,69.4238 292.42427,69.4238 Z M292.42427,60.823925 C293.858697,60.823925 295.023281,61.303175 295.919798,62.265225 C296.764831,63.184675 297.187348,64.35795 297.187348,65.77795 C297.187348,67.199725 296.764831,68.36945 295.919798,69.290675 C295.023281,70.25095 293.858697,70.731975 292.42427,70.731975 C290.991618,70.731975 289.825258,70.25095 288.926966,69.290675 C288.085483,68.36945 287.662966,67.199725 287.662966,65.77795 C287.662966,64.35795 288.085483,63.184675 288.926966,62.265225 C289.825258,61.303175 290.991618,60.823925 292.42427,60.823925 L292.42427,60.823925 Z" id="Fill-27" fill="#FFFFFF"></path>
                    <path d="M304.196157,60.823925 L304.196157,62.265225 L304.02218,62.265225 C302.985416,62.265225 302.143933,62.680575 301.488854,63.511275 C300.874607,64.306475 300.565708,65.254325 300.565708,66.35305 L300.565708,70.575775 L299.12773,70.575775 L299.12773,60.97835 L300.565708,60.97835 L300.565708,63.3391 C300.874607,62.34155 301.536787,61.604925 302.562899,61.129225 C302.985416,60.926875 303.498472,60.823925 304.100292,60.823925 L304.196157,60.823925" id="Fill-28" fill="#FFFFFF"></path>
                    <path d="M309.726157,62.12855 C308.840292,62.12855 308.098225,62.40545 307.496404,62.9557 C306.935416,63.479325 306.591011,64.1627 306.461416,65.009375 L312.989124,65.009375 C312.861303,64.1627 312.516899,63.479325 311.95236,62.9557 C311.350539,62.40545 310.608472,62.12855 309.726157,62.12855 Z M309.841551,69.4238 C311.133955,69.4238 312.062427,68.88775 312.625191,67.8121 L314.199865,67.8121 C313.864337,68.683625 313.337079,69.38475 312.614539,69.926125 C311.892,70.4604 310.961753,70.731975 309.822022,70.731975 C308.375169,70.731975 307.198157,70.25095 306.287438,69.290675 C305.405124,68.357025 304.964854,67.185525 304.964854,65.77795 C304.964854,64.35795 305.385596,63.184675 306.232404,62.265225 C307.125371,61.303175 308.29173,60.823925 309.726157,60.823925 C311.160584,60.823925 312.323393,61.303175 313.21991,62.265225 C314.066719,63.184675 314.487461,64.35795 314.487461,65.77795 L314.487461,66.35305 L306.443663,66.35305 C306.543079,67.235225 306.898135,67.966525 307.496404,68.541625 C308.112427,69.12915 308.893551,69.4238 309.841551,69.4238 L309.841551,69.4238 Z" id="Fill-29" fill="#FFFFFF"></path>
                </g>
            </g>
        </g>
    </g>
</svg>