<?xml version="1.0" encoding="UTF-8" standalone="no"?>
<svg width="125px" height="29px" viewBox="0 0 125 29" version="1.1" xmlns="http://www.w3.org/2000/svg" xmlns:xlink="http://www.w3.org/1999/xlink">
    <!-- Generator: Sketch 45.2 (43514) - http://www.bohemiancoding.com/sketch -->
    <title>GW_Offshore_4c Copy</title>
    <desc>Created with Sketch.</desc>
    <defs>
        <polygon id="path-1" points="0.0420212915 20.3228973 0.0420212915 0.203803264 62.0230761 0.203803264 124.004131 0.203803264 124.004131 20.3228973"></polygon>
    </defs>
    <g id="Symbols" stroke="none" stroke-width="1" fill="none" fill-rule="evenodd">
        <g id="Header-Copy-2" transform="translate(-658.000000, -20.000000)">
            <g id="GW_Offshore_4c-Copy" transform="translate(658.635515, 20.222039)">
                <path d="M32.7191783,20.8327556 C31.6147187,20.8327556 30.466837,20.6289524 29.2104004,20.2115409 L29.1312603,20.184227 L29.6376169,18.254049 L29.7237605,18.2792618 C30.6692396,18.5376927 31.6476353,18.8052283 32.6316339,18.8052283 C33.7115811,18.8052283 36.223754,18.4865668 36.223754,15.5429754 L36.223754,10.6075747 C36.223754,8.14722807 34.5828225,6.85997584 32.9622014,6.85997584 C30.488548,6.85997584 29.6110034,8.91341628 29.6110034,10.673408 C29.6110034,12.6323006 31.0348248,14.0000936 33.0714568,14.0000936 C33.9342939,14.0000936 34.7460052,13.5938878 35.4960853,13.1533646 L35.627752,13.0770259 L35.627752,15.2873458 L35.5822289,15.3118583 C34.8097375,15.7334719 33.7683098,16.0290216 33.0504461,16.0290216 C29.8841418,16.0290216 27.4966321,13.6786307 27.4966321,10.5641527 C27.4966321,7.24306994 29.8323155,4.83244852 33.0504461,4.83244852 C36.3610235,4.83244852 38.3388257,7.54492289 38.3388257,10.1677518 L38.3388257,14.8825407 C38.3388257,18.5524002 36.1859348,20.8327556 32.7191783,20.8327556" id="Fill-1" fill="#777776"></path>
                <path d="M42.1312472,15.8070092 L40.0161755,15.8070092 L40.0161755,5.0530603 L42.0437029,5.0530603 L42.0437029,6.13230714 C42.6838272,5.23515257 43.5634729,4.83244852 44.8647322,4.83244852 L45.3920994,4.83244852 L45.3920994,6.85997584 L45.0188103,6.85997584 C43.0753256,6.85997584 42.1312472,8.14302594 42.1312472,10.7826634 L42.1312472,15.8070092" id="Fill-2" fill="#777776"></path>
                <path d="M51.2498675,16.0479312 C50.2532625,16.0479312 49.2370476,15.7663886 48.3132795,15.2341189 C47.0330309,14.4966452 46.1078621,13.3256519 45.7072591,11.9389493 C45.2912483,10.49972 45.4936509,8.9596397 46.2752469,7.60165163 C47.2949636,5.82835313 49.0885724,4.77011694 51.0691759,4.77011694 C52.0552755,4.77011694 53.0336713,5.03345037 53.9000102,5.53140267 C55.9401439,6.70659812 56.8835219,8.56954205 56.7028304,11.0705092 L56.6972276,11.1524508 L48.3553008,11.0249862 L48.446347,9.11581884 L48.5317903,9.11862025 L54.3916594,9.20056177 C54.1549394,8.36994091 53.8369783,7.83557015 52.8879975,7.28789266 C52.3410203,6.97343332 51.7667293,6.81445277 51.1812327,6.81445277 C49.966117,6.81445277 48.8756645,7.50150089 48.1844142,8.70120876 C47.6773573,9.58085446 47.5127739,10.5438424 47.7249815,11.4108817 C47.9322865,12.2702171 48.501675,13.0027883 49.3238916,13.4776289 C49.9584131,13.8432141 50.5418087,14.0211043 51.1097965,14.0211043 C52.0629795,14.0211043 52.9629354,13.5063434 53.9392301,12.4011835 L53.9931574,12.3395522 L55.7041244,13.6282052 L55.6557999,13.69684 C54.6318811,15.1913972 53.0259674,16.0479312 51.2498675,16.0479312" id="Fill-3" fill="#777776"></path>
                <path d="M63.4752619,16.0479312 C62.4779566,16.0479312 61.4610413,15.7663886 60.5379736,15.2341189 C59.2577249,14.4966452 58.3325561,13.3256519 57.9305525,11.9389493 C57.5159424,10.49972 57.7183449,8.9596397 58.499941,7.60165163 C59.5210583,5.82835313 61.3132664,4.77011694 63.295971,4.77011694 C64.2813703,4.77011694 65.2590657,5.03345037 66.126105,5.53140267 C68.164838,6.70659812 69.108216,8.56954205 68.9282248,11.0705092 L68.9212212,11.1524508 L60.5799949,11.0249862 L60.671041,9.11581884 L60.7571847,9.11862025 L66.6177541,9.20056177 C66.3803338,8.36994091 66.060972,7.83557015 65.1133919,7.28789266 C64.5657144,6.97343332 63.9928241,6.81445277 63.4066271,6.81445277 C62.1908111,6.81445277 61.0989578,7.50150089 60.4091083,8.70120876 C59.901351,9.58085446 59.7367676,10.5438424 59.9496755,11.4108817 C60.1576809,12.2702171 60.7277698,13.0027883 61.5506867,13.4776289 C62.1838075,13.8432141 62.7679035,14.0211043 63.3344905,14.0211043 C64.2883739,14.0211043 65.1883299,13.5063434 66.1639242,12.4011835 L66.2178515,12.3395522 L67.9309195,13.6282052 L67.882595,13.69684 C66.8586762,15.1913972 65.2520621,16.0479312 63.4752619,16.0479312" id="Fill-4" fill="#777776"></path>
                <path d="M79.4944785,15.8070092 L77.3794069,15.8070092 L77.3794069,9.54933849 C77.3794069,8.04007377 76.2861529,6.85997584 74.8896453,6.85997584 C73.4931378,6.85997584 72.3991835,8.04007377 72.3991835,9.54933849 L72.3991835,15.8070092 L70.2841118,15.8070092 L70.2841118,9.54933849 C70.2841118,6.77243148 72.177171,4.83244852 74.8896453,4.83244852 C77.600719,4.83244852 79.4944785,6.77243148 79.4944785,9.54933849 L79.4944785,15.8070092" id="Fill-5" fill="#777776"></path>
                <path d="M91.8396336,16.0290216 C90.5775942,16.0290216 89.4339147,15.4939505 88.7538701,14.5911931 C88.0731252,15.4939505 86.9294457,16.0290216 85.668807,16.0290216 C83.4942051,16.0290216 81.7895414,14.4020973 81.7895414,12.3262455 L81.7895414,5.0530603 L83.9039127,5.0530603 L83.9039127,11.8857223 C83.9039127,13.1701731 84.6140726,14.0000936 85.7115286,14.0000936 C87.0281958,14.0000936 87.6956339,13.1848806 87.6956339,11.5761655 L87.6956339,5.0530603 L89.8128067,5.0530603 L89.8128067,11.5761655 C89.8128067,13.2079923 90.4620356,14.0000936 91.796912,14.0000936 C92.8929673,14.0000936 93.6031272,13.1701731 93.6031272,11.8857223 L93.6031272,5.0530603 L95.7181988,5.0530603 L95.7181988,12.3262455 C95.7181988,14.4020973 94.0142355,16.0290216 91.8396336,16.0290216" id="Fill-6" fill="#4D4E4C"></path>
                <path d="M98.0146624,15.8070092 L100.130434,15.8070092 L100.130434,5.0530603 L98.0146624,5.0530603 L98.0146624,15.8070092 Z M99.0728986,4.03964682 C98.2478806,4.03964682 97.8157616,3.40722639 97.8157616,2.78250985 C97.8157616,2.15989438 98.2478806,1.5281743 99.0728986,1.5281743 C99.8972163,1.5281743 100.327935,2.15989438 100.327935,2.78250985 C100.327935,3.40722639 99.8972163,4.03964682 99.0728986,4.03964682 L99.0728986,4.03964682 Z" id="Fill-7" fill="#4D4E4C"></path>
                <path d="M111.638665,15.8070092 L109.522193,15.8070092 L109.522193,9.54933849 C109.522193,8.04007377 108.428939,6.85997584 107.032432,6.85997584 C105.635924,6.85997584 104.54197,8.04007377 104.54197,9.54933849 L104.54197,15.8070092 L102.426198,15.8070092 L102.426198,9.54933849 C102.426198,6.77243148 104.320658,4.83244852 107.032432,4.83244852 C109.744906,4.83244852 111.638665,6.77243148 111.638665,9.54933849 L111.638665,15.8070092" id="Fill-8" fill="#4D4E4C"></path>
                <g id="Group-12">
                    <mask id="mask-2" fill="white">
                        <use xlink:href="#path-1"></use>
                    </mask>
                    <g id="Clip-10"></g>
                    <path d="M118.582684,16.0290216 C115.312727,16.0290216 113.027469,13.6184002 113.027469,10.1677518 C113.027469,7.22626143 115.350546,4.83244852 118.207994,4.83244852 C119.342569,4.83244852 120.365787,5.0887784 121.248234,5.5930339 L121.293057,5.61894703 L121.293057,7.8642847 L121.155087,7.7697368 C120.493952,7.3166072 119.430113,6.85997584 118.538562,6.85997584 C116.507532,6.85997584 115.143942,8.28519797 115.143942,10.4079735 C115.143942,12.5244459 116.557958,14.0000936 118.582684,14.0000936 C120.590601,14.0000936 121.889059,12.3395522 121.889059,9.76924992 L121.889059,0.203803264 L124.004131,0.203803264 L124.004131,10.1222288 C124.004131,13.5994906 121.774201,16.0290216 118.582684,16.0290216" id="Fill-9" fill="#4D4E4C" mask="url(#mask-2)"></path>
                    <path d="M19.2961771,16.0955554 C19.2961771,18.4305384 17.4038182,20.3228973 15.0695355,20.3228973 L4.22734192,20.3228973 C1.89305918,20.3228973 0,18.4305384 0,16.0955554 L0,5.25406215 C0,2.91907905 1.89305918,1.02742058 4.22734192,1.02742058 L15.0695355,1.02742058 C17.4038182,1.02742058 19.2961771,2.91907905 19.2961771,5.25406215 L19.2961771,16.0955554" id="Fill-11" fill="#286AA6" mask="url(#mask-2)"></path>
                </g>
                <polyline id="Fill-13" fill="#FFFFFE" points="8.54643034 11.7897737 8.54643034 16.2489331 11.9081337 14.0197036 8.54643034 11.7897737"></polyline>
                <polyline id="Fill-14" fill="#FFFFFE" points="11.9081337 9.56124452 11.9081337 14.0211043 15.269837 11.7897737 11.9081337 9.56124452"></polyline>
                <polyline id="Fill-15" fill="#FFFFFE" points="11.9081337 14.0218046 11.9081337 18.4830651 15.269837 16.2531352 11.9081337 14.0218046"></polyline>
                <polyline id="Fill-16" fill="#7896C0" points="5.18472702 9.5570424 5.18472702 5.09788301 8.54643034 7.32641217 5.18472702 9.5570424"></polyline>
                <polyline id="Fill-17" fill="#7896C0" points="8.54643034 7.32781288 8.54643034 2.86725279 11.9081337 5.09788301 8.54643034 7.32781288"></polyline>
                <polyline id="Fill-18" fill="#7896C0" points="8.54643034 11.7897737 8.54643034 7.3306143 11.9081337 9.55984382 8.54643034 11.7897737"></polyline>
                <polyline id="Fill-19" fill="#A0B2D1" points="1.8230237 16.2489331 1.8230237 11.7897737 5.18472702 14.0197036 1.8230237 16.2489331"></polyline>
                <polyline id="Fill-20" fill="#A0B2D1" points="5.18472702 14.0211043 5.18472702 9.56124452 8.54643034 11.7897737 5.18472702 14.0211043"></polyline>
                <polyline id="Fill-21" fill="#A0B2D1" points="5.18472702 18.4830651 5.18472702 14.0218046 8.54643034 16.2531352 5.18472702 18.4830651"></polyline>
                <path d="M98.0391748,27.3922792 C98.4474817,27.3922792 98.7710457,27.2515079 99.008466,26.9692649 C99.2353809,26.701029 99.3488384,26.3634579 99.3488384,25.9537503 C99.3488384,25.5447431 99.2353809,25.2064717 99.008466,24.9382358 C98.7710457,24.6552924 98.4474817,24.5138207 98.0391748,24.5138207 C97.6301676,24.5138207 97.3066037,24.6552924 97.0691834,24.9382358 C96.841568,25.2064717 96.7281105,25.5447431 96.7281105,25.9537503 C96.7281105,26.3634579 96.841568,26.701029 97.0691834,26.9692649 C97.3066037,27.2515079 97.6301676,27.3922792 98.0391748,27.3922792 Z M98.0391748,23.9990599 C98.6043612,23.9990599 99.063794,24.1881557 99.4174732,24.5677481 C99.7508421,24.9305319 99.9175266,25.3934665 99.9175266,25.9537503 C99.9175266,26.5147346 99.7508421,26.9762684 99.4174732,27.3397526 C99.063794,27.7186446 98.6043612,27.9084407 98.0391748,27.9084407 C97.4725878,27.9084407 97.0138553,27.7186446 96.6594758,27.3397526 C96.3275076,26.9762684 96.1601227,26.5147346 96.1601227,25.9537503 C96.1601227,25.3934665 96.3275076,24.9305319 96.6594758,24.5677481 C97.0138553,24.1881557 97.4725878,23.9990599 98.0391748,23.9990599 L98.0391748,23.9990599 Z" id="Fill-22" fill="#777776"></path>
                <path d="M102.242705,23.0220649 C101.974469,23.0220649 101.774167,23.0815951 101.6404,23.199955 C101.507332,23.318315 101.440098,23.5095119 101.440098,23.7714446 L101.440098,24.0599908 L102.318343,24.0599908 L102.318343,24.5593438 L101.440098,24.5593438 L101.440098,27.8468095 L100.87211,27.8468095 L100.87211,24.5593438 L100.22008,24.5593438 L100.22008,24.0599908 L100.87211,24.0599908 L100.87211,23.7259215 C100.87211,23.3120118 100.996073,23.0017546 101.243298,22.7944496 C101.490524,22.5871445 101.833697,22.4841924 102.27282,22.4841924 L102.318343,22.4841924 L102.318343,23.0220649 L102.242705,23.0220649" id="Fill-23" fill="#777776"></path>
                <path d="M104.87884,23.0220649 C104.610604,23.0220649 104.410303,23.0815951 104.276535,23.199955 C104.143468,23.318315 104.076234,23.5095119 104.076234,23.7714446 L104.076234,24.0599908 L104.954479,24.0599908 L104.954479,24.5593438 L104.076234,24.5593438 L104.076234,27.8468095 L103.507546,27.8468095 L103.507546,24.5593438 L102.856216,24.5593438 L102.856216,24.0599908 L103.507546,24.0599908 L103.507546,23.7259215 C103.507546,23.3120118 103.631508,23.0017546 103.879434,22.7944496 C104.125959,22.5871445 104.469833,22.4841924 104.908255,22.4841924 L104.954479,22.4841924 L104.954479,23.0220649 L104.87884,23.0220649" id="Fill-24" fill="#777776"></path>
                <path d="M107.961802,25.074805 C107.911377,24.6805052 107.594116,24.4837055 107.011421,24.4837055 C106.427325,24.4837055 106.135977,24.6657978 106.135977,25.0292819 C106.135977,25.1812589 106.198309,25.2954168 106.322272,25.3738565 C106.445534,25.4522963 106.600313,25.5167289 106.787307,25.5671545 C106.975002,25.61758 107.178806,25.6645038 107.397316,25.7072254 C107.617928,25.7506474 107.821031,25.8108779 108.007326,25.8893177 C108.195021,25.9670571 108.350499,26.0749117 108.473062,26.2114809 C108.597024,26.3480501 108.658656,26.5343445 108.658656,26.7710645 C108.658656,27.1401515 108.519985,27.4223945 108.242645,27.6163928 C107.964604,27.8103911 107.588513,27.9084407 107.113673,27.9084407 C106.608017,27.9084407 106.206713,27.7816765 105.909763,27.5288484 C105.636624,27.3068359 105.49025,27.0161887 105.46924,26.6583073 L106.061039,26.6583073 C106.096757,27.0063837 106.292857,27.2417029 106.651439,27.362164 C106.782405,27.4027845 106.913371,27.4230948 107.040836,27.4230948 C107.171102,27.4230948 107.289462,27.4153909 107.401519,27.3999831 C107.512875,27.3852757 107.62073,27.3572615 107.727184,27.3173412 C107.969506,27.2206923 108.091368,27.0568092 108.091368,26.8242914 C108.091368,26.6674119 108.029037,26.5483516 107.905074,26.4650094 C107.781811,26.3809668 107.626332,26.3130324 107.439338,26.2598054 C107.252343,26.2079792 107.04924,26.160355 106.830029,26.1162327 C106.609417,26.0742114 106.406314,26.0146812 106.22072,25.9383425 C106.032325,25.8627042 105.876846,25.7590517 105.754284,25.6280853 C105.630321,25.4964186 105.567289,25.3143264 105.567289,25.0825089 C105.567289,24.7386347 105.693353,24.4724998 105.94338,24.2827036 C106.192706,24.0936078 106.563194,23.9990599 107.052742,23.9990599 C107.517777,23.9990599 107.884063,24.109716 108.150898,24.3324288 C108.373611,24.5194236 108.501776,24.7666489 108.537494,25.074805 L107.961802,25.074805" id="Fill-25" fill="#777776"></path>
                <path d="M109.991431,22.5444229 L109.991431,24.6503899 C110.128,24.468998 110.295385,24.31492 110.491484,24.1881557 C110.688284,24.0620919 110.913798,23.9990599 111.165926,23.9990599 C111.418754,23.9990599 111.635164,24.034778 111.817256,24.1048135 C111.999348,24.1755494 112.158329,24.2813029 112.294198,24.423475 C112.607957,24.7316311 112.763435,25.1378369 112.763435,25.6427928 L112.763435,27.8468095 L112.196848,27.8468095 L112.196848,25.6575002 C112.196848,25.3094239 112.098098,25.0320833 111.901299,24.8247783 C111.703798,24.6174733 111.448169,24.5138207 111.136511,24.5138207 C110.81785,24.5138207 110.546812,24.6202747 110.3255,24.8324822 C110.102787,25.0495922 109.991431,25.3276331 109.991431,25.6659045 L109.991431,27.8468095 L109.424143,27.8468095 L109.424143,22.5444229 L109.991431,22.5444229" id="Fill-26" fill="#777776"></path>
                <path d="M115.362452,27.3922792 C115.771459,27.3922792 116.095023,27.2515079 116.331743,26.9692649 C116.560059,26.701029 116.672816,26.3634579 116.672816,25.9537503 C116.672816,25.5447431 116.560059,25.2064717 116.331743,24.9382358 C116.095023,24.6552924 115.771459,24.5138207 115.362452,24.5138207 C114.953445,24.5138207 114.629881,24.6552924 114.392461,24.9382358 C114.165546,25.2064717 114.052088,25.5447431 114.052088,25.9537503 C114.052088,26.3634579 114.165546,26.701029 114.392461,26.9692649 C114.629881,27.2515079 114.953445,27.3922792 115.362452,27.3922792 Z M115.362452,23.9990599 C115.928339,23.9990599 116.387772,24.1881557 116.741451,24.5677481 C117.07482,24.9305319 117.241504,25.3934665 117.241504,25.9537503 C117.241504,26.5147346 117.07482,26.9762684 116.741451,27.3397526 C116.387772,27.7186446 115.928339,27.9084407 115.362452,27.9084407 C114.797266,27.9084407 114.337133,27.7186446 113.982753,27.3397526 C113.650785,26.9762684 113.484101,26.5147346 113.484101,25.9537503 C113.484101,25.3934665 113.650785,24.9305319 113.982753,24.5677481 C114.337133,24.1881557 114.797266,23.9990599 115.362452,23.9990599 L115.362452,23.9990599 Z" id="Fill-27" fill="#777776"></path>
                <path d="M120.006505,23.9990599 L120.006505,24.5677481 L119.937871,24.5677481 C119.528863,24.5677481 119.196895,24.7316311 118.938464,25.0593972 C118.696141,25.3731562 118.57428,25.7471457 118.57428,26.1806653 L118.57428,27.8468095 L118.006992,27.8468095 L118.006992,24.0599908 L118.57428,24.0599908 L118.57428,24.9914628 C118.696141,24.5978633 118.957374,24.3072161 119.362179,24.119521 C119.528863,24.0396805 119.731266,23.9990599 119.968686,23.9990599 L120.006505,23.9990599" id="Fill-28" fill="#777776"></path>
                <path d="M122.188111,24.5138207 C121.838634,24.5138207 121.545885,24.6230761 121.308465,24.8401861 C121.087153,25.0467908 120.951284,25.3164274 120.900158,25.6504967 L123.475363,25.6504967 C123.424937,25.3164274 123.289069,25.0467908 123.066356,24.8401861 C122.828935,24.6230761 122.536187,24.5138207 122.188111,24.5138207 Z M122.233634,27.3922792 C122.743492,27.3922792 123.109778,27.180772 123.33179,26.756357 L123.953005,26.756357 C123.820638,27.1002312 123.612632,27.3768714 123.327588,27.5904796 C123.042544,27.8012865 122.675558,27.9084407 122.22593,27.9084407 C121.655141,27.9084407 121.190805,27.7186446 120.831523,27.3397526 C120.483447,26.9713659 120.309759,26.5091317 120.309759,25.9537503 C120.309759,25.3934665 120.475743,24.9305319 120.809812,24.5677481 C121.162091,24.1881557 121.622224,23.9990599 122.188111,23.9990599 C122.753997,23.9990599 123.21273,24.1881557 123.566409,24.5677481 C123.900478,24.9305319 124.066462,25.3934665 124.066462,25.9537503 L124.066462,26.1806653 L120.893155,26.1806653 C120.932374,26.5287417 121.072445,26.8172879 121.308465,27.0442029 C121.551488,27.2760203 121.859644,27.3922792 122.233634,27.3922792 L122.233634,27.3922792 Z" id="Fill-29" fill="#777776"></path>
            </g>
        </g>
    </g>
</svg>