<svg xmlns="http://www.w3.org/2000/svg" viewBox="0 0 294.67 65.8"><defs><style>.a{fill:#fff;}.b{fill:#cfcfcf;}.c,.d,.e{fill:#1d70b7;}.d{opacity:0.4;}.e{opacity:0.6;}</style></defs><title>GWOf_web</title><path class="a" d="M77.88,49.21a26.28,26.28,0,0,1-8.33-1.47l-.19-.07,1.2-4.58.2.06a26.58,26.58,0,0,0,6.91,1.25c2.56,0,8.53-.76,8.53-7.75V24.92c0-5.84-3.9-8.9-7.75-8.9-5.87,0-8,4.88-8,9.06,0,4.65,3.38,7.9,8.22,7.9a11.73,11.73,0,0,0,5.76-2l.31-.18V36l-.11.06a14.18,14.18,0,0,1-6,1.7,12.8,12.8,0,0,1-13.19-13c0-7.89,5.55-13.61,13.19-13.61A12.5,12.5,0,0,1,91.22,23.88v11.2c0,8.72-5.11,14.13-13.35,14.13" transform="translate(-0.17 -0.21)"/><path class="a" d="M100.23,37.27h-5V11.73H100v2.56c1.52-2.13,3.61-3.09,6.7-3.09H108V16h-.89c-4.61,0-6.86,3-6.86,9.32Z" transform="translate(-0.17 -0.21)"/><path class="a" d="M121.89,37.84a14,14,0,0,1-7-1.93,13.08,13.08,0,0,1-4.84-18.13,13.08,13.08,0,0,1,11.39-6.73,13.52,13.52,0,0,1,6.72,1.81c4.84,2.79,7.09,7.22,6.66,13.15v.19L115,25.91l.22-4.54h.2l13.92.19A6.68,6.68,0,0,0,125.78,17a8.06,8.06,0,0,0-4.05-1.12,8.23,8.23,0,0,0-7.12,4.48,8.76,8.76,0,0,0-1.09,6.44,7.82,7.82,0,0,0,3.8,4.91A8.47,8.47,0,0,0,121.56,33c2.27,0,4.4-1.22,6.72-3.85l.13-.15,4.06,3.06-.11.16a12.55,12.55,0,0,1-10.46,5.58" transform="translate(-0.17 -0.21)"/><path class="a" d="M150.93,37.84a14,14,0,0,1-7-1.93,13.08,13.08,0,0,1-4.84-18.13,13.08,13.08,0,0,1,11.39-6.73,13.52,13.52,0,0,1,6.72,1.81c4.84,2.79,7.08,7.22,6.66,13.15l0,.19L144,25.91l.22-4.54h.2l13.92.19A6.69,6.69,0,0,0,154.82,17a8.06,8.06,0,0,0-4.05-1.12,8.23,8.23,0,0,0-7.12,4.48,8.74,8.74,0,0,0-1.09,6.44,7.81,7.81,0,0,0,3.8,4.91A8.44,8.44,0,0,0,150.59,33c2.27,0,4.4-1.22,6.72-3.85l.13-.15,4.07,3.06-.11.16a12.55,12.55,0,0,1-10.47,5.58" transform="translate(-0.17 -0.21)"/><path class="a" d="M189,37.27h-5V22.41a5.93,5.93,0,1,0-11.83,0V37.27h-5V22.41c0-6.6,4.5-11.2,10.94-11.2S189,15.81,189,22.41Z" transform="translate(-0.17 -0.21)"/><path class="b" d="M218.29,37.8A9.09,9.09,0,0,1,211,34.38a9.09,9.09,0,0,1-7.33,3.41A8.92,8.92,0,0,1,194.42,29V11.73h5V28c0,3.05,1.69,5,4.29,5,3.13,0,4.71-1.94,4.71-5.76V11.73h5V27.22c0,3.88,1.54,5.76,4.71,5.76,2.6,0,4.29-2,4.29-5V11.73h5V29a8.92,8.92,0,0,1-9.21,8.79" transform="translate(-0.17 -0.21)"/><path class="b" d="M235.47,9.32a2.89,2.89,0,0,1-3-3,3,3,0,0,1,6,0,2.89,2.89,0,0,1-3,3M238,37.27h-5V11.73h5Z" transform="translate(-0.17 -0.21)"/><path class="b" d="M265.32,37.27h-5V22.41a5.93,5.93,0,1,0-11.83,0V37.27h-5V22.41c0-6.6,4.5-11.2,10.94-11.2s10.94,4.61,10.94,11.2Z" transform="translate(-0.17 -0.21)"/><path class="b" d="M281.81,37.8c-7.77,0-13.19-5.72-13.19-13.92a12.5,12.5,0,0,1,12.3-12.67A14.35,14.35,0,0,1,288.14,13l.11.06v5.33l-.33-.22A12.29,12.29,0,0,0,281.7,16c-4.82,0-8.06,3.39-8.06,8.43S277,33,281.81,33s7.85-3.94,7.85-10V.21h5V23.77c0,8.26-5.3,14-12.88,14" transform="translate(-0.17 -0.21)"/><rect class="a" y="1.96" width="45.83" height="45.83" rx="10.04" ry="10.04"/><polygon class="c" points="20.3 27.52 20.3 38.11 28.28 32.81 20.3 27.52"/><polygon class="c" points="28.28 22.23 28.28 32.82 36.27 27.52 28.28 22.23"/><polygon class="c" points="28.28 32.82 28.28 43.41 36.27 38.12 28.28 32.82"/><polygon class="d" points="12.31 11.62 12.31 22.21 20.3 16.92 12.31 11.62"/><polygon class="d" points="20.3 6.33 20.3 16.92 28.28 11.62 20.3 6.33"/><polygon class="d" points="20.3 16.93 20.3 27.52 28.28 22.22 20.3 16.93"/><polygon class="e" points="4.33 27.52 4.33 38.11 12.31 32.81 4.33 27.52"/><polygon class="e" points="12.31 22.23 12.31 32.82 20.3 27.52 12.31 22.23"/><polygon class="e" points="12.31 32.82 12.31 43.41 20.3 38.12 12.31 32.82"/><path class="a" d="M233,56.73a4.27,4.27,0,0,1,3.27,1.35,5.15,5.15,0,0,1,0,6.58,4.65,4.65,0,0,1-6.55,0,5.16,5.16,0,0,1,0-6.58A4.28,4.28,0,0,1,233,56.73Zm0,8.06a2.85,2.85,0,0,0,2.3-1,4,4,0,0,0,0-4.82,3.13,3.13,0,0,0-4.61,0,4,4,0,0,0,0,4.82A2.85,2.85,0,0,0,233,64.79Z" transform="translate(-0.17 -0.21)"/><path class="a" d="M243,54.41a2.09,2.09,0,0,0-1.43.42,1.73,1.73,0,0,0-.48,1.36v.68h2.09v1.19h-2.09v7.81h-1.35V58.06H238.2V56.87h1.55v-.79a2.72,2.72,0,0,1,.88-2.21,3.7,3.7,0,0,1,2.44-.74h.11v1.28Z" transform="translate(-0.17 -0.21)"/><path class="a" d="M249.26,54.41a2.1,2.1,0,0,0-1.43.42,1.73,1.73,0,0,0-.48,1.36v.68h2.09v1.19h-2.09v7.81H246V58.06h-1.55V56.87H246v-.79a2.72,2.72,0,0,1,.88-2.21,3.7,3.7,0,0,1,2.44-.74h.11v1.28Z" transform="translate(-0.17 -0.21)"/><path class="a" d="M256.58,59.28q-.18-1.4-2.26-1.4t-2.08,1.3a.91.91,0,0,0,.44.82,4,4,0,0,0,1.1.46c.45.12.93.23,1.45.33a7.37,7.37,0,0,1,1.45.43,3,3,0,0,1,1.11.77,1.9,1.9,0,0,1,.44,1.33,2.3,2.3,0,0,1-1,2,4.61,4.61,0,0,1-2.68.69,4.26,4.26,0,0,1-2.86-.9,2.75,2.75,0,0,1-1-2.07h1.41a1.87,1.87,0,0,0,1.4,1.67,3.15,3.15,0,0,0,.93.14,6.12,6.12,0,0,0,.86-.06,3.58,3.58,0,0,0,.77-.2,1.2,1.2,0,0,0,.87-1.17,1,1,0,0,0-.44-.85,3.8,3.8,0,0,0-1.11-.49q-.67-.19-1.45-.34a7.65,7.65,0,0,1-1.45-.42,3,3,0,0,1-1.11-.74,1.81,1.81,0,0,1-.45-1.3,2.25,2.25,0,0,1,.89-1.9,4.32,4.32,0,0,1,2.63-.67,4,4,0,0,1,2.61.79,2.6,2.6,0,0,1,.92,1.76Z" transform="translate(-0.17 -0.21)"/><path class="a" d="M261.4,53.27v5a4.55,4.55,0,0,1,1.19-1.1,2.91,2.91,0,0,1,1.6-.45,4.27,4.27,0,0,1,1.55.25,3.11,3.11,0,0,1,1.13.76,3.88,3.88,0,0,1,1.11,2.9v5.23h-1.35v-5.2a2.75,2.75,0,0,0-.7-2,2.4,2.4,0,0,0-1.82-.74,2.68,2.68,0,0,0-1.93.76,2.65,2.65,0,0,0-.79,2v5.18h-1.35V53.27Z" transform="translate(-0.17 -0.21)"/><path class="a" d="M274.16,56.73a4.27,4.27,0,0,1,3.27,1.35,5.16,5.16,0,0,1,0,6.58,4.65,4.65,0,0,1-6.55,0,5.16,5.16,0,0,1,0-6.58A4.28,4.28,0,0,1,274.16,56.73Zm0,8.06a2.84,2.84,0,0,0,2.3-1,4,4,0,0,0,0-4.82,3.13,3.13,0,0,0-4.61,0,4,4,0,0,0,0,4.82A2.85,2.85,0,0,0,274.16,64.79Z" transform="translate(-0.17 -0.21)"/><path class="a" d="M285.19,56.73v1.35H285a2.88,2.88,0,0,0-2.37,1.17,4.23,4.23,0,0,0-.86,2.66v4h-1.35v-9h1.35v2.21a3.41,3.41,0,0,1,3.31-2.36Z" transform="translate(-0.17 -0.21)"/><path class="a" d="M290.48,64.79a2.72,2.72,0,0,0,2.61-1.51h1.47a4.37,4.37,0,0,1-1.48,2,4.28,4.28,0,0,1-2.62.76,4.36,4.36,0,0,1-3.31-1.35,4.61,4.61,0,0,1-1.24-3.29,4.68,4.68,0,0,1,1.19-3.29,4.64,4.64,0,0,1,6.55,0,4.68,4.68,0,0,1,1.19,3.29v.54H287.3a3.27,3.27,0,0,0,1,2.05A3.05,3.05,0,0,0,290.48,64.79ZM290.37,58a3,3,0,0,0-2.09.77,3.2,3.2,0,0,0-1,1.93h6.12a3.19,3.19,0,0,0-1-1.93A3,3,0,0,0,290.37,58Z" transform="translate(-0.17 -0.21)"/></svg>