<?xml version="1.0" standalone="no"?>
<!DOCTYPE svg PUBLIC "-//W3C//DTD SVG 20010904//EN"
 "http://www.w3.org/TR/2001/REC-SVG-20010904/DTD/svg10.dtd">
<svg version="1.0" xmlns="http://www.w3.org/2000/svg"
 width="700.000000pt" height="700.000000pt" viewBox="0 0 700.000000 700.000000"
 preserveAspectRatio="xMidYMid meet">
<metadata>
Created by potrace 1.11, written by Peter Selinger 2001-2013
</metadata>
<g transform="translate(0.000000,700.000000) scale(0.100000,-0.100000)"
fill="#000000" stroke="none">
<path d="M1367 6989 c-350 -40 -666 -191 -910 -434 -257 -256 -405 -564 -447
-930 -14 -124 -14 -4126 0 -4250 42 -362 190 -673 441 -924 251 -251 562 -399
924 -441 124 -14 4126 -14 4250 0 365 42 675 191 930 447 246 247 393 558 435
918 14 124 14 4126 0 4250 -42 364 -189 673 -441 924 -253 252 -560 399 -924
441 -107 12 -4153 12 -4258 -1z m4223 -3839 c0 -4 -234 -163 -520 -353 l-520
-347 0 700 0 700 520 -347 c286 -190 520 -349 520 -353z m-3314 346 l516 -344
-304 -204 c-433 -292 -727 -488 -733 -488 -3 0 -5 311 -5 690 0 380 2 690 5
690 3 0 237 -155 521 -344z m1914 -1396 c0 -4 -234 -163 -520 -353 l-520 -347
0 700 0 700 520 -347 c286 -190 520 -349 520 -353z m-2961 345 c281 -187 510
-342 510 -345 0 -5 -1013 -682 -1030 -688 -5 -2 -9 283 -9 688 0 405 4 690 9
688 5 -1 239 -156 520 -343z m4361 -1045 c0 -4 -234 -163 -520 -353 l-520
-347 0 700 0 700 520 -347 c286 -190 520 -349 520 -353z m-3617 548 c116 -77
348 -233 515 -346 l304 -204 -516 -344 c-284 -189 -518 -344 -521 -344 -3 0
-5 311 -5 690 0 380 2 690 5 690 3 0 101 -64 218 -142z"/>
</g>
</svg>
