<?xml version="1.0" encoding="UTF-8" standalone="no"?>
<svg width="1441px" height="942px" viewBox="0 0 1441 942" version="1.1" xmlns="http://www.w3.org/2000/svg" xmlns:xlink="http://www.w3.org/1999/xlink">
    <!-- Generator: Sketch 45.2 (43514) - http://www.bohemiancoding.com/sketch -->
    <title>Group 30</title>
    <desc>Created with Sketch.</desc>
    <defs>
        <linearGradient x1="84.1693342%" y1="-102.564515%" x2="-2.70582933%" y2="167.587891%" id="linearGradient-1">
            <stop stop-color="#47627B" offset="0%"></stop>
            <stop stop-color="#286AA6" offset="100%"></stop>
        </linearGradient>
        <linearGradient x1="84.1693342%" y1="-102.564515%" x2="34.306451%" y2="79.2403574%" id="linearGradient-2">
            <stop stop-color="#47627B" offset="0%"></stop>
            <stop stop-color="#286AA6" offset="100%"></stop>
        </linearGradient>
        <linearGradient x1="63.7714896%" y1="-120.81413%" x2="47.1895025%" y2="75.621826%" id="linearGradient-3">
            <stop stop-color="#47627B" offset="0%"></stop>
            <stop stop-color="#3077B7" offset="100%"></stop>
        </linearGradient>
    </defs>
    <g id="Offshore" stroke="none" stroke-width="1" fill="none" fill-rule="evenodd">
        <g id="Group-30">
            <path d="M1,304.128904 L0.0419315485,343.903765 L271.948549,899.424679 C289.673026,935.636808 333.840618,951.564293 370.597508,935.000667 L1440.64802,452.807618 L1440.64802,372.351745 L1,304.128904 Z" id="Path-3-Copy-17" fill="url(#linearGradient-1)"></path>
            <path d="M1,330.433866 L285.366467,776.283825 L285.366467,776.283825 C303.588283,804.853285 339.074434,817.127359 371.05382,805.921668 L1441,431.008697 L1180.83279,280.043315 L1180.83279,280.043315 C1163.92113,270.230105 1144.50365,265.589981 1124.98243,266.696957 L1,330.433866 Z" id="Path-3-Copy-16" fill="url(#linearGradient-2)"></path>
            <path d="M1,125.379392 L1,350.841019 L344.8634,694.835736 L344.8634,694.835736 C363.261077,713.240439 390.065243,720.459586 415.217719,713.784214 L1441,441.545493 L1441,249.008697 L780.84731,6.20792203 L780.84731,6.20792203 C764.458752,0.180294525 746.777508,-1.45086119 729.562798,1.47674913 L1,125.379392 Z" id="Path-3-Copy-18" fill="url(#linearGradient-3)"></path>
        </g>
    </g>
</svg>