<?xml version="1.0" encoding="UTF-8" standalone="no"?>
<svg width="1447px" height="1089px" viewBox="0 0 1447 1089" version="1.1" xmlns="http://www.w3.org/2000/svg" xmlns:xlink="http://www.w3.org/1999/xlink">
    <!-- Generator: Sketch 46.2 (44496) - http://www.bohemiancoding.com/sketch -->
    <title>Group</title>
    <desc>Created with Sketch.</desc>
    <defs>
        <linearGradient x1="43.1349294%" y1="-158.765191%" x2="46.7929503%" y2="80.013306%" id="linearGradient-1">
            <stop stop-color="#D4D5D4" offset="0%"></stop>
            <stop stop-color="#9E9F9E" offset="100%"></stop>
        </linearGradient>
        <linearGradient x1="42.6376625%" y1="145.735893%" x2="44.4947021%" y2="0%" id="linearGradient-2">
            <stop stop-color="#696969" offset="0%"></stop>
            <stop stop-color="#B1B1B1" offset="100%"></stop>
        </linearGradient>
        <linearGradient x1="64.2674713%" y1="59.3696699%" x2="58.6137235%" y2="111.071657%" id="linearGradient-3">
            <stop stop-color="#828282" offset="0%"></stop>
            <stop stop-color="#9E9F9E" offset="100%"></stop>
        </linearGradient>
        <linearGradient x1="98.0325704%" y1="-10.0272436%" x2="38.5068222%" y2="107.529647%" id="linearGradient-4">
            <stop stop-color="#828282" offset="0%"></stop>
            <stop stop-color="#9E9F9E" offset="100%"></stop>
        </linearGradient>
    </defs>
    <g id="Operations" stroke="none" stroke-width="1" fill="none" fill-rule="evenodd">
        <g id="Artboard" transform="translate(-266.000000, 0.000000)">
            <g id="Group" transform="translate(266.000000, -2.000000)">
                <path d="M1,239.892419 L234.119911,34.4158691 L234.119911,34.4158691 C252.173974,18.5026566 276.562906,11.8145051 300.208796,16.2923822 L821.679583,115.044513 L1136.42759,895.311592 L1136.42759,895.311592 C1144.89848,916.311115 1168.78897,926.467578 1189.7885,917.996686 C1192.10724,917.061341 1194.33556,915.915853 1196.44561,914.57454 L1446.88086,755.378247 L1446.88086,861.109375 L213.185246,1059.10069 L213.185246,1059.10069 C173.573085,1065.4579 133.996262,1047.52598 112.657612,1013.55247 L1,835.781097 L1,239.892419 Z" id="Rectangle-3-Copy" fill="url(#linearGradient-1)"></path>
                <path d="M1.05215577,767.327251 L172.331148,684.122894 L172.331148,684.122894 C196.393588,672.433779 224.1363,670.873097 249.357926,679.789709 L974.521653,936.157149 L213.455889,1059.2346 L213.455889,1059.2346 C173.78454,1065.65014 134.126685,1047.69433 112.774577,1013.64932 L1.05215577,835.512765 L1.05215577,767.327251 Z" id="Path-24-Copy-10" fill="url(#linearGradient-2)"></path>
                <path d="M0.703890394,238.796416 L238.843626,32.0939384 L238.843626,32.0939384 C254.520655,18.4864624 275.554643,12.7852815 295.957532,16.6134355 L1443.09234,231.848086 L1443.09234,0.410386412 L0.703890394,0.410386412 L0.703890394,238.796416 Z" id="Path-2" fill="#FFFFFF"></path>
                <path d="M1.1796875,835.917969 L113.174393,1013.65509 L113.174393,1013.65509 C134.309087,1047.19614 173.415026,1064.8947 212.562267,1058.63604 L1446.39057,861.377897 L1446.39057,1091 L1.1796875,1091 L1.1796875,835.917969 Z" id="Path-4" fill="#FFFFFF"></path>
                <path d="M813.130604,112.83227 L1113.79671,902.957028 L1113.79671,902.957028 C1127.1533,938.056985 1166.43509,955.683472 1201.53504,942.326888 C1206.08058,940.597174 1210.42744,938.384794 1214.50099,935.727725 L1446.32422,784.515625 L1446.32422,758.001093 L1215.80951,896.849785 L1215.80951,896.849785 C1187.42407,913.947531 1150.55266,904.797043 1133.45491,876.411599 C1131.78219,873.634567 1130.33729,870.726535 1129.1344,867.716059 L828.612301,115.597713 L813.130604,112.83227 Z" id="Path-3-Copy-2" fill="url(#linearGradient-3)"></path>
                <path d="M1446.30539,222.668348 L1446.30539,222.521313 L821.505876,114.150015 L1124.99586,869.775349 C1140.02202,907.18727 1180.4696,921.093039 1215.31801,900.846401 L1446.30539,766.644644 L1446.30539,333.066857 L1445.81805,752.682889 L1220.49505,889.11461 C1186.00643,909.997265 1145.83637,896.605466 1130.76431,859.208281 L831.168742,115.843944 L1446.30539,222.668348 Z" id="Combined-Shape" fill="url(#linearGradient-4)"></path>
            </g>
        </g>
    </g>
</svg>