<?xml version="1.0" encoding="UTF-8" standalone="no"?>
<svg width="1442px" height="440px" viewBox="0 0 1442 440" version="1.1" xmlns="http://www.w3.org/2000/svg" xmlns:xlink="http://www.w3.org/1999/xlink">
    <!-- Generator: Sketch 45.2 (43514) - http://www.bohemiancoding.com/sketch -->
    <title>Group 24</title>
    <desc>Created with Sketch.</desc>
    <defs>
        <linearGradient x1="67.374621%" y1="46.5594383%" x2="63.1876743%" y2="91.3473193%" id="linearGradient-1">
            <stop stop-color="#FEFFFE" offset="0%"></stop>
            <stop stop-color="#F4F4F4" offset="100%"></stop>
        </linearGradient>
    </defs>
    <g id="Offshore" stroke="none" stroke-width="1" fill="none" fill-rule="evenodd">
        <g id="Group-6-Copy" transform="translate(-140.000000, -503.000000)">
            <g id="Group-24">
                <path d="M140.57106,586.714043 L355.409536,577.561286 L355.409536,577.561286 C378.849438,576.562677 401.89423,583.837329 420.512544,598.112643 L1190.03918,1188.13568 L1190.03918,1188.13568 C1202.69978,1197.84301 1217.49921,1204.38029 1233.20156,1207.20159 L1424.46108,1241.5659 L1590.59805,900.934638 L295.417072,269.232669 L140.57106,586.714043 Z" id="Path-3-Copy-11" fill="url(#linearGradient-1)" transform="translate(865.584553, 755.399283) scale(1, -1) rotate(-26.000000) translate(-865.584553, -755.399283) "></path>
                <path d="M140,588.423943 L331.590346,689.880451 L331.590346,689.880451 C352.063757,700.722129 375.66631,704.119018 398.366148,699.490852 L1348.29228,505.81475 L1348.29228,505.81475 C1364.29105,502.552834 1380.84518,503.258078 1396.50855,507.868871 L1580,561.882857 L1580,564.74048 L1395.95283,513.881315 L1395.95283,513.881315 C1380.64191,509.650332 1364.54334,509.127655 1348.99022,512.356566 L399.113337,709.556108 L399.113337,709.556108 C375.31471,714.496831 350.531271,710.600631 329.396627,698.595956 L140,591.016909 L140,588.423943 Z" id="Path-2" fill="#F0F0F0"></path>
            </g>
        </g>
    </g>
</svg>
