<?xml version="1.0" encoding="UTF-8" standalone="no"?>
<svg width="1442px" height="526px" viewBox="0 0 1442 526" version="1.1" xmlns="http://www.w3.org/2000/svg" xmlns:xlink="http://www.w3.org/1999/xlink">
    <!-- Generator: Sketch 45.2 (43514) - http://www.bohemiancoding.com/sketch -->
    <title>Group 4</title>
    <desc>Created with Sketch.</desc>
    <defs></defs>
    <g id="-" stroke="none" stroke-width="1" fill="none" fill-rule="evenodd">
        <g id="Group-2" transform="translate(-17.000000, -570.000000)">
            <g id="Group-4" transform="translate(17.000000, 570.000000)">
                <path d="M1261.0877,150.367913 L700.717957,7.07212921 L700.717957,7.07212921 C681.629014,2.19077173 661.523431,3.05730692 642.925259,9.56295009 L192.741903,167.037152 L192.741903,167.037152 C171.290183,174.540967 147.922316,174.514035 126.487949,166.960795 L1,122.740191 L1.39971499,525.512973 L1441.39971,520.28641 L1441,93.1921001 L1326.99152,144.635666 L1326.99152,144.635666 C1306.31004,153.967686 1283.0698,155.989098 1261.0877,150.367913 Z" id="Path-16" fill="#FFFFFF"></path>
                <path d="M0.869918581,122.222131 L130.693106,164.16507 L130.693106,164.16507 C151.504318,170.888703 173.945912,170.604392 194.580109,163.35569 L642.441768,6.02388302 L642.441768,6.02388302 C660.93029,-0.471052309 680.919646,-1.39072085 699.926437,3.37913343 L1266.84142,145.649432 L1266.84142,145.649432 C1288.94624,151.196754 1312.2828,149.027135 1332.98613,139.499905 L1441.67611,89.4830958 L1441.67611,101.661323 L1332.16359,151.55446 L1332.16359,151.55446 C1311.96156,160.758367 1289.2712,162.978268 1267.66838,157.864321 L698.886767,23.2189689 L698.886767,23.2189689 C680.52851,18.8730937 661.315376,19.8089652 643.466402,25.9184942 L197.374047,178.611539 L197.374047,178.611539 C175.030386,186.259555 150.700959,185.752973 128.695016,177.181518 L0.869918581,127.39283 L0.869918581,122.222131 Z" id="Path-2" fill="#F0F0F0"></path>
            </g>
        </g>
    </g>
</svg>