<?xml version="1.0" encoding="UTF-8" standalone="no"?>
<svg width="1441px" height="473px" viewBox="0 0 1441 473" version="1.1" xmlns="http://www.w3.org/2000/svg" xmlns:xlink="http://www.w3.org/1999/xlink">
    <!-- Generator: Sketch 45.2 (43514) - http://www.bohemiancoding.com/sketch -->
    <title>Group 2</title>
    <desc>Created with Sketch.</desc>
    <defs></defs>
    <g id="offshore" stroke="none" stroke-width="1" fill="none" fill-rule="evenodd">
        <g id="Group-2">
            <path d="M1440.22593,81.5014656 L715.186378,216.709685 L715.186378,216.709685 C695.910445,220.304337 676.003049,218.152704 657.940331,210.522413 L188.160339,12.0717548 L188.160339,12.0717548 C169.698737,4.27296109 149.319723,2.20128249 129.666398,6.12540964 L0.486053842,31.9185053 L0.486053842,472.524091 L1440.48605,472.524091 L1440.22593,81.5014656 Z" id="Path-16" fill="#FFFFFF"></path>
            <path d="M0,29.7786818 L128.430472,2.22494668 L128.430472,2.22494668 C148.533968,-2.08809829 169.478304,-0.0994468478 188.410834,7.92004387 L657.678503,206.69368 L657.678503,206.69368 C675.720554,214.33598 695.610221,216.50956 714.877039,212.944444 L1440,78.7682953 L1440,83.0992831 L711.760318,222.640116 L711.760318,222.640116 C691.9938,226.427656 671.544381,224.162672 653.08582,216.141311 L185.872065,13.1086923 L185.872065,13.1086923 C166.696225,4.77563074 145.390755,2.66267944 124.9517,7.06696846 L0,33.9920582 L0,29.7786818 Z" id="Path-19-Copy" fill="#F0F0F0"></path>
        </g>
    </g>
</svg>