<?xml version="1.0" encoding="UTF-8" standalone="no"?>
<svg width="49px" height="81px" viewBox="0 0 49 81" version="1.1" xmlns="http://www.w3.org/2000/svg" xmlns:xlink="http://www.w3.org/1999/xlink">
    <!-- Generator: Sketch 45.2 (43514) - http://www.bohemiancoding.com/sketch -->
    <title>Group 3</title>
    <desc>Created with Sketch.</desc>
    <defs>
        <polygon id="path-1" points="0.103793742 0.497271621 47.7658803 0.497271621 47.7658803 25.0421545 47.7658803 49.5870374 0.103793742 49.5870374"></polygon>
        <polygon id="path-3" points="0.69714797 11.3569319 0.69714797 0.476765575 9.00064737 5.9142855"></polygon>
    </defs>
    <g id="Energy" stroke="none" stroke-width="1" fill="none" fill-rule="evenodd">
        <g id="01-copy-25" transform="translate(-142.000000, -438.000000)">
            <g id="Group-3" transform="translate(142.000000, 436.000000)">
                <g id="GWE_Logo_4c-Copy-2" transform="translate(23.979592, 25.000000) rotate(-360.000000) translate(-23.979592, -25.000000) ">
                    <g id="Group-20">
                        <mask id="mask-2" fill="white">
                            <use xlink:href="#path-1"></use>
                        </mask>
                        <g id="Clip-18"></g>
                        <path d="M47.6620865,39.2724962 C47.6620865,44.9697594 42.9879083,49.5870374 37.2221659,49.5870374 L10.4416505,49.5870374 C4.6759081,49.5870374 0,44.9697594 0,39.2724962 L0,12.8196966 C0,7.12243339 4.6759081,2.50686415 10.4416505,2.50686415 L37.2221659,2.50686415 C42.9879083,2.50686415 47.6620865,7.12243339 47.6620865,12.8196966 L47.6620865,39.2724962" id="Fill-19" fill="#84AF5F" mask="url(#mask-2)"></path>
                    </g>
                    <polyline id="Fill-21" fill="#FFFFFE" points="21.1099173 28.7665652 21.1099173 39.6467315 29.4134167 34.2075028 21.1099173 28.7665652"></polyline>
                    <polyline id="Fill-22" fill="#FFFFFE" points="29.4134167 23.3290452 29.4134167 34.2109204 37.7169161 28.7665652 29.4134167 23.3290452"></polyline>
                    <polyline id="Fill-23" fill="#FFFFFE" points="29.4134167 34.2126293 29.4134167 45.0979221 37.7169161 39.6569845 29.4134167 34.2126293"></polyline>
                    <g id="Group-26" transform="translate(12.109270, 11.961860)">
                        <mask id="mask-4" fill="white">
                            <use xlink:href="#path-3"></use>
                        </mask>
                        <g id="Clip-25"></g>
                        <polygon id="Fill-24" fill="#B1CA94" mask="url(#mask-4)" points="0.69714797 11.3569319 9.00064737 11.3569319 9.00064737 0.476765575 0.69714797 0.476765575"></polygon>
                    </g>
                    <polyline id="Fill-27" fill="#B1CA94" points="21.1099173 17.8795635 21.1099173 6.99597943 29.4134167 12.4386259 21.1099173 17.8795635"></polyline>
                    <polyline id="Fill-28" fill="#B1CA94" points="21.1099173 28.7665652 21.1099173 17.8863988 29.4134167 23.3256276 21.1099173 28.7665652"></polyline>
                    <polyline id="Fill-29" fill="#CBDAB1" points="4.50291853 39.6467315 4.50291853 28.7665652 12.8064179 34.2075028 4.50291853 39.6467315"></polyline>
                    <polyline id="Fill-30" fill="#CBDAB1" points="12.8064179 34.2109204 12.8064179 23.3290452 21.1099173 28.7665652 12.8064179 34.2109204"></polyline>
                    <polyline id="Fill-31" fill="#CBDAB1" points="12.8064179 45.0979221 12.8064179 34.2126293 21.1099173 39.6569845 12.8064179 45.0979221"></polyline>
                </g>
                <path d="M4.75346235,78.04 C5.83080107,78.04 6.60412667,77.5920045 7.07346235,76.696 L8.38546235,76.696 C8.10812763,77.421337 7.66813203,78.0079978 7.06546235,78.456 C6.46279267,78.9040022 5.68680043,79.128 4.73746235,79.128 C3.53212299,79.128 2.55079947,78.728004 1.79346235,77.928 C1.05745867,77.1493294 0.689462353,76.1733392 0.689462353,75 C0.689462353,73.8159941 1.04145883,72.8400038 1.74546235,72.072 C2.49213275,71.271996 3.46278971,70.872 4.65746235,70.872 C5.85213499,70.872 6.82279195,71.271996 7.56946235,72.072 C8.27346587,72.8400038 8.62546235,73.8159941 8.62546235,75 L8.62546235,75.48 L1.92146235,75.48 C2.00679611,76.2160037 2.30012651,76.8239976 2.80146235,77.304 C3.31346491,77.7946691 3.96412507,78.04 4.75346235,78.04 Z M4.65746235,71.96 C3.92145867,71.96 3.30279819,72.189331 2.80146235,72.648 C2.33212667,73.0853355 2.04412955,73.6559965 1.93746235,74.36 L7.37746235,74.36 C7.27079515,73.6559965 6.98279803,73.0853355 6.51346235,72.648 C6.01212651,72.189331 5.39346603,71.96 4.65746235,71.96 Z M10.9897699,71 L10.9897699,72.248 C11.2777714,71.8639981 11.6297679,71.538668 12.0457699,71.272 C12.461772,71.005332 12.9364339,70.872 13.4697699,70.872 C14.0031059,70.872 14.461768,70.9466659 14.8457699,71.096 C15.2297719,71.2453341 15.5657685,71.4693318 15.8537699,71.768 C16.5151066,72.4186699 16.8457699,73.277328 16.8457699,74.344 L16.8457699,79 L15.6457699,79 L15.6457699,74.376 C15.6457699,73.6399963 15.437772,73.0533355 15.0217699,72.616 C14.6057679,72.1786645 14.0671066,71.96 13.4057699,71.96 C12.7337666,71.96 12.1631056,72.1839978 11.6937699,72.632 C11.2244343,73.090669 10.9897699,73.6773298 10.9897699,74.392 L10.9897699,79 L9.78976994,79 L9.78976994,71 L10.9897699,71 Z M22.1060775,78.04 C23.1834163,78.04 23.9567419,77.5920045 24.4260775,76.696 L25.7380775,76.696 C25.4607428,77.421337 25.0207472,78.0079978 24.4180775,78.456 C23.8154079,78.9040022 23.0394156,79.128 22.0900775,79.128 C20.8847382,79.128 19.9034147,78.728004 19.1460775,77.928 C18.4100739,77.1493294 18.0420775,76.1733392 18.0420775,75 C18.0420775,73.8159941 18.394074,72.8400038 19.0980775,72.072 C19.8447479,71.271996 20.8154049,70.872 22.0100775,70.872 C23.2047502,70.872 24.1754071,71.271996 24.9220775,72.072 C25.6260811,72.8400038 25.9780775,73.8159941 25.9780775,75 L25.9780775,75.48 L19.2740775,75.48 C19.3594113,76.2160037 19.6527417,76.8239976 20.1540775,77.304 C20.6660801,77.7946691 21.3167403,78.04 22.1060775,78.04 Z M22.0100775,71.96 C21.2740739,71.96 20.6554134,72.189331 20.1540775,72.648 C19.6847419,73.0853355 19.3967447,73.6559965 19.2900775,74.36 L24.7300775,74.36 C24.6234103,73.6559965 24.3354132,73.0853355 23.8660775,72.648 C23.3647417,72.189331 22.7460812,71.96 22.0100775,71.96 Z M31.3663851,70.872 L31.3663851,72.072 L31.2223851,72.072 C30.3583808,72.072 29.6543878,72.4186632 29.1103851,73.112 C28.5983826,73.7733366 28.3423851,74.5626621 28.3423851,75.48 L28.3423851,79 L27.1423851,79 L27.1423851,71 L28.3423851,71 L28.3423851,72.968 C28.5983864,72.1359958 29.1530475,71.5226686 30.0063851,71.128 C30.3583869,70.9573325 30.7850493,70.872 31.2863851,70.872 L31.3663851,70.872 Z M38.3866927,72.28 L38.3866927,71 L39.5866927,71 L39.5866927,78.76 C39.5866927,79.9120058 39.258696,80.7893303 38.6026927,81.392 C37.9466894,81.9946697 37.0640316,82.296 35.9546927,82.296 C34.8453538,82.296 33.9786958,82.0826688 33.3546927,81.656 C32.7306896,81.2293312 32.3066938,80.6640035 32.0826927,79.96 L33.4106927,79.96 C33.7520278,80.7920042 34.5306866,81.208 35.7466927,81.208 C36.6746974,81.208 37.3466906,80.9946688 37.7626927,80.568 C38.1786948,80.1413312 38.3866927,79.5120042 38.3866927,78.68 L38.3866927,77.576 C37.7360228,78.5253381 36.7813657,79 35.5226927,79 C34.370687,79 33.4320297,78.6053373 32.7066927,77.816 C32.0026892,77.0479962 31.6506927,76.0880058 31.6506927,74.936 C31.6506927,73.7839942 32.0026892,72.8240038 32.7066927,72.056 C33.4320297,71.2666627 34.40002,70.872 35.6106927,70.872 C36.8213654,70.872 37.7466895,71.3413286 38.3866927,72.28 Z M35.6826927,77.912 C36.1200282,77.912 36.5093577,77.8346674 36.8506927,77.68 C37.1920278,77.5253326 37.4853582,77.314668 37.7306927,77.048 C38.2106951,76.4933306 38.4506927,75.7893376 38.4506927,74.936 C38.4506927,74.0826624 38.2106951,73.3786694 37.7306927,72.824 C37.2080234,72.2479971 36.5253636,71.96 35.6826927,71.96 C34.8186884,71.96 34.125362,72.2479971 33.6026927,72.824 C33.1013569,73.3893362 32.8506927,74.0933291 32.8506927,74.936 C32.8506927,75.7786709 33.1013569,76.4826638 33.6026927,77.048 C34.125362,77.6240029 34.8186884,77.912 35.6826927,77.912 Z M43.4870003,82.168 L42.1910003,82.168 L43.6470003,78.888 L40.3830003,71 L41.7110003,71 L44.2870003,77.56 L46.9110003,71 L48.2230003,71 L43.4870003,82.168 Z" id="energy" fill="#777776"></path>
            </g>
        </g>
    </g>
</svg>