<?xml version="1.0" encoding="UTF-8" standalone="no"?>
<svg width="23px" height="23px" viewBox="0 0 23 23" version="1.1" xmlns="http://www.w3.org/2000/svg" xmlns:xlink="http://www.w3.org/1999/xlink">
    <!-- Generator: Sketch 45.2 (43514) - http://www.bohemiancoding.com/sketch -->
    <title>Group Copy 3</title>
    <desc>Created with Sketch.</desc>
    <defs></defs>
    <g id="Energy" stroke="none" stroke-width="1" fill="none" fill-rule="evenodd">
        <g id="Mobile-Copy-6" transform="translate(-36.000000, -25.000000)" fill="#FFFFFF">
            <g id="Group-Copy-3" transform="translate(36.000000, 25.000000)">
                <path d="M19.8442325,12.8653823 C20.0710266,14.0871305 20.4850256,16.1561247 20.8443261,17.07671 C21.3709338,18.4259633 23.0168306,22.242139 23.0168306,22.242139 L13.1401111,19.1861201 L5,19.1861201 C2.23857625,19.1861201 1.2263553e-15,16.9475438 8.8817842e-16,14.1861201 L0,5.76426843 L8.8817842e-16,5.76426843 C5.50001544e-16,3.00284468 2.23857625,0.764268431 5,0.764268431 L5,0.764268431 L14.8442325,0.764268431 L14.8442325,0.764268431 C17.6056562,0.764268431 19.8442325,3.00284468 19.8442325,5.76426843 L19.8442325,12.8653823 Z M3.25233553,7.34768982 C3.25233553,8.31737097 4.03707629,9.09129676 5.00510307,9.09129676 L13.5536536,9.09129676 C14.5340469,9.09129676 15.3064212,8.31065734 15.3064212,7.34768982 C15.3064212,6.37800867 14.5216804,5.60408289 13.5536536,5.60408289 L5.00510307,5.60408289 C4.02470978,5.60408289 3.25233553,6.3847223 3.25233553,7.34768982 Z M3.25233553,12.9659788 C3.25233553,13.93566 4.03734853,14.7095858 5.00571115,14.7095858 L11.6985708,14.7095858 C12.6685361,14.7095858 13.4519465,13.9289464 13.4519465,12.9659788 C13.4519465,11.9962977 12.6669335,11.2223719 11.6985708,11.2223719 L5.00571115,11.2223719 C4.03574593,11.2223719 3.25233553,12.0030113 3.25233553,12.9659788 Z" id="Combined-Shape"></path>
            </g>
        </g>
    </g>
</svg>