<?xml version="1.0" encoding="UTF-8"?>
<svg width="221px" height="77px" viewBox="0 0 221 77" version="1.1" xmlns="http://www.w3.org/2000/svg" xmlns:xlink="http://www.w3.org/1999/xlink">
    <!-- Generator: Sketch 63.1 (92452) - https://sketch.com -->
    <title>Legende</title>
    <desc>Created with Sketch.</desc>
    <g id="Page-1" stroke="none" stroke-width="1" fill="none" fill-rule="evenodd">
        <g id="Legende" transform="translate(1.000000, 1.000000)" fill-rule="nonzero">
            <path d="M47.4,16.1 C49.0266667,16.1 50.4666667,15.4266667 51.72,14.08 L51.72,14.08 L51.72,16 L53.24,16 L53.24,8.92 L48.66,8.92 L48.66,10.28 L51.72,10.28 L51.72,12.24 C50.48,13.7333333 49.0866667,14.48 47.54,14.48 C46.8333333,14.48 46.18,14.3333333 45.58,14.04 C44.98,13.7466667 44.46,13.3433333 44.02,12.83 C43.58,12.3166667 43.2333333,11.7233333 42.98,11.05 C42.7266667,10.3766667 42.6,9.66 42.6,8.9 C42.6,8.18 42.7133333,7.48333333 42.94,6.81 C43.1666667,6.13666667 43.4866667,5.54333333 43.9,5.03 C44.3133333,4.51666667 44.8133333,4.10333333 45.4,3.79 C45.9866667,3.47666667 46.64,3.32 47.36,3.32 C48.24,3.32 49.0333333,3.52 49.74,3.92 C50.4466667,4.32 51.0133333,4.93333333 51.44,5.76 L51.44,5.76 L52.82,4.8 C52.3533333,3.88 51.6766667,3.13333333 50.79,2.56 C49.9033333,1.98666667 48.7733333,1.7 47.4,1.7 C46.4533333,1.7 45.5733333,1.89333333 44.76,2.28 C43.9466667,2.66666667 43.2466667,3.19 42.66,3.85 C42.0733333,4.51 41.6133333,5.27 41.28,6.13 C40.9466667,6.99 40.78,7.9 40.78,8.86 C40.78,9.78 40.95,10.6733333 41.29,11.54 C41.63,12.4066667 42.0933333,13.1766667 42.68,13.85 C43.2666667,14.5233333 43.9633333,15.0666667 44.77,15.48 C45.5766667,15.8933333 46.4533333,16.1 47.4,16.1 Z M57.46,16 L57.46,9.56 C57.74,8.8 58.2166667,8.20666667 58.89,7.78 C59.5633333,7.35333333 60.34,7.12666667 61.22,7.1 L61.22,7.1 L61.22,5.5 C61.1533333,5.48666667 61.0733333,5.48 60.98,5.48 L60.98,5.48 L60.64,5.48 C59.9733333,5.53333333 59.3466667,5.78333333 58.76,6.23 C58.1733333,6.67666667 57.7,7.26 57.34,7.98 L57.34,7.98 L57.34,5.56 L55.7,5.56 L55.7,16 L57.46,16 Z M67.58,16.2 C68.1,16.2 68.6,16.1333333 69.08,16 C69.56,15.8666667 69.9966667,15.6833333 70.39,15.45 C70.7833333,15.2166667 71.13,14.94 71.43,14.62 C71.73,14.3 71.9666667,13.9466667 72.14,13.56 L72.14,13.56 L70.62,13.14 C70.5133333,13.4066667 70.3566667,13.6466667 70.15,13.86 C69.9433333,14.0733333 69.7066667,14.2533333 69.44,14.4 C69.1733333,14.5466667 68.8866667,14.6633333 68.58,14.75 C68.2733333,14.8366667 67.96,14.88 67.64,14.88 C67.1866667,14.88 66.7566667,14.7933333 66.35,14.62 C65.9433333,14.4466667 65.58,14.2066667 65.26,13.9 C64.94,13.5933333 64.68,13.2266667 64.48,12.8 C64.28,12.3733333 64.16,11.9 64.12,11.38 L64.12,11.38 L72.78,11.38 C72.7933333,11.3133333 72.8033333,11.22 72.81,11.1 C72.8166667,10.98 72.82,10.8466667 72.82,10.7 C72.82,10.0066667 72.6966667,9.33666667 72.45,8.69 C72.2033333,8.04333333 71.8533333,7.47666667 71.4,6.99 C70.9466667,6.50333333 70.3966667,6.11333333 69.75,5.82 C69.1033333,5.52666667 68.3866667,5.38 67.6,5.38 C66.8133333,5.38 66.0933333,5.52333333 65.44,5.81 C64.7866667,6.09666667 64.2233333,6.48666667 63.75,6.98 C63.2766667,7.47333333 62.91,8.04666667 62.65,8.7 C62.39,9.35333333 62.26,10.0466667 62.26,10.78 C62.26,11.5133333 62.39,12.21 62.65,12.87 C62.91,13.53 63.2733333,14.1066667 63.74,14.6 C64.2066667,15.0933333 64.7666667,15.4833333 65.42,15.77 C66.0733333,16.0566667 66.7933333,16.2 67.58,16.2 Z M71.16,10.08 L64.08,10.08 C64.12,9.58666667 64.2366667,9.13333333 64.43,8.72 C64.6233333,8.30666667 64.8766667,7.95 65.19,7.65 C65.5033333,7.35 65.8666667,7.11666667 66.28,6.95 C66.6933333,6.78333333 67.1333333,6.7 67.6,6.7 C68.0666667,6.7 68.5066667,6.78333333 68.92,6.95 C69.3333333,7.11666667 69.6966667,7.34666667 70.01,7.64 C70.3233333,7.93333333 70.5833333,8.29 70.79,8.71 C70.9966667,9.13 71.12,9.58666667 71.16,10.08 L71.16,10.08 Z M79.4,16.2 C79.92,16.2 80.42,16.1333333 80.9,16 C81.38,15.8666667 81.8166667,15.6833333 82.21,15.45 C82.6033333,15.2166667 82.95,14.94 83.25,14.62 C83.55,14.3 83.7866667,13.9466667 83.96,13.56 L83.96,13.56 L82.44,13.14 C82.3333333,13.4066667 82.1766667,13.6466667 81.97,13.86 C81.7633333,14.0733333 81.5266667,14.2533333 81.26,14.4 C80.9933333,14.5466667 80.7066667,14.6633333 80.4,14.75 C80.0933333,14.8366667 79.78,14.88 79.46,14.88 C79.0066667,14.88 78.5766667,14.7933333 78.17,14.62 C77.7633333,14.4466667 77.4,14.2066667 77.08,13.9 C76.76,13.5933333 76.5,13.2266667 76.3,12.8 C76.1,12.3733333 75.98,11.9 75.94,11.38 L75.94,11.38 L84.6,11.38 C84.6133333,11.3133333 84.6233333,11.22 84.63,11.1 C84.6366667,10.98 84.64,10.8466667 84.64,10.7 C84.64,10.0066667 84.5166667,9.33666667 84.27,8.69 C84.0233333,8.04333333 83.6733333,7.47666667 83.22,6.99 C82.7666667,6.50333333 82.2166667,6.11333333 81.57,5.82 C80.9233333,5.52666667 80.2066667,5.38 79.42,5.38 C78.6333333,5.38 77.9133333,5.52333333 77.26,5.81 C76.6066667,6.09666667 76.0433333,6.48666667 75.57,6.98 C75.0966667,7.47333333 74.73,8.04666667 74.47,8.7 C74.21,9.35333333 74.08,10.0466667 74.08,10.78 C74.08,11.5133333 74.21,12.21 74.47,12.87 C74.73,13.53 75.0933333,14.1066667 75.56,14.6 C76.0266667,15.0933333 76.5866667,15.4833333 77.24,15.77 C77.8933333,16.0566667 78.6133333,16.2 79.4,16.2 Z M82.98,10.08 L75.9,10.08 C75.94,9.58666667 76.0566667,9.13333333 76.25,8.72 C76.4433333,8.30666667 76.6966667,7.95 77.01,7.65 C77.3233333,7.35 77.6866667,7.11666667 78.1,6.95 C78.5133333,6.78333333 78.9533333,6.7 79.42,6.7 C79.8866667,6.7 80.3266667,6.78333333 80.74,6.95 C81.1533333,7.11666667 81.5166667,7.34666667 81.83,7.64 C82.1433333,7.93333333 82.4033333,8.29 82.61,8.71 C82.8166667,9.13 82.94,9.58666667 82.98,10.08 L82.98,10.08 Z M88.36,16 L88.36,9.7 C88.48,9.3 88.66,8.93333333 88.9,8.6 C89.14,8.26666667 89.42,7.98 89.74,7.74 C90.06,7.5 90.4,7.31 90.76,7.17 C91.12,7.03 91.48,6.96 91.84,6.96 C92.5333333,6.96 93.05,7.21333333 93.39,7.72 C93.73,8.22666667 93.9,9.04 93.9,10.16 L93.9,10.16 L93.9,16 L95.66,16 L95.66,9.76 C95.66,9.13333333 95.61,8.55333333 95.51,8.02 C95.41,7.48666667 95.24,7.02333333 95,6.63 C94.76,6.23666667 94.44,5.93 94.04,5.71 C93.64,5.49 93.14,5.38 92.54,5.38 C91.62,5.38 90.77,5.6 89.99,6.04 C89.21,6.48 88.6133333,7.06666667 88.2,7.8 L88.2,7.8 L88.2,5.56 L86.6,5.56 L86.6,16 L88.36,16 Z M109.7,16 L112.54,9.3 L115.36,16 L116.92,16 L122.86,1.8 L120.9,1.8 L116.1,13.92 L113.66,8.06 L116.12,1.88 L114.42,1.88 L112.52,6.82 L110.64,1.88 L108.94,1.88 L111.4,8.06 L108.98,13.92 L104.16,1.8 L102.22,1.8 L108.14,16 L109.7,16 Z M126.2,3.6 L126.2,1.4 L124.44,1.4 L124.44,3.6 L126.2,3.6 Z M126.2,16 L126.2,5.56 L124.44,5.56 L124.44,16 L126.2,16 Z M130.8,16 L130.8,9.7 C130.92,9.3 131.1,8.93333333 131.34,8.6 C131.58,8.26666667 131.86,7.98 132.18,7.74 C132.5,7.5 132.84,7.31 133.2,7.17 C133.56,7.03 133.92,6.96 134.28,6.96 C134.973333,6.96 135.49,7.21333333 135.83,7.72 C136.17,8.22666667 136.34,9.04 136.34,10.16 L136.34,10.16 L136.34,16 L138.1,16 L138.1,9.76 C138.1,9.13333333 138.05,8.55333333 137.95,8.02 C137.85,7.48666667 137.68,7.02333333 137.44,6.63 C137.2,6.23666667 136.88,5.93 136.48,5.71 C136.08,5.49 135.58,5.38 134.98,5.38 C134.06,5.38 133.21,5.6 132.43,6.04 C131.65,6.48 131.053333,7.06666667 130.64,7.8 L130.64,7.8 L130.64,5.56 L129.04,5.56 L129.04,16 L130.8,16 Z M145.14,16.2 C145.9,16.2 146.623333,16.01 147.31,15.63 C147.996667,15.25 148.546667,14.72 148.96,14.04 L148.96,14.04 L148.96,14.92 C148.96,15.2266667 149.09,15.4966667 149.35,15.73 C149.61,15.9633333 149.913333,16.08 150.26,16.08 C150.366667,16.08 150.476667,16.0733333 150.59,16.06 C150.703333,16.0466667 150.853333,16.0266667 151.04,16 L151.04,16 L151.04,14.48 C150.666667,14.4666667 150.48,14.2533333 150.48,13.84 L150.48,13.84 L150.48,1.4 L148.72,1.4 L148.72,7.64 C148.333333,7.01333333 147.81,6.48 147.15,6.04 C146.49,5.6 145.74,5.38 144.9,5.38 C144.206667,5.38 143.57,5.52333333 142.99,5.81 C142.41,6.09666667 141.91,6.48666667 141.49,6.98 C141.07,7.47333333 140.743333,8.05 140.51,8.71 C140.276667,9.37 140.16,10.0666667 140.16,10.8 C140.16,11.52 140.283333,12.2066667 140.53,12.86 C140.776667,13.5133333 141.12,14.0866667 141.56,14.58 C142,15.0733333 142.526667,15.4666667 143.14,15.76 C143.753333,16.0533333 144.42,16.2 145.14,16.2 Z M145.56,14.68 C145.053333,14.68 144.583333,14.5766667 144.15,14.37 C143.716667,14.1633333 143.34,13.8866667 143.02,13.54 C142.7,13.1933333 142.446667,12.7833333 142.26,12.31 C142.073333,11.8366667 141.98,11.34 141.98,10.82 C141.98,10.3266667 142.06,9.84333333 142.22,9.37 C142.38,8.89666667 142.61,8.47666667 142.91,8.11 C143.21,7.74333333 143.57,7.45 143.99,7.23 C144.41,7.01 144.88,6.9 145.4,6.9 C145.733333,6.9 146.07,6.96333333 146.41,7.09 C146.75,7.21666667 147.07,7.39 147.37,7.61 C147.67,7.83 147.94,8.09 148.18,8.39 C148.42,8.69 148.6,9.00666667 148.72,9.34 L148.72,9.34 L148.72,12.34 C148.653333,12.66 148.51,12.9633333 148.29,13.25 C148.07,13.5366667 147.81,13.7866667 147.51,14 C147.21,14.2133333 146.89,14.38 146.55,14.5 C146.21,14.62 145.88,14.68 145.56,14.68 Z M164.52,16.1 C165.48,16.1 166.37,15.9033333 167.19,15.51 C168.01,15.1166667 168.716667,14.59 169.31,13.93 C169.903333,13.27 170.37,12.5066667 170.71,11.64 C171.05,10.7733333 171.22,9.86666667 171.22,8.92 C171.22,8.02666667 171.06,7.15 170.74,6.29 C170.42,5.43 169.966667,4.66 169.38,3.98 C168.793333,3.3 168.093333,2.75 167.28,2.33 C166.466667,1.91 165.56,1.7 164.56,1.7 C163.6,1.7 162.71,1.89666667 161.89,2.29 C161.07,2.68333333 160.36,3.21333333 159.76,3.88 C159.16,4.54666667 158.69,5.31333333 158.35,6.18 C158.01,7.04666667 157.84,7.95333333 157.84,8.9 C157.84,9.80666667 158,10.6933333 158.32,11.56 C158.64,12.4266667 159.093333,13.1966667 159.68,13.87 C160.266667,14.5433333 160.97,15.0833333 161.79,15.49 C162.61,15.8966667 163.52,16.1 164.52,16.1 Z M164.54,14.48 C163.806667,14.48 163.14,14.3266667 162.54,14.02 C161.94,13.7133333 161.426667,13.3 161,12.78 C160.573333,12.26 160.243333,11.6633333 160.01,10.99 C159.776667,10.3166667 159.66,9.62 159.66,8.9 C159.66,8.20666667 159.773333,7.52666667 160,6.86 C160.226667,6.19333333 160.55,5.6 160.97,5.08 C161.39,4.56 161.9,4.14 162.5,3.82 C163.1,3.5 163.78,3.34 164.54,3.34 C165.26,3.34 165.916667,3.49333333 166.51,3.8 C167.103333,4.10666667 167.616667,4.51666667 168.05,5.03 C168.483333,5.54333333 168.816667,6.13666667 169.05,6.81 C169.283333,7.48333333 169.4,8.18 169.4,8.9 C169.4,9.58 169.29,10.2533333 169.07,10.92 C168.85,11.5866667 168.53,12.1833333 168.11,12.71 C167.69,13.2366667 167.18,13.6633333 166.58,13.99 C165.98,14.3166667 165.3,14.48 164.54,14.48 Z M175.76,16 L175.76,6.94 L178.8,6.94 L178.8,16 L180.56,16 L180.56,6.94 L184.14,6.94 L184.14,16 L185.9,16 L185.9,5.56 L180.56,5.56 L180.56,5.28 C180.56,4.97333333 180.6,4.66666667 180.68,4.36 C180.76,4.05333333 180.89,3.78 181.07,3.54 C181.25,3.3 181.483333,3.10333333 181.77,2.95 C182.056667,2.79666667 182.4,2.72 182.8,2.72 C183.266667,2.72 183.716667,2.8 184.15,2.96 C184.583333,3.12 184.926667,3.31333333 185.18,3.54 L185.18,3.54 L185.94,2.24 C185.58,2.01333333 185.116667,1.78333333 184.55,1.55 C183.983333,1.31666667 183.346667,1.2 182.64,1.2 C181.96,1.2 181.37,1.32 180.87,1.56 C180.37,1.8 179.96,2.11333333 179.64,2.5 C179.333333,2.35333333 178.983333,2.22666667 178.59,2.12 C178.196667,2.01333333 177.76,1.96 177.28,1.96 C176.746667,1.96 176.276667,2.06333333 175.87,2.27 C175.463333,2.47666667 175.12,2.74666667 174.84,3.08 C174.56,3.41333333 174.35,3.79 174.21,4.21 C174.07,4.63 174,5.05333333 174,5.48 L174,5.48 L174,5.56 L172.58,5.56 L172.58,6.94 L174,6.94 L174,16 L175.76,16 Z M178.8,5.56 L175.76,5.56 L175.76,5.46 C175.76,5.22 175.793333,4.98 175.86,4.74 C175.926667,4.5 176.033333,4.28666667 176.18,4.1 C176.326667,3.91333333 176.516667,3.76333333 176.75,3.65 C176.983333,3.53666667 177.266667,3.48 177.6,3.48 C177.826667,3.48 178.083333,3.50333333 178.37,3.55 C178.656667,3.59666667 178.906667,3.69333333 179.12,3.84 C179.013333,4.05333333 178.933333,4.33 178.88,4.67 C178.826667,5.01 178.8,5.30666667 178.8,5.56 L178.8,5.56 Z M193.36,16.2 C193.88,16.2 194.376667,16.1333333 194.85,16 C195.323333,15.8666667 195.753333,15.6866667 196.14,15.46 C196.526667,15.2333333 196.863333,14.96 197.15,14.64 C197.436667,14.32 197.66,13.9666667 197.82,13.58 L197.82,13.58 L196.1,13.06 C196.02,13.2866667 195.886667,13.4966667 195.7,13.69 C195.513333,13.8833333 195.296667,14.0533333 195.05,14.2 C194.803333,14.3466667 194.53,14.4633333 194.23,14.55 C193.93,14.6366667 193.626667,14.68 193.32,14.68 C192.84,14.68 192.39,14.58 191.97,14.38 C191.55,14.18 191.183333,13.9033333 190.87,13.55 C190.556667,13.1966667 190.306667,12.78 190.12,12.3 C189.933333,11.82 189.84,11.3066667 189.84,10.76 C189.84,10.2 189.93,9.68666667 190.11,9.22 C190.29,8.75333333 190.533333,8.34666667 190.84,8 C191.146667,7.65333333 191.513333,7.38333333 191.94,7.19 C192.366667,6.99666667 192.82,6.9 193.3,6.9 C193.886667,6.9 194.42,7.03666667 194.9,7.31 C195.38,7.58333333 195.753333,7.96666667 196.02,8.46 L196.02,8.46 L197.74,7.92 C197.353333,7.14666667 196.783333,6.53 196.03,6.07 C195.276667,5.61 194.38,5.38 193.34,5.38 C192.54,5.38 191.816667,5.52333333 191.17,5.81 C190.523333,6.09666667 189.966667,6.48333333 189.5,6.97 C189.033333,7.45666667 188.673333,8.02666667 188.42,8.68 C188.166667,9.33333333 188.04,10.0266667 188.04,10.76 C188.04,11.4933333 188.17,12.19 188.43,12.85 C188.69,13.51 189.053333,14.0866667 189.52,14.58 C189.986667,15.0733333 190.546667,15.4666667 191.2,15.76 C191.853333,16.0533333 192.573333,16.2 193.36,16.2 Z M204.44,16.2 C204.96,16.2 205.46,16.1333333 205.94,16 C206.42,15.8666667 206.856667,15.6833333 207.25,15.45 C207.643333,15.2166667 207.99,14.94 208.29,14.62 C208.59,14.3 208.826667,13.9466667 209,13.56 L209,13.56 L207.48,13.14 C207.373333,13.4066667 207.216667,13.6466667 207.01,13.86 C206.803333,14.0733333 206.566667,14.2533333 206.3,14.4 C206.033333,14.5466667 205.746667,14.6633333 205.44,14.75 C205.133333,14.8366667 204.82,14.88 204.5,14.88 C204.046667,14.88 203.616667,14.7933333 203.21,14.62 C202.803333,14.4466667 202.44,14.2066667 202.12,13.9 C201.8,13.5933333 201.54,13.2266667 201.34,12.8 C201.14,12.3733333 201.02,11.9 200.98,11.38 L200.98,11.38 L209.64,11.38 C209.653333,11.3133333 209.663333,11.22 209.67,11.1 C209.676667,10.98 209.68,10.8466667 209.68,10.7 C209.68,10.0066667 209.556667,9.33666667 209.31,8.69 C209.063333,8.04333333 208.713333,7.47666667 208.26,6.99 C207.806667,6.50333333 207.256667,6.11333333 206.61,5.82 C205.963333,5.52666667 205.246667,5.38 204.46,5.38 C203.673333,5.38 202.953333,5.52333333 202.3,5.81 C201.646667,6.09666667 201.083333,6.48666667 200.61,6.98 C200.136667,7.47333333 199.77,8.04666667 199.51,8.7 C199.25,9.35333333 199.12,10.0466667 199.12,10.78 C199.12,11.5133333 199.25,12.21 199.51,12.87 C199.77,13.53 200.133333,14.1066667 200.6,14.6 C201.066667,15.0933333 201.626667,15.4833333 202.28,15.77 C202.933333,16.0566667 203.653333,16.2 204.44,16.2 Z M208.02,10.08 L200.94,10.08 C200.98,9.58666667 201.096667,9.13333333 201.29,8.72 C201.483333,8.30666667 201.736667,7.95 202.05,7.65 C202.363333,7.35 202.726667,7.11666667 203.14,6.95 C203.553333,6.78333333 203.993333,6.7 204.46,6.7 C204.926667,6.7 205.366667,6.78333333 205.78,6.95 C206.193333,7.11666667 206.556667,7.34666667 206.87,7.64 C207.183333,7.93333333 207.443333,8.29 207.65,8.71 C207.856667,9.13 207.98,9.58666667 208.02,10.08 L208.02,10.08 Z M215.3,16.2 C216.566667,16.2 217.573333,15.9133333 218.32,15.34 C219.066667,14.7666667 219.44,13.9933333 219.44,13.02 C219.44,12.58 219.356667,12.2066667 219.19,11.9 C219.023333,11.5933333 218.77,11.3266667 218.43,11.1 C218.09,10.8733333 217.663333,10.6766667 217.15,10.51 C216.636667,10.3433333 216.033333,10.18 215.34,10.02 C214.9,9.91333333 214.523333,9.81333333 214.21,9.72 C213.896667,9.62666667 213.64,9.52 213.44,9.4 C213.24,9.28 213.096667,9.14 213.01,8.98 C212.923333,8.82 212.88,8.62 212.88,8.38 C212.88,7.78 213.103333,7.34333333 213.55,7.07 C213.996667,6.79666667 214.54,6.66 215.18,6.66 C215.753333,6.66 216.313333,6.75666667 216.86,6.95 C217.406667,7.14333333 217.9,7.43333333 218.34,7.82 L218.34,7.82 L219.14,6.76 C218.673333,6.34666667 218.1,6.01333333 217.42,5.76 C216.74,5.50666667 216.006667,5.38 215.22,5.38 C214.66,5.38 214.136667,5.45 213.65,5.59 C213.163333,5.73 212.74,5.93666667 212.38,6.21 C212.02,6.48333333 211.736667,6.82333333 211.53,7.23 C211.323333,7.63666667 211.22,8.1 211.22,8.62 C211.22,9.03333333 211.286667,9.38 211.42,9.66 C211.553333,9.94 211.766667,10.18 212.06,10.38 C212.353333,10.58 212.726667,10.7533333 213.18,10.9 C213.633333,11.0466667 214.173333,11.2 214.8,11.36 C215.293333,11.48 215.726667,11.5933333 216.1,11.7 C216.473333,11.8066667 216.78,11.9266667 217.02,12.06 C217.26,12.1933333 217.44,12.35 217.56,12.53 C217.68,12.71 217.74,12.9266667 217.74,13.18 C217.74,13.7266667 217.516667,14.15 217.07,14.45 C216.623333,14.75 216.02,14.9 215.26,14.9 C214.58,14.9 213.933333,14.7833333 213.32,14.55 C212.706667,14.3166667 212.093333,13.9666667 211.48,13.5 L211.48,13.5 L210.72,14.68 C211.306667,15.1733333 212.006667,15.55 212.82,15.81 C213.633333,16.07 214.46,16.2 215.3,16.2 Z" id="GreenWindOfces" fill="#999997"></path>
            <path d="M19,9.49986119 C19,13.3421964 16.6854331,16.8061904 13.1355783,18.2765884 C9.58572349,19.7469865 5.49966385,18.9342186 2.78272259,16.2172774 C0.0657813397,13.5003361 -0.746986458,9.41427654 0.723411553,5.86442167 C2.19380956,2.31456686 5.65780367,1.77635684e-15 9.50013884,1.77635684e-15 C14.7467672,1.77635684e-15 19,4.25323271 19,9.49986119 Z" id="Shape" stroke="#FFFFFF" fill="#7BAA3E"></path>
            <path d="M17,38.4998904 C17,41.5333129 15.1727103,44.2680451 12.3701934,45.4288856 C9.56767644,46.5897262 6.34183988,45.9480673 4.19688626,43.8031138 C2.05193264,41.6581601 1.41027385,38.4323236 2.57111438,35.6298066 C3.73195492,32.8272896 6.46668711,31 9.50010961,31 C13.6421847,31 17,34.3578153 17,38.4998904 Z" id="Shape-Copy" stroke="#FFFFFF" fill="#999997"></path>
            <path d="M17,67.4998904 C17,70.5333129 15.1727103,73.2680451 12.3701934,74.4288856 C9.56767644,75.5897262 6.34183988,74.9480673 4.19688626,72.8031138 C2.05193264,70.6581601 1.41027385,67.4323236 2.57111438,64.6298066 C3.73195492,61.8272896 6.46668711,60 9.50010961,60 C13.6421847,60 17,63.3578153 17,67.4998904 Z" id="Shape-Copy-2" stroke="#FFFFFF" fill="#3E65B0"></path>
            <path d="M47.4,45.1 C49.0266667,45.1 50.4666667,44.4266667 51.72,43.08 L51.72,43.08 L51.72,45 L53.24,45 L53.24,37.92 L48.66,37.92 L48.66,39.28 L51.72,39.28 L51.72,41.24 C50.48,42.7333333 49.0866667,43.48 47.54,43.48 C46.8333333,43.48 46.18,43.3333333 45.58,43.04 C44.98,42.7466667 44.46,42.3433333 44.02,41.83 C43.58,41.3166667 43.2333333,40.7233333 42.98,40.05 C42.7266667,39.3766667 42.6,38.66 42.6,37.9 C42.6,37.18 42.7133333,36.4833333 42.94,35.81 C43.1666667,35.1366667 43.4866667,34.5433333 43.9,34.03 C44.3133333,33.5166667 44.8133333,33.1033333 45.4,32.79 C45.9866667,32.4766667 46.64,32.32 47.36,32.32 C48.24,32.32 49.0333333,32.52 49.74,32.92 C50.4466667,33.32 51.0133333,33.9333333 51.44,34.76 L51.44,34.76 L52.82,33.8 C52.3533333,32.88 51.6766667,32.1333333 50.79,31.56 C49.9033333,30.9866667 48.7733333,30.7 47.4,30.7 C46.4533333,30.7 45.5733333,30.8933333 44.76,31.28 C43.9466667,31.6666667 43.2466667,32.19 42.66,32.85 C42.0733333,33.51 41.6133333,34.27 41.28,35.13 C40.9466667,35.99 40.78,36.9 40.78,37.86 C40.78,38.78 40.95,39.6733333 41.29,40.54 C41.63,41.4066667 42.0933333,42.1766667 42.68,42.85 C43.2666667,43.5233333 43.9633333,44.0666667 44.77,44.48 C45.5766667,44.8933333 46.4533333,45.1 47.4,45.1 Z M61.94,45 L64.78,38.3 L67.6,45 L69.16,45 L75.1,30.8 L73.14,30.8 L68.34,42.92 L65.9,37.06 L68.36,30.88 L66.66,30.88 L64.76,35.82 L62.88,30.88 L61.18,30.88 L63.64,37.06 L61.22,42.92 L56.4,30.8 L54.46,30.8 L60.38,45 L61.94,45 Z M86.3,45.2 C87.0866667,45.2 87.8033333,45.0533333 88.45,44.76 C89.0966667,44.4666667 89.6533333,44.0733333 90.12,43.58 C90.5866667,43.0866667 90.9466667,42.5133333 91.2,41.86 C91.4533333,41.2066667 91.58,40.52 91.58,39.8 C91.58,39.0666667 91.45,38.3733333 91.19,37.72 C90.93,37.0666667 90.57,36.4933333 90.11,36 C89.65,35.5066667 89.0933333,35.1133333 88.44,34.82 C87.7866667,34.5266667 87.0733333,34.38 86.3,34.38 C85.5266667,34.38 84.8166667,34.5266667 84.17,34.82 C83.5233333,35.1133333 82.97,35.5066667 82.51,36 C82.05,36.4933333 81.69,37.0666667 81.43,37.72 C81.17,38.3733333 81.04,39.0666667 81.04,39.8 C81.04,40.52 81.1666667,41.2066667 81.42,41.86 C81.6733333,42.5133333 82.03,43.0866667 82.49,43.58 C82.95,44.0733333 83.5033333,44.4666667 84.15,44.76 C84.7966667,45.0533333 85.5133333,45.2 86.3,45.2 Z M86.3,43.68 C85.82,43.68 85.37,43.58 84.95,43.38 C84.53,43.18 84.1633333,42.9066667 83.85,42.56 C83.5366667,42.2133333 83.29,41.8066667 83.11,41.34 C82.93,40.8733333 82.84,40.3666667 82.84,39.82 C82.84,39.2733333 82.93,38.7633333 83.11,38.29 C83.29,37.8166667 83.5366667,37.4033333 83.85,37.05 C84.1633333,36.6966667 84.53,36.4166667 84.95,36.21 C85.37,36.0033333 85.82,35.9 86.3,35.9 C86.78,35.9 87.23,36 87.65,36.2 C88.07,36.4 88.44,36.6766667 88.76,37.03 C89.08,37.3833333 89.33,37.7966667 89.51,38.27 C89.69,38.7433333 89.78,39.2466667 89.78,39.78 C89.78,40.3266667 89.69,40.8366667 89.51,41.31 C89.33,41.7833333 89.08,42.1966667 88.76,42.55 C88.44,42.9033333 88.07,43.18 87.65,43.38 C87.23,43.58 86.78,43.68 86.3,43.68 Z M95.48,45 L95.48,38.7 C95.6,38.3 95.78,37.9333333 96.02,37.6 C96.26,37.2666667 96.54,36.98 96.86,36.74 C97.18,36.5 97.52,36.31 97.88,36.17 C98.24,36.03 98.6,35.96 98.96,35.96 C99.6533333,35.96 100.17,36.2133333 100.51,36.72 C100.85,37.2266667 101.02,38.04 101.02,39.16 L101.02,39.16 L101.02,45 L102.78,45 L102.78,38.76 C102.78,38.1333333 102.73,37.5533333 102.63,37.02 C102.53,36.4866667 102.36,36.0233333 102.12,35.63 C101.88,35.2366667 101.56,34.93 101.16,34.71 C100.76,34.49 100.26,34.38 99.66,34.38 C98.74,34.38 97.89,34.6 97.11,35.04 C96.33,35.48 95.7333333,36.0666667 95.32,36.8 L95.32,36.8 L95.32,34.56 L93.72,34.56 L93.72,45 L95.48,45 Z M109.18,45.2 C110.446667,45.2 111.453333,44.9133333 112.2,44.34 C112.946667,43.7666667 113.32,42.9933333 113.32,42.02 C113.32,41.58 113.236667,41.2066667 113.07,40.9 C112.903333,40.5933333 112.65,40.3266667 112.31,40.1 C111.97,39.8733333 111.543333,39.6766667 111.03,39.51 C110.516667,39.3433333 109.913333,39.18 109.22,39.02 C108.78,38.9133333 108.403333,38.8133333 108.09,38.72 C107.776667,38.6266667 107.52,38.52 107.32,38.4 C107.12,38.28 106.976667,38.14 106.89,37.98 C106.803333,37.82 106.76,37.62 106.76,37.38 C106.76,36.78 106.983333,36.3433333 107.43,36.07 C107.876667,35.7966667 108.42,35.66 109.06,35.66 C109.633333,35.66 110.193333,35.7566667 110.74,35.95 C111.286667,36.1433333 111.78,36.4333333 112.22,36.82 L112.22,36.82 L113.02,35.76 C112.553333,35.3466667 111.98,35.0133333 111.3,34.76 C110.62,34.5066667 109.886667,34.38 109.1,34.38 C108.54,34.38 108.016667,34.45 107.53,34.59 C107.043333,34.73 106.62,34.9366667 106.26,35.21 C105.9,35.4833333 105.616667,35.8233333 105.41,36.23 C105.203333,36.6366667 105.1,37.1 105.1,37.62 C105.1,38.0333333 105.166667,38.38 105.3,38.66 C105.433333,38.94 105.646667,39.18 105.94,39.38 C106.233333,39.58 106.606667,39.7533333 107.06,39.9 C107.513333,40.0466667 108.053333,40.2 108.68,40.36 C109.173333,40.48 109.606667,40.5933333 109.98,40.7 C110.353333,40.8066667 110.66,40.9266667 110.9,41.06 C111.14,41.1933333 111.32,41.35 111.44,41.53 C111.56,41.71 111.62,41.9266667 111.62,42.18 C111.62,42.7266667 111.396667,43.15 110.95,43.45 C110.503333,43.75 109.9,43.9 109.14,43.9 C108.46,43.9 107.813333,43.7833333 107.2,43.55 C106.586667,43.3166667 105.973333,42.9666667 105.36,42.5 L105.36,42.5 L104.6,43.68 C105.186667,44.1733333 105.886667,44.55 106.7,44.81 C107.513333,45.07 108.34,45.2 109.18,45.2 Z M117.16,45 L117.16,38.7 C117.28,38.3 117.456667,37.9333333 117.69,37.6 C117.923333,37.2666667 118.19,36.98 118.49,36.74 C118.79,36.5 119.113333,36.31 119.46,36.17 C119.806667,36.03 120.153333,35.96 120.5,35.96 C121.22,35.96 121.766667,36.2233333 122.14,36.75 C122.513333,37.2766667 122.7,38.08 122.7,39.16 L122.7,39.16 L122.7,45 L124.46,45 L124.46,38.76 C124.46,38.1466667 124.403333,37.57 124.29,37.03 C124.176667,36.49 123.993333,36.0266667 123.74,35.64 C123.486667,35.2533333 123.146667,34.9466667 122.72,34.72 C122.293333,34.4933333 121.773333,34.38 121.16,34.38 C120.32,34.38 119.546667,34.5933333 118.84,35.02 C118.133333,35.4466667 117.573333,36.04 117.16,36.8 L117.16,36.8 L117.16,30.4 L115.4,30.4 L115.4,45 L117.16,45 Z M131.76,45.2 C132.546667,45.2 133.263333,45.0533333 133.91,44.76 C134.556667,44.4666667 135.113333,44.0733333 135.58,43.58 C136.046667,43.0866667 136.406667,42.5133333 136.66,41.86 C136.913333,41.2066667 137.04,40.52 137.04,39.8 C137.04,39.0666667 136.91,38.3733333 136.65,37.72 C136.39,37.0666667 136.03,36.4933333 135.57,36 C135.11,35.5066667 134.553333,35.1133333 133.9,34.82 C133.246667,34.5266667 132.533333,34.38 131.76,34.38 C130.986667,34.38 130.276667,34.5266667 129.63,34.82 C128.983333,35.1133333 128.43,35.5066667 127.97,36 C127.51,36.4933333 127.15,37.0666667 126.89,37.72 C126.63,38.3733333 126.5,39.0666667 126.5,39.8 C126.5,40.52 126.626667,41.2066667 126.88,41.86 C127.133333,42.5133333 127.49,43.0866667 127.95,43.58 C128.41,44.0733333 128.963333,44.4666667 129.61,44.76 C130.256667,45.0533333 130.973333,45.2 131.76,45.2 Z M131.76,43.68 C131.28,43.68 130.83,43.58 130.41,43.38 C129.99,43.18 129.623333,42.9066667 129.31,42.56 C128.996667,42.2133333 128.75,41.8066667 128.57,41.34 C128.39,40.8733333 128.3,40.3666667 128.3,39.82 C128.3,39.2733333 128.39,38.7633333 128.57,38.29 C128.75,37.8166667 128.996667,37.4033333 129.31,37.05 C129.623333,36.6966667 129.99,36.4166667 130.41,36.21 C130.83,36.0033333 131.28,35.9 131.76,35.9 C132.24,35.9 132.69,36 133.11,36.2 C133.53,36.4 133.9,36.6766667 134.22,37.03 C134.54,37.3833333 134.79,37.7966667 134.97,38.27 C135.15,38.7433333 135.24,39.2466667 135.24,39.78 C135.24,40.3266667 135.15,40.8366667 134.97,41.31 C134.79,41.7833333 134.54,42.1966667 134.22,42.55 C133.9,42.9033333 133.53,43.18 133.11,43.38 C132.69,43.58 132.24,43.68 131.76,43.68 Z M140.94,45 L140.94,38.56 C141.22,37.8 141.696667,37.2066667 142.37,36.78 C143.043333,36.3533333 143.82,36.1266667 144.7,36.1 L144.7,36.1 L144.7,34.5 C144.633333,34.4866667 144.553333,34.48 144.46,34.48 L144.46,34.48 L144.12,34.48 C143.453333,34.5333333 142.826667,34.7833333 142.24,35.23 C141.653333,35.6766667 141.18,36.26 140.82,36.98 L140.82,36.98 L140.82,34.56 L139.18,34.56 L139.18,45 L140.94,45 Z M151.06,45.2 C151.58,45.2 152.08,45.1333333 152.56,45 C153.04,44.8666667 153.476667,44.6833333 153.87,44.45 C154.263333,44.2166667 154.61,43.94 154.91,43.62 C155.21,43.3 155.446667,42.9466667 155.62,42.56 L155.62,42.56 L154.1,42.14 C153.993333,42.4066667 153.836667,42.6466667 153.63,42.86 C153.423333,43.0733333 153.186667,43.2533333 152.92,43.4 C152.653333,43.5466667 152.366667,43.6633333 152.06,43.75 C151.753333,43.8366667 151.44,43.88 151.12,43.88 C150.666667,43.88 150.236667,43.7933333 149.83,43.62 C149.423333,43.4466667 149.06,43.2066667 148.74,42.9 C148.42,42.5933333 148.16,42.2266667 147.96,41.8 C147.76,41.3733333 147.64,40.9 147.6,40.38 L147.6,40.38 L156.26,40.38 C156.273333,40.3133333 156.283333,40.22 156.29,40.1 C156.296667,39.98 156.3,39.8466667 156.3,39.7 C156.3,39.0066667 156.176667,38.3366667 155.93,37.69 C155.683333,37.0433333 155.333333,36.4766667 154.88,35.99 C154.426667,35.5033333 153.876667,35.1133333 153.23,34.82 C152.583333,34.5266667 151.866667,34.38 151.08,34.38 C150.293333,34.38 149.573333,34.5233333 148.92,34.81 C148.266667,35.0966667 147.703333,35.4866667 147.23,35.98 C146.756667,36.4733333 146.39,37.0466667 146.13,37.7 C145.87,38.3533333 145.74,39.0466667 145.74,39.78 C145.74,40.5133333 145.87,41.21 146.13,41.87 C146.39,42.53 146.753333,43.1066667 147.22,43.6 C147.686667,44.0933333 148.246667,44.4833333 148.9,44.77 C149.553333,45.0566667 150.273333,45.2 151.06,45.2 Z M154.64,39.08 L147.56,39.08 C147.6,38.5866667 147.716667,38.1333333 147.91,37.72 C148.103333,37.3066667 148.356667,36.95 148.67,36.65 C148.983333,36.35 149.346667,36.1166667 149.76,35.95 C150.173333,35.7833333 150.613333,35.7 151.08,35.7 C151.546667,35.7 151.986667,35.7833333 152.4,35.95 C152.813333,36.1166667 153.176667,36.3466667 153.49,36.64 C153.803333,36.9333333 154.063333,37.29 154.27,37.71 C154.476667,38.13 154.6,38.5866667 154.64,39.08 L154.64,39.08 Z" id="GWonshore" fill="#999997"></path>
            <path d="M47.4,74.1 C49.0266667,74.1 50.4666667,73.4266667 51.72,72.08 L51.72,72.08 L51.72,74 L53.24,74 L53.24,66.92 L48.66,66.92 L48.66,68.28 L51.72,68.28 L51.72,70.24 C50.48,71.7333333 49.0866667,72.48 47.54,72.48 C46.8333333,72.48 46.18,72.3333333 45.58,72.04 C44.98,71.7466667 44.46,71.3433333 44.02,70.83 C43.58,70.3166667 43.2333333,69.7233333 42.98,69.05 C42.7266667,68.3766667 42.6,67.66 42.6,66.9 C42.6,66.18 42.7133333,65.4833333 42.94,64.81 C43.1666667,64.1366667 43.4866667,63.5433333 43.9,63.03 C44.3133333,62.5166667 44.8133333,62.1033333 45.4,61.79 C45.9866667,61.4766667 46.64,61.32 47.36,61.32 C48.24,61.32 49.0333333,61.52 49.74,61.92 C50.4466667,62.32 51.0133333,62.9333333 51.44,63.76 L51.44,63.76 L52.82,62.8 C52.3533333,61.88 51.6766667,61.1333333 50.79,60.56 C49.9033333,59.9866667 48.7733333,59.7 47.4,59.7 C46.4533333,59.7 45.5733333,59.8933333 44.76,60.28 C43.9466667,60.6666667 43.2466667,61.19 42.66,61.85 C42.0733333,62.51 41.6133333,63.27 41.28,64.13 C40.9466667,64.99 40.78,65.9 40.78,66.86 C40.78,67.78 40.95,68.6733333 41.29,69.54 C41.63,70.4066667 42.0933333,71.1766667 42.68,71.85 C43.2666667,72.5233333 43.9633333,73.0666667 44.77,73.48 C45.5766667,73.8933333 46.4533333,74.1 47.4,74.1 Z M61.94,74 L64.78,67.3 L67.6,74 L69.16,74 L75.1,59.8 L73.14,59.8 L68.34,71.92 L65.9,66.06 L68.36,59.88 L66.66,59.88 L64.76,64.82 L62.88,59.88 L61.18,59.88 L63.64,66.06 L61.22,71.92 L56.4,59.8 L54.46,59.8 L60.38,74 L61.94,74 Z M86.3,74.2 C87.0866667,74.2 87.8033333,74.0533333 88.45,73.76 C89.0966667,73.4666667 89.6533333,73.0733333 90.12,72.58 C90.5866667,72.0866667 90.9466667,71.5133333 91.2,70.86 C91.4533333,70.2066667 91.58,69.52 91.58,68.8 C91.58,68.0666667 91.45,67.3733333 91.19,66.72 C90.93,66.0666667 90.57,65.4933333 90.11,65 C89.65,64.5066667 89.0933333,64.1133333 88.44,63.82 C87.7866667,63.5266667 87.0733333,63.38 86.3,63.38 C85.5266667,63.38 84.8166667,63.5266667 84.17,63.82 C83.5233333,64.1133333 82.97,64.5066667 82.51,65 C82.05,65.4933333 81.69,66.0666667 81.43,66.72 C81.17,67.3733333 81.04,68.0666667 81.04,68.8 C81.04,69.52 81.1666667,70.2066667 81.42,70.86 C81.6733333,71.5133333 82.03,72.0866667 82.49,72.58 C82.95,73.0733333 83.5033333,73.4666667 84.15,73.76 C84.7966667,74.0533333 85.5133333,74.2 86.3,74.2 Z M86.3,72.68 C85.82,72.68 85.37,72.58 84.95,72.38 C84.53,72.18 84.1633333,71.9066667 83.85,71.56 C83.5366667,71.2133333 83.29,70.8066667 83.11,70.34 C82.93,69.8733333 82.84,69.3666667 82.84,68.82 C82.84,68.2733333 82.93,67.7633333 83.11,67.29 C83.29,66.8166667 83.5366667,66.4033333 83.85,66.05 C84.1633333,65.6966667 84.53,65.4166667 84.95,65.21 C85.37,65.0033333 85.82,64.9 86.3,64.9 C86.78,64.9 87.23,65 87.65,65.2 C88.07,65.4 88.44,65.6766667 88.76,66.03 C89.08,66.3833333 89.33,66.7966667 89.51,67.27 C89.69,67.7433333 89.78,68.2466667 89.78,68.78 C89.78,69.3266667 89.69,69.8366667 89.51,70.31 C89.33,70.7833333 89.08,71.1966667 88.76,71.55 C88.44,71.9033333 88.07,72.18 87.65,72.38 C87.23,72.58 86.78,72.68 86.3,72.68 Z M96.04,74 L96.04,64.94 L99.08,64.94 L99.08,74 L100.84,74 L100.84,64.94 L103.98,64.94 L103.98,63.56 L100.84,63.56 L100.84,63.28 C100.84,62.9733333 100.88,62.6666667 100.96,62.36 C101.04,62.0533333 101.163333,61.78 101.33,61.54 C101.496667,61.3 101.71,61.1033333 101.97,60.95 C102.23,60.7966667 102.546667,60.72 102.92,60.72 C103.306667,60.72 103.606667,60.7633333 103.82,60.85 C104.033333,60.9366667 104.22,61.0333333 104.38,61.14 L104.38,61.14 L104.82,59.84 C104.606667,59.7466667 104.33,59.6166667 103.99,59.45 C103.65,59.2833333 103.186667,59.2 102.6,59.2 C101.973333,59.2 101.443333,59.32 101.01,59.56 C100.576667,59.8 100.213333,60.1133333 99.92,60.5 C99.6133333,60.3533333 99.2633333,60.2266667 98.87,60.12 C98.4766667,60.0133333 98.04,59.96 97.56,59.96 C97.0266667,59.96 96.5566667,60.0566667 96.15,60.25 C95.7433333,60.4433333 95.4033333,60.7033333 95.13,61.03 C94.8566667,61.3566667 94.65,61.7333333 94.51,62.16 C94.37,62.5866667 94.2933333,63.0266667 94.28,63.48 L94.28,63.48 L94.28,63.56 L92.86,63.56 L92.86,64.94 L94.28,64.94 L94.28,74 L96.04,74 Z M99.08,63.56 L96.04,63.56 L96.04,63.46 C96.0533333,62.9266667 96.1966667,62.4633333 96.47,62.07 C96.7433333,61.6766667 97.2133333,61.48 97.88,61.48 C98.1066667,61.48 98.3633333,61.5033333 98.65,61.55 C98.9366667,61.5966667 99.1866667,61.6933333 99.4,61.84 C99.2933333,62.0533333 99.2133333,62.33 99.16,62.67 C99.1066667,63.01 99.08,63.3066667 99.08,63.56 L99.08,63.56 Z M109.4,74.2 C110.666667,74.2 111.673333,73.9133333 112.42,73.34 C113.166667,72.7666667 113.54,71.9933333 113.54,71.02 C113.54,70.58 113.456667,70.2066667 113.29,69.9 C113.123333,69.5933333 112.87,69.3266667 112.53,69.1 C112.19,68.8733333 111.763333,68.6766667 111.25,68.51 C110.736667,68.3433333 110.133333,68.18 109.44,68.02 C109,67.9133333 108.623333,67.8133333 108.31,67.72 C107.996667,67.6266667 107.74,67.52 107.54,67.4 C107.34,67.28 107.196667,67.14 107.11,66.98 C107.023333,66.82 106.98,66.62 106.98,66.38 C106.98,65.78 107.203333,65.3433333 107.65,65.07 C108.096667,64.7966667 108.64,64.66 109.28,64.66 C109.853333,64.66 110.413333,64.7566667 110.96,64.95 C111.506667,65.1433333 112,65.4333333 112.44,65.82 L112.44,65.82 L113.24,64.76 C112.773333,64.3466667 112.2,64.0133333 111.52,63.76 C110.84,63.5066667 110.106667,63.38 109.32,63.38 C108.76,63.38 108.236667,63.45 107.75,63.59 C107.263333,63.73 106.84,63.9366667 106.48,64.21 C106.12,64.4833333 105.836667,64.8233333 105.63,65.23 C105.423333,65.6366667 105.32,66.1 105.32,66.62 C105.32,67.0333333 105.386667,67.38 105.52,67.66 C105.653333,67.94 105.866667,68.18 106.16,68.38 C106.453333,68.58 106.826667,68.7533333 107.28,68.9 C107.733333,69.0466667 108.273333,69.2 108.9,69.36 C109.393333,69.48 109.826667,69.5933333 110.2,69.7 C110.573333,69.8066667 110.88,69.9266667 111.12,70.06 C111.36,70.1933333 111.54,70.35 111.66,70.53 C111.78,70.71 111.84,70.9266667 111.84,71.18 C111.84,71.7266667 111.616667,72.15 111.17,72.45 C110.723333,72.75 110.12,72.9 109.36,72.9 C108.68,72.9 108.033333,72.7833333 107.42,72.55 C106.806667,72.3166667 106.193333,71.9666667 105.58,71.5 L105.58,71.5 L104.82,72.68 C105.406667,73.1733333 106.106667,73.55 106.92,73.81 C107.733333,74.07 108.56,74.2 109.4,74.2 Z M117.38,74 L117.38,67.7 C117.5,67.3 117.676667,66.9333333 117.91,66.6 C118.143333,66.2666667 118.41,65.98 118.71,65.74 C119.01,65.5 119.333333,65.31 119.68,65.17 C120.026667,65.03 120.373333,64.96 120.72,64.96 C121.44,64.96 121.986667,65.2233333 122.36,65.75 C122.733333,66.2766667 122.92,67.08 122.92,68.16 L122.92,68.16 L122.92,74 L124.68,74 L124.68,67.76 C124.68,67.1466667 124.623333,66.57 124.51,66.03 C124.396667,65.49 124.213333,65.0266667 123.96,64.64 C123.706667,64.2533333 123.366667,63.9466667 122.94,63.72 C122.513333,63.4933333 121.993333,63.38 121.38,63.38 C120.54,63.38 119.766667,63.5933333 119.06,64.02 C118.353333,64.4466667 117.793333,65.04 117.38,65.8 L117.38,65.8 L117.38,59.4 L115.62,59.4 L115.62,74 L117.38,74 Z M131.98,74.2 C132.766667,74.2 133.483333,74.0533333 134.13,73.76 C134.776667,73.4666667 135.333333,73.0733333 135.8,72.58 C136.266667,72.0866667 136.626667,71.5133333 136.88,70.86 C137.133333,70.2066667 137.26,69.52 137.26,68.8 C137.26,68.0666667 137.13,67.3733333 136.87,66.72 C136.61,66.0666667 136.25,65.4933333 135.79,65 C135.33,64.5066667 134.773333,64.1133333 134.12,63.82 C133.466667,63.5266667 132.753333,63.38 131.98,63.38 C131.206667,63.38 130.496667,63.5266667 129.85,63.82 C129.203333,64.1133333 128.65,64.5066667 128.19,65 C127.73,65.4933333 127.37,66.0666667 127.11,66.72 C126.85,67.3733333 126.72,68.0666667 126.72,68.8 C126.72,69.52 126.846667,70.2066667 127.1,70.86 C127.353333,71.5133333 127.71,72.0866667 128.17,72.58 C128.63,73.0733333 129.183333,73.4666667 129.83,73.76 C130.476667,74.0533333 131.193333,74.2 131.98,74.2 Z M131.98,72.68 C131.5,72.68 131.05,72.58 130.63,72.38 C130.21,72.18 129.843333,71.9066667 129.53,71.56 C129.216667,71.2133333 128.97,70.8066667 128.79,70.34 C128.61,69.8733333 128.52,69.3666667 128.52,68.82 C128.52,68.2733333 128.61,67.7633333 128.79,67.29 C128.97,66.8166667 129.216667,66.4033333 129.53,66.05 C129.843333,65.6966667 130.21,65.4166667 130.63,65.21 C131.05,65.0033333 131.5,64.9 131.98,64.9 C132.46,64.9 132.91,65 133.33,65.2 C133.75,65.4 134.12,65.6766667 134.44,66.03 C134.76,66.3833333 135.01,66.7966667 135.19,67.27 C135.37,67.7433333 135.46,68.2466667 135.46,68.78 C135.46,69.3266667 135.37,69.8366667 135.19,70.31 C135.01,70.7833333 134.76,71.1966667 134.44,71.55 C134.12,71.9033333 133.75,72.18 133.33,72.38 C132.91,72.58 132.46,72.68 131.98,72.68 Z M141.16,74 L141.16,67.56 C141.44,66.8 141.916667,66.2066667 142.59,65.78 C143.263333,65.3533333 144.04,65.1266667 144.92,65.1 L144.92,65.1 L144.92,63.5 C144.853333,63.4866667 144.773333,63.48 144.68,63.48 L144.68,63.48 L144.34,63.48 C143.673333,63.5333333 143.046667,63.7833333 142.46,64.23 C141.873333,64.6766667 141.4,65.26 141.04,65.98 L141.04,65.98 L141.04,63.56 L139.4,63.56 L139.4,74 L141.16,74 Z M151.28,74.2 C151.8,74.2 152.3,74.1333333 152.78,74 C153.26,73.8666667 153.696667,73.6833333 154.09,73.45 C154.483333,73.2166667 154.83,72.94 155.13,72.62 C155.43,72.3 155.666667,71.9466667 155.84,71.56 L155.84,71.56 L154.32,71.14 C154.213333,71.4066667 154.056667,71.6466667 153.85,71.86 C153.643333,72.0733333 153.406667,72.2533333 153.14,72.4 C152.873333,72.5466667 152.586667,72.6633333 152.28,72.75 C151.973333,72.8366667 151.66,72.88 151.34,72.88 C150.886667,72.88 150.456667,72.7933333 150.05,72.62 C149.643333,72.4466667 149.28,72.2066667 148.96,71.9 C148.64,71.5933333 148.38,71.2266667 148.18,70.8 C147.98,70.3733333 147.86,69.9 147.82,69.38 L147.82,69.38 L156.48,69.38 C156.493333,69.3133333 156.503333,69.22 156.51,69.1 C156.516667,68.98 156.52,68.8466667 156.52,68.7 C156.52,68.0066667 156.396667,67.3366667 156.15,66.69 C155.903333,66.0433333 155.553333,65.4766667 155.1,64.99 C154.646667,64.5033333 154.096667,64.1133333 153.45,63.82 C152.803333,63.5266667 152.086667,63.38 151.3,63.38 C150.513333,63.38 149.793333,63.5233333 149.14,63.81 C148.486667,64.0966667 147.923333,64.4866667 147.45,64.98 C146.976667,65.4733333 146.61,66.0466667 146.35,66.7 C146.09,67.3533333 145.96,68.0466667 145.96,68.78 C145.96,69.5133333 146.09,70.21 146.35,70.87 C146.61,71.53 146.973333,72.1066667 147.44,72.6 C147.906667,73.0933333 148.466667,73.4833333 149.12,73.77 C149.773333,74.0566667 150.493333,74.2 151.28,74.2 Z M154.86,68.08 L147.78,68.08 C147.82,67.5866667 147.936667,67.1333333 148.13,66.72 C148.323333,66.3066667 148.576667,65.95 148.89,65.65 C149.203333,65.35 149.566667,65.1166667 149.98,64.95 C150.393333,64.7833333 150.833333,64.7 151.3,64.7 C151.766667,64.7 152.206667,64.7833333 152.62,64.95 C153.033333,65.1166667 153.396667,65.3466667 153.71,65.64 C154.023333,65.9333333 154.283333,66.29 154.49,66.71 C154.696667,67.13 154.82,67.5866667 154.86,68.08 L154.86,68.08 Z" id="GWofshore" fill="#999997"></path>
        </g>
    </g>
</svg>