<?xml version="1.0" encoding="UTF-8" standalone="no"?>
<svg width="654px" height="636px" viewBox="0 0 654 636" version="1.1" xmlns="http://www.w3.org/2000/svg" xmlns:xlink="http://www.w3.org/1999/xlink">
    <!-- Generator: Sketch 45.2 (43514) - http://www.bohemiancoding.com/sketch -->
    <title>Group 23</title>
    <desc>Created with Sketch.</desc>
    <defs>
        <linearGradient x1="122.264119%" y1="-58.2590081%" x2="52.2804566%" y2="92.0546635%" id="linearGradient-1">
            <stop stop-color="#2C4963" offset="0%"></stop>
            <stop stop-color="#286AA6" offset="100%"></stop>
        </linearGradient>
        <linearGradient x1="63.1659958%" y1="7.83306003%" x2="-2.70582933%" y2="167.587891%" id="linearGradient-2">
            <stop stop-color="#2A5072" offset="0%"></stop>
            <stop stop-color="#286AA6" offset="100%"></stop>
        </linearGradient>
    </defs>
    <g id="Energy" stroke="none" stroke-width="1" fill="none" fill-rule="evenodd">
        <g id="Group-2-Copy" transform="translate(-524.000000, -300.000000)">
            <g id="Group-23" transform="translate(363.000000, 290.000000)">
                <path d="M73.0291932,516.58733 L720.879367,565.858888 C749.510264,568.036381 771.310536,546.557911 769.572178,517.894338 L746.019404,129.535369 C746.019404,129.535369 600.488436,338.157659 526.669816,378.474114 C462.625555,413.452248 59.8912168,510.460991 59.8912168,510.460991 L73.0291932,516.58733 Z" id="Path-11-Copy-3" fill="url(#linearGradient-1)" transform="translate(414.780269, 347.773115) rotate(-25.000000) translate(-414.780269, -347.773115) "></path>
                <path d="M445.464817,366.283907 L450.035501,497.774554 C451.340173,535.307704 482.559385,569.905656 519.756064,575.049927 L748.526648,606.688721 L445.464817,366.283907 Z" id="Path-10-Copy-3" fill="url(#linearGradient-2)" transform="translate(596.995732, 486.486314) rotate(121.000000) translate(-596.995732, -486.486314) "></path>
            </g>
        </g>
    </g>
</svg>